<?xml version="1.0" encoding="utf-8"?>
<!-- Generator: Adobe Illustrator 27.3.0, SVG Export Plug-In . SVG Version: 6.00 Build 0)  -->
<svg version="1.1" id="Layer_1" xmlns="http://www.w3.org/2000/svg" xmlns:xlink="http://www.w3.org/1999/xlink" x="0px" y="0px"
	 viewBox="0 0 150 150" enable-background="new 0 0 150 150" xml:space="preserve" width="20px" height="20px">
<g>
	<g>
		<rect fill="none" width="150" height="150"/>
	</g>
	<g>
		<rect x="10" y="10" fill="none" width="130" height="130"/>
	</g>
</g>
<g id="Group_12521_00000154395232943974741600000001925595270990667401_" transform="translate(-115 -171)">
	<path id="Union_8_00000110467010903972604700000010768813673635767181_" fill="#09143e" d="M136.9,310.9c-3.3,0-6-2.7-6-6
		c0-3.3,2.7-6,6-6c0,0,0,0,0,0h106.3c3.3,0,6,2.7,6,6c0,3.3-2.7,6-6,6c0,0,0,0,0,0H136.9z M137.1,270.8v-43.4
		c0-7,5.6-12.6,12.6-12.6s12.6,5.6,12.6,12.6v43.4c0,7-5.6,12.6-12.6,12.6S137.1,277.8,137.1,270.8z M177.4,270.1v-59.6
		c0-7,5.6-12.6,12.6-12.6c7,0,12.6,5.6,12.6,12.6c0,0,0,0,0,0v59.6c0,7-5.6,12.6-12.6,12.6C183,282.7,177.4,277.1,177.4,270.1
		C177.4,270.1,177.4,270.1,177.4,270.1z M217.7,269.5v-75.7c0-7,5.6-12.6,12.6-12.6c0,0,0,0,0,0c7,0,12.6,5.6,12.6,12.6c0,0,0,0,0,0
		v75.7c0,7-5.6,12.6-12.6,12.6C223.4,282.1,217.7,276.4,217.7,269.5L217.7,269.5L217.7,269.5z"/>
</g>
</svg>
