<?xml version="1.0" encoding="utf-8"?>
<!-- Generator: Adobe Illustrator 27.7.0, SVG Export Plug-In . SVG Version: 6.00 Build 0)  -->
<svg version="1.1" id="Layer_1" xmlns="http://www.w3.org/2000/svg" xmlns:xlink="http://www.w3.org/1999/xlink" x="0px" y="0px"
	 viewBox="0 0 150 150" style="enable-background:new 0 0 150 150;" xml:space="preserve" width="20px" height="20px">
<style type="text/css">
	.st0{fill:#09143e;}
	.st1{fill:none;}
</style>
<g id="Group_12520" transform="translate(-115 -171)">
	<path id="auto_stories_FILL0_wght700_GRAD0_opsz48" class="st0" d="M190.3,300.7c-0.8,0-1.6-0.1-2.4-0.3c-0.8-0.2-1.6-0.5-2.2-1
		c-4-2.6-8.3-4.7-12.8-6.3c-4.5-1.6-9.2-2.3-13.9-2.3c-3.7,0-7.5,0.5-11.1,1.6c-3.6,1-7,2.5-10.3,4.3c-2.8,1.5-6.1,1.4-8.8-0.3
		c-2.7-1.5-4.4-4.3-4.3-7.4v-68c0-2,0.4-3.9,1.3-5.7c0.9-1.7,2.3-3.1,4-3.9c4.4-2.2,9.1-3.8,14-4.8c4.9-1,9.8-1.6,14.8-1.6
		c5.5,0,11,0.7,16.4,2.1c5.4,1.4,10.5,3.7,15.1,6.7V289c4.7-3.1,9.8-5.5,15.2-7.3c5.2-1.7,10.6-2.6,16-2.6c3.7,0,7.5,0.4,11.1,1.2
		c4.1,0.8,7.9,2.2,11.6,4.3v-75.9c1.1,0.5,2.2,0.9,3.3,1.3l3.3,1.4c1.7,0.8,3.2,2.2,4,3.9c0.9,1.8,1.3,3.7,1.3,5.7v69.7
		c0.1,2.8-1.6,5.4-4.3,6.4c-2.8,1.3-6.1,1.2-8.8-0.4c-3.3-1.8-6.8-3.2-10.4-4.3c-3.6-1-7.3-1.6-11-1.6c-4.6,0-9.3,0.8-13.6,2.4
		c-4.4,1.6-8.6,3.7-12.5,6.3c-0.7,0.5-1.4,0.8-2.3,1C192,300.7,191.1,300.8,190.3,300.7z M204.3,270.6c-1,0.9-2.5,1.1-3.8,0.6
		c-1.3-0.5-2.1-1.7-2.1-3.1v-44.4c0-0.4,0.1-0.9,0.2-1.3c0.1-0.4,0.4-0.7,0.6-1l30-30.6c1-1,2.5-1.3,3.8-0.7
		c1.3,0.4,2.2,1.7,2.2,3.1v48.3c0,0.5-0.1,0.9-0.3,1.3c-0.2,0.4-0.4,0.7-0.7,1.1L204.3,270.6z M178.2,283.2v-62.1
		c-3-1.6-6.2-2.7-9.6-3.3c-3.2-0.7-6.5-1-9.9-1.1c-4.2,0-8.3,0.4-12.4,1.3c-3.5,0.8-7,1.8-10.3,3.2v63.1c3.4-1.7,7-3,10.7-3.9
		c4-0.9,8-1.4,12-1.3c3.5,0,7,0.3,10.5,1.1C172.4,280.8,175.4,281.8,178.2,283.2L178.2,283.2z M178.2,283.2L178.2,283.2z"/>
	<rect id="Rectangle_321" x="115" y="171" class="st1" width="150" height="150"/>
</g>
</svg>
