<?xml version="1.0" encoding="utf-8"?>
<!-- Generator: Adobe Illustrator 27.3.0, SVG Export Plug-In . SVG Version: 6.00 Build 0)  -->
<svg version="1.1" id="Layer_1" xmlns="http://www.w3.org/2000/svg" xmlns:xlink="http://www.w3.org/1999/xlink" x="0px" y="0px"
	 viewBox="0 0 150 150" enable-background="new 0 0 150 150" xml:space="preserve" width="20px" height="20px">
<g>
	<g>
		<rect fill="none" width="150" height="150"/>
	</g>
	<g>
		<rect x="10" y="10" fill="none" width="130" height="130"/>
	</g>
</g>
<g id="Group_12519_00000048462487169091481220000018287024058465542795_" transform="translate(-115 -171)">
	<path id="Union_17_00000129200443424986445520000015161976779876372668_" fill="#09143e" d="M133.7,288.5h-0.3v-79.3
		c0-15.6,25.3-28.3,56.6-28.3s56.6,12.7,56.6,28.3v79.3h-0.3c-3.1,12.7-27.1,22.7-56.3,22.7S136.8,301.2,133.7,288.5z M150.4,284.1
		c3.2,2.6,6.9,4.6,10.9,5.8c9.3,3,19,4.4,28.8,4.3c9.8,0.1,19.5-1.3,28.8-4.3c4-1.1,7.7-3.1,10.9-5.8v-23.6
		c-12.5,7-26.6,10.4-40.9,9.7c-13.4,0.6-26.6-2.4-38.4-8.7V284.1z M151.1,251.7c11,7.6,24.3,11.1,37.6,10.1
		c13.8,0.9,27.5-2.7,39.1-10.2c0.7-0.5,1.3-1,1.9-1.5v-20.6c-12.5,5.6-26,8.4-39.6,8.1c-13.6,0.3-27.2-2.5-39.6-8.1v21.7
		L151.1,251.7z M160.6,215.4c9.4,3.5,19.4,5.3,29.4,5.1c10,0.2,20-1.6,29.4-5.1c3.7-1.3,7.1-3.4,9.9-6.2c-0.4-0.5-0.8-0.9-1.3-1.3
		l-0.1-0.1l0,0c-2.6-2-5.5-3.7-8.5-4.8c-9.1-3.4-18.7-5.2-28.4-5.1h-2c-9.7,0-19.3,1.7-28.4,5.1c-3.7,1.3-7.1,3.4-9.9,6.2
		C153.6,212,156.9,214.1,160.6,215.4L160.6,215.4z"/>
</g>
</svg>
