<?xml version="1.0" encoding="utf-8"?>
<!-- Generator: Adobe Illustrator 27.3.0, SVG Export Plug-In . SVG Version: 6.00 Build 0)  -->
<svg version="1.1" id="Layer_1" xmlns="http://www.w3.org/2000/svg" xmlns:xlink="http://www.w3.org/1999/xlink" x="0px" y="0px"
	 viewBox="0 0 150 150" enable-background="new 0 0 150 150" xml:space="preserve" width="20px" height="20px">
<g>
	<g>
		<rect fill="none" width="150" height="150"/>
	</g>
	<g>
		<rect x="10" y="10" fill="none" width="130" height="130"/>
	</g>
</g>
<g id="Group_12514_00000078037407477914517990000016276118476480267654_" transform="translate(-115.209 -171)">
	<path id="Union_15_00000152964835489869846330000000589323799267100548_" fill="#09143e" d="M183.6,309.8
		c-6.7,0.1-12.2-5.3-12.3-12c0-0.1,0-0.3,0-0.4v-4.7l-0.1-0.1c0-0.1-0.1-0.1-0.4-0.3c-0.3-0.2-0.6-0.2-0.9-0.3l-3.5,3.5
		c-2.3,2.2-5.3,3.5-8.5,3.7c-3.4,0.1-6.7-1.1-9.1-3.5l-9.2-9.1c-2.4-2.3-3.7-5.6-3.5-9c0.1-3.2,1.5-6.1,3.8-8.3l3.5-3.5
		c0-0.3,0-0.5-0.1-0.8c-0.1-0.2-0.2-0.5-0.4-0.6h-4.9c-6.8,0.2-12.4-5.2-12.6-12c0,0,0,0,0-0.1v-12.8c0.1-6.7,5.7-12.1,12.4-12
		c0.1,0,0.2,0,0.2,0h4.8c0.1,0,0.4-0.3,0.5-0.6c0.1-0.2,0.1-0.5,0.1-0.8l-3.5-3.5c-4.8-4.5-5.1-12.1-0.5-17c0.1-0.1,0.2-0.2,0.3-0.3
		l9.3-9.1c4.9-4.7,12.8-4.6,17.6,0.3l3.4,3.3c0.2,0,0.4,0,0.6-0.1c0.3-0.2,0.6-0.4,0.9-0.6v-4.7c-0.2-6.7,5.1-12.3,11.8-12.4
		c0.1,0,0.3,0,0.4,0h13c6.7-0.1,12.1,5.2,12.3,11.8c0,0.2,0,0.4,0,0.6v4.9c0.2,0.2,0.5,0.4,0.8,0.5c0.2,0.1,0.4,0.1,0.6,0.1l3.4-3.3
		c4.8-4.9,12.6-5.1,17.6-0.4l9.2,9.1c2.3,2.2,3.6,5.3,3.5,8.6c-0.1,3.2-1.4,6.3-3.8,8.6l-3.5,3.5c0,0.2,0,0.4,0.1,0.6
		c0.1,0.3,0.3,0.6,0.5,0.8h4.9c6.8-0.2,12.5,5.1,12.8,11.9c0,0,0,0.1,0,0.1v12.9c-0.1,6.7-5.7,12.1-12.4,12c-0.1,0-0.2,0-0.2,0h-4.9
		c-0.2,0.2-0.3,0.4-0.4,0.6c-0.1,0.3-0.1,0.6-0.1,0.9l3.5,3.5c2.2,2.2,3.6,5.2,3.8,8.3c0.1,3.3-1.1,6.5-3.5,8.8l-9.2,9.1
		c-2.5,2.3-5.7,3.6-9.1,3.5c-3.2-0.1-6.3-1.4-8.6-3.7l-3.5-3.5c-0.3,0-0.5,0.1-0.8,0.3c-0.4,0.1-0.4,0.3-0.4,0.3l-0.1,0.1
		c-0.1,0-0.1,0.1-0.1,0.1c0,0,0,0,0,0v4.7c0.1,6.8-5.4,12.4-12.2,12.4c0,0,0,0-0.1,0L183.6,309.8z M175.6,281c1.6,0.7,3,1.6,4.3,2.8
		c2.4,2.2,3.8,5.3,3.8,8.6v5.2h12.8v-5.2c0-3.3,1.3-6.5,3.8-8.7c1.2-1.2,2.7-2.2,4.3-2.8c1.7-0.8,3.6-1.2,5.5-1.1
		c3.3-0.1,6.5,1.2,8.8,3.4l3.5,3.5l0.3,0.3l9.1-9l-4.2-4.1c-3.3-3.8-4-9.3-1.8-13.8l0,0c1.9-4.8,6.5-7.9,11.6-7.8h5.3v-12.5h-5.3
		c-5.2-0.1-9.8-3.3-11.7-8.2c-2.1-4.6-1.2-10.1,2.3-13.8l3.6-3.6c0-0.1,0.1-0.2,0.1-0.3l-9-9c-0.1,0-0.1,0.1-0.4,0.4l-3.5,3.4
		c-3.6,3.2-8.6,4.3-13.2,2.7c-5.3-1.6-9-6.4-9.2-11.9v-5.2h-12.8v5c-0.3,5.6-4,10.3-9.4,11.9c-4.5,1.6-9.6,0.6-13.2-2.7l-3.5-3.5
		c-0.1-0.1-0.1-0.3-0.3-0.3l-9,9c0,0.1,0.1,0.1,0.3,0.3l3.7,3.5c3.5,3.7,4.5,9.2,2.3,13.8c-1.9,4.9-6.5,8.1-11.7,8.2h-5.3V252h5.2
		c5.1,0.1,9.6,3.1,11.6,7.8c2.2,4.6,1.5,10-1.8,13.8l-4,3.9c0,0.1-0.1,0.2-0.1,0.3l9.1,9h0.1l3.5-3.5c2.4-2.2,5.6-3.5,8.8-3.5
		C172,279.8,173.9,280.3,175.6,281L175.6,281z M165.7,245.8c0.1-13.4,11-24.1,24.4-24c13.4-0.1,24.3,10.7,24.4,24
		c-0.1,13.4-11,24.1-24.4,24.1C176.7,270,165.8,259.2,165.7,245.8L165.7,245.8z M173.5,245.8c0.1,9.1,7.5,16.4,16.6,16.3
		c9.1,0.1,16.5-7.2,16.6-16.3c-0.1-9.1-7.5-16.3-16.6-16.3C181,229.5,173.6,236.8,173.5,245.8L173.5,245.8z"/>
</g>
</svg>
