<?xml version="1.0" encoding="utf-8"?>
<!-- Generator: Adobe Illustrator 27.3.0, SVG Export Plug-In . SVG Version: 6.00 Build 0)  -->
<svg version="1.1" id="Layer_1" xmlns="http://www.w3.org/2000/svg" xmlns:xlink="http://www.w3.org/1999/xlink" x="0px" y="0px"
	 viewBox="0 0 150 150" enable-background="new 0 0 150 150" xml:space="preserve" width="20px" height="20px">
<g>
	<g>
		<rect fill="none" width="150" height="150"/>
	</g>
	<g>
		<rect x="10" y="10" fill="none" width="130" height="130"/>
	</g>
</g>
<g id="Group_12522" transform="translate(-115 -171)">
	<g id="Group_12641" transform="translate(117.027 173.5)">
		<g>
			<g id="Group_12641-2" transform="translate(0 0)">
				<path id="Path_3629" fill="#09143e" d="M133.1,32.1c-2.9-3-6.8-4.7-10.9-4.7h-19l-8-9.3c-1.4-1.8-3.3-3.1-5.3-4
					c-2-0.9-4.2-1.3-6.4-1.3H63.4c-2,0-4.1,0.4-6,1.1c-1.9,0.8-3.7,2-5,3.6l-9.7,9.8h-19c-4.2,0-8.1,1.7-11,4.7
					C9.8,35,8.2,38.9,8.2,43v73.6c0,3.7,1.3,7.3,3.7,10.1c2.9,3.5,7.2,5.5,11.8,5.4H46c4.7,0,8.5-3.8,8.5-8.5c0-4.7-3.8-8.5-8.5-8.5
					l0,0H29.7c-2.5,0-4.6-2-4.6-4.6V49.1c0-2.5,2-4.6,4.6-4.6l0,0H44c3.4,0,6.6-1.4,8.9-3.9l6.3-6.8c2.3-2.5,5.5-3.9,8.9-3.9H77
					c3.3,0,6.4,1.3,8.7,3.6l7.3,7.4c2.3,2.3,5.4,3.6,8.7,3.6h14.4c2.5,0,4.6,2,4.6,4.6v61.6c0,2.5-2,4.6-4.6,4.6l0,0H99.7
					c-4.7,0-8.5,3.8-8.5,8.5c0,4.7,3.8,8.5,8.5,8.5h22.5c4.1,0,8-1.6,10.9-4.5c3-2.8,4.7-6.8,4.7-11V43
					C137.8,38.9,136.1,34.9,133.1,32.1"/>
				<path id="Path_3630" fill="#535353" d="M42,83.1c0.9,6.5,4,12.5,8.9,17c4.9,4.7,11.3,7.7,18,8.5v17.3c0,2.2,1.8,4.1,4.1,4.1
					c2.2,0,4.1-1.8,4.1-4.1v-17.2c6.8-0.8,13.2-3.8,18.2-8.5c4.9-4.4,8-10.3,8.9-16.8c0.3-1.2,0-2.5-0.8-3.5c-0.7-1-1.9-1.6-3.1-1.6
					c-1.1,0-2.2,0.5-2.8,1.4c-0.7,0.9-1.2,2-1.4,3.1c-1,4.9-3.8,9.2-7.8,12.1c-4.3,3.2-9.6,4.9-15,4.8c-5.4,0.1-10.7-1.6-15.1-4.8
					c-4.1-2.9-6.9-7.2-7.9-12.1c-0.3-1.1-0.7-2.2-1.4-3.1c-0.6-0.9-1.7-1.4-2.8-1.4c-1.2,0-2.4,0.6-3.1,1.6
					C41.9,80.6,41.6,81.9,42,83.1"/>
				<path id="Path_3631" fill="#535353" d="M73,87.1c4.7,0.2,8.7-3.5,8.9-8.2c0-0.2,0-0.5,0-0.7V54.6c0.1-2.4-0.8-4.7-2.5-6.4
					c-1.7-1.7-4-2.6-6.4-2.6c-2.4-0.1-4.8,0.8-6.5,2.6c-1.7,1.7-2.6,4-2.6,6.4v23.5c-0.1,2.4,0.8,4.7,2.6,6.4
					C68.3,86.2,70.6,87.1,73,87.1"/>
			</g>
		</g>
	</g>
</g>
</svg>
