<?xml version="1.0" encoding="utf-8"?>
<!-- Generator: Adobe Illustrator 27.3.0, SVG Export Plug-In . SVG Version: 6.00 Build 0)  -->
<svg version="1.1" id="Layer_1" xmlns="http://www.w3.org/2000/svg" xmlns:xlink="http://www.w3.org/1999/xlink" x="0px" y="0px"
	 viewBox="0 0 150 150" enable-background="new 0 0 150 150" xml:space="preserve" width="20px" height="20px">
<g>
	<g>
		<rect fill="none" width="150" height="150"/>
	</g>
	<g>
		<rect x="10" y="10" fill="none" width="130" height="130"/>
	</g>
</g>
<g id="Group_12520_00000113319819552339470040000017271747951698285190_" transform="translate(-115 -171)">
	<path id="payments_FILL0_wght700_GRAD0_opsz48_00000009576188410864478200000015053444369648143777_" fill="#09143e" d="M200,252.8
		c-9.3,0-16.8-7.6-16.8-16.9c0-4.4,1.8-8.7,4.9-11.9c6.6-6.5,17.2-6.5,23.8,0c6.6,6.6,6.6,17.2,0,23.8
		C208.7,251,204.4,252.8,200,252.8L200,252.8z M158.4,275.7c-7.3,0.1-13.2-5.7-13.3-13c0-0.1,0-0.2,0-0.3v-52.7
		c0-3.5,1.4-6.9,3.9-9.4c2.5-2.6,5.9-4,9.4-3.9h83.3c3.5-0.1,6.9,1.4,9.3,3.9c2.5,2.5,3.9,5.9,3.9,9.4v52.7c0.1,3.6-1.3,7-3.9,9.5
		c-2.4,2.5-5.8,3.9-9.3,3.9H158.4z M170.8,264h58.5c-0.1-7.7,6.1-13.9,13.7-14c0.1,0,0.2,0,0.3,0v-28c-3.7,0.1-7.4-1.4-9.9-4.1
		c-2.6-2.6-4.1-6.2-4.1-9.9h-58.5c0,3.7-1.4,7.3-4.1,9.9c-2.6,2.7-6.2,4.2-9.9,4.1v28c7.7-0.1,13.9,6.1,14,13.7
		C170.8,263.8,170.8,263.9,170.8,264L170.8,264z M138.2,295.7c-3.5,0.1-6.9-1.3-9.3-3.9c-2.5-2.4-3.9-5.8-3.9-9.3v-56.4
		c-0.1-3.6,2.8-6.5,6.4-6.6c0.1,0,0.2,0,0.2,0c3.6-0.1,6.5,2.8,6.6,6.4c0,0.1,0,0.2,0,0.2v56.4h90c3.6,0,6.6,3,6.6,6.6
		s-3,6.6-6.6,6.6l0,0L138.2,295.7z M156.8,264L156.8,264z"/>
</g>
</svg>
