<?xml version="1.0" encoding="utf-8"?>
<!-- Generator: Adobe Illustrator 27.3.0, SVG Export Plug-In . SVG Version: 6.00 Build 0)  -->
<svg version="1.1" id="Layer_1" xmlns="http://www.w3.org/2000/svg" xmlns:xlink="http://www.w3.org/1999/xlink" x="0px" y="0px"
	 viewBox="0 0 150 150" enable-background="new 0 0 150 150" xml:space="preserve" width="20px" height="20px">
<g>
	<g>
		<rect fill="none" width="150" height="150"/>
	</g>
	<g>
		<rect x="10" y="10" fill="none" width="130" height="130"/>
	</g>
</g>
<g id="Group_12523_00000160148018888061970520000007833075391957831323_" transform="translate(-115 -171)">
	<g id="Group_12642_00000080911995424365339860000001759698406248792448_" transform="translate(117.214 172.5)">
		<g>
			<g id="Group_12642-2_00000003819515716704127210000012291636595240691082_" transform="translate(0 0)">
				<path id="Path_3634_00000004523346182662403770000007198372349433506750_" fill="#09143e" d="M63,135.9l-39.1-23.1
					c-2.8-1.6-5.2-4-6.8-6.9c-1.6-2.8-2.4-6-2.4-9.2V50.4c0-3.2,0.8-6.4,2.4-9.1c1.6-2.8,4-5.2,6.8-6.9l39.4-23.5
					c5.9-3.4,13.2-3.4,19.1,0l39.4,23.5c2.8,1.7,5.1,4.1,6.8,7c1.6,2.8,2.4,5.9,2.4,9.1v46.3c0,3.2-0.8,6.4-2.5,9.2
					c-1.6,2.8-4,5.2-6.9,6.9l-39.8,23.1C76.1,139.6,68.7,139.6,63,135.9 M66.8,116.6V77.1L33.3,57.6v38.7L66.8,116.6z M78.8,116.6
					l33.6-20.3V57.6L78.8,77.1L78.8,116.6z M72.8,66.3l33.4-19.7L72.8,27.3L39.3,46.6L72.8,66.3z"/>
			</g>
		</g>
	</g>
</g>
</svg>
