<?xml version="1.0" encoding="utf-8"?>
<!-- Generator: Adobe Illustrator 27.3.0, SVG Export Plug-In . SVG Version: 6.00 Build 0)  -->
<svg version="1.1" id="Layer_1" xmlns="http://www.w3.org/2000/svg" xmlns:xlink="http://www.w3.org/1999/xlink" x="0px" y="0px"
	 viewBox="0 0 150 150" enable-background="new 0 0 150 150" xml:space="preserve" width="20px" height="20px">
<g>
	<g>
		<rect fill="none" width="150" height="150"/>
	</g>
	<g>
		<rect x="10" y="10" fill="none" width="130" height="130"/>
	</g>
</g>
<g id="Group_12517_00000078757868275097862130000010577944389309730187_" transform="translate(-91 -171)">
	<path id="Union_13_00000072977674662070058770000017044786772136160183_" fill="#09143e" d="M139.8,311.1c-4.7,0-8.5-3.8-8.5-8.5
		s3.8-8.5,8.5-8.5h53.1c4.7,0,8.5,3.8,8.5,8.5s-3.8,8.5-8.5,8.5H139.8z M126.7,284.9c-13.6-0.2-24.4-11.3-24.2-24.9c0,0,0,0,0,0
		v-54.2c-0.2-13.5,10.6-24.7,24.2-24.9h78.6c13.5,0.2,24.4,11.3,24.2,24.9V260c0.2,13.5-10.6,24.7-24.2,24.9L126.7,284.9z
		 M119,205.8V260c-0.1,4.3,3.4,7.8,7.7,7.9h78.6c4.3-0.1,7.8-3.6,7.7-7.9v-54.2c0.1-4.3-3.4-7.8-7.7-7.9h-78.7
		C122.4,197.9,118.9,201.5,119,205.8L119,205.8z M172.7,252.4L172.7,252.4c-1.8-1.7-1.8-4.5-0.1-6.3c0,0,0.1-0.1,0.1-0.1l12.7-13
		l-12.7-13c-1.7-1.8-1.7-4.6,0-6.5c1.7-1.7,4.5-1.8,6.3,0c0,0,0,0,0,0l15.8,16.2c1.8,1.8,1.8,4.7,0,6.5l-15.9,16.3
		c-0.8,0.9-2,1.4-3.2,1.3C174.6,253.7,173.5,253.2,172.7,252.4L172.7,252.4z M153,252.4l-15.9-16.3c-1.8-1.8-1.8-4.7,0-6.5
		l15.9-16.3c1.7-1.7,4.5-1.8,6.3,0c0,0,0,0,0,0c1.7,1.8,1.7,4.6,0,6.5l-12.7,13.1l12.7,13c1.7,1.8,1.7,4.6,0,6.5
		c-0.8,0.9-2,1.4-3.2,1.3C154.9,253.7,153.8,253.2,153,252.4L153,252.4z"/>
</g>
</svg>
