<?xml version="1.0" encoding="UTF-8"?>
<svg id="Layer_1" data-name="Layer 1" xmlns="http://www.w3.org/2000/svg" viewBox="0 0 150 150">
  <path d="m91.2157011,74.0195152c.2011276,0,.8044988-.1508414,1.8101253-.4525299l18.4029298-10.7098988c.7039379-.3016885,1.2318885-.7542184,1.5838632-1.3575954.3519632-.6033713.5279506-1.2067483.5279506-1.8101253,0-.7039379-.2011218-1.3324494-.603377-1.885546-.4022552-.5530908-.9050598-1.0307667-1.5084368-1.4330161l-18.4029298-10.7099017c-.2011218-.1005609-.8044988-.251408-1.8101253-.4525299-.4022552,0-1.0056264.1508414-1.8101253.4525299l-18.4029298,10.7099017c-.7039322.4022494-1.2318885.9050655-1.5838575,1.5084368-.3519632.6033713-.5279506,1.2067483-.5279506,1.8101253s.1759874,1.206754.5279506,1.8101253c.351969.6033713.8799253,1.0559069,1.5838575,1.3575954l18.4029298,10.7098988c.1005609.1005609.7039379.251408,1.8101253.4525299Zm0,19.9113666c.6033713,0,1.181608-.1005609,1.7347046-.3016885.5530908-.2011218,1.1816023-.4525299,1.885546-.7542184l10.2573747-6.0337471c1.2067425-.603377,2.1118138-1.4330103,2.7151908-2.488923.603377-1.0559069.9050598-2.2375092.9050598-3.5448241v-10.7098988l-17.4978643,10.1065276-17.4978643-10.1065276v10.7098988c-.0000058,1.3073149.3016885,2.4889172.9050598,3.5448241.6033713,1.0559011,1.5084368,1.885546,2.7151851,2.488923l10.2573689,6.0337471c.6033713.4022494,1.2067483.6787977,1.8101253.8296391.6033713.1508471,1.206754.2262678,1.8101138.2262678ZM24.9953242,22.883509h99.8585101c3.8213724-.0000014,7.1650862,1.4330147,10.0311069,4.2990454,2.8660322,2.8660293,4.299031,6.2097316,4.2990425,10.031104v75.7235246c-.0000115,3.8213724-1.4330103,7.1399402-4.2990425,9.9556804-2.8660207,2.8157402-6.2097345,4.2236161-10.0311069,4.2236276h-41.4820057c-2.0112471,0-3.6956713-.6788035-5.0532609-2.0363873-1.3575954-1.3575954-2.0363931-3.042008-2.0363931-5.0532609s.6787977-3.6956655,2.0363873-5.0532609c1.3575954-1.3575839,3.0420138-2.0363873,5.0532609-2.0363873h41.4820114V37.213667H24.9953242v22.0231804c-1.2067497.2011276-3.3437023.4273897-6.4108563.6787977-3.0671555.2514023-5.304669.3771092-6.7125434.3770977-.3016878,0-.5530944-.1005609-.7542184-.3016885-.2011254-.2011276-.3016871-.4525299-.3016871-.7542184v-22.0231775c0-3.8213724,1.3827335-7.1650747,4.1482011-10.031104,2.7654669-2.8660307,6.1091692-4.2990468,10.031104-4.2990454Zm-10.5590574,104.232982h9.9556833c.9050612,0,1.6592796-.3016943,2.2626552-.9050598.6033741-.603377.8547793-1.3073149.7542184-2.1118138-.7039379-3.5196897-2.2626537-6.5868437-4.6761546-9.201462-2.413498-2.6146299-5.3800911-4.2738965-8.8997771-4.977846-.8045003-.1005609-1.5084368.1508529-2.1118116.7542184-.6033749.603377-.9050619,1.3575954-.9050619,2.2626552v10.5590574c0,1.0056207.351969,1.8604115,1.0559055,2.5643379.7039372.7039379,1.5587187,1.0559011,2.564343,1.0559126Zm27.6043919,0c1.5084339,0,2.7654655-.5028161,3.7710919-1.5084368,1.0056236-1.0056207,1.407873-2.2626552,1.2067483-3.7710919-1.2067511-8.1455609-4.6510144-15.1346482-10.3327925-20.9672735-5.6817781-5.8326195-12.5451658-9.3523092-20.5901615-10.5590574-1.5084368-.2011276-2.7654677.2011276-3.7710919,1.2067483-1.0056243,1.0056264-1.5084368,2.2626552-1.5084368,3.7710919,0,1.3073092.5028125,2.5392034,1.5084368,3.6956713,1.0056243,1.1564736,2.3129371,1.885546,3.9219362,2.1872287,5.0281236,1.0056322,9.3523077,3.4191172,12.9725569,7.2405011,3.6202477,3.8213724,5.9331833,8.2461333,6.9388098,13.2742483.3016856,1.6089977,1.0056236,2.9163126,2.1118109,3.9219333s2.363219,1.5084368,3.7710919,1.5084368Zm19.9113666,0c1.5084368,0,2.7654655-.5028161,3.7710919-1.5084368s1.4581506-2.2626552,1.3575954-3.7710919c-.6033713-6.737685-2.3380759-13.1233954-5.204108-19.1571425-2.8660264-6.0337471-6.5616977-11.3384161-11.087008-15.9140069-4.5253132-4.5755908-9.7545557-8.3215425-15.6877419-11.2378552-5.9331833-2.9163126-12.2686189-4.6761575-19.006304-5.2795287-1.5084368-.1005609-2.7654677.351969-3.7710919,1.3575954-1.0056243,1.0056207-1.5084368,2.2626494-1.5084368,3.7710919,0,1.508431.4776723,2.815746,1.4330147,3.9219333.9553438,1.1061874,2.2375149,1.7598448,3.8465141,1.9609667,10.6596212,1.206754,19.6851017,5.6063575,27.0764413,13.1988218,7.3913396,7.5924701,11.6903793,16.7185057,12.8971276,27.3781241.2011276,1.6089977.8547851,2.8911667,1.9609667,3.8465184,1.1061874.9553402,2.4134965,1.4330103,3.9219391,1.4330103Z"/>
</svg>