<?xml version="1.0" encoding="UTF-8"?>
<svg id="Layer_1" data-name="Layer 1" xmlns="http://www.w3.org/2000/svg" viewBox="0 0 150 150">
  <path d="m42.959134,138.1300323c-4.7373963,0-8.7980212-1.713084-12.1818759-5.1392326-3.3838547-3.4261583-5.0757814-7.5079331-5.0757814-12.2453246,0-4.8219865,1.6919267-8.9037711,5.0757814-12.2453246,3.3838547-3.3415632,7.4444796-5.0123303,12.1818759-5.0123303,1.1843479,0,2.3263982.0845951,3.4261534.2537852,1.0997528.1691901,2.0726082.4229753,2.9185733.7613653l9.0095101-11.6742982c-1.3535404-1.8611205-2.4532956-3.9971798-3.299256-6.4081731-.8459652-2.4109933-1.0997528-4.8431401-.7613677-7.2964358l-13.1970312-5.0757814c-1.4381379,2.1995056-3.3415559,3.9337238-5.7102541,5.202674-2.3686994,1.2689405-5.1180802,1.9034132-8.2481448,1.903418-4.7373963-.0000048-8.81917-1.6919304-12.2453222-5.0757814-3.4261525-3.3838559-5.1392289-7.4444772-5.1392289-12.1818735s1.7130764-8.8403175,5.1392294-12.3087612c3.4261527-3.468451,7.5079272-5.2026764,12.2453217-5.2026764,4.8219914,0,8.9037663,1.7342255,12.2453222,5.2026764,3.3415535,3.468451,5.0123351,7.5713746,5.0123351,12.3087709v.1268926q0,.169195,0,0l13.1970312,5.3295715c1.5227354-2.5378907,3.3415535-4.5047599,5.4564641-5.9005978,2.1149105-1.3958428,4.3567088-2.4321469,6.7254094-3.1089171v-14.3390815c-3.299256-1.0151553-6.154383-3.0877659-8.5653811-6.2178318-2.4109933-3.1300634-3.6164923-6.5985144-3.6164923-10.4053517,0-4.7373957,1.7130743-8.840319,5.1392277-12.3087697s7.5079235-5.2026758,12.2453246-5.2026758c4.8219914,0,8.9249199,1.7342252,12.3087709,5.2026758,3.3838559,3.4684507,5.0757814,7.571374,5.0757814,12.3087697,0,3.8068361-1.2054991,7.275287-3.6164923,10.4053517-2.4109981,3.1300659-5.2661252,5.2026764-8.565386,6.2178318v14.3390815c2.3686957.6767702,4.6316525,1.7342231,6.7888557,3.1723634s4.0394773,3.3838559,5.6468078,5.8371467l12.9432436-5.3295715v.0634463-.1903437c0-4.7373963,1.6919207-8.84032,5.0757814-12.3087709,3.3838511-3.468451,7.444482-5.2026764,12.1818735-5.2026764s8.84032,1.7342255,12.3087661,5.2026764,5.202674,7.5713746,5.202674,12.3087709-1.7342279,8.7980176-5.202674,12.1818735c-3.4684461,3.3838511-7.5713746,5.0757766-12.3087661,5.0757814-3.0454708-.0000048-5.7948492-.6344775-8.2481448-1.903418-2.4532956-1.2689502-4.3990112-3.0454708-5.8371467-5.3295715l-13.070141,5.202674c.1691901,2.5378907-.1057487,4.9911864-.8248164,7.3598821s-1.7976742,4.4836063-3.2358097,6.3447268l9.1364075,11.9280883c.84597-.422985,1.797679-.7402214,2.855127-.951709,1.0574577-.2114877,2.1783568-.3172363,3.3627071-.3172363,4.8219865,0,8.924915,1.6919304,12.3087661,5.0757814,3.3838511,3.3838511,5.0757814,7.4444723,5.0757814,12.1818735,0,4.7373915-1.713084,8.8191663-5.1392326,12.2453246-3.4261389,3.4261583-7.5079138,5.1392422-12.2453149,5.1392422-4.7373915,0-8.8191663-1.6919207-12.2453246-5.0757814-3.4261534-3.3838511-5.1392277-7.4867795-5.1392277-12.3087661,0-1.9457252.25379-3.722241.7613653-5.3295666.5075801-1.6073353,1.1843454-3.0877683,2.0303106-4.4413087l-8.8826175-11.5474008c-2.7070808,1.1843503-5.5622079,1.7765254-8.5653811,1.7765254-3.0031684,0-5.8160028-.5921751-8.4384885-1.7765254l-8.8826175,11.6742934c.8459652,1.3535404,1.5227306,2.8128295,2.0303106,4.3778576.5075752,1.5650281.7613653,3.3203999.7613653,5.2661252,0,4.8219865-1.7130743,8.924915-5.1392277,12.3087661-3.426151,3.3838607-7.5079259,5.0757814-12.2453101,5.0757814Zm-15.8618157-67.3810013c1.8611193,0,3.4684497-.6767702,4.8219926-2.0303106,1.3535416-1.3535404,2.0303131-3.0031733,2.0303131-4.9488888,0-1.8611205-.6767714-3.4473022-2.0303131-4.7585451-1.3535428-1.3112429-3.0031708-1.9668643-4.9488864-1.9668643-1.8611193,0-3.4473016.6556214-4.7585451,1.9668643s-1.9668655,2.9397221-1.9668655,4.8854377c0,1.8611205.655622,3.468451,1.9668655,4.8219914s2.9397233,2.0303106,4.8854389,2.0303155Zm15.8618157,56.8487509c1.945718,0,3.5741972-.6556166,4.8854401-1.9668692,1.3112429-1.3112429,1.9668643-2.9397221,1.9668643-4.8854377,0-1.8611205-.6556214-3.4684461-1.9668643-4.8219962-1.3112429-1.3535404-2.9397221-2.0303106-4.8854401-2.0303106s-3.5741972.6767702-4.8854401,2.0303106-1.9668643,2.9608757-1.9668643,4.8219962c0,1.9457156.6556214,3.5741948,1.9668643,4.8854377,1.3112429,1.3112526,2.9397221,1.9668692,4.8854401,1.9668692Zm31.9774239-91.3640656c1.9457204,0,3.5741948-.6767702,4.8854377-2.0303131,1.3112429-1.3535416,1.9668643-2.9608733,1.9668643-4.8219926,0-1.9457168-.6556214-3.574196-1.9668643-4.8854395-1.3112429-1.3112417-2.9397173-1.9668625-4.8854377-1.9668625s-3.5741948.655622-4.8854377,1.9668655-1.9668692,2.9397233-1.9668692,4.8854389c0,1.8611205.6556214,3.468451,1.9668643,4.8219926s2.9397221,2.0303143,4.8854425,2.0303106Zm0,53.0419149c2.4532956,0,4.5259086-.867114,6.2178342-2.601337,1.6919304-1.7342231,2.5378956-3.7856825,2.5378907-6.154383.0000048-2.4532956-.8459603-4.5259086-2.5378907-6.2178342-1.6919255-1.6919304-3.7645385-2.5378956-6.2178342-2.5378907-2.3687006-.0000048-4.42016.8459603-6.154383,2.5378907-1.7342231,1.6919255-2.601337,3.7645385-2.6013419,6.2178342,0,2.3687006.8671091,4.42016,2.601337,6.154383,1.7342231,1.7342231,3.7856873,2.601337,6.1543879,2.601337Zm31.9774191,38.3221507c1.9457156,0,3.5741948-.6556166,4.8854377-1.9668692,1.3112526-1.3112429,1.9668692-2.9397221,1.9668692-4.8854377,0-1.8611205-.6556166-3.4684461-1.9668692-4.8219962-1.3112429-1.3535404-2.9397221-2.0303106-4.8854377-2.0303106s-3.5741948.6767702-4.8854377,2.0303106c-1.3112526,1.3535404-1.9668692,2.9608757-1.9668692,4.8219962,0,1.9457156.6556166,3.5741948,1.9668692,4.8854377,1.3112429,1.3112526,2.9397221,1.9668692,4.8854377,1.9668692Zm15.9887095-56.8487509c1.8611205,0,3.4473022-.6767702,4.7585451-2.0303106,1.3112526-1.3535404,1.9668692-3.0031733,1.9668692-4.9488888,0-1.8611205-.6556166-3.4473022-1.9668692-4.7585451-1.3112429-1.3112429-2.9397221-1.9668643-4.8854377-1.9668643-1.8611205,0-3.4684461.6556214-4.8219962,1.9668643-1.3535404,1.3112429-2.0303106,2.9397221-2.0303106,4.8854377,0,1.8611205.6767702,3.468451,2.0303106,4.8219914s3.0031733,2.0303106,4.9488888,2.0303155Z"/>
</svg>