<svg xmlns="http://www.w3.org/2000/svg" width="16" height="16" viewBox="0 0 16 16">
  <path id="Path_11756" data-name="Path 11756" d="M86.88-868.32l5.64-5.64-1.12-1.12-4.52,4.52-2.28-2.28-1.12,1.12ZM88-864a7.791,7.791,0,0,1-3.12-.63,8.081,8.081,0,0,1-2.54-1.71,8.079,8.079,0,0,1-1.71-2.54A7.791,7.791,0,0,1,80-872a7.79,7.79,0,0,1,.63-3.12,8.08,8.08,0,0,1,1.71-2.54,8.081,8.081,0,0,1,2.54-1.71A7.791,7.791,0,0,1,88-880a7.791,7.791,0,0,1,3.12.63,8.081,8.081,0,0,1,2.54,1.71,8.08,8.08,0,0,1,1.71,2.54A7.79,7.79,0,0,1,96-872a7.791,7.791,0,0,1-.63,3.12,8.079,8.079,0,0,1-1.71,2.54,8.08,8.08,0,0,1-2.54,1.71A7.791,7.791,0,0,1,88-864Zm0-1.6a6.177,6.177,0,0,0,4.54-1.86A6.177,6.177,0,0,0,94.4-872a6.177,6.177,0,0,0-1.86-4.54A6.177,6.177,0,0,0,88-878.4a6.177,6.177,0,0,0-4.54,1.86A6.177,6.177,0,0,0,81.6-872a6.177,6.177,0,0,0,1.86,4.54A6.177,6.177,0,0,0,88-865.6ZM88-872Z" transform="translate(-80 880)" fill="#09143e"/>
</svg>
