<?xml version="1.0" encoding="UTF-8"?>
<svg xmlns="http://www.w3.org/2000/svg" viewBox="0 0 500 500">
  <defs>
    <style>
      .cls-1, .cls-2 {
        opacity: .6;
      }

      .cls-3 {
        isolation: isolate;
      }

      .cls-2, .cls-4, .cls-5, .cls-6, .cls-7, .cls-8, .cls-9, .cls-10, .cls-11, .cls-12 {
        stroke-width: 0px;
      }

      .cls-2, .cls-8 {
        fill: #fff;
      }

      .cls-13 {
        mix-blend-mode: multiply;
        opacity: .38;
      }

      .cls-4 {
        fill: #e0e0e0;
      }

      .cls-5 {
        fill: #c5c5c5;
      }

      .cls-6 {
        fill: silver;
      }

      .cls-7 {
        fill: #f60;
      }

      .cls-9 {
        fill: #e3e3e3;
      }

      .cls-10 {
        fill: #ebebeb;
      }

      .cls-11 {
        fill: #fafbfb;
      }

      .cls-12 {
        fill: #f5f5f5;
      }
    </style>
  </defs>
  <g class="cls-3">
    <g id="Layer_1" data-name="Layer 1">
      <g>
        <g class="cls-13">
          <path class="cls-4" d="m298.92,14.63c4.16-1.61,8.47-2.63,12.8-3.07l4.52-11.34,19.95,3.15.8,12.18c3.99,1.76,7.77,4.06,11.23,6.87l11.21-4.82,11.87,16.34-8.04,9.18c1.61,4.16,2.63,8.47,3.07,12.8l11.34,4.52-3.15,19.95-12.18.81c-1.76,3.99-4.06,7.77-6.87,11.23l4.82,11.21-16.33,11.87-9.18-8.04c-4.16,1.61-8.47,2.63-12.8,3.07l-4.52,11.34-19.95-3.15-.81-12.18c-3.99-1.76-7.77-4.06-11.23-6.87l-11.21,4.82-11.87-16.33,8.04-9.18c-1.61-4.16-2.63-8.47-3.07-12.8l-11.34-4.52,3.15-19.95,12.18-.81c1.76-3.99,4.06-7.77,6.87-11.23l-4.82-11.21,16.33-11.87,9.18,8.04h0Zm5.93,28.36c-9.68,7.04-11.82,20.58-4.78,30.26,7.04,9.68,20.58,11.82,30.26,4.78,9.68-7.04,11.82-20.58,4.78-30.26-7.04-9.68-20.58-11.82-30.26-4.78Z"/>
        </g>
        <g>
          <rect class="cls-4" x="378.05" y="214.15" width="93.32" height="91.69"/>
          <rect class="cls-11" x="381.29" y="216.66" width="86.78" height="86.78"/>
          <rect class="cls-7" x="410.53" y="245.9" width="28.31" height="28.31"/>
        </g>
        <path class="cls-9" d="m65.03,116.79s-.06-.29-.14-.87c-.08-.61-.2-1.46-.35-2.58-.06-.57-.19-1.2-.22-1.91-.02-.71-.04-1.48-.06-2.32,0-.84-.08-1.74-.04-2.7.07-.96.15-1.99.23-3.07.45-4.31,1.42-9.63,3.95-15.3,2.48-5.66,6.45-11.69,12.28-16.89.73-.64,1.48-1.29,2.23-1.95.79-.61,1.63-1.18,2.45-1.78,1.61-1.27,3.48-2.21,5.31-3.3,3.8-1.9,7.92-3.64,12.43-4.55,2.22-.61,4.56-.79,6.91-1.1,1.18-.13,2.38-.08,3.58-.13.6-.01,1.21-.03,1.81-.04.61.02,1.21.09,1.82.13,4.89.21,9.86,1.38,14.68,3.21,9.69,3.57,18.57,10.74,24.57,20.25,3.04,4.74,5.14,10.16,6.37,15.83,1.35,5.65,1.52,11.64.71,17.55-.11.76-.23,1.52-.37,2.27l-.06-.27c5.44,7.57,10.77,14.98,15.94,22.16l.48.67-.82-.13c-8.12-1.26-15.98-2.49-23.54-3.66l.33-.14c-4.84,7.18-11.35,12.8-18.43,16.48-3.55,1.83-7.23,3.19-10.92,4.11-1.84.47-3.69.82-5.53,1.01-.92.11-1.83.22-2.74.33-.91.11-1.82.06-2.71.1-7.19.18-13.95-1.24-19.76-3.6-5.83-2.36-10.71-5.63-14.64-9.11-.95-.91-1.88-1.79-2.78-2.65-.82-.94-1.61-1.86-2.38-2.74-.81-.86-1.42-1.82-2.07-2.72-.62-.91-1.3-1.74-1.8-2.64-2.12-3.53-3.59-6.74-4.52-9.44-.44-1.36-.83-2.56-1.17-3.6-.23-1.06-.42-1.96-.58-2.7-.15-.71-.26-1.26-.34-1.65-.07-.37-.1-.56-.1-.56,0,0,.06.18.15.55.1.39.23.93.4,1.64.17.73.38,1.62.63,2.68.35,1.04.76,2.23,1.22,3.57.96,2.67,2.45,5.86,4.59,9.34.5.89,1.19,1.71,1.81,2.61.65.88,1.26,1.84,2.07,2.68.77.88,1.56,1.78,2.38,2.71.9.85,1.83,1.72,2.78,2.61,3.91,3.43,8.77,6.65,14.55,8.96,5.76,2.31,12.45,3.69,19.56,3.49.89-.04,1.79,0,2.68-.1.89-.11,1.8-.22,2.7-.33,1.82-.19,3.64-.54,5.46-1.01,3.64-.92,7.27-2.27,10.77-4.08,6.98-3.65,13.39-9.21,18.16-16.3l.12-.18.21.03c7.56,1.17,15.42,2.38,23.54,3.64l-.34.55c-5.17-7.18-10.5-14.59-15.95-22.16l-.09-.12.03-.15c.14-.74.26-1.48.37-2.23.8-5.82.63-11.73-.7-17.3-1.2-5.59-3.27-10.93-6.27-15.61-5.91-9.37-14.65-16.46-24.22-20-4.75-1.81-9.65-2.98-14.48-3.19-.6-.04-1.2-.11-1.8-.13l-1.79.03c-1.19.05-2.37,0-3.54.12-2.32.3-4.63.47-6.83,1.06-4.46.88-8.54,2.59-12.3,4.46-1.81,1.07-3.67,1.99-5.27,3.24-.82.59-1.65,1.15-2.43,1.75-.75.65-1.48,1.29-2.21,1.92-5.79,5.13-9.75,11.08-12.25,16.68-2.55,5.61-3.55,10.88-4.04,15.16-.09,1.08-.18,2.1-.26,3.05-.05.96,0,1.86,0,2.69.01.83.02,1.6.03,2.31.02.7.13,1.33.18,1.9.12,1.12.21,1.98.28,2.58.06.58.07.88.07.88Z"/>
        <path class="cls-7" d="m117.17,105.44c4.58-1.92,7.83-6.64,7.86-12.2.03-7.28-5.48-13.22-12.31-13.25-6.83-.03-12.39,5.84-12.43,13.13-.02,5.61,3.25,10.39,7.88,12.32-19.03,2.86-18.18,23.55-18.18,23.55l45.01.22s1.03-20.91-17.84-23.77Z"/>
        <path class="cls-4" d="m335.07,100.29c-.15,3-2.62,5.4-5.67,5.4s-5.52-2.39-5.67-5.4h-4.57c-.15,3-2.62,5.4-5.67,5.4s-5.52-2.39-5.67-5.4h-4.57c-.15,3-2.62,5.4-5.67,5.4s-5.52-2.39-5.67-5.4h-4.57c-.15,3-2.62,5.4-5.67,5.4s-5.52-2.39-5.67-5.4h-4.57c-.15,3-2.62,5.4-5.67,5.4s-5.52-2.39-5.67-5.4h-4.57c-.15,3-2.62,5.4-5.67,5.4s-5.52-2.39-5.67-5.4h-4.57c-.15,3-2.62,5.4-5.67,5.4s-5.52-2.39-5.67-5.4h-4.57c-.15,3-2.62,5.4-5.67,5.4s-5.52-2.39-5.67-5.4h-4.57c-.15,3-2.62,5.4-5.67,5.4s-5.52-2.39-5.67-5.4h-10.81v296.53h10.79c0-3.14,2.54-5.68,5.68-5.68s5.68,2.54,5.68,5.68h4.54c0-3.14,2.54-5.68,5.68-5.68s5.68,2.54,5.68,5.68h4.54c0-3.14,2.54-5.68,5.68-5.68s5.68,2.54,5.68,5.68h4.54c0-3.14,2.54-5.68,5.68-5.68s5.68,2.54,5.68,5.68h4.54c0-3.14,2.54-5.68,5.68-5.68s5.68,2.54,5.68,5.68h4.54c0-3.14,2.54-5.68,5.68-5.68s5.68,2.54,5.68,5.68h4.54c0-3.14,2.54-5.68,5.68-5.68s5.68,2.54,5.68,5.68h4.54c0-3.14,2.54-5.68,5.68-5.68s5.68,2.54,5.68,5.68h4.54c0-3.14,2.54-5.68,5.68-5.68s5.68,2.54,5.68,5.68h10.79V100.29h-10.81Z"/>
        <path class="cls-4" d="m448.21,144.92c0-24.84-22.45-44.44-48.17-39.62-16.18,3.04-29.07,16.25-31.91,32.46-1.77,10.14.32,19.67,4.94,27.54h-.02l.11.15c1.55,2.61,3.49,4.47,5.44,7.21l23.43,31.04c2.92,3.86,8.72,3.86,11.63,0l23.04-30.52s4.3-5.13,5.86-7.76l.08-.11h-.02c3.52-5.99,5.57-12.94,5.57-20.39Zm-40.35,17.57c-9.81,0-17.76-7.95-17.76-17.76s7.95-17.76,17.76-17.76,17.76,7.95,17.76,17.76-7.95,17.76-17.76,17.76Z"/>
        <g>
          <g>
            <path class="cls-8" d="m176.41,455.86c-27.19,33.25-76.2,38.16-109.45,10.97-33.25-27.19-38.16-76.2-10.97-109.45,27.19-33.25,76.2-38.16,109.45-10.97,33.25,27.19,38.16,76.2,10.97,109.45Z"/>
            <path class="cls-5" d="m176.41,455.86s.21-.38.68-1.07c.53-.75,1.23-1.75,2.12-3.03.48-.67,1-1.41,1.58-2.21.54-.84,1.06-1.81,1.66-2.83,1.19-2.05,2.63-4.38,3.79-7.24,2.72-5.52,5.01-12.78,6.32-21.39,1.26-8.61,1.21-18.72-1.39-29.39-2.62-10.6-7.62-21.88-16.04-31.67-8.4-9.67-19.69-18.38-33.46-22.98-3.37-1.33-6.97-2.06-10.57-2.93-3.66-.52-7.35-1.27-11.14-1.28-3.78-.32-7.6.03-11.45.22-3.82.58-7.7,1.03-11.48,2.13-7.57,2.02-15.14,4.96-21.93,9.45-6.83,4.39-13.07,9.88-18.44,16.27-5.2,6.53-9.35,13.74-12.3,21.3-3.05,7.55-4.43,15.55-4.91,23.37-.33,3.93,0,7.82.19,11.68.58,3.82.99,7.63,2.06,11.27.76,3.72,2.22,7.19,3.46,10.67,1.57,3.35,3,6.73,4.97,9.78,7.24,12.59,18.02,21.92,29.17,28.24,11.26,6.31,23.32,8.98,34.22,9.44,10.97.43,20.89-1.52,29.08-4.47,8.18-2.99,14.85-6.68,19.71-10.44,2.57-1.71,4.57-3.58,6.34-5.15.88-.79,1.73-1.49,2.45-2.19.68-.73,1.3-1.39,1.86-1.99,1.07-1.13,1.91-2.02,2.54-2.68.58-.6.89-.9.91-.88s-.24.35-.78.99c-.6.7-1.4,1.62-2.43,2.8-.54.62-1.15,1.3-1.81,2.05-.7.72-1.54,1.44-2.4,2.26-1.75,1.62-3.73,3.55-6.29,5.32-4.85,3.87-11.53,7.69-19.78,10.81-8.26,3.07-18.3,5.14-29.45,4.78-11.08-.39-23.36-3.03-34.87-9.4-11.38-6.38-22.41-15.85-29.84-28.67-2.02-3.1-3.49-6.54-5.1-9.97-1.27-3.55-2.77-7.1-3.56-10.89-1.09-3.72-1.53-7.61-2.12-11.51-.2-3.94-.54-7.92-.21-11.93.48-7.99,1.89-16.17,5-23.89,3.01-7.74,7.25-15.11,12.57-21.78,5.49-6.53,11.87-12.15,18.85-16.63,6.95-4.58,14.68-7.58,22.42-9.63,3.87-1.12,7.83-1.58,11.73-2.16,3.94-.19,7.84-.53,11.7-.2,3.87.02,7.64.79,11.38,1.33,3.67.9,7.34,1.66,10.78,3.02,14.04,4.74,25.51,13.66,34.02,23.55,8.53,10.01,13.55,21.52,16.13,32.31,2.56,10.85,2.53,21.11,1.16,29.81-1.42,8.71-3.83,16.02-6.67,21.54-1.23,2.86-2.72,5.18-3.96,7.22-.63,1.01-1.17,1.98-1.74,2.81-.6.8-1.16,1.52-1.66,2.18-.95,1.24-1.71,2.21-2.27,2.93-.52.65-.79.98-.82.96Z"/>
          </g>
          <path class="cls-4" d="m165.03,417.68c2.42,2.42,1.32,6.56-1.99,7.45l-39.02,11.91-39.12,10.51c-3.41-.51-6.44-3.54-5.56-6.85l10.46-39.14,10.46-39.14c.88-3.31,5.02-4.42,7.44-2l28.67,28.63,28.67,28.63Z"/>
        </g>
        <rect class="cls-8" x="208.2" y="124.8" width="122.59" height="49.26"/>
        <rect class="cls-7" x="208.2" y="176.51" width="122.59" height="3.85"/>
        <rect class="cls-7" x="208.2" y="328.61" width="122.59" height="8.6"/>
        <g>
          <g>
            <rect class="cls-4" x="18.72" y="204.08" width="218.8" height="88.87"/>
            <rect class="cls-8" x="3.43" y="196.08" width="218.8" height="88.87"/>
            <path class="cls-6" d="m222.23,284.96s-.02-.55-.03-1.59c0-1.05-.01-2.59-.03-4.61-.01-4.06-.03-10.01-.06-17.69-.03-15.34-.08-37.53-.13-64.99l.24.24c-55.66.03-133.14.06-218.78.1h-.01l.35-.35c0,31.12-.01,61.16-.01,88.87l-.33-.33c63.4.06,118.05.12,156.87.16,19.43.04,34.89.07,45.51.09,5.3.02,9.4.03,12.18.04,1.38,0,2.43.02,3.15.02.71,0,1.08.02,1.08.02,0,0-.35.01-1.04.02-.71,0-1.75.01-3.11.02-2.77,0-6.84.02-12.11.04-10.6.02-26.04.05-45.43.09-38.88.04-93.61.09-157.1.16h-.33s0-.33,0-.33c0-27.71,0-57.75-.01-88.87v-.35h.36c85.65.04,163.12.08,218.78.1h.24s0,.24,0,.24c-.06,27.52-.1,49.76-.13,65.13-.03,7.65-.05,13.59-.06,17.63-.01,2-.02,3.52-.03,4.57,0,1.03-.03,1.54-.03,1.54Z"/>
          </g>
          <path class="cls-6" d="m3.65,208.07c0-.19,48.91-.35,109.22-.35s109.23.16,109.23.35-48.9.35-109.23.35-109.22-.16-109.22-.35Z"/>
          <g>
            <g>
              <path class="cls-6" d="m12.81,202.71c0,.88-.71,1.59-1.59,1.59s-1.59-.71-1.59-1.59.71-1.59,1.59-1.59,1.59.71,1.59,1.59Z"/>
              <path class="cls-6" d="m18.25,202.71c0,.88-.71,1.59-1.59,1.59s-1.59-.71-1.59-1.59.71-1.59,1.59-1.59,1.59.71,1.59,1.59Z"/>
              <path class="cls-6" d="m23.61,202.71c0,.88-.71,1.59-1.59,1.59s-1.59-.71-1.59-1.59.71-1.59,1.59-1.59,1.59.71,1.59,1.59Z"/>
            </g>
            <g class="cls-1">
              <path class="cls-7" d="m12.81,202.71c0,.88-.71,1.59-1.59,1.59s-1.59-.71-1.59-1.59.71-1.59,1.59-1.59,1.59.71,1.59,1.59Z"/>
              <path class="cls-7" d="m18.25,202.71c0,.88-.71,1.59-1.59,1.59s-1.59-.71-1.59-1.59.71-1.59,1.59-1.59,1.59.71,1.59,1.59Z"/>
              <path class="cls-7" d="m23.61,202.71c0,.88-.71,1.59-1.59,1.59s-1.59-.71-1.59-1.59.71-1.59,1.59-1.59,1.59.71,1.59,1.59Z"/>
            </g>
          </g>
          <g>
            <rect class="cls-6" x="22.02" y="222.51" width="52.85" height="52.85"/>
            <rect class="cls-2" x="22.02" y="222.51" width="52.85" height="52.85"/>
          </g>
          <g>
            <path class="cls-6" d="m207.09,236.68c0,.19-27.2.35-60.73.35s-60.74-.15-60.74-.35,27.19-.35,60.74-.35,60.73.16,60.73.35Z"/>
            <path class="cls-6" d="m207.09,247.44c0,.19-27.2.35-60.73.35s-60.74-.16-60.74-.35,27.19-.35,60.74-.35,60.73.16,60.73.35Z"/>
            <path class="cls-6" d="m163.81,258.21s-.27.05-.79.07c-.6.02-1.35.04-2.28.06-2.07.03-4.91.06-8.38.11-7.16.03-16.89.06-27.64.1-10.76-.04-20.49-.08-27.65-.1-3.47-.05-6.31-.08-8.38-.11-.93-.03-1.68-.05-2.28-.06-.52-.02-.79-.05-.79-.07s.27-.05.79-.07c.6-.02,1.35-.04,2.28-.07,2.07-.03,4.91-.06,8.38-.11,7.16-.03,16.89-.06,27.65-.1,10.75.04,20.49.08,27.64.1,3.47.05,6.31.08,8.38.11.93.03,1.68.05,2.28.07.52.02.79.05.79.07Z"/>
          </g>
        </g>
      </g>
      <g>
        <g>
          <path class="cls-12" d="m434.5,499.19l-91.84-33.59c-6.35-2.32-9.55-9.18-7.14-15.32l48.07-122.94c2.4-6.14,9.49-9.23,15.84-6.91l58.24,21.3,27.51,61.43-34.85,89.11c-2.4,6.14-9.49,9.23-15.84,6.91Z"/>
          <path class="cls-10" d="m457.67,341.73l-13.53,34.6c-2.23,5.71.74,12.09,6.64,14.25l34.4,12.59-27.51-61.43Z"/>
          <path class="cls-4" d="m443.43,379.54s-3.73,8.23,5.07,14.6c.33.24.68.46,1.03.66,4.19,2.42,31.77,18.32,32.02,17.66.28-.71,3.64-9.3,3.64-9.3l-34.4-12.58s-8.48-3.43-7.36-11.04Z"/>
        </g>
        <path class="cls-4" d="m437,372.11c-.17.44-9.83-2.67-21.56-6.97-11.73-4.29-21.1-8.13-20.93-8.58.17-.44,9.83,2.67,21.56,6.97,11.73,4.29,21.1,8.13,20.93,8.58Z"/>
        <path class="cls-4" d="m456.79,401.71c-.17.44-15.97-4.92-35.28-11.98-19.31-7.06-34.83-13.15-34.65-13.59.17-.44,15.97,4.92,35.28,11.98,19.31,7.06,34.82,13.15,34.65,13.59Z"/>
        <path class="cls-4" d="m456.7,420.35c-.17.44-17.38-5.44-38.43-13.14-21.05-7.7-37.97-14.3-37.8-14.75.17-.44,17.38,5.44,38.43,13.14,21.05,7.7,37.97,14.3,37.8,14.74Z"/>
        <path class="cls-4" d="m450.67,435.76c-.17.45-17.38-5.44-38.43-13.13-21.05-7.7-37.97-14.3-37.8-14.75.17-.44,17.38,5.44,38.43,13.14,21.05,7.7,37.97,14.3,37.8,14.74Z"/>
        <path class="cls-4" d="m444.64,451.17c-.17.44-17.38-5.44-38.43-13.13-21.05-7.7-37.97-14.3-37.8-14.75.17-.44,17.38,5.44,38.43,13.14,21.05,7.7,37.97,14.3,37.8,14.75Z"/>
        <path class="cls-4" d="m438.62,466.58c-.17.44-17.38-5.44-38.43-13.14-21.05-7.7-37.97-14.3-37.8-14.75.17-.44,17.38,5.44,38.43,13.14,21.05,7.7,37.97,14.3,37.8,14.75Z"/>
      </g>
    </g>
  </g>
</svg>