<?xml version="1.0" encoding="UTF-8"?>
<svg xmlns="http://www.w3.org/2000/svg" viewBox="0 0 500 500">
  <defs>
    <style>
      .cls-1 {
        mix-blend-mode: multiply;
      }

      .cls-2 {
        isolation: isolate;
      }

      .cls-3 {
        fill: #f3f3f3;
      }

      .cls-3, .cls-4, .cls-5, .cls-6, .cls-7, .cls-8, .cls-9, .cls-10, .cls-11, .cls-12, .cls-13, .cls-14, .cls-15, .cls-16 {
        stroke-width: 0px;
      }

      .cls-4 {
        fill: #9a9a9a;
      }

      .cls-5 {
        fill: #cbcbcb;
      }

      .cls-6 {
        fill: #d0d0d0;
      }

      .cls-7 {
        fill: #e0e0e0;
      }

      .cls-8 {
        fill: #c5c5c5;
      }

      .cls-9 {
        fill: #bebebe;
      }

      .cls-10 {
        fill: #a7a7a7;
      }

      .cls-11 {
        fill: #b6b6b6;
      }

      .cls-12 {
        fill: #f60;
      }

      .cls-13 {
        fill: #fff;
      }

      .cls-14 {
        fill: #ebebeb;
      }

      .cls-15 {
        fill: #fafbfb;
      }

      .cls-16 {
        fill: #f5f5f5;
      }
    </style>
  </defs>
  <g class="cls-2">
    <g id="Layer_1" data-name="Layer 1">
      <g>
        <g>
          <g>
            <path class="cls-16" d="m447.26,368.14l-91.84-33.59c-6.35-2.32-9.55-9.18-7.14-15.32l48.07-122.94c2.4-6.14,9.49-9.23,15.84-6.91l58.24,21.3,27.51,61.43-34.85,89.11c-2.4,6.14-9.49,9.23-15.84,6.91Z"/>
            <path class="cls-14" d="m470.43,210.68l-13.53,34.6c-2.23,5.71.74,12.09,6.64,14.25l34.4,12.59-27.51-61.43Z"/>
            <path class="cls-7" d="m456.18,248.49s-3.73,8.23,5.07,14.6c.33.24.68.46,1.03.66,4.19,2.42,31.77,18.32,32.02,17.66.28-.71,3.64-9.3,3.64-9.3l-34.4-12.58s-8.48-3.43-7.36-11.04Z"/>
          </g>
          <path class="cls-7" d="m449.75,241.05c-.17.44-9.83-2.67-21.56-6.97-11.73-4.29-21.1-8.13-20.93-8.58.17-.44,9.83,2.67,21.56,6.97,11.73,4.29,21.1,8.13,20.93,8.58Z"/>
          <path class="cls-7" d="m469.54,270.65c-.17.44-15.97-4.92-35.28-11.98-19.31-7.06-34.83-13.15-34.65-13.59.17-.44,15.97,4.92,35.28,11.98,19.31,7.06,34.82,13.15,34.65,13.59Z"/>
          <path class="cls-7" d="m469.45,289.29c-.17.44-17.38-5.44-38.43-13.14-21.05-7.7-37.97-14.3-37.8-14.75.17-.44,17.38,5.44,38.43,13.14,21.05,7.7,37.97,14.3,37.8,14.74Z"/>
          <path class="cls-7" d="m463.42,304.71c-.17.45-17.38-5.44-38.43-13.13-21.05-7.7-37.97-14.3-37.8-14.75.17-.44,17.38,5.44,38.43,13.14,21.05,7.7,37.97,14.3,37.8,14.74Z"/>
          <path class="cls-7" d="m457.4,320.12c-.17.44-17.38-5.44-38.43-13.13-21.05-7.7-37.97-14.3-37.8-14.75.17-.44,17.38,5.44,38.43,13.14,21.05,7.7,37.97,14.3,37.8,14.75Z"/>
          <path class="cls-7" d="m451.37,335.53c-.17.44-17.38-5.44-38.43-13.14-21.05-7.7-37.97-14.3-37.8-14.75.17-.44,17.38,5.44,38.43,13.14,21.05,7.7,37.97,14.3,37.8,14.75Z"/>
        </g>
        <g class="cls-1">
          <g>
            <path class="cls-14" d="m192.49,354.71l-121.07,41c-4.19,1.42-8.77-.72-10.24-4.77L.44,223.18c-1.47-4.05.74-8.48,4.93-9.9l121.07-41c4.19-1.42,8.77.72,10.24,4.77l60.74,167.77c1.47,4.05-.74,8.48-4.93,9.9Z"/>
            <g>
              <g>
                <polygon class="cls-7" points="188.2 348.99 71.08 388.66 10.87 222.36 127.99 182.7 188.2 348.99"/>
                <g>
                  <polygon class="cls-15" points="184.96 345.03 67.84 384.7 8.78 221.58 125.9 181.91 184.96 345.03"/>
                  <path class="cls-7" d="m184.96,345.03c-.5-1.36-24.28-66.85-59.22-163.07l.21.1c-35.52,12.04-75.26,25.5-117.1,39.68h-.01s.11-.22.11-.22c22.08,61.27,42.62,117.86,59.03,163.13l-.19-.09c71.24-24.03,116.02-39.14,117.17-39.53-1.15.39-45.89,15.6-117.07,39.8l-.14.05-.05-.14c-16.4-45.27-36.9-101.86-59.09-163.11l-.06-.17.17-.06h.01c41.84-14.17,81.59-27.62,117.11-39.65l.16-.05.06.15c34.75,96.28,58.41,161.81,58.9,163.17Z"/>
                </g>
                <path class="cls-7" d="m143.41,359.1s26.08-21.27,30.6-43.43c0,0-7.24,10.98-22.3,12.98,0,0-.52,23.26-8.3,30.45Z"/>
                <g>
                  <path class="cls-14" d="m53.83,271.77l-6.17,2.09c-2.25.76-4.71-.38-5.5-2.56l-2.16-5.96c-.79-2.18.4-4.56,2.65-5.32l6.17-2.09c2.25-.76,4.71.38,5.5,2.56l2.16,5.96c.79,2.18-.4,4.56-2.65,5.32Z"/>
                  <path class="cls-13" d="m48.06,268.19s0,0-.01,0c-.09.03-.2.02-.28-.03l-2.82-1.58c-.17-.09-.23-.3-.13-.47.1-.16.31-.22.48-.12l2.49,1.4,2.98-6.17c.08-.17.29-.24.47-.16.18.08.25.28.17.45l-3.15,6.51c-.04.08-.11.15-.2.18Z"/>
                  <path class="cls-7" d="m128.94,232.68c.03.09-15.18,5.33-33.97,11.69-18.8,6.37-34.06,11.45-34.09,11.36-.03-.09,15.17-5.33,33.97-11.69,18.79-6.36,34.06-11.45,34.09-11.36Z"/>
                  <path class="cls-7" d="m93.22,256.15s-.38.18-1.1.45c-.78.28-1.81.65-3.05,1.09-2.58.91-6.16,2.14-10.12,3.48-3.96,1.34-7.55,2.54-10.16,3.38-1.26.4-2.3.74-3.09.99-.73.23-1.14.34-1.15.32,0-.02.38-.18,1.1-.45.78-.28,1.81-.65,3.05-1.09,2.58-.91,6.16-2.14,10.12-3.48,3.96-1.34,7.55-2.54,10.16-3.38,1.26-.4,2.3-.74,3.09-.99.73-.23,1.14-.34,1.15-.32Z"/>
                  <path class="cls-7" d="m130.56,237.17c.03.09-15.18,5.33-33.97,11.69-18.8,6.37-34.06,11.45-34.09,11.36-.03-.09,15.17-5.33,33.97-11.69,18.79-6.36,34.06-11.45,34.09-11.36Z"/>
                </g>
                <g>
                  <path class="cls-14" d="m62.63,296.08l-6.17,2.09c-2.25.76-4.71-.38-5.5-2.56l-2.16-5.97c-.79-2.18.4-4.56,2.65-5.32l6.17-2.09c2.25-.76,4.71.38,5.5,2.56l2.16,5.97c.79,2.18-.4,4.56-2.65,5.32Z"/>
                  <path class="cls-13" d="m56.86,292.5s0,0-.01,0c-.09.03-.2.02-.28-.03l-2.82-1.58c-.17-.09-.23-.3-.13-.47.1-.16.31-.22.48-.12l2.49,1.4,2.98-6.17c.08-.17.29-.24.47-.16.18.08.25.28.17.45l-3.15,6.51c-.04.08-.11.15-.2.18Z"/>
                  <path class="cls-7" d="m137.74,256.98c.03.09-15.18,5.33-33.97,11.69-18.8,6.37-34.06,11.45-34.09,11.36-.03-.09,15.17-5.33,33.97-11.69,18.79-6.36,34.06-11.45,34.09-11.36Z"/>
                  <path class="cls-7" d="m102.02,280.45s-.38.18-1.1.45c-.78.28-1.81.65-3.05,1.09-2.58.91-6.16,2.14-10.12,3.48-3.96,1.34-7.55,2.54-10.16,3.38-1.26.4-2.3.74-3.09.99-.73.23-1.14.34-1.15.32,0-.02.38-.18,1.1-.45.78-.28,1.81-.65,3.05-1.09,2.58-.91,6.16-2.14,10.12-3.48,3.96-1.34,7.55-2.54,10.16-3.38,1.26-.4,2.3-.74,3.09-.99.73-.23,1.14-.34,1.15-.32Z"/>
                  <path class="cls-7" d="m139.36,261.47c.03.09-15.18,5.33-33.97,11.69-18.8,6.37-34.06,11.45-34.09,11.36-.03-.09,15.17-5.33,33.97-11.69,18.79-6.36,34.06-11.45,34.09-11.36Z"/>
                </g>
                <g>
                  <path class="cls-14" d="m71.43,320.38l-6.17,2.09c-2.25.76-4.71-.38-5.5-2.56l-2.16-5.96c-.79-2.18.4-4.56,2.65-5.32l6.17-2.09c2.25-.76,4.71.38,5.5,2.56l2.16,5.96c.79,2.18-.4,4.56-2.65,5.32Z"/>
                  <path class="cls-13" d="m65.66,316.8s0,0-.01,0c-.09.03-.2.02-.28-.03l-2.82-1.58c-.17-.09-.23-.3-.13-.47.1-.16.31-.22.48-.12l2.49,1.4,2.98-6.17c.08-.17.29-.24.47-.16.18.08.25.28.17.45l-3.15,6.51c-.04.08-.11.15-.2.18Z"/>
                  <path class="cls-7" d="m146.54,281.29c.03.09-15.18,5.33-33.97,11.69-18.8,6.37-34.06,11.45-34.09,11.36-.03-.09,15.17-5.33,33.97-11.69,18.79-6.36,34.06-11.45,34.09-11.36Z"/>
                  <path class="cls-7" d="m110.82,304.75s-.38.18-1.1.45c-.78.28-1.81.65-3.05,1.09-2.58.91-6.16,2.14-10.12,3.48-3.96,1.34-7.55,2.54-10.16,3.38-1.26.4-2.3.74-3.09.99-.73.23-1.14.34-1.15.32,0-.02.38-.18,1.1-.45.78-.28,1.81-.65,3.05-1.09,2.58-.91,6.16-2.14,10.12-3.48,3.96-1.34,7.55-2.54,10.16-3.38,1.26-.4,2.3-.74,3.09-.99.73-.23,1.14-.34,1.15-.32Z"/>
                  <path class="cls-7" d="m148.16,285.78c.03.09-15.18,5.33-33.97,11.69-18.8,6.37-34.06,11.45-34.09,11.36-.03-.09,15.17-5.33,33.97-11.69,18.79-6.36,34.06-11.45,34.09-11.36Z"/>
                </g>
                <g>
                  <path class="cls-14" d="m80.23,344.68l-6.17,2.09c-2.25.76-4.71-.38-5.5-2.56l-2.16-5.97c-.79-2.18.4-4.56,2.65-5.32l6.17-2.09c2.25-.76,4.71.38,5.5,2.56l2.16,5.96c.79,2.18-.4,4.56-2.65,5.32Z"/>
                  <path class="cls-13" d="m74.46,341.11s0,0-.01,0c-.09.03-.2.02-.28-.03l-2.82-1.58c-.17-.09-.23-.3-.13-.47.1-.16.31-.22.48-.12l2.49,1.4,2.98-6.17c.08-.17.29-.24.47-.16.18.08.25.28.17.45l-3.15,6.51c-.04.08-.11.15-.2.18Z"/>
                  <path class="cls-7" d="m155.34,305.59c.03.09-15.18,5.33-33.97,11.69-18.8,6.37-34.06,11.45-34.09,11.36s15.17-5.33,33.97-11.69c18.79-6.36,34.06-11.45,34.09-11.36Z"/>
                  <path class="cls-7" d="m119.62,329.06s-.38.18-1.1.45c-.78.28-1.81.65-3.05,1.09-2.58.91-6.16,2.14-10.12,3.48-3.96,1.34-7.55,2.54-10.16,3.38-1.26.4-2.3.74-3.09.99-.73.23-1.14.34-1.15.32,0-.02.38-.18,1.1-.45.78-.28,1.81-.65,3.05-1.09,2.58-.91,6.16-2.14,10.12-3.48,3.96-1.34,7.55-2.54,10.16-3.38,1.26-.4,2.3-.74,3.09-.99.73-.23,1.14-.34,1.15-.32Z"/>
                  <path class="cls-7" d="m156.96,310.08c.03.09-15.18,5.33-33.97,11.69-18.8,6.37-34.06,11.45-34.09,11.36-.03-.09,15.17-5.33,33.97-11.69,18.79-6.36,34.06-11.45,34.09-11.36Z"/>
                </g>
              </g>
              <path class="cls-7" d="m22.04,205.69l3.09,8.54c1.79,4.95,7.4,7.56,12.52,5.83l64.78-21.94c5.12-1.74,7.82-7.16,6.03-12.11l-3.09-8.52-83.34,28.21Z"/>
              <path class="cls-7" d="m64.57,194.11c-4.8,1.62-10.06-.83-11.74-5.47-1.68-4.64.86-9.73,5.65-11.36,4.8-1.62,10.06.83,11.74,5.47,1.68,4.64-.86,9.73-5.65,11.36Zm-4.92-13.6c-2.96,1-4.52,4.14-3.48,7,1.04,2.86,4.28,4.37,7.24,3.37,2.96-1,4.52-4.14,3.48-7-1.04-2.86-4.28-4.37-7.24-3.37Z"/>
            </g>
          </g>
          <path class="cls-7" d="m116.35,216.26c.06.16-17.02,6.09-38.15,13.25-21.13,7.16-38.3,12.83-38.36,12.66-.06-.16,17.02-6.09,38.15-13.25,21.12-7.15,38.3-12.82,38.36-12.66Z"/>
          <path class="cls-7" d="m94.48,219.3c.06.16-7.46,2.86-16.79,6.02-9.34,3.16-16.95,5.59-17.01,5.43-.06-.16,7.46-2.86,16.79-6.02,9.33-3.16,16.95-5.59,17.01-5.43Z"/>
        </g>
        <g>
          <path class="cls-7" d="m117.48,165.58c.22.21,42.15-13.73,42.15-13.73l-16.12-35.79-37.33,13.8,20.53,11.41-9.23,24.3Z"/>
          <path class="cls-14" d="m136.85,126.89l22.78,25.17v-29.57s-19.06,2.2-22.78,4.4Z"/>
          <path class="cls-4" d="m137.15,78.11c.18,0,.26,10.92.18,24.39-.08,13.47-.3,24.39-.48,24.39-.18,0-.26-10.92-.18-24.39.08-13.47.3-24.38.48-24.38Z"/>
          <path class="cls-7" d="m340.88,161.84c-.22.21-42.15-13.73-42.15-13.73l16.12-35.79,37.33,13.8-20.53,11.41,9.23,24.3Z"/>
          <path class="cls-14" d="m321.51,123.15l-22.78,25.17v-27.43c7.59.25,15.19,1,22.78,2.26Z"/>
          <path class="cls-4" d="m321.27,75.71c.18,0,.38,10.62.45,23.72.07,13.1-.03,23.72-.21,23.72-.18,0-.38-10.62-.45-23.72-.07-13.1.03-23.72.21-23.72Z"/>
          <path class="cls-7" d="m137.15,126.84v-48.73s57.85-10.23,99.53-9.63c41.68.6,84.6,7.22,84.6,7.22v46.78s-130.63-11.29-184.12,4.35Z"/>
        </g>
        <polygon class="cls-6" points="371.09 92.02 384.91 107.74 423.93 92.02 412.55 75.51 371.09 92.02"/>
        <path class="cls-12" d="m342.88,62.3c0,2.59-2.17,4.69-4.85,4.69s-4.85-2.1-4.85-4.69,2.17-4.69,4.85-4.69,4.85,2.1,4.85,4.69Z"/>
        <path class="cls-12" d="m234.25,132.26c0,1.3-1.09,2.35-2.43,2.35s-2.43-1.05-2.43-2.35,1.09-2.35,2.43-2.35,2.43,1.05,2.43,2.35Z"/>
        <path class="cls-12" d="m121.29,97.01c0,.98-.82,1.78-1.84,1.78s-1.84-.8-1.84-1.78.82-1.78,1.84-1.78,1.84.8,1.84,1.78Z"/>
        <polygon class="cls-6" points="80.11 48.05 103.11 49.41 114.03 5.72 92.55 6.57 80.11 48.05"/>
        <polygon class="cls-11" points="284.17 159.86 286 164.82 296.83 163.07 294.65 158.63 284.17 159.86"/>
        <polygon class="cls-6" points="174.58 131.25 171.23 135.4 178.58 143.3 181.28 139.14 174.58 131.25"/>
        <path class="cls-9" d="m442,486.93c0,7.07-5.93,12.8-13.24,12.8s-13.24-5.73-13.24-12.8,5.93-12.8,13.24-12.8,13.24,5.73,13.24,12.8Z"/>
        <path class="cls-9" d="m21.99,359.73c0,3.3-2.77,5.98-6.18,5.98s-6.18-2.68-6.18-5.98,2.77-5.98,6.18-5.98,6.18,2.68,6.18,5.98Z"/>
        <polygon class="cls-6" points="169.98 218.1 188.23 219.17 196.9 184.5 179.85 185.17 169.98 218.1"/>
        <polygon class="cls-6" points="232.87 341.5 221.63 355.46 246.29 381.98 255.36 368.01 232.87 341.5"/>
        <g>
          <polygon class="cls-3" points="161.61 33.69 174.44 46.34 192.49 39.74 193.2 44.07 185.38 59.56 192.59 71.11 191.98 74.56 174.52 71.72 164.2 82.68 161.77 80.9 159.63 66.96 143.34 58.76 142.63 55.58 159.03 51.23 161.61 33.69"/>
          <polygon class="cls-10" points="161.61 33.69 174.44 46.34 192.49 39.74 193.2 44.07 185.38 59.56 192.59 71.11 191.98 74.56 174.52 71.72 164.2 82.68 161.77 80.9 159.63 66.96 143.34 58.76 142.63 55.58 159.03 51.23 161.61 33.69"/>
          <polygon class="cls-8" points="161.61 30.14 174.44 42.79 192.49 39.74 184.01 55.45 192.59 71.11 174.52 68.17 161.77 80.9 159.08 63.37 142.63 55.58 159.03 47.69 161.61 30.14"/>
        </g>
        <g>
          <polygon class="cls-3" points="294.52 33.69 281.69 46.34 263.65 39.74 262.93 44.07 270.75 59.56 263.55 71.11 264.15 74.56 281.61 71.72 291.94 82.68 294.36 80.9 296.5 66.96 312.79 58.76 313.51 55.58 297.1 51.23 294.52 33.69"/>
          <polygon class="cls-10" points="294.52 33.69 281.69 46.34 263.65 39.74 262.93 44.07 270.75 59.56 263.55 71.11 264.15 74.56 281.61 71.72 291.94 82.68 294.36 80.9 296.5 66.96 312.79 58.76 313.51 55.58 297.1 51.23 294.52 33.69"/>
          <polygon class="cls-8" points="294.52 30.14 281.69 42.79 263.65 39.74 272.12 55.45 263.55 71.11 281.61 68.17 294.36 80.9 297.05 63.37 313.51 55.58 297.1 47.69 294.52 30.14"/>
        </g>
        <g>
          <polygon class="cls-3" points="227.64 11.5 238.32 31.67 262.93 30.27 262.1 35.81 246.46 51.82 250.7 68.57 248.61 72.56 228.42 62.66 211.51 72.23 209.25 69.16 212.13 51.37 195.48 35.36 195.87 31.22 217.59 31.96 227.64 11.5"/>
          <polygon class="cls-13" points="227.64 11.5 238.32 31.67 262.93 30.27 262.1 35.81 246.46 51.82 250.7 68.57 248.61 72.56 228.42 62.66 211.51 72.23 209.25 69.16 212.13 51.37 195.48 35.36 195.87 31.22 217.59 31.96 227.64 11.5"/>
          <polygon class="cls-12" points="229.04 7.18 239.71 27.34 262.93 30.27 246.41 46.31 250.7 68.57 229.82 58.33 209.25 69.16 212.87 46.79 195.87 31.22 218.99 27.63 229.04 7.18"/>
        </g>
        <g>
          <g>
            <path class="cls-13" d="m209.14,195.36l29.03,3.09c6.99-9.62,16.72-17.55,28.71-22.54,34.47-14.35,74.43,1.05,89.27,34.38,14.83,33.34-1.08,71.99-35.55,86.33-34.47,14.35-74.43-1.05-89.27-34.38-6.19-13.92-7.01-28.76-3.37-42.38l-.02.03-18.8-24.54Z"/>
            <path class="cls-11" d="m209.14,195.36c1.14,1.46,7.01,8.99,19.01,24.39l-.45.03.02-.03c.07-.12.23-.17.36-.1.11.06.16.18.13.29-2.4,9.08-3.33,21.04.45,33.94.96,3.2,2.13,6.47,3.76,9.66.83,1.58,1.61,3.22,2.5,4.83,1,1.55,2.02,3.12,3.05,4.71,4.41,6.17,10.15,11.96,17.16,16.66,6.99,4.71,15.24,8.32,24.24,10.22,8.98,1.9,18.71,2.12,28.28.13,9.55-2,18.93-6.08,27.07-12.13,8.1-6.05,15.12-13.96,19.63-23.3,4.64-9.49,7.12-19.86,6.74-29.99-.29-10.13-3.04-19.92-7.61-28.47-4.57-8.56-10.93-15.92-18.37-21.42-7.41-5.54-15.72-9.36-24.07-11.52-8.36-2.17-16.74-2.67-24.53-1.91-7.82.79-14.93,3.05-21.27,5.69-12.65,5.61-21.36,14.08-26.86,21.58-.05.08-.15.11-.24.1-18.37-2.12-27.21-3.13-29-3.34,1.8.18,10.65,1.04,29.06,2.85l-.24.1c5.47-7.6,14.21-16.2,26.97-21.94,6.4-2.7,13.58-5.02,21.5-5.84,7.89-.8,16.38-.32,24.86,1.86,8.47,2.16,16.9,6.02,24.43,11.63,7.55,5.57,14.03,13.03,18.68,21.71,4.66,8.67,7.46,18.62,7.76,28.9.4,10.29-2.12,20.83-6.83,30.46-4.59,9.49-11.72,17.53-19.95,23.67-8.27,6.14-17.8,10.27-27.5,12.29-9.72,2.01-19.6,1.77-28.7-.17-9.12-1.95-17.48-5.63-24.55-10.42-7.09-4.79-12.89-10.67-17.33-16.94-1.04-1.61-2.06-3.21-3.07-4.78-.9-1.63-1.68-3.29-2.51-4.9-1.63-3.23-2.79-6.54-3.75-9.78-3.75-13.06-2.74-25.13-.24-34.26l.49.19-.02.03c-.07.12-.23.17-.36.1-.03-.02-.06-.05-.09-.07-11.74-15.59-17.47-23.21-18.58-24.69Z"/>
          </g>
          <g>
            <path class="cls-11" d="m268.69,212.88s.03.33.05.91c.01.65.03,1.49.05,2.55.03,2.3.07,5.51.12,9.55.06,8.24.14,19.86.24,33.77l-.46-.45c14.08-.02,30.67-.04,48.36-.07.12-.11-1.01.98-.53.51h0v-3.19c0-1.06,0-2.12,0-3.17,0-2.11,0-4.19,0-6.25,0-4.13,0-8.16.01-12.09.02-7.85.04-15.26.05-22.07l.46.45c-14.38-.09-26.4-.17-34.92-.23-4.18-.05-7.51-.09-9.88-.12-1.09-.02-1.96-.04-2.63-.05-.6-.02-.92-.03-.94-.05-.02-.02.27-.03.84-.05.65-.01,1.49-.03,2.54-.05,2.35-.03,5.63-.07,9.77-.12,8.59-.06,20.71-.13,35.21-.23h.46s0,.45,0,.45c.02,6.81.03,14.22.05,22.07,0,3.93,0,7.97.01,12.09,0,2.06,0,4.15,0,6.25,0,1.05,0,2.11,0,3.17v1.6s0,.8,0,.8v.78h0c.48-.45-.65.65-.54.54-17.7-.03-34.29-.05-48.36-.07h-.47s0-.45,0-.45c.1-14.03.18-25.74.24-34.06.05-4,.09-7.18.12-9.45.02-1.02.04-1.83.05-2.46.02-.55.03-.83.05-.81Z"/>
            <path class="cls-12" d="m311.84,220.61c.7.53-5.81,9.6-14.54,20.24-1.74,2.12-3.44,4.15-5.02,5.99l-1.03,1.21-1.16-1.01c-7.55-6.58-12.68-11.63-12.22-12.15.46-.52,6.38,3.65,14.21,9.92l-2.19.2c1.49-1.91,3.15-3.97,4.89-6.09,8.72-10.64,16.36-18.84,17.05-18.31Z"/>
          </g>
        </g>
        <g>
          <path class="cls-5" d="m299.48,356.98l-44.48,88.39-109.58,2.71-.27,5.64,106.1-.9,3.36-.13,112.05.25,22.64-44.37,28.92-47.11c1.9-3.09-.06-7.32-3.37-7.31l-111.84.48c-1.46,0-2.81.9-3.54,2.34Z"/>
          <path class="cls-9" d="m418.24,357.5s-.18.04-.54.06c-.42.02-.94.04-1.57.06-1.47.03-3.49.07-6.05.12-5.35.05-12.93.12-22.25.2-18.87.05-44.78.11-73.41.18-1.79,0-3.57,0-5.34,0-1.68-.15-3.2.69-4.07,2.19-1.69,3.46-3.35,6.86-4.98,10.21-3.28,6.72-6.43,13.2-9.45,19.37-6.03,12.31-11.47,23.41-16.05,32.77-4.57,9.24-8.28,16.74-10.9,22.04-1.27,2.52-2.28,4.51-3.01,5.96-.33.62-.59,1.12-.81,1.53-.19.34-.29.51-.31.5-.02-.01.05-.2.21-.56.19-.43.42-.95.71-1.6.69-1.48,1.64-3.51,2.83-6.08,2.55-5.34,6.16-12.92,10.6-22.23,4.52-9.39,9.89-20.54,15.84-32.9,2.99-6.19,6.13-12.68,9.39-19.41,1.64-3.37,3.31-6.81,5.01-10.29,1.03-1.88,3.13-2.94,5-2.75,1.77,0,3.55,0,5.34,0,28.63.07,54.54.14,73.41.18,9.32.08,16.9.15,22.25.2,2.56.05,4.58.09,6.05.12.64.03,1.15.05,1.57.06.35.02.54.04.54.06Z"/>
          <path class="cls-12" d="m339.39,401.94c-1.98,2.49-2.03,6.11-.1,8.08,1.92,1.97,5.08,1.54,7.06-.95,1.98-2.49,2.03-6.11.1-8.08-1.92-1.97-5.08-1.54-7.06.95Z"/>
        </g>
        <g>
          <g>
            <ellipse class="cls-12" cx="122.5" cy="413.44" rx="41.56" ry="40.2"/>
            <path class="cls-5" d="m70.58,468.96c.05.12,1.35-.5,3.87-.83,2.48-.33,6.32-.14,10.33,1.89,1.97,1.02,3.97,2.49,5.53,4.53,1.53,2.04,2.63,4.62,2.78,7.47.42,5.6-2.57,12.31-8.66,15.32-6.15,2.9-13.5,1.17-17.87-2.53-2.26-1.83-3.74-4.23-4.5-6.64-.74-2.43-.75-4.86-.41-7,.73-4.32,2.89-7.4,4.65-9.12,1.78-1.75,3.09-2.37,3.01-2.49-.02-.04-.34.11-.94.43-.31.15-.67.37-1.06.66-.41.28-.88.62-1.34,1.06-1.92,1.67-4.3,4.8-5.18,9.3-.42,2.23-.46,4.8.29,7.42.76,2.59,2.33,5.21,4.73,7.2,2.35,2.02,5.42,3.49,8.79,4.06,3.36.62,7.07.26,10.37-1.29,3.26-1.62,5.8-4.27,7.31-7.24,1.55-2.94,2.19-6.2,1.94-9.23-.19-3.05-1.41-5.84-3.1-7.99-1.71-2.15-3.85-3.66-5.95-4.69-4.25-2.03-8.26-2.08-10.8-1.6-.65.09-1.2.25-1.68.4-.48.13-.88.27-1.19.42-.62.27-.94.43-.92.47Z"/>
          </g>
          <polygon class="cls-13" points="101.51 414.47 107.66 408.51 119.53 418.72 142.83 397.04 148.54 402.99 118.65 430.2 101.51 414.47"/>
        </g>
      </g>
    </g>
  </g>
</svg>