<?xml version="1.0" encoding="UTF-8"?>
<svg xmlns="http://www.w3.org/2000/svg" viewBox="0 0 500 500">
  <defs>
    <style>
      .cls-1, .cls-2, .cls-3, .cls-4, .cls-5, .cls-6, .cls-7, .cls-8, .cls-9, .cls-10, .cls-11, .cls-12, .cls-13, .cls-14 {
        stroke-width: 0px;
      }

      .cls-1, .cls-15, .cls-16 {
        mix-blend-mode: multiply;
      }

      .cls-1, .cls-5 {
        fill: #e0e0e0;
      }

      .cls-2, .cls-17 {
        fill: none;
      }

      .cls-18, .cls-3 {
        opacity: .6;
      }

      .cls-17 {
        stroke: #c5c5c5;
        stroke-miterlimit: 10;
        stroke-width: 3.52px;
      }

      .cls-19 {
        isolation: isolate;
      }

      .cls-3, .cls-10 {
        fill: #fff;
      }

      .cls-4 {
        opacity: .62;
      }

      .cls-4, .cls-7 {
        fill: #c5c5c5;
      }

      .cls-6 {
        fill: #d7d7d7;
      }

      .cls-8 {
        fill: #bdbdbd;
      }

      .cls-9 {
        fill: #f60;
      }

      .cls-11 {
        fill: #ebebeb;
      }

      .cls-12 {
        fill: #fafbfb;
      }

      .cls-13 {
        fill: #fcfcfc;
      }

      .cls-14 {
        fill: #f5f5f5;
      }

      .cls-16 {
        opacity: .8;
      }
    </style>
  </defs>
  <g class="cls-19">
    <g id="Layer_1" data-name="Layer 1">
      <g>
        <g>
          <g class="cls-16">
            <rect class="cls-13" x="311.65" y="405.16" width="187.95" height="76.34"/>
          </g>
          <rect class="cls-10" x="303.15" y="403.1" width="187.95" height="76.34"/>
          <path class="cls-8" d="m494.76,475.18s-.01-.47-.02-1.36c0-.9-.01-2.23-.02-3.96-.01-3.48-.03-8.6-.05-15.19-.03-13.18-.07-32.24-.11-55.83l.21.21c-47.81.02-114.37.05-187.94.09h-.01l.3-.3c0,26.73,0,52.54-.01,76.34l-.28-.28c54.46.05,101.41.1,134.76.13,16.69.03,29.97.06,39.09.08,4.56.02,8.07.03,10.46.04,1.18,0,2.09.01,2.71.02.61,0,.93.02.93.02,0,0-.3.01-.9.02-.61,0-1.5,0-2.68.02-2.38,0-5.87.02-10.4.04-9.11.02-22.37.05-39.03.08-33.4.03-80.41.08-134.95.13h-.28s0-.28,0-.28c0-23.8,0-49.61-.01-76.34v-.3h.31c73.57.03,140.13.07,187.94.09h.21s0,.21,0,.21c-.05,23.64-.09,42.75-.11,55.95-.02,6.57-.04,11.67-.05,15.15,0,1.72-.02,3.03-.02,3.92,0,.88-.02,1.32-.02,1.32Z"/>
        </g>
        <path class="cls-8" d="m307,409.13c0-.16,42.01-.3,93.82-.3s93.83.13,93.83.3-42,.3-93.83.3-93.82-.13-93.82-.3Z"/>
        <g>
          <g>
            <path class="cls-8" d="m314.86,404.53c0,.75-.61,1.36-1.36,1.36s-1.36-.61-1.36-1.36.61-1.36,1.36-1.36,1.36.61,1.36,1.36Z"/>
            <path class="cls-8" d="m319.54,404.53c0,.75-.61,1.36-1.36,1.36s-1.36-.61-1.36-1.36.61-1.36,1.36-1.36,1.36.61,1.36,1.36Z"/>
            <path class="cls-8" d="m324.15,404.53c0,.75-.61,1.36-1.36,1.36s-1.36-.61-1.36-1.36.61-1.36,1.36-1.36,1.36.61,1.36,1.36Z"/>
          </g>
          <g class="cls-18">
            <path class="cls-10" d="m314.86,404.53c0,.75-.61,1.36-1.36,1.36s-1.36-.61-1.36-1.36.61-1.36,1.36-1.36,1.36.61,1.36,1.36Z"/>
            <path class="cls-10" d="m319.54,404.53c0,.75-.61,1.36-1.36,1.36s-1.36-.61-1.36-1.36.61-1.36,1.36-1.36,1.36.61,1.36,1.36Z"/>
            <path class="cls-10" d="m324.15,404.53c0,.75-.61,1.36-1.36,1.36s-1.36-.61-1.36-1.36.61-1.36,1.36-1.36,1.36.61,1.36,1.36Z"/>
          </g>
        </g>
        <g>
          <rect class="cls-8" x="322.78" y="421.54" width="45.4" height="45.4"/>
          <rect class="cls-3" x="322.78" y="421.54" width="45.4" height="45.4"/>
        </g>
        <g>
          <path class="cls-8" d="m481.76,433.71c0,.16-23.36.3-52.17.3s-52.18-.13-52.18-.3,23.36-.3,52.18-.3,52.17.13,52.17.3Z"/>
          <path class="cls-8" d="m481.76,442.95c0,.16-23.36.3-52.17.3s-52.18-.13-52.18-.3,23.36-.3,52.18-.3,52.17.13,52.17.3Z"/>
          <path class="cls-8" d="m444.58,452.2s-.23.04-.68.06c-.51.01-1.16.03-1.96.06-1.78.02-4.22.06-7.2.09-6.15.02-14.51.05-23.75.09-9.24-.03-17.6-.06-23.75-.09-2.98-.04-5.42-.07-7.2-.09-.8-.02-1.44-.04-1.96-.06-.45-.02-.68-.04-.68-.06s.23-.04.68-.06c.51-.01,1.16-.03,1.96-.06,1.78-.02,4.22-.06,7.2-.09,6.15-.02,14.51-.05,23.75-.09,9.24.03,17.6.06,23.75.09,2.98.04,5.42.07,7.2.09.8.02,1.45.04,1.96.06.45.02.68.04.68.06Z"/>
        </g>
      </g>
      <g>
        <g>
          <path class="cls-2" d="m40.63,15.94c1.31-1.76,2.83-3.32,4.52-4.64l-1.1-5.9,9.12-3.93,3.54,4.85c2.12-.32,4.3-.35,6.48-.09l3.4-4.95,9.23,3.67-.93,5.93c1.76,1.31,3.32,2.83,4.64,4.52l5.9-1.1,3.93,9.12-4.85,3.54c.32,2.12.35,4.3.09,6.47l4.95,3.4-3.67,9.23-5.93-.93c-1.31,1.76-2.83,3.32-4.52,4.64l1.1,5.9-9.12,3.93-3.54-4.85c-2.12.32-4.3.35-6.47.09l-3.4,4.95-9.23-3.67.93-5.93c-1.76-1.31-3.32-2.83-4.64-4.52l-5.9,1.1-3.93-9.12,4.85-3.54c-.32-2.12-.35-4.3-.09-6.47l-4.95-3.4,3.67-9.23,5.93.93h0Zm9.92,10.23c-2.18,5.47.49,11.67,5.96,13.84,5.47,2.18,11.66-.49,13.84-5.96,2.18-5.47-.49-11.67-5.96-13.84-5.47-2.17-11.66.49-13.84,5.96Z"/>
          <path class="cls-5" d="m50.54,26.17s.05-.23.22-.65c.16-.42.46-1.02.94-1.72.94-1.4,2.81-3.3,5.81-4.18,1.48-.42,3.22-.6,5.02-.24,1.78.36,3.65,1.15,5.19,2.54,1.55,1.35,2.79,3.25,3.34,5.43.6,2.17.46,4.61-.41,6.83-.9,2.21-2.47,4.08-4.4,5.25-1.9,1.2-4.11,1.73-6.16,1.65-2.07-.04-3.97-.75-5.51-1.72-1.55-.98-2.7-2.3-3.48-3.63-1.58-2.7-1.63-5.37-1.36-7.03.13-.85.33-1.49.5-1.9.17-.42.26-.63.28-.62.08.03-.32.89-.52,2.56-.19,1.63-.05,4.19,1.51,6.74.78,1.25,1.89,2.49,3.37,3.4,1.48.89,3.28,1.54,5.23,1.57,1.93.06,4.01-.45,5.79-1.59,1.8-1.1,3.27-2.86,4.11-4.93.81-2.09.95-4.37.39-6.41-.51-2.05-1.67-3.84-3.11-5.13-1.43-1.32-3.19-2.09-4.88-2.45-1.7-.36-3.36-.22-4.78.15-2.89.78-4.75,2.55-5.73,3.86-1,1.35-1.31,2.25-1.38,2.22Z"/>
          <path class="cls-5" d="m40.63,15.94s-.12,0-.37-.03c-.28-.04-.65-.09-1.13-.15-1.04-.15-2.52-.36-4.45-.64l.12-.07c-.93,2.37-2.14,5.49-3.61,9.25l-.06-.21c1.5,1.02,3.18,2.16,4.96,3.37l.1.07v.12c-.24,2-.24,4.17.1,6.42l.02.13-.11.08c-1.51,1.11-3.14,2.31-4.84,3.55l.08-.29c1.25,2.87,2.57,5.91,3.95,9.11l-.3-.16c1.83-.34,3.84-.72,5.9-1.11l.17-.03.11.14c1.23,1.56,2.79,3.12,4.6,4.45l.14.11-.03.18c-.29,1.84-.6,3.87-.92,5.93l-.19-.33c2.9,1.15,6.03,2.39,9.23,3.66l-.38.12c1.06-1.54,2.22-3.24,3.39-4.95l.11-.16.2.02c1.99.24,4.2.23,6.39-.1l.2-.03.12.16c1.11,1.52,2.32,3.18,3.54,4.85l-.4-.11c2.89-1.25,5.98-2.58,9.12-3.93l-.2.38c-.35-1.86-.72-3.88-1.1-5.9l-.04-.2.16-.13c1.6-1.25,3.14-2.81,4.45-4.57h0c.66-.27.18-.08.33-.14h0s0,0,0,0h.01s.02,0,.02,0h.05s.09.02.09.02l.19.03.37.06.75.12,1.49.23c.99.16,1.97.31,2.96.46l-.37.21c1.24-3.12,2.47-6.2,3.67-9.23l.12.41c-1.67-1.14-3.31-2.28-4.95-3.4l-.17-.12.02-.2c.26-2.15.22-4.3-.09-6.39l-.03-.2.16-.12c1.64-1.19,3.26-2.37,4.86-3.53l-.11.39c-1.34-3.12-2.65-6.16-3.92-9.13l.35.19c-2,.37-3.97.73-5.9,1.09l-.18.03-.11-.15c-1.35-1.72-2.9-3.22-4.58-4.47l-.14-.11.03-.18c.32-2.03.64-4,.94-5.93l.18.31c-3.24-1.3-6.31-2.53-9.22-3.69l.31-.1c-1.2,1.74-2.32,3.37-3.41,4.94l-.09.12-.15-.02c-2.27-.28-4.41-.22-6.41.07l-.14.02-.08-.11c-1.28-1.77-2.43-3.36-3.52-4.87l.24.07c-3.54,1.5-6.56,2.79-9.14,3.88l.09-.17c.42,2.36.77,4.3,1.06,5.91v.07s-.04.04-.04.04c-1.72,1.34-2.83,2.53-3.54,3.33-.33.39-.59.69-.78.92-.17.21-.26.31-.26.3s.07-.12.22-.34c.16-.22.39-.54.74-.96.69-.83,1.78-2.06,3.49-3.43l-.04.11c-.31-1.61-.69-3.54-1.14-5.89l-.02-.12.11-.05c2.57-1.12,5.58-2.44,9.1-3.98l.15-.06.1.13c1.1,1.5,2.26,3.08,3.55,4.84l-.22-.09c2.03-.31,4.22-.38,6.54-.11l-.23.1c1.08-1.58,2.19-3.21,3.38-4.96l.12-.17.2.08c2.92,1.15,5.99,2.37,9.24,3.65l.21.08-.04.23c-.3,1.93-.6,3.9-.92,5.93l-.12-.28c1.72,1.27,3.32,2.8,4.71,4.56l-.3-.11c1.93-.36,3.9-.73,5.9-1.11l.25-.05.1.23c1.28,2.96,2.6,6.01,3.94,9.12l.1.24-.21.15c-1.59,1.16-3.21,2.34-4.85,3.54l.13-.32c.32,2.14.36,4.36.1,6.56l-.14-.32c1.63,1.12,3.28,2.25,4.95,3.39l.22.15-.1.25c-1.21,3.03-2.43,6.11-3.67,9.23l-.1.25-.27-.04c-.98-.15-1.97-.31-2.96-.46l-1.49-.23-.75-.12-.37-.06-.19-.03h-.09s-.05-.02-.05-.02h-.02s-.01,0-.01,0h0s0,0,0,0c.15-.06-.33.13.33-.13h0c-1.34,1.82-2.93,3.42-4.58,4.71l.12-.33c.38,2.03.75,4.04,1.1,5.9l.05.27-.25.11c-3.14,1.35-6.24,2.68-9.12,3.93l-.25.11-.16-.22c-1.22-1.68-2.43-3.33-3.53-4.86l.32.13c-2.25.34-4.52.34-6.56.09l.31-.14c-1.18,1.71-2.34,3.4-3.4,4.95l-.14.21-.24-.09c-3.2-1.28-6.33-2.53-9.22-3.68l-.23-.09.04-.24c.33-2.06.65-4.09.94-5.93l.12.28c-1.84-1.37-3.44-2.97-4.69-4.58l.27.1c-2.06.38-4.08.75-5.9,1.09l-.21.04-.08-.2c-1.37-3.2-2.68-6.26-3.91-9.13l-.08-.18.16-.11c1.71-1.24,3.35-2.42,4.86-3.52l-.09.22c-.33-2.29-.32-4.5-.07-6.53l.09.19c-1.78-1.23-3.44-2.38-4.93-3.42l-.12-.08.05-.13c1.52-3.75,2.77-6.85,3.73-9.21l.03-.08h.09c1.9.34,3.36.59,4.39.76.48.09.85.15,1.13.21.26.05.39.08.39.09Z"/>
        </g>
        <path class="cls-5" d="m50.54,26.17s.16-.42.59-1.18c.43-.75,1.13-1.87,2.41-2.95,1.26-1.08,3.13-2.12,5.5-2.44,2.35-.35,5.23.19,7.69,1.97,2.45,1.76,4.32,4.92,4.33,8.53.06,3.56-1.94,7.45-5.53,9.39-1.77.97-3.87,1.46-5.98,1.29-2.12-.16-4.2-.98-5.94-2.36-1.71-1.39-3.01-3.34-3.62-5.54-.31-1.1-.44-2.25-.4-3.4.02-.58.1-1.15.21-1.72.05-.28.12-.57.19-.85l.12-.42.06-.2.02-.09v-.02s0,.03,0,.04c-.02-.08,0,.22.23.29l.4-.15c-.19.36-.36.84-.49,1.31-.61,2.16-.42,4.47.4,6.49.81,2.02,2.26,3.76,4.03,4.88,1.8,1.13,3.86,1.73,5.9,1.68,2.03-.04,4.01-.66,5.63-1.74,1.63-1.05,2.9-2.56,3.72-4.21.81-1.65,1.15-3.48,1.07-5.2-.16-3.49-2.07-6.5-4.49-8.19-2.44-1.7-5.27-2.21-7.6-1.85-2.35.33-4.21,1.37-5.47,2.44-1.28,1.08-1.99,2.21-2.42,2.98-.21.39-.35.7-.44.91-.09.21-.13.32-.14.32-.01,0,0-.12.07-.34.07-.22.19-.54.38-.95.39-.8,1.08-1.98,2.37-3.12,1.27-1.14,3.16-2.24,5.59-2.62,2.41-.4,5.36.09,7.93,1.84,2.55,1.73,4.58,4.88,4.78,8.55.09,1.82-.24,3.74-1.1,5.5-.85,1.74-2.18,3.35-3.91,4.47-1.71,1.15-3.8,1.81-5.96,1.86-2.16.06-4.37-.58-6.27-1.77-1.91-1.21-3.43-3.04-4.31-5.2-.88-2.14-1.08-4.62-.43-6.93.15-.52.3-1,.56-1.48l.13-.25.27.09c.24.08.27.4.24.34,0,.03,0,.07,0,.09l-.02.08-.03.11-.06.21-.11.4c-.07.27-.13.53-.18.8-.1.54-.18,1.08-.2,1.62-.04,1.08.08,2.16.37,3.19.57,2.06,1.79,3.9,3.39,5.2,1.6,1.28,3.59,2.08,5.56,2.23,1.98.17,3.97-.29,5.63-1.19,3.39-1.81,5.3-5.46,5.27-8.84.02-3.41-1.73-6.44-4.05-8.14-2.33-1.73-5.09-2.28-7.36-1.98-2.3.28-4.13,1.25-5.38,2.27-1.28,1.02-2,2.09-2.47,2.82-.46.73-.65,1.16-.71,1.11Z"/>
        <path class="cls-5" d="m40.63,15.94c-.5-.08-2.2-.35-6-.96l.08-.05c-.95,2.38-2.21,5.54-3.76,9.41l-.04-.15c1.52,1.05,3.22,2.21,5.05,3.47l-.21.18s-.05-.11-.08-.17l.27-.04c-.24,2.02-.25,4.21.09,6.48l-.31-.04c.02-.06.05-.12.08-.19l.25.19c-1.54,1.12-3.23,2.35-4.99,3.64l.06-.21c1.28,2.96,2.64,6.12,4.07,9.46l-.22-.12c1.86-.35,3.94-.73,6.09-1.13l-.04.41c-.07-.03-.16-.06-.24-.09l.24-.33c1.22,1.56,2.81,3.16,4.65,4.52l-.34.26c-.03-.07-.07-.16-.1-.25l.43-.05c-.29,1.87-.63,3.98-.96,6.14l-.14-.25c2.97,1.18,6.26,2.49,9.64,3.83l-.3.09c1.07-1.56,2.29-3.33,3.52-5.14l.32.38c-.08.04-.18.08-.27.12l-.07-.49c1.96.24,4.23.24,6.48-.1l-.06.51c-.08-.04-.18-.08-.28-.12l.32-.4c1.12,1.54,2.39,3.28,3.68,5.04l-.33-.09c2.94-1.27,6.22-2.68,9.56-4.13l-.17.31c-.35-1.87-.75-3.99-1.15-6.14l.56.05c-.03.09-.07.19-.11.3l-.45-.33c1.56-1.23,3.16-2.81,4.52-4.66l.34.46c-.09.04-.19.08-.29.12l-.07-.57c1.89.29,4.02.63,6.17.96l-.33.19c1.19-2.99,2.5-6.31,3.84-9.68l.11.37c-1.58-1.08-3.36-2.3-5.15-3.53l.46-.39c.04.09.08.18.13.28l-.6.09c.24-1.98.24-4.24-.1-6.47l.61.08c-.04.09-.08.18-.12.28l-.48-.38c1.55-1.13,3.29-2.4,5.04-3.68l-.11.39c-1.28-2.96-2.7-6.23-4.13-9.54l.36.19c-1.9.36-4,.75-6.12,1.15l.06-.63c.08.03.17.07.26.1l-.37.51c-1.24-1.58-2.83-3.17-4.64-4.5l.5-.39c.03.08.07.17.1.25l-.64.07c.3-1.91.62-4.01.95-6.13l.21.36c-3-1.19-6.29-2.49-9.6-3.79l.4-.12c-1.09,1.6-2.29,3.35-3.49,5.11l-.42-.5c.06-.03.14-.06.21-.09l.1.65c-2.01-.24-4.24-.22-6.44.11l.08-.65c.06.02.13.05.19.08l-.41.52c-1.14-1.55-2.39-3.25-3.64-4.96l.41.11c-2.95,1.28-6.13,2.67-9.34,4.07l.2-.38c.37,1.89.76,3.94,1.16,6l-.66-.06.04-.09.54.39c-1.37,1.1-2.75,2.44-3.89,3.96l-.28.36s-.03.01-.07,0c-.02,0-.05,0-.08,0h-.02s-.01,0-.01,0h0c.1.02-.31-.36-.45-.2-.02,0-.05.02-.07.04l-.02.02s0,0,.02-.02l.59-.71c.4-.48.82-.95,1.25-1.4.87-.9,1.8-1.73,2.78-2.49l-.13.33c-.36-2.01-.72-4-1.07-5.97l.64.1-.08.15-.44-.48c3.07-1.31,6.12-2.6,9.14-3.89l.04.64-.22-.06.37-.53c1.2,1.66,2.4,3.32,3.59,4.96l-.32-.14c2.25-.34,4.54-.36,6.76-.08l-.32.14c1.17-1.69,2.33-3.38,3.48-5.05l.38.51-.28.08.03-.64c3.11,1.24,6.18,2.47,9.22,3.69l-.41.48-.16-.28.62-.11c-.33,2.04-.65,4.07-.97,6.08l-.13-.32c1.85,1.36,3.5,2.98,4.88,4.76l-.32-.12c2.05-.38,4.06-.75,6.07-1.12l-.09.61-.31-.17.45-.42c1.32,3.08,2.63,6.13,3.92,9.13l-.6.04c.03-.12.06-.23.1-.35l.5.34c-1.7,1.24-3.36,2.44-5,3.63l.13-.3c.36,2.31.37,4.61.09,6.84l-.13-.3c1.74,1.2,3.43,2.36,5.09,3.5l-.47.34c-.04-.12-.07-.24-.11-.36l.58.02c-1.26,3.15-2.48,6.22-3.68,9.23l-.43-.37c.11-.07.22-.13.33-.19l.1.56c-2.11-.33-4.12-.65-6.11-.97l.28-.11c-1.4,1.91-3.02,3.54-4.77,4.9l.11-.28c.39,2.12.76,4.12,1.13,6.09l-.53-.08c.06-.12.12-.23.18-.33l.36.39c-3.18,1.37-6.19,2.66-9.13,3.92l-.04-.51c.13.04.24.07.36.1l-.29.42c-1.29-1.77-2.47-3.4-3.64-5l.25.11c-2.4.37-4.66.37-6.82.1l.24-.11c-1.25,1.83-2.39,3.48-3.5,5.09l-.28-.38c.12-.04.23-.07.34-.1l-.02.47c-3.32-1.32-6.33-2.52-9.23-3.67l.29-.33c.06.11.11.2.17.3l-.43.08c.35-2.24.66-4.19.96-6.09l.09.21c-2.03-1.49-3.56-3.07-4.86-4.72l.2.08c-2.28.42-4.2.78-6.05,1.13l.06-.37c.1.05.18.1.26.14l-.27.25c-1.49-3.46-2.75-6.38-3.93-9.12l.33-.02c-.03.1-.05.18-.07.26l-.27-.19c1.95-1.42,3.49-2.54,4.95-3.61l-.06.15c-.4-2.68-.33-4.78-.1-6.69l.06.13c-2.11-1.44-3.63-2.49-5.04-3.45l.19-.14c.02.08.04.13.06.18h-.23c1.59-4.03,2.77-6.98,3.66-9.24l.11.09c-.05.03-.08.05-.11.06l-.03-.14c3.83.59,5.45.83,5.93.91,0,.03-.49-.03-1.48-.15-1-.14-2.49-.34-4.48-.61l-.22-.03.19-.11s.05-.03.11-.06l.18-.11-.08.2c-.87,2.27-2.02,5.23-3.57,9.27l-.13.33-.1-.34c-.02-.05-.03-.1-.06-.18l-.1-.33.29.19c1.42.96,2.95,1.99,5.06,3.42l.07.05v.09c-.22,1.9-.28,3.96.13,6.61v.1s-.06.06-.06.06c-1.46,1.07-2.99,2.2-4.93,3.63l-.41.3.13-.49c.02-.08.04-.16.07-.26l.13-.48.2.46c1.19,2.73,2.47,5.66,3.97,9.1l.23.52-.5-.27c-.08-.04-.16-.09-.26-.14l-.5-.26.56-.11c1.86-.35,3.77-.72,6.05-1.15l.13-.02.08.1c1.28,1.62,2.79,3.16,4.79,4.63l.11.08-.02.13c-.29,1.9-.59,3.85-.94,6.09l-.1.66-.33-.58c-.05-.09-.11-.19-.17-.29l-.33-.58.62.24c2.91,1.15,5.92,2.34,9.24,3.65l.66.26-.68.21c-.11.03-.22.07-.34.1l-.68.21.4-.59c1.11-1.62,2.23-3.27,3.48-5.1l.09-.13.15.02c2.12.26,4.32.26,6.68-.11l.16-.02.1.13c1.17,1.6,2.36,3.23,3.65,4.99l.46.63-.75-.2c-.12-.03-.23-.06-.36-.1l-.75-.2.71-.31c2.93-1.27,5.94-2.57,9.12-3.94l.74-.32-.38.71c-.06.11-.12.22-.18.33l-.38.71-.15-.8c-.37-1.97-.74-3.96-1.14-6.08l-.03-.17.14-.11c1.72-1.34,3.28-2.91,4.66-4.8l.1-.14.18.03c1.99.31,4,.63,6.11.95l.85.13-.75.43c-.11.06-.22.12-.33.19l-.75.43.32-.8c1.2-3.01,2.41-6.08,3.67-9.23l.33-.82.26.84c.04.12.07.24.11.36l.26.84-.73-.5c-1.67-1.15-3.36-2.3-5.1-3.5l-.16-.11.02-.19c.27-2.18.25-4.41-.1-6.67l-.03-.19.16-.11c1.64-1.2,3.3-2.4,5-3.64l.74-.54-.24.88c-.03.12-.06.23-.1.35l-.24.89-.36-.84c-1.29-3-2.6-6.04-3.93-9.12l-.37-.85.82.44.31.16.82.44-.92.17c-2,.37-4.02.74-6.07,1.12l-.2.04-.12-.16c-1.35-1.74-2.94-3.31-4.75-4.64l-.16-.12.03-.2c.32-2.01.64-4.04.96-6.08l.15-.94.47.83.16.28.47.83-.89-.36c-3.04-1.22-6.12-2.45-9.22-3.69l-.89-.36.92-.28.28-.09.92-.28-.55.8c-1.15,1.67-2.31,3.36-3.48,5.05l-.12.17-.2-.03c-2.17-.27-4.39-.25-6.58.08l-.2.03-.12-.17c-1.19-1.65-2.39-3.3-3.59-4.96l-.57-.78.93.26.22.06.95.26-.9.38c-3.02,1.29-6.07,2.58-9.14,3.89l-.89.38.46-.86.08-.15.46-.87.17.97c.35,1.97.71,3.95,1.07,5.97l.04.2-.16.13c-.95.74-1.86,1.54-2.7,2.42-.42.44-.83.89-1.22,1.37l-.6.72-.06.07-.04.03s-.05.03-.08.04c-.14.16-.55-.21-.45-.2h0s0-.02,0-.02v-.05c.02-.06.04-.13.06-.2.04-.14.11-.27.19-.38l.29-.38c1.18-1.58,2.6-2.95,4.01-4.08l.97-.78-.44,1.17-.04.09-.43,1.14-.23-1.19c-.4-2.06-.79-4.11-1.16-6l-.05-.27.25-.11c3.21-1.4,6.39-2.79,9.34-4.07l.25-.11.16.22c1.25,1.7,2.5,3.4,3.64,4.96l.73.99-1.13-.47c-.07-.03-.13-.06-.19-.08l-1.12-.47,1.2-.18c2.26-.35,4.56-.36,6.62-.11l1.21.14-1.11.5c-.07.03-.14.06-.21.09l-1.1.5.68-1c1.2-1.76,2.4-3.51,3.49-5.11l.15-.22.25.1c3.31,1.31,6.6,2.61,9.6,3.8l.25.1-.04.26c-.33,2.12-.66,4.22-.95,6.13l-.18,1.18-.45-1.11c-.04-.09-.07-.17-.1-.25l-.45-1.09.95.7c1.85,1.37,3.49,3,4.76,4.62l.73.93-1.1-.42c-.09-.03-.18-.07-.26-.1l-1.1-.42,1.16-.22c2.12-.4,4.23-.79,6.12-1.14l.26-.05.1.24c1.43,3.31,2.84,6.58,4.12,9.54l.1.24-.21.15c-1.75,1.28-3.49,2.54-5.04,3.67l-.92.67.44-1.05c.04-.1.08-.2.12-.28l.44-1.04.17,1.12c.34,2.29.34,4.6.1,6.64l-.14,1.11-.46-1.02c-.04-.1-.09-.2-.13-.28l-.46-1.02.92.63c1.79,1.23,3.57,2.45,5.15,3.53l.2.14-.09.23c-1.34,3.37-2.66,6.69-3.86,9.68l-.09.22-.24-.04c-2.15-.34-4.28-.68-6.17-.97l-1.05-.17.98-.4c.1-.04.2-.08.29-.12l.98-.4-.63.86c-1.37,1.85-3.02,3.49-4.63,4.74l-.81.64.37-.97c.04-.1.08-.21.11-.3l.37-.97.19,1.02c.4,2.15.79,4.27,1.14,6.14l.04.22-.21.09c-3.35,1.44-6.63,2.84-9.57,4.11l-.2.09-.13-.18c-1.28-1.77-2.55-3.51-3.67-5.05l-.56-.77.88.37c.1.04.2.08.28.12l.87.37-.94.14c-2.31.34-4.62.33-6.62.08l-.91-.11.83-.38c.1-.04.19-.09.27-.12l.84-.38-.52.76c-1.24,1.8-2.46,3.57-3.54,5.13l-.11.16-.18-.07c-3.38-1.36-6.66-2.67-9.63-3.86l-.17-.07.03-.18c.35-2.16.68-4.27.98-6.14l.13-.79.3.74c.04.09.07.18.1.25l.3.74-.64-.48c-1.87-1.39-3.48-3.03-4.72-4.62l-.46-.59.7.27c.09.03.17.07.24.09l.71.27-.75.14c-2.15.39-4.24.77-6.1,1.11l-.16.03-.06-.15c-1.42-3.34-2.77-6.51-4.03-9.48l-.06-.13.12-.08c1.77-1.28,3.47-2.5,5.01-3.61l.47-.34-.23.53c-.03.07-.06.14-.08.19l-.23.54-.08-.58c-.33-2.31-.31-4.53-.06-6.57l.06-.51.21.47c.03.06.05.12.08.17l.21.47-.43-.3c-1.82-1.27-3.51-2.45-5.03-3.5l-.08-.06.04-.09c1.58-3.86,2.87-7,3.84-9.38l.02-.06h.06c1.97.36,3.46.62,4.48.81.49.1.86.17,1.13.22.26.06.37.1.37.1Z"/>
      </g>
      <g>
        <path class="cls-14" d="m91.29,72.39c.92-1.25,2-2.35,3.19-3.28l-.78-4.17,6.45-2.78,2.5,3.43c1.5-.22,3.04-.25,4.58-.07l2.4-3.5,6.53,2.6-.66,4.19c1.25.92,2.35,2,3.28,3.19l4.17-.78,2.78,6.45-3.43,2.5c.22,1.5.25,3.04.07,4.58l3.5,2.4-2.6,6.53-4.19-.66c-.92,1.25-2,2.35-3.19,3.28l.78,4.17-6.45,2.78-2.5-3.43c-1.5.22-3.04.25-4.58.07l-2.4,3.5-6.53-2.6.66-4.19c-1.25-.92-2.35-2-3.28-3.19l-4.17.78-2.78-6.45,3.43-2.5c-.22-1.5-.25-3.04-.07-4.58l-3.5-2.4,2.6-6.53,4.19.66h0Zm7.02,7.24c-1.54,3.87.35,8.25,4.22,9.79,3.87,1.54,8.25-.35,9.79-4.22,1.54-3.87-.35-8.25-4.22-9.79-3.87-1.54-8.25.35-9.79,4.22Z"/>
        <path class="cls-14" d="m98.3,79.63s.15-.66.83-1.67c.67-.99,1.99-2.32,4.11-2.94,1.05-.3,2.27-.42,3.54-.17,1.26.25,2.57.81,3.66,1.79.55.47,1.04,1.05,1.44,1.7.41.64.73,1.36.92,2.13.42,1.53.32,3.25-.29,4.81-.63,1.56-1.74,2.87-3.1,3.7-.67.43-1.39.73-2.13.92-.73.2-1.48.28-2.21.25-1.46-.03-2.8-.53-3.89-1.21-1.09-.69-1.9-1.62-2.46-2.56-1.11-1.91-1.16-3.78-.96-4.96.2-1.2.54-1.79.54-1.79.05.02-.23.63-.38,1.81-.14,1.16-.04,2.97,1.06,4.78.55.89,1.34,1.77,2.39,2.41,1.05.63,2.33,1.1,3.71,1.11.69.03,1.4-.06,2.09-.25.7-.18,1.38-.47,2.01-.88,1.28-.78,2.32-2.03,2.92-3.5.57-1.48.67-3.1.28-4.55-.18-.73-.48-1.41-.86-2.02-.38-.61-.83-1.17-1.35-1.62-1.02-.94-2.26-1.48-3.46-1.74-1.21-.25-2.38-.15-3.39.11-2.05.56-3.36,1.81-4.05,2.75-.7.96-.92,1.6-.97,1.57Z"/>
        <path class="cls-14" d="m91.29,72.39s-.09,0-.26-.03c-.2-.03-.46-.06-.8-.11-.73-.11-1.78-.26-3.14-.46l.07-.04c-.66,1.68-1.52,3.88-2.56,6.54l-.04-.13c1.06.72,2.25,1.53,3.51,2.39l.06.04v.08c-.17,1.42-.17,2.95.07,4.54v.08s-.06.05-.06.05c-1.07.78-2.22,1.63-3.43,2.51l.05-.19c.88,2.03,1.81,4.18,2.79,6.45l-.19-.1c1.29-.24,2.71-.51,4.17-.79l.11-.02.07.09c.87,1.11,1.98,2.21,3.25,3.15l.09.07-.02.11c-.2,1.3-.43,2.73-.65,4.19l-.12-.21c2.05.81,4.26,1.69,6.53,2.59l-.24.07c.75-1.09,1.57-2.29,2.4-3.5l.07-.1h.12c1.41.18,2.97.18,4.52-.05l.12-.02.07.1c.78,1.07,1.64,2.25,2.5,3.43l-.25-.07c2.04-.88,4.23-1.83,6.45-2.78l-.13.24c-.25-1.32-.51-2.74-.78-4.17l-.02-.13.1-.08c1.13-.89,2.23-1.99,3.15-3.24h0s.08-.11.08-.11l.13.02c1.41.22,2.81.44,4.19.66l-.23.13c.88-2.21,1.74-4.38,2.6-6.53l.08.26c-1.18-.81-2.34-1.61-3.5-2.4l-.11-.07.02-.13c.18-1.52.16-3.05-.06-4.52l-.02-.13.1-.07c1.16-.84,2.3-1.68,3.43-2.5l-.07.25c-.95-2.2-1.87-4.36-2.77-6.45l.22.12c-1.42.26-2.81.52-4.18.77l-.12.02-.07-.09c-.95-1.22-2.05-2.28-3.24-3.16l-.09-.07.02-.11c.23-1.44.45-2.83.67-4.19l.11.19c-2.29-.92-4.46-1.78-6.52-2.61l.2-.06c-.85,1.23-1.64,2.38-2.41,3.49l-.05.08h-.09c-1.61-.21-3.12-.16-4.54.04h-.09s-.05-.06-.05-.06c-.9-1.25-1.72-2.38-2.49-3.44l.15.04c-2.5,1.07-4.64,1.97-6.46,2.75l.06-.11c.3,1.67.55,3.04.75,4.18v.04s-.03.03-.03.03c-1.22.95-2,1.79-2.5,2.36-.24.28-.42.49-.55.65-.12.15-.18.22-.18.21,0,0,.05-.09.16-.24.11-.15.28-.38.52-.68.49-.59,1.26-1.45,2.47-2.43l-.03.07c-.22-1.14-.48-2.5-.8-4.17v-.08s.06-.03.06-.03c1.82-.79,3.95-1.72,6.44-2.81l.09-.04.06.08c.78,1.06,1.6,2.18,2.51,3.42l-.14-.06c1.44-.22,2.98-.27,4.62-.08l-.15.07c.76-1.12,1.55-2.27,2.39-3.51l.07-.11.12.05c2.07.82,4.23,1.67,6.53,2.58l.13.05-.02.14c-.21,1.36-.43,2.76-.65,4.19l-.07-.18c1.22.9,2.34,1.98,3.32,3.22l-.19-.07c1.37-.26,2.76-.52,4.17-.78l.16-.03.06.15c.91,2.1,1.83,4.25,2.79,6.45l.07.15-.13.1c-1.13.82-2.27,1.66-3.43,2.5l.08-.2c.23,1.51.26,3.08.07,4.64l-.09-.2c1.16.79,2.32,1.59,3.5,2.4l.14.1-.06.16c-.85,2.15-1.72,4.32-2.59,6.53l-.06.16-.17-.03c-1.39-.22-2.79-.44-4.19-.66l.21-.08h0c-.95,1.28-2.07,2.41-3.23,3.32l.08-.21c.27,1.43.53,2.86.78,4.17l.03.17-.16.07c-2.22.96-4.41,1.9-6.45,2.78l-.16.07-.1-.14c-.86-1.18-1.72-2.36-2.5-3.43l.2.08c-1.59.24-3.19.24-4.63.06l.19-.09c-.83,1.21-1.66,2.41-2.4,3.5l-.09.13-.15-.06c-2.27-.9-4.48-1.79-6.52-2.6l-.14-.06.02-.15c.23-1.46.46-2.89.66-4.19l.07.18c-1.3-.97-2.43-2.1-3.31-3.23l.17.07c-1.46.27-2.88.53-4.18.77l-.13.02-.05-.12c-.97-2.27-1.89-4.42-2.76-6.46l-.05-.11.1-.07c1.21-.87,2.37-1.71,3.44-2.49l-.06.14c-.24-1.62-.23-3.18-.05-4.61l.05.12c-1.26-.87-2.43-1.68-3.49-2.42l-.07-.05.03-.08c1.07-2.65,1.96-4.85,2.63-6.51l.02-.05h.05c1.35.24,2.38.41,3.1.53.34.06.61.11.8.14.18.03.27.05.28.06Z"/>
      </g>
      <g>
        <g>
          <circle class="cls-1" cx="388.97" cy="104.39" r="53.24" transform="translate(198.12 459.04) rotate(-76.74)"/>
          <path class="cls-12" d="m413.14,106.03s-.67.09-1.88.12c-1.33.03-3.07.06-5.17.1-4.39.06-10.51.1-17.41.11h-.34s0-.34,0-.34c0-1.1,0-2.27,0-3.45,0-7.71.04-14.69.1-19.75.04-2.44.08-4.45.11-5.98.04-1.41.09-2.19.13-2.19s.09.78.13,2.19c.03,1.53.06,3.55.11,5.98.06,5.05.1,12.03.1,19.75,0,1.18,0,2.35,0,3.45l-.34-.34c6.91.01,13.02.05,17.41.11,2.11.04,3.84.08,5.17.1,1.21.04,1.88.08,1.88.12Z"/>
          <path class="cls-12" d="m388.84,59.9c.19,0,.34,2,.34,4.47s-.15,4.47-.34,4.47-.34-2-.34-4.47.15-4.47.34-4.47Z"/>
          <path class="cls-12" d="m413.1,67.09c.13.13-1.15,1.64-2.87,3.36-1.72,1.72-3.23,3.01-3.36,2.87-.13-.13,1.15-1.64,2.87-3.36,1.72-1.72,3.23-3.01,3.36-2.87Z"/>
          <path class="cls-12" d="m427.28,82.58c.09.17-1.6,1.19-3.67,2.45-2.07,1.26-3.75,2.29-3.86,2.13-.11-.15,1.41-1.45,3.51-2.72,2.09-1.28,3.94-2.03,4.03-1.86Z"/>
          <path class="cls-12" d="m435.59,105.57c0,.19-2.73.34-6.1.34s-6.1-.15-6.1-.34,2.73-.34,6.1-.34,6.1.15,6.1.34Z"/>
          <path class="cls-12" d="m351.03,104.76c0,.19-2.58.34-5.76.34s-5.76-.15-5.76-.34,2.58-.34,5.76-.34,5.76.15,5.76.34Z"/>
          <path class="cls-12" d="m357.01,121.87c.12.14-1.82,1.91-4.35,3.95-2.53,2.04-4.67,3.56-4.78,3.41-.11-.15,1.83-1.92,4.35-3.95,2.52-2.03,4.66-3.55,4.78-3.41Z"/>
          <path class="cls-12" d="m371.77,135.11c.16.12-1.29,2.34-2.96,5.13-1.68,2.79-2.97,5.11-3.14,5.03-.17-.08.85-2.56,2.55-5.38,1.69-2.83,3.41-4.89,3.55-4.78Z"/>
          <path class="cls-12" d="m388.84,152.19c-.19,0-.34-2.73-.34-6.1s.15-6.1.34-6.1.34,2.73.34,6.1-.15,6.1-.34,6.1Z"/>
          <path class="cls-12" d="m415.12,144.06c-.1.15-2.48-1.22-5.03-3.44-2.55-2.22-4.24-4.39-4.1-4.51.15-.13,2.04,1.81,4.55,3.99,2.5,2.19,4.69,3.8,4.57,3.96Z"/>
          <path class="cls-12" d="m427.46,130.78c-.13.13-1.94-1.46-4.04-3.55-2.1-2.1-3.69-3.9-3.55-4.04s1.94,1.46,4.04,3.55c2.1,2.1,3.69,3.9,3.55,4.04Z"/>
          <path class="cls-12" d="m356.45,88.36c-.13.13-1.73-1.24-3.56-3.08-1.83-1.83-3.21-3.43-3.08-3.56s1.73,1.24,3.56,3.08c1.83,1.83,3.21,3.43,3.08,3.56Z"/>
          <path class="cls-12" d="m371.68,72.32c-.13.13-1.7-1.21-3.5-3-1.8-1.79-3.15-3.35-3.02-3.49.13-.13,1.7,1.21,3.5,3,1.8,1.79,3.15,3.35,3.02,3.49Z"/>
        </g>
        <g class="cls-15">
          <path class="cls-5" d="m134.82,138.19s.28-.02.8-.03c.55,0,1.31-.02,2.29-.04,2.03-.02,4.94-.06,8.64-.1,7.44-.06,18.04-.16,30.81-.27l-.27.27c-.08-15.34-.17-33.82-.27-53.7-.07-.08.62.61.32.32h-.03s-.04,0-.04,0h-.09s-.18,0-.18,0h-.36s-.72,0-.72,0h-1.43c-.95,0-1.9.01-2.85.02-1.89,0-3.77.01-5.63.02-3.72.01-7.37.03-10.93.04-7.13.02-13.93.04-20.27.06l.29-.29c0,15.89,0,29.27.01,38.72-.01,4.7-.02,8.43-.03,11.01,0,1.26-.02,2.23-.02,2.93,0,.31-.01.56-.01.76,0,.17-.01.26-.02.27,0,0-.01-.07-.02-.24,0-.19-.01-.43-.02-.73-.01-.69-.03-1.64-.05-2.88-.03-2.57-.07-6.27-.12-10.95-.07-9.49-.18-22.94-.3-38.91v-.29s.29,0,.29,0c6.34-.03,13.14-.07,20.27-.11,3.57-.02,7.22-.03,10.93-.05,1.86,0,3.73-.02,5.63-.02.95,0,1.89,0,2.85-.01h1.43s.72,0,.72,0h.36s.18,0,.18,0h.09s.04,0,.04,0h.03c-.29-.29.41.39.33.33.06,19.88.12,38.35.16,53.7v.27s-.27,0-.27,0c-12.84,0-23.49-.01-30.98-.01-3.67-.01-6.57-.03-8.58-.03-.95,0-1.7-.02-2.24-.02-.5,0-.75-.03-.75-.03Z"/>
          <rect class="cls-11" x="153.41" y="136.9" width="5.9" height="1.43" transform="translate(-.56 .64) rotate(-.23)"/>
          <rect class="cls-5" x="149.81" y="103.19" width="12.9" height="18.63" transform="translate(-.46 .64) rotate(-.23)"/>
          <rect class="cls-11" x="154.02" y="83.67" width="5.9" height="1.23" transform="translate(-.34 .64) rotate(-.23)"/>
        </g>
        <g class="cls-15">
          <path class="cls-5" d="m20.73,446.76s.62-.05,1.76-.07c1.21-.02,2.88-.05,5.02-.09,4.45-.05,10.84-.13,18.96-.23,16.33-.14,39.58-.34,67.61-.58l-.59.59c-.17-33.67-.38-74.21-.6-117.84-.15-.17,1.35,1.34.7.7h-.07s-.1,0-.1,0h-.2s-.39,0-.39,0h-.79s-1.58,0-1.58,0h-3.14c-2.09.02-4.17.03-6.25.04-4.15.02-8.27.03-12.35.05-8.16.03-16.17.06-23.99.08-15.65.04-30.56.09-44.48.13l.64-.64c.01,34.88.02,64.24.03,84.98-.03,10.32-.05,18.5-.07,24.17-.02,2.76-.04,4.9-.05,6.44-.01.69-.02,1.24-.03,1.67-.01.38-.02.58-.03.59-.01.01-.03-.16-.04-.52-.01-.42-.03-.94-.04-1.6-.02-1.51-.06-3.61-.1-6.31-.06-5.64-.15-13.76-.27-24.02-.16-20.83-.39-50.34-.67-85.39v-.64s.64,0,.64,0c13.91-.07,28.83-.15,44.48-.24,7.83-.04,15.84-.07,23.99-.11,4.08-.02,8.2-.04,12.35-.05,2.07,0,4.16-.02,6.25-.03h3.14s1.58-.02,1.58-.02h.79s.39,0,.39,0h.2s.1,0,.1,0h.07c-.63-.64.89.86.73.72.13,43.63.26,84.16.36,117.84v.6s-.59,0-.59,0c-28.18-.01-51.56-.02-67.98-.03-8.06-.03-14.41-.06-18.82-.08-2.09-.02-3.73-.04-4.91-.05-1.1-.02-1.64-.06-1.64-.06Z"/>
          <rect class="cls-11" x="61.51" y="443.92" width="12.95" height="3.14" transform="translate(-1.82 .28) rotate(-.23)"/>
          <rect class="cls-9" x="53.6" y="369.95" width="28.31" height="40.89" transform="translate(-1.6 .28) rotate(-.23)"/>
          <rect class="cls-11" x="62.86" y="327.11" width="12.95" height="2.69" transform="translate(-1.34 .29) rotate(-.23)"/>
        </g>
        <g class="cls-15">
          <polygon class="cls-11" points="264 50.24 205.58 50.24 205.58 126.43 264 127.9 264 50.24"/>
          <polygon class="cls-12" points="259.81 52.95 208.68 52.95 208.68 122.05 259.81 123.78 259.81 52.95"/>
          <polygon class="cls-5" points="251.21 65.51 217.28 64.21 217.28 112.51 251.21 112.51 251.21 65.51"/>
          <polygon class="cls-14" points="217.28 112.51 251.21 87.7 217.28 64.21 217.28 112.51"/>
        </g>
        <g>
          <path class="cls-7" d="m106.65,209.47s-13.68,147.76,14.84,195.26l253.67,3s-42.02-128.09-38.38-202.13l-230.12,3.87Z"/>
          <path class="cls-6" d="m106.65,209.47s-16.08,152.36,34.01,184.92h244.47s-43.39-74.37-46.81-184.92H106.65Z"/>
          <rect class="cls-9" x="105.41" y="173.84" width="237.84" height="38.14"/>
          <g>
            <path class="cls-17" d="m126.66,174.13s2.4-8.61,11.14-8.61c7.44,0,11.14,5.98,11.14,11.46s-3.38,11.28-11.14,11.7"/>
            <rect class="cls-9" x="123.13" y="173.7" width="11.74" height="5.24"/>
          </g>
          <g>
            <path class="cls-17" d="m171.85,174.13s2.4-8.61,11.14-8.61c7.44,0,11.14,5.98,11.14,11.46s-3.38,11.28-11.14,11.7"/>
            <rect class="cls-9" x="168.32" y="173.7" width="11.74" height="5.24"/>
          </g>
          <g>
            <path class="cls-17" d="m217.03,174.13s2.4-8.61,11.14-8.61c7.44,0,11.14,5.98,11.14,11.46s-3.38,11.28-11.14,11.7"/>
            <rect class="cls-9" x="213.5" y="173.7" width="11.74" height="5.24"/>
          </g>
          <g>
            <path class="cls-17" d="m262.22,174.13s2.4-8.61,11.14-8.61c7.44,0,11.14,5.98,11.14,11.46s-3.38,11.28-11.14,11.7"/>
            <rect class="cls-9" x="258.68" y="173.7" width="11.74" height="5.24"/>
          </g>
          <g>
            <path class="cls-17" d="m307.4,174.13s2.4-8.61,11.14-8.61c7.44,0,11.14,5.98,11.14,11.46s-3.38,11.28-11.14,11.7"/>
            <rect class="cls-9" x="303.87" y="173.7" width="11.74" height="5.24"/>
          </g>
          <g>
            <path class="cls-14" d="m105.43,213.39s-2.63,169.8,52.41,169.8l226.08.08s-32.31-32.96-41.89-169.88H105.43Z"/>
            <g>
              <g>
                <path class="cls-7" d="m351.67,362.23c-.05-.15-.3-.83-.83-2.32-.53-1.54-1.36-3.77-2.35-6.76-2.03-5.96-4.85-14.77-8.09-26.14-6.51-22.74-14.36-55.87-20.46-96.72l.15.13c-53.44.01-119.87.02-191.69.04h-1.83l.19-.22c3.45,24.58,7,48.54,12.73,70.99,2.86,11.21,6.28,22.03,10.4,32.25,4.11,10.22,8.93,19.84,14.38,28.67l-.15-.08c111.09.1,186.03.17,187.54.17-1.52,0-76.46.07-187.54.17h-.1s-.05-.08-.05-.08c-5.47-8.85-10.3-18.48-14.42-28.72-4.13-10.24-7.55-21.07-10.42-32.29-5.75-22.47-9.3-46.44-12.75-71.03l-.03-.22h2.05c71.82.01,138.25.03,191.69.04h.13l.02.13c6.07,40.84,13.88,73.97,20.33,96.72,3.22,11.38,6.01,20.2,8.01,26.16,2,5.91,2.99,8.82,3.09,9.11Z"/>
                <path class="cls-7" d="m331.35,296.15c0,.11-43.17.19-96.41.19s-96.42-.09-96.42-.19,43.16-.19,96.42-.19,96.41.09,96.41.19Z"/>
                <path class="cls-7" d="m341.75,331.42c0,.11-43.18.19-96.44.19s-96.45-.09-96.45-.19,43.17-.19,96.45-.19,96.44.09,96.44.19Z"/>
                <path class="cls-7" d="m324.83,262.16c0,.11-43.17.19-96.41.19s-96.42-.09-96.42-.19,43.16-.19,96.42-.19,96.41.09,96.41.19Z"/>
                <path class="cls-7" d="m195.54,362.23s-.05-.11-.12-.33c-.08-.24-.18-.56-.32-.98-.28-.88-.67-2.15-1.18-3.78-1.02-3.28-2.46-8.04-4.19-13.93-3.44-11.79-8.01-28.15-12.41-46.37-2.2-9.12-4.16-17.83-5.84-25.78-1.65-7.96-3.07-15.13-4.14-21.18-.56-3.02-1.02-5.76-1.43-8.17-.41-2.4-.75-4.48-1.01-6.18-.26-1.68-.46-3-.6-3.91-.06-.43-.11-.77-.15-1.02-.03-.23-.04-.35-.04-.35,0,0,.03.12.08.34.04.24.11.58.18,1.01.16.91.38,2.22.67,3.9.28,1.69.64,3.76,1.07,6.17.43,2.4.91,5.14,1.48,8.15,1.11,6.04,2.56,13.21,4.22,21.16,1.7,7.94,3.67,16.65,5.87,25.76,4.4,18.22,8.92,34.58,12.3,46.39,1.7,5.9,3.09,10.67,4.07,13.97.48,1.64.85,2.91,1.11,3.8.12.42.21.75.28.99.06.22.08.34.08.34Z"/>
                <path class="cls-7" d="m232.96,362.23s-.05-.11-.12-.33c-.07-.24-.18-.56-.31-.98-.27-.88-.66-2.15-1.15-3.78-1-3.29-2.4-8.06-4.12-13.95-3.39-11.81-7.98-28.15-12.44-46.36-4.5-18.21-7.97-34.83-10.14-46.93-.55-3.02-1.03-5.76-1.42-8.17-.4-2.41-.74-4.48-.98-6.18-.25-1.69-.44-3-.57-3.91-.06-.44-.11-.77-.14-1.02-.03-.23-.03-.35-.03-.35,0,0,.03.12.07.34.04.24.1.58.18,1.01.15.91.37,2.22.64,3.9.26,1.7.63,3.77,1.05,6.17.41,2.41.9,5.14,1.47,8.16,2.23,12.08,5.75,28.68,10.24,46.88,4.46,18.2,9,34.55,12.33,46.38,1.68,5.89,3.05,10.67,4,13.99.47,1.64.83,2.92,1.09,3.8.12.42.21.75.27.99.06.22.08.34.08.34Z"/>
                <path class="cls-7" d="m272.04,362.23s-.05-.11-.12-.33c-.08-.24-.18-.56-.32-.98-.28-.88-.68-2.15-1.2-3.77-1.04-3.28-2.49-8.03-4.27-13.92-3.51-11.78-8.25-28.09-12.78-46.29-4.57-18.2-7.97-34.85-9.97-46.98-.51-3.03-.95-5.78-1.29-8.19-.35-2.42-.66-4.5-.86-6.2-.21-1.69-.37-3.01-.48-3.93-.05-.44-.09-.78-.11-1.02-.02-.23-.03-.35-.03-.35,0,0,.03.12.06.35.04.25.09.58.15,1.02.13.91.31,2.23.55,3.92.22,1.7.55,3.78.92,6.19.35,2.41.82,5.15,1.34,8.18,2.06,12.11,5.5,28.75,10.07,46.94,4.53,18.19,9.23,34.51,12.67,46.31,1.75,5.88,3.17,10.64,4.15,13.95.49,1.63.87,2.91,1.13,3.79.12.42.22.75.28.99.06.22.08.34.08.34Z"/>
                <path class="cls-7" d="m311.12,362.23s-.05-.11-.12-.33c-.08-.24-.19-.56-.33-.98-.29-.88-.7-2.14-1.23-3.76-1.07-3.27-2.57-8.01-4.4-13.88-3.63-11.75-8.52-28.03-13.16-46.22-2.33-9.09-4.35-17.81-5.99-25.77-.86-3.98-1.54-7.78-2.22-11.33-.3-1.78-.6-3.5-.88-5.16-.28-1.65-.55-3.24-.76-4.77-1.85-12.17-2.31-19.77-2.31-19.77,0,0,.02.12.05.35.03.25.07.59.12,1.02.1.92.25,2.24.43,3.94.16,1.71.46,3.79.77,6.22.29,2.42.73,5.17,1.2,8.21.22,1.52.49,3.11.79,4.76.29,1.65.59,3.37.9,5.15.69,3.55,1.39,7.35,2.25,11.32,1.66,7.96,3.69,16.66,6.02,25.75,4.64,18.18,9.49,34.46,13.05,46.23,1.81,5.86,3.27,10.61,4.29,13.92.5,1.63.89,2.9,1.16,3.78.13.42.22.75.29.99.06.22.09.34.09.34Z"/>
              </g>
              <g>
                <path class="cls-7" d="m169.97,243.33s1.65,16.01,8,26.01h37.42s-9.1-16.19-10.2-27.44l-.82-6.31h-35l.6,7.75Z"/>
                <path class="cls-12" d="m201.05,246.14c0,.11-5.33.19-11.9.19s-11.9-.09-11.9-.19,5.33-.19,11.9-.19,11.9.09,11.9.19Z"/>
                <path class="cls-12" d="m202.24,250.18c0,.11-5.33.19-11.9.19s-11.9-.09-11.9-.19,5.33-.19,11.9-.19,11.9.09,11.9.19Z"/>
                <path class="cls-12" d="m203.43,254.23c0,.11-5.33.19-11.9.19s-11.9-.09-11.9-.19,5.33-.19,11.9-.19,11.9.09,11.9.19Z"/>
                <path class="cls-12" d="m204.62,258.28c0,.11-5.33.19-11.9.19s-11.9-.09-11.9-.19,5.33-.19,11.9-.19,11.9.09,11.9.19Z"/>
              </g>
              <g>
                <path class="cls-7" d="m298.44,282.79s1.65,16.01,8,26.01h37.42s-9.1-16.19-10.2-27.44l-.82-6.31h-35l.6,7.75Z"/>
                <path class="cls-5" d="m329.52,284.8c0,.11-5.33.19-11.9.19s-11.9-.09-11.9-.19,5.33-.19,11.9-.19,11.9.09,11.9.19Z"/>
                <path class="cls-5" d="m330.71,288.85c0,.11-5.33.19-11.9.19s-11.9-.09-11.9-.19,5.33-.19,11.9-.19,11.9.09,11.9.19Z"/>
                <path class="cls-5" d="m331.9,292.89c0,.11-5.33.19-11.9.19s-11.9-.09-11.9-.19,5.33-.19,11.9-.19,11.9.09,11.9.19Z"/>
                <path class="cls-5" d="m333.09,296.94c0,.11-5.33.19-11.9.19s-11.9-.09-11.9-.19,5.33-.19,11.9-.19,11.9.09,11.9.19Z"/>
              </g>
              <path class="cls-7" d="m274.29,233.25c.39.31-4.46,6.76-11.78,13.45-7.3,6.71-14.15,10.97-14.43,10.56-.32-.45,5.94-5.35,13.14-11.96,7.22-6.59,12.64-12.4,13.06-12.04Z"/>
              <path class="cls-7" d="m281.39,257.86c-.31.44-8.49-4.89-18.55-11.45-10.06-6.58-18.22-11.92-17.95-12.38.26-.44,8.89,4.19,18.99,10.79,10.1,6.59,17.81,12.63,17.51,13.05Z"/>
              <path class="cls-7" d="m210.78,254.89c-.32-.42,5.06-5.05,12.02-10.35,6.96-5.3,12.86-9.25,13.18-8.83.32.42-5.06,5.05-12.02,10.35-6.96,5.3-12.86,9.25-13.17,8.83Z"/>
              <path class="cls-7" d="m240.33,257.15c-.33.43-7.5-4.61-16.59-10.41-9.08-5.82-16.66-10.21-16.41-10.69.23-.45,8.27,3.21,17.44,9.09,9.17,5.85,15.88,11.62,15.56,12.02Z"/>
              <path class="cls-7" d="m242.39,299.79c0-.06.37-.14,1.11-.2.73-.03,1.83,0,3.2.32,1.36.32,3.02.91,4.7,2.02,1.69,1.08,3.41,2.71,4.73,4.92,1.31,2.21,2.13,4.99,2.15,8.01.01,1.51-.17,3.07-.59,4.63-.42,1.56-1.09,3.1-2,4.55-1.82,2.89-4.58,5.36-7.94,6.92-3.35,1.6-7.35,2.12-11.21,1.43-3.87-.67-7.44-2.49-10.09-5.11-2.68-2.61-4.29-6.02-4.87-9.36-.61-3.35-.21-6.67.87-9.49.53-1.42,1.26-2.7,2.12-3.81.85-1.12,1.81-2.08,2.83-2.85,2.01-1.59,4.19-2.47,6.12-2.98,1.95-.5,3.7-.56,5.1-.43.35.02.68.07.98.12.31.06.59.09.86.16.52.15.96.25,1.3.39.68.28,1.02.45,1,.51-.05.18-1.49-.43-4.18-.44-1.33-.01-2.98.15-4.78.71-1.79.57-3.77,1.47-5.57,3-.91.74-1.75,1.64-2.49,2.67-.75,1.02-1.38,2.2-1.83,3.49-.92,2.57-1.23,5.59-.63,8.62.58,3.02,2.04,6.03,4.45,8.34,2.38,2.33,5.62,3.96,9.11,4.57,3.5.62,7.06.17,10.1-1.25,3.05-1.39,5.58-3.6,7.25-6.17.83-1.29,1.45-2.66,1.86-4.05.4-1.4.6-2.81.62-4.19.04-2.75-.63-5.3-1.75-7.35-1.12-2.05-2.64-3.62-4.16-4.71-1.51-1.12-3.03-1.77-4.3-2.18-2.56-.79-4.11-.66-4.11-.84Z"/>
              <path class="cls-7" d="m138.45,291.91c-.4-.33,4.2-6.6,10.67-13.66,6.36-6.96,12.19-12.33,12.66-11.85.38.38-4.83,6.1-11.25,13.13-6.43,7.02-11.66,12.72-12.08,12.38Z"/>
              <path class="cls-7" d="m168.08,288.92c-.28.45-7.75-3.67-16.7-9.2-8.95-5.53-15.97-10.37-15.7-10.82.28-.45,7.67,3.67,16.62,9.2,8.94,5.53,16.05,10.37,15.78,10.82Z"/>
              <path class="cls-7" d="m239.17,305.59l2.86,4.1c.24.34.63.54,1.04.54l5-.03c1.04,0,1.64,1.19,1.01,2.02l-3.02,3.98c-.25.33-.32.76-.19,1.16l1.57,4.74c.33.99-.62,1.93-1.61,1.59l-4.72-1.64c-.39-.14-.82-.07-1.16.18l-4.03,2.96c-.84.62-2.03,0-2.01-1.04l.1-5c0-.41-.19-.81-.52-1.05l-4.06-2.91c-.85-.61-.63-1.93.37-2.23l4.78-1.45c.4-.12.71-.43.83-.82l1.52-4.76c.32-.99,1.64-1.19,2.23-.34Z"/>
              <path class="cls-7" d="m316.97,233.43c.35.39-6.02,6.66-14.22,14.01-8.21,7.35-15.14,12.98-15.49,12.59-.35-.39,6.02-6.66,14.22-14.01,8.2-7.34,15.14-12.98,15.49-12.59Z"/>
              <path class="cls-7" d="m321.75,256c-.24.47-9.16-3.53-19.92-8.92-10.77-5.4-19.31-10.16-19.07-10.63.24-.47,9.15,3.53,19.92,8.93,10.77,5.4,19.31,10.16,19.07,10.63Z"/>
            </g>
          </g>
          <path class="cls-9" d="m239.17,305.59l2.86,4.1c.24.34.63.54,1.04.54l5-.03c1.04,0,1.64,1.19,1.01,2.02l-3.02,3.98c-.25.33-.32.76-.19,1.16l1.57,4.74c.33.99-.62,1.93-1.61,1.59l-4.72-1.64c-.39-.14-.82-.07-1.16.18l-4.03,2.96c-.84.62-2.03,0-2.01-1.04l.1-5c0-.41-.19-.81-.52-1.05l-4.06-2.91c-.85-.61-.63-1.93.37-2.23l4.78-1.45c.4-.12.71-.43.83-.82l1.52-4.76c.32-.99,1.64-1.19,2.23-.34Z"/>
        </g>
        <g>
          <polygon class="cls-4" points="427.29 217.99 454.69 392.9 414.67 400.83 386.24 223.46 427.29 217.99"/>
          <path class="cls-7" d="m406.27,189.95s-.78-10.1-5.5-11.6c0,0-5,3.07-2.61,12.76l8.11-1.16Z"/>
          <path class="cls-9" d="m407.96,188.71l-11.27,1.2,1.2,12.13s.57,4.96-4.38,11.8c-4.95,6.84-7.27,9.62-7.27,9.62l41.05-5.47-8.88-6.37c-1.76-1.26-3.28-2.81-4.53-4.58-1.53-2.17-3.43-5.11-3.96-6.92-1.19-4.12-1.96-11.41-1.96-11.41Z"/>
          <path class="cls-7" d="m454.69,392.9s-3.91,11.65-19.81,12.64c-13.7.85-20.21-4.71-20.21-4.71l40.02-7.93Z"/>
        </g>
      </g>
    </g>
  </g>
</svg>