<?xml version="1.0" encoding="UTF-8"?>
<svg xmlns="http://www.w3.org/2000/svg" viewBox="0 0 500 500">
  <defs>
    <style>
      .cls-1 {
        fill: none;
        stroke: #e0e0e0;
        stroke-miterlimit: 10;
        stroke-width: 1.67px;
      }

      .cls-2 {
        fill: #fffaf6;
      }

      .cls-2, .cls-3, .cls-4, .cls-5, .cls-6, .cls-7, .cls-8, .cls-9, .cls-10, .cls-11, .cls-12, .cls-13, .cls-14, .cls-15, .cls-16 {
        stroke-width: 0px;
      }

      .cls-2, .cls-17, .cls-4, .cls-18, .cls-19 {
        mix-blend-mode: multiply;
      }

      .cls-20 {
        opacity: .1;
      }

      .cls-3, .cls-4, .cls-8 {
        fill: #e0e0e0;
      }

      .cls-3, .cls-19 {
        opacity: .38;
      }

      .cls-21 {
        opacity: .2;
      }

      .cls-4 {
        opacity: .42;
      }

      .cls-22 {
        isolation: isolate;
      }

      .cls-18 {
        opacity: .54;
      }

      .cls-6 {
        fill: #f7f7f7;
      }

      .cls-7 {
        fill: #383838;
      }

      .cls-9 {
        fill: #c5c5c5;
      }

      .cls-10 {
        fill: #c6c5c5;
      }

      .cls-11 {
        fill: #ababab;
      }

      .cls-12 {
        fill: #f60;
      }

      .cls-13 {
        fill: #fff;
      }

      .cls-14 {
        fill: #fbfbfb;
      }

      .cls-15 {
        fill: #ebebeb;
      }

      .cls-16 {
        fill: #fafbfb;
      }
    </style>
  </defs>
  <g class="cls-22">
    <g id="Layer_1" data-name="Layer 1">
      <g>
        <g class="cls-17">
          <path class="cls-3" d="m129.1,378.77l-50.43,21.45c-3.48,1.48-7.51-.14-8.99-3.62l-29.7-69.8c-1.48-3.48.14-7.51,3.62-8.99l31.98-13.61,35.61,14.98,21.52,50.59c1.48,3.48-.14,7.51-3.62,8.99Z"/>
        </g>
        <g class="cls-18">
          <path class="cls-8" d="m346.47,220.34c7.69-1.06,14.52-6.88,16.8-15.28,2.98-11-2.96-22.2-13.28-25-10.31-2.8-21.1,3.84-24.08,14.85-2.3,8.48.73,17.02,6.95,21.8-29.94-3.34-36.98,28.28-36.98,28.28l67.97,18.47s9.99-31.21-17.39-43.13Z"/>
        </g>
        <g class="cls-17">
          <circle class="cls-4" cx="372.34" cy="423.46" r="73.89" transform="translate(-125.25 688.71) rotate(-76.74)"/>
          <path class="cls-8" d="m405.89,425.73c0,.06-.92.12-2.61.17-1.85.04-4.26.09-7.18.14-6.09.08-14.58.14-24.17.16h-.47s0-.47,0-.47c0-1.53,0-3.15,0-4.79,0-10.7.05-20.39.14-27.41.06-3.38.11-6.18.15-8.31.06-1.96.12-3.05.19-3.05s.13,1.08.19,3.05c.04,2.13.09,4.92.15,8.31.09,7.01.14,16.7.14,27.41,0,1.64,0,3.26,0,4.79l-.47-.47c9.58.01,18.08.07,24.17.16,2.92.06,5.33.11,7.18.14,1.69.05,2.61.11,2.61.17Z"/>
          <path class="cls-8" d="m372.15,361.7c.26,0,.48,2.78.48,6.21s-.21,6.21-.48,6.21-.48-2.78-.48-6.21.21-6.21.48-6.21Z"/>
          <path class="cls-8" d="m405.82,371.67c.19.19-1.6,2.28-3.99,4.66-2.39,2.39-4.48,4.17-4.66,3.99-.19-.19,1.6-2.27,3.99-4.66,2.39-2.39,4.48-4.17,4.66-3.99Z"/>
          <path class="cls-8" d="m425.51,393.18c.12.24-2.22,1.65-5.09,3.4-2.87,1.74-5.2,3.17-5.36,2.96-.15-.21,1.95-2.01,4.87-3.77,2.91-1.77,5.47-2.81,5.59-2.58Z"/>
          <path class="cls-8" d="m437.05,425.09c0,.26-3.79.48-8.46.48s-8.46-.21-8.46-.48,3.79-.48,8.46-.48,8.46.21,8.46.48Z"/>
          <path class="cls-8" d="m319.68,423.96c0,.26-3.58.48-7.99.48s-7.99-.21-7.99-.48,3.58-.48,7.99-.48,7.99.21,7.99.48Z"/>
          <path class="cls-8" d="m327.98,447.72c.17.2-2.53,2.65-6.04,5.48-3.51,2.83-6.48,4.95-6.64,4.73-.16-.21,2.55-2.66,6.04-5.48,3.49-2.81,6.47-4.93,6.64-4.73Z"/>
          <path class="cls-8" d="m348.45,466.09c.22.16-1.79,3.25-4.11,7.13-2.34,3.88-4.12,7.09-4.36,6.98-.23-.11,1.18-3.55,3.54-7.47,2.35-3.92,4.73-6.79,4.93-6.63Z"/>
          <path class="cls-8" d="m372.15,489.79c-.26,0-.48-3.79-.48-8.46s.21-8.46.48-8.46.48,3.79.48,8.46-.21,8.46-.48,8.46Z"/>
          <path class="cls-8" d="m408.64,478.52c-.13.21-3.45-1.69-6.98-4.78-3.54-3.08-5.88-6.1-5.69-6.26.21-.18,2.83,2.51,6.32,5.54,3.48,3.04,6.5,5.27,6.35,5.5Z"/>
          <path class="cls-8" d="m425.76,460.07c-.19.19-2.7-2.02-5.6-4.93-2.91-2.91-5.12-5.42-4.93-5.6s2.7,2.02,5.6,4.93c2.91,2.91,5.12,5.42,4.93,5.6Z"/>
          <path class="cls-8" d="m327.2,401.2c-.19.19-2.4-1.73-4.95-4.27s-4.46-4.76-4.27-4.95,2.4,1.72,4.95,4.27c2.54,2.54,4.46,4.76,4.27,4.95Z"/>
          <path class="cls-8" d="m348.33,378.94c-.19.19-2.36-1.68-4.86-4.17-2.5-2.49-4.37-4.66-4.19-4.84.19-.19,2.36,1.68,4.86,4.17,2.5,2.49,4.37,4.66,4.19,4.84Z"/>
        </g>
        <g>
          <rect class="cls-8" x="301.04" y="36.02" width="86.53" height="85.02"/>
          <rect class="cls-16" x="304.05" y="38.35" width="80.47" height="80.47"/>
          <rect class="cls-12" x="331.16" y="65.46" width="26.25" height="26.25"/>
        </g>
        <g class="cls-19">
          <path class="cls-1" d="m64.86,22.81c6.22-2.41,12.66-3.93,19.15-4.6l6.77-16.96,29.84,4.72,1.2,18.22c5.96,2.63,11.62,6.07,16.8,10.28l16.77-7.21,17.76,24.44-12.03,13.73c2.41,6.22,3.93,12.67,4.6,19.15l16.96,6.76-4.72,29.84-18.22,1.21c-2.63,5.96-6.07,11.62-10.28,16.8l7.2,16.77-24.43,17.76-13.73-12.03c-6.22,2.41-12.67,3.93-19.15,4.6l-6.77,16.96-29.84-4.72-1.2-18.22c-5.96-2.63-11.62-6.07-16.8-10.28l-16.77,7.21-17.76-24.44,12.03-13.73c-2.41-6.22-3.93-12.67-4.6-19.15L.69,93.15l4.72-29.84,18.22-1.21c2.63-5.96,6.07-11.62,10.28-16.8l-7.2-16.77,24.43-17.76,13.73,12.03h0Zm8.88,42.42c-14.48,10.52-17.68,30.79-7.16,45.27,10.52,14.48,30.79,17.68,45.27,7.16,14.48-10.52,17.68-30.79,7.16-45.27-10.52-14.48-30.79-17.68-45.27-7.16Z"/>
        </g>
        <g class="cls-19">
          <path class="cls-8" d="m118.33,200.27c.9-.35,1.83-.57,2.76-.66l.98-2.45,4.3.68.17,2.63c.86.38,1.68.88,2.42,1.48l2.42-1.04,2.56,3.52-1.73,1.98c.35.9.57,1.83.66,2.76l2.45.98-.68,4.3-2.63.17c-.38.86-.88,1.68-1.48,2.42l1.04,2.42-3.52,2.56-1.98-1.73c-.9.35-1.83.57-2.76.66l-.98,2.45-4.3-.68-.17-2.63c-.86-.38-1.68-.88-2.42-1.48l-2.42,1.04-2.56-3.52,1.73-1.98c-.35-.9-.57-1.83-.66-2.76l-2.45-.98.68-4.3,2.63-.17c.38-.86.88-1.68,1.48-2.42l-1.04-2.42,3.52-2.56,1.98,1.73h0Zm1.28,6.12c-2.09,1.52-2.55,4.44-1.03,6.53,1.52,2.09,4.44,2.55,6.53,1.03,2.09-1.52,2.55-4.44,1.03-6.53-1.52-2.09-4.44-2.55-6.53-1.03Z"/>
        </g>
        <path class="cls-12" d="m106.47,427.28c.9-.35,1.83-.57,2.76-.66l.98-2.45,4.3.68.17,2.63c.86.38,1.68.88,2.42,1.48l2.42-1.04,2.56,3.52-1.73,1.98c.35.9.57,1.83.66,2.76l2.45.98-.68,4.3-2.63.17c-.38.86-.88,1.68-1.48,2.42l1.04,2.42-3.52,2.56-1.98-1.73c-.9.35-1.83.57-2.76.66l-.98,2.45-4.3-.68-.17-2.63c-.86-.38-1.68-.88-2.42-1.48l-2.42,1.04-2.56-3.52,1.73-1.98c-.35-.9-.57-1.83-.66-2.76l-2.45-.98.68-4.3,2.63-.17c.38-.86.88-1.68,1.48-2.42l-1.04-2.42,3.52-2.56,1.98,1.73h0Zm1.28,6.12c-2.09,1.52-2.55,4.44-1.03,6.53,1.52,2.09,4.44,2.55,6.53,1.03,2.09-1.52,2.55-4.44,1.03-6.53-1.52-2.09-4.44-2.55-6.53-1.03Z"/>
        <g>
          <path class="cls-9" d="m293.5,461.06l-125.87-.07c-15.14,0-27.41-12.28-27.4-27.42l.06-315.56c0-15.15,12.29-27.42,27.43-27.41l125.87.07c15.14,0,27.4,12.29,27.4,27.42l-.06,315.56c0,15.15-12.29,27.42-27.43,27.41Z"/>
          <g>
            <g>
              <path class="cls-13" d="m294.5,101.79h-24.4c-3.27-.02-5.93,2.76-5.93,6.18v4.43c0,3.42-2.66,6.19-5.93,6.19l-47.57-.03c-3.27,0-5.93-2.78-5.92-6.2v-4.43c0-3.42-2.65-6.2-5.92-6.2h-8.58s-21.36-.02-21.36-.02c-10.61,0-19.21,8.59-19.21,19.2l-.06,308.01c0,10.6,8.59,19.2,19.19,19.21l125.62.07c10.61,0,19.21-8.59,19.21-19.2l.06-308.01c0-10.6-8.59-19.2-19.19-19.21Z"/>
              <path class="cls-2" d="m294.5,101.79s.22,0,.66.02c.43.04,1.1-.01,1.95.15,1.7.2,4.29.75,7.2,2.49,1.47.83,2.97,2.02,4.38,3.55,1.41,1.53,2.72,3.44,3.66,5.73.95,2.28,1.46,4.95,1.44,7.8,0,2.84,0,5.85.01,9.05.02,25.59.04,62.6.07,108.34,0,45.74.02,100.21.03,160.69,0,7.56,0,15.21,0,22.96,0,1.94,0,3.88,0,5.82-.02,1.95-.15,3.96-.74,5.86-.55,1.9-1.34,3.75-2.45,5.41-1.11,1.66-2.46,3.16-4,4.44-3.12,2.51-7.03,4.1-11.09,4.3-4.03.12-8.02.03-12.07.05-8.08,0-16.23,0-24.46-.01-16.45,0-33.2-.02-50.19-.03-8.5,0-17.05,0-25.67-.01-4.31,0-8.63,0-12.97,0-4.35.22-8.87-.93-12.51-3.45-3.66-2.51-6.35-6.3-7.61-10.51-.68-2.1-.8-4.34-.8-6.5,0-2.16,0-4.32,0-6.47,0-8.62,0-17.18,0-25.68,0-17,0-33.75.01-50.2.01-32.91.02-64.66.03-94.91.01-30.24.03-58.98.04-85.88,0-13.45.02-26.44.02-38.92,0-1.56,0-3.11,0-4.66.01-.77.07-1.56.11-2.33.14-.76.19-1.54.39-2.29.7-3.01,2.09-5.82,4.04-8.14,1.96-2.3,4.42-4.13,7.12-5.32,2.7-1.22,5.67-1.65,8.54-1.61,5.72,0,11.3.01,16.74.02,2.72,0,5.4,0,8.05,0,1.32,0,2.64,0,3.95,0,1.32-.07,2.7.3,3.78,1.06,1.09.76,1.92,1.85,2.35,3.08.49,1.23.38,2.57.39,3.79,0,.63,0,1.25,0,1.87,0,.62-.02,1.24.06,1.83.15,1.19.65,2.33,1.43,3.21.76.9,1.81,1.54,2.93,1.82.57.14,1.13.18,1.73.17.59,0,1.18,0,1.77,0,2.35,0,4.66,0,6.93,0,9.08.01,17.54.03,25.32.04,3.89,0,7.61.01,11.16.02.88-.02,1.78.04,2.62-.03.84-.1,1.65-.39,2.35-.83,1.41-.88,2.37-2.33,2.69-3.87.18-.77.15-1.55.15-2.33,0-.78,0-1.54,0-2.3,0-.75-.04-1.5.1-2.24.13-.73.37-1.43.72-2.06.69-1.26,1.82-2.22,3.07-2.71,1.26-.55,2.6-.38,3.81-.41,4.92.01,9.09.02,12.46.03,3.36.01,5.93.02,7.66.03,1.73.01,2.61.03,2.61.03,0,0-.88.02-2.61.03-1.73,0-4.3.01-7.66.02-3.37,0-7.53.01-12.46.02-1.22.03-2.54-.13-3.75.41-1.21.48-2.3,1.41-2.97,2.64-.34.61-.58,1.29-.7,2-.13.71-.08,1.45-.09,2.21,0,.75,0,1.52,0,2.3,0,.77.03,1.58-.15,2.38-.33,1.59-1.32,3.1-2.78,4.01-.73.46-1.57.76-2.44.87-.89.08-1.75.02-2.64.04-3.55,0-7.27,0-11.16,0-7.78,0-16.24,0-25.32,0-2.27,0-4.58,0-6.93,0-.59,0-1.18,0-1.77,0-.59.01-1.22-.03-1.81-.18-1.19-.29-2.3-.97-3.1-1.92-.82-.93-1.35-2.13-1.52-3.38-.09-.63-.06-1.26-.07-1.87,0-.62,0-1.24,0-1.87-.02-1.25.09-2.52-.37-3.68-.41-1.17-1.2-2.2-2.23-2.92-1.04-.71-2.29-1.05-3.58-.99h-3.95c-2.65,0-5.33,0-8.05,0-5.44,0-11.02,0-16.74,0-2.84-.03-5.73.39-8.38,1.59-2.65,1.17-5.05,2.96-6.97,5.22-1.9,2.27-3.26,5.03-3.95,7.97-.19.73-.25,1.49-.38,2.24-.04.76-.09,1.52-.1,2.29,0,1.54,0,3.1,0,4.66,0,12.48,0,25.47,0,38.92,0,26.9,0,55.64,0,85.88,0,30.24,0,61.99,0,94.91,0,16.46,0,33.21,0,50.2,0,8.5,0,17.06,0,25.68,0,2.15,0,4.31,0,6.47,0,2.15.12,4.29.78,6.34,1.22,4.09,3.85,7.78,7.4,10.22,3.56,2.46,7.88,3.57,12.2,3.36,4.34,0,8.66,0,12.97,0,8.62,0,17.17.01,25.67.02,16.99.01,33.74.02,50.19.03,8.23,0,16.38.01,24.46.02,4.03-.02,8.07.06,12.04-.05,3.95-.19,7.75-1.75,10.79-4.19,1.5-1.25,2.82-2.71,3.9-4.32,1.08-1.61,1.85-3.42,2.39-5.27.57-1.86.7-3.79.72-5.72,0-1.95,0-3.89,0-5.82,0-7.74,0-15.4,0-22.96.03-60.48.06-114.94.09-160.69.05-45.74.08-82.76.11-108.34,0-3.2,0-6.22.01-9.05.03-2.83-.47-5.47-1.4-7.74-.92-2.27-2.21-4.18-3.61-5.7-1.4-1.52-2.88-2.72-4.34-3.55-2.89-1.74-5.46-2.31-7.16-2.53-.85-.17-1.51-.13-1.94-.18-.44-.03-.66-.05-.66-.05Z"/>
            </g>
            <g>
              <path class="cls-7" d="m298.22,132.89c0,.08-3.17.18-7.09.21-3.92.03-7.09,0-7.09-.09,0-.08,3.17-.18,7.09-.21,3.91-.03,7.09,0,7.09.09Z"/>
              <path class="cls-7" d="m298.25,136.52c0,.08-3.17.18-7.09.21-3.92.03-7.09,0-7.09-.09,0-.08,3.17-.18,7.09-.21,3.91-.03,7.09,0,7.09.09Z"/>
              <path class="cls-7" d="m298.28,140.15c0,.08-3.17.18-7.09.21-3.92.03-7.09,0-7.09-.09,0-.08,3.17-.18,7.09-.21,3.91-.03,7.09,0,7.09.09Z"/>
            </g>
            <path class="cls-7" d="m169.27,144.29s.11-.01.29-.02c.23,0,.5-.02.82-.03.77-.02,1.79-.04,3.03-.07l-.08.09c-.01-.67-.02-1.4-.04-2.2,0-.41-.03-.79,0-1.26.08-.47.5-.88,1.02-.93.49,0,.92-.03,1.45,0,.55.07,1.01.59.99,1.17.01,1.02.02,2.09.04,3.2l-.14-.14c1.23-.01,2.5-.03,3.82-.04l-.15.15c-.01-1.54-.03-3.13-.04-4.76,0-.41,0-.81-.01-1.21,0-.37-.23-.62-.54-.9-.57-.56-1.12-1.11-1.67-1.65-.55-.54-1.08-1.07-1.61-1.59-.26-.26-.52-.52-.78-.77-.27-.26-.48-.53-.79-.59-.3-.08-.63-.02-.88.17-.23.2-.48.47-.71.7-.47.47-.93.94-1.37,1.38-.86.9-1.76,1.71-2.41,2.49-.28.43-.17.95-.19,1.43,0,.47,0,.92,0,1.35,0,.82,0,1.55-.01,2.17,0,.55-.01,1.01-.02,1.39,0,.32-.01.49-.02.5,0,0-.02-.15-.03-.46-.01-.37-.02-.82-.04-1.36-.01-.62-.03-1.35-.05-2.18,0-.43-.02-.89-.03-1.37,0-.24,0-.49-.01-.75,0-.27.07-.55.21-.8.71-.87,1.55-1.63,2.42-2.55.44-.45.89-.91,1.36-1.39.25-.24.45-.48.74-.73.31-.23.72-.32,1.11-.22.41.09.67.42.92.66.26.25.52.51.78.77.53.52,1.07,1.05,1.62,1.58.55.54,1.11,1.09,1.67,1.64.13.14.3.26.43.46.12.19.19.42.2.64,0,.4,0,.81.01,1.22.01,1.63.02,3.22.04,4.76v.15s-.15,0-.15,0c-1.32,0-2.59.02-3.82.02h-.14s0-.14,0-.14c0-1.11-.01-2.18-.02-3.2.02-.46-.34-.87-.77-.93-.44-.02-.96,0-1.39,0-.41.03-.75.36-.82.74-.04.38,0,.83-.02,1.22,0,.79,0,1.52,0,2.2v.09s-.08,0-.08,0c-1.26,0-2.29-.02-3.08-.02-.31,0-.57,0-.8-.01-.18,0-.27,0-.26-.01Z"/>
          </g>
          <g>
            <g>
              <rect class="cls-12" x="165.97" y="229.92" width="53.98" height="48.71" rx="2.22" ry="2.22"/>
              <g>
                <path class="cls-15" d="m269.77,244.17c0,.13-8.37.23-18.69.23s-18.69-.1-18.69-.23,8.37-.23,18.69-.23,18.69.1,18.69.23Z"/>
                <g>
                  <path class="cls-15" d="m299.2,250.51c0,.13-15.13.23-33.79.23s-33.79-.1-33.79-.23,15.13-.23,33.79-.23,33.79.1,33.79.23Z"/>
                  <path class="cls-15" d="m265.46,257c0,.13-7.43.23-16.59.23s-16.59-.1-16.59-.23,7.43-.23,16.59-.23,16.59.1,16.59.23Z"/>
                </g>
                <rect class="cls-12" x="230.99" y="263.94" width="39.43" height="12.54" rx="5.25" ry="5.25"/>
              </g>
            </g>
            <path class="cls-15" d="m302.55,285.38s.37.01,1.06-.16c.67-.17,1.71-.63,2.51-1.77.38-.57.69-1.31.74-2.16.03-.85,0-1.8,0-2.81,0-2.04-.01-4.39-.02-7.03-.02-10.58-.04-25.89-.07-44.79,0-.6,0-1.17-.16-1.72-.15-.55-.43-1.08-.79-1.53-.73-.91-1.87-1.49-3.06-1.54-2.47,0-5,0-7.58,0-5.16,0-10.53,0-16.09.01-11.12,0-23,.01-35.5.02-25,0-52.49.01-81.34.02-1.73-.03-3.37,1.15-3.92,2.76-.32.79-.23,1.68-.24,2.58,0,.89,0,1.79,0,2.68,0,3.56,0,7.1,0,10.62,0,7.03,0,13.95,0,20.76,0,6.8,0,13.48.01,20.01.1,1.56,1.17,2.99,2.61,3.55.36.15.74.22,1.12.28.38.03.78.02,1.19.02.8,0,1.61,0,2.41,0,3.2,0,6.37,0,9.49,0,25.01.02,47.52.03,66.44.05,18.91.03,34.21.06,44.79.07,5.28.02,9.38.03,12.18.04,1.39,0,2.44.02,3.17.02.71,0,1.08.02,1.08.02,0,0-.37.02-1.08.02-.72,0-1.78.01-3.17.02-2.79,0-6.9.02-12.18.04-10.58.02-25.88.04-44.79.07-18.91.01-41.43.03-66.44.05-3.13,0-6.29,0-9.49,0-.8,0-1.6,0-2.41,0-.4,0-.8,0-1.23-.02-.42-.06-.84-.14-1.23-.3-1.59-.61-2.77-2.19-2.88-3.91,0-6.55-.02-13.24-.02-20.05,0-6.8,0-13.73,0-20.76,0-3.51,0-7.05,0-10.62,0-.89,0-1.78,0-2.68,0-.45,0-.89,0-1.35,0-.47.11-.94.26-1.38.61-1.79,2.43-3.1,4.35-3.07,28.85,0,56.34.01,81.34.02,12.5,0,24.38.01,35.5.02,5.56,0,10.93,0,16.09.01,2.58,0,5.11.01,7.59.02,1.29.06,2.51.69,3.3,1.67.4.49.69,1.05.85,1.65.18.6.18,1.23.17,1.81-.03,18.91-.06,34.21-.07,44.79,0,2.64-.01,4.99-.02,7.03-.01,1.02,0,1.95-.03,2.82-.06.87-.38,1.62-.77,2.2-.83,1.16-1.89,1.61-2.58,1.76-.35.08-.62.11-.8.11-.18,0-.27,0-.27,0Z"/>
          </g>
          <g>
            <rect class="cls-15" x="164.37" y="301.93" width="53.98" height="48.71" rx="2.22" ry="2.22"/>
            <g>
              <path class="cls-8" d="m268.17,316.19c0,.13-8.37.23-18.69.23s-18.69-.1-18.69-.23,8.37-.23,18.69-.23,18.69.1,18.69.23Z"/>
              <g>
                <path class="cls-7" d="m297.6,322.52c0,.13-15.13.23-33.79.23s-33.79-.1-33.79-.23,15.13-.23,33.79-.23,33.79.1,33.79.23Z"/>
                <path class="cls-7" d="m263.86,329.01c0,.13-7.43.23-16.59.23s-16.59-.1-16.59-.23,7.43-.23,16.59-.23,16.59.1,16.59.23Z"/>
              </g>
              <path class="cls-11" d="m263.58,348.49s.34,0,.95-.14c.61-.12,1.52-.42,2.41-1.21.89-.76,1.72-2.09,1.75-3.78,0-.84.02-1.78-.04-2.71-.11-.93-.48-1.89-1.15-2.7-.67-.79-1.62-1.44-2.73-1.69-.56-.14-1.12-.15-1.74-.14-.61,0-1.23,0-1.86,0-2.53,0-5.22.01-8.06.02-5.68,0-11.92.01-18.47.02-1.57,0-3.1.77-4.01,2-.46.61-.78,1.32-.92,2.06-.14.73-.08,1.51-.1,2.29-.01.78,0,1.51.22,2.21.22.69.58,1.33,1.06,1.86.95,1.07,2.33,1.68,3.7,1.69,5.67.02,10.78.04,15.09.05,4.27.03,7.74.05,10.17.07,1.17.02,2.1.03,2.77.04.29,0,.53.02.72.02.16,0,.24.02.24.02s-.08.02-.24.02c-.19,0-.42.01-.72.02-.67.01-1.59.02-2.77.04-2.44.02-5.9.04-10.17.07-4.31.01-9.42.03-15.09.05-1.48,0-2.99-.66-4.02-1.81-.52-.57-.92-1.27-1.16-2.02-.25-.75-.26-1.58-.25-2.34.02-.77-.06-1.55.1-2.37.15-.81.5-1.58,1-2.24.99-1.35,2.66-2.18,4.37-2.18,6.55,0,12.79.01,18.47.02,2.84,0,5.54.01,8.06.02.63,0,1.25,0,1.86,0,.6,0,1.24.02,1.82.17,1.19.28,2.18.98,2.89,1.82.7.86,1.09,1.88,1.19,2.87.05,1,.01,1.88,0,2.75-.06,1.77-.95,3.14-1.89,3.9-.94.79-1.89,1.07-2.51,1.16-.32.05-.56.06-.72.06-.16,0-.25,0-.25-.01Z"/>
            </g>
          </g>
          <g>
            <rect class="cls-15" x="165.04" y="373.46" width="53.98" height="48.71" rx="2.22" ry="2.22"/>
            <g>
              <path class="cls-8" d="m268.83,387.72c0,.13-8.37.23-18.69.23s-18.69-.1-18.69-.23,8.37-.23,18.69-.23,18.69.1,18.69.23Z"/>
              <g>
                <path class="cls-7" d="m298.27,394.06c0,.13-15.13.23-33.79.23s-33.79-.1-33.79-.23,15.13-.23,33.79-.23,33.79.1,33.79.23Z"/>
                <path class="cls-7" d="m264.53,400.55c0,.13-7.43.23-16.59.23s-16.59-.1-16.59-.23,7.43-.23,16.59-.23,16.59.1,16.59.23Z"/>
              </g>
              <path class="cls-12" d="m264.24,420.03s.34,0,.95-.14c.61-.12,1.52-.42,2.41-1.21.89-.76,1.72-2.09,1.75-3.78,0-.84.02-1.78-.04-2.71-.11-.93-.48-1.89-1.15-2.7-.67-.79-1.62-1.44-2.73-1.69-.56-.14-1.12-.15-1.74-.14-.61,0-1.23,0-1.86,0-2.53,0-5.22.01-8.06.02-5.68,0-11.92.01-18.47.02-1.57,0-3.1.77-4.01,2-.46.61-.78,1.32-.92,2.06-.14.73-.08,1.51-.1,2.29-.01.78,0,1.51.22,2.21.22.69.58,1.33,1.06,1.86.95,1.07,2.33,1.68,3.7,1.69,5.67.02,10.78.04,15.09.05,4.27.03,7.74.05,10.17.07,1.17.02,2.1.03,2.77.04.29,0,.53.02.72.02.16,0,.25.02.25.02s-.08.02-.25.02c-.19,0-.42.01-.72.02-.67.01-1.59.02-2.77.04-2.44.02-5.9.04-10.17.07-4.31.01-9.42.03-15.09.05-1.48,0-2.99-.66-4.02-1.81-.52-.57-.92-1.27-1.16-2.02-.25-.75-.26-1.58-.25-2.34.02-.77-.06-1.55.1-2.37.15-.81.5-1.58,1-2.24.99-1.35,2.66-2.18,4.37-2.18,6.55,0,12.79.01,18.47.02,2.84,0,5.54.01,8.06.02.63,0,1.25,0,1.86,0,.6,0,1.24.02,1.82.17,1.19.28,2.18.98,2.89,1.82.7.86,1.09,1.88,1.19,2.87.05,1,.01,1.88,0,2.75-.06,1.77-.95,3.14-1.89,3.9-.94.79-1.89,1.07-2.51,1.16-.32.05-.56.06-.72.06-.16,0-.25,0-.25-.01Z"/>
            </g>
          </g>
          <g>
            <rect class="cls-15" x="169.7" y="165.38" width="123.35" height="18.59" rx="6.19" ry="6.19"/>
            <g>
              <path class="cls-7" d="m283.52,173.46s-.03-.23-.14-.61c-.11-.38-.37-.93-.94-1.35-.55-.42-1.45-.65-2.32-.33-.86.3-1.61,1.22-1.6,2.29,0,1.07.73,1.99,1.6,2.29.87.33,1.77.09,2.32-.33.57-.42.83-.97.94-1.35.11-.39.11-.62.14-.61,0,0,.02.06.02.17,0,.11,0,.27-.05.48-.08.4-.33,1.01-.93,1.48-.58.48-1.57.76-2.54.42-.96-.32-1.81-1.34-1.8-2.54-.01-1.2.83-2.22,1.8-2.54.97-.35,1.96-.06,2.54.42.6.48.85,1.08.93,1.48.04.2.05.37.05.48,0,.11-.01.17-.02.17Z"/>
              <path class="cls-7" d="m284.93,177.89c-.06.05-.62-.46-1.26-1.15-.64-.69-1.1-1.29-1.05-1.35.06-.05.62.46,1.26,1.15.64.69,1.1,1.29,1.05,1.35Z"/>
            </g>
            <g>
              <path class="cls-7" d="m181.49,173.74h-1.14v-.41h2.74v.41h-1.14v2.91h-.47v-2.91Z"/>
              <path class="cls-7" d="m183.06,175.39c0-.75.55-1.28,1.31-1.28s1.3.53,1.3,1.28-.55,1.28-1.3,1.28-1.31-.54-1.31-1.28Zm2.15,0c0-.54-.36-.88-.84-.88s-.85.35-.85.88.37.89.85.89.84-.35.84-.89Z"/>
              <path class="cls-7" d="m186.08,174.43c0-.19.15-.32.32-.32s.31.13.31.32-.14.33-.31.33-.32-.14-.32-.33Zm0,1.91c0-.19.15-.32.32-.32s.31.13.31.32-.14.33-.31.33-.32-.14-.32-.33Z"/>
            </g>
            <path class="cls-7" d="m259.27,175.49c0,.13-14.14.23-31.58.23s-31.58-.1-31.58-.23,14.14-.23,31.58-.23,31.58.1,31.58.23Z"/>
          </g>
          <g>
            <rect class="cls-15" x="169.7" y="190.37" width="123.35" height="18.59" rx="6.19" ry="6.19"/>
            <g>
              <path class="cls-7" d="m283.52,199.31s-.03-.23-.14-.61c-.11-.38-.37-.93-.94-1.35-.55-.42-1.45-.65-2.32-.33-.86.3-1.61,1.22-1.6,2.29,0,1.07.73,1.99,1.6,2.29.87.33,1.77.09,2.32-.33.57-.42.83-.97.94-1.35.11-.39.11-.62.14-.61,0,0,.02.06.02.17,0,.11,0,.27-.05.48-.08.4-.33,1.01-.93,1.48-.58.48-1.57.76-2.54.42-.96-.32-1.81-1.34-1.8-2.54-.01-1.2.83-2.22,1.8-2.54.97-.35,1.96-.06,2.54.42.6.48.85,1.08.93,1.48.04.2.05.37.05.48,0,.11-.01.17-.02.17Z"/>
              <path class="cls-7" d="m284.93,203.75c-.06.05-.62-.46-1.26-1.15-.64-.69-1.1-1.29-1.05-1.35.06-.05.62.46,1.26,1.15.64.69,1.1,1.29,1.05,1.35Z"/>
            </g>
            <g>
              <path class="cls-7" d="m180.83,197.38h1.4c1.07,0,1.79.67,1.79,1.66s-.73,1.66-1.79,1.66h-1.4v-3.32Zm1.37,2.9c.82,0,1.35-.5,1.35-1.25s-.53-1.25-1.35-1.25h-.9v2.49h.9Z"/>
              <path class="cls-7" d="m186.67,199.18v1.52h-.43v-.33c-.15.23-.43.36-.82.36-.57,0-.93-.3-.93-.74,0-.4.26-.73,1.01-.73h.72v-.09c0-.38-.22-.61-.67-.61-.3,0-.6.1-.8.27l-.19-.34c.26-.21.64-.32,1.04-.32.69,0,1.08.33,1.08,1.02Zm-.45.75v-.35h-.7c-.45,0-.58.18-.58.39,0,.25.21.41.55.41s.61-.16.73-.45Z"/>
              <path class="cls-7" d="m188.93,200.55c-.14.12-.35.18-.55.18-.51,0-.8-.28-.8-.79v-1.38h-.43v-.37h.43v-.55h.45v.55h.72v.37h-.72v1.36c0,.27.14.42.39.42.13,0,.26-.04.36-.12l.14.33Z"/>
              <path class="cls-7" d="m191.65,199.59h-2.04c.06.44.41.73.91.73.29,0,.54-.1.73-.3l.25.29c-.23.27-.57.41-.99.41-.81,0-1.35-.54-1.35-1.28s.54-1.28,1.26-1.28,1.24.52,1.24,1.29c0,.04,0,.1,0,.14Zm-2.04-.33h1.61c-.05-.42-.37-.72-.81-.72s-.76.29-.81.72Z"/>
              <path class="cls-7" d="m192.08,198.48c0-.19.15-.32.32-.32s.31.13.31.32-.14.33-.31.33-.32-.14-.32-.33Zm0,1.91c0-.19.15-.32.32-.32s.31.13.31.32-.14.33-.31.33-.32-.14-.32-.33Z"/>
            </g>
            <path class="cls-7" d="m208.24,199.6c0,.13-1.87.23-4.17.23s-4.17-.1-4.17-.23,1.87-.23,4.17-.23,4.17.1,4.17.23Z"/>
            <path class="cls-7" d="m240.07,199.66c0,.13-6,.23-13.39.23s-13.39-.1-13.39-.23,5.99-.23,13.39-.23,13.39.1,13.39.23Z"/>
          </g>
        </g>
      </g>
      <g>
        <g>
          <path class="cls-14" d="m452.45,320.68l-66.79-34.17c-4.62-2.36-6.44-8.02-4.08-12.63l47.29-92.44c2.36-4.62,8.02-6.44,12.63-4.08l42.36,21.67,15.5,50.57-34.28,67c-2.36,4.62-8.02,6.44-12.63,4.08Z"/>
          <g class="cls-17">
            <path class="cls-10" d="m452.45,320.68s.13.05.38.15c.25.12.63.27,1.14.42,1.02.31,2.65.61,4.7.18,2-.44,4.49-1.73,6.02-4.37,1.42-2.67,2.98-5.82,4.77-9.32,7.14-14,17.35-34.05,29.7-58.26v.17c-4.71-15.29-9.95-32.35-15.55-50.56l.13.16c-7.85-4.01-16.03-8.2-24.44-12.5-4.21-2.15-8.47-4.33-12.79-6.54-1.08-.55-2.16-1.1-3.24-1.66-1.09-.54-2.15-1.17-3.28-1.53-2.26-.73-4.82-.52-6.95.59-1.48.77-2.75,1.94-3.6,3.37-.82,1.46-1.57,3.02-2.35,4.52-1.55,3.03-3.09,6.03-4.61,9.02-3.05,5.97-6.06,11.85-9.02,17.63-5.92,11.56-11.63,22.7-17.06,33.32-2.72,5.31-5.37,10.48-7.95,15.51-1.29,2.51-2.56,4.99-3.81,7.43-.63,1.22-1.25,2.43-1.86,3.63-.6,1.21-1.3,2.36-1.65,3.6-.72,2.49-.28,5.22,1.04,7.34.66,1.06,1.53,1.98,2.54,2.68,1.01.68,2.16,1.19,3.25,1.77,4.38,2.25,8.59,4.41,12.6,6.46,16.04,8.25,29.02,14.92,38,19.54,4.47,2.31,7.95,4.11,10.32,5.34,1.17.61,2.06,1.08,2.68,1.4.6.32.9.49.9.49,0,0-.32-.14-.93-.44-.62-.31-1.52-.76-2.7-1.35-2.38-1.21-5.87-2.97-10.37-5.25-9-4.58-22.01-11.2-38.08-19.39-4.02-2.05-8.23-4.2-12.61-6.43-1.09-.58-2.22-1.07-3.3-1.79-1.06-.73-1.97-1.69-2.66-2.8-1.39-2.21-1.86-5.07-1.1-7.69.37-1.33,1.09-2.48,1.67-3.69.61-1.2,1.23-2.41,1.85-3.63,1.25-2.44,2.51-4.92,3.8-7.44,2.57-5.03,5.22-10.21,7.93-15.52,5.43-10.62,11.13-21.77,17.04-33.33,2.96-5.78,5.96-11.66,9.01-17.63,1.53-2.98,3.06-5.99,4.61-9.02.79-1.51,1.51-3.03,2.37-4.55.9-1.51,2.25-2.76,3.81-3.57,2.26-1.18,4.97-1.4,7.37-.62,1.22.39,2.27,1.03,3.36,1.56,1.08.55,2.17,1.11,3.24,1.66,4.31,2.21,8.58,4.39,12.78,6.54,8.41,4.31,16.59,8.49,24.44,12.51l.1.05.03.11c5.57,18.21,10.79,35.28,15.47,50.58l.03.09-.04.08c-12.41,24.18-22.69,44.19-29.87,58.17-1.81,3.49-3.37,6.61-4.83,9.3-1.58,2.69-4.13,3.97-6.16,4.4-2.08.42-3.73.08-4.75-.25-.52-.16-.89-.33-1.14-.46-.25-.12-.37-.19-.37-.19Z"/>
          </g>
        </g>
        <path class="cls-10" d="m465.49,221.11c-.17.33-7.23-2.93-15.76-7.3-8.53-4.37-15.31-8.17-15.14-8.51.17-.33,7.23,2.93,15.76,7.3,8.53,4.36,15.31,8.17,15.14,8.51Z"/>
        <path class="cls-10" d="m477.92,246.03c-.17.33-11.69-5.22-25.74-12.4-14.05-7.19-25.29-13.28-25.12-13.61.17-.33,11.69,5.22,25.74,12.4,14.04,7.18,25.29,13.28,25.12,13.61Z"/>
        <path class="cls-10" d="m476.22,260.66c-.17.33-12.72-5.74-28.03-13.57-15.31-7.83-27.58-14.45-27.41-14.79.17-.33,12.72,5.74,28.03,13.58,15.31,7.83,27.58,14.45,27.41,14.78Z"/>
        <path class="cls-10" d="m470.29,272.25c-.17.33-12.72-5.74-28.02-13.57-15.31-7.83-27.58-14.45-27.41-14.79.17-.33,12.72,5.74,28.03,13.58,15.31,7.83,27.58,14.45,27.41,14.78Z"/>
        <path class="cls-10" d="m464.36,283.84c-.17.33-12.72-5.74-28.03-13.57-15.31-7.83-27.58-14.45-27.41-14.79.17-.33,12.72,5.74,28.03,13.58,15.31,7.83,27.58,14.45,27.41,14.78Z"/>
        <path class="cls-10" d="m458.43,295.43c-.17.33-12.72-5.74-28.03-13.57-15.31-7.83-27.58-14.45-27.41-14.79.17-.33,12.72,5.74,28.03,13.57,15.31,7.83,27.58,14.45,27.41,14.78Z"/>
        <path class="cls-8" d="m483.34,198.68l-13.31,26.02c-2.2,4.29-.5,9.55,3.79,11.75l25.01,12.8-15.5-50.57Z"/>
      </g>
      <g>
        <g>
          <path class="cls-6" d="m94.81,188.28c-4.27,22.28-25.8,36.87-48.08,32.6-22.28-4.27-36.87-25.8-32.6-48.08,4.27-22.28,25.8-36.87,48.08-32.6,22.28,4.27,36.87,25.8,32.6,48.08Z"/>
          <g class="cls-20">
            <path class="cls-13" d="m62.21,140.2c-22.28-4.27-43.8,10.32-48.08,32.6,0,0,28.1,6.71,37.11-3.4,9.01-10.11,10.97-29.2,10.97-29.2Z"/>
          </g>
          <path class="cls-6" d="m84.62,185.66c-3.25,16.94-19.61,28.03-36.55,24.78-16.94-3.25-28.03-19.61-24.78-36.55,3.25-16.94,19.61-28.03,36.55-24.78,16.94,3.25,28.03,19.61,24.78,36.55Z"/>
          <g class="cls-21">
            <path class="cls-5" d="m84.62,185.66c-3.25,16.94-19.61,28.03-36.55,24.78-16.94-3.25-28.03-19.61-24.78-36.55,3.25-16.94,19.61-28.03,36.55-24.78,16.94,3.25,28.03,19.61,24.78,36.55Z"/>
          </g>
          <path class="cls-6" d="m85.24,187.11c-3.21,16.71-19.35,27.66-36.06,24.45-16.71-3.21-27.66-19.35-24.45-36.06,3.21-16.71,19.35-27.66,36.06-24.45,16.71,3.21,27.66,19.35,24.45,36.06Z"/>
          <g class="cls-21">
            <path class="cls-13" d="m85.24,187.11c-3.21,16.71-19.35,27.66-36.06,24.45-16.71-3.21-27.66-19.35-24.45-36.06,3.21-16.71,19.35-27.66,36.06-24.45,16.71,3.21,27.66,19.35,24.45,36.06Z"/>
          </g>
        </g>
        <path class="cls-13" d="m16.49,192.88s-.05-.12-.13-.35c-.08-.26-.18-.6-.31-1.02-.14-.44-.29-.98-.43-1.63-.14-.64-.33-1.36-.44-2.18-.07-.41-.14-.84-.21-1.28-.07-.45-.1-.91-.16-1.4-.12-.96-.15-2-.2-3.1-.03-2.18.08-4.59.45-7.09.39-2.49.99-4.83,1.67-6.91.37-1.03.7-2.01,1.11-2.9.19-.45.36-.88.56-1.29.2-.4.39-.79.58-1.16.35-.75.75-1.38,1.07-1.95.32-.57.63-1.05.89-1.43.24-.36.44-.65.6-.88.14-.2.22-.3.23-.29,0,0-.05.12-.17.33-.14.24-.32.54-.55.91-.25.39-.54.87-.84,1.45-.31.58-.69,1.22-1.02,1.97-.18.37-.36.76-.56,1.16-.19.41-.35.84-.54,1.29-.39.88-.71,1.87-1.07,2.89-.66,2.07-1.25,4.39-1.64,6.86-.36,2.48-.48,4.87-.47,7.04.04,1.08.06,2.12.17,3.08.05.48.08.95.14,1.39.06.44.13.87.19,1.28.1.82.28,1.54.4,2.18.12.64.25,1.19.37,1.63.1.42.19.76.25,1.03.05.24.08.36.07.37Z"/>
        <path class="cls-13" d="m46.39,175.11s-.39-.33-.72-1.06c-.33-.72-.58-1.86-.31-3.07.28-1.21,1-2.13,1.61-2.63.62-.51,1.1-.67,1.11-.64.03.05-.41.27-.96.8-.55.52-1.2,1.4-1.46,2.54-.26,1.13-.06,2.21.21,2.92.27.72.56,1.11.52,1.14Z"/>
        <path class="cls-13" d="m55.49,164.68c-.08-.02-.04-.59.09-1.29.13-.7.31-1.25.39-1.23.08.02.04.59-.09,1.29-.13.7-.31,1.25-.39,1.23Z"/>
        <path class="cls-13" d="m62.76,148.86s-.36-.06-.98-.23c-.31-.09-.69-.19-1.14-.28-.45-.09-.95-.23-1.52-.31-.57-.1-1.19-.21-1.86-.28-.67-.1-1.39-.14-2.15-.19-1.52-.07-3.19-.06-4.94.11-1.75.18-3.39.5-4.86.86-.73.2-1.43.38-2.07.61-.65.2-1.23.43-1.77.64-.54.19-1.01.42-1.43.6-.42.18-.78.35-1.06.5-.58.28-.9.43-.91.42-.01-.02.3-.2.86-.52.28-.16.63-.35,1.05-.55.42-.2.88-.44,1.42-.65.53-.22,1.12-.47,1.77-.68.64-.24,1.34-.43,2.08-.64,1.48-.39,3.14-.71,4.91-.89,1.76-.17,3.45-.17,4.98-.08.76.06,1.49.11,2.17.22.68.08,1.3.2,1.87.32.57.1,1.08.25,1.52.36.45.11.83.23,1.13.33.62.2.95.32.94.34Z"/>
        <path class="cls-13" d="m52.05,219.74s-.27.04-.76.06c-.49.02-1.19.01-2.07-.04-1.74-.1-4.15-.43-6.71-1.2-2.56-.77-4.75-1.82-6.26-2.7-.76-.44-1.35-.82-1.75-1.11-.4-.28-.61-.45-.6-.46.01-.02.25.11.66.37.41.26,1.02.61,1.79,1.02,1.52.83,3.71,1.83,6.24,2.6,2.53.76,4.91,1.13,6.64,1.28.86.08,1.57.12,2.05.14.49.02.76.04.76.06Z"/>
      </g>
    </g>
  </g>
</svg>