<svg xmlns="http://www.w3.org/2000/svg" xmlns:xlink="http://www.w3.org/1999/xlink" width="68" height="68" viewBox="0 0 68 68">
  <defs>
    <filter id="Path_12891" x="0" y="0" width="68" height="68" filterUnits="userSpaceOnUse">
      <feOffset dy="3" input="SourceAlpha"/>
      <feGaussianBlur stdDeviation="3" result="blur"/>
      <feFlood flood-opacity="0.655"/>
      <feComposite operator="in" in2="blur"/>
      <feComposite in="SourceGraphic"/>
    </filter>
  </defs>
  <g id="video-icon" transform="translate(-246.75 -118.651)">
    <g id="ios-play-circle" transform="translate(255.75 125)">
      <g transform="matrix(1, 0, 0, 1, -9, -6.35)" filter="url(#Path_12891)">
        <path id="Path_12891-2" data-name="Path 12891" d="M25,0A25,25,0,1,1,0,25,25,25,0,0,1,25,0Z" transform="translate(9 6)" fill="#fff"/>
      </g>
      <path id="Path_12892" data-name="Path 12892" d="M9.327,1.012a2,2,0,0,1,3.478,0l9.063,15.951a2,2,0,0,1-1.739,2.988H2A2,2,0,0,1,.264,16.963Z" transform="translate(37.451 13.651) rotate(90)" fill="#0721c7"/>
    </g>
  </g>
</svg>
