<svg xmlns="http://www.w3.org/2000/svg" width="20" height="19" viewBox="0 0 20 19">
  <path id="Path_11831" data-name="Path 11831" d="M82-861a1.926,1.926,0,0,1-1.412-.588A1.926,1.926,0,0,1,80-863v-11a1.926,1.926,0,0,1,.588-1.412A1.926,1.926,0,0,1,82-876h4v-2a1.926,1.926,0,0,1,.588-1.412A1.926,1.926,0,0,1,88-880h4a1.926,1.926,0,0,1,1.412.588A1.926,1.926,0,0,1,94-878v2h4a1.926,1.926,0,0,1,1.412.588A1.926,1.926,0,0,1,100-874v11a1.926,1.926,0,0,1-.588,1.412A1.926,1.926,0,0,1,98-861Zm6-15h4v-2H88Zm10,9H93v2H87v-2H82v4H98Zm-9,0h2v-2H89Zm-7-2h5v-2h6v2h5v-5H82ZM90-868Z" transform="translate(-80 880)" fill="#09143e"/>
</svg>
