<svg xmlns="http://www.w3.org/2000/svg" width="20" height="18" viewBox="0 0 20 18">
  <path id="Path_11835" data-name="Path 11835" d="M80-822v-2h4v-4H82v-2h2.1a5.763,5.763,0,0,1,1.662-3.237A5.763,5.763,0,0,1,89-834.9V-840h7v4H91v1.1a5.763,5.763,0,0,1,3.238,1.663A5.763,5.763,0,0,1,95.9-830H98v2H96v4h4v2Zm6-2h3v-4H86Zm5,0h3v-4H91Zm-4.85-6h7.7a3.947,3.947,0,0,0-1.425-2.162A3.844,3.844,0,0,0,90-833a3.844,3.844,0,0,0-2.425.838A3.948,3.948,0,0,0,86.15-830ZM90-830Z" transform="translate(-80 840)" fill="#09143e"/>
</svg>
