<svg xmlns="http://www.w3.org/2000/svg" width="20.835" height="18" viewBox="0 0 20.835 18">
  <path id="UGC-entitled_degree_" data-name="UGC-entitled degree " d="M11.667,38.07a2.108,2.108,0,0,1-2.088-2.1V34.259a1.041,1.041,0,0,1,1.052-1.052h2.362V29.854a4.853,4.853,0,0,1-1.936-.335,4.949,4.949,0,0,1-1.738-1.1V26.943H8.055L5.19,24.108a.9.9,0,0,1-.29-.671.672.672,0,0,1,.29-.594,7.952,7.952,0,0,1,2.073-1.113,6.527,6.527,0,0,1,2.3-.427,6.728,6.728,0,0,1,1.677.244,5.673,5.673,0,0,1,1.722.747V21.152A1.041,1.041,0,0,1,14.014,20.1H24.683a1.041,1.041,0,0,1,1.052,1.052V34.93a3.174,3.174,0,0,1-3.17,3.17h-10.9Zm3.414-4.862h5.426a1.041,1.041,0,0,1,1.052,1.052v.655a.988.988,0,0,0,.29.762,1.072,1.072,0,0,0,.762.29,1.011,1.011,0,0,0,.762-.29.988.988,0,0,0,.29-.762V22.2H15.081v1.539l5.548,5.548a2.153,2.153,0,0,1,.3.366.8.8,0,0,1,.122.442.885.885,0,0,1-.884.884.743.743,0,0,1-.427-.122,1.957,1.957,0,0,1-.351-.29l-2.713-2.728-.4.472a3.026,3.026,0,0,1-.579.533,4.8,4.8,0,0,1-.625.351ZM8.817,25.191h2.24v2.378a3.553,3.553,0,0,0,.838.412,2.7,2.7,0,0,0,.854.137,2.807,2.807,0,0,0,1.3-.351,3.108,3.108,0,0,0,.93-.686l.412-.488L13.649,24.84a6.571,6.571,0,0,0-1.875-1.326,5.133,5.133,0,0,0-2.195-.488,4.21,4.21,0,0,0-1.219.168,7.868,7.868,0,0,0-1.1.442Zm2.85,10.776h8.154a.774.774,0,0,1-.274-.4,1.9,1.9,0,0,1-.091-.61H11.667Zm0,0v0Z" transform="translate(-4.9 -20.1)" fill="#09143e"/>
</svg>
