<svg xmlns="http://www.w3.org/2000/svg" width="20" height="14.545" viewBox="0 0 20 14.545">
  <path id="Path_11833" data-name="Path 11833" d="M51.818-791.818a2.63,2.63,0,0,1-1.932-.8,2.63,2.63,0,0,1-.8-1.932,2.63,2.63,0,0,1,.8-1.932,2.63,2.63,0,0,1,1.932-.8,2.63,2.63,0,0,1,1.932.8,2.63,2.63,0,0,1,.8,1.932,2.63,2.63,0,0,1-.8,1.932A2.63,2.63,0,0,1,51.818-791.818Zm-6.364,2.727a1.751,1.751,0,0,1-1.284-.534,1.751,1.751,0,0,1-.534-1.284v-7.273a1.751,1.751,0,0,1,.534-1.284A1.751,1.751,0,0,1,45.455-800H58.182a1.751,1.751,0,0,1,1.284.534A1.751,1.751,0,0,1,60-798.182v7.273a1.751,1.751,0,0,1-.534,1.284,1.751,1.751,0,0,1-1.284.534Zm1.818-1.818h9.091a1.751,1.751,0,0,1,.534-1.284,1.751,1.751,0,0,1,1.284-.534v-3.636A1.751,1.751,0,0,1,56.9-796.9a1.751,1.751,0,0,1-.534-1.284H47.273a1.751,1.751,0,0,1-.534,1.284,1.751,1.751,0,0,1-1.284.534v3.636a1.751,1.751,0,0,1,1.284.534A1.751,1.751,0,0,1,47.273-790.909Zm10,5.455H41.818a1.751,1.751,0,0,1-1.284-.534A1.751,1.751,0,0,1,40-787.273v-10h1.818v10H57.273Zm-11.818-5.455v0Z" transform="translate(-40 800)" fill="#09143e"/>
</svg>
