<svg id="Group_15689" data-name="Group 15689" xmlns="http://www.w3.org/2000/svg" width="22.087" height="17.733" viewBox="0 0 22.087 17.733">
  <path id="Path_6137" data-name="Path 6137" d="M23.848,31.49l4.354-2.5-4.354-2.5-4.354,2.5Zm0,3.316,3-1.742V30.787l-3,1.742-3-1.742v2.277ZM11.641,23h18.5a1.544,1.544,0,0,1,1.122.5,1.572,1.572,0,0,1,.5,1.122v14.15a1.544,1.544,0,0,1-.5,1.122,1.572,1.572,0,0,1-1.122.5h-9.26V38.774h9.243V24.641H11.641V29.43H10V24.641A1.721,1.721,0,0,1,11.641,23ZM10,40.415h2.713a2.835,2.835,0,0,0-.787-2.009A2.571,2.571,0,0,0,10,37.585Zm4.354,0h1.624a5.913,5.913,0,0,0-1.742-4.3A5.619,5.619,0,0,0,10,34.32v1.624a4.1,4.1,0,0,1,3.081,1.306A4.346,4.346,0,0,1,14.354,40.415ZM10,31.054v1.624a7.094,7.094,0,0,1,2.981.62,7.559,7.559,0,0,1,2.411,1.658A7.705,7.705,0,0,1,17.016,37.4a7.57,7.57,0,0,1,.6,3.014h1.624a9.14,9.14,0,0,0-.72-3.634A9.549,9.549,0,0,0,16.547,33.8,9.033,9.033,0,0,0,13.6,31.791,8.874,8.874,0,0,0,10,31.054Z" transform="translate(-9.833 -22.849)" fill="#1c1c1c"/>
  <path id="Path_6138" data-name="Path 6138" d="M29.3,39.833H19.884V37.874h9.243V24.059H10.976v4.789H9V23.892a1.742,1.742,0,0,1,.536-1.239,1.7,1.7,0,0,1,1.256-.553H29.3a1.668,1.668,0,0,1,1.239.553,1.723,1.723,0,0,1,.553,1.239v14.15A1.9,1.9,0,0,1,29.3,39.833ZM20.219,39.5H29.3a1.553,1.553,0,0,0,1.457-1.457V23.892A1.553,1.553,0,0,0,29.3,22.435H10.808a1.4,1.4,0,0,0-1.021.452,1.373,1.373,0,0,0-.435,1v4.622h1.289V23.724H29.479V38.209h-9.26Zm-1.624.335H16.619v-.167a7.587,7.587,0,0,0-.586-2.947,7.394,7.394,0,0,0-1.591-2.395A7.808,7.808,0,0,0,12.081,32.7a7.036,7.036,0,0,0-2.914-.6H9V30.138h.167a9.062,9.062,0,0,1,3.684.754,9.811,9.811,0,0,1,3,2.043,9.675,9.675,0,0,1,2.009,3.031,9.479,9.479,0,0,1,.737,3.7ZM16.954,39.5h1.289a8.876,8.876,0,0,0-.7-3.4,9.422,9.422,0,0,0-1.942-2.93,9.174,9.174,0,0,0-2.9-1.976,8.871,8.871,0,0,0-3.383-.72v1.289a7.521,7.521,0,0,1,2.88.62,8.161,8.161,0,0,1,2.462,1.691,8.022,8.022,0,0,1,1.658,2.5A7.545,7.545,0,0,1,16.954,39.5Zm-1.624.335H13.354v-.167a4.2,4.2,0,0,0-1.222-3.048,3.974,3.974,0,0,0-2.964-1.256H9V33.4h.167a5.879,5.879,0,0,1,4.354,1.825,6.147,6.147,0,0,1,1.792,4.421v.184ZM13.689,39.5h1.306A5.737,5.737,0,0,0,13.3,35.479a5.534,5.534,0,0,0-3.969-1.742v1.289a4.256,4.256,0,0,1,3.048,1.356A4.53,4.53,0,0,1,13.689,39.5Zm-1.624.335H9V36.668h.167a2.759,2.759,0,0,1,2.043.871,2.986,2.986,0,0,1,.837,2.127v.167ZM9.335,39.5h2.378a2.65,2.65,0,0,0-.737-1.725A2.37,2.37,0,0,0,9.335,37Zm13.681-5.241-3.165-1.842V29.736l3.165,1.842,3.165-1.842v2.679Zm-2.83-2.043,2.83,1.641,2.83-1.641V30.322l-2.83,1.641-2.83-1.641v1.892Zm2.83-1.273-4.689-2.7,4.689-2.7,4.689,2.7ZM19,28.246l4.019,2.311,4.019-2.311-4.019-2.311Z" transform="translate(-9 -22.1)" fill="#09143e"/>
</svg>
