<svg xmlns="http://www.w3.org/2000/svg" width="20.952" height="20" viewBox="0 0 20.952 20">
  <path id="Path_11832" data-name="Path 11832" d="M47.238-880l-1.81-3.048L42-883.81l.333-3.524L40-890l2.333-2.667L42-896.19l3.429-.762L47.238-900l3.238,1.381L53.714-900l1.81,3.048,3.429.762-.333,3.524L60.952-890l-2.333,2.667.333,3.524-3.429.762L53.714-880l-3.238-1.381Zm.81-2.429,2.429-1.048,2.476,1.048,1.333-2.286,2.619-.619L56.667-888l1.762-2-1.762-2.048.238-2.667-2.619-.571L52.9-897.571l-2.429,1.048L48-897.571l-1.333,2.286-2.619.571.238,2.667L42.524-890l1.762,2-.238,2.714,2.619.571ZM50.476-890Zm-1,3.381L54.857-892l-1.333-1.381-4.048,4.048-2.048-2L46.1-890Z" transform="translate(-40 900)" fill="#09143e"/>
</svg>
