<?xml version="1.0" encoding="utf-8"?>
<!-- Generator: Adobe Illustrator 27.4.0, SVG Export Plug-In . SVG Version: 6.00 Build 0)  -->
<svg version="1.1" id="Layer_1" xmlns="http://www.w3.org/2000/svg" xmlns:xlink="http://www.w3.org/1999/xlink" x="0px" y="0px"
	 viewBox="0 0 150 150" enable-background="new 0 0 150 150" xml:space="preserve">
<g>
	<g>
		<rect fill="none" width="150" height="150"/>
	</g>
	<g>
		<rect x="10" y="10" fill="none" width="130" height="130"/>
	</g>
</g>
<g>
	<path d="M71.4,121.1h-46V60.4h86.2v14.7c0,1.1,0.9,1.9,1.9,1.9h9c1.1,0,1.9-0.9,1.9-1.9V30c0-2.9-1.1-5.5-3.3-7.7
		c-2.2-2.2-4.8-3.3-7.7-3.3h-7.8v-7.1c0-1.1-0.9-1.9-1.9-1.9h-9.8c-1.1,0-1.9,0.9-1.9,1.9V19H45v-7.1c0-1.1-0.9-1.9-1.9-1.9h-9.8
		c-1.1,0-1.9,0.9-1.9,1.9V19h-7.8c-2.9,0-5.5,1.1-7.7,3.3c-2.2,2.2-3.3,4.8-3.3,7.7V123c0,2.9,1.1,5.5,3.3,7.7
		c2.2,2.2,4.8,3.3,7.7,3.3h47.9c1.1,0,1.9-0.9,1.9-1.9v-9C73.3,122,72.5,121.1,71.4,121.1z M25.4,47.5V31.9h86.2v15.6H25.4z"/>
	<path d="M114.2,93.6c-0.8-0.8-2-0.8-2.7,0L79,126c-0.4,0.4-0.6,0.9-0.6,1.4v10.7c0,1.1,0.9,1.9,1.9,1.9h10.7c0.5,0,1-0.2,1.4-0.6
		l32.4-32.4c0.4-0.4,0.6-0.9,0.6-1.4c0-0.5-0.2-1-0.6-1.4L114.2,93.6z"/>
	<path d="M135.7,87.2C135.7,87.2,135.7,87.1,135.7,87.2l-4.4-4.4c-1.2-1.2-2.7-1.8-4.5-1.8c-1.8,0-3.3,0.6-4.5,1.8l-4.4,4.4
		c-0.4,0.4-0.6,0.9-0.6,1.4c0,0.5,0.2,1,0.6,1.4l10.7,10.7c0.4,0.4,0.9,0.6,1.4,0.6c0.5,0,1-0.2,1.4-0.6l4.4-4.4
		c1.2-1.2,1.8-2.7,1.8-4.5C137.4,89.9,136.9,88.4,135.7,87.2z"/>
</g>
<text transform="matrix(1 0 0 1 51.9155 -24.6363)" font-family="'MyriadPro-Regular'" font-size="100.4665px">7</text>
</svg>
