<?xml version="1.0" encoding="utf-8"?>
<!-- Generator: Adobe Illustrator 27.4.0, SVG Export Plug-In . SVG Version: 6.00 Build 0)  -->
<svg version="1.1" id="Layer_1" xmlns="http://www.w3.org/2000/svg" xmlns:xlink="http://www.w3.org/1999/xlink" x="0px" y="0px"
	 viewBox="0 0 150 150" enable-background="new 0 0 150 150" xml:space="preserve">
<g>
	<g>
		<rect fill="none" width="150" height="150"/>
	</g>
	<g>
		<rect x="10" y="10" fill="none" width="130" height="130"/>
	</g>
</g>
<path d="M75.1,140.1c-9,0-17.4-1.7-25.3-5.1C41.9,131.5,35,126.9,29,121c-5.9-5.9-10.6-12.8-14-20.7C11.6,92.5,9.9,84,9.9,75.1
	c0-9,1.7-17.4,5.1-25.3c3.4-7.9,8.1-14.8,14-20.6c5.9-5.9,12.8-10.6,20.7-14c7.9-3.5,16.3-5.2,25.3-5.2s17.4,1.7,25.2,5.2
	c7.8,3.5,14.7,8.1,20.6,14s10.6,12.7,14,20.6c3.4,7.9,5.1,16.3,5.1,25.3c0,9-1.7,17.4-5.1,25.3c-3.4,7.9-8.1,14.8-14,20.7
	c-5.9,5.9-12.8,10.5-20.7,13.9C92.4,138.4,84,140.1,75.1,140.1z M68.7,125.5v-12.4c-3.6,0-6.5-1.3-8.9-3.9c-2.3-2.6-3.5-5.6-3.5-9.1
	v-6.6L25.8,63.1c-0.5,2-0.9,4-1.1,5.9c-0.2,1.9-0.3,3.8-0.3,5.8c0,12.9,4.2,24.2,12.5,33.9S55.9,124.1,68.7,125.5z M112.4,109.5
	c2.1-2.3,4-4.9,5.7-7.6c1.6-2.7,3-5.5,4.1-8.5c1.1-3,2-6,2.5-9.1c0.6-3.1,0.8-6.3,0.8-9.6c0-10.4-2.9-19.9-8.6-28.4
	S103.6,31.5,94,27.5v2.6c0,3.4-1.2,6.4-3.7,9c-2.5,2.6-5.4,3.8-8.9,3.8H68.7v13c0,1.8-0.7,3.2-2.1,4.3c-1.4,1.1-2.9,1.6-4.7,1.6
	H49.7v13h38.4c1.7,0,3.1,0.7,4.2,2c1.1,1.3,1.7,2.8,1.7,4.5v18.8h6.3c2.9,0,5.4,0.9,7.6,2.6C110.1,104.5,111.6,106.7,112.4,109.5z"
	/>
</svg>
