<?xml version="1.0" encoding="utf-8"?>
<!-- Generator: Adobe Illustrator 27.4.0, SVG Export Plug-In . SVG Version: 6.00 Build 0)  -->
<svg version="1.1" id="Layer_1" xmlns="http://www.w3.org/2000/svg" xmlns:xlink="http://www.w3.org/1999/xlink" x="0px" y="0px"
	 viewBox="0 0 150 150" enable-background="new 0 0 150 150" xml:space="preserve">
<g>
	<g>
		<rect fill="none" width="150" height="150"/>
	</g>
	<g>
		<rect x="10" y="10" fill="none" width="130" height="130"/>
	</g>
</g>
<g>
	<path d="M140.8,55.9L75.6,20.4c-0.4-0.2-1-0.2-1.4,0L9.2,55.9c-0.5,0.3-0.8,0.8-0.8,1.3c0,0.5,0.3,1.1,0.8,1.3l21.2,11.6v34.6
		c0,0.5,0.3,1.1,0.8,1.3l42.9,23.5c0.2,0.1,0.5,0.2,0.7,0.2s0.5-0.1,0.7-0.2l42.9-23.5c0.5-0.3,0.8-0.8,0.8-1.3V70.2l10.5-5.3v39.3
		c0,0.8,0.7,1.5,1.5,1.5h8.9c0.8,0,1.5-0.7,1.5-1.5V57.3C141.6,56.7,141.3,56.2,140.8,55.9z M118.3,57.3L74.9,81L31.7,57.3L74.9,34
		L118.3,57.3z M42.3,76.8l31.8,17.3c0.4,0.2,1,0.2,1.4,0l31.8-17v21.5l-32.5,18l-32.5-18V76.8z"/>
	<path d="M74.9,130.2c-0.3,0-0.7-0.1-1-0.2L31,106.5c-0.6-0.4-1-1-1-1.8V70.4L9,59c-0.6-0.3-1-1-1-1.8s0.4-1.4,1-1.8L73.9,20
		c0.6-0.3,1.3-0.3,1.9,0L141,55.5c0.6,0.4,1,1,1,1.8v46.9c0,1.1-0.9,2-2,2h-8.9c-1.1,0-2-0.9-2-2V65.7l-9.5,4.8v34.3
		c0,0.7-0.4,1.4-1,1.8L75.8,130C75.5,130.1,75.2,130.2,74.9,130.2z M74.9,20.8c-0.2,0-0.3,0-0.5,0.1L9.5,56.4
		c-0.3,0.2-0.5,0.5-0.5,0.9c0,0.4,0.2,0.7,0.5,0.9L31,69.8v34.9c0,0.4,0.2,0.7,0.5,0.9l42.9,23.5c0.3,0.2,0.7,0.2,1,0l42.9-23.5
		c0.3-0.2,0.5-0.5,0.5-0.9V69.8l11.5-5.8v40.1c0,0.6,0.4,1,1,1h8.9c0.6,0,1-0.4,1-1V57.3c0-0.4-0.2-0.7-0.5-0.9L75.3,20.9
		C75.2,20.8,75,20.8,74.9,20.8z M74.9,117l-0.2-0.1L41.8,98.8V75.9l32.5,17.7c0.3,0.2,0.7,0.2,0.9,0l32.5-17.4v22.6L74.9,117z
		 M42.8,98.2l32,17.7l32-17.7V77.9L75.8,94.5c-0.6,0.3-1.3,0.3-1.9,0L42.8,77.6V98.2z M74.9,81.5L30.7,57.3l44.2-23.9l44.5,23.9
		L74.9,81.5z M32.7,57.3l42.1,23.1l42.4-23.1L74.9,34.5L32.7,57.3z"/>
</g>
</svg>
