<?xml version="1.0" encoding="utf-8"?>
<!-- Generator: Adobe Illustrator 27.4.0, SVG Export Plug-In . SVG Version: 6.00 Build 0)  -->
<svg version="1.1" id="Layer_1" xmlns="http://www.w3.org/2000/svg" xmlns:xlink="http://www.w3.org/1999/xlink" x="0px" y="0px"
	 viewBox="0 0 150 150" enable-background="new 0 0 150 150" xml:space="preserve">
<g>
	<g>
		<rect fill="none" width="150" height="150"/>
	</g>
	<g>
		<rect x="10" y="10" fill="none" width="130" height="130"/>
	</g>
</g>
<g>
	<g>
		<path d="M74.2,72.9c2.3-2.9,4.1-5.9,5.2-8.9c1.1-3.1,1.7-6.6,1.7-10.7s-0.6-7.6-1.7-10.7c-1.1-3.1-2.9-6.1-5.2-8.9
			c6.9-1.5,12.9-0.5,18.1,3.1c5.2,3.6,7.8,9.1,7.8,16.5s-2.6,12.9-7.8,16.5C87.1,73.4,81.1,74.4,74.2,72.9z M103.5,117.1v-12.7
			c0-4.6-1.2-8.9-3.5-12.9s-6.4-7.3-12.2-10c15.6,2,26.3,4.9,32.1,8.7c5.7,3.8,8.6,8.5,8.6,14.2v12.7H103.5z M118.4,77.9V64.4h-13.6
			v-8.1h13.6V42.7h8.1v13.6h13.6v8.1h-13.6v13.6H118.4z M52.6,73.6c-6,0-10.8-1.9-14.6-5.7s-5.7-8.7-5.7-14.6s1.9-10.8,5.7-14.6
			c3.8-3.8,8.7-5.7,14.6-5.7s10.8,1.9,14.6,5.7c3.8,3.8,5.7,8.7,5.7,14.6s-1.9,10.8-5.7,14.6C63.5,71.7,58.6,73.6,52.6,73.6z
			 M9.9,117.1v-12.7c0-3.2,0.8-6,2.5-8.6c1.7-2.6,3.9-4.5,6.7-5.8c6.5-2.9,12.3-5,17.4-6.2c5.1-1.3,10.5-1.9,16.1-1.9
			s10.9,0.6,16,1.9C73.7,85,79.5,87.1,86,90c2.8,1.3,5.1,3.2,6.8,5.8c1.7,2.6,2.6,5.4,2.6,8.6v12.7H9.9z M52.6,65.5
			c3.5,0,6.4-1.2,8.7-3.5s3.5-5.2,3.5-8.7s-1.2-6.4-3.5-8.7s-5.2-3.5-8.7-3.5s-6.4,1.2-8.7,3.5s-3.5,5.2-3.5,8.7s1.2,6.4,3.5,8.7
			S49.1,65.5,52.6,65.5z M18.1,109h69.1v-4.6c0-1.4-0.4-2.8-1.1-4.1c-0.7-1.3-1.9-2.3-3.4-3c-6.2-2.9-11.5-4.8-15.9-5.8
			S57.8,90,52.6,90s-9.9,0.5-14.2,1.5s-9.6,2.9-16.1,5.8c-1.4,0.6-2.4,1.6-3.2,2.9c-0.8,1.3-1.2,2.7-1.2,4.1V109z"/>
		<path d="M129.4,118.1h-26.9v-13.7c0-4.4-1.1-8.6-3.4-12.4c-2.2-3.8-6.2-7-11.8-9.6l-5.8-2.7l6.3,0.8c15.7,2,26.6,5,32.5,8.8
			c6,4,9.1,9,9.1,15.1V118.1z M104.5,116.1h22.9v-11.7c0-5.4-2.7-9.8-8.2-13.4c-4.9-3.2-13.7-5.9-26.3-7.8c3.5,2.3,6.1,4.9,7.8,7.8
			c2.4,4.1,3.7,8.6,3.7,13.4V116.1z M96.3,118.1H8.9v-13.7c0-3.3,0.9-6.4,2.7-9.1c1.8-2.7,4.2-4.8,7.1-6.1c6.5-2.9,12.4-5,17.6-6.3
			c5.2-1.3,10.6-1.9,16.3-1.9s11.1,0.6,16.2,1.9c5.1,1.3,11,3.4,17.5,6.3c3,1.3,5.4,3.4,7.2,6.1c1.8,2.7,2.7,5.8,2.7,9.2V118.1z
			 M10.9,116.1h83.4v-11.7c0-2.9-0.8-5.7-2.4-8.1c-1.6-2.4-3.7-4.2-6.4-5.4C79.1,88,73.4,86,68.4,84.7c-5-1.2-10.3-1.9-15.7-1.9
			c-5.5,0-10.8,0.6-15.8,1.9C31.8,86,26,88,19.6,90.9c-2.6,1.2-4.7,3-6.3,5.4c-1.6,2.4-2.3,5.1-2.3,8.1V116.1z M88.2,110H17.1v-5.6
			c0-1.6,0.4-3.2,1.3-4.6c0.9-1.5,2.1-2.6,3.6-3.3c6.5-2.9,11.9-4.9,16.3-5.9c4.3-1,9.2-1.5,14.4-1.5c5.2,0,10.1,0.5,14.5,1.5
			c4.4,1,9.8,3,16.1,5.9c1.7,0.8,3,2,3.8,3.4c0.8,1.4,1.2,2.9,1.2,4.6V110z M19.1,108h67.1v-3.6c0-1.3-0.3-2.5-1-3.6
			c-0.6-1.1-1.6-1.9-2.9-2.6c-6.1-2.8-11.4-4.8-15.7-5.8c-4.2-1-9-1.5-14-1.5c-5,0-9.7,0.5-13.9,1.5c-4.2,1-9.5,2.9-15.9,5.8
			c-1.2,0.5-2.1,1.4-2.7,2.5c-0.7,1.1-1,2.4-1,3.6V108z M127.5,78.9h-10.1V65.4h-13.6V55.2h13.6V41.7h10.1v13.6h13.6v10.1h-13.6
			V78.9z M119.4,76.9h6.1V63.4h13.6v-6.1h-13.6V43.7h-6.1v13.6h-13.6v6.1h13.6V76.9z M80.1,74.6c-2,0-4-0.2-6.1-0.7l-1.6-0.4l1-1.3
			c2.3-2.8,4-5.7,5.1-8.7c1.1-2.9,1.6-6.4,1.6-10.4s-0.5-7.4-1.6-10.4c-1.1-3-2.8-5.9-5.1-8.7l-1-1.3l1.6-0.4
			c7.1-1.6,13.5-0.5,18.9,3.3c5.5,3.8,8.2,9.6,8.2,17.4c0,7.7-2.8,13.6-8.2,17.4C89,73.3,84.8,74.6,80.1,74.6z M76,72.2
			c5.9,1,11.2-0.1,15.7-3.3c5-3.4,7.4-8.6,7.4-15.7c0-7.1-2.4-12.3-7.4-15.7c-4.5-3.2-9.8-4.2-15.7-3.3c1.9,2.6,3.4,5.2,4.4,7.9
			c1.2,3.2,1.8,6.9,1.8,11.1c0,4.2-0.6,7.9-1.8,11.1C79.3,67,77.9,69.7,76,72.2z M52.6,74.6c-6.2,0-11.4-2-15.3-6c-4-4-6-9.1-6-15.3
			s2-11.4,6-15.3c4-4,9.1-6,15.3-6s11.4,2,15.3,6c4,4,6,9.1,6,15.3s-2,11.4-6,15.3C64,72.6,58.8,74.6,52.6,74.6z M52.6,33.9
			c-5.7,0-10.3,1.8-13.9,5.4c-3.6,3.6-5.4,8.3-5.4,13.9c0,5.7,1.8,10.3,5.4,13.9c3.6,3.6,8.3,5.4,13.9,5.4s10.3-1.8,13.9-5.4
			c3.6-3.6,5.4-8.3,5.4-13.9s-1.8-10.3-5.4-13.9C63,35.7,58.3,33.9,52.6,33.9z M52.6,66.5c-3.8,0-7-1.3-9.4-3.7
			c-2.5-2.5-3.7-5.7-3.7-9.4c0-3.8,1.3-7,3.7-9.4c2.5-2.5,5.7-3.7,9.4-3.7s7,1.3,9.4,3.7c2.5,2.5,3.7,5.7,3.7,9.4
			c0,3.8-1.3,7-3.7,9.4C59.6,65.2,56.4,66.5,52.6,66.5z M52.6,42.1c-3.3,0-5.9,1-8,3.2c-2.1,2.1-3.2,4.8-3.2,8c0,3.3,1,5.9,3.2,8
			s4.8,3.2,8,3.2s5.9-1,8-3.2s3.2-4.8,3.2-8c0-3.3-1-5.9-3.2-8C58.5,43.1,55.9,42.1,52.6,42.1z"/>
	</g>
</g>
<text transform="matrix(1 0 0 1 52.639 -24.6363)" font-family="'MyriadPro-Regular'" font-size="100.4665px">3</text>
</svg>
