<?xml version="1.0" encoding="utf-8"?>
<!-- Generator: Adobe Illustrator 27.4.0, SVG Export Plug-In . SVG Version: 6.00 Build 0)  -->
<svg version="1.1" id="Layer_1" xmlns="http://www.w3.org/2000/svg" xmlns:xlink="http://www.w3.org/1999/xlink" x="0px" y="0px"
	 viewBox="0 0 150 150" enable-background="new 0 0 150 150" xml:space="preserve">
<g>
	<g>
		<rect fill="none" width="150" height="150"/>
	</g>
	<g>
		<rect x="10" y="10" fill="none" width="130" height="130"/>
	</g>
</g>
<g id="Group_13284_00000049917035682680556730000006972823258752187573_" transform="translate(1489 -2430)">
	<g>
		<path id="browse_activity_FILL0_wght400_GRAD0_opsz48_00000132078134080749936550000006457873322166413485_" d="M-1414,2519.1
			l7.2-15.8l15.8-7.2l-15.8-7.2l-7.2-15.7l-7.2,15.7l-15.7,7.2l15.8,7.2L-1414,2519.1z M-1464.1,2540.3c-2.3,0-4.6-1-6.2-2.6
			c-1.7-1.6-2.7-3.8-2.6-6.2v-70.7c0-2.3,1-4.6,2.6-6.2c1.6-1.7,3.8-2.7,6.2-2.6h100.1c4.8,0.1,8.7,4,8.8,8.8v70.7
			c-0.1,4.8-4,8.7-8.8,8.8L-1464.1,2540.3z M-1464.1,2531.5h100.1v-70.7h-100.1V2531.5z M-1474.4,2558c-2.4,0-4.4-2-4.4-4.4
			s2-4.4,4.4-4.4l0,0h120.7c2.4,0,4.4,2,4.4,4.4s-2,4.4-4.4,4.4H-1474.4z M-1464.1,2531.5"/>
		<path d="M-1353.6,2559h-120.7c-3,0-5.4-2.4-5.4-5.4s2.4-5.4,5.4-5.4h120.7c3,0,5.4,2.4,5.4,5.4S-1350.7,2559-1353.6,2559z
			 M-1474.4,2550.2c-1.9,0-3.4,1.5-3.4,3.4c0,1.9,1.5,3.4,3.4,3.4h120.7c1.9,0,3.4-1.5,3.4-3.4c0-1.9-1.5-3.4-3.4-3.4H-1474.4z
			 M-1363.9,2541.3l-100.1,0c0,0,0,0,0,0c-2.6,0-5.1-1.1-6.9-3c-1.9-1.8-2.9-4.3-2.9-6.9v-70.7c0-2.6,1.1-5.1,3-6.9
			c1.7-1.8,4.2-2.9,6.8-2.9c0,0,0,0,0,0h100.1c5.4,0.1,9.7,4.4,9.8,9.8v70.7C-1354.2,2536.9-1358.6,2541.2-1363.9,2541.3z
			 M-1464.1,2539.3l100.1,0c4.3-0.1,7.7-3.6,7.8-7.9v-70.6c-0.1-4.3-3.6-7.7-7.9-7.8l-100.1,0c0,0,0,0,0,0c-2,0-4,0.9-5.4,2.3
			c-1.5,1.5-2.4,3.4-2.4,5.5v70.7c0,2.1,0.8,4,2.3,5.5C-1468.1,2538.5-1466.1,2539.3-1464.1,2539.3
			C-1464.1,2539.3-1464.1,2539.3-1464.1,2539.3L-1464.1,2539.3z M-1362.9,2532.5h-102.1v-72.7h102.1V2532.5z M-1463.1,2530.5h98.1
			v-68.7h-98.1V2530.5z M-1414,2521.5l-8-17.4l-17.4-8l17.4-8l8-17.4l8,17.4l17.4,8l-17.4,8L-1414,2521.5z M-1434.6,2496.2l14.1,6.5
			l6.5,14.1l6.5-14.1l14.1-6.5l-14.1-6.5l-6.5-14.1l-6.5,14.1L-1434.6,2496.2z"/>
	</g>
</g>
</svg>
