<svg xmlns="http://www.w3.org/2000/svg" width="15.238" height="20" viewBox="0 0 15.238 20">
  <path id="Path_11830" data-name="Path 11830" d="M165.4-868.857l.833-2.714-2.19-1.762h2.714l.857-2.667.857,2.667h2.714l-2.214,1.762.833,2.714-2.19-1.69ZM161.9-860v-7.357a7.339,7.339,0,0,1-1.4-2.286,7.487,7.487,0,0,1-.5-2.738,7.353,7.353,0,0,1,2.214-5.4,7.353,7.353,0,0,1,5.4-2.214,7.353,7.353,0,0,1,5.4,2.214,7.353,7.353,0,0,1,2.214,5.4,7.487,7.487,0,0,1-.5,2.738,7.339,7.339,0,0,1-1.4,2.286V-860l-5.714-1.9Zm5.714-6.667a5.511,5.511,0,0,0,4.048-1.667,5.511,5.511,0,0,0,1.667-4.048,5.511,5.511,0,0,0-1.667-4.048,5.511,5.511,0,0,0-4.048-1.667,5.511,5.511,0,0,0-4.048,1.667,5.511,5.511,0,0,0-1.667,4.048,5.511,5.511,0,0,0,1.667,4.048A5.511,5.511,0,0,0,167.619-866.667Zm-3.81,3.833,3.81-.976,3.81.976v-2.952a8.027,8.027,0,0,1-1.8.75,7.332,7.332,0,0,1-2.012.274,7.332,7.332,0,0,1-2.012-.274,8.028,8.028,0,0,1-1.8-.75ZM167.619-864.31Z" transform="translate(-160 880)" fill="#09143e"/>
</svg>
