<?xml version="1.0" encoding="utf-8"?>
<!-- Generator: Adobe Illustrator 27.4.0, SVG Export Plug-In . SVG Version: 6.00 Build 0)  -->
<svg version="1.1" id="Layer_1" xmlns="http://www.w3.org/2000/svg" xmlns:xlink="http://www.w3.org/1999/xlink" x="0px" y="0px"
	 viewBox="0 0 150 150" enable-background="new 0 0 150 150" xml:space="preserve">
<path d="M49.3,138c-3.7,0-7-1.4-9.7-4.1c-2.7-2.7-4-6-4-9.7V113c0-2,0.7-3.6,2-4.9c1.3-1.3,2.9-2,4.9-2H58v-22
	c-4.2,0.2-8.4-0.6-12.7-2.2c-4.3-1.6-8.1-4-11.4-7.2V65h-8.3L6.8,46.4c-1.3-1.3-1.9-2.7-1.9-4.4c0-1.7,0.6-3,1.9-3.9
	c4-3,8.6-5.5,13.6-7.3c5.1-1.9,10.1-2.8,15.1-2.8c3.1,0,6.8,0.5,11,1.6c4.2,1.1,8,2.7,11.3,4.9v-7.5c0-2,0.7-3.6,2-4.9
	c1.3-1.3,2.9-2,4.9-2h70c2,0,3.6,0.7,4.9,2c1.3,1.3,2,2.9,2,4.9v90.4c0,5.7-2,10.6-6.1,14.7c-4,4-8.9,6.1-14.7,6.1H49.3z
	 M71.7,106.1h35.6c2,0,3.6,0.7,4.9,2c1.3,1.3,2,2.9,2,4.9v4.3c0,2.1,0.6,3.8,1.9,5c1.3,1.2,2.9,1.9,5,1.9s3.7-0.6,5-1.9
	c1.3-1.2,1.9-2.9,1.9-5V33.9H71.7V44l36.4,36.4c0.8,0.8,1.5,1.6,2,2.4c0.5,0.8,0.8,1.7,0.8,2.9c0,1.6-0.6,3-1.7,4.1
	c-1.1,1.1-2.5,1.7-4.1,1.7c-1.1,0-2.1-0.3-2.8-0.8c-0.8-0.5-1.5-1.1-2.3-1.9L82.2,70.9L79.6,74c-1.3,1.5-2.6,2.7-3.8,3.5
	c-1.2,0.8-2.6,1.6-4.1,2.3V106.1z M30.6,53.5h14.7v15.6c1.8,1.2,3.7,2.1,5.5,2.7c1.8,0.6,3.7,0.9,5.6,0.9c2.8,0,5.6-0.8,8.5-2.3
	c2.9-1.6,4.9-3,6.1-4.5l2.7-3.2L62.3,51.2c-3.7-3.7-7.8-6.6-12.3-8.7c-4.5-2.1-9.3-3.2-14.4-3.2c-3,0-5.7,0.4-8,1.1
	c-2.3,0.7-4.7,1.7-7.2,2.9C20.4,43.3,30.6,53.5,30.6,53.5z M49.3,124.2h53.5c-0.8-0.6-1.4-1.4-1.8-2.6c-0.4-1.2-0.6-2.5-0.6-4H49.3
	C49.3,117.6,49.3,124.2,49.3,124.2z M49.3,124.2v-6.6V124.2z"/>
</svg>
