<?xml version="1.0" encoding="UTF-8"?>
<svg id="Layer_1" data-name="Layer 1" xmlns="http://www.w3.org/2000/svg" viewBox="0 0 300 300">
  <defs>
    <style>
      .cls-1 {
        fill: #000;
        stroke-width: 0px;
      }
    </style>
  </defs>
  <path class="cls-1" d="M180,67.5v-30h120v30h-120ZM180,127.5v-30h120v30h-120ZM180,187.5v-30h120v30h-120ZM90,172.5c-12.5,0-23.12-4.37-31.87-13.12-8.75-8.75-13.12-19.37-13.12-31.88s4.38-23.13,13.12-31.88c8.75-8.75,19.37-13.12,31.87-13.12s23.12,4.38,31.87,13.12c8.75,8.75,13.12,19.38,13.12,31.88s-4.37,23.12-13.12,31.88c-8.75,8.75-19.37,13.12-31.87,13.12ZM0,262.5v-28.5c0-5.25,1.25-10.25,3.75-15,2.5-4.75,6-8.5,10.5-11.25,11.25-6.75,23.19-11.81,35.81-15.19,12.63-3.37,25.94-5.06,39.94-5.06s27.31,1.69,39.94,5.06c12.62,3.38,24.56,8.44,35.81,15.19,4.5,2.75,8,6.5,10.5,11.25,2.5,4.75,3.75,9.75,3.75,15v28.5H0ZM32.25,232.5h115.5c-8.75-5-18-8.75-27.75-11.25-9.75-2.5-19.75-3.75-30-3.75s-20.25,1.25-30,3.75c-9.75,2.5-19,6.25-27.75,11.25ZM90,142.5c4.25,0,7.81-1.44,10.69-4.31,2.87-2.87,4.31-6.44,4.31-10.69s-1.44-7.81-4.31-10.69c-2.87-2.88-6.44-4.31-10.69-4.31s-7.81,1.44-10.69,4.31c-2.87,2.88-4.31,6.44-4.31,10.69s1.44,7.81,4.31,10.69c2.87,2.87,6.44,4.31,10.69,4.31Z"/>
</svg>