<?xml version="1.0" encoding="UTF-8"?>
<svg id="Layer_1" data-name="Layer 1" xmlns="http://www.w3.org/2000/svg" viewBox="0 0 300 300">
  <defs>
    <style>
      .cls-1 {
        fill: #000;
        stroke-width: 0px;
      }
    </style>
  </defs>
  <path class="cls-1" d="M150,143.11c-19.31,0-35.7-6.74-49.18-20.22-13.48-13.48-20.22-29.87-20.22-49.18s6.74-35.7,20.22-49.18c13.48-13.48,29.87-20.22,49.18-20.22,19.31,0,35.7,6.74,49.18,20.22,13.48,13.48,20.22,29.87,20.22,49.18s-6.74,35.7-20.22,49.18c-13.48,13.48-29.87,20.22-49.18,20.22ZM0,295.69v-38.58c0-7.9,2.05-15.23,6.14-22,4.09-6.77,9.81-12.3,17.16-16.57,19.52-11.22,39.98-19.83,61.37-25.81,21.4-5.98,43.18-8.98,65.33-8.98s43.94,2.99,65.33,8.98c21.4,5.98,41.86,14.59,61.37,25.81,7.35,4.28,13.07,9.8,17.16,16.57,4.09,6.77,6.14,14.11,6.14,22v38.58H0ZM29.1,266.59h241.79v-9.47c0-2.84-.85-5.51-2.55-7.98-1.7-2.48-4.05-4.55-7.05-6.22-16.68-9.5-34.48-16.88-53.41-22.15-18.93-5.27-38.22-7.9-57.89-7.9s-38.96,2.63-57.89,7.9c-18.93,5.27-36.73,12.65-53.41,22.15-3,1.67-5.34,3.75-7.05,6.22-1.7,2.48-2.55,5.14-2.55,7.98v9.47ZM150.12,114.01c11.11,0,20.59-3.96,28.43-11.87,7.84-7.91,11.75-17.43,11.75-28.54s-3.96-20.59-11.87-28.43c-7.92-7.84-17.43-11.75-28.54-11.75-11.11,0-20.59,3.96-28.43,11.87-7.84,7.92-11.75,17.43-11.75,28.54s3.96,20.59,11.87,28.43c7.92,7.84,17.43,11.75,28.54,11.75Z"/>
</svg>