<?xml version="1.0" encoding="UTF-8"?>
<svg xmlns="http://www.w3.org/2000/svg" viewBox="0 0 200 200">
  <defs>
    <style>
      .cls-1 {
        mix-blend-mode: multiply;
      }

      .cls-2 {
        isolation: isolate;
      }

      .cls-3 {
        fill: #e0e0e0;
      }

      .cls-3, .cls-4, .cls-5, .cls-6, .cls-7 {
        stroke-width: 0px;
      }

      .cls-4 {
        fill: #c5c4c4;
      }

      .cls-5 {
        fill: #bcbcbc;
      }

      .cls-6 {
        fill: #f60;
      }

      .cls-7 {
        fill: #fff;
      }
    </style>
  </defs>
  <g class="cls-2">
    <g id="Layer_1" data-name="Layer 1">
      <g>
        <g>
          <path class="cls-5" d="m171.71,190.7H55.31c-8.04,0-14.56-6.52-14.56-14.56V15.04c0-8.04,6.52-14.56,14.56-14.56h73.82s57.14,58.89,57.14,58.89v116.77c0,8.04-6.52,14.56-14.56,14.56Z"/>
          <g class="cls-1">
            <path class="cls-4" d="m171.71,190.7s.22-.03.64-.06c.43-.02,1.06-.07,1.88-.23,1.62-.3,4.09-1.03,6.61-3.07,2.45-2.02,4.98-5.56,5.23-10.29.08-4.7,0-10.15,0-16.24-.04-24.39-.09-59.29-.15-101.46l.1.24c-17.3-17.81-36.59-37.66-57.18-58.86l.29.12c-13.69,0-27.93,0-42.59.01-7.33,0-14.76,0-22.28,0-1.88,0-3.76,0-5.65,0-1.89.03-3.8-.1-5.6.21-3.64.58-7.03,2.69-9.19,5.73-1.5,2.1-2.43,4.63-2.59,7.2-.1,2.59-.03,5.28-.05,7.91,0,5.27,0,10.51,0,15.71,0,10.4,0,20.65,0,30.72,0,20.14-.02,39.57-.02,58.08,0,9.25-.01,18.28-.02,27.05,0,4.38,0,8.7-.01,12.96,0,2.13,0,4.24,0,6.33.03,2.1-.13,4.18.27,6.14.76,3.96,3.3,7.41,6.62,9.4,1.66,1,3.51,1.65,5.39,1.9,1.87.23,3.83.12,5.74.15,7.64,0,14.97.02,21.97.03,27.98.06,50.63.1,66.3.13,7.81.03,13.88.06,18.03.08,2.05.02,3.61.03,4.69.04,1.06.01,1.6.04,1.6.04,0,0-.54.03-1.6.04-1.08,0-2.64.02-4.69.04-4.14.02-10.21.04-18.03.08-15.67.03-38.32.08-66.3.13-7,0-14.33.02-21.97.03-1.91-.03-3.83.1-5.82-.14-1.97-.26-3.91-.94-5.65-1.98-3.49-2.08-6.15-5.69-6.96-9.85-.43-2.09-.25-4.2-.29-6.28,0-2.09,0-4.2,0-6.33,0-4.25,0-8.57-.01-12.96,0-8.77-.01-17.79-.02-27.05,0-18.51-.02-37.94-.02-58.08,0-10.07,0-20.32,0-30.72,0-5.2,0-10.44,0-15.71.02-2.65-.05-5.25.05-7.97.17-2.72,1.15-5.4,2.74-7.63,2.28-3.22,5.87-5.45,9.73-6.07,1.95-.32,3.86-.19,5.74-.22,1.89,0,3.77,0,5.65,0,7.52,0,14.95,0,22.28,0,14.66,0,28.91,0,42.59.01h.17s.12.12.12.12c20.56,21.22,39.83,41.1,57.1,58.93l.1.1v.14c-.06,42.17-.11,77.07-.15,101.46-.04,6.1.02,11.52-.09,16.25-.29,4.83-2.9,8.41-5.41,10.43-2.58,2.05-5.09,2.75-6.73,3.01-.83.14-1.47.18-1.89.18-.43.01-.64,0-.64,0Z"/>
          </g>
        </g>
        <path class="cls-4" d="m119.37,43.96c0,.58-12.06,1.05-26.92,1.05-14.87,0-26.93-.47-26.93-1.05,0-.58,12.05-1.06,26.93-1.06,14.87,0,26.92.47,26.92,1.06Z"/>
        <path class="cls-4" d="m154.15,69.6c0,.58-19.84,1.05-44.31,1.05-24.48,0-44.32-.47-44.32-1.05,0-.58,19.84-1.06,44.32-1.06,24.47,0,44.31.47,44.31,1.06Z"/>
        <path class="cls-4" d="m162.13,91c0,.58-21.63,1.06-48.3,1.06-26.68,0-48.31-.47-48.31-1.06,0-.58,21.62-1.05,48.31-1.05,26.67,0,48.3.47,48.3,1.05Z"/>
        <path class="cls-4" d="m162.13,111.2c0,.58-21.63,1.06-48.3,1.06-26.68,0-48.31-.47-48.31-1.06,0-.58,21.62-1.05,48.31-1.05,26.67,0,48.3.47,48.3,1.05Z"/>
        <path class="cls-4" d="m162.13,131.4c0,.58-21.63,1.06-48.3,1.06-26.68,0-48.31-.47-48.31-1.06,0-.58,21.62-1.05,48.31-1.05,26.67,0,48.3.47,48.3,1.05Z"/>
        <path class="cls-4" d="m162.13,151.6c0,.58-21.63,1.06-48.3,1.06-26.68,0-48.31-.47-48.31-1.06,0-.58,21.62-1.05,48.31-1.05,26.67,0,48.3.47,48.3,1.05Z"/>
        <path class="cls-6" d="m128.86.45v45.34c0,7.48,6.06,13.54,13.54,13.55h43.6S128.86.45,128.86.45Z"/>
      </g>
      <g>
        <g>
          <path class="cls-7" d="m151.81,199.62H35.42c-8.04,0-14.56-6.52-14.56-14.56V23.95c0-8.04,6.52-14.56,14.56-14.56h73.82s57.14,58.89,57.14,58.89v116.77c0,8.04-6.52,14.56-14.56,14.56Z"/>
          <g class="cls-1">
            <path class="cls-4" d="m151.81,199.62s.22-.03.64-.06c.43-.02,1.06-.07,1.88-.23,1.62-.3,4.09-1.03,6.61-3.07,2.45-2.02,4.98-5.56,5.23-10.29.08-4.7,0-10.15,0-16.24-.04-24.39-.09-59.29-.15-101.46l.1.24c-17.3-17.81-36.59-37.66-57.18-58.86l.29.12c-13.69,0-27.93,0-42.59.01-7.33,0-14.76,0-22.28,0-1.88,0-3.76,0-5.65,0-1.89.03-3.8-.1-5.6.21-3.64.58-7.03,2.69-9.19,5.73-1.5,2.1-2.43,4.63-2.59,7.2-.1,2.59-.03,5.28-.05,7.91,0,5.27,0,10.51,0,15.71,0,10.4,0,20.65,0,30.72,0,20.14-.02,39.57-.02,58.08,0,9.25-.01,18.28-.02,27.05,0,4.38,0,8.7-.01,12.96,0,2.13,0,4.24,0,6.33.03,2.1-.13,4.18.27,6.14.76,3.96,3.3,7.41,6.62,9.4,1.66,1,3.51,1.65,5.39,1.9,1.87.23,3.83.12,5.74.15,7.64,0,14.97.02,21.97.03,27.98.06,50.63.1,66.3.13,7.81.03,13.88.06,18.03.08,2.05.02,3.61.03,4.69.04,1.06.01,1.6.04,1.6.04,0,0-.54.03-1.6.04-1.08,0-2.64.02-4.69.04-4.14.02-10.21.04-18.03.08-15.67.03-38.32.08-66.3.13-7,0-14.33.02-21.97.03-1.91-.03-3.83.1-5.82-.14-1.97-.26-3.91-.94-5.65-1.98-3.49-2.08-6.15-5.69-6.96-9.85-.43-2.09-.25-4.2-.29-6.28,0-2.09,0-4.2,0-6.33,0-4.25,0-8.57-.01-12.96,0-8.77-.01-17.79-.02-27.05,0-18.51-.02-37.94-.02-58.08,0-10.07,0-20.32,0-30.72,0-5.2,0-10.44,0-15.71.02-2.65-.05-5.25.05-7.97.17-2.72,1.15-5.4,2.74-7.63,2.28-3.22,5.87-5.45,9.73-6.07,1.95-.32,3.86-.19,5.74-.22,1.89,0,3.77,0,5.65,0,7.52,0,14.95,0,22.28,0,14.66,0,28.91,0,42.59.01h.17s.12.12.12.12c20.56,21.22,39.83,41.1,57.1,58.93l.1.1v.14c-.06,42.17-.11,77.07-.15,101.46-.04,6.1.02,11.52-.09,16.25-.29,4.83-2.9,8.41-5.41,10.43-2.58,2.05-5.09,2.75-6.73,3.01-.83.14-1.47.18-1.89.18-.43.01-.64,0-.64,0Z"/>
          </g>
        </g>
        <path class="cls-6" d="m99.48,52.88c0,.58-12.06,1.05-26.92,1.05-14.87,0-26.93-.47-26.93-1.05,0-.58,12.05-1.06,26.93-1.06,14.87,0,26.92.47,26.92,1.06Z"/>
        <path class="cls-6" d="m134.25,78.52c0,.58-19.84,1.05-44.31,1.05-24.48,0-44.32-.47-44.32-1.05,0-.58,19.84-1.06,44.32-1.06,24.47,0,44.31.47,44.31,1.06Z"/>
        <path class="cls-6" d="m142.23,99.92c0,.58-21.63,1.06-48.3,1.06-26.68,0-48.31-.47-48.31-1.06,0-.58,21.62-1.05,48.31-1.05,26.67,0,48.3.47,48.3,1.05Z"/>
        <path class="cls-6" d="m142.23,120.12c0,.58-21.63,1.06-48.3,1.06-26.68,0-48.31-.47-48.31-1.06,0-.58,21.62-1.05,48.31-1.05,26.67,0,48.3.47,48.3,1.05Z"/>
        <path class="cls-6" d="m142.23,140.32c0,.58-21.63,1.06-48.3,1.06-26.68,0-48.31-.47-48.31-1.06,0-.58,21.62-1.05,48.31-1.05,26.67,0,48.3.47,48.3,1.05Z"/>
        <path class="cls-6" d="m142.23,160.51c0,.58-21.63,1.06-48.3,1.06-26.68,0-48.31-.47-48.31-1.06,0-.58,21.62-1.05,48.31-1.05,26.67,0,48.3.47,48.3,1.05Z"/>
        <path class="cls-3" d="m108.28,9.29v45.34c0,7.48,6.06,13.54,13.54,13.55h43.6S108.28,9.29,108.28,9.29Z"/>
      </g>
      <ellipse class="cls-6" cx="163.56" cy="142.27" rx="31.8" ry="30.76"/>
      <g>
        <rect class="cls-7" x="160.08" y="134.75" width="8.39" height="23.78"/>
        <polygon class="cls-7" points="178.51 151.46 164.28 137.23 150.05 151.46 150.05 139.38 164.28 125.15 178.51 139.38 178.51 151.46"/>
      </g>
    </g>
  </g>
</svg>