<?xml version="1.0" encoding="UTF-8"?>
<svg id="Layer_1" data-name="Layer 1" xmlns="http://www.w3.org/2000/svg" viewBox="0 0 300 300">
  <defs>
    <style>
      .cls-1 {
        fill: #000;
        stroke-width: 0px;
      }
    </style>
  </defs>
  <path class="cls-1" d="M60.94,131.25L140.62,0l79.69,131.25H60.94ZM225,300c-18.23,0-33.72-6.38-46.48-19.14-12.76-12.76-19.14-28.26-19.14-46.48s6.38-33.72,19.14-46.48c12.76-12.76,28.26-19.14,46.48-19.14s33.72,6.38,46.48,19.14c12.76,12.76,19.14,28.26,19.14,46.48s-6.38,33.72-19.14,46.48c-12.76,12.76-28.26,19.14-46.48,19.14ZM9.37,290.62v-112.5h112.5v112.5H9.37ZM224.91,271.88c10.48,0,19.36-3.62,26.65-10.85,7.29-7.23,10.94-16.09,10.94-26.56s-3.62-19.36-10.85-26.65c-7.23-7.29-16.09-10.94-26.56-10.94s-19.36,3.62-26.65,10.85c-7.29,7.23-10.94,16.09-10.94,26.56s3.62,19.36,10.85,26.65c7.23,7.29,16.09,10.94,26.56,10.94ZM37.5,262.5h56.25v-56.25h-56.25v56.25ZM110.94,103.13h59.37l-29.69-48.83-29.69,48.83Z"/>
</svg>