<?xml version="1.0" encoding="UTF-8"?>
<svg id="Layer_1" data-name="Layer 1" xmlns="http://www.w3.org/2000/svg" viewBox="0 0 200 200">
  <defs>
    <style>
      .cls-1 {
        font-family: HelveticaNowDisplay-ExtBdIta, 'Helvetica Now Display';
        font-size: 42.35px;
        font-style: italic;
      }

      .cls-1, .cls-2 {
        fill: #fff;
      }

      .cls-3 {
        fill: #ddd;
      }

      .cls-3, .cls-4, .cls-5, .cls-6, .cls-7, .cls-2, .cls-8 {
        stroke-width: 0px;
      }

      .cls-4 {
        fill: #cacaca;
      }

      .cls-5 {
        fill: #e0e0e0;
      }

      .cls-6 {
        fill: #f60;
      }

      .cls-7 {
        fill: #ececec;
      }

      .cls-8 {
        fill: #f5f5f5;
      }
    </style>
  </defs>
  <g>
    <g>
      <path class="cls-2" d="m10.3,4.58h155.25c5.5,0,9.97,4.47,9.97,9.97v152.32c0,6.44-5.23,11.68-11.68,11.68H10.84c-5.74,0-10.41-4.66-10.41-10.41V14.45C.43,9,4.85,4.58,10.3,4.58Z"/>
      <rect class="cls-2" x=".43" y="32.82" width="117.98" height="94.34"/>
      <path class="cls-4" d="m10.3,4.58h155.25c5.5,0,9.97,4.47,9.97,9.97v18.27H.43V14.45C.43,9,4.85,4.58,10.3,4.58Z"/>
      <g>
        <path class="cls-6" d="m17.2,19.2c0,1.94-1.57,3.52-3.5,3.52s-3.5-1.58-3.5-3.52,1.57-3.52,3.5-3.52,3.5,1.58,3.5,3.52Z"/>
        <path class="cls-6" d="m27.8,19.2c0,1.94-1.57,3.52-3.5,3.52s-3.5-1.58-3.5-3.52,1.57-3.52,3.5-3.52,3.5,1.58,3.5,3.52Z"/>
        <path class="cls-6" d="m38.39,19.2c0,1.94-1.57,3.52-3.5,3.52s-3.5-1.58-3.5-3.52,1.57-3.52,3.5-3.52,3.5,1.58,3.5,3.52Z"/>
      </g>
      <path class="cls-3" d="m156.99,62.83c0,.2-13.53.36-30.23.36s-30.23-.16-30.23-.36,13.53-.36,30.23-.36,30.23.16,30.23.36Z"/>
      <path class="cls-3" d="m156.99,71.98c0,.2-13.53.36-30.23.36s-30.23-.16-30.23-.36,13.53-.36,30.23-.36,30.23.16,30.23.36Z"/>
      <path class="cls-3" d="m156.99,81.13c0,.2-13.53.36-30.23.36s-30.23-.16-30.23-.36,13.53-.36,30.23-.36,30.23.16,30.23.36Z"/>
      <path class="cls-3" d="m156.99,100.09c0,.2-13.53.36-30.23.36s-30.23-.16-30.23-.36,13.53-.36,30.23-.36,30.23.16,30.23.36Z"/>
      <path class="cls-3" d="m130.81,109.24c0,.2-7.68.36-17.14.36s-17.14-.16-17.14-.36,7.67-.36,17.14-.36,17.14.16,17.14.36Z"/>
      <path class="cls-3" d="m124.34,90.28c0,.2-6.23.36-13.9.36s-13.91-.16-13.91-.36,6.22-.36,13.91-.36,13.9.16,13.9.36Z"/>
      <path class="cls-3" d="m124.34,51.61c0,.2-6.23.36-13.9.36s-13.91-.16-13.91-.36,6.22-.36,13.91-.36,13.9.16,13.9.36Z"/>
      <g>
        <path class="cls-4" d="m.13,127.15h175.39v39.71c0,6.44-5.23,11.68-11.68,11.68H10.53c-5.74,0-10.41-4.66-10.41-10.41v-40.98H.13Z"/>
        <path class="cls-3" d="m31.98,141.18c0,.2-4.47.36-9.97.36s-9.98-.16-9.98-.36,4.47-.36,9.98-.36,9.97.16,9.97.36Z"/>
        <path class="cls-3" d="m74.96,148.48c0,.2-14.13.36-31.57.36s-31.57-.16-31.57-.36,14.13-.36,31.57-.36,31.57.16,31.57.36Z"/>
        <path class="cls-3" d="m74.96,156.72c0,.2-14.13.36-31.57.36s-31.57-.16-31.57-.36,14.13-.36,31.57-.36,31.57.16,31.57.36Z"/>
        <path class="cls-3" d="m55.99,164.96c0,.2-9.89.36-22.08.36s-22.08-.16-22.08-.36,9.88-.36,22.08-.36,22.08.16,22.08.36Z"/>
        <path class="cls-3" d="m114.1,141.18c0,.2-4.47.36-9.97.36s-9.98-.16-9.98-.36,4.47-.36,9.98-.36,9.97.16,9.97.36Z"/>
        <path class="cls-3" d="m157.08,148.48c0,.2-14.13.36-31.57.36s-31.57-.16-31.57-.36,14.13-.36,31.57-.36,31.57.16,31.57.36Z"/>
        <path class="cls-3" d="m157.08,156.72c0,.2-14.13.36-31.57.36s-31.57-.16-31.57-.36,14.13-.36,31.57-.36,31.57.16,31.57.36Z"/>
        <path class="cls-3" d="m138.11,164.96c0,.2-9.89.36-22.08.36s-22.08-.16-22.08-.36,9.88-.36,22.08-.36,22.08.16,22.08.36Z"/>
      </g>
      <path class="cls-7" d="m163.86,178.54s.62,0,1.79-.19c1.16-.2,2.93-.65,4.84-1.99,1.88-1.32,3.88-3.65,4.63-6.99.41-1.65.24-3.51.27-5.48,0-1.97-.01-4.07-.02-6.29-.03-17.8-.07-43.53-.11-75.32-.01-15.9-.03-33.32-.04-52.01,0-4.67,0-9.43,0-14.26,0-1.22.03-2.4-.24-3.55-.25-1.15-.72-2.26-1.38-3.25-1.31-1.98-3.39-3.46-5.72-4.02-1.17-.3-2.37-.3-3.63-.29-1.25,0-2.5,0-3.76,0-2.51,0-5.05,0-7.6,0-5.1,0-10.26,0-15.5,0-41.86,0-77.28.02-125.58.03-1.53-.01-2.98-.02-4.37.44-1.38.44-2.65,1.21-3.7,2.21C1.59,9.59.59,12.54.79,15.49c0,5.99,0,11.94,0,17.85,0,11.82,0,23.46,0,34.9,0,22.88-.01,44.95-.02,65.98,0,10.51-.01,20.76-.02,30.72.01,1.24-.03,2.5.03,3.7.06,1.2.33,2.38.8,3.47.93,2.19,2.67,3.99,4.75,5.04,1.04.52,2.17.88,3.32,1,1.14.11,2.35.06,3.53.08,2.37,0,4.71,0,7.04,0,18.61.02,35.95.03,51.78.04,31.65.05,46.67.09,64.39.11,8.84.03,15.71.05,20.38.07,2.32.02,4.09.03,5.3.04,1.19.01,1.81.04,1.81.04,0,0-.61.02-1.81.04-1.21,0-2.98.02-5.3.04-4.67.02-11.54.04-20.38.07-17.72.03-32.74.07-64.39.11-15.83.01-33.17.03-51.78.04-2.33,0-4.67,0-7.04,0-1.19-.01-2.36.04-3.6-.08-1.22-.12-2.42-.51-3.52-1.06-2.21-1.11-4.05-3.01-5.05-5.34-.5-1.16-.78-2.42-.85-3.69-.06-1.27-.02-2.49-.03-3.74,0-9.96,0-20.21-.02-30.72,0-21.03-.01-43.1-.02-65.98,0-11.44,0-23.08,0-34.9,0-5.91,0-11.86,0-17.85-.21-3.02.86-6.3,3.16-8.43,1.13-1.07,2.5-1.9,3.98-2.37,1.49-.5,3.11-.49,4.59-.47,48.3,0,83.72.02,125.58.03,5.23,0,10.4,0,15.5,0,2.55,0,5.08,0,7.6,0,1.26,0,2.51,0,3.76,0,1.23,0,2.54-.01,3.78.31,2.49.6,4.69,2.18,6.09,4.29.7,1.05,1.2,2.23,1.47,3.46.28,1.23.25,2.5.25,3.69,0,4.83,0,9.58,0,14.26-.02,18.7-.03,36.11-.04,52.01-.05,31.79-.09,57.52-.11,75.32,0,2.22-.01,4.32-.02,6.29-.04,1.96.12,3.83-.31,5.53-.78,3.4-2.84,5.75-4.75,7.07-1.94,1.34-3.74,1.77-4.91,1.94-.59.11-1.05.1-1.35.11-.3,0-.46,0-.46,0Z"/>
    </g>
    <path class="cls-6" d="m56.33,80c5.95-2.51,10.19-8.68,10.22-15.95.04-9.52-7.13-17.27-16.02-17.31-8.88-.04-16.12,7.64-16.16,17.16-.03,7.34,4.23,13.58,10.25,16.1-24.76,3.75-23.64,30.78-23.64,30.78l58.56.27s1.33-27.33-23.21-31.06Z"/>
  </g>
  <g>
    <path class="cls-8" d="m152.08,166.06h-71.97c-4.97,0-9-4.03-9-9V57.44c0-4.97,4.03-9.01,9-9.01h45.64s35.33,36.41,35.33,36.41v72.2c0,4.97-4.03,9-9,9Z"/>
    <path class="cls-5" d="m119.72,75.33c0,.36-7.45.65-16.65.65-9.2,0-16.65-.29-16.65-.65,0-.36,7.45-.65,16.65-.65,9.19,0,16.65.29,16.65.65Z"/>
    <path class="cls-5" d="m141.22,91.18c0,.36-12.27.65-27.4.65-15.13,0-27.4-.29-27.4-.65,0-.36,12.27-.65,27.4-.65,15.13,0,27.4.29,27.4.65Z"/>
    <path class="cls-5" d="m146.16,104.41c0,.36-13.37.65-29.87.65-16.5,0-29.87-.29-29.87-.65,0-.36,13.37-.65,29.87-.65,16.49,0,29.87.29,29.87.65Z"/>
    <path class="cls-5" d="m146.16,116.9c0,.36-13.37.65-29.86.65-16.5,0-29.87-.29-29.87-.65,0-.36,13.37-.65,29.87-.65,16.49,0,29.87.29,29.86.65Z"/>
    <path class="cls-5" d="m146.16,129.39c0,.36-13.37.65-29.86.65-16.5,0-29.87-.29-29.87-.65,0-.36,13.37-.65,29.87-.65,16.49,0,29.87.29,29.87.65Z"/>
    <path class="cls-5" d="m146.16,141.88c0,.36-13.37.65-29.87.65-16.5,0-29.87-.29-29.87-.65,0-.36,13.37-.65,29.87-.65,16.49,0,29.87.29,29.87.65Z"/>
  </g>
  <ellipse class="cls-6" cx="169.13" cy="135.76" rx="30.8" ry="29.79"/>
  <text class="cls-1" transform="translate(154.76 152.8)"><tspan x="0" y="0">₹</tspan></text>
</svg>