<?xml version="1.0" encoding="UTF-8"?>
<svg id="Layer_1" data-name="Layer 1" xmlns="http://www.w3.org/2000/svg" viewBox="0 0 300 300">
  <defs>
    <style>
      .cls-1 {
        fill: #000;
        stroke-width: 0px;
      }
    </style>
  </defs>
  <path class="cls-1" d="M0,247.5v-30h150v30H0ZM0,172.5v-30h75v30H0ZM0,97.5v-30h75v30H0ZM279,247.5l-57.75-57.75c-6,4.25-12.56,7.44-19.69,9.56s-14.31,3.19-21.56,3.19c-20.75,0-38.44-7.31-53.06-21.94-14.63-14.62-21.94-32.31-21.94-53.06s7.31-38.44,21.94-53.06c14.62-14.63,32.31-21.94,53.06-21.94s38.44,7.31,53.06,21.94c14.63,14.62,21.94,32.31,21.94,53.06,0,7.25-1.06,14.44-3.19,21.56-2.13,7.13-5.31,13.69-9.56,19.69l57.75,57.75-21,21ZM180,172.5c12.5,0,23.13-4.37,31.88-13.13,8.75-8.75,13.12-19.37,13.12-31.87s-4.38-23.13-13.12-31.88c-8.75-8.75-19.38-13.12-31.88-13.12s-23.12,4.38-31.88,13.12c-8.75,8.75-13.13,19.38-13.13,31.88s4.37,23.12,13.13,31.87c8.75,8.75,19.38,13.13,31.88,13.13Z"/>
</svg>