<?xml version="1.0" encoding="UTF-8"?>
<svg id="Layer_1" data-name="Layer 1" xmlns="http://www.w3.org/2000/svg" viewBox="0 0 300 300">
  <defs>
    <style>
      .cls-1 {
        fill: #000;
        stroke-width: 0px;
      }
    </style>
  </defs>
  <path class="cls-1" d="M0,260.93v-29.36c0-6.45,1.56-12.14,4.67-17.08,3.11-4.94,7.46-9.04,13.05-12.3,13.92-8.21,28.58-14.67,43.96-19.39,15.38-4.72,32.88-7.08,52.5-7.08,19.62,0,37.12,2.36,52.5,7.08,15.38,4.72,30.03,11.18,43.96,19.39,5.59,3.26,9.94,7.37,13.05,12.3,3.11,4.94,4.67,10.63,4.67,17.08v29.36H0ZM259.03,260.93v-28.05c0-10.62-2.03-20.36-6.09-29.21-4.06-8.86-9.41-16.06-16.07-21.62,8.02,2.27,15.95,5.05,23.81,8.34,7.85,3.29,15.59,7.23,23.22,11.81,4.83,2.71,8.72,6.85,11.67,12.42,2.95,5.57,4.42,11.66,4.42,18.25v28.05h-40.97ZM114.18,144.78c-14.7,0-27.18-5.13-37.44-15.39-10.26-10.26-15.39-22.74-15.39-37.44s5.13-27.18,15.39-37.44c10.26-10.26,22.74-15.39,37.44-15.39,14.7,0,27.18,5.13,37.44,15.39,10.26,10.26,15.39,22.74,15.39,37.44s-5.13,27.18-15.39,37.44c-10.26,10.26-22.74,15.39-37.44,15.39ZM234.06,91.95c0,14.7-5.13,27.18-15.39,37.44-10.26,10.26-22.74,15.39-37.44,15.39-1.07,0-1.67.07-1.8.2s-.73.08-1.8-.16c6.15-7.23,11.03-15.27,14.64-24.12,3.61-8.85,5.41-18.44,5.41-28.76s-1.84-19.87-5.52-28.64c-3.68-8.77-8.53-16.84-14.53-24.2.74-.02,1.34-.02,1.8,0,.46.02,1.06.03,1.8.03,14.7,0,27.18,5.13,37.44,15.39,10.26,10.26,15.39,22.74,15.39,37.44ZM22.15,238.77h184.05v-7.21c0-2.27-.54-4.27-1.62-6-1.08-1.72-2.98-3.33-5.69-4.82-12.04-7.23-25.06-12.85-39.06-16.86-14-4.01-29.22-6.01-45.65-6.01s-31.65,1.93-45.65,5.8c-14,3.87-27.03,9.56-39.06,17.07-2.72,1.46-4.61,3.02-5.69,4.68-1.08,1.66-1.62,3.69-1.62,6.09,0,0,0,7.25,0,7.25ZM114.27,122.63c8.46,0,15.67-3.01,21.64-9.04,5.96-6.02,8.95-13.27,8.95-21.73s-3.01-15.67-9.04-21.64c-6.03-5.96-13.27-8.95-21.73-8.95-8.46,0-15.67,3.01-21.64,9.04-5.96,6.03-8.95,13.27-8.95,21.73s3.01,15.67,9.04,21.64c6.03,5.96,13.27,8.95,21.73,8.95Z"/>
</svg>