<svg xmlns="http://www.w3.org/2000/svg" width="25" height="22.194" viewBox="0 0 25 22.194">
  <path id="record_voice_over_FILL0_wght700_GRAD0_opsz48" d="M38.008-903.473a1.121,1.121,0,0,1-.327-.753,1.053,1.053,0,0,1,.27-.789,9.057,9.057,0,0,0,1.486-2.507,8.823,8.823,0,0,0,.512-3.176,8.606,8.606,0,0,0-.5-3.086A9.412,9.412,0,0,0,38-916.273a1.189,1.189,0,0,1-.256-.783,1.091,1.091,0,0,1,.34-.758.823.823,0,0,1,.68-.268.959.959,0,0,1,.668.324,11.531,11.531,0,0,1,1.89,3.172,10.584,10.584,0,0,1,.675,3.9,10.584,10.584,0,0,1-.7,3.982,11.588,11.588,0,0,1-1.944,3.2.83.83,0,0,1-.661.324A.939.939,0,0,1,38.008-903.473Zm-4-4.215a.887.887,0,0,1-.259-.577,1.358,1.358,0,0,1,.124-.719,3.137,3.137,0,0,0,.324-.779,3.494,3.494,0,0,0,.108-.9,3.344,3.344,0,0,0-.108-.863,3.475,3.475,0,0,0-.3-.757,1.432,1.432,0,0,1-.135-.715.876.876,0,0,1,.3-.607,1.006,1.006,0,0,1,.823-.351.845.845,0,0,1,.715.432,6.062,6.062,0,0,1,.54,1.383,5.988,5.988,0,0,1,.189,1.5,5.283,5.283,0,0,1-.216,1.5,5.7,5.7,0,0,1-.6,1.367.773.773,0,0,1-.691.45A1.046,1.046,0,0,1,34.009-907.687Zm-7.667,1.782a4.614,4.614,0,0,1-3.429-1.336,4.658,4.658,0,0,1-1.323-3.421,4.6,4.6,0,0,1,1.317-3.4,4.6,4.6,0,0,1,3.4-1.317,4.668,4.668,0,0,1,3.421,1.317,4.568,4.568,0,0,1,1.336,3.4,4.683,4.683,0,0,1-1.31,3.421A4.569,4.569,0,0,1,26.341-905.906Zm-8.072,10.016a1.228,1.228,0,0,1-.9-.365,1.228,1.228,0,0,1-.364-.9v-1.971a3.355,3.355,0,0,1,.7-2.187,4.668,4.668,0,0,1,1.512-1.269,15.5,15.5,0,0,1,3.4-1.188,15.963,15.963,0,0,1,3.7-.486,16.223,16.223,0,0,1,3.685.473,16.81,16.81,0,0,1,3.415,1.147,5.094,5.094,0,0,1,1.525,1.309,3.368,3.368,0,0,1,.715,2.2v1.971a1.228,1.228,0,0,1-.364.9,1.228,1.228,0,0,1-.9.365Zm1.269-2.565H33.091v-.594a1.279,1.279,0,0,0-.229-.74,1.98,1.98,0,0,0-.661-.583,9.587,9.587,0,0,0-2.9-1.039,15.792,15.792,0,0,0-2.983-.31,14.032,14.032,0,0,0-2.983.351,12.714,12.714,0,0,0-2.929,1,1.713,1.713,0,0,0-.607.548,1.316,1.316,0,0,0-.256.77Zm6.776-10.016a2.14,2.14,0,0,0,1.58-.606,2.117,2.117,0,0,0,.607-1.566,2.168,2.168,0,0,0-.607-1.58,2.092,2.092,0,0,0-1.566-.621,2.149,2.149,0,0,0-1.58.617,2.118,2.118,0,0,0-.621,1.569,2.12,2.12,0,0,0,.617,1.58A2.143,2.143,0,0,0,26.313-908.47ZM26.314-910.657ZM26.314-898.454Z" transform="translate(-17 918.084)" fill="#074a76"/>
</svg>
