<svg xmlns="http://www.w3.org/2000/svg" width="32" height="17.139" viewBox="0 0 32 17.139">
  <path id="groups_FILL0_wght700_GRAD0_opsz48" d="M-10.472-737.862a1.476,1.476,0,0,1-1.085-.443A1.476,1.476,0,0,1-12-739.39v-.585a2.649,2.649,0,0,1,1.455-2.34,7.3,7.3,0,0,1,3.813-.88q.176,0,.385.008a2.566,2.566,0,0,0,.363-.008,8.209,8.209,0,0,0-.472,1.357,6.113,6.113,0,0,0-.179,1.505v2.472Zm7.8,0a1.476,1.476,0,0,1-1.085-.443A1.476,1.476,0,0,1-4.2-739.39v-.943a4.251,4.251,0,0,1,2.255-3.726A11.056,11.056,0,0,1,4-745.472a11.076,11.076,0,0,1,5.943,1.413,4.251,4.251,0,0,1,2.257,3.726v.943a1.476,1.476,0,0,1-.443,1.085,1.476,1.476,0,0,1-1.085.443Zm17.3,0v-2.486a6.868,6.868,0,0,0-.163-1.5,5.557,5.557,0,0,0-.488-1.355q.154.009.363.009h.388a7.306,7.306,0,0,1,3.8.88A2.647,2.647,0,0,1,20-739.976v.585a1.476,1.476,0,0,1-.443,1.085,1.476,1.476,0,0,1-1.085.443ZM4-742.87a8.564,8.564,0,0,0-3.51.618,2.6,2.6,0,0,0-1.626,1.659v.13H9.138v-.163a2.5,2.5,0,0,0-1.612-1.626A8.7,8.7,0,0,0,4-742.87Zm-10.728-1.2a2.4,2.4,0,0,1-1.79-.732,2.485,2.485,0,0,1-.715-1.808,2.424,2.424,0,0,1,.724-1.769,2.416,2.416,0,0,1,1.789-.732,2.437,2.437,0,0,1,1.8.735,2.439,2.439,0,0,1,.732,1.789,2.432,2.432,0,0,1-.731,1.786A2.45,2.45,0,0,1-6.731-744.073Zm21.463,0a2.4,2.4,0,0,1-1.79-.732,2.485,2.485,0,0,1-.715-1.808,2.424,2.424,0,0,1,.724-1.769,2.416,2.416,0,0,1,1.789-.732,2.437,2.437,0,0,1,1.8.735,2.439,2.439,0,0,1,.732,1.789,2.432,2.432,0,0,1-.731,1.786,2.45,2.45,0,0,1-1.8.732ZM4-746.415a4.14,4.14,0,0,1-3.041-1.252,4.14,4.14,0,0,1-1.252-3.041,4.14,4.14,0,0,1,1.252-3.041A4.14,4.14,0,0,1,4-755a4.14,4.14,0,0,1,3.041,1.252,4.14,4.14,0,0,1,1.252,3.041,4.14,4.14,0,0,1-1.252,3.041A4.14,4.14,0,0,1,4-746.415Zm0-6.016a1.616,1.616,0,0,0-1.212.5,1.7,1.7,0,0,0-.48,1.228A1.627,1.627,0,0,0,2.8-749.5a1.661,1.661,0,0,0,1.211.48,1.669,1.669,0,0,0,1.219-.489,1.633,1.633,0,0,0,.5-1.211,1.657,1.657,0,0,0-.5-1.219A1.666,1.666,0,0,0,4-752.431ZM4-740.463ZM4-750.707Z" transform="translate(12 755)" fill="#074a76"/>
</svg>
