<svg id="Layer_1" data-name="Layer 1" xmlns="http://www.w3.org/2000/svg" xmlns:xlink="http://www.w3.org/1999/xlink" viewBox="0 0 150 150">
  <defs>
    <style>
      .cls-1 {
        fill: #013C51;
        stroke: #013C51;
        stroke-miterlimit: 10;
        stroke-width: 4px;
      }

      .cls-2 {
        fill: #013C51;
      }
    </style>
  </defs>
  <path class="cls-1" d="m76.3644801,32.4482473v-9.5619764c0-.3716902.3013144-.6730046.6730046-.6730046h2.9097444c.2985068,0,.5970191,0,.8955259-.0992709.199236,2.0902908,1.9902389,3.6820904,4.0805297,3.6820904h6.2932737c.3716902,0,.6730046-.3013144.6730046-.6730046v-5.7910896c0-.3716902-.3013144-.6730046-.6730046-.6730046h-7.0895829c-.199236-2.0902921-1.9902389-3.6820917-4.0805297-3.6820917h-6.4924934c-.3716902,0-.6730046.3013144-.6730046.6730046v11.0416956l-.0888675,5.6855738c-.0057636.3687469.2837947.6733728.6524553.6832148.6330461.0169001,1.5835534.0424554,2.2283849.0606112.3789102.0106685.6915596-.2936875.6915596-.6727478Z"/>
  <path class="cls-2" d="m44.5097356,119.5175176c-1.5782001,0-2.9707289-.4898508-4.1775865-1.4695587-1.1140238-.9797017-1.6710339-2.2043319-1.6710339-3.6738906v-33.2282969c0-1.1429894.5570119-2.2859789,1.7638713-3.2656805,1.2068576-.9797017,2.5065526-1.5511995,4.0847527-1.5511995s2.8778915.4898508,3.9919153,1.5511995c1.1140202.9797017,1.6710303,2.1226911,1.6710303,3.4289621v33.1466562c0,1.3879117-.5570101,2.6125419-1.7638713,3.5922498-1.2068576.9797017-2.5065491,1.4695587-3.8990779,1.4695587Zm32.0284647,0c-1.5910257,0-2.9012859-.4898508-4.0243692-1.4695587-1.1230761-.9797017-1.6846213-2.2043319-1.6846213-3.6738906v-33.2282969c0-1.1429894.5615381-2.2859789,1.6846213-3.2656805,1.1230761-.9797017,2.4333364-1.5511995,4.0243692-1.5511995,1.4974372,0,2.9012859.4898508,4.0243692,1.5511995,1.1230761.9797017,1.7782098,2.1226911,1.7782098,3.4289621v33.1466562c0,1.3879117-.5615381,2.6125419-1.6846213,3.5922498-1.2166718.9797017-2.5269249,1.4695587-4.1179577,1.4695587Zm-49.0538511,16.2467557c-1.5511979,0-2.8574705-.5714916-4.0004583-1.7961218-1.1429879-1.1429832-1.7144826-2.5309074-1.7144826-4.0004537,0-1.6328403.5714939-2.9391175,1.6328403-4.0821007,1.1429879-1.1429894,2.5309027-1.6328403,4.163743-1.6328403h94.9496593c1.4695587,0,2.7758235.5714916,3.9188191,1.714481,1.2246302,1.1429894,1.7961218,2.5309012,1.7961218,4.0004599,0,1.6328403-.5714916,2.9391175-1.7144873,4.0821007-1.1429832,1.1429832-2.5309074,1.7144873-4.0821007,1.7144873H27.4843492v-.0000125Zm81.003313-16.2467557c-1.4974381,0-2.9012877-.4898508-4.0243717-1.4695587-1.1230768-.9797017-1.6846224-2.2043319-1.6846224-3.6738906v-33.2282969c0-1.1429894.5615384-2.2859789,1.7782109-3.2656805s2.5269264-1.5511995,3.930776-1.5511995c1.5910267,0,2.9948763.4898508,4.1179602,1.5511995,1.1230768.9797017,1.6846224,2.1226911,1.6846224,3.4289621v33.1466562c0,1.3879117-.5615384,2.6125419-1.7782109,3.5922498-1.1230768.9797017-2.4333379,1.4695587-4.0243646,1.4695587Zm-27.8543604-86.4588949l42.1272776,24.0843955c1.4695587.8980609,2.7758235,2.0410503,3.8371721,3.5106059s1.6328403,2.9391112,1.6328403,4.5719515c0,1.8777657-.7347731,3.4289652-2.2043319,4.6535954s-3.102399,1.7961249-4.8985208,1.7961249H28.7089794c-1.8777665,0-3.5106067-.5714947-4.8985208-1.7961249s-2.0410503-2.7758297-2.0410503-4.6535954c0-1.6328403.4898524-3.1840398,1.5511979-4.4903107,1.0613455-1.306271,2.4492604-2.5309012,4.0821007-3.5922498l41.800713-24.0843939c1.6328403-.8164201,3.5106091-1.3062725,5.6333002-1.3062725,2.2043319.0000023,4.0821007.4082124,5.7965817,1.3062741Zm-38.749073,28.1928735h66.0682673l-33.0341355-19.2386293-33.0341319,19.2386293Z"/>
</svg>