<?xml version="1.0" encoding="UTF-8"?>
<svg id="Layer_1" data-name="Layer 1" xmlns="http://www.w3.org/2000/svg" viewBox="0 0 300 300">
  <defs>
    <style>
      .cls-1 {
        fill: #000;
        stroke-width: 0px;
      }
    </style>
  </defs>
  <path class="cls-1" d="M90,195h120v-8.25c0-11.25-5.5-20.19-16.5-26.81-11-6.62-25.5-9.94-43.5-9.94s-32.5,3.31-43.5,9.94c-11,6.62-16.5,15.56-16.5,26.81v8.25ZM150,135c8.25,0,15.31-2.94,21.19-8.81,5.88-5.88,8.81-12.94,8.81-21.19s-2.94-15.31-8.81-21.19c-5.88-5.88-12.94-8.81-21.19-8.81s-15.31,2.94-21.19,8.81c-5.87,5.88-8.81,12.94-8.81,21.19s2.94,15.31,8.81,21.19c5.87,5.88,12.94,8.81,21.19,8.81ZM90,285v-30H30c-8.25,0-15.31-2.94-21.19-8.81-5.87-5.88-8.81-12.94-8.81-21.19V45c0-8.25,2.94-15.31,8.81-21.19,5.87-5.88,12.94-8.81,21.19-8.81h240c8.25,0,15.31,2.94,21.19,8.81,5.88,5.88,8.81,12.94,8.81,21.19v180c0,8.25-2.94,15.31-8.81,21.19-5.88,5.88-12.94,8.81-21.19,8.81h-60v30h-120ZM30,225h240V45H30v180ZM30,225V45v180Z"/>
</svg>