<?xml version="1.0" encoding="utf-8"?>
<!-- Generator: Adobe Illustrator 27.3.1, SVG Export Plug-In . SVG Version: 6.00 Build 0)  -->
<svg version="1.1" id="Layer_1" xmlns="http://www.w3.org/2000/svg" xmlns:xlink="http://www.w3.org/1999/xlink" x="0px" y="0px"
	 viewBox="0 0 150 150" enable-background="new 0 0 150 150" xml:space="preserve">
<g>
	<g>
		<rect x="0" fill="none" width="150" height="150"/>
	</g>
	<g>
		<rect x="10" y="10" fill="none" width="130" height="130"/>
	</g>
</g>
<path d="M70.8,95.7c6.7,0,12.3-2.1,17-6.3s7-9.4,7-15.5c0-5.3-1.7-9.8-5-13.5s-7.5-5.6-12.4-5.6c-4.2,0-7.9,1.4-10.9,4.2
	c-3,2.8-4.6,6.1-4.6,10.1c0,1.8,0.4,3.5,1.1,5.2c0.7,1.6,1.7,3.1,2.9,4.4c1.2,1.1,2.5,1.6,3.7,1.4c1.3-0.2,2.3-0.7,3.1-1.6
	c0.8-0.9,1.2-1.9,1.3-3.1c0.1-1.2-0.4-2.2-1.4-3.1c-0.5-0.4-0.9-0.9-1.1-1.4c-0.3-0.5-0.4-1.1-0.4-1.7c0-1.3,0.6-2.5,1.7-3.6
	s2.7-1.6,4.6-1.6c2.3,0,4.3,1,6,2.9c1.7,1.9,2.5,4.3,2.5,7.1c0,3.5-1.4,6.5-4.2,9c-2.8,2.5-6.3,3.7-10.7,3.7c-5.1,0-9.4-2-13-6.1
	c-3.6-4.1-5.5-9.2-5.5-15.2c0-2.3,0.3-4.6,1-6.8c0.7-2.2,1.6-4.3,3-6.2c0.7-1,1-2.1,1-3.4c-0.1-1.3-0.5-2.4-1.4-3.3
	c-0.9-0.9-2-1.4-3.2-1.4c-1.2,0-2.2,0.5-3,1.5c-2.1,2.7-3.7,5.8-4.9,9.1c-1.1,3.3-1.7,6.8-1.7,10.3c0,8.5,2.7,15.7,8,21.6
	C56.6,92.7,63.2,95.7,70.8,95.7z M31.9,111.2c-5.8-5.6-10.2-12-13.4-19.3c-3.2-7.3-4.8-14.9-4.8-22.8c0-16.2,5.6-29.9,16.9-41.2
	s25-16.9,41-16.9c13.3,0,25.2,4,35.6,12c10.4,8,17.2,18.3,20.4,30.9l8.5,34c0.6,2.3,0.2,4.4-1.2,6.1c-1.4,1.8-3.3,2.7-5.6,2.7h-11.7
	v16.1c0,4-1.4,7.4-4.2,10.2c-2.8,2.7-6.2,4.1-10.2,4.1h-9.9v5c0,2-0.7,3.7-2.2,5.1s-3.2,2-5.1,2c-2,0-3.7-0.7-5.1-2s-2-3.1-2-5.1
	v-12.1c0-2,0.7-3.7,2-5.1c1.4-1.4,3.1-2,5.1-2h17.1V89.5c0-2,0.7-3.7,2-5.1c1.4-1.4,3.1-2,5.1-2h9.7l-6.2-25
	c-2.4-9.3-7.6-17-15.5-23s-16.8-9-26.7-9c-12.1,0-22.4,4.2-30.9,12.7S27.9,56.7,27.9,68.7c0,6.2,1.3,12.1,3.9,17.8
	c2.6,5.7,6.2,10.7,10.8,14.9l3.5,3.3V132c0,2-0.7,3.7-2,5.1c-1.4,1.4-3.1,2-5.1,2c-2,0-3.7-0.7-5.1-2c-1.4-1.4-2-3.1-2-5.1V111.2z"
	/>
</svg>
