<?xml version="1.0" encoding="UTF-8"?>
<svg id="Layer_1" data-name="Layer 1" xmlns="http://www.w3.org/2000/svg" viewBox="0 0 300 300">
  <defs>
    <style>
      .cls-1 {
        fill: #000;
        stroke-width: 0px;
      }
    </style>
  </defs>
  <path class="cls-1" d="M13.64,300v-54.55h272.73v54.55H13.64ZM68.18,190.91h19.09l106.36-106.02-9.89-9.89-9.55-9.55-106.02,106.36v19.09ZM40.91,218.18v-57.95L193.64,7.84c2.5-2.5,5.4-4.43,8.69-5.8,3.3-1.36,6.76-2.05,10.4-2.05s7.16.68,10.57,2.05,6.48,3.41,9.2,6.14l18.75,19.09c2.73,2.5,4.72,5.45,5.97,8.86,1.25,3.41,1.88,6.93,1.88,10.57,0,3.41-.62,6.76-1.88,10.06-1.25,3.3-3.24,6.31-5.97,9.03L98.86,218.18h-57.95ZM231.82,46.36l-19.09-19.09,19.09,19.09ZM193.64,84.89l-9.89-9.89-9.55-9.55,19.43,19.43Z"/>
</svg>