<?xml version="1.0" encoding="UTF-8"?>
<svg xmlns="http://www.w3.org/2000/svg" viewBox="0 0 200 200">
  <defs>
    <style>
      .cls-1 {
        stroke: #989898;
        stroke-linecap: round;
        stroke-linejoin: round;
        stroke-width: .99px;
      }

      .cls-1, .cls-2 {
        fill: none;
      }

      .cls-3 {
        opacity: .6;
      }

      .cls-4 {
        isolation: isolate;
      }

      .cls-2 {
        stroke: #fff;
        stroke-miterlimit: 10;
        stroke-width: 8.69px;
      }

      .cls-5 {
        fill: #cacaca;
      }

      .cls-5, .cls-6, .cls-7, .cls-8, .cls-9, .cls-10, .cls-11, .cls-12 {
        stroke-width: 0px;
      }

      .cls-6 {
        fill: #e0e0e0;
      }

      .cls-7 {
        fill: #bcbcbc;
      }

      .cls-8 {
        fill: #f60;
      }

      .cls-9 {
        fill: #fff;
      }

      .cls-10 {
        fill: #ededed;
      }

      .cls-11 {
        fill: #efefef;
      }

      .cls-12 {
        fill: #fbfbfb;
      }

      .cls-13 {
        mix-blend-mode: multiply;
        opacity: .8;
      }
    </style>
  </defs>
  <g class="cls-4">
    <g id="Layer_1" data-name="Layer 1">
      <g>
        <polyline class="cls-11" points="47.62 65.39 47.62 71.83 18.62 71.83 18.62 65.39"/>
        <polyline class="cls-11" points="18.62 174.93 18.62 171.7 47.62 171.7 47.62 174.92"/>
        <path class="cls-6" d="m41.12,71.83s11,50.36,0,96.66h-16c-11-46.3,0-96.66,0-96.66h16Z"/>
        <path class="cls-9" d="m25.12,71.83s-11,50.36,0,96.66h16c.93-3.91,1.69-7.86,2.33-11.8-2.53,11.25-10.08,6.7-13.85-9.78-3.67-16.06-3.61-43.51-1.15-75.09h-3.33Z"/>
        <path class="cls-1" d="m41.12,71.83s6,28.69,4.77,64.88"/>
        <g>
          <line class="cls-1" x1="18.62" y1="71.83" x2="18.62" y2="65.39"/>
          <polyline class="cls-1" points="47.62 65.39 47.62 71.83 18.6 71.83"/>
        </g>
        <path class="cls-1" d="m25.12,168.49c-11-46.3,0-96.66,0-96.66"/>
        <path class="cls-1" d="m45.61,136.78c-.61,10.35-1.98,21.14-4.49,31.71"/>
        <g>
          <polyline class="cls-1" points="24.81 168.48 47.62 168.48 47.62 174.92"/>
          <polyline class="cls-1" points="18.62 174.93 18.62 168.48 25.12 168.48"/>
        </g>
      </g>
      <g>
        <rect class="cls-10" x="81.47" y="168.48" width="29" height="6.45"/>
        <path class="cls-6" d="m103.97,71.83s11,50.36,0,96.66h-16c-11-46.3,0-96.66,0-96.66h16Z"/>
        <path class="cls-9" d="m87.97,71.83s-11,50.36,0,96.66h16c.93-3.91,1.69-7.86,2.33-11.8-2.53,11.25-10.08,6.7-13.85-9.78-3.67-16.06-3.61-43.51-1.15-75.09h-3.33Z"/>
        <path class="cls-1" d="m103.97,71.83s11,50.36,0,96.66h-16c-11-46.3,0-96.66,0-96.66"/>
        <g>
          <polyline class="cls-11" points="81.47 65.39 81.47 71.83 110.47 71.83 110.47 65.39"/>
          <g>
            <polyline class="cls-1" points="103.72 71.83 110.47 71.83 110.47 65.39"/>
            <polyline class="cls-1" points="81.47 65.39 81.47 71.83 107.23 71.83"/>
          </g>
        </g>
        <polyline class="cls-11" points="81.47 174.93 81.47 171.7 110.47 171.7 110.47 174.92"/>
        <polyline class="cls-1" points="81.47 174.93 81.47 168.48 110.47 168.48 110.47 174.92"/>
      </g>
      <g>
        <rect class="cls-10" x="134.91" y="168.48" width="29" height="6.45"/>
        <path class="cls-6" d="m157.4,71.83s11,50.36,0,96.66h-16c-11-46.3,0-96.66,0-96.66h16Z"/>
        <path class="cls-9" d="m141.41,71.83s-11,50.36,0,96.66h16c.93-3.91,1.69-7.86,2.33-11.8-2.53,11.25-10.08,6.7-13.85-9.78-3.67-16.06-3.61-43.51-1.15-75.09h-3.33Z"/>
        <path class="cls-1" d="m141.41,168.49c-3.88-16.31-5.02-33.13-4.88-48.06"/>
        <path class="cls-1" d="m136.52,120.38c1.13-21.75,4.89-48.55,4.89-48.55h16s11,50.36,0,96.66"/>
        <g>
          <polyline class="cls-11" points="163.91 65.39 163.91 71.83 134.91 71.83 134.91 65.39"/>
          <g>
            <polyline class="cls-1" points="163.71 71.83 134.91 71.83 134.91 65.39"/>
            <line class="cls-1" x1="163.91" y1="65.39" x2="163.91" y2="71.83"/>
          </g>
        </g>
        <polyline class="cls-11" points="134.91 174.93 134.91 171.7 163.91 171.7 163.91 174.92"/>
        <g>
          <polyline class="cls-1" points="140.8 168.48 163.91 168.48 163.91 174.92"/>
          <polyline class="cls-1" points="134.91 174.93 134.91 168.48 141.41 168.48"/>
        </g>
      </g>
      <polygon class="cls-10" points="184.58 65.32 7.36 65.32 7.36 48.17 95.97 .88 184.58 48.17 184.58 65.32"/>
      <rect class="cls-11" x="7.36" y="62.1" width="177.22" height="3.22"/>
      <polygon class="cls-11" points="10.58 65.32 7.36 65.32 7.36 48.47 10.58 46.72 10.58 65.32"/>
      <rect class="cls-11" x="13.81" y="55.65" width="164.33" height="3.22"/>
      <polygon class="cls-11" points="17.03 58.87 13.81 58.87 13.81 51.94 17.03 50.18 17.03 58.87"/>
      <polygon class="cls-1" points="149.33 29.35 184.58 48.17 184.58 65.32 7.36 65.32 7.36 48.17 95.97 .88 125.82 16.81 149.33 29.35"/>
      <polygon class="cls-1" points="13.81 52.03 95.97 8.18 178.14 52.03 178.14 58.87 13.84 58.87 13.81 52.03"/>
      <g>
        <path class="cls-5" d="m83.08,36.56c0,7.12,5.77,12.89,12.89,12.89,2.34,0,4.52-.63,6.41-1.72-.52.06-1.04.11-1.58.11-7.12,0-12.89-5.77-12.89-12.89,0-4.78,2.61-8.95,6.48-11.17-6.37.78-11.31,6.2-11.31,12.78Z"/>
        <path class="cls-1" d="m106.14,28.75c1.7,2.18,2.72,4.93,2.72,7.92,0,7.12-5.77,12.89-12.89,12.89s-12.89-5.77-12.89-12.89,5.77-12.89,12.89-12.89l10.17,4.97Z"/>
      </g>
      <g>
        <g>
          <rect class="cls-10" x="11.39" y="174.94" width="169.16" height="8.06"/>
          <rect class="cls-11" x="11.39" y="179.77" width="169.16" height="3.22"/>
        </g>
        <polyline class="cls-1" points="11.39 182.99 11.39 174.94 76.67 174.94"/>
      </g>
      <g>
        <g>
          <rect class="cls-10" x="3.33" y="191.05" width="185.27" height="8.06"/>
          <line class="cls-1" x1="109.61" y1="199.11" x2="3.42" y2="199.11"/>
          <polyline class="cls-1" points="103.53 199.11 188.61 199.11 188.61 191.05 184.16 191.05"/>
        </g>
        <polyline class="cls-1" points="3.33 199.11 3.33 191.05 177.39 191.05"/>
      </g>
      <g>
        <g>
          <rect class="cls-9" x="7.36" y="183.53" width="177.22" height="7.52"/>
          <path class="cls-1" d="m7.36,191.05h177.22v-8.06c-6.4,0-6.4.04-6.4.04"/>
        </g>
        <polyline class="cls-1" points="7.36 190.3 7.36 182.99 180.55 182.99 180.55 174.94 75.03 174.94"/>
      </g>
      <g>
        <g>
          <g class="cls-13">
            <rect class="cls-12" x="72.95" y="81.33" width="109.1" height="43.65"/>
          </g>
          <rect class="cls-9" x="68.02" y="76.51" width="109.1" height="47.29"/>
          <path class="cls-7" d="m179.24,121.36s0-.27-.01-.78c0-.52,0-1.27-.01-2.26,0-1.99-.02-4.92-.03-8.69-.02-7.53-.04-18.43-.07-31.92l.12.12c-27.75.01-66.39.03-109.09.05h0l.17-.17c0,15.29,0,30.04,0,43.65l-.17-.16c31.61.03,58.86.06,78.22.08,9.69.02,17.4.03,22.69.05,2.64,0,4.69.02,6.07.02.69,0,1.21,0,1.57.01.35,0,.54.01.54.01,0,0-.17,0-.52.01-.36,0-.87,0-1.55.01-1.38,0-3.41.01-6.04.02-5.29.01-12.98.03-22.65.05-19.39.02-46.68.05-78.33.08h-.17s0-.16,0-.16c0-13.61,0-28.36,0-43.65v-.17h.18c42.7.02,81.34.04,109.09.05h.12s0,.12,0,.12c-.03,13.52-.05,24.44-.07,31.99-.01,3.76-.02,6.67-.03,8.66,0,.98-.01,1.73-.01,2.24,0,.5-.01.76-.01.76Z"/>
        </g>
        <path class="cls-7" d="m70.25,83.6c0-.09,24.39-.17,54.46-.17s54.46.08,54.46.17-24.38.17-54.46.17-54.46-.08-54.46-.17Z"/>
        <g>
          <g>
            <path class="cls-7" d="m74.82,80.97c0,.43-.35.78-.79.78s-.79-.35-.79-.78.35-.78.79-.78.79.35.79.78Z"/>
            <path class="cls-7" d="m77.53,80.97c0,.43-.35.78-.79.78s-.79-.35-.79-.78.35-.78.79-.78.79.35.79.78Z"/>
            <path class="cls-7" d="m80.21,80.97c0,.43-.35.78-.79.78s-.79-.35-.79-.78.35-.78.79-.78.79.35.79.78Z"/>
          </g>
          <g class="cls-3">
            <path class="cls-8" d="m74.82,80.97c0,.43-.35.78-.79.78s-.79-.35-.79-.78.35-.78.79-.78.79.35.79.78Z"/>
            <path class="cls-8" d="m77.53,80.97c0,.43-.35.78-.79.78s-.79-.35-.79-.78.35-.78.79-.78.79.35.79.78Z"/>
            <path class="cls-8" d="m80.21,80.97c0,.43-.35.78-.79.78s-.79-.35-.79-.78.35-.78.79-.78.79.35.79.78Z"/>
          </g>
        </g>
        <g>
          <rect class="cls-7" x="79.42" y="90.69" width="26.35" height="25.96"/>
          <rect class="cls-8" x="79.42" y="90.69" width="26.35" height="25.96"/>
        </g>
        <g>
          <path class="cls-7" d="m171.69,97.65c0,.09-13.56.17-30.28.17s-30.29-.08-30.29-.17,13.56-.17,30.29-.17,30.28.08,30.28.17Z"/>
          <path class="cls-7" d="m171.69,102.94c0,.09-13.56.17-30.28.17s-30.29-.08-30.29-.17,13.56-.17,30.29-.17,30.28.08,30.28.17Z"/>
          <path class="cls-7" d="m150.11,108.22s-.14.02-.4.03c-.3,0-.67.02-1.14.03-1.03.01-2.45.03-4.18.05-3.57.01-8.42.03-13.78.05-5.36-.02-10.22-.04-13.79-.05-1.73-.02-3.15-.04-4.18-.05-.46-.01-.84-.02-1.14-.03-.26-.01-.4-.02-.4-.03s.14-.02.4-.03c.3,0,.67-.02,1.14-.03,1.03-.01,2.45-.03,4.18-.05,3.57-.01,8.42-.03,13.79-.05,5.36.02,10.22.04,13.78.05,1.73.02,3.15.04,4.18.05.46.01.84.02,1.14.03.26.01.4.02.4.03Z"/>
        </g>
      </g>
      <g>
        <ellipse class="cls-8" cx="163.75" cy="139.32" rx="32.93" ry="31.85"/>
        <polyline class="cls-2" points="149.95 138.6 160.17 148.52 181.03 127.67"/>
      </g>
    </g>
  </g>
</svg>