<?xml version="1.0" encoding="utf-8"?>
<!-- Generator: Adobe Illustrator 27.4.0, SVG Export Plug-In . SVG Version: 6.00 Build 0)  -->
<svg version="1.1" id="Layer_1" xmlns="http://www.w3.org/2000/svg" xmlns:xlink="http://www.w3.org/1999/xlink" x="0px" y="0px"
	 viewBox="0 0 150 150" style="enable-background:new 0 0 150 150;" xml:space="preserve">
<style type="text/css">
	.st0{fill:#FEE8DA;}
	.st1{fill:url(#SVGID_1_);}
	.st2{clip-path:url(#SVGID_00000165931114855845486740000016433801225537959056_);}
	.st3{fill:url(#Path_4157_00000163771427515859510330000007662707075556298676_);}
	.st4{fill:url(#Path_4158_00000123401129787936175230000002043603209976583310_);}
	.st5{fill:url(#Path_4159_00000009562007558074262320000009986109632693921678_);}
	.st6{clip-path:url(#SVGID_00000064316395421157578800000010565782259648378245_);}
	.st7{fill:url(#Path_4168_00000164501763507516738240000011058805349469104555_);}
	.st8{fill:url(#Path_4169_00000108298160606806328770000012313525585595232395_);}
	.st9{fill:url(#Path_4170_00000173881484699011925730000017838938248323931796_);}
	.st10{fill:url(#Path_4171_00000023245709577886193020000000225922622245724553_);}
	.st11{fill:url(#Path_4172_00000027562590350578390920000011550894796665373083_);}
	.st12{fill:url(#Path_4173_00000175300214416085164080000016336943067770500010_);}
	.st13{fill:url(#SVGID_00000071521106583886190200000004133713149733390991_);}
	.st14{fill:url(#SVGID_00000036234973896989839800000006307955349337731262_);}
	.st15{fill:url(#SVGID_00000155122398168317786640000005052383675398496954_);}
	.st16{fill:url(#SVGID_00000145049715964747277650000018311464993104690833_);}
	.st17{fill:url(#SVGID_00000166657681458759884280000004182581367898783637_);}
	.st18{fill:url(#SVGID_00000156549246801265877220000011267378090566630839_);}
	.st19{fill:url(#SVGID_00000109001368530417175720000006378179664125522867_);}
	.st20{fill:url(#SVGID_00000018224435028675825250000008838547906390560916_);}
	.st21{fill:url(#SVGID_00000008838371895419473730000007106431849083904130_);}
	.st22{fill:url(#SVGID_00000021089721305210849760000003732081989358582163_);}
	.st23{fill:url(#SVGID_00000083060986975941226220000009248042750451463812_);}
	.st24{fill:url(#SVGID_00000170273041012426429590000006262140148899396994_);}
	.st25{fill:url(#SVGID_00000148659147518301122120000005604308594233924028_);}
	.st26{fill:url(#SVGID_00000123442085628729278680000001241479169270620325_);}
	.st27{fill:url(#SVGID_00000113353115734757231600000014887477728525997209_);}
	.st28{fill:url(#SVGID_00000003101937074355921130000010478997018755933327_);}
	.st29{fill:url(#SVGID_00000123407953654767461890000012069755409679001489_);}
	.st30{fill:url(#SVGID_00000091016845219808163830000004180031538235497602_);}
	.st31{fill:url(#SVGID_00000134970703548026063960000015868427057153818240_);}
	.st32{fill:url(#SVGID_00000046319908946366601470000013485947889800951431_);}
	.st33{fill:url(#SVGID_00000128487111328300099220000000968940846457384629_);}
	.st34{fill:url(#SVGID_00000150798631569049568570000015733319160223001984_);}
	.st35{fill:url(#SVGID_00000026846238239735230780000008115912573971644554_);}
	.st36{fill:url(#SVGID_00000121253791832653838820000003637940342645642114_);}
	.st37{fill:url(#SVGID_00000061464771358851901000000000540599721213956225_);}
	.st38{fill:url(#SVGID_00000180354204628182602480000013891816922968381853_);}
	.st39{fill:url(#SVGID_00000095337824360620049290000012448414839661739688_);}
	.st40{fill:url(#SVGID_00000117645707102347729450000014545595477890320559_);}
	.st41{fill:url(#SVGID_00000148644389533037194300000007829556000781654187_);}
	.st42{fill:url(#SVGID_00000018201439932000339880000006479888906247431046_);}
	.st43{fill:url(#SVGID_00000009583214892736631200000000524730229927443109_);}
	.st44{fill:url(#SVGID_00000112629510297299004260000007836218427002779582_);}
	.st45{fill:url(#SVGID_00000069384784629913076770000000908515037100160139_);}
	.st46{fill:url(#SVGID_00000090255661831558382730000012341623095447797409_);}
	.st47{fill:url(#SVGID_00000163050003256332388900000006847389042428944529_);}
	.st48{fill:url(#SVGID_00000152967311833854891590000008812044534167953050_);}
	.st49{fill:url(#SVGID_00000097485052223634658300000008449259144093108913_);}
	.st50{fill:url(#SVGID_00000067218589698446293510000016534410312553037964_);}
	.st51{fill:url(#SVGID_00000151521007526563767870000013507487757744582074_);}
	.st52{fill:url(#SVGID_00000053543792675196041640000008199085488109157040_);}
	.st53{fill:url(#SVGID_00000130623219857181006150000000106910422464246917_);}
	.st54{fill:url(#SVGID_00000147926030200566091200000017555222028572740783_);}
	.st55{fill:url(#SVGID_00000158013791117340907900000012525428521709895067_);}
	.st56{fill:url(#SVGID_00000034779559928140889850000010064375412052774548_);}
	.st57{fill:url(#SVGID_00000093172436632699561850000016878226892316740498_);}
	.st58{fill:url(#SVGID_00000012462823699826678730000014308926077707656362_);}
	.st59{fill:url(#SVGID_00000172398260492530613530000005660878170715584673_);}
	.st60{fill:url(#SVGID_00000064354496726832876080000001879429927683957638_);}
	.st61{fill:url(#SVGID_00000112602023404296183510000012636774414422791555_);}
	.st62{fill:url(#SVGID_00000147191982535013152440000005731711279561536133_);}
	.st63{fill:url(#SVGID_00000119799723646242867620000008881688555433637279_);}
	.st64{fill:url(#SVGID_00000018946541289189794190000001610909483397485233_);}
	.st65{fill:url(#SVGID_00000109728027022057167550000006490562049084662929_);}
	.st66{fill:url(#SVGID_00000031182165481030561500000003297021416413399950_);}
	.st67{fill:url(#SVGID_00000039122153307909598500000002238025051540687786_);}
	.st68{fill:url(#SVGID_00000067949304377344016390000008953223447135286447_);}
	.st69{fill:url(#SVGID_00000026883093041399108560000008938817948191342493_);}
	.st70{fill:url(#SVGID_00000013897953052481400010000011653795513981940649_);}
	.st71{fill:url(#SVGID_00000022550072144818037170000009088147044329842066_);}
	.st72{fill:url(#SVGID_00000152225697420403191820000003114284610719324544_);}
	.st73{fill:url(#SVGID_00000147932787167172873930000013447830677163157163_);}
	.st74{fill:url(#SVGID_00000171705739318690494350000006325653557742824878_);}
	.st75{fill:url(#SVGID_00000144310090018097007230000014343079573314959286_);}
	.st76{fill:url(#SVGID_00000150070187110200038070000017950873734503218588_);}
	.st77{fill:url(#SVGID_00000025420231024970433690000013056359637960068743_);}
	.st78{fill:url(#SVGID_00000158730730729129995100000016857481813443626651_);}
	.st79{fill:url(#SVGID_00000094601490767348343070000012086281022930120086_);}
	.st80{fill:url(#SVGID_00000100374427282085070270000006704416795045101485_);}
	.st81{fill:url(#SVGID_00000070118389982248792510000003870340322186749065_);}
	.st82{fill:url(#SVGID_00000078758858438197347110000016440038450732844685_);}
	.st83{fill:url(#SVGID_00000174589991819567241250000001245003091887780226_);}
	.st84{fill:url(#SVGID_00000050658399660445529210000002593186524885944193_);}
	.st85{fill:url(#SVGID_00000133515642824371658640000004220989971590943883_);}
	.st86{fill:url(#SVGID_00000129193082087326540220000003300290048655671446_);}
	.st87{fill:url(#SVGID_00000001644829597139388680000001954043649800694179_);}
	.st88{fill:url(#SVGID_00000152960377400447290740000004910680894689367184_);}
	.st89{fill:url(#SVGID_00000087383576600979424560000007788033220286668984_);}
	.st90{fill:url(#SVGID_00000011727795697497298050000017092843565860638112_);}
	.st91{fill:url(#SVGID_00000025418876282324830390000010202551513533464457_);}
	.st92{fill:url(#SVGID_00000177471187240086626040000009539205323975608228_);}
	.st93{fill:url(#SVGID_00000168099989870057082980000005260352396010102946_);}
	.st94{fill:url(#SVGID_00000044160113660748027420000004275581202159813783_);}
	.st95{fill:url(#SVGID_00000044162041320019831160000002734947513701836695_);}
	.st96{fill:url(#SVGID_00000075145716831737926230000001181098730490199192_);}
	.st97{fill:url(#SVGID_00000085244504012452468950000012296196425532660923_);}
	.st98{fill:url(#SVGID_00000050628850704576284870000005526680732381243564_);}
	.st99{fill:url(#SVGID_00000122689000216149057230000002691396614607643008_);}
	.st100{fill:url(#SVGID_00000178188214475021786970000013449523248453057157_);}
	.st101{fill:url(#SVGID_00000074434013999641009500000018153401487965211796_);}
	.st102{fill:url(#SVGID_00000083792448650278755690000010573920850377905834_);}
	.st103{fill:url(#SVGID_00000099648482025358208200000000475611439983551656_);}
	.st104{fill:url(#SVGID_00000160154058929286163670000011250764448539134895_);}
	.st105{fill:url(#SVGID_00000040534639593848866580000001119697776791825575_);}
	.st106{fill:url(#SVGID_00000142894620731752521730000010529082776789966757_);}
	.st107{fill:url(#SVGID_00000059270058299709020310000013581880880942770060_);}
	.st108{fill:url(#SVGID_00000044895768371237762210000011658141954600168834_);}
	.st109{fill:url(#SVGID_00000092438518083900086610000005319597554589836441_);}
	.st110{fill:url(#SVGID_00000177457626116517303810000012830087496948309167_);}
	.st111{fill:url(#SVGID_00000147904782456809558440000010442639834103539631_);}
	.st112{fill:url(#SVGID_00000062880149620690464870000008124139294648715666_);}
	.st113{fill:url(#SVGID_00000011744944402139045420000004270973168907938198_);}
	.st114{fill:url(#SVGID_00000094614446487272777850000009739600197166223548_);}
	.st115{fill:url(#SVGID_00000118398770313717654680000005923707908158311314_);}
	.st116{fill:url(#SVGID_00000054233905829398609940000009956419274917441182_);}
	.st117{fill:url(#SVGID_00000090996603978617636970000018314035229119763894_);}
	.st118{fill:url(#SVGID_00000149358321999298518100000017164248435980708760_);}
	.st119{fill:url(#SVGID_00000183938314004381700260000009360852047777916326_);}
	.st120{fill:#EDEDED;}
	.st121{fill:url(#SVGID_00000123416689317090856470000018076763161071409819_);}
	.st122{fill:url(#SVGID_00000134222690052911888550000014961759266891300799_);}
	.st123{fill:url(#SVGID_00000093886563362329408520000010473843151003708548_);}
	.st124{fill:url(#SVGID_00000018210755132499607620000000545925041144763063_);}
	.st125{fill:url(#SVGID_00000147194146618463017190000003616479075807957889_);}
	.st126{fill:url(#SVGID_00000067235669701569037720000008092389606577481104_);}
	.st127{fill:url(#SVGID_00000141447947203629459450000008811698714281008312_);}
	.st128{fill:url(#SVGID_00000041293287458128038060000005024350763738066581_);}
	.st129{fill:url(#SVGID_00000114752615528338941650000016376827849362281653_);}
	.st130{fill:url(#SVGID_00000145754544089530552950000016173029752166313876_);}
	.st131{fill:url(#SVGID_00000069357000440205702360000015783351875022859410_);}
	.st132{fill:url(#SVGID_00000169521045573853513370000016441087224235881135_);}
	.st133{fill:url(#SVGID_00000107583338576443744040000017106139520927792003_);}
	.st134{fill:url(#SVGID_00000150799851420922230550000004493899590511515009_);}
	.st135{fill:url(#SVGID_00000111904302188802687500000016564054319517900687_);}
	.st136{fill:url(#SVGID_00000083774500255350904810000011706606683656271779_);}
	.st137{fill:url(#SVGID_00000005983214385669747030000015170354218562117042_);}
	.st138{fill:url(#SVGID_00000130645101979499087910000015613688876542054062_);}
	.st139{fill:url(#SVGID_00000086688173004650257710000007919619987630854024_);}
	.st140{fill:url(#SVGID_00000049922109079979415160000010111911202896767915_);}
	.st141{fill:url(#SVGID_00000128468565580122216500000014290336486709908101_);}
	.st142{fill:url(#SVGID_00000178178968727240905500000000185419164287119294_);}
	.st143{fill:url(#SVGID_00000005230030683707558820000017939930301423845768_);}
	.st144{fill:url(#SVGID_00000024001919996195840480000006882589778517242014_);}
	.st145{fill:url(#SVGID_00000005946495479688936490000015930510535014589076_);}
	.st146{fill:url(#SVGID_00000139988730188160796460000006876325694792257927_);}
	.st147{fill:url(#SVGID_00000084494966279451770520000018197835638869727381_);}
	.st148{fill:url(#SVGID_00000176018191443686072630000015327166412652568229_);}
	.st149{fill:url(#SVGID_00000111183539828545797490000005967976751232990869_);}
	.st150{fill:url(#SVGID_00000123416825153402068840000000031319629374817209_);}
	.st151{fill:url(#SVGID_00000022527511151802691370000005488109902572656021_);}
	.st152{fill:url(#SVGID_00000065775229632832659570000003567014785882767544_);}
	.st153{fill:url(#SVGID_00000169559056157664997230000009532499870489391504_);}
	.st154{fill:url(#SVGID_00000041274924469064275120000005785228553277369790_);}
	.st155{fill:url(#SVGID_00000070810989703262657350000002899324817601987968_);}
	.st156{fill:url(#SVGID_00000139264740177450835570000002502462842019319700_);}
	.st157{clip-path:url(#SVGID_00000165236334597753184790000005832654072141877387_);}
	.st158{fill:url(#Path_4160_00000118357629283771976520000018316436668625026728_);}
	.st159{fill:url(#Path_4161_00000065040724359946434810000006851356224264953010_);}
	.st160{fill:url(#Path_4162_00000160188758520857131420000008751538442733774507_);}
	.st161{fill:url(#Path_4163_00000132058714335736168630000015631065787291194753_);}
	.st162{fill:url(#Path_4164_00000033348484463660002750000007069606106400427676_);}
	.st163{fill:url(#Path_4165_00000027595126741556206570000011223885474162193281_);}
	.st164{fill:url(#Path_4166_00000088129955773665332710000007085220645672818620_);}
	.st165{fill:url(#Path_4167_00000149378940973602812830000017146300228982982051_);}
	.st166{fill:url(#SVGID_00000098922334718996756760000013957586290485570951_);}
	.st167{fill:url(#SVGID_00000024695099047612165070000017507851548555118219_);}
	.st168{fill:url(#SVGID_00000026138552234083678230000007936444824988014758_);}
	.st169{fill:url(#SVGID_00000048474469307794891400000017080363610843460261_);}
	.st170{fill:url(#SVGID_00000150823390737737410730000002946980738790252183_);}
	.st171{fill:url(#SVGID_00000134226710622503855660000004570381665444093343_);}
	.st172{fill:url(#SVGID_00000106117865101642684660000013831295603554990993_);}
	.st173{fill:url(#SVGID_00000081632634274352091610000007652504826192593589_);}
	.st174{fill:url(#SVGID_00000165224571149937237940000015611067545169552812_);}
	.st175{fill:url(#SVGID_00000008869500376681346340000005857671214332703385_);}
	.st176{fill:url(#SVGID_00000077283111034043135360000002469387154782179724_);}
	.st177{fill:url(#SVGID_00000116216797851222847430000011034013394640318650_);}
	.st178{fill:url(#SVGID_00000025420328985400424080000014897221597176255393_);}
	.st179{fill:url(#SVGID_00000026845307661497117010000013161359549400688278_);}
	.st180{fill:url(#SVGID_00000180346350942417462800000003866656839245149318_);}
	.st181{fill:url(#SVGID_00000110450457934985888890000008977874973428278975_);}
	.st182{fill:url(#SVGID_00000065038985167955413910000000294351026091226500_);}
	.st183{fill:url(#SVGID_00000035516575900656528070000004072993875838215357_);}
	.st184{fill:url(#SVGID_00000133496473969828043630000010295971603419083187_);}
	.st185{fill:url(#SVGID_00000037652986601878620920000010045513506233630613_);}
	.st186{fill:url(#SVGID_00000003069842140281504040000008605899357524382620_);}
	.st187{fill:url(#SVGID_00000111892019641556600080000017157910287474426039_);}
	.st188{fill:url(#SVGID_00000127735712358766079440000001769836934921493911_);}
	.st189{fill:url(#SVGID_00000129189476117396720540000001026497910595314315_);}
	.st190{fill:url(#SVGID_00000106833452478676874540000013899279959427217336_);}
	.st191{fill:url(#SVGID_00000036244630949060641370000009828528806712759953_);}
	.st192{fill:url(#SVGID_00000005968956360836538860000000042183422964791963_);}
	.st193{fill:url(#SVGID_00000018944554734087769080000015671654731340087997_);}
	.st194{fill:url(#SVGID_00000126315363445718413810000008709626215105391282_);}
	.st195{fill:url(#SVGID_00000181045893299431592060000017351574046748469414_);}
	.st196{fill:url(#SVGID_00000024704690840313785670000002263517871641425598_);}
	.st197{fill:url(#SVGID_00000114060718852450267610000014386239037038502043_);}
	.st198{fill:url(#SVGID_00000121991716684320968420000013940467867618859653_);}
	.st199{fill:url(#SVGID_00000053534923827460452190000010817281304982565264_);}
	.st200{fill:url(#SVGID_00000068674470732585676310000013529703049296303038_);}
	.st201{fill:url(#SVGID_00000096737923051756671130000005703514905579627929_);}
	.st202{fill:url(#SVGID_00000030484177476876707510000012467333513288823474_);}
	.st203{fill:url(#SVGID_00000080897546597001068800000006855038688047741881_);}
	.st204{fill:url(#SVGID_00000054253173383476957460000016495587245924768657_);}
	.st205{fill:url(#SVGID_00000180329246828274595760000014177852369864267143_);}
	.st206{fill:url(#SVGID_00000156546153701102744720000006286508092799588522_);}
	.st207{fill:url(#SVGID_00000141421063688329195150000017942651876468168343_);}
	.st208{fill:url(#SVGID_00000039125962855564712860000010185539096984664989_);}
	.st209{fill:url(#SVGID_00000075148058289671360220000012727339184289313212_);}
	.st210{fill:url(#SVGID_00000147902568735980527780000006970520762128010635_);}
	.st211{fill:url(#SVGID_00000064350959274964412400000003578125669806704294_);}
	.st212{fill:url(#SVGID_00000173147444624392975430000002070115217866923916_);}
	.st213{fill:url(#SVGID_00000141430075024459082550000006680124455510915739_);}
	.st214{fill:url(#SVGID_00000081644695164593552960000015418227060167633039_);}
	.st215{fill:url(#SVGID_00000152242523811987616330000004644415229687055756_);}
	.st216{fill:url(#SVGID_00000155835961354674663040000004481812666680396692_);}
	.st217{fill:url(#SVGID_00000144308348719588344610000001586454178198176655_);}
	.st218{fill:url(#SVGID_00000145042841153494423200000005019148680841113226_);}
	.st219{fill:url(#SVGID_00000060032395786689251910000006945952074129645991_);}
	.st220{fill:url(#SVGID_00000096759704923489076280000011309689471085680768_);}
	.st221{fill:url(#SVGID_00000096045544561277734460000015758964038504465314_);}
	.st222{fill:url(#SVGID_00000177444362139631619510000009376023936538990737_);}
	.st223{fill:url(#SVGID_00000063611874191846195240000002691505910036299181_);}
	.st224{fill:url(#SVGID_00000045603168864458388440000008913227137252285085_);}
	.st225{fill:url(#SVGID_00000134237262045837375190000004096238297905844400_);}
	.st226{fill:url(#SVGID_00000090986890449547481320000003386786591315419811_);}
	.st227{fill:url(#SVGID_00000039114670674124805080000005155635171047563136_);}
	.st228{fill:url(#SVGID_00000129172353786524566450000012707546986557523845_);}
	.st229{fill:url(#SVGID_00000034047587175815188340000009100255922418267551_);}
	.st230{fill:url(#SVGID_00000036961113195368862360000001101982865508707005_);}
	.st231{fill:url(#SVGID_00000054248073148922065460000003226433241187491256_);}
	.st232{fill:url(#SVGID_00000140725380104241228650000018161418214715117489_);}
	.st233{fill:url(#SVGID_00000009577481840017496120000006282359769433154988_);}
	.st234{fill:url(#SVGID_00000034775100820765513580000001949830727243766409_);}
	.st235{fill:url(#SVGID_00000018217593822070993810000005982632440985989802_);}
	.st236{fill:url(#SVGID_00000105387516822273738210000000012926433321065136_);}
	.st237{fill:url(#SVGID_00000179608864276083335980000010947364765248145084_);}
	.st238{fill:url(#SVGID_00000002357263666435857080000000803153597158197893_);}
	.st239{fill:url(#SVGID_00000116231698950987401480000006786560481494659972_);}
	.st240{fill:url(#SVGID_00000153679160025934110210000009843523636335947928_);}
	.st241{fill:url(#SVGID_00000016039219425905973780000002627796074741344932_);}
	.st242{fill:url(#SVGID_00000110441868285102806260000001619292371878059433_);}
	.st243{fill:url(#SVGID_00000136406224188645596580000016952036436887569562_);}
	.st244{fill:url(#SVGID_00000056419884197403053960000015179891499518490269_);}
	.st245{fill:url(#SVGID_00000080208448803126688110000003133508214492568204_);}
	.st246{fill:url(#SVGID_00000108290388171602652470000015256310996595954323_);}
	.st247{fill:url(#SVGID_00000032637914551489949670000013498278346096214969_);}
	.st248{fill:url(#SVGID_00000158733616258587966640000006285155258943063203_);}
	.st249{fill:url(#SVGID_00000044883693595304762640000004737344039517204886_);}
	.st250{fill:url(#SVGID_00000070814313929633546250000016776577776229049216_);}
	.st251{fill:url(#SVGID_00000116955648502226769770000011591400463819990425_);}
	.st252{fill:url(#SVGID_00000150797109922368600750000010621465198127370687_);}
	.st253{fill:url(#SVGID_00000006672544795465218850000011991701461490463911_);}
	.st254{fill:url(#SVGID_00000037670504138286866400000000488967586053776831_);}
	.st255{fill:url(#SVGID_00000081626478121678510790000004466858499224199302_);}
	.st256{fill:url(#SVGID_00000179604641321304300910000011821608592814906801_);}
	.st257{fill:url(#SVGID_00000094583985728047472580000014676575187906976922_);}
	.st258{fill:url(#SVGID_00000071535572481652663870000005920046927250994835_);}
	.st259{fill:url(#SVGID_00000138550683257725966870000001692723993089813661_);}
	.st260{fill:url(#SVGID_00000063607014790234342770000016498364015745374894_);}
	.st261{fill:url(#SVGID_00000049184187419648473260000000572074186071010724_);}
	.st262{fill:url(#SVGID_00000166643307113057290380000003593722498548217259_);}
	.st263{fill:url(#SVGID_00000109732615350586326280000003947260517692795289_);}
	.st264{fill:url(#SVGID_00000068639802604795425430000013591991210648069253_);}
	.st265{fill:url(#SVGID_00000140004099890091921700000015702168508273547965_);}
	.st266{fill:url(#SVGID_00000036237219671101763400000000934977241929651596_);}
	.st267{fill:url(#SVGID_00000007394677896710598850000003043196796073233324_);}
	.st268{fill:url(#SVGID_00000067957914676559717600000011143064998177843105_);}
	.st269{fill:url(#SVGID_00000028314255244073135720000016758751055545668776_);}
	.st270{fill:url(#SVGID_00000181076353247179018200000016052741007200538272_);}
	.st271{fill:url(#SVGID_00000029016105067168825400000017678625029811708297_);}
	.st272{fill:url(#SVGID_00000103267225439977157590000007644857730494423690_);}
	.st273{fill:url(#SVGID_00000177468362455142330720000006940377427053607851_);}
	.st274{fill:url(#SVGID_00000132790000384277197030000009986118901968363967_);}
	.st275{fill:url(#SVGID_00000043420333251548727360000004409345504990543000_);}
	.st276{fill:url(#SVGID_00000160166791764689200850000003121848635724001676_);}
	.st277{fill:url(#SVGID_00000069391582292508694960000003566270897594588859_);}
	.st278{fill:url(#SVGID_00000160881788691194417770000008140745825680474301_);}
	.st279{fill:url(#SVGID_00000164490479658635043590000011516947272973538181_);}
	.st280{fill:url(#SVGID_00000013186700561292716210000006014690576792322973_);}
	.st281{fill:url(#SVGID_00000062913634333271743290000010625209745192019076_);}
	.st282{fill:url(#SVGID_00000070101086242392209690000017675603426783314090_);}
	.st283{fill:url(#SVGID_00000060000556158308440690000001514447587040206249_);}
	.st284{fill:url(#SVGID_00000013876497398878248020000001619924162325842819_);}
	.st285{fill:url(#SVGID_00000091721593734286950510000004918316235563113091_);}
	.st286{fill:url(#SVGID_00000064326540536145507360000005777176364419453350_);}
	.st287{fill:url(#SVGID_00000181783098655632112450000015242843600431586216_);}
	.st288{fill:url(#SVGID_00000039111122886414483490000017586582537640168589_);}
	.st289{fill:url(#SVGID_00000154415055179972189930000004875269127288605880_);}
	.st290{fill:url(#SVGID_00000036228692571946522810000003058852922147188150_);}
	.st291{fill:url(#SVGID_00000129911950252134351370000004519923739979195777_);}
	.st292{fill:url(#SVGID_00000112629280166756829390000007761714190320416391_);}
	.st293{fill:url(#SVGID_00000041292112513532864720000002076476833135688847_);}
	.st294{fill:url(#SVGID_00000094589359771439490930000008288182368440753070_);}
	.st295{fill:url(#SVGID_00000155836648488433963800000005402825531292229293_);}
	.st296{fill:url(#SVGID_00000005245970107191587610000014540826838947316360_);}
	.st297{fill:url(#SVGID_00000162334963373465628390000010856815659666709663_);}
	.st298{fill:url(#SVGID_00000099631387771208368430000012439022684399743412_);}
	.st299{fill:url(#SVGID_00000042732239821313478260000004302026706332102809_);}
	.st300{fill:url(#SVGID_00000088117770294266182250000001340398629350894243_);}
	.st301{fill:url(#SVGID_00000124854976909310810940000002077527728013620101_);}
	.st302{fill:url(#SVGID_00000083779539805132961700000009946339437885355674_);}
	.st303{fill:url(#SVGID_00000005224700871706783010000004316495749783974275_);}
	.st304{fill:url(#SVGID_00000116939071581669120550000000805266827410642070_);}
	.st305{fill:url(#SVGID_00000009572372304071713000000010733062698287406525_);}
	.st306{fill:url(#SVGID_00000160150777046955837430000017724673749242151074_);}
	.st307{fill:url(#SVGID_00000046335197678002954510000014789025249056394627_);}
	.st308{fill:url(#SVGID_00000031200210215334124220000016894519857771805840_);}
	.st309{fill:url(#SVGID_00000168805887594016616360000002493174003865913235_);}
	.st310{fill:url(#SVGID_00000003803378431479752910000016248201745593598904_);}
	.st311{fill:url(#SVGID_00000180327427579999638660000014829414198820600961_);}
	.st312{fill:url(#SVGID_00000150787399544103197930000010740543042944688534_);}
	.st313{fill:url(#SVGID_00000026885185401097433540000013071688472277447832_);}
	.st314{fill:url(#SVGID_00000127730742356243758240000002504036670523010952_);}
	.st315{fill:url(#SVGID_00000160871832937187053400000010064774874963250362_);}
	.st316{fill:url(#SVGID_00000057840140008723745170000000951389087694697904_);}
	.st317{fill:url(#SVGID_00000021841860085182125720000009550237964005707429_);}
	.st318{fill:url(#SVGID_00000036954373136210588560000007329770571602177164_);}
	.st319{fill:url(#SVGID_00000143589974675857259970000011605179672153817002_);}
	.st320{fill:url(#SVGID_00000130647508282907936010000006780636200380258180_);}
	.st321{fill:url(#SVGID_00000046334172217238152520000015516283056964168839_);}
	.st322{fill:url(#SVGID_00000059270993088528673060000009971112304291503775_);}
	.st323{fill:url(#SVGID_00000145779665690834977030000004984292099278547585_);}
	.st324{fill:url(#SVGID_00000010311884522135904190000015302629536155556537_);}
	.st325{fill:url(#SVGID_00000049906628788454507760000013330136335206505901_);}
	.st326{fill:url(#SVGID_00000089531678532932660800000009903644198377570472_);}
	.st327{fill:url(#SVGID_00000079470376553490704810000014615906944429844406_);}
	.st328{fill:url(#SVGID_00000177465995764144335670000014555373400817392045_);}
	.st329{fill:url(#SVGID_00000020386417038830631520000005191448965192676021_);}
	.st330{fill:url(#SVGID_00000093890282304374812510000011912457301012759210_);}
	.st331{fill:url(#SVGID_00000061448487990505829080000004544445312052872619_);}
	.st332{fill:url(#SVGID_00000119111415876767484270000007968874742954440069_);}
	.st333{fill:url(#SVGID_00000014592928023300373870000015688593751648753583_);}
	.st334{fill:url(#SVGID_00000010996481480872343280000011170181806196588983_);}
	.st335{fill:url(#SVGID_00000159438289558480103690000002670525033732509860_);}
	.st336{fill:url(#SVGID_00000180369083133245707090000007464737214756341927_);}
	.st337{fill:url(#SVGID_00000057110033331294388660000000604576560362126993_);}
	.st338{fill:url(#SVGID_00000087399451990203983790000008061603370077701513_);}
	.st339{fill:url(#SVGID_00000170992025446036557000000006600245979199463599_);}
	.st340{fill:url(#SVGID_00000119084553017056363570000016542362508847874482_);}
	.st341{fill:url(#SVGID_00000052793255803859514680000014534318562160190879_);}
	.st342{fill:url(#SVGID_00000168801351263591095900000016782057788571685004_);}
	.st343{fill:url(#SVGID_00000065038722734244823060000003187219595325515454_);}
	.st344{fill:url(#SVGID_00000065776180537511910880000001365028057306856833_);}
	.st345{fill:url(#SVGID_00000131331349976105868260000011108570816723778716_);}
	.st346{fill:url(#SVGID_00000102515649580003480330000007399221745100860082_);}
	.st347{fill:url(#SVGID_00000163759077694581549600000001708516836641482117_);}
	.st348{fill:url(#SVGID_00000116203303375481906510000017566617873058378387_);}
	.st349{fill:url(#SVGID_00000103972120976588607410000001349953113237982099_);}
	.st350{fill:url(#SVGID_00000020390333116500684190000013110060514714436231_);}
	.st351{fill:url(#SVGID_00000133496286311691937930000014742018585970049471_);}
	.st352{fill:url(#SVGID_00000150782541489016116380000013885675252324555392_);}
	.st353{fill:url(#SVGID_00000140733935076551068590000016268201063544782977_);}
	.st354{fill:url(#SVGID_00000090289509903230011800000010140764076153708688_);}
	.st355{fill:url(#SVGID_00000169555400208709228940000001259064199227908512_);}
	.st356{fill:url(#SVGID_00000085228696673802561730000008889410893838741379_);}
	.st357{fill:url(#SVGID_00000069398426540687497690000003782353806299081103_);}
	.st358{fill:url(#SVGID_00000155835013699174849930000017612619942424868482_);}
	.st359{fill:url(#SVGID_00000135674638220390038770000012262007690642963363_);}
	.st360{fill:url(#SVGID_00000158029587698969267950000004996025998557591961_);}
	.st361{fill:url(#SVGID_00000060740997499129937040000014376594227850846121_);}
	.st362{fill:url(#SVGID_00000021100551560425712770000015287967669133872033_);}
	.st363{fill:url(#SVGID_00000180364393109368763350000006811796119640055445_);}
	.st364{fill:url(#SVGID_00000092443084977629636360000006923708574988154505_);}
	.st365{fill:url(#SVGID_00000147940212859903808910000010240814618157655978_);}
	.st366{fill:url(#SVGID_00000133529553452033111790000011817555170124381580_);}
	.st367{fill:url(#SVGID_00000081641550237880603640000017977885368609318557_);}
	.st368{fill:url(#SVGID_00000003066580575949119630000007438232440438562712_);}
	.st369{fill:url(#SVGID_00000182502022544094897840000017533369521121276822_);}
	.st370{fill:url(#SVGID_00000069385523164779265260000016061275138645595831_);}
	.st371{fill:url(#SVGID_00000062162394881078894680000011253398144168724612_);}
	.st372{fill:url(#SVGID_00000121268439280492584940000006175402216996888455_);}
	.st373{fill:url(#SVGID_00000142170143749266004610000016612463811179634085_);}
	.st374{fill:url(#SVGID_00000052075949331878076930000007040615970971861128_);}
	.st375{fill:url(#SVGID_00000036224303716852220990000017303537751983823027_);}
	.st376{fill:url(#SVGID_00000181788986379182954970000003674592091282601895_);}
	.st377{fill:url(#SVGID_00000179607981824078687000000008473348799847971978_);}
	.st378{fill:url(#SVGID_00000136374481030388787490000011210952734091322547_);}
	.st379{fill:url(#SVGID_00000033336446585256645540000015265626345107658938_);}
	.st380{fill:url(#SVGID_00000141419920741942090960000015219327284330823854_);}
	.st381{fill:url(#SVGID_00000065782813540258007410000008222472621453600942_);}
	.st382{fill:url(#SVGID_00000121986750686323719170000002681283024123810189_);}
	.st383{fill:url(#SVGID_00000069382615511502213120000003187160256936666000_);}
	.st384{fill:url(#SVGID_00000064328845508090400640000008990304820160872887_);}
	.st385{fill:url(#SVGID_00000169537177481882181830000008118054498106057129_);}
	.st386{fill:url(#SVGID_00000058584935574760085790000001626940715809249932_);}
	.st387{fill:url(#SVGID_00000011025212117408794500000011808982930505147545_);}
	.st388{fill:url(#SVGID_00000062891723421976180890000002810417920527115662_);}
	.st389{fill:url(#SVGID_00000067949782501127213320000002734677436356836518_);}
	.st390{fill:url(#SVGID_00000098218050008021437180000004243981297581969578_);}
	.st391{fill:url(#SVGID_00000164515881283344923020000010257378076435218080_);}
	.st392{fill:url(#SVGID_00000008140686817203544670000016100375229392985233_);}
	.st393{fill:url(#SVGID_00000026858956248171245620000003072626713597675930_);}
	.st394{fill:url(#SVGID_00000070828363575244235640000014522075133949354645_);}
	.st395{fill:url(#SVGID_00000058550122119232842530000000105120236080295592_);}
	.st396{fill:url(#SVGID_00000004519027808958250850000013770970464583699100_);}
	.st397{fill:url(#SVGID_00000013188514225901403400000003796532305835809436_);}
	.st398{fill:url(#SVGID_00000002346601407216415150000006631960089339936923_);}
	.st399{fill:url(#SVGID_00000029024521689825955450000000371017954902966205_);}
	.st400{fill:url(#SVGID_00000116958400874508306340000002949714319349976961_);}
	.st401{fill:url(#SVGID_00000000195354943197448830000014147581005683858355_);}
	.st402{fill:url(#SVGID_00000009552048815734407960000012748077287320934319_);}
	.st403{fill:url(#SVGID_00000101094948239080156460000016199594723074430641_);}
	.st404{fill:url(#SVGID_00000086651418907656153160000017972631730014827941_);}
	.st405{fill:url(#SVGID_00000106838605153838495320000014563256401292510603_);}
	.st406{fill:url(#SVGID_00000172423030528251061340000007516360689406570898_);}
	.st407{fill:url(#SVGID_00000015324875180005377180000003403821869016713104_);}
	.st408{fill:url(#SVGID_00000062170059760783577300000003489902663171180163_);}
	.st409{fill:url(#SVGID_00000152971116905536605080000013871646674302510004_);}
	.st410{fill:url(#SVGID_00000137824594943256403910000016121795819785240484_);}
	.st411{fill:url(#SVGID_00000126288899174081200690000000432124753054283700_);}
	.st412{fill:url(#SVGID_00000102514021292579917890000017030124859193139079_);}
	.st413{fill:url(#SVGID_00000081632958110424618270000012843183546606025887_);}
	.st414{fill:url(#SVGID_00000075134502643148993890000013522560284195127437_);}
	.st415{fill:url(#SVGID_00000157271378146434516900000004836551873609797783_);}
	.st416{fill:url(#SVGID_00000139996558569481689670000002711175897919872164_);}
	.st417{fill:url(#SVGID_00000114046080817505737170000012640937167892555940_);}
	.st418{fill:url(#SVGID_00000121985818518100997000000009790725595189177254_);}
</style>
<ellipse id="Ellipse_113_00000000931282200854095170000005329825774301593515_" class="st0" cx="75" cy="75" rx="70" ry="70"/>
<g>
	<linearGradient id="SVGID_1_" gradientUnits="userSpaceOnUse" x1="40.0067" y1="75" x2="109.9933" y2="75">
		<stop  offset="0" style="stop-color:#FF6600"/>
		<stop  offset="0" style="stop-color:#FF5204"/>
		<stop  offset="1" style="stop-color:#FF270D"/>
	</linearGradient>
	<path class="st1" d="M102.5,60c1.6,0,3.1,0,4.6,0c2,0,2.9-0.9,2.9-2.9c0-4.7,0-9.4,0-14.1c0-2.1-0.9-3-3.1-3c-21.3,0-42.6,0-63.9,0
		c-0.2,0-0.4,0-0.6,0c-1.3,0.1-2.4,1.1-2.4,2.4c0,5.1,0,10.2,0,15.2c0,1.2,1,2.3,2.1,2.3c1.8,0.1,3.5,0,5.3,0c0-0.3,0-0.6,0-0.9
		c0-3.4,0-6.7,0-10.1c0-0.9,0.4-1.4,1.1-1.5C49.4,47.4,50,48,50,49c0,3.4,0,6.8,0,10.2c0,0.3,0,0.6,0,0.8c2.6,0,5,0,7.5,0
		c0-3.7,0-7.2,0-10.8c0-1,0.5-1.6,1.3-1.6c0.8,0,1.2,0.6,1.2,1.6c0,3.3,0,6.7,0,10c0,0.3,0,0.6,0,0.8c2.5,0,5,0,7.5,0
		c0-2.2,0-4.3,0-6.4c0-1.5,0-3.1,0-4.6c0-1,0.8-1.6,1.6-1.3c0.7,0.2,0.9,0.7,0.9,1.4c0,3.4,0,6.8,0,10.2c0,0.3,0,0.5,0,0.8
		c3.4,0,6.7,0,10,0c0-0.3,0-0.6,0-0.9c0-3.4,0-6.7,0-10.1c0-0.9,0.4-1.4,1.1-1.5c0.8-0.1,1.4,0.5,1.4,1.5c0,3.4,0,6.8,0,10.2
		c0,0.3,0,0.6,0,0.8c2.6,0,5,0,7.5,0c0-3.7,0-7.2,0-10.8c0-1,0.4-1.6,1.2-1.6c0.8,0,1.3,0.6,1.3,1.6c0,3.3,0,6.7,0,10
		c0,0.3,0,0.6,0,0.8c2.5,0,5,0,7.5,0c0-0.3,0-0.6,0-0.9c0-3.3,0-6.7,0-10c0-1,0.5-1.6,1.3-1.5c0.8,0,1.2,0.6,1.2,1.6
		c0,2.9,0,5.9,0,8.8C102.5,58.6,102.5,59.2,102.5,60z M45,62.5c0,0.3,0,0.6,0,0.8c0,14.6,0,29.1,0,43.7c0,0.2,0,0.4,0,0.5
		c0.1,1.2,0.9,2.3,2,2.3c1.8,0.1,3.6,0,5.5,0c0-0.4,0-0.7,0-1c0-11.6,0-23.1,0-34.7c0-1.4,0.4-1.8,1.8-1.8c13.8,0,27.5,0,41.3,0
		c1.5,0,1.9,0.3,1.9,1.9c0,11.6,0,23.1,0,34.7c0,0.3,0,0.6,0,0.9c1.6,0,3,0,4.5,0c2.1,0,3-0.9,3-3c0-14.5,0-29.1,0-43.6
		c0-0.3,0-0.6,0-0.9C85,62.5,65.1,62.5,45,62.5z M77.5,92.5c0-0.4,0-0.7,0-1c0-1,0.5-1.5,1.5-1.5c0.7,0,1.5,0,2.2,0
		c0.8,0,1.3,0.5,1.3,1.3c0,0.4,0,0.8,0,1.1c1.7,0,3.3,0,5,0c0-0.3,0-0.7,0-1c0-1,0.5-1.5,1.5-1.5c0.7,0,1.4,0,2,0
		c1,0,1.5,0.5,1.5,1.5c0,0.3,0,0.7,0,1c0.9,0,1.7,0,2.5,0c0-2.5,0-4.9,0-7.4c-13.3,0-26.6,0-39.9,0c0,2.5,0,5,0,7.4
		c0.8,0,1.6,0,2.4,0c0-0.3,0-0.7,0-1c0-1,0.5-1.5,1.5-1.5c0.7,0,1.4,0,2,0c1,0,1.5,0.5,1.5,1.5c0,0.3,0,0.7,0,1c1.7,0,3.3,0,5,0
		c0-0.3,0-0.6,0-0.8c0-1.2,0.4-1.6,1.6-1.6c0.7,0,1.4,0,2.1,0c0.8,0,1.2,0.5,1.3,1.3c0,0.4,0,0.8,0,1.2
		C74.2,92.5,75.8,92.5,77.5,92.5z M57.5,82.5c0.3-1.5,1.1-2.4,2.4-2.4c0.5,0,1.1,0.1,1.5,0.4c0.6,0.5,1,1.3,1.5,2c0.6,0,1.5,0,2.3,0
		c-0.4-1.8,0-3.2,1.5-4.3c1.3-0.9,2.7-1,4-0.2c1.7,1,2.2,2.6,1.7,4.4c1.8,0,3.5,0,5.3,0c-0.4-1.8,0-3.3,1.6-4.3c1.3-0.8,2.7-0.9,4,0
		c1.6,1,2.1,2.5,1.6,4.4c0.9,0,1.7,0,2.6,0c0.5-1.7,1.3-2.5,2.7-2.5c1.3,0,2.1,0.8,2.5,2.4c0.8,0,1.6,0,2.4,0c0-2.5,0-5,0-7.4
		c-13.3,0-26.6,0-39.9,0c0,2.5,0,4.9,0,7.4C55.9,82.5,56.6,82.5,57.5,82.5z M95,95.1c-13.3,0-26.6,0-39.9,0c0,2.5,0,4.9,0,7.4
		c0.8,0,1.6,0,2.5,0c0-1.2,0-2.4,0-3.5c0-0.9,0.5-1.4,1.4-1.4c0.7,0,1.3,0,2,0c1.2,0,1.6,0.4,1.6,1.6c0,1.1,0,2.2,0,3.3
		c1.7,0,3.3,0,5,0c0-1.2,0-2.3,0-3.5c0-1.1,0.5-1.5,1.5-1.5c0.6,0,1.2,0,1.9,0c1.2,0,1.6,0.4,1.6,1.6c0,1.1,0,2.2,0,3.3
		c1.7,0,3.3,0,5,0c0-1.2,0-2.3,0-3.5c0-1,0.5-1.4,1.4-1.5c0.7,0,1.3,0,2,0c1.2,0,1.6,0.4,1.6,1.6c0,1.1,0,2.2,0,3.4c1.7,0,3.3,0,5,0
		c0-1.2,0-2.4,0-3.5c0-0.9,0.5-1.4,1.4-1.4c0.7,0,1.3,0,2,0c1.2,0,1.6,0.4,1.6,1.6c0,1.1,0,2.2,0,3.3c0.9,0,1.7,0,2.5,0
		C95,100,95,97.5,95,95.1z M94.9,110c0-1.7,0-3.3,0-4.9c-13.3,0-26.6,0-39.9,0c0,1.7,0,3.3,0,4.9C68.4,110,81.6,110,94.9,110z"/>
	
		<linearGradient id="SVGID_00000003819904597907767210000008069434662149743542_" gradientUnits="userSpaceOnUse" x1="40.0067" y1="50.0007" x2="109.9933" y2="50.0007">
		<stop  offset="0" style="stop-color:#FF6600"/>
		<stop  offset="0" style="stop-color:#FF5204"/>
		<stop  offset="1" style="stop-color:#FF270D"/>
	</linearGradient>
	<path style="fill:url(#SVGID_00000003819904597907767210000008069434662149743542_);" d="M102.5,60c0-0.8,0-1.4,0-2.1
		c0-2.9,0-5.9,0-8.8c0-1-0.5-1.6-1.2-1.6c-0.8,0-1.3,0.6-1.3,1.5c0,3.3,0,6.7,0,10c0,0.3,0,0.6,0,0.9c-2.5,0-5,0-7.5,0
		c0-0.3,0-0.6,0-0.8c0-3.3,0-6.7,0-10c0-1-0.5-1.6-1.3-1.6c-0.8,0-1.2,0.6-1.2,1.6c0,3.6,0,7.2,0,10.8c-2.5,0-4.9,0-7.5,0
		c0-0.3,0-0.5,0-0.8c0-3.4,0-6.8,0-10.2c0-1-0.6-1.6-1.4-1.5C80.4,47.6,80,48.1,80,49c0,3.4,0,6.7,0,10.1c0,0.3,0,0.6,0,0.9
		c-3.3,0-6.6,0-10,0c0-0.3,0-0.5,0-0.8c0-3.4,0-6.8,0-10.2c0-0.7-0.2-1.2-0.9-1.4c-0.8-0.3-1.6,0.4-1.6,1.3c0,1.5,0,3.1,0,4.6
		c0,2.1,0,4.3,0,6.4c-2.5,0-5,0-7.5,0c0-0.3,0-0.6,0-0.8c0-3.3,0-6.7,0-10c0-1-0.4-1.6-1.2-1.6c-0.8,0-1.3,0.6-1.3,1.6
		c0,3.6,0,7.2,0,10.8c-2.5,0-4.9,0-7.5,0c0-0.3,0-0.5,0-0.8c0-3.4,0-6.8,0-10.2c0-1-0.6-1.6-1.4-1.5c-0.7,0.1-1.1,0.6-1.1,1.5
		c0,3.4,0,6.7,0,10.1c0,0.3,0,0.6,0,0.9c-1.8,0-3.6,0.1-5.3,0C41,59.9,40,58.8,40,57.6c0-5.1,0-10.2,0-15.2c0-1.3,1.1-2.3,2.4-2.4
		c0.2,0,0.4,0,0.6,0c21.3,0,42.6,0,63.9,0c2.1,0,3.1,0.9,3.1,3c0,4.7,0,9.4,0,14.1c0,2-1,2.9-2.9,2.9C105.6,60,104.1,60,102.5,60z"
		/>
	
		<linearGradient id="SVGID_00000044868225779429979420000013010114895567611817_" gradientUnits="userSpaceOnUse" x1="45.0087" y1="86.2701" x2="104.994" y2="86.2701">
		<stop  offset="0" style="stop-color:#FF6600"/>
		<stop  offset="0" style="stop-color:#FF5204"/>
		<stop  offset="1" style="stop-color:#FF270D"/>
	</linearGradient>
	<path style="fill:url(#SVGID_00000044868225779429979420000013010114895567611817_);" d="M45,62.5c20,0,40,0,60,0
		c0,0.3,0,0.6,0,0.9c0,14.5,0,29.1,0,43.6c0,2.1-0.9,3-3,3c-1.5,0-2.9,0-4.5,0c0-0.3,0-0.6,0-0.9c0-11.6,0-23.1,0-34.7
		c0-1.5-0.3-1.9-1.9-1.9c-13.8,0-27.5,0-41.3,0c-1.4,0-1.8,0.4-1.8,1.8c0,11.6,0,23.1,0,34.7c0,0.3,0,0.6,0,1c-1.9,0-3.7,0.1-5.5,0
		c-1.1-0.1-2-1.2-2-2.3c0-0.2,0-0.4,0-0.5c0-14.6,0-29.1,0-43.7C45,63.1,45,62.9,45,62.5z"/>
	
		<linearGradient id="SVGID_00000008855130399037091340000001556946112249794471_" gradientUnits="userSpaceOnUse" x1="55.0662" y1="88.7574" x2="94.955" y2="88.7574">
		<stop  offset="0" style="stop-color:#FF6600"/>
		<stop  offset="0" style="stop-color:#FF5204"/>
		<stop  offset="1" style="stop-color:#FF270D"/>
	</linearGradient>
	<path style="fill:url(#SVGID_00000008855130399037091340000001556946112249794471_);" d="M77.5,92.5c-1.7,0-3.3,0-5,0
		c0-0.4,0-0.8,0-1.2c0-0.8-0.5-1.2-1.3-1.3c-0.7,0-1.4,0-2.1,0c-1.2,0-1.6,0.4-1.6,1.6c0,0.3,0,0.5,0,0.8c-1.7,0-3.3,0-5,0
		c0-0.3,0-0.6,0-1c0-1-0.5-1.5-1.5-1.5c-0.7,0-1.4,0-2,0c-1,0-1.4,0.5-1.5,1.5c0,0.3,0,0.6,0,1c-0.8,0-1.6,0-2.4,0
		c0-2.4,0-4.9,0-7.4c13.3,0,26.6,0,39.9,0c0,2.5,0,4.9,0,7.4c-0.8,0-1.6,0-2.5,0c0-0.3,0-0.6,0-1c0-1-0.5-1.5-1.5-1.5
		c-0.7,0-1.4,0-2,0c-1,0-1.4,0.5-1.5,1.5c0,0.3,0,0.6,0,1c-1.7,0-3.3,0-5,0c0-0.4,0-0.7,0-1.1c0-0.8-0.5-1.3-1.3-1.3
		c-0.7,0-1.5,0-2.2,0c-1,0-1.5,0.5-1.5,1.5C77.5,91.8,77.5,92.1,77.5,92.5z"/>
	
		<linearGradient id="SVGID_00000142893202581241469770000013507896369290238644_" gradientUnits="userSpaceOnUse" x1="55.0507" y1="78.7653" x2="94.9384" y2="78.7653">
		<stop  offset="0" style="stop-color:#FF6600"/>
		<stop  offset="0" style="stop-color:#FF5204"/>
		<stop  offset="1" style="stop-color:#FF270D"/>
	</linearGradient>
	<path style="fill:url(#SVGID_00000142893202581241469770000013507896369290238644_);" d="M57.5,82.5c-0.8,0-1.6,0-2.4,0
		c0-2.5,0-4.9,0-7.4c13.3,0,26.5,0,39.9,0c0,2.4,0,4.9,0,7.4c-0.8,0-1.6,0-2.4,0c-0.4-1.6-1.2-2.4-2.5-2.4c-1.3,0-2.2,0.8-2.7,2.5
		c-0.8,0-1.7,0-2.6,0c0.4-1.8,0-3.4-1.6-4.4c-1.3-0.8-2.7-0.8-4,0c-1.6,1-2,2.5-1.6,4.3c-1.8,0-3.5,0-5.3,0c0.4-1.9-0.1-3.4-1.7-4.4
		c-1.3-0.8-2.7-0.7-4,0.2c-1.5,1-1.9,2.5-1.5,4.3c-0.9,0-1.7,0-2.3,0c-0.5-0.7-1-1.5-1.5-2c-0.3-0.3-1-0.4-1.5-0.4
		C58.6,80,57.8,80.9,57.5,82.5z"/>
	
		<linearGradient id="SVGID_00000136408679266640971680000012979606242458063798_" gradientUnits="userSpaceOnUse" x1="55.0445" y1="98.7588" x2="94.9594" y2="98.7588">
		<stop  offset="0" style="stop-color:#FF6600"/>
		<stop  offset="0" style="stop-color:#FF5204"/>
		<stop  offset="1" style="stop-color:#FF270D"/>
	</linearGradient>
	<path style="fill:url(#SVGID_00000136408679266640971680000012979606242458063798_);" d="M95,95.1c0,2.5,0,4.9,0,7.4
		c-0.8,0-1.6,0-2.5,0c0-1.1,0-2.2,0-3.3c0-1.2-0.4-1.6-1.6-1.6c-0.7,0-1.3,0-2,0c-0.9,0-1.4,0.5-1.4,1.4c0,1.2,0,2.3,0,3.5
		c-1.7,0-3.3,0-5,0c0-1.1,0-2.3,0-3.4c0-1.2-0.4-1.6-1.6-1.6c-0.7,0-1.3,0-2,0c-1,0-1.4,0.5-1.4,1.5c0,1.1,0,2.3,0,3.5
		c-1.7,0-3.3,0-5,0c0-1.1,0-2.2,0-3.3c0-1.2-0.4-1.6-1.6-1.6c-0.6,0-1.2,0-1.9,0c-1.1,0-1.5,0.4-1.5,1.5c0,1.1,0,2.3,0,3.5
		c-1.7,0-3.3,0-5,0c0-1.1,0-2.2,0-3.3c0-1.2-0.4-1.6-1.6-1.6c-0.7,0-1.3,0-2,0c-0.9,0-1.4,0.5-1.4,1.4c0,1.2,0,2.3,0,3.5
		c-0.8,0-1.6,0-2.5,0c0-2.5,0-4.9,0-7.4C68.3,95.1,81.6,95.1,95,95.1z"/>
	
		<linearGradient id="SVGID_00000133512491568394206980000004983931002337169078_" gradientUnits="userSpaceOnUse" x1="55.0501" y1="107.5138" x2="94.94" y2="107.5138">
		<stop  offset="0" style="stop-color:#FF6600"/>
		<stop  offset="0" style="stop-color:#FF5204"/>
		<stop  offset="1" style="stop-color:#FF270D"/>
	</linearGradient>
	<path style="fill:url(#SVGID_00000133512491568394206980000004983931002337169078_);" d="M94.9,110c-13.3,0-26.6,0-39.9,0
		c0-1.6,0-3.2,0-4.9c13.3,0,26.6,0,39.9,0C94.9,106.7,94.9,108.3,94.9,110z"/>
</g>
</svg>
