<?xml version="1.0" encoding="utf-8"?>
<!-- Generator: Adobe Illustrator 27.4.0, SVG Export Plug-In . SVG Version: 6.00 Build 0)  -->
<svg version="1.1" id="Layer_1" xmlns="http://www.w3.org/2000/svg" xmlns:xlink="http://www.w3.org/1999/xlink" x="0px" y="0px"
	 viewBox="0 0 150 150" style="enable-background:new 0 0 150 150;" xml:space="preserve">
<style type="text/css">
	.st0{fill:#FEE8DA;}
	.st1{fill:url(#SVGID_1_);}
	.st2{clip-path:url(#SVGID_00000117665263398098636630000007640411021860369829_);}
	.st3{fill:url(#Path_4157_00000181777196784256478020000006955414024397210258_);}
	.st4{fill:url(#Path_4158_00000125586397664251368940000003703000066676995246_);}
	.st5{fill:url(#Path_4159_00000173859885752052829840000003432917923591205307_);}
	.st6{clip-path:url(#SVGID_00000124152921968833756390000011421460132760204200_);}
	.st7{fill:url(#Path_4168_00000065032490336410651390000005006958005749518723_);}
	.st8{fill:url(#Path_4169_00000032628822308294516880000014070028411670293124_);}
	.st9{fill:url(#Path_4170_00000033335031228822921370000003759661272221857423_);}
	.st10{fill:url(#Path_4171_00000132083361100448360240000006685127819971383977_);}
	.st11{fill:url(#Path_4172_00000085246846138669726730000003469670837127342219_);}
	.st12{fill:url(#Path_4173_00000129925313076422510450000014252425537105082761_);}
	.st13{fill:url(#SVGID_00000154384461626829382090000001692030078893909438_);}
	.st14{fill:url(#SVGID_00000085214564483629264100000012389101173124430768_);}
	.st15{fill:url(#SVGID_00000014613686020649671290000001831331954275662464_);}
	.st16{fill:url(#SVGID_00000021799174999777974700000005115727902884126142_);}
	.st17{fill:url(#SVGID_00000029744622099479569900000004430441085802005147_);}
	.st18{fill:url(#SVGID_00000131363280276128466690000013242537104509950853_);}
	.st19{fill:url(#SVGID_00000114048955383388776450000008472054300288201660_);}
	.st20{fill:url(#SVGID_00000101811399834129515850000012189378325875809703_);}
	.st21{fill:url(#SVGID_00000112631651674100924030000008552117293964293273_);}
	.st22{fill:url(#SVGID_00000166652436955687906830000000303440246764886453_);}
	.st23{fill:url(#SVGID_00000102535473799663061830000008591554953639211427_);}
	.st24{fill:url(#SVGID_00000183207634474532302680000014266522999856951996_);}
	.st25{fill:url(#SVGID_00000013878195204036217340000018273097369491545985_);}
	.st26{fill:url(#SVGID_00000163034148117648111960000013599501539136054431_);}
	.st27{fill:url(#SVGID_00000160907710430586673190000009481278805473285524_);}
	.st28{fill:url(#SVGID_00000062162340188925175560000014551441995062574770_);}
	.st29{fill:url(#SVGID_00000036965780209207945220000002114107762746771381_);}
	.st30{fill:url(#SVGID_00000060734176257497766150000006858602676383913905_);}
	.st31{fill:url(#SVGID_00000163046621270393056210000014139555858245163674_);}
	.st32{fill:url(#SVGID_00000034089558057200827960000017898127182012075443_);}
	.st33{fill:url(#SVGID_00000107584706692070480090000003360219466051363986_);}
	.st34{fill:url(#SVGID_00000132785392711526921350000002684547674907309757_);}
	.st35{fill:url(#SVGID_00000045606334687412607260000012866895730012736896_);}
	.st36{fill:url(#SVGID_00000183950929500009729550000010004873509808465289_);}
	.st37{fill:url(#SVGID_00000163760759318346086890000000439744729376859055_);}
	.st38{fill:url(#SVGID_00000086650557183421222580000009601589675658504620_);}
	.st39{fill:url(#SVGID_00000011744613209516807100000007510249389753246115_);}
	.st40{fill:url(#SVGID_00000046336530320065252290000001601682381410678687_);}
	.st41{fill:url(#SVGID_00000104676426672673877470000013384331339356880257_);}
	.st42{fill:url(#SVGID_00000021081593593626753870000012580725190995680387_);}
	.st43{fill:url(#SVGID_00000129164769490745988820000004258669936021755813_);}
	.st44{fill:url(#SVGID_00000016784298305024938030000002630762338532964542_);}
	.st45{fill:url(#SVGID_00000072997090235853306070000014431083098904222873_);}
	.st46{fill:url(#SVGID_00000031190203788823247880000006904478713962773173_);}
	.st47{fill:url(#SVGID_00000075846701301344861930000001673261738261368962_);}
	.st48{fill:url(#SVGID_00000170277094684797116270000006544556248084773816_);}
	.st49{fill:url(#SVGID_00000172438828476275926460000003803257525246644669_);}
	.st50{fill:url(#SVGID_00000096026120403267426820000012861381425448263349_);}
	.st51{fill:url(#SVGID_00000121247509076397428130000018261961525084759973_);}
	.st52{fill:url(#SVGID_00000034071561522996740750000009335637723188694952_);}
	.st53{fill:url(#SVGID_00000154413462348426294930000004754021247016049326_);}
	.st54{fill:url(#SVGID_00000023246665886937858260000017513468752365169294_);}
	.st55{fill:url(#SVGID_00000021113746846512827460000006396423225902334615_);}
	.st56{fill:url(#SVGID_00000174579204459813012080000001300579146954871681_);}
	.st57{fill:url(#SVGID_00000134250811255610812920000013970227392391439006_);}
	.st58{fill:url(#SVGID_00000069378173462973850660000016754627519058534274_);}
	.st59{fill:url(#SVGID_00000123430652983464911720000005110756745829119679_);}
	.st60{fill:url(#SVGID_00000026153149893924319560000016193875518827120820_);}
	.st61{fill:url(#SVGID_00000129179636288855046580000002737096591851373459_);}
	.st62{fill:url(#SVGID_00000122701942465911853050000016542263118229026476_);}
	.st63{fill:url(#SVGID_00000065050839286510093990000005894706439869628044_);}
	.st64{fill:url(#SVGID_00000054960995766875687650000010230248256852653456_);}
	.st65{fill:url(#SVGID_00000137813577347875281570000005654628410019588509_);}
	.st66{fill:url(#SVGID_00000039098231944474559690000009696820651811133361_);}
	.st67{fill:url(#SVGID_00000162319485555514509600000007453226521549714824_);}
	.st68{fill:url(#SVGID_00000088813887244804383780000013993499677167152036_);}
	.st69{fill:url(#SVGID_00000059299878775411466430000012301128008412356774_);}
	.st70{fill:url(#SVGID_00000034784457289335097920000004455261717861512855_);}
	.st71{fill:url(#SVGID_00000034074552937101049900000007975695512950848135_);}
	.st72{fill:url(#SVGID_00000072267901235495084610000006732444196104824713_);}
	.st73{fill:url(#SVGID_00000052074939454940821340000008548127056519784606_);}
	.st74{fill:url(#SVGID_00000078733175974685882290000006226401432508734360_);}
	.st75{fill:url(#SVGID_00000171701523896970370940000002006634075276818102_);}
	.st76{fill:url(#SVGID_00000117655741529033093310000009285296865240072863_);}
	.st77{fill:url(#SVGID_00000013187400258287888830000017129427383353322375_);}
	.st78{fill:url(#SVGID_00000149378568614695519750000017733104449591315892_);}
	.st79{fill:url(#SVGID_00000148622718541927842560000018151617060322559387_);}
	.st80{fill:url(#SVGID_00000056427430322417053980000006120180239307632051_);}
	.st81{fill:url(#SVGID_00000001634534303482836030000001210927253979681426_);}
	.st82{fill:url(#SVGID_00000024709688811978722050000007272108504855152024_);}
	.st83{fill:url(#SVGID_00000088130188436953238320000004569955504251649158_);}
	.st84{fill:url(#SVGID_00000011739018020011695170000010220117238677030315_);}
	.st85{fill:url(#SVGID_00000003803042670966093000000012925905159170298754_);}
	.st86{fill:url(#SVGID_00000043446807724056343280000005613609704651756708_);}
	.st87{fill:url(#SVGID_00000047027771802114520830000017188470433670772927_);}
	.st88{fill:url(#SVGID_00000061458086828638021100000003832905715540422591_);}
	.st89{fill:url(#SVGID_00000041257314487020631110000005896616667837441927_);}
	.st90{fill:url(#SVGID_00000069369026117413625390000014359247480392203411_);}
	.st91{fill:url(#SVGID_00000079464128662088208750000013153700245777555377_);}
	.st92{fill:url(#SVGID_00000089545763130660684870000016680310541700988591_);}
	.st93{fill:url(#SVGID_00000145775468136170574790000002714545452580706239_);}
	.st94{fill:url(#SVGID_00000067236077237866016760000015641032861270028983_);}
	.st95{fill:url(#SVGID_00000078031734165718398680000008433224168937212826_);}
	.st96{fill:url(#SVGID_00000057122791417303760930000001959873606129592704_);}
	.st97{fill:url(#SVGID_00000021825068754915697440000001231757191898817171_);}
	.st98{fill:url(#SVGID_00000080894886550449830540000016481958006054935221_);}
	.st99{fill:url(#SVGID_00000011017571334311843170000003998340705558052248_);}
	.st100{fill:url(#SVGID_00000023976202697532188940000013581088047113770636_);}
	.st101{fill:url(#SVGID_00000106839129192727893090000007813332244461742242_);}
	.st102{fill:url(#SVGID_00000107567721601805108330000017752976501235645374_);}
	.st103{fill:url(#SVGID_00000135691345118312368560000017549322468984938156_);}
	.st104{fill:url(#SVGID_00000021799245078611557410000005226255393763232936_);}
	.st105{fill:url(#SVGID_00000148645653148212448800000003728841250457429424_);}
	.st106{fill:url(#SVGID_00000012445318502435877970000006437526255140455061_);}
	.st107{fill:url(#SVGID_00000134966683270262950690000013792186648981533321_);}
	.st108{fill:url(#SVGID_00000036968052268165256890000009954296351465186967_);}
	.st109{fill:url(#SVGID_00000003786376356950315110000001889751558397337780_);}
	.st110{fill:url(#SVGID_00000000202798201113502010000000529304161499546261_);}
	.st111{fill:url(#SVGID_00000037658224188518428430000001387683923564496814_);}
	.st112{fill:url(#SVGID_00000160184402635554095090000001264985550139211920_);}
	.st113{fill:url(#SVGID_00000149347478374379647570000016364138485882401173_);}
	.st114{fill:url(#SVGID_00000156561638064323703860000005285353949240428674_);}
	.st115{fill:url(#SVGID_00000046316364848792781390000015990749755504412588_);}
	.st116{fill:url(#SVGID_00000170960097412385580950000011993507688730862753_);}
	.st117{fill:url(#SVGID_00000005983132537828857730000011907072696724270977_);}
	.st118{fill:url(#SVGID_00000072962975185522274490000003393642197752097452_);}
	.st119{fill:url(#SVGID_00000104665017229216210290000003799094171466780553_);}
	.st120{fill:#EDEDED;}
	.st121{fill:url(#SVGID_00000173121726158164699950000011529215968055502487_);}
	.st122{fill:url(#SVGID_00000042707887727814176580000013659780177461740946_);}
	.st123{fill:url(#SVGID_00000045615437691008928940000014629902392703582137_);}
	.st124{fill:url(#SVGID_00000063634971018041251690000018035033252384863934_);}
	.st125{fill:url(#SVGID_00000172434685792752290290000008003819398321029819_);}
	.st126{fill:url(#SVGID_00000150078067566826670730000009674179521212625030_);}
	.st127{fill:url(#SVGID_00000013165478948182993270000011045551696056337813_);}
	.st128{fill:url(#SVGID_00000038398199982190188940000010032439563814996880_);}
	.st129{fill:url(#SVGID_00000000208514856261395400000003760892940505061808_);}
	.st130{fill:url(#SVGID_00000018958781269085688670000002537965999033629850_);}
	.st131{fill:url(#SVGID_00000049204083319606089590000009563574570366433465_);}
	.st132{fill:url(#SVGID_00000031207616799530295360000017897121397257213829_);}
	.st133{fill:url(#SVGID_00000047749029206495168860000016014196823059148418_);}
	.st134{fill:url(#SVGID_00000096031838658774434180000003754049769066837682_);}
	.st135{fill:url(#SVGID_00000164500732675266711610000008077682335525878442_);}
	.st136{fill:url(#SVGID_00000080897367394464227100000004341976680272704678_);}
	.st137{fill:url(#SVGID_00000075865715624766969220000008545478660608963471_);}
	.st138{fill:url(#SVGID_00000161601626803554246780000004406356211398751393_);}
	.st139{fill:url(#SVGID_00000118355849941405131160000017383887179073654458_);}
	.st140{fill:url(#SVGID_00000015324764372864498100000009309524947988360846_);}
	.st141{fill:url(#SVGID_00000057846244124828444910000001404888312072691877_);}
	.st142{fill:url(#SVGID_00000123433375935806269260000012554242198673168770_);}
	.st143{fill:url(#SVGID_00000033358618387041759650000002085581488150899620_);}
	.st144{fill:url(#SVGID_00000119112192600358429830000000392065270893533862_);}
	.st145{fill:url(#SVGID_00000169555855974917536360000014942498604497860741_);}
	.st146{fill:url(#SVGID_00000036224756577895543170000012144243841932273059_);}
	.st147{fill:url(#SVGID_00000089547833303911863830000007843484703203958926_);}
	.st148{fill:url(#SVGID_00000142173856966811034510000008156855169991256448_);}
	.st149{fill:url(#SVGID_00000093143816448061454460000005628197466156024243_);}
	.st150{fill:url(#SVGID_00000121249757136345690780000016599771447376107962_);}
	.st151{fill:url(#SVGID_00000163753651284978174550000013310023523123388557_);}
	.st152{fill:url(#SVGID_00000027569282588307069300000000808323225725487549_);}
	.st153{fill:url(#SVGID_00000009582420995931856330000004238588540084382364_);}
	.st154{fill:url(#SVGID_00000151532449707214172800000016595766430884542873_);}
	.st155{fill:url(#SVGID_00000175307324705151285060000012640340942433269640_);}
	.st156{fill:url(#SVGID_00000078731116481240585690000007070153303568301968_);}
	.st157{clip-path:url(#SVGID_00000036963876100717109740000013481817102031631277_);}
	.st158{fill:url(#Path_4160_00000023259705847093347760000016319484852180191360_);}
	.st159{fill:url(#Path_4161_00000023988365308926521980000003660901967333082286_);}
	.st160{fill:url(#Path_4162_00000153675974369073922160000001517990202965211787_);}
	.st161{fill:url(#Path_4163_00000106143605698182228580000000436245596373335959_);}
	.st162{fill:url(#Path_4164_00000132784546249000672670000000622722692775020211_);}
	.st163{fill:url(#Path_4165_00000130638369932754850130000003254747635857917869_);}
	.st164{fill:url(#Path_4166_00000054254650464556101320000014039526118645458611_);}
	.st165{fill:url(#Path_4167_00000077301681237775847810000008531644796716786578_);}
	.st166{fill:url(#SVGID_00000153670031657511949260000000957527103475353529_);}
	.st167{fill:url(#SVGID_00000117644056338283293260000013371486019475110846_);}
	.st168{fill:url(#SVGID_00000033350358905102961310000018110497102376944526_);}
	.st169{fill:url(#SVGID_00000039101424227504022650000005133008345565487512_);}
	.st170{fill:url(#SVGID_00000039811954983814206410000003393513533556990376_);}
	.st171{fill:url(#SVGID_00000127734143527820897590000015333138847259387538_);}
	.st172{fill:url(#SVGID_00000057128014280172167640000005387657649099261613_);}
	.st173{fill:url(#SVGID_00000076574331707356237070000017370370358571217564_);}
	.st174{fill:url(#SVGID_00000042011599496992449470000007707273123073325480_);}
	.st175{fill:url(#SVGID_00000172421283994409721480000001556696651913558704_);}
	.st176{fill:url(#SVGID_00000004523445761750538970000017627227626695714201_);}
	.st177{fill:url(#SVGID_00000044142652101074177170000005898750295000525492_);}
	.st178{fill:url(#SVGID_00000042727974738269237040000013703348803611135679_);}
	.st179{fill:url(#SVGID_00000121973228077967078150000015286680763665295022_);}
	.st180{fill:url(#SVGID_00000172441257059911204570000016883552237800252603_);}
	.st181{fill:url(#SVGID_00000002350690306124629830000018065125842124256922_);}
	.st182{fill:url(#SVGID_00000022523919459152194440000002588661216199686060_);}
	.st183{fill:url(#SVGID_00000176728787277453288280000012894112267951690675_);}
	.st184{fill:url(#SVGID_00000159442714509662945730000007546728962910929040_);}
	.st185{fill:url(#SVGID_00000100351457165405527560000014352120595149313675_);}
	.st186{fill:url(#SVGID_00000140723175305950656330000001149958169468598189_);}
	.st187{fill:url(#SVGID_00000039123648564402476400000013229165465159307409_);}
	.st188{fill:url(#SVGID_00000030488637422659422610000006513764696575675024_);}
	.st189{fill:url(#SVGID_00000041281554344231695740000016163096732105775513_);}
	.st190{fill:url(#SVGID_00000093873872592417229020000011794644512088483466_);}
	.st191{fill:url(#SVGID_00000088118449967853242620000008073706326495103617_);}
	.st192{fill:url(#SVGID_00000095302663608407231980000016131416701754132393_);}
	.st193{fill:url(#SVGID_00000160158947949820234770000009743619504015980467_);}
	.st194{fill:url(#SVGID_00000018926168554059750350000017931006609492889476_);}
	.st195{fill:url(#SVGID_00000078032472809205325490000016511951440486197125_);}
	.st196{fill:url(#SVGID_00000119113597293521812140000004235255784603943065_);}
	.st197{fill:url(#SVGID_00000121999314821619616680000011482299011920037280_);}
	.st198{fill:url(#SVGID_00000142881460942016038810000012814660593716624534_);}
	.st199{fill:url(#SVGID_00000091006737798784867900000012109072134848663439_);}
	.st200{fill:url(#SVGID_00000105423851253311291260000008281180135414571709_);}
	.st201{fill:url(#SVGID_00000051373202399197377760000009867196390617584275_);}
	.st202{fill:url(#SVGID_00000033351078139404072610000005783092147037415817_);}
	.st203{fill:url(#SVGID_00000074442530110234120690000002463881926118127288_);}
	.st204{fill:url(#SVGID_00000005969736785125029110000010602493312198369943_);}
	.st205{fill:url(#SVGID_00000105408504997246078550000013767049118526334858_);}
	.st206{fill:url(#SVGID_00000009549963834316691640000017319242695385614247_);}
	.st207{fill:url(#SVGID_00000121240981088175566680000008185872117065609141_);}
	.st208{fill:url(#SVGID_00000181779356335366206480000001881734899059097232_);}
	.st209{fill:url(#SVGID_00000182524684505085205610000012144524666227248559_);}
	.st210{fill:url(#SVGID_00000077315252593928404840000002383980992736211626_);}
	.st211{fill:url(#SVGID_00000047032529445525391700000014621470392196265120_);}
	.st212{fill:url(#SVGID_00000056419427937791570750000010365701015925026741_);}
	.st213{fill:url(#SVGID_00000158720234553892527160000001886220125919179949_);}
	.st214{fill:url(#SVGID_00000062191307862631975490000004292861009693069474_);}
	.st215{fill:url(#SVGID_00000049216288496004511720000013626150519939369366_);}
	.st216{fill:url(#SVGID_00000106138112034002792270000008048760118744849058_);}
	.st217{fill:url(#SVGID_00000068657389397901883150000016006306206610502073_);}
	.st218{fill:url(#SVGID_00000181044936483216481690000013503301947608181148_);}
	.st219{fill:url(#SVGID_00000157281675796818127290000010928020927745855409_);}
	.st220{fill:url(#SVGID_00000183246209095713850970000015603035012185249694_);}
	.st221{fill:url(#SVGID_00000098923716505103287170000008332975498703883147_);}
	.st222{fill:url(#SVGID_00000104676120819353717930000002583561166229081276_);}
	.st223{fill:url(#SVGID_00000074422327076024791160000004551100662428921230_);}
	.st224{fill:url(#SVGID_00000105410971202383713510000004352673434717211026_);}
	.st225{fill:url(#SVGID_00000002355358150711906020000010141856940603674513_);}
	.st226{fill:url(#SVGID_00000056387498248438493000000010852082669589567125_);}
	.st227{fill:url(#SVGID_00000057115040314537672290000001240659908614044588_);}
	.st228{fill:url(#SVGID_00000116198527719753363380000011633628051564874399_);}
	.st229{fill:url(#SVGID_00000096763454125768733190000007712378385450631063_);}
	.st230{fill:url(#SVGID_00000054961261455065911140000007371540500151815066_);}
	.st231{fill:url(#SVGID_00000127759264386599055800000000599702878602856634_);}
	.st232{fill:url(#SVGID_00000126322629583609087750000010385343350219724987_);}
	.st233{fill:url(#SVGID_00000157991396416177112720000018299703312588020868_);}
	.st234{fill:url(#SVGID_00000036965666983567395300000008460597752643714205_);}
	.st235{fill:url(#SVGID_00000182490367409633577810000014386285264674908309_);}
	.st236{fill:url(#SVGID_00000016064857806868098770000014997858626164124048_);}
	.st237{fill:url(#SVGID_00000178917192249460515840000013784938123372462726_);}
	.st238{fill:url(#SVGID_00000127030486730086900000000002319554749846599313_);}
	.st239{fill:url(#SVGID_00000123425356471604462200000012517106021395815579_);}
	.st240{fill:url(#SVGID_00000118384575220895404130000008403368262527409553_);}
	.st241{fill:url(#SVGID_00000163053865441590943430000010106034917915944379_);}
	.st242{fill:url(#SVGID_00000036232100876003111360000001658112144378888327_);}
	.st243{fill:url(#SVGID_00000163786262108504877640000013308712557945592737_);}
	.st244{fill:url(#SVGID_00000176731085980613379970000014945366645447264147_);}
	.st245{fill:url(#SVGID_00000098922999261201550800000001535510698234209981_);}
	.st246{fill:url(#SVGID_00000130647979118798810860000000451365611063299712_);}
	.st247{fill:url(#SVGID_00000044163642550962342520000015143239057853192353_);}
	.st248{fill:url(#SVGID_00000006708925387373234890000016707815887080637576_);}
	.st249{fill:url(#SVGID_00000084496190298842031440000005565921530877299601_);}
	.st250{fill:url(#SVGID_00000077290746837250703930000016754919591217779347_);}
	.st251{fill:url(#SVGID_00000021087416633682194990000004505459778759079607_);}
	.st252{fill:url(#SVGID_00000051364007308412511650000015947284290097806220_);}
	.st253{fill:url(#SVGID_00000085948053322442337010000016630998783547614127_);}
	.st254{fill:url(#SVGID_00000183220693221190967350000008835988395635440308_);}
	.st255{fill:url(#SVGID_00000098921883836298849920000018148281408077217972_);}
	.st256{fill:url(#SVGID_00000142871239279391820950000016663652062028357051_);}
	.st257{fill:url(#SVGID_00000140723859361324814510000005618698087215482035_);}
	.st258{fill:url(#SVGID_00000141425641868141268300000003206233826540368314_);}
	.st259{fill:url(#SVGID_00000086689562870458199210000003100651635792023189_);}
	.st260{fill:url(#SVGID_00000116941963401392497490000018322886693340775602_);}
	.st261{fill:url(#SVGID_00000072237800270113120710000011399120984735376002_);}
	.st262{fill:url(#SVGID_00000123411122594938130110000010059132296460818051_);}
	.st263{fill:url(#SVGID_00000110441326982531253860000015615780914755257509_);}
	.st264{fill:url(#SVGID_00000086689960073806812300000014753649233057156505_);}
	.st265{fill:url(#SVGID_00000062151907149557413860000003630628609564628884_);}
	.st266{fill:url(#SVGID_00000122682889782232407460000005546966747595545240_);}
	.st267{fill:url(#SVGID_00000143612039804336891440000000932556035992717185_);}
	.st268{fill:url(#SVGID_00000132067176696199317380000006835899026121821066_);}
	.st269{fill:url(#SVGID_00000182500012846051351830000004697245666235060375_);}
	.st270{fill:url(#SVGID_00000008853061215344894850000010126451434601348282_);}
	.st271{fill:url(#SVGID_00000018214372471502712750000000225420805724972458_);}
	.st272{fill:url(#SVGID_00000090975388980370428960000018428162986008828823_);}
	.st273{fill:url(#SVGID_00000066479512113818721650000003004065231683327659_);}
	.st274{fill:url(#SVGID_00000050643752785988132000000005589651409522362519_);}
	.st275{fill:url(#SVGID_00000082343790137279246560000007194154075971230622_);}
	.st276{fill:url(#SVGID_00000062183396450155238180000004914859310379086228_);}
	.st277{fill:url(#SVGID_00000085231853878435607660000006044049555547303063_);}
	.st278{fill:url(#SVGID_00000129190833989060068740000007389869147673779102_);}
	.st279{fill:url(#SVGID_00000011032819403895196170000012120759821256873127_);}
	.st280{fill:url(#SVGID_00000050625996304818916600000003773207548065846431_);}
	.st281{fill:url(#SVGID_00000177443304413709023660000015864838681458213036_);}
	.st282{fill:url(#SVGID_00000152256807999884118090000015306414549459624327_);}
	.st283{fill:url(#SVGID_00000139272727350950732850000006723628823192458156_);}
	.st284{fill:url(#SVGID_00000039121963578787041600000002169683782213018286_);}
	.st285{fill:url(#SVGID_00000039134513174883177980000004110630954394619576_);}
	.st286{fill:url(#SVGID_00000106116445992267204270000002332112381782184606_);}
	.st287{fill:url(#SVGID_00000182518120553665203340000007872938089391572132_);}
	.st288{fill:url(#SVGID_00000067926000463640920090000009648399312819406472_);}
	.st289{fill:url(#SVGID_00000109725121335642539790000002759418815414662817_);}
	.st290{fill:url(#SVGID_00000029026759360458676790000017128137198508841132_);}
	.st291{fill:url(#SVGID_00000179613466987008841340000016110103037875791542_);}
	.st292{fill:url(#SVGID_00000107564963151699066070000004716045871687661986_);}
	.st293{fill:url(#SVGID_00000044176594864343921350000009651807709093074064_);}
	.st294{fill:url(#SVGID_00000170274657505646408750000007294607654598559889_);}
	.st295{fill:url(#SVGID_00000099629720058594699800000012117096601772845456_);}
	.st296{fill:url(#SVGID_00000161611635777740101940000016566878522539205048_);}
	.st297{fill:url(#SVGID_00000032630709943685001900000002028202746211443076_);}
	.st298{fill:url(#SVGID_00000160173714181076156840000008230237830933377158_);}
	.st299{fill:url(#SVGID_00000070086183734626657300000010902854505565719187_);}
	.st300{fill:url(#SVGID_00000071526793093646127860000005223536347983552188_);}
	.st301{fill:url(#SVGID_00000103986252130470319040000010482037100916721855_);}
	.st302{fill:url(#SVGID_00000065037936883185694580000010990130683957517986_);}
	.st303{fill:url(#SVGID_00000133531200378814248780000004603996617086537904_);}
	.st304{fill:url(#SVGID_00000098920154320582482660000006322833150234231983_);}
	.st305{fill:url(#SVGID_00000050661675591151665220000014318314412011823543_);}
	.st306{fill:url(#SVGID_00000175296526180776122260000013150726277476265370_);}
	.st307{fill:url(#SVGID_00000166650498066273020010000008097178844115036085_);}
	.st308{fill:url(#SVGID_00000169523892574809797070000005965884896017838220_);}
	.st309{fill:url(#SVGID_00000158744901313719930000000007211585733919651723_);}
	.st310{fill:url(#SVGID_00000142148318572123131200000009642207195066599604_);}
	.st311{fill:url(#SVGID_00000106144265488228087240000002210913566403952264_);}
	.st312{fill:url(#SVGID_00000003067819742600733330000005536012619023430050_);}
	.st313{fill:url(#SVGID_00000147937749813176208770000001551878739921965500_);}
	.st314{fill:url(#SVGID_00000085948169274950538890000018028989745934279048_);}
	.st315{fill:url(#SVGID_00000008124280226005815350000005772462502317397949_);}
	.st316{fill:url(#SVGID_00000047021556135150675440000010960112282064974214_);}
	.st317{fill:url(#SVGID_00000016759853858414902970000009165180746614609296_);}
	.st318{fill:url(#SVGID_00000178166237533237579240000006405748786473880204_);}
	.st319{fill:url(#SVGID_00000136401646762854103180000010916605088544847015_);}
	.st320{fill:url(#SVGID_00000124152354500450002570000000836394344369283975_);}
	.st321{fill:url(#SVGID_00000178891490533029989110000014586109186995788946_);}
	.st322{fill:url(#SVGID_00000019654173652555083910000011926456980706142871_);}
	.st323{fill:url(#SVGID_00000172422561510071237900000001549415280002796215_);}
	.st324{fill:url(#SVGID_00000180325075150096167320000007362792691150214074_);}
	.st325{fill:url(#SVGID_00000102502667391218517380000006828280557812123012_);}
	.st326{fill:url(#SVGID_00000058547110434048334220000003324563976844343431_);}
	.st327{fill:url(#SVGID_00000010276894935210011630000000287146562513938607_);}
	.st328{fill:url(#SVGID_00000055685441964321251700000015227599656318379928_);}
	.st329{fill:url(#SVGID_00000020367880467865943620000003461157684556959390_);}
	.st330{fill:url(#SVGID_00000086689001927305905730000000106442070436329621_);}
	.st331{fill:url(#SVGID_00000161597246909895174470000013928184454867360180_);}
	.st332{fill:url(#SVGID_00000142873076732633525530000015289722341838679467_);}
	.st333{fill:url(#SVGID_00000152255747244283004230000003568907858359275927_);}
	.st334{fill:url(#SVGID_00000047751273802698982070000016503137866806410894_);}
	.st335{fill:url(#SVGID_00000074423909257568222310000001704862931787533736_);}
	.st336{fill:url(#SVGID_00000115479943945914810150000003297754322745315244_);}
	.st337{fill:url(#SVGID_00000121263743898556185510000007312590073942599338_);}
	.st338{fill:url(#SVGID_00000137108891210757858130000013881401082719305347_);}
	.st339{fill:url(#SVGID_00000139262255813905382630000016307531131143729820_);}
	.st340{fill:url(#SVGID_00000132069398496881159830000011901489569568095365_);}
	.st341{fill:url(#SVGID_00000159467361251757204480000003102593879386195855_);}
	.st342{fill:url(#SVGID_00000078763679536800665300000014223647716430215096_);}
	.st343{fill:url(#SVGID_00000030482780000741058270000018346071482740583562_);}
	.st344{fill:url(#SVGID_00000095298712305284216360000008061887269241110938_);}
	.st345{fill:url(#SVGID_00000065056058542911661130000004915398240777359495_);}
	.st346{fill:url(#SVGID_00000172414575339047758120000018446583286012350627_);}
	.st347{fill:url(#SVGID_00000006679905331714344650000007822093689075717526_);}
	.st348{fill:url(#SVGID_00000070799736363961049340000006622362179660695480_);}
	.st349{fill:url(#SVGID_00000162313336025865124610000012667928128211063228_);}
	.st350{fill:url(#SVGID_00000134931519840724911670000005143921225069872527_);}
	.st351{fill:url(#SVGID_00000156584966687106820440000016674729893856140719_);}
	.st352{fill:url(#SVGID_00000124860022235510423510000014551655648270653585_);}
	.st353{fill:url(#SVGID_00000121993032475679618150000004898841052896331667_);}
	.st354{fill:url(#SVGID_00000058587238513440575560000017402733286786356413_);}
	.st355{fill:url(#SVGID_00000027599907324411106150000005581016900713795981_);}
	.st356{fill:url(#SVGID_00000104691662669674298090000004372556177710923172_);}
	.st357{fill:url(#SVGID_00000029754653481022259150000011510392768502326186_);}
	.st358{fill:url(#SVGID_00000170993071255235653220000004222505667786293137_);}
	.st359{fill:url(#SVGID_00000143593701943060568560000005722268100259968950_);}
	.st360{fill:url(#SVGID_00000175293984836788005210000003014111129983689380_);}
	.st361{fill:url(#SVGID_00000036932200187694806290000007703881938052863422_);}
	.st362{fill:url(#SVGID_00000147910401857209030220000000055988578605804219_);}
	.st363{fill:url(#SVGID_00000060718173329410157380000013372844769923080837_);}
	.st364{fill:url(#SVGID_00000005229887396479300360000013826698300895086750_);}
	.st365{fill:url(#SVGID_00000170244279674304666520000009304556938667299467_);}
	.st366{fill:url(#SVGID_00000132807559610671764760000014565513054648119737_);}
	.st367{fill:url(#SVGID_00000076572885417197907560000000815201030584459917_);}
	.st368{fill:url(#SVGID_00000155854115218642890840000008287102637595689373_);}
	.st369{fill:url(#SVGID_00000089556565624401314570000011428262304302486198_);}
	.st370{fill:url(#SVGID_00000103264532812685593380000005289893463256321468_);}
	.st371{fill:url(#SVGID_00000042714030028570621100000012839191767196072876_);}
	.st372{fill:url(#SVGID_00000052806655869229670440000002149261860667743368_);}
	.st373{fill:url(#SVGID_00000051369532254169782630000009273131997243866793_);}
	.st374{fill:url(#SVGID_00000178910416308393278320000005957572526902219198_);}
	.st375{fill:url(#SVGID_00000074437234108185451400000000062903284184898200_);}
	.st376{fill:url(#SVGID_00000047773560137456521220000000037946522047857570_);}
	.st377{fill:url(#SVGID_00000158741182548631770570000010087237100274740609_);}
	.st378{fill:url(#SVGID_00000080203038099197499670000004026138423173135279_);}
	.st379{fill:url(#SVGID_00000139260118852470149620000012893687323652336531_);}
	.st380{fill:url(#SVGID_00000173877118816972042420000002206563701698205375_);}
	.st381{fill:url(#SVGID_00000170984283114334824250000004701383770391528578_);}
	.st382{fill:url(#SVGID_00000006673217634378229340000009092067697621559225_);}
	.st383{fill:url(#SVGID_00000067946302600629837020000017996149675719653815_);}
	.st384{fill:url(#SVGID_00000098202367124123164770000015588886255808881557_);}
	.st385{fill:url(#SVGID_00000183957113188267299290000008991136517502972860_);}
	.st386{fill:url(#SVGID_00000031200905772244531160000011107150259676310401_);}
	.st387{fill:url(#SVGID_00000052808655975034746520000016077167309892983481_);}
	.st388{fill:url(#SVGID_00000114756733888558505660000007004333362672687271_);}
	.st389{fill:url(#SVGID_00000070101200223326568260000010646935737619820979_);}
	.st390{fill:url(#SVGID_00000124119453091174022560000015599183832593103773_);}
	.st391{fill:url(#SVGID_00000160880179275937668510000013131867009782328487_);}
	.st392{fill:url(#SVGID_00000108289055324435579510000001319076619754198203_);}
	.st393{fill:url(#SVGID_00000053535032702916947390000008953904297437151137_);}
	.st394{fill:url(#SVGID_00000057839105423364469150000017496555572737269678_);}
	.st395{fill:url(#SVGID_00000021838050490833508480000010293372931500281530_);}
	.st396{fill:url(#SVGID_00000165192766644106787850000010497754331925311130_);}
	.st397{fill:url(#SVGID_00000000923343667090022590000015797384554181980332_);}
	.st398{fill:url(#SVGID_00000160896566829311885160000001245378205678113453_);}
	.st399{fill:url(#SVGID_00000148619350196478043400000003443703854601446540_);}
	.st400{fill:url(#SVGID_00000033369755516529433530000004663339064403439549_);}
	.st401{fill:url(#SVGID_00000095318648532726198420000005437402619576256667_);}
	.st402{fill:url(#SVGID_00000101104773120871545050000007267187556832337563_);}
	.st403{fill:url(#SVGID_00000152246168990139681940000003828469899040702369_);}
	.st404{fill:url(#SVGID_00000158026706089182932860000017808966942280197762_);}
	.st405{fill:url(#SVGID_00000060737521543043008580000014352986404665918336_);}
	.st406{fill:url(#SVGID_00000038394801860363475980000001758131007211358139_);}
	.st407{fill:url(#SVGID_00000107561756667149441680000011569193720462693764_);}
	.st408{fill:url(#SVGID_00000062892499371624893460000000160044712344087737_);}
	.st409{fill:url(#SVGID_00000139286924613597731260000004956795012880451256_);}
	.st410{fill:url(#SVGID_00000105411397186552309990000007334296214448509345_);}
	.st411{fill:url(#SVGID_00000094615517637809903920000006670502993436908193_);}
	.st412{fill:url(#SVGID_00000085234072560746169490000003351169556852528780_);}
	.st413{fill:url(#SVGID_00000029732020037942926490000005112132074901759415_);}
	.st414{fill:url(#SVGID_00000171000551387215787840000015464905031408061352_);}
	.st415{fill:url(#SVGID_00000030486669497407942900000004679925419476496316_);}
	.st416{fill:url(#SVGID_00000178205858012871110130000005208180098264014220_);}
	.st417{fill:url(#SVGID_00000065756193218752897520000002211439801001924015_);}
	.st418{fill:url(#SVGID_00000084505155151289076350000001233199492086165941_);}
</style>
<ellipse id="Ellipse_113_00000147931226437972483530000011759345346728613035_" class="st0" cx="75" cy="75" rx="70" ry="70"/>
<g>
	<linearGradient id="SVGID_1_" gradientUnits="userSpaceOnUse" x1="36.8671" y1="75" x2="113.1329" y2="75">
		<stop  offset="0" style="stop-color:#FF6600"/>
		<stop  offset="0" style="stop-color:#FF5204"/>
		<stop  offset="1" style="stop-color:#FF270D"/>
	</linearGradient>
	<path class="st1" d="M68.8,79.5c-0.2,0-0.5,0.1-0.7,0.1c-1.8,0.4-3.7,0.8-5.5,1.2c-1.8,0.4-2.8,1.4-2.8,3.3c-0.1,2.9,0,5.7,0,8.6
		c0,1.1,0.6,1.6,1.7,1.7c0.2,0,0.4,0,0.6,0c8.6,0,17.2,0,25.8,0c0.2,0,0.5,0,0.7,0c1-0.1,1.5-0.7,1.5-1.6c0-2.9,0.1-5.9,0-8.8
		c0-1.6-1.1-2.7-2.7-3.1c-1.9-0.4-3.8-0.8-5.6-1.2c-0.2,0-0.5-0.1-0.7-0.1c-1.2,3.4-3.9,4.5-6.2,4.4C72,83.9,69.9,82.4,68.8,79.5z
		 M66.9,64.9c0,2.3,0.6,4.3,1.8,6.2c2,3,5.3,4.4,8.4,3.3c2.5-0.9,4.1-2.6,5.1-5c1.4-3.2,1-6.4,0.1-9.6c-0.6-2.2-2.3-3.5-4.5-3.8
		c-1.8-0.2-3.7-0.2-5.5-0.1c-2.7,0.2-4.3,1.9-4.8,4.5C67.1,61.8,67,63.4,66.9,64.9z M41.6,51.9c0.2-0.1,0.2-0.1,0.3-0.2
		c1.2-1.1,1.8-1.1,2.9,0.1c1.4,1.4,2.8,2.8,4.2,4.2c0.7,0.8,1.5,1.5,2.1,2.2c1.3-1.3,2.6-2.6,3.9-3.9c-0.1-0.1-0.3-0.3-0.5-0.5
		c-1.8-1.8-3.6-3.6-5.4-5.4c-1.7-1.7-1.7-1.7-0.5-3.8c-2.8-0.4-5.6-0.8-8.4-1.2C40.7,46.4,41.2,49.1,41.6,51.9z M55.1,95.6
		c-1.3-1.3-2.6-2.6-3.9-3.9c-1.9,1.9-3.9,3.9-5.9,5.9c-1.7,1.7-1.7,1.7-3.7,0.4c-0.4,2.8-0.8,5.5-1.2,8.4c2.9-0.4,5.6-0.8,8.5-1.2
		c-0.1-0.2-0.1-0.2-0.2-0.3c-1.1-1.3-1.1-1.8,0.1-3C50.9,99.9,53,97.7,55.1,95.6z M94.9,72.3c0,1.9,0,3.6,0,5.5c0.3,0,0.6,0,0.9,0
		c2.8,0,5.6,0,8.3,0c1.5,0,1.9,0.5,2,2c0,0.1,0,0.2,0.1,0.4c2.3-1.7,4.6-3.4,6.9-5.1c-2.3-1.7-4.6-3.4-6.9-5.1
		c-0.4,2.3-0.5,2.4-2.8,2.4C100.6,72.3,97.8,72.3,94.9,72.3z M98.8,58.3c0.1-0.1,0.3-0.3,0.5-0.5c1.9-1.9,3.9-3.8,5.8-5.8
		c1.2-1.3,2.2-1.2,3.2-0.1c0,0,0.1,0,0.2,0c0.4-2.7,0.8-5.5,1.2-8.4c-2.9,0.4-5.6,0.8-8.5,1.2c0.1,0.2,0.1,0.3,0.2,0.3
		c1.1,1.2,1,1.8-0.1,2.9c-1.5,1.5-2.9,3-4.4,4.4c-0.7,0.7-1.4,1.3-2.1,1.9C96.2,55.7,97.5,57,98.8,58.3z M101.2,105.3
		c2.9,0.4,5.7,0.8,8.5,1.2c-0.4-2.9-0.8-5.6-1.3-8.5c-0.2,0.2-0.3,0.2-0.4,0.3c-1.1,1-1.7,1-2.7,0c-0.2-0.2-0.5-0.5-0.7-0.7
		c-1.9-2-3.9-3.9-5.7-5.7c-1.3,1.3-2.6,2.6-3.9,3.9c0,0,0.1,0.2,0.3,0.3c2.1,2.1,4.2,4.2,6.3,6.3c0.9,0.9,0.9,1.6,0.1,2.5
		C101.5,104.9,101.4,105,101.2,105.3z M36.9,75c2.4,1.7,4.6,3.4,6.9,5.1c0-0.2,0.1-0.3,0.1-0.3c0.1-1.7,0.5-2,2.2-2
		c2.8,0,5.5,0,8.3,0c0.3,0,0.6,0,0.8,0c0-1.9,0-3.7,0-5.5c-3,0-6,0-9,0c-1.8,0-2.2-0.3-2.3-2.2c0,0-0.1-0.1-0.1-0.1
		c-0.1,0.1-0.3,0.1-0.4,0.2C41.2,71.8,39.1,73.4,36.9,75z M71,76.1c-0.5,2,0.1,3.9,1.6,4.9c1.5,1,3.7,0.9,5.1-0.2
		c1.3-1.1,1.8-3,1.2-4.6C76.3,77.3,73.7,77.3,71,76.1z"/>
	
		<linearGradient id="SVGID_00000056407125183438392670000003542453412867290785_" gradientUnits="userSpaceOnUse" x1="59.8291" y1="86.9163" x2="90.1649" y2="86.9163">
		<stop  offset="0" style="stop-color:#FF6600"/>
		<stop  offset="0" style="stop-color:#FF5204"/>
		<stop  offset="1" style="stop-color:#FF270D"/>
	</linearGradient>
	<path style="fill:url(#SVGID_00000056407125183438392670000003542453412867290785_);" d="M68.8,79.5c1.1,2.9,3.1,4.4,6.1,4.5
		c2.3,0.1,5-1.1,6.2-4.4c0.2,0,0.4,0,0.7,0.1c1.9,0.4,3.8,0.8,5.6,1.2c1.6,0.3,2.6,1.4,2.7,3.1c0.1,2.9,0,5.9,0,8.8
		c0,1-0.6,1.5-1.5,1.6c-0.2,0-0.5,0-0.7,0c-8.6,0-17.2,0-25.8,0c-0.2,0-0.4,0-0.6,0c-1.1-0.1-1.7-0.7-1.7-1.7c0-2.9,0-5.7,0-8.6
		c0-1.8,1-2.9,2.8-3.3c1.8-0.4,3.7-0.8,5.5-1.2C68.4,79.5,68.6,79.5,68.8,79.5z"/>
	
		<linearGradient id="SVGID_00000083088779730473595830000008810715697020912015_" gradientUnits="userSpaceOnUse" x1="66.8603" y1="65.2737" x2="83.0966" y2="65.2737">
		<stop  offset="0" style="stop-color:#FF6600"/>
		<stop  offset="0" style="stop-color:#FF5204"/>
		<stop  offset="1" style="stop-color:#FF270D"/>
	</linearGradient>
	<path style="fill:url(#SVGID_00000083088779730473595830000008810715697020912015_);" d="M66.9,64.9c0.2-1.5,0.3-3,0.6-4.5
		c0.5-2.6,2.1-4.3,4.8-4.5c1.8-0.2,3.7-0.1,5.5,0.1c2.2,0.3,3.9,1.7,4.5,3.8c0.9,3.2,1.3,6.5-0.1,9.6c-1,2.3-2.6,4.1-5.1,5
		c-3,1-6.3-0.3-8.4-3.3C67.4,69.2,66.8,67.2,66.9,64.9z"/>
	
		<linearGradient id="SVGID_00000173840484626864184390000000673452697158451852_" gradientUnits="userSpaceOnUse" x1="40.3172" y1="50.869" x2="55.064" y2="50.869">
		<stop  offset="0" style="stop-color:#FF6600"/>
		<stop  offset="0" style="stop-color:#FF5204"/>
		<stop  offset="1" style="stop-color:#FF270D"/>
	</linearGradient>
	<path style="fill:url(#SVGID_00000173840484626864184390000000673452697158451852_);" d="M41.6,51.9c-0.4-2.8-0.8-5.6-1.3-8.5
		c2.9,0.4,5.6,0.8,8.4,1.2c-1.3,2-1.3,2,0.5,3.8c1.8,1.8,3.6,3.6,5.4,5.4c0.2,0.2,0.4,0.4,0.5,0.5c-1.3,1.3-2.5,2.6-3.9,3.9
		c-0.7-0.7-1.4-1.4-2.1-2.2c-1.4-1.4-2.8-2.8-4.2-4.2c-1.1-1.1-1.7-1.1-2.9-0.1C41.8,51.8,41.7,51.8,41.6,51.9z"/>
	
		<linearGradient id="SVGID_00000129182258748791433370000008893365825688134030_" gradientUnits="userSpaceOnUse" x1="40.3191" y1="99.1246" x2="55.1125" y2="99.1246">
		<stop  offset="0" style="stop-color:#FF6600"/>
		<stop  offset="0" style="stop-color:#FF5204"/>
		<stop  offset="1" style="stop-color:#FF270D"/>
	</linearGradient>
	<path style="fill:url(#SVGID_00000129182258748791433370000008893365825688134030_);" d="M55.1,95.6c-2.1,2.1-4.3,4.3-6.4,6.4
		c-1.2,1.2-1.2,1.7-0.1,3c0,0.1,0.1,0.1,0.2,0.3c-2.8,0.4-5.6,0.8-8.5,1.2c0.4-2.9,0.8-5.6,1.2-8.4c2,1.3,2,1.3,3.7-0.4
		c2-2,4-4,5.9-5.9C52.5,93,53.8,94.3,55.1,95.6z"/>
	
		<linearGradient id="SVGID_00000039100150432649963760000001975988830611175297_" gradientUnits="userSpaceOnUse" x1="94.9007" y1="75.0008" x2="113.1329" y2="75.0008">
		<stop  offset="0" style="stop-color:#FF6600"/>
		<stop  offset="0" style="stop-color:#FF5204"/>
		<stop  offset="1" style="stop-color:#FF270D"/>
	</linearGradient>
	<path style="fill:url(#SVGID_00000039100150432649963760000001975988830611175297_);" d="M94.9,72.3c2.9,0,5.7,0,8.6,0
		c2.3,0,2.4-0.1,2.8-2.4c2.3,1.7,4.5,3.4,6.9,5.1c-2.3,1.7-4.6,3.4-6.9,5.1c0-0.2-0.1-0.3-0.1-0.4c-0.1-1.5-0.5-2-2-2
		c-2.8,0-5.6,0-8.3,0c-0.3,0-0.6,0-0.9,0C94.9,75.9,94.9,74.1,94.9,72.3z"/>
	
		<linearGradient id="SVGID_00000163060396331588348110000008148538112920011650_" gradientUnits="userSpaceOnUse" x1="94.7952" y1="50.8703" x2="109.6725" y2="50.8703">
		<stop  offset="0" style="stop-color:#FF6600"/>
		<stop  offset="0" style="stop-color:#FF5204"/>
		<stop  offset="1" style="stop-color:#FF270D"/>
	</linearGradient>
	<path style="fill:url(#SVGID_00000163060396331588348110000008148538112920011650_);" d="M98.8,58.3c-1.3-1.3-2.6-2.5-4-3.9
		c0.7-0.6,1.4-1.2,2.1-1.9c1.5-1.5,3-2.9,4.4-4.4c1.2-1.2,1.2-1.7,0.1-2.9c-0.1-0.1-0.1-0.2-0.2-0.3c2.8-0.4,5.6-0.8,8.5-1.2
		c-0.4,2.9-0.8,5.6-1.2,8.4c-0.1,0-0.2,0-0.2,0c-1-1.1-1.9-1.2-3.2,0.1c-1.9,2-3.8,3.9-5.8,5.8C99.1,57.9,98.9,58.1,98.8,58.3z"/>
	
		<linearGradient id="SVGID_00000006700553092932319440000016292374214361046923_" gradientUnits="userSpaceOnUse" x1="94.9598" y1="99.1427" x2="109.6773" y2="99.1427">
		<stop  offset="0" style="stop-color:#FF6600"/>
		<stop  offset="0" style="stop-color:#FF5204"/>
		<stop  offset="1" style="stop-color:#FF270D"/>
	</linearGradient>
	<path style="fill:url(#SVGID_00000006700553092932319440000016292374214361046923_);" d="M101.2,105.3c0.2-0.2,0.3-0.4,0.4-0.5
		c0.8-0.9,0.8-1.7-0.1-2.5c-2.1-2.1-4.2-4.2-6.3-6.3c-0.1-0.1-0.2-0.2-0.3-0.3c1.3-1.3,2.6-2.6,3.9-3.9c1.8,1.8,3.8,3.8,5.7,5.7
		c0.2,0.2,0.5,0.5,0.7,0.7c1,1,1.7,1,2.7,0c0.1-0.1,0.2-0.1,0.4-0.3c0.4,2.8,0.8,5.6,1.3,8.5C106.8,106.1,104.1,105.7,101.2,105.3z"
		/>
	
		<linearGradient id="SVGID_00000019675099769337200890000009896128230998383538_" gradientUnits="userSpaceOnUse" x1="36.8671" y1="75.0441" x2="55.0845" y2="75.0441">
		<stop  offset="0" style="stop-color:#FF6600"/>
		<stop  offset="0" style="stop-color:#FF5204"/>
		<stop  offset="1" style="stop-color:#FF270D"/>
	</linearGradient>
	<path style="fill:url(#SVGID_00000019675099769337200890000009896128230998383538_);" d="M36.9,75c2.2-1.6,4.3-3.2,6.4-4.8
		c0.1-0.1,0.3-0.2,0.4-0.2c0.1,0.1,0.1,0.1,0.1,0.1c0.1,1.8,0.5,2.2,2.3,2.2c3,0,5.9,0,9,0c0,1.8,0,3.6,0,5.5c-0.3,0-0.5,0-0.8,0
		c-2.8,0-5.5,0-8.3,0c-1.7,0-2.1,0.4-2.2,2c0,0.1,0,0.1-0.1,0.3C41.5,78.4,39.2,76.8,36.9,75z"/>
	
		<linearGradient id="SVGID_00000183238888717087702450000012696640526581740475_" gradientUnits="userSpaceOnUse" x1="70.8479" y1="78.8952" x2="79.1585" y2="78.8952">
		<stop  offset="0" style="stop-color:#FF6600"/>
		<stop  offset="0" style="stop-color:#FF5204"/>
		<stop  offset="1" style="stop-color:#FF270D"/>
	</linearGradient>
	<path style="fill:url(#SVGID_00000183238888717087702450000012696640526581740475_);" d="M71,76.1c2.6,1.2,5.2,1.2,7.8,0
		c0.6,1.6,0.1,3.5-1.2,4.6c-1.4,1.1-3.6,1.2-5.1,0.2C71.1,80,70.5,78.1,71,76.1z"/>
</g>
</svg>
