<?xml version="1.0" encoding="utf-8"?>
<!-- Generator: Adobe Illustrator 27.4.0, SVG Export Plug-In . SVG Version: 6.00 Build 0)  -->
<svg version="1.1" id="Layer_1" xmlns="http://www.w3.org/2000/svg" xmlns:xlink="http://www.w3.org/1999/xlink" x="0px" y="0px"
	 viewBox="0 0 150 150" style="enable-background:new 0 0 150 150;" xml:space="preserve">
<style type="text/css">
	.st0{fill:#FEE8DA;}
	.st1{fill:url(#SVGID_1_);}
	.st2{clip-path:url(#SVGID_00000060727086132356465420000012279028768263750067_);}
	.st3{fill:url(#Path_4157_00000083769651943879235280000011955174314249300101_);}
	.st4{fill:url(#Path_4158_00000162314562181129626360000017996619320744440251_);}
	.st5{fill:url(#Path_4159_00000183250320385185551870000015468642284053867688_);}
	.st6{clip-path:url(#SVGID_00000052065181850212270970000002157417865495566754_);}
	.st7{fill:url(#Path_4168_00000013885579704725198310000012016749462558495419_);}
	.st8{fill:url(#Path_4169_00000067945045442215154810000007484728785032958113_);}
	.st9{fill:url(#Path_4170_00000116232606290779396370000009225510012281595810_);}
	.st10{fill:url(#Path_4171_00000038406330026974573510000015806786306456782524_);}
	.st11{fill:url(#Path_4172_00000178202431548060006750000004835557972168961957_);}
	.st12{fill:url(#Path_4173_00000097492184668249642450000012519025753280014749_);}
	.st13{fill:url(#SVGID_00000097468075118301044760000001788794309177823927_);}
	.st14{fill:url(#SVGID_00000095298768406072358790000012737456642698062735_);}
	.st15{fill:url(#SVGID_00000016762515023080162380000005753637237372104118_);}
	.st16{fill:url(#SVGID_00000145020242589566033600000013426768780964060346_);}
	.st17{fill:url(#SVGID_00000055685534486253310190000016138569677795503002_);}
	.st18{fill:url(#SVGID_00000097458829455190218010000004127097306987159949_);}
	.st19{fill:url(#SVGID_00000047060315370653587030000010899554559845150115_);}
	.st20{fill:url(#SVGID_00000037658197426787715320000002819042733243405745_);}
	.st21{fill:url(#SVGID_00000114771544869940575540000007872194835787340730_);}
	.st22{fill:url(#SVGID_00000033361460471346373890000000805327535312963483_);}
	.st23{fill:url(#SVGID_00000157283194475322231470000016820749595656789409_);}
	.st24{fill:url(#SVGID_00000085934048683591266020000003099192014287207869_);}
	.st25{fill:url(#SVGID_00000022559762728720881510000015429635674358531497_);}
	.st26{fill:url(#SVGID_00000090985712999825040340000009296221186516263298_);}
	.st27{fill:url(#SVGID_00000150082972671358418300000012057284728789409922_);}
	.st28{fill:url(#SVGID_00000040558987007608146030000005187557502367828866_);}
	.st29{fill:url(#SVGID_00000127734381939891476850000014108624462867435408_);}
	.st30{fill:url(#SVGID_00000158724699112534015070000005981025603872868737_);}
	.st31{fill:url(#SVGID_00000044135475592729609370000004437290668940865451_);}
	.st32{fill:url(#SVGID_00000178927317264399191170000001885095504149866159_);}
	.st33{fill:url(#SVGID_00000162346126647968033810000011618935943208667574_);}
	.st34{fill:url(#SVGID_00000129176159593869001520000011944137222588539819_);}
	.st35{fill:url(#SVGID_00000132801402588299505750000017343208604567801012_);}
	.st36{fill:url(#SVGID_00000131336580423725357390000009998035350541124022_);}
	.st37{fill:url(#SVGID_00000146500356048083851870000015460986466867519675_);}
	.st38{fill:url(#SVGID_00000053502992361965634690000006118734503943663006_);}
	.st39{fill:url(#SVGID_00000139259015913813039710000017178496168310122132_);}
	.st40{fill:url(#SVGID_00000151516382512849957290000011133255575199399866_);}
	.st41{fill:url(#SVGID_00000127018331361407073950000003186470849393872775_);}
	.st42{fill:url(#SVGID_00000075155272888833392530000008259880075851722937_);}
	.st43{fill:url(#SVGID_00000034085994681084755980000009659257459013096631_);}
	.st44{fill:url(#SVGID_00000027581240775696123980000008590080932634867390_);}
	.st45{fill:url(#SVGID_00000163776555851407709780000006999412183668475543_);}
	.st46{fill:url(#SVGID_00000049924825119482517760000014645174122576936832_);}
	.st47{fill:url(#SVGID_00000148637464189023159380000010316938057084752769_);}
	.st48{fill:url(#SVGID_00000103261275125639923370000005656242317562281118_);}
	.st49{fill:url(#SVGID_00000052066535512796022600000007955597260720484519_);}
	.st50{fill:url(#SVGID_00000051353254431971945090000005740314805359173774_);}
	.st51{fill:url(#SVGID_00000116941121877442217500000006300429128131110030_);}
	.st52{fill:url(#SVGID_00000168815483297985713750000015881886862119636622_);}
	.st53{fill:url(#SVGID_00000075133220133978865660000012692782167214676378_);}
	.st54{fill:url(#SVGID_00000177448786829455951540000018312132203893790366_);}
	.st55{fill:url(#SVGID_00000039834733952988234020000017284993683286261659_);}
	.st56{fill:url(#SVGID_00000143584333660615760070000001783805117282483335_);}
	.st57{fill:url(#SVGID_00000021801071910282848850000012883368598246387126_);}
	.st58{fill:url(#SVGID_00000170986620127315368490000000444746416310037400_);}
	.st59{fill:url(#SVGID_00000050635105458062373510000010114171959867437219_);}
	.st60{fill:url(#SVGID_00000109016721851704872820000003278511018529676974_);}
	.st61{fill:url(#SVGID_00000072255280276747832250000016491229530495938191_);}
	.st62{fill:url(#SVGID_00000058579421983530606570000002783383925640481927_);}
	.st63{fill:url(#SVGID_00000097465466065311903770000005834692524685587074_);}
	.st64{fill:url(#SVGID_00000152249200253589588040000005537703600505939894_);}
	.st65{fill:url(#SVGID_00000146457799168581613650000015203292912172528796_);}
	.st66{fill:url(#SVGID_00000047021895599480042560000008285605139384402342_);}
	.st67{fill:url(#SVGID_00000137849598780943802620000000236680613772691073_);}
	.st68{fill:url(#SVGID_00000034811590748191462110000007734685131258599089_);}
	.st69{fill:url(#SVGID_00000021083860739180261830000011125090644080494725_);}
	.st70{fill:url(#SVGID_00000008126432780721482960000017418986258485354416_);}
	.st71{fill:url(#SVGID_00000002376213978257772560000006508761035405372325_);}
	.st72{fill:url(#SVGID_00000003073440805287694490000000612651907535383206_);}
	.st73{fill:url(#SVGID_00000111161589227531132670000014171240257029270707_);}
	.st74{fill:url(#SVGID_00000009591640925824449010000001413519302766695838_);}
	.st75{fill:url(#SVGID_00000060007904453948417250000000909880516923114116_);}
	.st76{fill:url(#SVGID_00000101803878113912573750000001226613100128213901_);}
	.st77{fill:url(#SVGID_00000126314810815131382210000001987068685619998641_);}
	.st78{fill:url(#SVGID_00000015354532825195239830000017775386090239786139_);}
	.st79{fill:url(#SVGID_00000093858694613540486750000003501789944171154308_);}
	.st80{fill:url(#SVGID_00000047041903669018921040000002833731167773188792_);}
	.st81{fill:url(#SVGID_00000125566601649314453000000007230165017974511268_);}
	.st82{fill:url(#SVGID_00000153683427636110466640000008413286798338927523_);}
	.st83{fill:url(#SVGID_00000085211932920744240890000003457819702374597563_);}
	.st84{fill:url(#SVGID_00000065047506354437549670000009633035039254057366_);}
	.st85{fill:url(#SVGID_00000158026281662557292420000006824463166815305393_);}
	.st86{fill:url(#SVGID_00000174568075850987855020000003446440867757410463_);}
	.st87{fill:url(#SVGID_00000181063205164127930220000005875514555279008913_);}
	.st88{fill:url(#SVGID_00000049901336983551316380000005146343738821725853_);}
	.st89{fill:url(#SVGID_00000028305026502075845930000009986962685723537541_);}
	.st90{fill:url(#SVGID_00000111158572097000121340000005951726511541713305_);}
	.st91{fill:url(#SVGID_00000156555434305598888890000001906614109637121435_);}
	.st92{fill:url(#SVGID_00000093177694505696515580000003386417851133183423_);}
	.st93{fill:url(#SVGID_00000117652024196962214090000002733155954683018664_);}
	.st94{fill:url(#SVGID_00000089570035012154304080000002622799602351515520_);}
	.st95{fill:url(#SVGID_00000089558719861016266170000013381609751973820306_);}
	.st96{fill:url(#SVGID_00000065060714569688000220000000044350846428924289_);}
	.st97{fill:url(#SVGID_00000106123260183550126810000009550394938301104568_);}
	.st98{fill:url(#SVGID_00000046321509327703051500000001204497049061623457_);}
	.st99{fill:url(#SVGID_00000039841927070861391130000007059846520045079957_);}
	.st100{fill:url(#SVGID_00000071547412849078409140000014542865514791865498_);}
	.st101{fill:url(#SVGID_00000067924128089475203520000004495246700710188942_);}
	.st102{fill:url(#SVGID_00000054261036582760237920000002047180953882406036_);}
	.st103{fill:url(#SVGID_00000160180555968478697960000010017450010515918223_);}
	.st104{fill:url(#SVGID_00000130607171573763088010000014678097576873025689_);}
	.st105{fill:url(#SVGID_00000062179860903189869800000004623697909100544432_);}
	.st106{fill:url(#SVGID_00000052081152721440355760000015590124689165092285_);}
	.st107{fill:url(#SVGID_00000158721430323047926510000017957505860444049834_);}
	.st108{fill:url(#SVGID_00000016040514227263540800000007825204991694011828_);}
	.st109{fill:url(#SVGID_00000119100248979706051840000018252521130355319440_);}
	.st110{fill:url(#SVGID_00000046320197808367868820000001950697898319384723_);}
	.st111{fill:url(#SVGID_00000034779967023855469710000016095727229987150220_);}
	.st112{fill:url(#SVGID_00000065780757674027019560000004146678314933847687_);}
	.st113{fill:url(#SVGID_00000029019073622556625710000001900845425941925294_);}
	.st114{fill:url(#SVGID_00000129185823086207371930000002856001364938558087_);}
	.st115{fill:url(#SVGID_00000008840733232783703370000001156306132403717284_);}
	.st116{fill:url(#SVGID_00000035508000105810916720000001880135358452293512_);}
	.st117{fill:url(#SVGID_00000104692299130001953770000004074873506567977895_);}
	.st118{fill:url(#SVGID_00000098930130436751573690000002515778342945828749_);}
	.st119{fill:url(#SVGID_00000115510712310171043850000009539528042619624863_);}
	.st120{fill:#EDEDED;}
	.st121{fill:url(#SVGID_00000118378125621450976020000005503387887513350318_);}
	.st122{fill:url(#SVGID_00000176729478245763100030000002454875482997278359_);}
	.st123{fill:url(#SVGID_00000171685899016966602000000006221372150991877288_);}
	.st124{fill:url(#SVGID_00000073705694610104953000000001767889639752845234_);}
	.st125{fill:url(#SVGID_00000163044223432666019170000014173615597961827485_);}
	.st126{fill:url(#SVGID_00000085931408152510124980000013339124231426771370_);}
	.st127{fill:url(#SVGID_00000183228187467135710260000010064544128665118131_);}
	.st128{fill:url(#SVGID_00000101818177512334975190000013573477750192159364_);}
	.st129{fill:url(#SVGID_00000024698323327726376010000006084777986570811029_);}
	.st130{fill:url(#SVGID_00000118385225535080359940000010073861458236744618_);}
	.st131{fill:url(#SVGID_00000070078615785529936730000002571542402986270614_);}
	.st132{fill:url(#SVGID_00000166676492819075543210000006544901751694112141_);}
	.st133{fill:url(#SVGID_00000005975239609394938320000013834001693297678270_);}
	.st134{fill:url(#SVGID_00000002381162856072043750000008908374136398194104_);}
	.st135{fill:url(#SVGID_00000166664520109448173240000017953727466973794194_);}
	.st136{fill:url(#SVGID_00000020394161712657541220000011843926878372118180_);}
	.st137{fill:url(#SVGID_00000019643718363097039770000008747399754249031561_);}
	.st138{fill:url(#SVGID_00000132785337235947431330000012772793040744808849_);}
	.st139{fill:url(#SVGID_00000137102302440225567390000007439003128427352494_);}
	.st140{fill:url(#SVGID_00000117638992357748983370000013592710367369286079_);}
	.st141{fill:url(#SVGID_00000143601532817072115590000016724972862672772750_);}
	.st142{fill:url(#SVGID_00000070817763022957585850000005859060965864567181_);}
	.st143{fill:url(#SVGID_00000127746106192850865120000001625841171475860913_);}
	.st144{fill:url(#SVGID_00000031891425135564674290000016068350501000971650_);}
	.st145{fill:url(#SVGID_00000036234223342310239560000002827840495302449306_);}
	.st146{fill:url(#SVGID_00000077307304119678029470000015543305927726183824_);}
	.st147{fill:url(#SVGID_00000047753362861151629660000003171646382213094788_);}
	.st148{fill:url(#SVGID_00000140015881404870742450000001964304887279162266_);}
	.st149{fill:url(#SVGID_00000008124911294236924280000001107313600517324717_);}
	.st150{fill:url(#SVGID_00000116914566131557722830000017903774941980876695_);}
	.st151{fill:url(#SVGID_00000132804013378188688900000014162378268304396465_);}
	.st152{fill:url(#SVGID_00000170957703909635081490000002173462403184752810_);}
	.st153{fill:url(#SVGID_00000064324764431659815230000017457936781683431069_);}
	.st154{fill:url(#SVGID_00000141429632976735162970000003147050647844208266_);}
	.st155{fill:url(#SVGID_00000136379123300441486510000004678108543006518675_);}
	.st156{fill:url(#SVGID_00000073721103336220317610000004194281271916801668_);}
	.st157{clip-path:url(#SVGID_00000035510395496337132210000014769647638483353270_);}
	.st158{fill:url(#Path_4160_00000047038378951058927860000017667338485746881710_);}
	.st159{fill:url(#Path_4161_00000025419259507863032260000011598659911500859026_);}
	.st160{fill:url(#Path_4162_00000065783878119270522960000000152579399233908923_);}
	.st161{fill:url(#Path_4163_00000167395163286712466750000018152232473616294022_);}
	.st162{fill:url(#Path_4164_00000129197222602855166920000014407265642164766899_);}
	.st163{fill:url(#Path_4165_00000028319135045061413230000003232516478764894593_);}
	.st164{fill:url(#Path_4166_00000159437927003050941220000017851904296619739016_);}
	.st165{fill:url(#Path_4167_00000011031320684293251460000014260960580750432701_);}
	.st166{fill:url(#SVGID_00000115478194323664524090000016163030493875910068_);}
	.st167{fill:url(#SVGID_00000031207994090063972990000012372799118780348584_);}
	.st168{fill:url(#SVGID_00000025430340418224003930000010963156623064980669_);}
	.st169{fill:url(#SVGID_00000094609310192161294310000000212699318577671857_);}
	.st170{fill:url(#SVGID_00000097495602374978639280000005742672442765171337_);}
	.st171{fill:url(#SVGID_00000080907379761788930420000005331275346323102123_);}
	.st172{fill:url(#SVGID_00000152976763866188213350000018365054270026802619_);}
	.st173{fill:url(#SVGID_00000130626719492760560760000010083442118751185286_);}
	.st174{fill:url(#SVGID_00000155137882319523855100000000407082159547360184_);}
	.st175{fill:url(#SVGID_00000101071706604770809000000008155750937321868427_);}
	.st176{fill:url(#SVGID_00000079463117778348721870000009283697443565085312_);}
	.st177{fill:url(#SVGID_00000065752660784448082460000014769956016223515526_);}
	.st178{fill:url(#SVGID_00000126310002538423388750000001730868938258388371_);}
	.st179{fill:url(#SVGID_00000160898289429005451220000010956289416376877739_);}
	.st180{fill:url(#SVGID_00000076576775297849757020000007256342615484916104_);}
	.st181{fill:url(#SVGID_00000088839298982624280480000016639021939594861487_);}
	.st182{fill:url(#SVGID_00000008847163729628565170000018104293646428322232_);}
	.st183{fill:url(#SVGID_00000146459797179479250090000011508676082991766691_);}
	.st184{fill:url(#SVGID_00000002370061357809346400000006486896551211138969_);}
	.st185{fill:url(#SVGID_00000024694098472737942110000005251400094564709040_);}
	.st186{fill:url(#SVGID_00000012467116626912027130000007413055750023713957_);}
	.st187{fill:url(#SVGID_00000134222384529237775520000001817205830390111661_);}
	.st188{fill:url(#SVGID_00000083051469655948109810000017231788964135870125_);}
	.st189{fill:url(#SVGID_00000152236936055897013590000004217649892870236842_);}
	.st190{fill:url(#SVGID_00000032644161425839486080000012534139451519932322_);}
	.st191{fill:url(#SVGID_00000088107776501656336210000010744805542963071666_);}
	.st192{fill:url(#SVGID_00000110458189304201192110000005035267337419505052_);}
	.st193{fill:url(#SVGID_00000125575882420096262300000016174944692718997678_);}
	.st194{fill:url(#SVGID_00000101785219147858933600000014131593664695819909_);}
	.st195{fill:url(#SVGID_00000166659780965646730950000008361689015925276302_);}
	.st196{fill:url(#SVGID_00000012465643804269959060000011646343583756619648_);}
	.st197{fill:url(#SVGID_00000010288929696651336980000018426982425440068777_);}
	.st198{fill:url(#SVGID_00000116235294499391705540000014443064317329516706_);}
	.st199{fill:url(#SVGID_00000011746547037591809740000017617076877845428877_);}
	.st200{fill:url(#SVGID_00000026850905580107311920000012640645460187335347_);}
	.st201{fill:url(#SVGID_00000051382047222049338230000010113257802164593583_);}
	.st202{fill:url(#SVGID_00000145049223126647640760000003612057017811072687_);}
	.st203{fill:url(#SVGID_00000133493556466981721560000011496070793538817179_);}
	.st204{fill:url(#SVGID_00000098909987276925547580000001986449353324947380_);}
	.st205{fill:url(#SVGID_00000134211029479567021550000004018420283949107124_);}
	.st206{fill:url(#SVGID_00000087375830885343479070000009614822987683685778_);}
	.st207{fill:url(#SVGID_00000000938975774688957770000007935437988352523428_);}
	.st208{fill:url(#SVGID_00000175287790334307896570000017181082991792819079_);}
	.st209{fill:url(#SVGID_00000183961646258686644610000010537059017746446723_);}
	.st210{fill:url(#SVGID_00000108996343057735777850000013592955336342529434_);}
	.st211{fill:url(#SVGID_00000021110132456960587570000006360495129299716274_);}
	.st212{fill:url(#SVGID_00000072273596994979106830000004521229377435912078_);}
	.st213{fill:url(#SVGID_00000046325218407113106130000001868807167299875208_);}
	.st214{fill:url(#SVGID_00000134932151445157826750000012008687934556165291_);}
	.st215{fill:url(#SVGID_00000166653748815902545430000008669876152823796157_);}
	.st216{fill:url(#SVGID_00000047758521541114197740000017480193520255203518_);}
	.st217{fill:url(#SVGID_00000097492548386792163830000012213144784329025674_);}
	.st218{fill:url(#SVGID_00000176722593697754775110000009391989322207478673_);}
	.st219{fill:url(#SVGID_00000145739939251402072400000007065562914592453544_);}
	.st220{fill:url(#SVGID_00000019654589471510344300000005329722429510713259_);}
	.st221{fill:url(#SVGID_00000002352715481406681590000000536909038829957787_);}
	.st222{fill:url(#SVGID_00000125588252848571118280000017716937808038221989_);}
	.st223{fill:url(#SVGID_00000016773746140464491050000011716177113978462862_);}
	.st224{fill:url(#SVGID_00000140011347018347131110000007596947824570956160_);}
	.st225{fill:url(#SVGID_00000111900245334645564370000007357643821629350033_);}
	.st226{fill:url(#SVGID_00000090253388785597616890000012350047262770120331_);}
	.st227{fill:url(#SVGID_00000111875635399447039390000010912853597387706515_);}
	.st228{fill:url(#SVGID_00000021101942056719287810000010030796665500130707_);}
	.st229{fill:url(#SVGID_00000010268701857665361170000007774304565731234979_);}
	.st230{fill:url(#SVGID_00000168801472641080337190000011046721133027752844_);}
	.st231{fill:url(#SVGID_00000098203994329588293360000010952402136537442210_);}
	.st232{fill:url(#SVGID_00000077320101624699754990000011844999595854597761_);}
	.st233{fill:url(#SVGID_00000121990411004198268190000017242229033970077580_);}
	.st234{fill:url(#SVGID_00000043448990538757810690000016549142812423281819_);}
	.st235{fill:url(#SVGID_00000018222070579643391790000014524264372152922291_);}
	.st236{fill:url(#SVGID_00000093164397263147879070000015806378470974805136_);}
	.st237{fill:url(#SVGID_00000103226001643309432190000005710047250530748315_);}
	.st238{fill:url(#SVGID_00000092452216367534415900000010357419284287510458_);}
	.st239{fill:url(#SVGID_00000183936797408411492130000014895053714313532081_);}
	.st240{fill:url(#SVGID_00000005985647245403651330000012223130221273915561_);}
	.st241{fill:url(#SVGID_00000128455719151512879020000017295250746538297004_);}
	.st242{fill:url(#SVGID_00000101826190178973680790000002730460612012931982_);}
	.st243{fill:url(#SVGID_00000147941258165267403980000013211634881026777222_);}
	.st244{fill:url(#SVGID_00000054948507795182707230000002427800201322688128_);}
	.st245{fill:url(#SVGID_00000128443046610026333270000003733956389038918826_);}
	.st246{fill:url(#SVGID_00000165232767499318142630000005468262306542652294_);}
	.st247{fill:url(#SVGID_00000095340386915473190840000006804940726985371537_);}
	.st248{fill:url(#SVGID_00000171719375508080216030000013275515023474696596_);}
	.st249{fill:url(#SVGID_00000044150557016738329120000018408819082427330215_);}
	.st250{fill:url(#SVGID_00000075861056767742218770000008376770905454699930_);}
	.st251{fill:url(#SVGID_00000169524804999431579710000002030837881371974846_);}
	.st252{fill:url(#SVGID_00000110469202335537792360000003615166677324083592_);}
	.st253{fill:url(#SVGID_00000167396804453379976450000015957044882225438118_);}
	.st254{fill:url(#SVGID_00000072268882190155316900000009230266026890524547_);}
	.st255{fill:url(#SVGID_00000029032057235064794010000015303626021759901594_);}
	.st256{fill:url(#SVGID_00000066511578408995572760000005405464514270249651_);}
	.st257{fill:url(#SVGID_00000166638087739589168320000014902572545314234256_);}
	.st258{fill:url(#SVGID_00000030472554514589847160000007823334887747834015_);}
	.st259{fill:url(#SVGID_00000056389075849496154630000000232340150146960062_);}
	.st260{fill:url(#SVGID_00000071544454448023646160000011555396486063550907_);}
	.st261{fill:url(#SVGID_00000057855728868672309750000013542305653546524552_);}
	.st262{fill:url(#SVGID_00000022520397241546386290000017268246867953940867_);}
	.st263{fill:url(#SVGID_00000078762145410110093780000012200859962678241429_);}
	.st264{fill:url(#SVGID_00000139291404419718144980000004219932813691972506_);}
	.st265{fill:url(#SVGID_00000155863116525086139360000016659394925208240814_);}
	.st266{fill:url(#SVGID_00000090973958367217389080000010288221121718807681_);}
	.st267{fill:url(#SVGID_00000178905812234018497610000004055476834512492962_);}
	.st268{fill:url(#SVGID_00000168101043706472911020000015914809824041542078_);}
	.st269{fill:url(#SVGID_00000157999846237254514180000006111328093358342279_);}
	.st270{fill:url(#SVGID_00000054231759679270265930000006742723234098358176_);}
	.st271{fill:url(#SVGID_00000114061650719845503130000004350911839794093446_);}
	.st272{fill:url(#SVGID_00000135670035945297721050000009862134237133675907_);}
	.st273{fill:url(#SVGID_00000145770270549249236630000003022539549206874014_);}
	.st274{fill:url(#SVGID_00000068647869944636673300000005709138125094251414_);}
	.st275{fill:url(#SVGID_00000013178264753849571550000014965889252996127408_);}
	.st276{fill:url(#SVGID_00000003077203132920429690000015248628375942231690_);}
	.st277{fill:url(#SVGID_00000023982061207932655870000009726671665546520207_);}
	.st278{fill:url(#SVGID_00000113320931412626354460000009027461271313928876_);}
	.st279{fill:url(#SVGID_00000036238028682518551750000005743287349161159352_);}
	.st280{fill:url(#SVGID_00000089535019197987982100000006066168116788616074_);}
	.st281{fill:url(#SVGID_00000067946660653223634330000007141448364099752374_);}
	.st282{fill:url(#SVGID_00000069394134223806817280000000211625085254356390_);}
	.st283{fill:url(#SVGID_00000017505091989743738640000016060920015372723876_);}
	.st284{fill:url(#SVGID_00000033369251317317807950000018243327402002450059_);}
	.st285{fill:url(#SVGID_00000047048098818679535220000009814364432342194869_);}
	.st286{fill:url(#SVGID_00000113317909017749978120000014450433976167093130_);}
	.st287{fill:url(#SVGID_00000160891916752118951940000013456343151429110169_);}
	.st288{fill:url(#SVGID_00000055681141462814098090000014303942492860182713_);}
	.st289{fill:url(#SVGID_00000134226443826502029120000001203981069230801313_);}
	.st290{fill:url(#SVGID_00000066505751068106323260000009500782554269000079_);}
	.st291{fill:url(#SVGID_00000065775800181537331660000005683776279354315433_);}
	.st292{fill:url(#SVGID_00000006702392828427446870000005642275812051693235_);}
	.st293{fill:url(#SVGID_00000023999102223777220100000018253246298952456353_);}
	.st294{fill:url(#SVGID_00000054257374866429037620000008832352140457470853_);}
	.st295{fill:url(#SVGID_00000165200215165250205540000010969929858167924627_);}
	.st296{fill:url(#SVGID_00000091732341740316358380000014588199249493925542_);}
	.st297{fill:url(#SVGID_00000065767043285493433940000012706205439920239780_);}
	.st298{fill:url(#SVGID_00000125582888224668239110000006431374376399416984_);}
	.st299{fill:url(#SVGID_00000125583849296541414540000002099698434411680171_);}
	.st300{fill:url(#SVGID_00000093858651165045677720000012907629510912424836_);}
	.st301{fill:url(#SVGID_00000009581606945671340120000014958009530537733776_);}
	.st302{fill:url(#SVGID_00000164500203951446430110000011788128200536316058_);}
	.st303{fill:url(#SVGID_00000111167070535381763200000008795768361159404202_);}
	.st304{fill:url(#SVGID_00000164485296707907206190000012963577006411400622_);}
	.st305{fill:url(#SVGID_00000145745518348510331450000003317080099919308688_);}
	.st306{fill:url(#SVGID_00000040567613020023155130000007506871766819977651_);}
	.st307{fill:url(#SVGID_00000114757896547013209050000002039452843844295596_);}
	.st308{fill:url(#SVGID_00000106129945667929628370000015577194696818079912_);}
	.st309{fill:url(#SVGID_00000058566720193237149780000003592194842635448744_);}
	.st310{fill:url(#SVGID_00000141451739741639472940000003418707704947739039_);}
	.st311{fill:url(#SVGID_00000119111143543449096830000000174488180217557648_);}
	.st312{fill:url(#SVGID_00000028324368124961018410000013396223289048489891_);}
	.st313{fill:url(#SVGID_00000085952209286666890300000006497854505616745655_);}
	.st314{fill:url(#SVGID_00000110434050685311014860000008655472104922811559_);}
	.st315{fill:url(#SVGID_00000178189060305609806080000003818023924527869335_);}
	.st316{fill:url(#SVGID_00000133492150882893750120000013079962421625289614_);}
	.st317{fill:url(#SVGID_00000166643309211143301910000007676085010303652011_);}
	.st318{fill:url(#SVGID_00000113353664578143000870000008246510144791324845_);}
	.st319{fill:url(#SVGID_00000096750901036827912590000012316744032395975098_);}
	.st320{fill:url(#SVGID_00000112617536737342991650000000009490902207329190_);}
	.st321{fill:url(#SVGID_00000132046783793346874340000001609855647062961287_);}
	.st322{fill:url(#SVGID_00000178910147917901956850000013101998007121624194_);}
	.st323{fill:url(#SVGID_00000182524461848231188640000015168345354331988128_);}
	.st324{fill:url(#SVGID_00000151516527947525235510000014153798676996910249_);}
	.st325{fill:url(#SVGID_00000098942534329889410050000004566273361881490560_);}
	.st326{fill:url(#SVGID_00000149374241351472850860000006493316007308621196_);}
	.st327{fill:url(#SVGID_00000071546152346386577320000018039660310502113727_);}
	.st328{fill:url(#SVGID_00000018931391090670824390000011182864849461964949_);}
	.st329{fill:url(#SVGID_00000093155965594743652740000006744277524137607046_);}
	.st330{fill:url(#SVGID_00000140707877915412851310000014069776918959343794_);}
	.st331{fill:url(#SVGID_00000112594762998205628320000002753706940905355199_);}
	.st332{fill:url(#SVGID_00000057826297064989660780000009416075658952569014_);}
	.st333{fill:url(#SVGID_00000123420401719874104100000010211646416314245252_);}
	.st334{fill:url(#SVGID_00000111170821343144552550000006442972385963635369_);}
	.st335{fill:url(#SVGID_00000180367137596863386340000017765886210776925096_);}
	.st336{fill:url(#SVGID_00000052792046755006726010000003920379243182815391_);}
	.st337{fill:url(#SVGID_00000154411325060934886130000011769002210502114700_);}
	.st338{fill:url(#SVGID_00000135649291124770790020000004683274776373638546_);}
	.st339{fill:url(#SVGID_00000060005349563357114470000005002545842650539707_);}
	.st340{fill:url(#SVGID_00000020358622580645633550000003649434191132116886_);}
	.st341{fill:url(#SVGID_00000127735683988382493970000003559227912521125017_);}
	.st342{fill:url(#SVGID_00000147909812509898465650000004883603898863504058_);}
	.st343{fill:url(#SVGID_00000096042561717904934020000007017687514140712090_);}
	.st344{fill:url(#SVGID_00000020399134040348578070000014656984010966609588_);}
	.st345{fill:url(#SVGID_00000031889053600448489410000001515906935973760414_);}
	.st346{fill:url(#SVGID_00000127018293935612816350000017375720586604563343_);}
	.st347{fill:url(#SVGID_00000023981176224348551690000008858561167191109784_);}
	.st348{fill:url(#SVGID_00000121977874456939709500000009462925677360798610_);}
	.st349{fill:url(#SVGID_00000140701474810077749490000010551643902750268351_);}
	.st350{fill:url(#SVGID_00000117676306872339026570000008858969043565849221_);}
	.st351{fill:url(#SVGID_00000116915502962584843830000016362377541139977135_);}
	.st352{fill:url(#SVGID_00000109711241818904973370000017185024258422268324_);}
	.st353{fill:url(#SVGID_00000126297838867010690150000001179638166705486983_);}
	.st354{fill:url(#SVGID_00000046319860814827678010000012366138119171504556_);}
	.st355{fill:url(#SVGID_00000047060385862013566600000010779011003767726220_);}
	.st356{fill:url(#SVGID_00000089536226995086512260000000690989900698911156_);}
	.st357{fill:url(#SVGID_00000036939367573293271550000006224367323231656321_);}
	.st358{fill:url(#SVGID_00000166673340299790060160000018062378496188129460_);}
	.st359{fill:url(#SVGID_00000135649522800812909500000015685810318866195863_);}
	.st360{fill:url(#SVGID_00000175286353334023212840000018398225633950672775_);}
	.st361{fill:url(#SVGID_00000142860896018181436860000014699736580861262486_);}
	.st362{fill:url(#SVGID_00000017487063735678533300000001125498028371872170_);}
	.st363{fill:url(#SVGID_00000137817139127699842750000005931530804985295016_);}
	.st364{fill:url(#SVGID_00000091729088845157537450000013420042275275551633_);}
	.st365{fill:url(#SVGID_00000079464469095661103100000007325561458505421952_);}
	.st366{fill:url(#SVGID_00000083068279872160850310000016187376285470383781_);}
	.st367{fill:url(#SVGID_00000154406784506293576500000002415976002698938023_);}
	.st368{fill:url(#SVGID_00000117646035947005214390000008229665080844326573_);}
	.st369{fill:url(#SVGID_00000052816890455956062190000006016286835541351328_);}
	.st370{fill:url(#SVGID_00000056397906961186826270000008077583670084675763_);}
	.st371{fill:url(#SVGID_00000091718404885020867680000014034482154663893134_);}
	.st372{fill:url(#SVGID_00000121997125213747670950000004570145723645582782_);}
	.st373{fill:url(#SVGID_00000167373693288103722030000017468073873647184263_);}
	.st374{fill:url(#SVGID_00000054263882219349816660000008931968913841323934_);}
	.st375{fill:url(#SVGID_00000048487771332092880390000005985820874047183276_);}
	.st376{fill:url(#SVGID_00000019669763258816073850000010947680043441010846_);}
	.st377{fill:url(#SVGID_00000077292003220080979940000014316821563965928871_);}
	.st378{fill:url(#SVGID_00000117641357500506062040000013830356381482769574_);}
	.st379{fill:url(#SVGID_00000129898787536107036670000001720334627290183342_);}
	.st380{fill:url(#SVGID_00000111907376484440748750000008512037201956100511_);}
	.st381{fill:url(#SVGID_00000180348499579726171660000006728935485669003940_);}
	.st382{fill:url(#SVGID_00000151544974754183048530000001213785967149750705_);}
	.st383{fill:url(#SVGID_00000007405831415410447230000004011758025901887666_);}
	.st384{fill:url(#SVGID_00000166644691361762458820000002057593830468551570_);}
	.st385{fill:url(#SVGID_00000124849365584468685750000005895986515729892255_);}
	.st386{fill:url(#SVGID_00000027595328935734303480000014376717490754457772_);}
	.st387{fill:url(#SVGID_00000073714621543368246190000002940455565525930888_);}
	.st388{fill:url(#SVGID_00000177476243133900174800000015266992167093479079_);}
	.st389{fill:url(#SVGID_00000019662309247400311900000000540202200002223495_);}
	.st390{fill:url(#SVGID_00000034770576283819287250000003635436815184567435_);}
	.st391{fill:url(#SVGID_00000003815311497968314040000009748890864257239450_);}
	.st392{fill:url(#SVGID_00000153684559604848813350000000531478529583251328_);}
	.st393{fill:url(#SVGID_00000034052546943539469910000007172095240101608577_);}
	.st394{fill:url(#SVGID_00000055688498433900174370000003378481337515553975_);}
	.st395{fill:url(#SVGID_00000015312813266989844670000005496245356292397744_);}
	.st396{fill:url(#SVGID_00000085252384106142523700000000847169492042280354_);}
	.st397{fill:url(#SVGID_00000080181527858012048410000012783842300697315996_);}
	.st398{fill:url(#SVGID_00000044140981806017220350000004012780388210035377_);}
	.st399{fill:url(#SVGID_00000040569516517162057500000018373705329870403717_);}
	.st400{fill:url(#SVGID_00000182517935829305436460000015381210302650301886_);}
	.st401{fill:url(#SVGID_00000131327756471026732260000003871086954597878433_);}
	.st402{fill:url(#SVGID_00000106130201945342331550000009603683680445281467_);}
	.st403{fill:url(#SVGID_00000080896334799311972250000011123510858078837888_);}
	.st404{fill:url(#SVGID_00000086687726063503221930000015831487795371287978_);}
	.st405{fill:url(#SVGID_00000155850004119114017860000002493045672308129713_);}
	.st406{fill:url(#SVGID_00000132776183360752429400000005080254099190740608_);}
	.st407{fill:url(#SVGID_00000132795928940871327190000010955713679633572775_);}
	.st408{fill:url(#SVGID_00000018195736285819722700000002721797609199743923_);}
	.st409{fill:url(#SVGID_00000067196437271882473270000005875303503884113797_);}
	.st410{fill:url(#SVGID_00000173880183794581210440000009239899091144779937_);}
	.st411{fill:url(#SVGID_00000052801484391645227780000007681610084946098834_);}
	.st412{fill:url(#SVGID_00000110459635694504915820000013060205150099146646_);}
	.st413{fill:url(#SVGID_00000013174219239055754490000009612799511809803417_);}
	.st414{fill:url(#SVGID_00000005962320979565072280000011297363014906672314_);}
	.st415{fill:url(#SVGID_00000145056094872445149370000014258736494166538368_);}
	.st416{fill:url(#SVGID_00000009547955812513590930000009953307698201060776_);}
	.st417{fill:url(#SVGID_00000162352757334000543980000016757298782435252409_);}
	.st418{fill:url(#SVGID_00000154403679150416185610000010335756129962579609_);}
</style>
<ellipse id="Ellipse_113_00000093890595223330999540000010655512207181953441_" class="st0" cx="75" cy="75" rx="70" ry="70"/>
<g>
	<g>
		<linearGradient id="SVGID_1_" gradientUnits="userSpaceOnUse" x1="43.8877" y1="87.51" x2="93.624" y2="87.51">
			<stop  offset="0" style="stop-color:#FF6600"/>
			<stop  offset="0" style="stop-color:#FF5204"/>
			<stop  offset="1" style="stop-color:#FF270D"/>
		</linearGradient>
		<path class="st1" d="M52.8,111.9c-0.2-0.4-0.6-0.8-0.7-1.2c-1.2-5-2.4-10.1-3.6-15.1c-0.1-0.2-0.1-0.5-0.2-0.7c-0.7,0-1.5,0-2.2,0
			c-1.5,0-2.2-0.7-2.2-2.2c0-0.6,0-1.3,0-1.9c3.3,0,6.6,0,9.8,0c0.3,0,0.7,0,1,0c1.2-0.1,2.2-1,2.2-2.2c0-3.9,0-7.9,0-11.8
			c0-1.3-1-2.2-2.3-2.2c-3.5,0-7.1,0-10.8,0c0.1-0.9,0-1.9,0.2-2.8c0.1-0.7,0.9-1.2,1.7-1.2c4.8,0,9.6,0,14.5,0
			c0.4,0,0.9,0.2,1.2,0.4c0.4,0.4,0.7,0.3,1.2,0.2c4.4-1.2,8.9-2.4,13.3-3.6c0.5-0.1,0.8-0.4,0.9-0.9c0.6-2.3,2.8-3.7,5.2-3.4
			c2.2,0.3,4,2.3,4,4.6c0,2.1,0,4.2,0,6.3c0,0,0,0,0,0.1c2.6,0.4,4.6,1.6,6.1,3.8c1,1.5,1.4,3.1,1.4,4.9c-0.1,3.4-2.5,7.4-7.6,8.2
			c0,0.2,0,0.5,0,0.8c0,1.9,0,3.7,0,5.6c0,2.4-1.8,4.3-4.2,4.6c-2.2,0.3-4.4-1.2-5-3.4c-0.1-0.5-0.4-0.8-0.9-0.9
			c-4.5-1.2-9-2.4-13.5-3.6c-0.4-0.1-0.6-0.1-1,0.2c-0.4,0.3-0.9,0.4-1.4,0.5c-0.6,0.1-1.1,0-1.8,0c0,0.3,0.1,0.5,0.1,0.7
			c1.2,5,2.4,9.9,3.6,14.9c0.1,0.6,0.1,1.1-0.3,1.5C58.7,111.9,55.7,111.9,52.8,111.9z"/>
		<path class="st0" d="M61.8,112.4h-9.3l-0.1-0.3c-0.1-0.1-0.1-0.2-0.2-0.3c-0.2-0.3-0.4-0.6-0.5-1c-0.9-3.8-1.9-7.7-2.8-11.5
			L48,95.7c0-0.1-0.1-0.2-0.1-0.3l-0.3,0c-0.5,0-1,0-1.5,0c-1.7,0-2.7-0.9-2.7-2.7c0-0.5,0-0.9,0-1.4l0-1.1H54c0.3,0,0.5,0,0.8,0
			c1-0.1,1.7-0.8,1.7-1.7c0-3.8,0-7.8,0-11.8c0-1-0.8-1.7-1.8-1.7c-2.5,0-5.1,0-7.6,0l-3.7,0l0-0.5c0-0.3,0-0.5,0-0.8
			c0-0.7,0-1.4,0.2-2.1c0.2-0.9,1.1-1.7,2.2-1.7c4.8,0,9.6,0,14.5,0c0.5,0,1.1,0.2,1.5,0.6c0.2,0.2,0.2,0.2,0.7,0.1l1.4-0.4
			c4-1.1,8-2.1,12-3.2c0.4-0.1,0.5-0.2,0.6-0.5c0.7-2.5,3.1-4.1,5.7-3.8c2.5,0.3,4.4,2.5,4.5,5c0,1.4,0,2.9,0,4.3l0,1.7
			c2.6,0.5,4.6,1.8,6.1,4c1,1.6,1.5,3.3,1.5,5.2c-0.1,3.6-2.5,7.6-7.6,8.6l0,2.1c0,1.3,0,2.6,0,3.9c0,2.6-2,4.7-4.6,5.1
			c-2.5,0.3-4.9-1.4-5.6-3.8c-0.1-0.3-0.2-0.4-0.6-0.5c-4.5-1.2-9-2.4-13.5-3.6c-0.2-0.1-0.3-0.1-0.5,0.1c-0.4,0.3-1,0.5-1.7,0.6
			c-0.4,0.1-0.9,0.1-1.3,0c0,0,0,0,0,0c0,0,0,0,0,0l0.7,2.8c1,4,1.9,8.1,2.9,12.1c0.1,0.6,0.2,1.3-0.5,2L61.8,112.4z M53.1,111.4
			h8.3c0.1-0.2,0.2-0.4,0.1-0.9c-1-4-1.9-8.1-2.9-12.1l-0.7-2.8c0-0.1-0.1-0.3-0.1-0.5l-0.1-0.8h0.6c0.2,0,0.4,0,0.6,0
			c0.4,0,0.8,0,1.1,0c0.5-0.1,1-0.2,1.2-0.4c0.5-0.3,0.9-0.4,1.4-0.3c4.5,1.2,9,2.4,13.5,3.6c0.7,0.2,1.1,0.5,1.3,1.3
			c0.5,2,2.5,3.3,4.5,3.1c2.1-0.3,3.7-2,3.8-4.1c0-1.3,0-2.6,0-3.9l0-2.9l0.4-0.1c4.8-0.8,7.1-4.5,7.2-7.8c0-1.7-0.4-3.2-1.3-4.6
			c-1.3-2-3.3-3.2-5.8-3.6l-0.3,0l-0.1-0.3c0-0.1-0.1-0.2-0.1-0.3l0-2c0-1.4,0-2.9,0-4.3c0-2-1.6-3.8-3.6-4.1c-2.1-0.3-4.1,1-4.6,3
			c-0.2,0.7-0.6,1.1-1.3,1.3c-4,1.1-8,2.1-12,3.2l-1.3,0.4c-0.4,0.1-1.1,0.3-1.6-0.3c-0.1-0.2-0.5-0.3-0.8-0.3c-4.8,0-9.6,0-14.5,0
			c-0.6,0-1.2,0.4-1.3,0.8c-0.1,0.6-0.1,1.3-0.1,1.9c0,0.1,0,0.2,0,0.3l2.6,0c2.6,0,5.1,0,7.7,0c1.6,0,2.8,1.2,2.8,2.7
			c0,4,0,8,0,11.8c0,1.5-1.2,2.6-2.7,2.7c-0.3,0-0.5,0-0.8,0l-0.2,0l-9.3,0v0.1c0,0.4,0,0.9,0,1.3c0,1.2,0.5,1.7,1.7,1.7
			c0.5,0,1,0,1.5,0l1.1,0l0.2,0.6c0,0.2,0.1,0.3,0.1,0.5l0.9,3.6c0.9,3.8,1.8,7.7,2.8,11.5c0.1,0.2,0.2,0.4,0.4,0.7
			C53,111.3,53,111.3,53.1,111.4z"/>
	</g>
	<g>
		
			<linearGradient id="SVGID_00000012456342838408265130000000065473822291204510_" gradientUnits="userSpaceOnUse" x1="61.1831" y1="51.3496" x2="89.4652" y2="51.3496">
			<stop  offset="0" style="stop-color:#FF6600"/>
			<stop  offset="0" style="stop-color:#FF5204"/>
			<stop  offset="1" style="stop-color:#FF270D"/>
		</linearGradient>
		<path style="fill:url(#SVGID_00000012456342838408265130000000065473822291204510_);" d="M65.3,59.1c-0.6-0.1-1.1-0.1-1.6-0.3
			c-1.5-0.4-2.5-1.8-2.5-3.5c0-4.5,0-9.1,0-13.6c0-2.2,1.6-3.6,3.7-3.6c6.9,0,13.8,0,20.7,0c2.2,0,3.7,1.5,3.8,3.7c0,4.5,0,9,0,13.5
			c0,2.3-1.5,3.7-3.8,3.7c-3.6,0-7.1,0-10.7,0c-0.5,0-1,0.2-1.4,0.4c-2.5,1.5-4.9,3.1-7.4,4.7c-0.2,0.1-0.3,0.2-0.5,0.3
			c-0.3,0.1-0.8,0.2-1,0.1c-0.2-0.2-0.4-0.7-0.3-1c0.2-1.2,0.5-2.4,0.8-3.6C65.2,59.7,65.2,59.4,65.3,59.1z M77.4,46.3
			c0-0.9,0-1.7,0-2.5c0-1.4-0.9-2.3-2.2-2.3c-1.4,0-2.2,0.9-2.2,2.3c0,0.8,0,1.6,0,2.5c-0.3,0-0.6,0-0.8,0c-0.6,0-1.2,0-1.9,0
			c-1.2,0-2.1,0.9-2.1,2.2c0,1.3,0.8,2.2,2,2.3c0.9,0,1.8,0,2.7,0c0,0.9,0,1.6,0,2.3c0,1.5,0.9,2.4,2.2,2.4c1.3,0,2.2-1,2.2-2.5
			c0-0.8,0-1.5,0-2.3c0.9,0,1.7,0,2.5,0c1.3,0,2.2-0.9,2.2-2.2c0-1.4-0.9-2.2-2.2-2.3C79.1,46.3,78.3,46.3,77.4,46.3z"/>
		<path class="st0" d="M64.9,65.1c-0.2,0-0.4,0-0.5-0.2c-0.4-0.3-0.6-1-0.5-1.5c0.2-0.9,0.4-1.8,0.6-2.7l0.2-0.9
			c0-0.1,0-0.2,0.1-0.3c-0.4,0-0.7-0.1-1.1-0.2c-1.7-0.5-2.9-2-2.9-3.9c0-3.7,0-8.6,0-13.6c0-2.4,1.8-4.1,4.2-4.1
			c6.9,0,13.8,0,20.7,0c2.5,0,4.2,1.7,4.3,4.2c0,4.2,0,8.6,0,13.5c0,2.5-1.7,4.2-4.3,4.2c-1.4,0-2.8,0-4.3,0c-2.1,0-4.3,0-6.5,0
			c-0.4,0-0.8,0.1-1.1,0.3c-1.8,1.1-3.6,2.3-5.5,3.4l-2,1.3c-0.1,0.1-0.3,0.2-0.6,0.3l-0.2,0C65.3,65,65.1,65.1,64.9,65.1z
			 M75.7,38.6c-3.6,0-7.2,0-10.8,0c-1.9,0-3.2,1.3-3.2,3.1c0,5,0,9.9,0,13.6c0,1.4,0.9,2.6,2.2,3c0.3,0.1,0.6,0.1,0.9,0.2
			c0.2,0,0.4,0,0.6,0.1l0.5,0.1l-0.2,0.8c0,0.2-0.1,0.3-0.1,0.5L65.4,61c-0.2,0.9-0.4,1.8-0.6,2.6c0,0.1,0,0.4,0.1,0.5
			c0.1,0,0.3-0.1,0.4-0.1l0.2-0.1c0,0,0.1-0.1,0.2-0.1l2.1-1.3c1.8-1.2,3.6-2.3,5.5-3.5c0.5-0.3,1.1-0.5,1.7-0.5c2.2,0,4.3,0,6.5,0
			c1.4,0,2.8,0,4.3,0c2,0,3.3-1.3,3.3-3.2c0-4.9,0-9.3,0-13.5c0-1.9-1.3-3.2-3.3-3.2C82.4,38.6,79,38.6,75.7,38.6z M75.2,56.1
			c-1.6,0-2.7-1.2-2.7-2.9c0-0.5,0-1,0-1.5v-0.3l-0.4,0c-0.6,0-1.3,0-1.9,0c-1.5-0.1-2.5-1.2-2.5-2.8c0-1.5,1.1-2.6,2.6-2.7
			c0.4,0,0.9,0,1.3,0l0.9,0l0-0.3c0-0.6,0-1.1,0-1.7c0-1.6,1.1-2.8,2.7-2.8c0,0,0,0,0,0c1.6,0,2.7,1.1,2.7,2.8c0,0.5,0,1.1,0,1.7
			l0,0.3l0.3,0c0.6,0,1.1,0,1.7,0c1.6,0,2.7,1.1,2.7,2.8c0,1.6-1.1,2.7-2.7,2.7c-0.6,0-1.1,0-1.7,0l-0.3,0v0.3c0,0.5,0,1.1,0,1.6
			C77.9,54.9,76.8,56.1,75.2,56.1C75.2,56.1,75.2,56.1,75.2,56.1z M72.9,50.3h0.5l0,1.3c0,0.5,0,1,0,1.5c0,1.2,0.7,2,1.7,2
			c0,0,0,0,0,0c1,0,1.7-0.8,1.7-2c0-0.5,0-1,0-1.6l0-1.3l1.3,0c0.6,0,1.1,0,1.7,0c1.1,0,1.7-0.7,1.7-1.7c0-1.1-0.6-1.7-1.7-1.8
			c-0.5,0-1.1,0-1.7,0l-1.3,0l0-1.4c0-0.6,0-1.1,0-1.6c0-1.1-0.7-1.8-1.7-1.8c0,0,0,0,0,0c-1.1,0-1.7,0.7-1.7,1.8c0,0.5,0,1.1,0,1.7
			l0,1.3l-1.9,0c-0.4,0-0.9,0-1.3,0c-1,0-1.6,0.7-1.6,1.7c0,1,0.6,1.7,1.5,1.8c0.6,0,1.2,0,1.8,0L72.9,50.3z"/>
	</g>
	<g>
		
			<linearGradient id="SVGID_00000032622301549843298100000014063476908484299184_" gradientUnits="userSpaceOnUse" x1="43.9198" y1="82.6006" x2="55.5322" y2="82.6006">
			<stop  offset="0" style="stop-color:#FF6600"/>
			<stop  offset="0" style="stop-color:#FF5204"/>
			<stop  offset="1" style="stop-color:#FF270D"/>
		</linearGradient>
		<path style="fill:url(#SVGID_00000032622301549843298100000014063476908484299184_);" d="M55.5,82.6c0,1.8,0,3.6,0,5.5
			c0,0.9-0.3,1.2-1.1,1.2c-3.1,0-6.2,0-9.3,0c-0.9,0-1.2-0.3-1.2-1.1c0-3.7,0-7.4,0-11.1c0-0.9,0.3-1.1,1.2-1.1c3.1,0,6.1,0,9.2,0
			c0.9,0,1.2,0.3,1.2,1.2C55.5,79,55.5,80.8,55.5,82.6z"/>
		<path class="st0" d="M49.9,89.8c-1.6,0-3.2,0-4.8,0c-1.2,0-1.7-0.5-1.7-1.6c0-3.7,0-7.4,0-11.1c0-1.2,0.5-1.6,1.7-1.6
			c3.1,0,6.1,0,9.2,0c1.2,0,1.7,0.5,1.7,1.7c0,1.3,0,2.6,0,3.8l0,1.7l0,1.6c0,1.3,0,2.6,0,3.9c0,1.2-0.5,1.7-1.6,1.7
			C52.9,89.8,51.4,89.8,49.9,89.8z M49.7,76.4c-1.5,0-3.1,0-4.6,0c-0.7,0-0.7,0.1-0.7,0.6c0,3.7,0,7.4,0,11.1c0,0.6,0,0.6,0.7,0.6
			c3.1,0,6.2,0,9.3,0c0.6,0,0.6-0.1,0.7-0.7c0-1.3,0-2.6,0-3.9l0-1.6l0-1.7c0-1.3,0-2.6,0-3.8c0-0.7,0-0.7-0.7-0.7
			C52.8,76.4,51.3,76.4,49.7,76.4z"/>
	</g>
	<g>
		
			<linearGradient id="SVGID_00000011033251420331550470000014277041466120728508_" gradientUnits="userSpaceOnUse" x1="98.1725" y1="76.1309" x2="104.4609" y2="76.1309">
			<stop  offset="0" style="stop-color:#FF6600"/>
			<stop  offset="0" style="stop-color:#FF5204"/>
			<stop  offset="1" style="stop-color:#FF270D"/>
		</linearGradient>
		<path style="fill:url(#SVGID_00000011033251420331550470000014277041466120728508_);" d="M104.5,75.4c-0.3,0.4-0.5,0.9-0.8,1.1
			c-1,0.7-2.1,1.3-3.2,1.8c-0.9,0.4-1.7,0.2-2.1-0.6c-0.4-0.8-0.2-1.7,0.6-2.2c1-0.6,2-1.2,3-1.7C103.1,73.3,104.3,74.1,104.5,75.4z
			"/>
		<path class="st0" d="M99.7,79.1c-0.7,0-1.4-0.4-1.7-1.1c-0.6-1.1-0.2-2.2,0.8-2.8l0.2-0.1c0.9-0.6,1.9-1.1,2.8-1.6
			c0.6-0.3,1.3-0.3,2,0c0.7,0.4,1.1,1.1,1.2,1.9l0,0.2l-0.1,0.2c-0.1,0.1-0.1,0.2-0.2,0.3c-0.2,0.3-0.4,0.7-0.7,0.9
			c-1,0.6-2.1,1.3-3.2,1.8C100.4,79,100,79.1,99.7,79.1z M102.8,74.2c-0.2,0-0.3,0-0.5,0.1c-0.9,0.5-1.9,1.1-2.8,1.6L99.3,76
			c-0.6,0.4-0.8,0.9-0.5,1.5c0.3,0.5,0.8,0.7,1.4,0.4c1.1-0.6,2.2-1.2,3.1-1.8c0.1-0.1,0.3-0.3,0.4-0.6c0-0.1,0.1-0.2,0.1-0.2
			c-0.1-0.4-0.3-0.8-0.7-1C103.1,74.2,102.9,74.2,102.8,74.2z"/>
	</g>
	<g>
		
			<linearGradient id="SVGID_00000067919406842688868790000001892390640452321408_" gradientUnits="userSpaceOnUse" x1="93.9318" y1="70.846" x2="98.86" y2="70.846">
			<stop  offset="0" style="stop-color:#FF6600"/>
			<stop  offset="0" style="stop-color:#FF5204"/>
			<stop  offset="1" style="stop-color:#FF270D"/>
		</linearGradient>
		<path style="fill:url(#SVGID_00000067919406842688868790000001892390640452321408_);" d="M93.9,72.1c0.7-1.3,1.3-2.9,2.6-4.1
			c0.5-0.5,1.2-0.2,1.8,0.2c0.5,0.4,0.8,1,0.4,1.6c-0.6,1.2-1.3,2.4-2,3.5c-0.4,0.6-1.1,0.7-1.7,0.4C94.3,73.6,94,73.1,93.9,72.1z"
			/>
		<path class="st0" d="M95.6,74.5c-0.3,0-0.6-0.1-0.9-0.2c-0.9-0.3-1.3-1-1.3-2.2l0-0.1l0.1-0.1c0.1-0.3,0.3-0.6,0.4-0.8
			c0.5-1.1,1.2-2.4,2.3-3.4c0.6-0.6,1.6-0.5,2.4,0.2c0.7,0.6,0.9,1.5,0.6,2.2c-0.7,1.4-1.4,2.6-2.1,3.6
			C96.8,74.2,96.2,74.5,95.6,74.5z M94.4,72.2c0.1,0.8,0.3,1,0.7,1.2c0.2,0.1,0.8,0.2,1.1-0.3c0.6-1,1.3-2.1,2-3.5
			c0.2-0.3,0.1-0.7-0.3-1c-0.1-0.1-0.7-0.6-1.1-0.2c-1,0.9-1.5,2-2,3.1C94.7,71.7,94.6,72,94.4,72.2z"/>
	</g>
	<g>
		
			<linearGradient id="SVGID_00000111911531810189274750000009399902286337165242_" gradientUnits="userSpaceOnUse" x1="97.6377" y1="89.983" x2="103.9218" y2="89.983">
			<stop  offset="0" style="stop-color:#FF6600"/>
			<stop  offset="0" style="stop-color:#FF5204"/>
			<stop  offset="1" style="stop-color:#FF270D"/>
		</linearGradient>
		<path style="fill:url(#SVGID_00000111911531810189274750000009399902286337165242_);" d="M103.9,90.8c-0.2,1.2-1.2,2-2.2,1.5
			c-1.2-0.6-2.3-1.2-3.4-1.9c-0.7-0.4-0.8-1.3-0.4-2c0.4-0.7,1.2-1.1,2-0.7c1.1,0.6,2.2,1.2,3.3,1.9
			C103.5,89.9,103.7,90.4,103.9,90.8z"/>
		<path class="st0" d="M102.3,92.9c-0.3,0-0.6-0.1-0.8-0.2c-1.3-0.6-2.6-1.4-3.5-2c-0.9-0.5-1.1-1.7-0.5-2.7c0.6-1,1.7-1.4,2.6-0.9
			c1.3,0.7,2.4,1.3,3.3,1.9c0.4,0.2,0.6,0.6,0.7,0.9c0.1,0.1,0.1,0.2,0.2,0.4l0.1,0.2l0,0.2c-0.1,0.8-0.6,1.5-1.2,1.9
			C102.9,92.9,102.6,92.9,102.3,92.9z M99.2,88c-0.4,0-0.7,0.3-0.9,0.6c-0.2,0.4-0.3,1,0.2,1.3c0.9,0.6,2.1,1.3,3.4,1.9
			c0.3,0.1,0.6,0.1,0.8,0c0.3-0.2,0.6-0.5,0.6-0.9c0-0.1-0.1-0.2-0.1-0.3c-0.1-0.2-0.3-0.5-0.4-0.6c-0.9-0.6-1.9-1.2-3.2-1.9
			C99.5,88.1,99.3,88,99.2,88z"/>
	</g>
	<g>
		
			<linearGradient id="SVGID_00000118379451813190147390000000990524321461527993_" gradientUnits="userSpaceOnUse" x1="99.5706" y1="83.1398" x2="106.1123" y2="83.1398">
			<stop  offset="0" style="stop-color:#FF6600"/>
			<stop  offset="0" style="stop-color:#FF5204"/>
			<stop  offset="1" style="stop-color:#FF270D"/>
		</linearGradient>
		<path style="fill:url(#SVGID_00000118379451813190147390000000990524321461527993_);" d="M102.8,84.7c-0.6,0-1.2,0-1.9,0
			c-0.9-0.1-1.4-0.7-1.4-1.6c0-0.9,0.5-1.5,1.4-1.5c1.2,0,2.5,0,3.7,0c0.9,0,1.4,0.6,1.4,1.5c0,0.9-0.5,1.5-1.4,1.6
			C104.1,84.7,103.5,84.7,102.8,84.7z"/>
		<path class="st0" d="M104,85.2c-0.2,0-0.4,0-0.6,0c-0.4,0-0.7,0-1.1,0c-0.4,0-0.9,0-1.3,0c-1.2-0.1-1.9-0.9-1.9-2.1
			c0-1.2,0.8-2,1.9-2c1.2,0,2.5,0,3.8,0c1.1,0,1.9,0.8,1.9,2c0,1.2-0.7,2-1.9,2.1C104.5,85.2,104.2,85.2,104,85.2z M102.8,84.2
			L102.8,84.2c0.2,0,0.4,0,0.6,0c0.4,0,0.8,0,1.3,0c0.6,0,1-0.4,0.9-1.1c0-0.3-0.1-1-0.9-1c-1.2,0-2.5,0-3.7,0c-0.8,0-0.9,0.7-0.9,1
			c0,0.5,0.1,1,0.9,1.1c0.4,0,0.8,0,1.2,0C102.4,84.2,102.6,84.2,102.8,84.2z"/>
	</g>
	<g>
		
			<linearGradient id="SVGID_00000019664905873193477570000012740413262328511665_" gradientUnits="userSpaceOnUse" x1="92.996" y1="94.9502" x2="97.8766" y2="94.9502">
			<stop  offset="0" style="stop-color:#FF6600"/>
			<stop  offset="0" style="stop-color:#FF5204"/>
			<stop  offset="1" style="stop-color:#FF270D"/>
		</linearGradient>
		<path style="fill:url(#SVGID_00000019664905873193477570000012740413262328511665_);" d="M96.2,98.1c-0.4-0.3-0.9-0.6-1.2-1
			c-0.6-0.9-1.2-2-1.7-3c-0.4-0.8-0.2-1.6,0.6-2.1c0.8-0.5,1.7-0.3,2.2,0.6c0.6,1,1.2,2,1.7,3C98.3,96.7,97.5,98,96.2,98.1z"/>
		<path class="st0" d="M96,98.6l-0.2-0.1c-0.1-0.1-0.2-0.2-0.4-0.3c-0.3-0.2-0.7-0.5-0.9-0.8c-0.7-1-1.2-2-1.7-3
			c-0.6-1.1-0.3-2.2,0.7-2.8c1.1-0.6,2.2-0.3,2.8,0.7c0.7,1.2,1.3,2.1,1.7,3c0.3,0.6,0.3,1.4,0,2c-0.4,0.7-1.1,1.1-1.9,1.2L96,98.6z
			 M94.6,92.3c-0.2,0-0.4,0.1-0.6,0.2c-0.6,0.3-0.7,0.9-0.4,1.4c0.5,1,1.1,2,1.7,2.9c0.1,0.2,0.4,0.4,0.7,0.6
			c0.1,0.1,0.2,0.1,0.3,0.2c0.4-0.1,0.8-0.3,1-0.7c0.2-0.3,0.2-0.7,0-1.1c-0.5-0.9-1-1.8-1.7-3C95.3,92.5,95,92.3,94.6,92.3z"/>
	</g>
	<g>
		
			<linearGradient id="SVGID_00000149347904226414260050000005922512594304511887_" gradientUnits="userSpaceOnUse" x1="69.915" y1="48.5766" x2="80.4451" y2="48.5766">
			<stop  offset="0" style="stop-color:#FF6600"/>
			<stop  offset="0" style="stop-color:#FF5204"/>
			<stop  offset="1" style="stop-color:#FF270D"/>
		</linearGradient>
		<path style="fill:url(#SVGID_00000149347904226414260050000005922512594304511887_);" d="M72,49.1c-0.5,0-0.9,0-1.4,0
			c-0.4,0-0.8,0-0.7-0.5c0-0.5,0.4-0.5,0.7-0.5c0.9,0,1.8,0,2.7,0c1.1,0,1.4-0.3,1.4-1.4c0-0.9,0-1.8,0-2.7c0-0.4,0-0.7,0.5-0.7
			c0.5,0,0.6,0.3,0.5,0.7c0,0.9,0,1.7,0,2.6c0,1.1,0.3,1.4,1.5,1.5c0.8,0,1.5,0,2.3,0c0.4,0,1-0.2,1,0.5c0,0.7-0.5,0.5-1,0.5
			c-0.9,0-1.7,0-2.6,0c-0.9,0-1.2,0.3-1.2,1.2c0,1,0,1.9,0,2.9c0,0.4-0.1,0.7-0.5,0.7c-0.5,0-0.5-0.3-0.5-0.7c0-0.9,0-1.9,0-2.8
			c0-0.9-0.3-1.2-1.3-1.3C72.9,49.1,72.5,49.1,72,49.1C72,49.1,72,49.1,72,49.1z"/>
		<path class="st0" d="M75.2,54.3C75.2,54.3,75.2,54.3,75.2,54.3c-0.3,0-0.5-0.1-0.7-0.3c-0.3-0.3-0.3-0.6-0.3-0.9l0-0.5
			c0-0.8,0-1.6,0-2.3c0-0.7-0.1-0.7-0.8-0.8c-0.3,0-0.6,0-0.8,0v0l-0.5,0l-0.4,0c-0.3,0-0.6,0-0.9,0c-0.2,0-0.7,0-1-0.3
			c-0.2-0.2-0.3-0.4-0.3-0.8c0-0.5,0.2-1,1.2-1c0,0,0,0,0,0l0.6,0c0.7,0,1.4,0,2,0c0.8,0,0.9-0.1,0.9-0.9c0-0.7,0-1.4,0-2.1l0-0.5
			c0-0.8,0.3-1.2,1-1.2c0.3,0,0.6,0.1,0.8,0.3c0.3,0.3,0.3,0.7,0.3,1c0,0.9,0,1.7,0,2.6c0,0.9,0.1,0.9,1,1c0.3,0,0.7,0,1,0
			c0.4,0,0.8,0,1.3,0c0.1,0,0.1,0,0.2,0c0.3,0,0.7,0,1,0.2c0.2,0.2,0.3,0.4,0.3,0.8c0,0.3-0.1,0.6-0.3,0.8c-0.3,0.3-0.7,0.3-1,0.3
			l-0.2,0c-0.4,0-0.7,0-1.1,0c-0.5,0-1,0-1.5,0c-0.6,0-0.7,0.1-0.7,0.7c0,0.8,0,1.5,0,2.3l0,0.6c0,0.3,0,0.7-0.3,0.9
			C75.7,54.3,75.5,54.3,75.2,54.3z M72.9,48.6c0.2,0,0.4,0,0.5,0c1.2,0,1.7,0.6,1.8,1.7c0,0.8,0,1.6,0,2.4l0,0.4c0,0.2,0,0.2,0,0.2
			c0,0,0-0.1,0-0.2l0-0.6c0-0.8,0-1.6,0-2.3c0-1.1,0.6-1.6,1.7-1.7c0.5,0,1,0,1.5,0c0.4,0,0.7,0,1.1,0c0.1,0,0.1,0,0.2,0
			c0.1,0,0.2,0,0.2,0l0,0c0,0-0.1,0-0.2,0c-0.1,0-0.2,0-0.3,0c-0.4,0-0.8,0-1.2,0c-0.4,0-0.7,0-1.1,0c-1.4,0-1.9-0.5-2-1.9
			c0-0.9,0-1.7,0-2.6c0-0.2,0-0.3,0-0.3c0,0,0,0.2,0,0.3l0,0.5c0,0.7,0,1.4,0,2.1c0,1.3-0.6,1.8-1.9,1.9c-0.7,0-1.4,0-2.1,0l-0.6,0
			c-0.2,0-0.2,0-0.3,0c0,0,0.1,0,0.3,0c0.3,0,0.6,0,0.9,0v0l0.9,0C72.6,48.6,72.7,48.6,72.9,48.6z"/>
	</g>
</g>
</svg>
