<?xml version="1.0" encoding="utf-8"?>
<!-- Generator: Adobe Illustrator 27.7.0, SVG Export Plug-In . SVG Version: 6.00 Build 0)  -->
<svg version="1.1" id="Layer_1" xmlns="http://www.w3.org/2000/svg" xmlns:xlink="http://www.w3.org/1999/xlink" x="0px" y="0px"
	 viewBox="0 0 150 150" style="enable-background:new 0 0 150 150;" xml:space="preserve">
<style type="text/css">
	.st0{fill:none;}
	.st1{fill:#343634;}
</style>
<g>
	<g>
		<rect class="st0" width="150" height="150"/>
	</g>
	<g>
		<rect x="10" y="10" class="st0" width="130" height="130"/>
	</g>
</g>
<path class="st1" d="M72.4,93.9c6,0,11.2-1.9,15.5-5.8c4.3-3.9,6.5-8.6,6.5-14.2c0-4.9-1.5-9-4.6-12.4c-3.1-3.4-6.8-5.1-11.3-5.1
	c-4,0-7.4,1.3-10.1,3.8c-2.7,2.5-4.1,5.6-4.1,9.3c0,1.7,0.3,3.2,0.9,4.7c0.6,1.5,1.5,2.8,2.7,4.1c1,1,2.2,1.5,3.4,1.4
	c1.2-0.1,2.1-0.6,2.8-1.5c0.7-0.9,1.1-1.8,1.2-2.9c0.1-1.1-0.3-2-1.2-2.8c-0.5-0.4-0.8-0.8-1.1-1.2c-0.2-0.4-0.4-1-0.4-1.6
	c0-1.1,0.5-2.2,1.6-3.2c1.1-1,2.5-1.5,4.2-1.5c2,0,3.8,0.9,5.4,2.6c1.6,1.8,2.4,3.9,2.4,6.5c0,3.3-1.3,6-3.8,8.3
	c-2.5,2.3-5.8,3.4-9.8,3.4c-4.7,0-8.6-1.9-12-5.6c-3.3-3.8-5-8.4-5-14c0-2.1,0.3-4.2,0.8-6.2c0.6-2,1.5-3.9,2.8-5.7
	c0.6-0.9,0.8-2,0.8-3.1s-0.4-2.2-1.3-3c-1-0.8-2-1.3-3.1-1.3c-1.1,0-1.9,0.5-2.6,1.4c-2,2.5-3.5,5.3-4.5,8.3s-1.5,6.2-1.5,9.5
	c0,7.8,2.4,14.4,7.3,19.8C59.3,91.2,65.3,93.9,72.4,93.9z M36.7,108.1c-5.3-5-9.4-10.9-12.3-17.6S20,76.9,20,69.6
	c0-14.7,5.1-27.3,15.4-37.6s22.7-15.5,37.4-15.5c12.2,0,23.1,3.7,32.5,11s15.6,16.7,18.7,28.2l7.8,31.1c0.6,2.1,0.2,4-1,5.5
	c-1.2,1.5-2.9,2.3-5,2.3h-11v15.1c0,3.5-1.2,6.5-3.7,8.9s-5.5,3.7-9.1,3.7h-9.5v4.9c0,1.7-0.7,3.2-2,4.4c-1.3,1.2-2.8,1.8-4.6,1.8
	c-1.7,0-3.2-0.6-4.4-1.9c-1.2-1.2-1.8-2.7-1.8-4.4v-11.1c0-1.7,0.6-3.2,1.8-4.5c1.2-1.3,2.7-1.9,4.4-1.9h16V88.3
	c0-1.7,0.6-3.2,1.8-4.5c1.2-1.3,2.7-1.9,4.4-1.9h9.2l-5.7-23.1c-2.3-8.6-7.1-15.7-14.4-21.3c-7.3-5.6-15.4-8.3-24.5-8.3
	c-11.2,0-20.7,3.9-28.5,11.7S32.7,58.2,32.7,69.3c0,5.7,1.2,11.2,3.5,16.4c2.3,5.2,5.7,9.8,10,13.7l3.2,3v24.8
	c0,1.7-0.6,3.2-1.9,4.4c-1.3,1.2-2.8,1.8-4.5,1.8c-1.7,0-3.2-0.6-4.4-1.9c-1.2-1.2-1.8-2.7-1.8-4.4V108.1z"/>
</svg>
