<?xml version="1.0" encoding="UTF-8"?>
<svg id="Layer_1" data-name="Layer 1" xmlns="http://www.w3.org/2000/svg" xmlns:xlink="http://www.w3.org/1999/xlink" viewBox="0 0 150 150">
  <defs>
    <style>
      .cls-1 {
        fill: #fee8da;
      }

      .cls-2 {
        fill: url(#linear-gradient);
      }
    </style>
    <linearGradient id="linear-gradient" x1="42.5000038" y1="77.0500011" x2="107.5267982" y2="77.0500011" gradientTransform="translate(0 152) scale(1 -1)" gradientUnits="userSpaceOnUse">
      <stop offset="0" stop-color="#f60"/>
      <stop offset="0" stop-color="#ff5204"/>
      <stop offset="1" stop-color="#ff270d"/>
    </linearGradient>
  </defs>
  <circle id="Ellipse_113" data-name="Ellipse 113" class="cls-1" cx="75" cy="75" r="70"/>
  <path class="cls-2" d="m50.4000015,111.5999985c-2.2000008,0-4.0999985-.8000031-5.5999985-2.3000031s-2.2999992-3.4000015-2.2999992-5.5999985v-49.1999969c0-2.2000008.7999992-4.0999985,2.2999992-5.7000008s3.4000015-2.4000015,5.5999985-2.4000015h15.4000015c.1999969-2.0999985,1.1999969-3.9000015,3-5.5999985,1.6999969-1.7000008,3.8000031-2.5,6.1999969-2.5,2.4000015,0,4.5.7999992,6.1999969,2.5s2.6999969,3.5,3,5.5999985h15.4000015c2.1999969,0,4.0999985.7999992,5.6999969,2.4000015,1.5999985,1.5999985,2.4000015,3.5,2.4000015,5.7000008v49.0999985c0,2.1999969-.8000031,4.0999985-2.4000015,5.5999985s-3.5,2.3000031-5.6999969,2.3000031h-49.1999969v.0999985Zm24.5999985-60.7999992c.9000015,0,1.5999985-.2999992,2.1999969-.7999992s.8000031-1.2999992.8000031-2.2000008-.3000031-1.5999985-.8000031-2.2000008c-.5999985-.5999985-1.3000031-.7999992-2.1999969-.7999992s-1.5999985.2999992-2.1999969.7999992c-.5999985.5999985-.8000031,1.2999992-.8000031,2.2000008s.3000031,1.5999985.8000031,2.2000008c.5.5,1.2999954.7999992,2.1999969.7999992Zm.0999985,36.2000008c3.4000015,0,6.3000031-1.1999969,8.5999985-3.5,2.3000031-2.3000031,3.5-5.1999969,3.5-8.5999985s-1.1999969-6.3000031-3.5-8.5999985c-2.3000031-2.3000031-5.1999969-3.5-8.5999985-3.5s-6.3000031,1.1999969-8.5999985,3.5c-2.3000031,2.3000031-3.5,5.1999969-3.5,8.5999985s1.1999969,6.3000031,3.5,8.5999985c2.3000031,2.4000015,5.1999969,3.5,8.5999985,3.5Zm-24.6999969,16.5999985h49.0999985v-4.5999985c-3.4000015-2.9000015-7.0999985-5.1999969-11.0999985-7-4-1.6999969-8.5-2.5999985-13.5-2.5999985s-9.4000015.9000015-13.5,2.6999969c-4,1.8000031-7.7000008,4.0999985-11.0999985,7v4.5h.0999985Z"/>
</svg>