<?xml version="1.0" encoding="UTF-8"?>
<svg id="Layer_1" data-name="Layer 1" xmlns="http://www.w3.org/2000/svg" viewBox="0 0 150 150">
  <path d="m116.8790489,49.7936369c-.6939812,0-1.3136027-.1734953-1.8588761-.5204859s-1.0161871-.8674765-1.4127413-1.5614548l-4.3125948-9.2200237-9.2200209-4.312592c-.6939812-.3965599-1.2144642-.8674736-1.5614605-1.412747-.3469849-.5452705-.520483-1.1648949-.520483-1.8588761s.1734981-1.3383902.520483-1.93323c.3469849-.5948426.8674793-1.090541,1.5614605-1.4871009l9.2200209-4.1638827,4.3125948-9.3687358c.3965542-.6939805.8674793-1.1896803,1.4127413-1.4871009.5452733-.2974206,1.1648949-.4461313,1.8588761-.4461305.6939698-.0000007,1.3383931.1487099,1.9332357.4461305.5948313.2974206,1.0905353.7931204,1.4871009,1.4871009l4.3125948,9.3687358,9.2200209,4.1638827c.6939812.3965599,1.2144755.8922583,1.5614605,1.4871009.3469849.5948398.520483,1.2392517.520483,1.93323,0,.6939812-.1734981,1.3136056-.520483,1.8588761-.3469849.5452677-.8674679,1.0161871-1.5614605,1.412747l-9.2200209,4.312592-4.3125948,9.2200266c-.3965655.6939783-.8922696,1.214467-1.4871009,1.5614548-.5948426.3469877-1.2392432.520483-1.9332357.520483Zm12.3429418,48.6282055c-.3965655,0-.7931197-.0991385-1.1896852-.2974156-.3965542-.1982771-.6939812-.4957041-.8922583-.8922583l-2.3793591-5.2048531-5.2048531-2.3793591c-.1982771-.0991385-.5948426-.793114-1.1896852-2.0819435,0-.3965655.0991385-.7931197.2974156-1.1896796.1982771-.3965542.4956927-.6939812.8922583-.8922583l5.2048531-2.3793591,2.3793591-5.2048531c.0991385-.1982771.842689-.5948426,2.2306513-1.1896796.3965655,0,.7931197.0991385,1.1896852.2974213.3965542.1982771.6444119.4957041.7435504.8922583l2.3793591,5.2048531,5.2048531,2.3793591c.1982771.0991385.5948313.842689,1.1896852,2.2306513-.0000113.3965655-.0991385.7931197-.2974156,1.1896796s-.4957041.6444119-.8922583.7435504l-5.2048531,2.3793591-2.3793591,5.2048531c-.0991385.1982771-.7931197.5948313-2.0819435,1.1896739Zm-79.7086047,39.5568811c-1.7845222,0-3.345977-.5948426-4.6843672-1.7845165-1.3383931-1.1896852-2.1067253-2.6767861-2.3050052-4.4613026l-.8922611-8.3277626c-.8922611.0991385-1.9084482-.0743482-3.0485557-.520483-1.1401075-.4461235-2.057156-1.0161871-2.7511372-1.7101683l-6.5432433,2.6767861c-1.4871009.6939812-3.0485585.7683407-4.6843672.2230674-1.6358158-.5452733-2.9494256-1.5614718-3.9408253-3.0485727l-9.8148656-15.763267c-.8922611-1.685378-1.140111-3.4203252-.7435504-5.2048531.3965599-1.7845165,1.3879609-3.2220538,2.974201-4.3125948l6.3945341-4.0151735c-.4956998-1.1896796-.7435504-2.2058667-.7435504-3.0485557s.2478506-1.8588761.7435504-3.0485557l-6.3945326-4.0151735c-1.5862408-1.090541-2.5776412-2.5280726-2.9742018-4.3125948s-.1487099-3.5194694.7435504-5.2048531l9.8148649-15.763267c.9913996-1.3879623,2.3050066-2.3793648,3.9408168-2.9742018,1.6358115-.5948369,3.1972663-.5452677,4.6843672.1487078l6.5432433,2.6767804c.6939812-.6939812,1.6110269-1.2640335,2.7511372-1.7101683,1.1401131-.4461291,2.1562974-.6691909,3.0485585-.6691909l.8922611-8.1790548c.1982828-1.7845194.966615-3.2716202,2.3050052-4.4613026,1.3383874-1.1896796,2.899845-1.7845222,4.6843672-1.7845222h18.7374745c1.6853836,0,3.1972692.5948426,4.5356565,1.7845222,1.3383931,1.1896824,2.1562917,2.6767833,2.4537187,4.4613026l.8922583,8.1790548c.8922639,0,1.8836664.2230674,2.9742018.6691965,1.090541.4461291,2.0323686,1.0161871,2.8254939,1.7101683l6.3945326-2.6767804c1.5862337-.6939812,3.1972635-.7435504,4.8330778-.1487078,1.6358087.5948426,2.8998535,1.5862394,3.7921118,2.9742018l9.8148635,15.7632727c.9913968,1.685378,1.2888124,3.4203309.8922583,5.2048531-.3965655,1.7845222-1.3879623,3.2220538-2.9742018,4.3125948l-6.3945383,4.0151735c.4956927,1.1896852.7435504,2.205861.7435504,3.0485557,0,.8426833-.2478577,1.8588704-.7435504,3.0485557l6.3945383,4.0151735c1.5862394,1.0905353,2.5776362,2.528067,2.9742018,4.3125948.3965542,1.7845279.0991385,3.5194751-.8922583,5.2048531l-9.8148749,15.7632557c-.8922583,1.4871009-2.1562974,2.503288-3.7921061,3.0485613s-3.2468384.4709138-4.8330778-.2230674l-6.3945326-2.6767861c-.7931197.6939698-1.7349529,1.2640335-2.8254939,1.7101683-1.090541.4461235-2.0819378.6196216-2.9742018.520483l-.8922583,8.3277626c-.2974213,1.7845279-1.1153313,3.2716287-2.4537187,4.4613026-1.3383874,1.1896852-2.8502786,1.7845165-4.5356565,1.7845165l-18.7374631.0000113Zm9.3687344-31.0804106c5.1552838,0,9.4678786-1.7349472,12.9377788-5.2048531s5.2048531-7.8320642,5.2048531-13.0864866c0-5.1552838-1.7349529-9.4678786-5.2048531-12.9377788-3.4699115-3.4699002-7.8320642-5.2048531-13.0864923-5.2048531-5.1552838,0-9.443094,1.7349529-12.863422,5.2048531-3.4203309,3.4699002-5.1304963,7.8320642-5.1304992,13.0864866,0,5.1552838,1.7101683,9.4678729,5.1304992,12.9377788,3.420328,3.4699058,7.7577075,5.2048531,13.0121355,5.2048531Zm0-8.9226053c-2.6767804,0-4.8826471-.8922639-6.6176-2.6767804-1.7349529-1.7845222-2.6024265-4.0151735-2.6024265-6.6919539,0-2.6767861.8674736-4.8826471,2.6024265-6.6176s3.9408139-2.6024265,6.6175944-2.6024265,4.8826471.8674736,6.6176,2.6024265c1.7349472,1.7349529,2.6024265,3.9408139,2.6024265,6.6176,0,2.6767804-.8674793,4.9074318-2.6024265,6.6919539-1.7349529,1.7845165-3.9408196,2.6767804-6.6175944,2.6767804Zm-5.0561452,27.660074h10.1122848l1.1896796-11.3019644c2.7759247-.6939812,5.3535609-1.685378,7.7329257-2.9742018s4.6100161-2.9742018,6.6919539-5.0561452l9.6661557,4.3125948,4.9074318-7.73292-9.2200266-6.5432461c1.090541-2.4784977,1.6358087-5.0561452,1.6358087-7.7329257,0-2.6767861-.5452677-5.2544223-1.6358087-7.7329257l9.2200266-6.5432461-4.9074318-7.73292-9.6661557,4.3125948c-2.0819378-2.0819378-4.3125891-3.7673158-6.6919539-5.0561452-2.3793648-1.2888181-4.957001-2.2802206-7.7329257-2.9742018l-1.1896796-11.3019644h-10.1122848l-1.1896796,11.3019644c-2.8750632.6939812-5.5022715,1.6853836-7.8816335,2.9742018-2.3793563,1.2888181-4.5604383,2.9742074-6.5432433,5.0561452l-9.6661585-4.3125948-4.9074332,7.7329257,9.2200252,6.5432461c-1.1896796,2.4785034-1.7597376,5.0561452-1.7101654,7.7329257.0495693,2.6767804.6196244,5.2544223,1.7101654,7.7329257l-9.2200252,6.5432405,4.9074332,7.73292,9.6661557-4.3125948c1.9828021,2.0819435,4.1638813,3.7673215,6.5432433,5.0561452,2.3793591,1.2888238,5.0065731,2.2802206,7.8816363,2.9742018l1.1896796,11.3019644Z"/>
</svg>