<?xml version="1.0" encoding="utf-8"?>
<!-- Generator: Adobe Illustrator 27.3.1, SVG Export Plug-In . SVG Version: 6.00 Build 0)  -->
<svg version="1.1" id="Layer_1" xmlns="http://www.w3.org/2000/svg" xmlns:xlink="http://www.w3.org/1999/xlink" x="0px" y="0px"
	 viewBox="0 0 150 150" enable-background="new 0 0 150 150" xml:space="preserve">
<g>
	<g>
		<rect x="0" fill="none" width="150" height="150"/>
	</g>
	<g>
		<rect x="10" y="10" fill="none" width="130" height="130"/>
	</g>
</g>
<g>
	<path d="M71,128.1c-1.1,0-2.2-0.1-3.3-0.4c-1.1-0.2-2.3-0.7-3.3-1.3L33.7,110c-2.3-1.2-4.1-2.9-5.3-5.2c-1.3-2.3-1.9-4.7-1.9-7.3
		V70.3l-12.6-6.7c-1.2-0.7-2.1-1.6-2.7-2.7s-0.9-2.3-0.9-3.6c0-1.3,0.3-2.5,0.8-3.5c0.5-1,1.5-1.9,2.7-2.6l50.5-27.6
		c1-0.5,2.1-0.9,3.3-1.3s2.3-0.5,3.4-0.5c1.2,0,2.4,0.2,3.5,0.5c1.1,0.3,2.3,0.8,3.3,1.3l58.3,31.7c1.2,0.7,2.1,1.6,2.7,2.7
		c0.6,1.1,1,2.3,1,3.5V100c0,1.7-0.6,3.1-1.8,4.3c-1.2,1.2-2.7,1.8-4.5,1.8c-1.7,0-3.1-0.6-4.3-1.8c-1.2-1.2-1.8-2.6-1.8-4.3V64.5
		l-11.7,5.8v27.2c0,2.6-0.7,5-2,7.3c-1.3,2.3-3.1,4-5.4,5.2l-30.6,16.5c-1.1,0.6-2.2,1-3.3,1.3C73.2,128,72.1,128.1,71,128.1z
		 M71,80.7l42.7-23.3L71,34.5L28.6,57.4L71,80.7z M71,116.2l32.2-17.8V77.6L77.7,91.3c-1,0.5-2.1,0.9-3.2,1.2
		c-1.1,0.3-2.3,0.4-3.5,0.4c-1.2,0-2.3-0.1-3.4-0.4s-2.1-0.7-3.1-1.2l-25.7-14v21.1L71,116.2z"/>
</g>
</svg>
