<?xml version="1.0" encoding="utf-8"?>
<!-- Generator: Adobe Illustrator 27.4.1, SVG Export Plug-In . SVG Version: 6.00 Build 0)  -->
<svg version="1.1" id="Layer_1" xmlns="http://www.w3.org/2000/svg" xmlns:xlink="http://www.w3.org/1999/xlink" x="0px" y="0px"
	 viewBox="0 0 150 150" enable-background="new 0 0 150 150" xml:space="preserve">
<g>
	<g>
		<rect x="0" fill="none" width="150" height="150"/>
	</g>
	<g>
		<rect x="10" y="10" fill="none" width="130" height="130"/>
	</g>
</g>
<linearGradient id="SVGID_1_" gradientUnits="userSpaceOnUse" x1="9.781" y1="75" x2="140.219" y2="75">
	<stop  offset="0" style="stop-color:#FF6600"/>
	<stop  offset="0" style="stop-color:#FF5204"/>
	<stop  offset="1" style="stop-color:#FF270D"/>
</linearGradient>
<path fill="url(#SVGID_1_)" d="M36.9,118.8c-1.7,0-3.2-0.6-4.5-1.8c-1.2-1.2-1.8-2.7-1.8-4.5V71.8c0-1.4,0.6-2.8,1.9-4
	c1.3-1.2,2.7-1.9,4.4-1.9s3.1,0.6,4.3,1.9C42.4,69,43,70.4,43,72v40.6c0,1.7-0.6,3.2-1.9,4.4C39.8,118.2,38.4,118.8,36.9,118.8z
	 M75.6,118.8c-1.7,0-3.1-0.6-4.3-1.8c-1.2-1.2-1.8-2.7-1.8-4.5V71.8c0-1.4,0.6-2.8,1.8-4c1.2-1.2,2.6-1.9,4.3-1.9
	c1.6,0,3.1,0.6,4.3,1.9c1.2,1.2,1.9,2.6,1.9,4.2v40.6c0,1.7-0.6,3.2-1.8,4.4C78.7,118.2,77.3,118.8,75.6,118.8z M16.8,138.7
	c-1.9,0-3.5-0.7-4.9-2.2c-1.4-1.4-2.1-3.1-2.1-4.9c0-2,0.7-3.6,2-5c1.4-1.4,3.1-2,5.1-2h116.3c1.8,0,3.4,0.7,4.8,2.1
	c1.5,1.4,2.2,3.1,2.2,4.9c0,2-0.7,3.6-2.1,5c-1.4,1.4-3.1,2.1-5,2.1H16.8z M113,118.8c-1.6,0-3.1-0.6-4.3-1.8
	c-1.2-1.2-1.8-2.7-1.8-4.5V71.8c0-1.4,0.6-2.8,1.9-4c1.3-1.2,2.7-1.9,4.2-1.9c1.7,0,3.2,0.6,4.4,1.9c1.2,1.2,1.8,2.6,1.8,4.2v40.6
	c0,1.7-0.6,3.2-1.9,4.4C116.1,118.2,114.7,118.8,113,118.8z M81.9,12.9l51.6,29.5c1.8,1.1,3.4,2.5,4.7,4.3c1.3,1.8,2,3.6,2,5.6
	c0,2.3-0.9,4.2-2.7,5.7c-1.8,1.5-3.8,2.2-6,2.2H18.3c-2.3,0-4.3-0.7-6-2.2c-1.7-1.5-2.5-3.4-2.5-5.7c0-2,0.6-3.9,1.9-5.5
	s3-3.1,5-4.4l51.2-29.5c2-1,4.3-1.6,6.9-1.6C77.5,11.3,79.8,11.8,81.9,12.9z M39.7,45.9h70.4H39.7z M39.7,45.9h70.4L74.9,25.4
	L39.7,45.9z"/>
</svg>
