<?xml version="1.0" encoding="UTF-8"?>
<svg id="Layer_1" data-name="Layer 1" xmlns="http://www.w3.org/2000/svg" viewBox="0 0 300 300">
  <defs>
    <style>
      .cls-1 {
        fill: #000;
        stroke-width: 0px;
      }
    </style>
  </defs>
  <path class="cls-1" d="M108.28,150c-11.25,0-20.62-4.22-28.13-12.66-7.5-8.44-10.47-18.28-8.91-29.53l6.09-45.94c2.5-17.81,10.62-32.58,24.37-44.3C115.47,5.86,131.56,0,150,0s34.53,5.86,48.28,17.58c13.75,11.72,21.88,26.48,24.37,44.3l6.09,45.94c1.56,11.25-1.41,21.09-8.91,29.53-7.5,8.44-16.88,12.66-28.13,12.66h-83.44ZM108.28,112.5h83.44l-6.09-45c-1.25-8.75-5.23-15.94-11.95-21.56-6.72-5.62-14.61-8.44-23.67-8.44s-16.95,2.81-23.67,8.44c-6.72,5.63-10.7,12.81-11.95,21.56l-6.09,45ZM0,300v-52.5c0-10.62,2.73-20.39,8.2-29.3,5.47-8.91,12.73-15.7,21.8-20.39,19.38-9.69,39.06-16.95,59.06-21.8,20-4.84,40.31-7.27,60.94-7.27s40.94,2.42,60.94,7.27c20,4.84,39.69,12.11,59.06,21.8,9.06,4.69,16.33,11.48,21.8,20.39,5.47,8.91,8.2,18.67,8.2,29.3v52.5H0ZM37.5,262.5h225v-15c0-3.44-.86-6.56-2.58-9.37-1.72-2.81-3.98-5-6.8-6.56-16.87-8.44-33.91-14.77-51.09-18.98-17.19-4.22-34.53-6.33-52.03-6.33s-34.84,2.11-52.03,6.33c-17.19,4.22-34.22,10.55-51.09,18.98-2.81,1.56-5.08,3.75-6.8,6.56-1.72,2.81-2.58,5.94-2.58,9.37v15Z"/>
</svg>