<?xml version="1.0" encoding="utf-8"?>
<!-- Generator: Adobe Illustrator 27.7.0, SVG Export Plug-In . SVG Version: 6.00 Build 0)  -->
<svg version="1.1" id="Layer_1" xmlns="http://www.w3.org/2000/svg" xmlns:xlink="http://www.w3.org/1999/xlink" x="0px" y="0px"
	 viewBox="0 0 150 150" style="enable-background:new 0 0 150 150;" xml:space="preserve">
<style type="text/css">
	.st0{fill:none;}
	.st1{fill:#343634;}
</style>
<g>
	<g>
		<rect class="st0" width="150" height="150"/>
	</g>
	<g>
		<rect x="10" y="10" class="st0" width="130" height="130"/>
	</g>
</g>
<path class="st1" d="M31.2,113.9v-59V113.9v-2.5V113.9z M31.2,125.8c-3.2,0-6-1.2-8.4-3.5c-2.4-2.4-3.5-5.2-3.5-8.4v-59
	c0-3.3,1.2-6.1,3.5-8.5c2.4-2.4,5.2-3.6,8.4-3.6h19.7V29.7c0-3.2,1.2-6,3.5-8.4c2.4-2.4,5.2-3.6,8.4-3.6h23.3c3.2,0,6,1.2,8.4,3.6
	c2.4,2.4,3.5,5.2,3.5,8.4v13.1h19.7c3.3,0,6.1,1.2,8.5,3.6c2.4,2.4,3.6,5.2,3.6,8.5v29.8c-1.7-1.7-3.5-3.2-5.6-4.5
	c-2.1-1.3-4.2-2.4-6.5-3.2v-22H31.2v59H74c0.2,2.2,0.7,4.3,1.6,6.2c0.9,2,2,3.9,3.3,5.7H31.2z M62.7,42.8h23.3V29.7H62.7V42.8z
	 M105.9,132.2c-6.8,0-12.7-2.4-17.6-7.3c-4.9-4.9-7.3-10.8-7.3-17.6c0-6.8,2.4-12.7,7.3-17.6c4.9-4.9,10.8-7.3,17.6-7.3
	s12.7,2.4,17.6,7.3c4.9,4.9,7.3,10.8,7.3,17.6c0,6.8-2.4,12.7-7.3,17.6S112.7,132.2,105.9,132.2z M108.8,106.7v-13
	c0-0.8-0.3-1.6-1-2.3c-0.6-0.7-1.4-1-2.4-1c-0.9,0-1.8,0.3-2.5,1c-0.7,0.7-1.1,1.4-1.1,2.3v12.6c0,0.9,0.2,1.8,0.6,2.6
	c0.4,0.8,0.9,1.4,1.4,1.7l9.6,8.9c0.6,0.6,1.4,0.9,2.2,0.9c0.8,0,1.6-0.4,2.2-1c0.6-0.7,0.8-1.5,0.8-2.3c0-0.8-0.3-1.6-0.9-2.3
	C117.7,114.8,108.8,106.7,108.8,106.7z"/>
</svg>
