<?xml version="1.0" encoding="UTF-8"?>
<svg id="a" xmlns="http://www.w3.org/2000/svg" xmlns:xlink="http://www.w3.org/1999/xlink" version="1.1" viewBox="0 0 1080 1080">
  <defs>
    <style>
      .cls-1 {
        fill: url(#linear-gradient);
        stroke-width: 0px;
      }
    </style>
    <linearGradient id="linear-gradient" x1="540" y1="878.9" x2="540" y2="201.1" gradientUnits="userSpaceOnUse">
      <stop offset="0" stop-color="#ff270d"/>
      <stop offset="1" stop-color="#f60"/>
    </linearGradient>
  </defs>
  <path class="cls-1" d="M315.1,878.9c-63,0-117.1-22.3-162.2-66.8-45.1-44.5-67.7-99-67.7-163.6s16.8-102.5,50.5-146.1c33.7-43.6,77.3-69.7,130.8-78.3,14.5-66.1,47.6-119.7,99.3-161s110.6-61.9,176.8-61.9,140.3,27.2,194.1,81.8c53.8,54.5,83.1,120.1,87.7,196.7v23.8c49.5,5.3,90.3,25.4,122.4,60.4,32,35,48.1,77.6,48.1,127.9s-18.2,96.2-54.7,132.6-80.7,54.7-132.6,54.7h-492.5ZM315.5,788.7h490.1c27,0,50.2-9.9,69.8-29.7s29.3-42.9,29.3-69.4-9.8-51-29.3-70.3c-19.5-19.3-42.8-29-69.7-29h-70.7v-93c0-57.4-19-105.9-57.1-145.6s-84.6-59.4-139.6-59.4-103.6,21-141.5,63c-37.9,42-56.8,92.8-56.8,152.3h-27.6c-37.8,0-70.1,13.4-96.8,40.1-26.8,26.7-40.1,60-40.1,99.7s13.7,72,41.2,99.8c27.5,27.7,60.4,41.6,98.9,41.6h0Z"/>
</svg>