<?xml version="1.0" encoding="utf-8"?>
<!-- Generator: Adobe Illustrator 27.7.0, SVG Export Plug-In . SVG Version: 6.00 Build 0)  -->
<svg version="1.1" id="Layer_1" xmlns="http://www.w3.org/2000/svg" xmlns:xlink="http://www.w3.org/1999/xlink" x="0px" y="0px"
	 viewBox="0 0 150 150" style="enable-background:new 0 0 150 150;" xml:space="preserve">
<style type="text/css">
	.st0{fill:none;}
	.st1{fill:#343634;}
</style>
<g>
	<g>
		<rect class="st0" width="150" height="150"/>
	</g>
	<g>
		<rect x="10" y="10" class="st0" width="130" height="130"/>
	</g>
</g>
<path class="st1" d="M22.3,129.4c-4,0-7.4-1.4-10.2-4.3c-2.8-2.8-4.3-6.2-4.3-10.2V35.2c0-4,1.4-7.4,4.3-10.3
	c2.8-2.9,6.2-4.3,10.2-4.3h105.1c4,0,7.4,1.4,10.3,4.3c2.9,2.9,4.3,6.3,4.3,10.3v79.7c0,4-1.4,7.4-4.3,10.2
	c-2.9,2.8-6.3,4.3-10.3,4.3H22.3z M22.3,114.9h105.1V48.6H22.3V114.9z M56.3,81.8L43.2,68.2c-1-0.7-1.4-1.7-1.4-3
	c0.1-1.3,0.6-2.3,1.5-3.2c0.7-0.8,1.7-1.3,2.9-1.4s2.3,0.4,3.3,1.4L64,76.5c1.4,1.4,2.1,3.2,2.1,5.3s-0.7,3.8-2.1,5.1l-14.5,14.5
	c-0.8,1-1.9,1.4-3.2,1.4c-1.3,0-2.3-0.5-3-1.4c-1-0.7-1.4-1.7-1.4-3s0.5-2.3,1.4-3.2L56.3,81.8z M81.3,105.3c-1.2,0-2.3-0.4-3.1-1.3
	c-0.9-0.9-1.3-1.9-1.3-3.1c0-1.2,0.4-2.3,1.3-3.2c0.9-0.9,1.9-1.4,3.1-1.4h25.4c1.2,0,2.3,0.5,3.2,1.4c0.9,0.9,1.4,2,1.4,3.2
	c0,1.2-0.5,2.3-1.4,3.1c-0.9,0.9-2,1.3-3.2,1.3H81.3z"/>
</svg>
