<?xml version="1.0" encoding="utf-8"?>
<!-- Generator: Adobe Illustrator 27.3.1, SVG Export Plug-In . SVG Version: 6.00 Build 0)  -->
<svg version="1.1" id="Layer_1" xmlns="http://www.w3.org/2000/svg" xmlns:xlink="http://www.w3.org/1999/xlink" x="0px" y="0px"
	 viewBox="0 0 150 150" enable-background="new 0 0 150 150" xml:space="preserve">
<g>
	<g>
		<rect x="0" fill="none" width="150" height="150"/>
	</g>
	<g>
		<rect x="10" y="10" fill="none" width="130" height="130"/>
	</g>
</g>
<g>
	<path fill="#343634" d="M68.6,81L57.1,69.3c-1.1-1-2.5-1.5-4.1-1.5c-1.6,0-2.9,0.5-3.9,1.5c-1.1,1.1-1.7,2.5-1.7,4.1
		c0,1.6,0.6,3,1.7,4.1l14,14c1.4,1.4,3.2,2.2,5.2,2.2c2,0,3.7-0.7,5.2-2.2l27.3-27.3c1-1,1.5-2.3,1.5-3.9s-0.5-2.8-1.5-3.9
		c-1-1-2.3-1.5-3.8-1.5c-1.5,0-2.7,0.5-3.8,1.5L68.6,81z M74.9,140c-0.7,0-1.4-0.1-1.9-0.2c-0.6-0.1-1.1-0.3-1.6-0.5
		c-14.6-4.5-26.5-13.5-35.7-27S21.8,84.3,21.8,68.4V39.3c0-3.1,0.8-5.9,2.5-8.5c1.7-2.6,4-4.4,6.9-5.4l38.7-14.5
		c1.7-0.6,3.4-0.9,5.1-0.9s3.3,0.3,5.1,0.9l38.7,14.5c2.9,1,5.2,2.8,6.9,5.4c1.7,2.6,2.6,5.4,2.6,8.5v29.1
		c0,15.9-4.6,30.6-13.9,44.1c-9.3,13.5-21.2,22.4-35.8,27C78.7,139.3,77.5,139.5,74.9,140z M74.9,125.7
		c11.3-4.4,20.6-11.8,27.8-22.2s10.9-22.1,10.9-35.1V39.3L74.9,24.6L36.3,39.3v29.1c0,13,3.6,24.7,10.9,35.1S63.6,121.3,74.9,125.7z
		"/>
</g>
</svg>
