<?xml version="1.0" encoding="UTF-8"?>
<svg id="a" xmlns="http://www.w3.org/2000/svg" xmlns:xlink="http://www.w3.org/1999/xlink" version="1.1" viewBox="0 0 1080 1080">
  <defs>
    <style>
      .cls-1 {
        fill: url(#linear-gradient);
        stroke-width: 0px;
      }
    </style>
    <linearGradient id="linear-gradient" x1="540.2" y1="1002.2" x2="540.2" y2="78.6" gradientUnits="userSpaceOnUse">
      <stop offset="0" stop-color="#ff270d"/>
      <stop offset="1" stop-color="#f60"/>
    </linearGradient>
  </defs>
  <path class="cls-1" d="M500.4,682.1h79.8c6.3,0,11.8-2.7,16.4-8.1,4.6-5.4,6.5-11,5.8-16.9l-24.3-139.9c14.1-8.1,25.7-18.8,34.7-31.9,9-13.1,13.5-28,13.5-44.6,0-23.9-8.4-44.2-25.2-61-16.8-16.8-37.1-25.2-60.9-25.2s-44,8.4-60.5,25.2c-16.6,16.8-24.9,37.2-24.9,61s4.3,31.5,13,44.6c8.6,13.1,20.4,23.8,35.3,32l-24,139.9c-1.7,6.3-.2,12,4.4,17.2,4.6,5.2,10.2,7.8,16.9,7.8h0ZM540,1002.2c-5,0-9.8-.3-14.3-1-4.5-.7-8.5-2-12.1-4-107.6-34.8-192.7-99.9-255.4-195.4-62.7-95.5-94.1-198.4-94.1-308.8v-218.5c0-18.5,5.1-35.2,15.4-50.1,10.3-14.9,24.1-25.8,41.3-32.6l289.6-108.3c9.3-3.2,19.1-4.7,29.5-4.7s20.6,1.6,30.6,4.7l289.6,108.3c16.5,6.5,30,17.3,40.4,32.3,10.4,15,15.6,31.8,15.6,50.4v218.5c0,110.4-31.4,213.3-94.2,308.8s-147.6,160.6-254.4,195.4c-4.3,1.7-8.7,2.9-13.2,3.8s-9.3,1.2-14.3,1.2h0ZM540,918.3c84.5-29.7,153.9-83.7,208.2-162,54.3-78.3,81.4-166.1,81.4-263.5v-218.6l-289.6-109.1-289.6,109.3v218.5c0,97.3,27.1,185.1,81.4,263.4,54.3,78.3,123.7,132.3,208.2,162Z"/>
</svg>