<svg id="a" xmlns="http://www.w3.org/2000/svg" viewBox="0 0 1080 1080"><defs><linearGradient id="grad1" gradientUnits="userSpaceOnUse" x1="0%" y1="0%" x2="0%" y2="100%">
<stop offset="0%" style="stop-color:#FF6600"/>
<stop offset="20%" style="stop-color:#FF6600"/>
<stop offset="100%" style="stop-color:#FF270D"/>
</linearGradient></defs><path fill="url(#grad1)" d="M81.18,789.29c-8.62-5.54-13.98-13.53-16.08-23.98-2.1-10.45-.33-20.35,5.29-29.71l154.78-246.89c7.48-10.72,17.77-16.68,30.88-17.87,13.11-1.19,24.17,3.32,33.17,13.53l83.41,98.27,128.19-206.89c7.31-12.25,18.24-18.51,32.78-18.77,14.54-.26,25.73,5.74,33.56,17.99l62.18,92.4c6.82,9.72,8.99,19.3,6.51,28.76-2.48,9.46-7.56,17.16-15.23,23.1-8.19,5.95-17.24,8.99-27.17,9.14-9.93.14-18.84-4.49-26.74-13.9l-30.46-45.81-122.54,200.99c-7.99,11.41-18.63,17.7-31.9,18.89-13.27,1.19-23.91-3.32-31.9-13.53l-85.94-99.05-126.46,201.99c-6.47,10.04-15.31,16.13-26.54,18.25-11.23,2.13-21.16-.18-29.79-6.93h0ZM691.36,930.12c-50.38,0-93.11-17.56-128.21-52.68-35.1-35.12-52.65-77.89-52.65-128.3,0-50.41,17.56-93.34,52.68-128.81,35.12-35.46,77.89-53.2,128.29-53.2s93.3,17.76,128.69,53.28c35.38,35.52,53.07,78.47,53.07,128.84,0,17.41-2.69,34.18-8.06,50.31-5.38,16.13-12.6,31.62-21.66,46.47l110.33,109.06c7.47,7.99,11.34,17.48,11.6,28.44.26,10.97-3.28,20.03-10.63,27.18-8.03,7.99-17.64,11.99-28.83,11.99s-20.44-4-27.76-11.99l-111.11-109.31c-14.68,9.91-30.17,17.17-46.47,21.78-16.29,4.61-32.72,6.92-49.29,6.92ZM691.22,851.01c28.29,0,52.52-9.86,72.67-29.58,20.16-19.72,30.24-43.73,30.24-72.02s-10.03-52.76-30.09-72.92c-20.06-20.16-44.24-30.24-72.53-30.24s-52.55,10.03-72.28,30.09c-19.73,20.06-29.6,44.32-29.6,72.77s9.82,52.35,29.46,72.16c19.64,19.82,43.68,29.72,72.14,29.72ZM733.85,509.29c-8.84-4.94-15.05-12.43-18.62-22.47-3.57-10.04-1.71-20.93,5.61-32.66l175.05-275.79c5.79-9.36,14.33-15.14,25.64-17.35,11.31-2.21,21.57.06,30.79,6.81,8.68,6.39,14.04,14.85,16.07,25.39,2.04,10.54.24,20.15-5.38,28.83l-174.03,275.26c-7.99,11.41-17.18,17.49-27.57,18.25-10.38.76-19.57-1.32-27.57-6.26Z"/></svg>