<?xml version="1.0" encoding="UTF-8"?>
<svg id="Layer_1" data-name="Layer 1" xmlns="http://www.w3.org/2000/svg" viewBox="0 0 300 300">
  <defs>
    <style>
      .cls-1 {
        fill: #000;
        stroke-width: 0px;
      }
    </style>
  </defs>
  <path class="cls-1" d="M51.48,300c-14.27,0-26.41-5.04-36.44-15.13-10.03-10.08-15.04-22.26-15.04-36.52s5.03-26.41,15.1-36.44c10.07-10.03,22.23-15.04,36.47-15.04,4.42,0,8.75.59,13,1.76,4.25,1.17,8.24,2.8,11.99,4.88l59.37-59.54v-42.81c-11-3.21-20-9.32-27-18.33-7-9.01-10.5-19.44-10.5-31.29,0-14.32,5.04-26.49,15.13-36.52C123.65,5.01,135.82,0,150.09,0s26.41,5.03,36.44,15.08c10.03,10.05,15.04,22.19,15.04,36.41,0,11.77-3.5,22.18-10.5,31.25-7,9.06-16,15.21-27,18.44v42.79l59.26,59.55c3.85-2.08,7.89-3.71,12.12-4.88,4.23-1.17,8.56-1.76,12.98-1.76,14.24,0,26.4,5.04,36.47,15.13,10.07,10.08,15.1,22.26,15.1,36.52s-5.04,26.41-15.13,36.44c-10.08,10.03-22.26,15.04-36.52,15.04s-26.41-5.03-36.44-15.1c-10.03-10.07-15.04-22.22-15.04-36.47,0-4.42.59-8.75,1.76-13,1.17-4.25,2.8-8.24,4.88-11.99l-53.52-53.52-53.52,53.52c2.08,3.72,3.71,7.69,4.88,11.9,1.17,4.21,1.76,8.55,1.76,13.02,0,14.38-5.04,26.58-15.13,36.61-10.08,10.03-22.26,15.04-36.52,15.04ZM248.44,271.87c6.51,0,12.04-2.28,16.6-6.84,4.56-4.56,6.84-10.09,6.84-16.6s-2.28-12.04-6.84-16.6c-4.56-4.56-10.09-6.84-16.6-6.84s-12.04,2.28-16.6,6.84c-4.56,4.56-6.84,10.09-6.84,16.6s2.28,12.04,6.84,16.6c4.56,4.56,10.09,6.84,16.6,6.84ZM150,75c6.51,0,12.04-2.28,16.6-6.84,4.56-4.56,6.84-10.09,6.84-16.6s-2.28-12.04-6.84-16.6c-4.56-4.56-10.09-6.84-16.6-6.84s-12.04,2.28-16.6,6.84c-4.56,4.56-6.84,10.09-6.84,16.6s2.28,12.04,6.84,16.6,10.09,6.84,16.6,6.84ZM51.56,271.87c6.51,0,12.04-2.28,16.6-6.84,4.56-4.56,6.84-10.09,6.84-16.6s-2.28-12.04-6.84-16.6c-4.56-4.56-10.09-6.84-16.6-6.84s-12.04,2.28-16.6,6.84c-4.56,4.56-6.84,10.09-6.84,16.6s2.28,12.04,6.84,16.6c4.56,4.56,10.09,6.84,16.6,6.84Z"/>
</svg>