<?xml version="1.0" encoding="utf-8"?>
<!-- Generator: Adobe Illustrator 27.7.0, SVG Export Plug-In . SVG Version: 6.00 Build 0)  -->
<svg version="1.1" id="Layer_1" xmlns="http://www.w3.org/2000/svg" xmlns:xlink="http://www.w3.org/1999/xlink" x="0px" y="0px"
	 viewBox="0 0 150 150" style="enable-background:new 0 0 150 150;" xml:space="preserve">
<style type="text/css">
	.st0{fill:none;}
	.st1{fill:#343634;}
</style>
<g>
	<g>
		<rect class="st0" width="150" height="150"/>
	</g>
	<g>
		<rect x="10" y="10" class="st0" width="130" height="130"/>
	</g>
</g>
<path class="st1" d="M27.5,70.7c-3.6,0-6.7-1.3-9.3-4c-2.6-2.6-4-5.8-4-9.5V37.6c0-3.6,1.3-6.8,4-9.4c2.6-2.7,5.7-4,9.3-4h50.2
	c1.8,0,3.4,0.7,4.7,2c1.3,1.4,2,2.9,2,4.7V64c0,1.9-0.7,3.5-2,4.8c-1.3,1.3-2.9,1.9-4.7,1.9H27.5z M25.7,59h47.1V36H25.7V59z
	 M27.5,125.9c-3.6,0-6.7-1.3-9.3-4c-2.6-2.6-4-5.7-4-9.3V92.7c0-3.6,1.3-6.7,4-9.3c2.6-2.6,5.7-4,9.3-4h61.9c1.8,0,3.4,0.6,4.7,1.9
	c1.3,1.3,2,2.8,2,4.6v33.1c0,1.9-0.7,3.5-2,4.8c-1.3,1.3-2.9,1.9-4.7,1.9H27.5z M25.7,114.2h58.8V91.1H25.7V114.2z M104.9,70.7h-5.1
	c-1.8,0-3.3-0.6-4.6-1.9c-1.3-1.3-1.9-2.9-1.9-4.8V30.8c0-1.8,0.6-3.3,1.9-4.7c1.3-1.4,2.8-2,4.6-2h29.2c2.4,0,4.2,0.9,5.5,2.6
	c1.3,1.7,1.6,3.7,1,6.1l-9,28.6h2.9c1.8,0,3.3,0.9,4.5,2.6c1.1,1.8,1.3,3.5,0.5,5.1L111.4,124c-0.6,0.8-1.2,1.4-2,1.6
	c-0.8,0.2-1.5,0.3-2,0.1c-0.6-0.3-1.1-0.8-1.7-1.4c-0.5-0.6-0.8-1.3-0.8-2V70.7z M25.7,59V36V59z M25.7,114.2V91.1V114.2z
	 M41.7,47.5c0-1.2-0.4-2.2-1.2-3c-0.8-0.8-1.8-1.2-3-1.2c-1.2,0-2.2,0.4-3,1.2c-0.8,0.8-1.2,1.8-1.2,3c0,1.2,0.4,2.2,1.2,3
	c0.8,0.8,1.8,1.2,3,1.2c1.2,0,2.2-0.4,3-1.2C41.3,49.7,41.7,48.7,41.7,47.5z M37.4,106.9c1.2,0,2.2-0.4,3-1.2c0.8-0.8,1.2-1.8,1.2-3
	c0-1.2-0.4-2.2-1.2-3c-0.8-0.8-1.8-1.2-3-1.2c-1.2,0-2.2,0.4-3,1.2c-0.8,0.8-1.2,1.8-1.2,3c0,1.2,0.4,2.2,1.2,3
	C35.2,106.5,36.2,106.9,37.4,106.9z"/>
</svg>
