<?xml version="1.0" encoding="utf-8"?>
<!-- Generator: Adobe Illustrator 27.3.1, SVG Export Plug-In . SVG Version: 6.00 Build 0)  -->
<svg version="1.1" id="Layer_1" xmlns="http://www.w3.org/2000/svg" xmlns:xlink="http://www.w3.org/1999/xlink" x="0px" y="0px"
	 viewBox="0 0 150 150" enable-background="new 0 0 150 150" xml:space="preserve">
<g>
	<g>
		<rect x="0" fill="none" width="150" height="150"/>
	</g>
	<g>
		<rect x="10" y="10" fill="none" width="130" height="130"/>
	</g>
</g>
<linearGradient id="styler_FILL0_wght700_GRAD0_opsz48_00000098900860123322335900000012041797392942919315_" gradientUnits="userSpaceOnUse" x1="-2387.7188" y1="453.7372" x2="-2387.7188" y2="448.538" gradientTransform="matrix(23.396 0 0 -25.0037 55938.0234 11355.0918)">
	<stop  offset="0" style="stop-color:#FF6600"/>
	<stop  offset="0" style="stop-color:#FF5204"/>
	<stop  offset="1" style="stop-color:#FF270D"/>
</linearGradient>
<path id="styler_FILL0_wght700_GRAD0_opsz48_00000039132263930256028240000000296785029308182953_" fill="url(#styler_FILL0_wght700_GRAD0_opsz48_00000098900860123322335900000012041797392942919315_)" d="
	M43.2,140v-37.5H31.4c-4.5,0.1-8.9-1.7-12.2-4.8c-3.3-3-5.2-7.3-5.1-11.8c0-3.6,1-7.1,2.8-10.1c1.8-3,4.6-5.4,8-6.6l42.9-17.6v-5.1
	c-3.7-0.8-7-2.9-9.2-6.1c-2.3-3.1-3.5-6.9-3.4-10.7c-0.1-5.3,2-10.4,5.9-14c7.8-7.7,20.3-7.7,28.1,0c3.8,3.6,5.9,8.7,5.9,14H82.2
	c0-1.9-0.7-3.6-2.1-4.9c-1.4-1.3-3.1-1.9-5-1.9c-1.8,0-3.6,0.7-5,2c-1.4,1.2-2.1,3-2.1,4.8c0,2,0.7,3.9,2.2,5.3
	c1.4,1.4,3.2,2.1,5.1,2.1c3.4-0.1,6.3,2.6,6.4,6.1c0,0.1,0,0.2,0,0.2V51l43.2,18.2c3.3,1.3,6.2,3.6,8,6.6c1.9,3,2.9,6.5,2.9,10.1
	c0.1,4.5-1.8,8.8-5.2,11.8c-3.3,3.1-7.7,4.9-12.3,4.8h-11.7V140H43.2z M56,95.4L56,95.4z M31.4,89.7h11.8v-6.9h63.5v6.9h11.7
	c1.2,0,2.3-0.4,3.2-1.1c0.8-0.7,1.3-1.7,1.3-2.8c0-0.9-0.2-1.7-0.7-2.5c-0.5-0.8-1.2-1.4-2.1-1.8L75.4,62.1L29.8,81.6
	c-0.8,0.4-1.5,1-2,1.8C27.3,84,27,84.8,27,85.7c0,1.1,0.5,2.1,1.3,2.8C29.1,89.3,30.2,89.8,31.4,89.7L31.4,89.7z M56,127.2h38V95.4
	H56V127.2z"/>
</svg>
