<?xml version="1.0" encoding="UTF-8"?>
<svg id="Layer_1" data-name="Layer 1" xmlns="http://www.w3.org/2000/svg" viewBox="0 0 300 300">
  <defs>
    <style>
      .cls-1 {
        fill: #000;
        stroke-width: 0px;
      }
    </style>
  </defs>
  <path class="cls-1" d="M173.36,164.32c-10.53,0-19.44-3.65-26.73-10.94-7.29-7.29-10.94-16.2-10.94-26.73,0-10.53,3.65-19.44,10.94-26.73,7.29-7.29,16.2-10.94,26.73-10.94s19.44,3.65,26.73,10.94c7.29,7.29,10.94,16.2,10.94,26.73s-3.65,19.44-10.94,26.73c-7.29,7.29-16.2,10.94-26.73,10.94ZM70.94,201.93c-6.66,0-12.37-2.37-17.11-7.12-4.74-4.75-7.12-10.46-7.12-17.13v-102.21c0-6.67,2.37-12.36,7.12-17.06,4.74-4.71,10.45-7.06,17.11-7.06h204.83c6.66,0,12.37,2.37,17.11,7.12,4.74,4.75,7.12,10.46,7.12,17.13v102.21c0,6.67-2.37,12.36-7.12,17.06-4.74,4.71-10.45,7.06-17.11,7.06,0,0-204.83,0-204.83,0ZM90.53,182.34h165.65c0-6.76,2.37-12.5,7.12-17.23,4.74-4.72,10.45-7.09,17.11-7.09v-62.86c-6.69,0-12.4-2.37-17.13-7.12-4.73-4.74-7.1-10.45-7.1-17.11H90.53c0,6.76-2.37,12.5-7.12,17.23-4.74,4.72-10.45,7.09-17.11,7.09v62.86c6.69,0,12.4,2.37,17.13,7.12,4.73,4.74,7.1,10.45,7.1,17.11ZM255.08,248.65H24.23c-6.66,0-12.37-2.37-17.11-7.12-4.74-4.74-7.12-10.45-7.12-17.11V87.23h19.59v137.19c0,1.16.48,2.22,1.45,3.19.97.97,2.03,1.45,3.19,1.45h230.85v19.59ZM70.94,182.34h-4.64v-111.4h4.64c-1.26,0-2.34.46-3.26,1.38s-1.38,2-1.38,3.26v102.13c0,1.26.46,2.34,1.38,3.26.92.92,2,1.38,3.26,1.38Z"/>
</svg>