<?xml version="1.0" encoding="utf-8"?>
<!-- Generator: Adobe Illustrator 27.3.1, SVG Export Plug-In . SVG Version: 6.00 Build 0)  -->
<svg version="1.1" id="Layer_1" xmlns="http://www.w3.org/2000/svg" xmlns:xlink="http://www.w3.org/1999/xlink" x="0px" y="0px"
	 viewBox="0 0 150 150" enable-background="new 0 0 150 150" xml:space="preserve">
<g>
	<g>
		<rect x="0" fill="none" width="150" height="150"/>
	</g>
	<g>
		<rect x="10" y="10" fill="none" width="130" height="130"/>
	</g>
</g>
<g id="Group_13252_00000029010168192095291130000011467470341501723304_" transform="translate(0 0)">
	
		<rect id="Rectangle_321_00000079477469438836623270000013721768983341616803_" x="5.9" y="24.9" fill="none" width="92.2" height="92.2"/>
	
		<linearGradient id="payments_FILL0_wght700_GRAD0_opsz48_00000127019471870413990990000015050377307751875474_" gradientUnits="userSpaceOnUse" x1="-1045.835" y1="450.543" x2="-1045.835" y2="445.5366" gradientTransform="matrix(25.9139 0 0 -19.8418 27176.5781 8965.333)">
		<stop  offset="0" style="stop-color:#FF6600"/>
		<stop  offset="0" style="stop-color:#FF5204"/>
		<stop  offset="1" style="stop-color:#FF270D"/>
	</linearGradient>
	
		<path id="payments_FILL0_wght700_GRAD0_opsz48_00000171001494662367077210000005999445993774282684_" fill="url(#payments_FILL0_wght700_GRAD0_opsz48_00000127019471870413990990000015050377307751875474_)" d="
		M84.8,82.2c-9.2,0-16.8-7.4-16.8-16.7c0,0,0-0.1,0-0.1c0-9.2,7.4-16.8,16.7-16.8c0,0,0.1,0,0.1,0c9.2,0,16.8,7.4,16.8,16.7
		c0,0,0,0.1,0,0.1c0,9.2-7.4,16.8-16.7,16.8C84.9,82.2,84.9,82.2,84.8,82.2z M43.4,105c-7.3,0.1-13.2-5.7-13.3-13c0-0.1,0-0.2,0-0.3
		V39c0-3.5,1.3-6.9,3.9-9.4c2.5-2.6,5.9-4,9.5-3.9h83.2c3.5-0.1,6.9,1.4,9.3,3.9c2.5,2.5,3.9,5.9,3.9,9.4v52.7
		c0.1,3.5-1.3,7-3.9,9.5c-2.4,2.5-5.8,3.9-9.3,3.9H43.4z M55.7,93.4h58.4c-0.1-7.7,6.1-13.9,13.7-14c0.1,0,0.2,0,0.3,0v-28
		c-3.7,0.1-7.4-1.4-10-4.1c-2.6-2.6-4.1-6.2-4.1-9.9H55.7c0,3.7-1.4,7.3-4.1,9.9c-2.6,2.7-6.2,4.2-9.9,4.1v28
		c7.7-0.1,13.9,6.1,14,13.7C55.7,93.2,55.7,93.3,55.7,93.4L55.7,93.4z M23.2,125.1c-3.5,0.1-6.9-1.3-9.3-3.9
		c-2.5-2.4-3.9-5.8-3.8-9.3V55.6c-0.1-3.6,2.8-6.5,6.3-6.6c0.1,0,0.2,0,0.2,0c3.6-0.1,6.5,2.8,6.6,6.3c0,0.1,0,0.2,0,0.2v56.3h89.9
		c3.6,0,6.6,2.9,6.6,6.6c0,3.6-2.9,6.6-6.6,6.6l0,0H23.2z M41.7,93.4L41.7,93.4z"/>
</g>
</svg>
