<?xml version="1.0" encoding="UTF-8"?>
<svg id="Layer_1" data-name="Layer 1" xmlns="http://www.w3.org/2000/svg" viewBox="0 0 300 300">
  <defs>
    <style>
      .cls-1 {
        fill: #000;
        stroke-width: 0px;
      }
    </style>
  </defs>
  <path class="cls-1" d="M28.13,243.75c-7.73,0-14.36-2.8-19.86-8.4-5.51-5.6-8.26-12.17-8.26-19.73V84.38c0-7.55,2.75-14.13,8.26-19.73,5.51-5.6,12.13-8.4,19.86-8.4h243.75c7.73,0,14.36,2.8,19.86,8.4,5.51,5.6,8.26,12.17,8.26,19.73v131.25c0,7.55-2.75,14.13-8.26,19.73-5.51,5.6-12.13,8.4-19.86,8.4H28.13ZM28.13,215.62h243.75V84.38H28.13v131.25ZM75.78,196.87h28.13v-32.81h32.81v-28.13h-32.81v-32.81h-28.13v32.81h-32.81v28.13h32.81v32.81ZM187.5,192.19c6.51,0,12.04-2.28,16.6-6.84,4.56-4.56,6.84-10.09,6.84-16.6s-2.28-12.04-6.84-16.6c-4.56-4.56-10.09-6.84-16.6-6.84s-12.04,2.28-16.6,6.84c-4.56,4.56-6.84,10.09-6.84,16.6s2.28,12.04,6.84,16.6,10.09,6.84,16.6,6.84ZM234.38,154.69c6.51,0,12.04-2.28,16.6-6.84,4.56-4.56,6.84-10.09,6.84-16.6s-2.28-12.04-6.84-16.6c-4.56-4.56-10.09-6.84-16.6-6.84s-12.04,2.28-16.6,6.84-6.84,10.09-6.84,16.6,2.28,12.04,6.84,16.6c4.56,4.56,10.09,6.84,16.6,6.84ZM28.13,215.62V84.38v131.25Z"/>
</svg>