<?xml version="1.0" encoding="UTF-8"?>
<svg id="Layer_1" data-name="Layer 1" xmlns="http://www.w3.org/2000/svg" viewBox="0 0 300 300">
  <defs>
    <style>
      .cls-1 {
        fill: #000;
        stroke-width: 0px;
      }
    </style>
  </defs>
  <path class="cls-1" d="M150,143.11c-19.31,0-35.7-6.74-49.18-20.22-13.48-13.48-20.22-29.87-20.22-49.18s6.74-35.7,20.22-49.18c13.48-13.48,29.87-20.22,49.18-20.22,19.31,0,35.7,6.74,49.18,20.22,13.48,13.48,20.22,29.87,20.22,49.18s-6.74,35.7-20.22,49.18c-13.48,13.48-29.87,20.22-49.18,20.22ZM0,295.69v-40.81c0-6.86,2.05-13.47,6.14-19.83,4.09-6.36,9.81-11.86,17.16-16.51,19.52-11.22,40.03-19.83,61.54-25.81,21.51-5.98,43.19-8.98,65.05-8.98,21.86,0,43.59,2.99,65.17,8.98,21.58,5.98,42.14,14.59,61.65,25.81,7.35,4.28,13.07,9.69,17.16,16.23,4.09,6.54,6.14,13.25,6.14,20.11v40.81H0ZM29.1,266.59h241.79v-11.71c0-2.36-.85-4.58-2.55-6.67-1.7-2.08-4.05-3.85-7.05-5.3-16.3-9.87-33.92-17.35-52.85-22.43-18.93-5.08-38.41-7.62-58.45-7.62s-39.52,2.54-58.45,7.62c-18.93,5.08-36.54,12.56-52.85,22.43-3.01,2.07-5.37,4.05-7.06,5.94-1.69,1.89-2.54,3.9-2.54,6.03v11.71ZM150.12,114.01c11.11,0,20.59-3.96,28.43-11.87,7.84-7.91,11.75-17.43,11.75-28.54s-3.96-20.59-11.87-28.43c-7.92-7.84-17.43-11.75-28.54-11.75-11.11,0-20.59,3.96-28.43,11.87-7.84,7.92-11.75,17.43-11.75,28.54s3.96,20.59,11.87,28.43c7.92,7.84,17.43,11.75,28.54,11.75Z"/>
</svg>