<?xml version="1.0" encoding="utf-8"?>
<!-- Generator: Adobe Illustrator 27.3.1, SVG Export Plug-In . SVG Version: 6.00 Build 0)  -->
<svg version="1.1" id="Layer_1" xmlns="http://www.w3.org/2000/svg" xmlns:xlink="http://www.w3.org/1999/xlink" x="0px" y="0px"
	 viewBox="0 0 150 150" enable-background="new 0 0 150 150" xml:space="preserve">
<g>
	<g>
		<rect x="0" fill="none" width="150" height="150"/>
	</g>
	<g>
		<rect x="10" y="10" fill="none" width="130" height="130"/>
	</g>
</g>
<linearGradient id="SVGID_1_" gradientUnits="userSpaceOnUse" x1="22.0172" y1="75" x2="127.9828" y2="75">
	<stop  offset="0" style="stop-color:#FF6600"/>
	<stop  offset="0" style="stop-color:#FF5204"/>
	<stop  offset="1" style="stop-color:#FF270D"/>
</linearGradient>
<path fill="url(#SVGID_1_)" d="M68.8,93.6h12.3V78.2h15.3V66H81.1V50.6H68.8V66H53.5v12.3h15.3V93.6z M74.9,140.3
	c-15.4-3.9-28.1-12.7-38-26.4C27,100.1,22,85,22,68.6V29.4L74.9,9.7L128,29.4v39.2c0,16.4-5,31.5-15,45.3
	C103,127.6,90.3,136.5,74.9,140.3z M74.9,125.6c11.2-4.4,20.5-11.8,27.7-22.1s10.8-22,10.8-34.9v-29L74.9,25L36.4,39.7v28.9
	c0,13,3.6,24.7,10.8,35S63.7,121.2,74.9,125.6z"/>
</svg>
