<?xml version="1.0" encoding="utf-8"?>
<!-- Generator: Adobe Illustrator 27.3.1, SVG Export Plug-In . SVG Version: 6.00 Build 0)  -->
<svg version="1.1" id="Layer_1" xmlns="http://www.w3.org/2000/svg" xmlns:xlink="http://www.w3.org/1999/xlink" x="0px" y="0px"
	 viewBox="0 0 150 150" enable-background="new 0 0 150 150" xml:space="preserve">
<g>
	<g>
		<rect x="0" fill="none" width="150" height="150"/>
	</g>
	<g>
		<rect x="10" y="10" fill="none" width="130" height="130"/>
	</g>
</g>
<linearGradient id="manage_accounts_FILL0_wght700_GRAD0_opsz48_00000038402839752236710070000000043646429407222974_" gradientUnits="userSpaceOnUse" x1="-1210.8744" y1="453.4521" x2="-1210.8744" y2="448.8293" gradientTransform="matrix(28.1946 0 0 -25.0102 34215.0898 11358.123)">
	<stop  offset="0" style="stop-color:#FF6600"/>
	<stop  offset="0" style="stop-color:#FF5204"/>
	<stop  offset="1" style="stop-color:#FF270D"/>
</linearGradient>
<path id="manage_accounts_FILL0_wght700_GRAD0_opsz48_00000024685839607858913250000010720442781234078096_" fill="url(#manage_accounts_FILL0_wght700_GRAD0_opsz48_00000038402839752236710070000000043646429407222974_)" d="
	M62.8,70.9c-14.8,0.4-27.2-11.3-27.6-26.2c-0.4-14.8,11.3-27.2,26.2-27.6c0.5,0,0.9,0,1.4,0c7.2-0.3,14.3,2.5,19.4,7.5
	c10.1,10.9,10.1,27.8,0,38.7C77,68.5,70,71.2,62.8,70.9z M17,128c-3.9,0.1-7.1-3-7.2-6.9c0-0.1,0-0.2,0-0.3v-11.4
	c-0.1-4.3,1.2-8.6,3.8-12.1c2.3-3.2,5.3-5.8,8.8-7.5c6.9-3.1,14-5.5,21.3-7.2c6.2-1.5,12.6-2.2,19-2.3h6c-1.1,2.1-1.9,4.3-2.6,6.6
	c-0.9,2.6-1.4,5.3-1.7,8h-1.3c-5.5,0-11,0.6-16.4,1.6c-6.1,1.2-12,3.2-17.5,6c-1.5,0.7-2.8,1.8-3.7,3.2c-0.8,1.3-1.2,2.8-1.2,4.3
	v3.5H64c0.6,2.8,1.6,5.5,3.1,8c1.3,2.3,2.8,4.5,4.6,6.4L17,128z M62.8,56.5c6.9-0.1,12.3-5.8,12.2-12.7c-0.1-6.9-5.8-12.3-12.7-12.2
	c-3.1,0.1-6.1,1.3-8.4,3.5c-2.4,2.3-3.6,5.6-3.5,8.9c-0.1,3.3,1.2,6.6,3.5,9C56.2,55.3,59.4,56.6,62.8,56.5z M111.1,111.6
	c3,0.1,6-1.2,8.1-3.4c2.2-2.1,3.3-5.1,3.3-8.1c0-6.3-5.1-11.4-11.4-11.4c-6.3,0-11.4,5.1-11.4,11.4c0,3,1.2,6,3.4,8.1
	C105.1,110.4,108.1,111.6,111.1,111.6z M103.9,122.2c-1.6-0.4-3.2-1.1-4.7-1.9c-1.5-0.8-2.8-1.8-3.9-3l-6.3,1.4
	c-0.8,0.3-1.7,0.3-2.5-0.1c-0.8-0.3-1.4-0.9-1.8-1.6l-2.1-3.8c-0.5-0.7-0.7-1.6-0.5-2.4c0.1-0.9,0.5-1.7,1.2-2.3l5.5-5.1
	c-0.4-1-0.5-2.1-0.4-3.1c0-1,0.1-2,0.4-2.9l-5.5-5.3c-0.6-0.6-1-1.4-1.1-2.3c-0.2-0.8,0-1.7,0.5-2.4l2.1-4c0.4-0.7,1.1-1.3,1.8-1.5
	c0.8-0.3,1.6-0.4,2.5-0.2l6.3,1.4c1.2-1.1,2.5-2.1,3.9-2.9c1.4-0.9,3-1.5,4.7-1.8l1.1-7.5c0.1-0.9,0.6-1.8,1.2-2.4
	c0.7-0.6,1.6-0.9,2.5-0.8h4.9c0.9,0,1.7,0.3,2.4,0.8c0.7,0.6,1.2,1.5,1.3,2.4l1.1,7.5c1.6,0.4,3.1,1,4.5,1.8
	c1.4,0.8,2.8,1.8,3.9,2.9l6.4-1.2c0.8-0.3,1.7-0.3,2.5,0c0.8,0.3,1.5,0.9,1.8,1.7l2.1,3.8c0.4,0.7,0.5,1.5,0.3,2.3
	c-0.2,0.9-0.6,1.6-1.2,2.3l-5.4,5.2c0.5,0.9,0.7,2,0.5,3c0,1.1-0.2,2.1-0.5,3.1l5.5,5.1c0.6,0.6,1.1,1.4,1.2,2.3
	c0.1,0.8,0,1.7-0.4,2.4l-2.3,3.8c-0.3,0.7-0.9,1.3-1.7,1.6c-0.8,0.4-1.7,0.4-2.5,0.1l-6.3-1.4c-1.1,1.2-2.5,2.2-4,3
	c-1.5,0.8-3,1.4-4.6,1.9l-1.1,7.5c-0.2,0.9-0.6,1.6-1.3,2.2c-0.7,0.6-1.5,0.9-2.4,0.8h-4.9c-0.9,0.1-1.8-0.2-2.5-0.8
	c-0.6-0.6-1-1.4-1.2-2.3L103.9,122.2z"/>
</svg>
