<?xml version="1.0" encoding="utf-8"?>
<!-- Generator: Adobe Illustrator 27.3.1, SVG Export Plug-In . SVG Version: 6.00 Build 0)  -->
<svg version="1.1" id="Layer_1" xmlns="http://www.w3.org/2000/svg" xmlns:xlink="http://www.w3.org/1999/xlink" x="0px" y="0px"
	 viewBox="0 0 150 150" enable-background="new 0 0 150 150" xml:space="preserve">
<g>
	<g>
		<rect x="0" fill="none" width="150" height="150"/>
	</g>
	<g>
		<rect x="10" y="10" fill="none" width="130" height="130"/>
	</g>
</g>
<linearGradient id="database_FILL0_wght700_GRAD0_opsz48_00000020358046103635747350000011357175411561000624_" gradientUnits="userSpaceOnUse" x1="-2027.2936" y1="453.7432" x2="-2027.2936" y2="448.5475" gradientTransform="matrix(23.517 0 0 -25.021 47750.8906 11363.0918)">
	<stop  offset="0" style="stop-color:#FF6600"/>
	<stop  offset="0" style="stop-color:#FF5204"/>
	<stop  offset="1" style="stop-color:#FF270D"/>
</linearGradient>
<path id="database_FILL0_wght700_GRAD0_opsz48_00000029757791485537193270000006121795072432084378_" fill="url(#database_FILL0_wght700_GRAD0_opsz48_00000020358046103635747350000011357175411561000624_)" d="
	M75,66.7c-15.2,0.6-30.3-2.4-44.2-8.7c-11.3-5.8-17-12.3-17-19.7c0-7.5,5.6-14,16.9-19.7c13.8-6.2,28.9-9.2,44.1-8.6
	c15.2-0.6,30.3,2.3,44.2,8.6c11.3,5.7,17,12.3,17,19.7c0,7.4-5.6,13.9-16.9,19.7C105.3,64.4,90.2,67.3,75,66.7z M75,103.3
	c-14.7,0.3-29.3-2.3-43-7.8C20,90.3,13.9,84,13.9,76.8V56.5c0.1,4.2,2,8.1,5.2,10.8c4.1,3.6,8.8,6.5,13.8,8.4
	c6.3,2.5,12.9,4.4,19.6,5.5c7.4,1.3,14.9,2,22.4,2c7.6,0,15.1-0.6,22.6-1.9c6.7-1.1,13.3-2.9,19.6-5.4c5.1-1.9,9.8-4.8,13.8-8.5
	c3.2-2.7,5.1-6.7,5.2-10.8v20.3c0,7.3-6,13.5-18.1,18.7C104.3,100.9,89.7,103.6,75,103.3L75,103.3z M75,140
	c-14.7,0.3-29.3-2.3-43-7.7c-12.1-5.1-18.2-11.4-18.2-18.8V93.2c0.1,4.2,2,8.1,5.2,10.8c4.1,3.6,8.8,6.5,13.8,8.4
	c6.3,2.5,12.9,4.3,19.6,5.4c14.9,2.5,30.1,2.5,44.9,0c6.7-1.1,13.3-2.9,19.6-5.4c5.1-1.9,9.8-4.7,13.8-8.3c3.2-2.7,5.1-6.7,5.2-10.9
	v20.3c0,7.4-6,13.6-18.1,18.8C104.3,137.7,89.7,140.3,75,140L75,140z"/>
</svg>
