<?xml version="1.0" encoding="utf-8"?>
<!-- Generator: Adobe Illustrator 27.4.1, SVG Export Plug-In . SVG Version: 6.00 Build 0)  -->
<svg version="1.1" id="Layer_1" xmlns="http://www.w3.org/2000/svg" xmlns:xlink="http://www.w3.org/1999/xlink" x="0px" y="0px"
	 viewBox="0 0 150 150" enable-background="new 0 0 150 150" xml:space="preserve">
<g>
	<g>
		<rect x="0" fill="none" width="150" height="150"/>
	</g>
	<g>
		<rect x="10" y="10" fill="none" width="130" height="130"/>
	</g>
</g>
<linearGradient id="SVGID_1_" gradientUnits="userSpaceOnUse" x1="10.0049" y1="75" x2="139.9951" y2="75">
	<stop  offset="0" style="stop-color:#FF6600"/>
	<stop  offset="0" style="stop-color:#FF5204"/>
	<stop  offset="1" style="stop-color:#FF270D"/>
</linearGradient>
<path fill="url(#SVGID_1_)" d="M75,140c-8.9,0-17.3-1.7-25.2-5.1c-7.9-3.4-14.8-8.1-20.7-14c-5.9-5.9-10.6-12.8-14-20.7
	C11.7,92.3,10,83.9,10,75c0-8.9,1.7-17.2,5.1-25.1s8.1-14.8,14-20.7c5.9-5.9,12.9-10.6,20.8-14c7.9-3.5,16.3-5.2,25.2-5.2
	c8.9,0,17.3,1.7,25.2,5.2s14.8,8.1,20.6,14c5.8,5.9,10.5,12.8,13.9,20.7c3.4,7.9,5.1,16.3,5.1,25.2s-1.7,17.3-5.1,25.2
	c-3.4,7.9-8,14.8-13.9,20.7c-5.9,5.9-12.8,10.6-20.8,14C92.3,138.3,83.9,140,75,140z M68.6,125.7v-12.4c-3.6,0-6.6-1.3-8.9-3.8
	c-2.3-2.5-3.5-5.6-3.5-9.2v-6.6L25.7,63.1c-0.5,1.9-0.9,3.8-1.1,5.8c-0.2,2-0.3,3.9-0.3,5.9c0,12.7,4.2,24.1,12.5,34.1
	S55.8,124.5,68.6,125.7z M112.6,109.6c2.1-2.3,4-4.8,5.7-7.6c1.7-2.8,3.1-5.6,4.2-8.6c1.1-2.9,1.9-5.9,2.5-9
	c0.5-3.1,0.8-6.3,0.8-9.6c0-10.4-2.9-19.9-8.6-28.6c-5.7-8.7-13.4-14.9-23-18.9v2.5c0,3.6-1.2,6.6-3.5,9.1c-2.4,2.5-5.4,3.7-9,3.7
	h-13v13.1c0,1.9-0.6,3.3-1.9,4.3s-2.9,1.5-4.9,1.5H49.5v13.2h38.7c1.6,0,3,0.7,4.2,2c1.2,1.3,1.8,2.8,1.8,4.4v19.2h6.2
	c2.8,0,5.4,0.9,7.7,2.6C110.3,104.7,111.8,106.9,112.6,109.6z"/>
</svg>
