<?xml version="1.0" encoding="utf-8"?>
<!-- Generator: Adobe Illustrator 27.3.1, SVG Export Plug-In . SVG Version: 6.00 Build 0)  -->
<svg version="1.1" id="Layer_1" xmlns="http://www.w3.org/2000/svg" xmlns:xlink="http://www.w3.org/1999/xlink" x="0px" y="0px"
	 viewBox="0 0 150 150" enable-background="new 0 0 150 150" xml:space="preserve">
<g>
	<g>
		<rect x="0" fill="none" width="150" height="150"/>
	</g>
	<g>
		<rect x="10" y="10" fill="none" width="130" height="130"/>
	</g>
</g>
<linearGradient id="pie_chart_FILL0_wght700_GRAD0_opsz48_00000041273433664500228510000017252128928614385837_" gradientUnits="userSpaceOnUse" x1="-1549.0668" y1="453.7379" x2="-1549.0668" y2="448.5346" gradientTransform="matrix(25.0024 0 0 -25.0006 38805.3164 11353.668)">
	<stop  offset="0" style="stop-color:#FF6600"/>
	<stop  offset="0" style="stop-color:#FF5204"/>
	<stop  offset="1" style="stop-color:#FF270D"/>
</linearGradient>
<path id="pie_chart_FILL0_wght700_GRAD0_opsz48_00000117654642318367671520000010087568298556182445_" fill="url(#pie_chart_FILL0_wght700_GRAD0_opsz48_00000041273433664500228510000017252128928614385837_)" d="
	M82.1,67.9h42.7c-1.2-10.9-6.1-21.1-13.9-28.9c-7.5-8-17.8-12.9-28.7-13.8L82.1,67.9z M67.7,124.9V25.2C40.2,29,21,54.4,24.7,81.9
	C27.8,104.3,45.4,121.8,67.7,124.9L67.7,124.9z M82.1,124.9c10.9-0.9,21.1-5.9,28.7-13.8c7.8-7.8,12.7-17.9,14-28.8H82.1L82.1,124.9
	z M74.9,140c-8.7,0.1-17.3-1.7-25.3-5C34,128.4,21.6,116,15,100.4C8.3,84.2,8.3,66,15,49.8c6.6-15.6,19-28.1,34.6-34.7
	c16.2-6.8,34.5-6.8,50.7,0c7.7,3.3,14.7,8,20.6,13.9c5.9,5.9,10.7,12.9,13.9,20.6c6.8,16.3,6.8,34.7,0,51
	c-6.6,15.5-19,27.9-34.6,34.4C92.3,138.4,83.7,140.1,74.9,140L74.9,140z"/>
</svg>
