<?xml version="1.0" encoding="utf-8"?>
<!-- Generator: Adobe Illustrator 27.7.0, SVG Export Plug-In . SVG Version: 6.00 Build 0)  -->
<svg version="1.1" id="Layer_1" xmlns="http://www.w3.org/2000/svg" xmlns:xlink="http://www.w3.org/1999/xlink" x="0px" y="0px"
	 viewBox="0 0 150 150" style="enable-background:new 0 0 150 150;" xml:space="preserve">
<style type="text/css">
	.st0{fill:none;}
	.st1{fill:#343634;}
</style>
<g>
	<g>
		<rect class="st0" width="150" height="150"/>
	</g>
	<g>
		<rect x="10" y="10" class="st0" width="130" height="130"/>
	</g>
</g>
<g>
	<path class="st1" d="M77.2,104.3l4.4-12.5l0.4-1.1L67.8,76.4c5.3-6,9.8-12.3,13.5-18.9c3.7-6.6,6.7-13.6,8.9-20.7h10.4
		c2,0,3.7-0.7,5.1-2c1.4-1.3,2.2-3,2.2-5.1c0-2-0.7-3.7-2.1-5.2c-1.4-1.4-3.1-2.2-5.1-2.2H64.6v-5.2c0-2-0.7-3.7-2.1-5.1
		C61,10.7,59.3,10,57.3,10c-2,0-3.7,0.7-5.1,2.1c-1.4,1.4-2.1,3.1-2.1,5.1v5.2H13.9c-2,0-3.7,0.7-5.1,2.2c-1.4,1.4-2,3.2-2,5.2
		c0,2,0.7,3.7,2,5.1c1.4,1.4,3.1,2.1,5.1,2.1h61.8c-2.1,5.1-4.6,10-7.4,14.7c-2.9,4.8-6.5,9.6-10.8,14.2c-1.9-2.3-3.6-4.6-5.2-6.8
		c-1.8-2.5-3.5-5.2-5.2-8.1c-0.7-1-1.7-1.9-2.9-2.6c-1.2-0.7-2.4-1-3.6-1c-3.2,0-5.4,1-6.6,3.1c-1.1,2-1,4.3,0.5,6.6
		c1.9,3.7,4,7.2,6.3,10.4c2.1,2.9,4.5,5.9,7.2,8.9l-26.5,26.4c-1.5,1.4-2.3,3.1-2.3,4.9c0,1.8,0.7,3.4,2.1,4.8
		c0.9,1.6,2.3,2.5,4.2,2.7c0.2,0,0.3,0,0.5,0c1.8,0,3.5-0.8,5.3-2.5l25.8-25.9l19.5,18.6L77.2,104.3z"/>
	<path class="st1" d="M142.6,126.1l-23.5-60c-0.7-1.8-2-3.4-4-4.7c-1.9-1.3-3.8-2-5.6-2c-2,0-3.9,0.7-5.8,2
		c-1.9,1.3-3.1,2.9-3.7,4.7l-22.9,60.7c-1,2.4-0.9,4.6,0.5,6.4C79,135,81,136,83.5,136c1.4,0,2.8-0.4,4.1-1.3c1.4-0.9,2.3-2,2.7-3.4
		l5.6-14.9h28.3l4.7,14.6c0.4,1.4,1.3,2.6,2.6,3.6c1.3,1,2.7,1.5,4.1,1.5c3,0,5.2-0.9,6.5-2.7C143.3,131.4,143.5,129,142.6,126.1z
		 M100,103.5l9.5-26.3l9.6,26.3H100z"/>
</g>
</svg>
