<?xml version="1.0" encoding="utf-8"?>
<!-- Generator: Adobe Illustrator 27.3.1, SVG Export Plug-In . SVG Version: 6.00 Build 0)  -->
<svg version="1.1" id="Layer_1" xmlns="http://www.w3.org/2000/svg" xmlns:xlink="http://www.w3.org/1999/xlink" x="0px" y="0px"
	 viewBox="0 0 150 150" enable-background="new 0 0 150 150" xml:space="preserve">
<g>
	<g>
		<rect x="0" fill="none" width="150" height="150"/>
	</g>
	<g>
		<rect x="10" y="10" fill="none" width="130" height="130"/>
	</g>
</g>
<path d="M29.6,41.8c-1.7-1.8-2.9-3.8-3.6-5.9c-0.7-2.1-1-4.4-1-6.8c0-5.3,1.8-9.7,5.4-13.4s8-5.5,13.2-5.5c5.2,0,9.6,1.8,13.3,5.5
	c3.7,3.7,5.5,8.2,5.5,13.4c0,2.4-0.4,4.6-1.1,6.8c-0.7,2.1-1.9,4.1-3.5,5.9H29.6z M63.6,139.8c-7.4,0-13.6-2.6-18.8-7.8
	c-5.2-5.2-7.8-11.4-7.8-18.8h-4.9c-0.9,0-1.7-0.3-2.3-0.9c-0.6-0.6-1.1-1.3-1.3-2.2l-5.7-54.4c-0.3-2.1,0.3-3.9,1.8-5.4
	c1.5-1.5,3.2-2.3,5.2-2.3h27.6c2.2,0,4,0.8,5.3,2.3c1.3,1.5,1.9,3.4,1.7,5.4l-5.7,54.4c-0.1,0.9-0.5,1.6-1.2,2.2s-1.5,0.9-2.5,0.9
	h-5.7c0,3.9,1.4,7.2,4.2,10c2.8,2.8,6.1,4.2,10,4.2s7.2-1.4,9.9-4.2c2.7-2.8,4.1-6.1,4.1-10V35.1c0-7,2.4-12.9,7.2-17.7
	s10.7-7.2,17.7-7.2c6.9,0,12.7,2.4,17.5,7.2c4.8,4.8,7.2,10.7,7.2,17.7v98.6c0,1.8-0.6,3.3-1.8,4.4c-1.2,1.1-2.7,1.7-4.5,1.7
	c-1.7,0-3.1-0.6-4.3-1.7c-1.2-1.1-1.8-2.6-1.8-4.4V35.1c0-3.5-1.2-6.4-3.7-8.8s-5.3-3.6-8.7-3.6c-3.5,0-6.4,1.2-8.9,3.6
	c-2.4,2.4-3.7,5.3-3.7,8.8v78.1c0,7.4-2.6,13.6-7.7,18.8C77.2,137.2,70.9,139.8,63.6,139.8z M41.6,101h3.9l4.2-40.9H37.5L41.6,101z
	 M45.5,60.2h-8.1h12.2H45.5z"/>
</svg>
