<?xml version="1.0" encoding="utf-8"?>
<!-- Generator: Adobe Illustrator 27.3.1, SVG Export Plug-In . SVG Version: 6.00 Build 0)  -->
<svg version="1.1" id="Layer_1" xmlns="http://www.w3.org/2000/svg" xmlns:xlink="http://www.w3.org/1999/xlink" x="0px" y="0px"
	 viewBox="0 0 150 150" enable-background="new 0 0 150 150" xml:space="preserve">
<g>
	<g>
		<rect x="0" fill="none" width="150" height="150"/>
	</g>
	<g>
		<rect x="10" y="10" fill="none" width="130" height="130"/>
	</g>
</g>
<linearGradient id="campaign_FILL0_wght700_GRAD0_opsz48_00000093878720883646127010000001805106914885448104_" gradientUnits="userSpaceOnUse" x1="-1879.2454" y1="453.0384" x2="-1879.2454" y2="449.2303" gradientTransform="matrix(34.2346 0 0 -24.9966 64410.3047 11351.8301)">
	<stop  offset="0" style="stop-color:#FF6600"/>
	<stop  offset="0" style="stop-color:#FF5204"/>
	<stop  offset="1" style="stop-color:#FF270D"/>
</linearGradient>
<path id="campaign_FILL0_wght700_GRAD0_opsz48_00000181804375854781866590000009825797731289696684_" fill="url(#campaign_FILL0_wght700_GRAD0_opsz48_00000093878720883646127010000001805106914885448104_)" d="
	M119.2,81c-1.6,0-3.2-0.6-4.3-1.7c-2.4-2.3-2.4-6-0.2-8.3c0.1-0.1,0.1-0.1,0.2-0.2c1.2-1.1,2.7-1.7,4.3-1.7H134
	c3.3-0.1,6.1,2.5,6.1,5.8c0.1,3.3-2.5,6.1-5.8,6.1c-0.1,0-0.2,0-0.3,0H119.2z M119,121.4l-12.1-8.9c-1.3-1-2.1-2.4-2.3-3.9
	c-0.3-1.6,0.1-3.3,1.1-4.6c0.9-1.3,2.4-2.2,4-2.3c1.6-0.2,3.3,0.2,4.6,1.2l12,8.9c1.3,1,2.1,2.4,2.3,3.9c0.3,1.6-0.1,3.2-1.2,4.4
	c-1.9,2.7-5.6,3.3-8.2,1.4C119.1,121.5,119.1,121.5,119,121.4L119,121.4z M114.6,47c-1.3,1-2.9,1.4-4.5,1.2c-1.6-0.2-3.1-1-4.1-2.3
	c-1-1.3-1.4-2.9-1.2-4.5c0.2-1.6,1.1-3,2.4-3.9l11.7-8.8c1.2-1,2.8-1.4,4.4-1.1c1.6,0.2,3,1,3.9,2.3c1,1.3,1.5,2.9,1.3,4.5
	c-0.2,1.6-1.1,3-2.4,3.9L114.6,47z M28.8,119.5V96.2h-6.9c-3.4-0.3-6.5-2-8.7-4.6c-2.3-2.5-3.5-5.8-3.5-9.2V67.6
	c0-7.7,6.2-13.8,13.9-13.9h23.8l23.6-14c3.2-2,7.4-0.9,9.4,2.3c0.7,1.1,1,2.4,1,3.7v58.7c0.1,2.5-1.2,4.9-3.4,6.1
	c-2.1,1.3-4.9,1.2-6.9-0.2l-23.6-14h-4.2v23.4L28.8,119.5z M87.3,98.3V51.7c3.7,2.6,6.7,6.1,8.8,10.1
	C102.9,74.4,99.1,90.1,87.3,98.3L87.3,98.3z M67.6,92.4V57.7l-16.8,9.9H23.7v14.9h27.2L67.6,92.4z"/>
</svg>
