<?xml version="1.0" encoding="utf-8"?>
<!-- Generator: Adobe Illustrator 27.3.1, SVG Export Plug-In . SVG Version: 6.00 Build 0)  -->
<svg version="1.1" id="Layer_1" xmlns="http://www.w3.org/2000/svg" xmlns:xlink="http://www.w3.org/1999/xlink" x="0px" y="0px"
	 viewBox="0 0 150 150" enable-background="new 0 0 150 150" xml:space="preserve">
<g>
	<g>
		<rect x="0" fill="none" width="150" height="150"/>
	</g>
	<g>
		<rect x="10" y="10" fill="none" width="130" height="130"/>
	</g>
</g>
<path d="M12.2,111.5c-1.5-1.5-2.2-3.2-2.2-5.2s0.7-3.7,2.1-5.2l39.4-39.4c0.7-0.7,1.6-1.3,2.5-1.7s1.9-0.6,2.9-0.6
	c1,0,1.8,0.2,2.7,0.6s1.7,0.9,2.5,1.7l21.2,21.2l31.5-31.7h-11.4c-2.1,0-3.9-0.7-5.3-2.1c-1.4-1.4-2.1-3.2-2.1-5.3
	c0-2.1,0.7-3.9,2.1-5.3c1.4-1.4,3.2-2.1,5.3-2.1h29.1c2.1,0,3.9,0.7,5.3,2.1c1.4,1.4,2.1,3.2,2.1,5.3v29c0,2-0.7,3.7-2.1,5.2
	c-1.4,1.5-3.1,2.2-5.1,2.2c-2.1,0-3.9-0.7-5.3-2.2c-1.4-1.5-2.1-3.2-2.1-5.2V61.9L88.4,98.8c-0.7,0.7-1.6,1.3-2.5,1.7
	c-0.9,0.4-1.8,0.6-2.8,0.6c-1.1,0-2-0.2-2.9-0.6c-0.9-0.4-1.7-0.9-2.5-1.7L56.7,77.6l-34,34c-1.5,1.5-3.2,2.2-5.3,2.1
	S13.6,112.9,12.2,111.5z"/>
</svg>
