<?xml version="1.0" encoding="UTF-8"?>
<svg id="Layer_1" data-name="Layer 1" xmlns="http://www.w3.org/2000/svg" viewBox="0 0 300 300">
  <defs>
    <style>
      .cls-1 {
        fill: #000;
        stroke-width: 0px;
      }
    </style>
  </defs>
  <path class="cls-1" d="M75,300c-6.88,0-12.76-2.45-17.66-7.34-4.9-4.9-7.34-10.78-7.34-17.66V25c0-6.87,2.45-12.76,7.34-17.66,4.9-4.9,10.78-7.34,17.66-7.34h150c6.87,0,12.76,2.45,17.66,7.34,4.9,4.9,7.34,10.78,7.34,17.66v250c0,6.87-2.45,12.76-7.34,17.66-4.9,4.9-10.78,7.34-17.66,7.34H75ZM75,225v50h150v-50H75ZM149.93,262.5c3.52,0,6.5-1.19,8.93-3.57,2.43-2.38,3.65-5.33,3.65-8.85s-1.19-6.5-3.57-8.93c-2.38-2.43-5.33-3.65-8.85-3.65s-6.5,1.19-8.93,3.57c-2.43,2.38-3.65,5.33-3.65,8.85s1.19,6.5,3.57,8.93c2.38,2.43,5.33,3.65,8.85,3.65ZM75,200h150V66.67H75v133.33ZM75,41.67h150v-16.67H75v16.67ZM75,225v50-50ZM75,41.67v-16.67,16.67Z"/>
</svg>