<?xml version="1.0" encoding="utf-8"?>
<!-- Generator: Adobe Illustrator 27.3.1, SVG Export Plug-In . SVG Version: 6.00 Build 0)  -->
<svg version="1.1" id="Layer_1" xmlns="http://www.w3.org/2000/svg" xmlns:xlink="http://www.w3.org/1999/xlink" x="0px" y="0px"
	 viewBox="0 0 150 150" enable-background="new 0 0 150 150" xml:space="preserve">
<g>
	<g>
		<rect x="0" fill="none" width="150" height="150"/>
	</g>
	<g>
		<rect x="10" y="10" fill="none" width="130" height="130"/>
	</g>
</g>
<path d="M123.5,65.3l-8.6-4.1l8.6-4l3.8-8.6l4.1,8.6l8.5,4l-8.5,4.1l-4.1,8.5L123.5,65.3z M104.7,34.8l-13-6l13-6l5.8-12.8l6.1,12.8
	l12.8,6l-12.8,6l-6.1,12.8L104.7,34.8z M53.1,140c-3.4,0-6.2-1.3-8.5-3.8c-2.3-2.5-3.4-5.6-3.4-9.3h24c0,3.7-1.2,6.8-3.6,9.3
	C59.2,138.7,56.4,140,53.1,140z M35.5,117.9c-1.4,0-2.6-0.5-3.4-1.4c-0.9-0.9-1.3-2.1-1.3-3.4c0-1.4,0.4-2.6,1.3-3.4
	c0.9-0.9,2-1.3,3.4-1.3h35.2c1.4,0,2.6,0.5,3.4,1.4c0.9,0.9,1.3,2.1,1.3,3.4s-0.4,2.4-1.3,3.4c-0.9,0.9-2,1.4-3.4,1.4L35.5,117.9z
	 M31.4,99.5c-6.4-4.1-11.6-9.4-15.5-15.6c-3.9-6.3-5.8-13.3-5.8-21.2c0-11.6,4.2-21.7,12.7-30.2s18.6-12.8,30.3-12.8
	c11.6,0,21.7,4.3,30.2,12.8S96.1,51,96.1,62.7c0,7.9-1.9,14.9-5.8,21.2s-9,11.5-15.6,15.6H31.4z M35.7,87h34.8
	c4.1-2.7,7.3-6.2,9.6-10.5c2.3-4.2,3.5-8.9,3.5-13.9c0-8.4-3-15.6-9-21.5c-6-6-13.2-8.9-21.6-8.9c-8.5,0-15.7,3-21.6,8.9
	s-8.9,13.1-8.9,21.5c0,5,1.1,9.7,3.4,13.9C28.4,80.8,31.6,84.3,35.7,87z"/>
</svg>
