<?xml version="1.0" encoding="utf-8"?>
<!-- Generator: Adobe Illustrator 27.3.1, SVG Export Plug-In . SVG Version: 6.00 Build 0)  -->
<svg version="1.1" id="Layer_1" xmlns="http://www.w3.org/2000/svg" xmlns:xlink="http://www.w3.org/1999/xlink" x="0px" y="0px"
	 viewBox="0 0 150 150" enable-background="new 0 0 150 150" xml:space="preserve">
<g>
	<g>
		<rect x="0" fill="none" width="150" height="150"/>
	</g>
	<g>
		<rect x="10" y="10" fill="none" width="130" height="130"/>
	</g>
</g>
<g>
	<path d="M112.9,140c-5.7,0-10.7-2.1-14.8-6.2s-6.2-9.1-6.2-14.8c0-0.7,0.1-1.6,0.2-2.7c0.2-1.1,0.4-2.1,0.7-3.2L51.9,89.3
		c-1.8,2-4.1,3.7-6.7,4.9c-2.6,1.2-5.3,1.8-8.1,1.8c-5.8,0-10.8-2.1-14.9-6.2s-6.1-9.1-6.1-14.8c0-5.8,2-10.8,6.1-14.9
		c4.1-4.1,9.1-6.1,14.9-6.1c2.8,0,5.4,0.5,7.9,1.6c2.5,1.1,4.8,2.6,6.8,4.7l40.9-23.5c-0.3-0.8-0.5-1.8-0.7-2.8
		c-0.2-1.1-0.2-2-0.2-2.8c0-5.7,2.1-10.7,6.2-14.8c4.1-4.1,9.1-6.2,14.8-6.2c5.8,0,10.8,2.1,14.9,6.2s6.1,9.1,6.1,14.8
		s-2,10.7-6.1,14.8s-9.1,6.2-14.9,6.2c-2.9,0-5.6-0.4-8.1-1.2c-2.5-0.8-4.6-2.3-6.4-4.3l-41,22.3c0.3,0.9,0.5,2,0.6,3.2
		c0.1,1.2,0.2,2.2,0.2,2.9s-0.1,1.5-0.2,2.5c-0.1,0.9-0.3,1.9-0.6,2.9l41,22.9c1.7-1.7,3.8-3.1,6.2-4c2.4-0.9,5.1-1.4,8.2-1.4
		c5.8,0,10.8,2.1,14.9,6.2c4.1,4.1,6.1,9.1,6.1,14.8s-2.1,10.7-6.2,14.8C123.6,137.9,118.6,140,112.9,140z M112.9,39.3
		c2.4,0,4.3-0.8,5.9-2.4c1.6-1.6,2.4-3.6,2.4-5.9s-0.8-4.3-2.4-5.9c-1.6-1.6-3.6-2.4-5.9-2.4s-4.3,0.8-5.9,2.4
		c-1.6,1.6-2.4,3.6-2.4,5.9s0.8,4.3,2.4,5.9C108.6,38.6,110.5,39.3,112.9,39.3z M37.1,83.3c2.4,0,4.3-0.8,5.9-2.4s2.4-3.6,2.4-5.9
		c0-2.4-0.8-4.3-2.4-5.9c-1.6-1.6-3.6-2.4-5.9-2.4c-2.4,0-4.3,0.8-5.9,2.4c-1.6,1.6-2.4,3.6-2.4,5.9c0,2.4,0.8,4.3,2.4,5.9
		C32.8,82.5,34.8,83.3,37.1,83.3z M112.9,127.2c2.4,0,4.3-0.8,5.9-2.4c1.6-1.6,2.4-3.6,2.4-5.9c0-2.4-0.8-4.3-2.4-5.9
		c-1.6-1.6-3.6-2.4-5.9-2.4s-4.3,0.8-5.9,2.4c-1.6,1.6-2.4,3.6-2.4,5.9c0,2.4,0.8,4.3,2.4,5.9C108.6,126.5,110.5,127.2,112.9,127.2z
		"/>
</g>
</svg>
