<?xml version="1.0" encoding="UTF-8"?>
<svg id="Layer_1" data-name="Layer 1" xmlns="http://www.w3.org/2000/svg" viewBox="0 0 150 150">
  <path d="m91.4536826,139.7234075c-1.1193001,0-2.1826298-.2238562-3.1900019-.6715814-1.0073656-.4477124-1.95878-1.0633297-2.8542112-1.8468391l-41.6378813-44.4920957c-1.0073656-1.007372-1.8468391-2.3785104-2.5184205-4.1134214-.6715782-1.7349111-1.007372-3.3858696-1.0073688-4.952895-.0000032-2.6863127.9514048-4.980877,2.8542112-6.8836802s4.1973675-2.8542112,6.8836802-2.8542112h15.7821044c5.036841,0,9.5420172-1.3991268,13.5155221-4.1973675,3.9735113-2.7982471,6.4079794-6.9956147,7.3034169-12.5921026h-46.8426177c-2.2385971,0-4.1134182-.755521-5.6244731-2.2665759-1.5110517-1.5110485-2.2665823-3.385876-2.2665791-5.6244763-.0000032-2.2385971.7555274-4.1134182,2.2665791-5.6244731,1.5110549-1.5110517,3.385876-2.2665759,5.6244731-2.2665791h46.8426241c-1.1192937-4.477191-3.8056128-8.1149084-8.0589444-10.9131555-4.2533316-2.7982439-8.7864898-4.1973643-13.5994746-4.1973643h-25.1842051c-2.2385971,0-4.1134182-.7555274-5.6244731-2.2665791-1.5110517-1.5110517-2.2665823-3.385876-2.2665791-5.6244715-.0000032-2.2385971.7555274-4.1414035,2.2665791-5.7084208,1.5110549-1.5670173,3.385876-2.3505268,5.6244731-2.3505252h70.5157743c2.2386003,0,4.1134279.7835079,5.6244699,2.3505252,1.5110549,1.5670173,2.2665759,3.4698237,2.2665759,5.7084192,0,2.2385971-.755521,4.1134214-2.2665759,5.6244731-1.5110421,1.5110517-3.3858696,2.2665791-5.6244699,2.2665791h-16.4536794c2.0147313,1.4550844,3.8895589,3.7496487,5.6244699,6.8836834,1.7349111,3.1340378,2.9381509,5.8763145,3.6097322,8.2268397h7.2194773c2.2386003,0,4.1134279.7555274,5.6244699,2.2665791,1.5110549,1.5110517,2.2665759,3.3858792,2.2665759,5.6244699,0,2.2385939-.755521,4.1134214-2.2665759,5.6244699-1.5110421,1.5110485-3.3858696,2.2665759-5.6244699,2.2665759h-7.3873694c-1.2312218,9.9617475-5.0928051,17.7688601-11.5847369,23.421312-6.4919254,5.6524583-14.103151,8.6465732-22.8336767,8.9823639h-5.8763145l34.7542043,36.7689356c2.4624565,2.6863255,2.9941213,5.5964815,1.5950009,8.7305193s-3.8895589,4.7010567-7.4713155,4.7010696Z"/>
</svg>