<?xml version="1.0" encoding="UTF-8"?>
<svg id="Layer_1" data-name="Layer 1" xmlns="http://www.w3.org/2000/svg" viewBox="0 0 150 150">
  <path d="m64.5272785,79.2728707l9.8862516,9.8862516c.8936714.8936714,2.0386906,1.3405071,3.4350514,1.3405071s2.5972336-.4468357,3.6026187-1.3405071l21.9508216-21.9508216v8.0430488c0,1.3405135.4747625,2.4855199,1.4242876,3.4350514.949525.9495186,2.150398,1.4242876,3.6026187,1.4242876,1.3405007,0,2.5134532-.4747689,3.5188319-1.4242876,1.0053915-.9495314,1.5080744-2.150398,1.5080744-3.6026187v-20.1076252c0-1.3405071-.502683-2.5134532-1.5080744-3.5188319-1.0053787-1.0053851-2.1783312-1.5080744-3.5188319-1.5080744h-20.2751862c-1.3405071,0-2.4855263.5026894-3.4350514,1.5080744s-1.4242876,2.1783248-1.4242876,3.5188319c0,1.4522144.4747625,2.6530873,1.4242876,3.6026187.949525.949525,2.150398,1.4242876,3.6026187,1.4242876h7.8754878l-18.2644352,18.4319898-9.8862516-9.8862516c-1.0053787-1.0053787-2.206258-1.5080744-3.6026187-1.5080744-1.3963671,0-2.54138.5026957-3.4350514,1.5080744l-20.4427536,20.4427536c-1.0053819,1.0053787-1.5080713,2.206258-1.5080713,3.6026187,0,1.3963671.5026894,2.5413736,1.5080713,3.4350514,1.0053819,1.0053851,2.2062548,1.5080808,3.6026155,1.5080744,1.3963639.0000064,2.54138-.5026894,3.4350514-1.5080744l16.9239249-16.7563543Zm-38.3720508,60.3228756c-4.3566496,0-8.0709772-1.5359949-11.142975-4.6079974s-4.6079974-6.7863158-4.6079974-11.1429782V26.3227903c0-4.3566496,1.5359997-8.0989041,4.6079974-11.2267571s6.7863254-4.6917795,11.142975-4.6917795h97.5219803c4.3566624,0,8.0988961,1.5639265,11.2267523,4.6917795s4.6917843,6.8701075,4.6917843,11.2267571v97.5219803c0,4.3566624-1.5639281,8.0709756-4.6917843,11.1429782s-6.8701155,4.6079974-11.2267523,4.6079974H26.1552278Zm0-15.7509756h97.5219803V26.3227903H26.1552278v97.5219803Zm0-97.5219835v97.5219835V26.3227871Z"/>
</svg>