<?xml version="1.0" encoding="UTF-8"?>
<svg id="Layer_1" data-name="Layer 1" xmlns="http://www.w3.org/2000/svg" viewBox="0 0 150 150">
  <path d="m27.0701458,24.4167426v42.0593751-.2972405,56.6241012V24.4167426v27.6432637-27.6432637Zm18.726082,58.4075358h22.8874352c1.2880347-2.0806723,2.7742316-3.9879633,4.4585908-5.721856,1.6843592-1.7338983,3.5668749-3.3439488,5.6475472-4.8301401h-33.1421935c-1.4861969-.0000057-2.7246953.4953971-3.7154924,1.4861969-.9907999.9907942-1.4861969,2.2292897-1.4861969,3.7154924,0,1.4861913.5201695,2.7494621,1.5605057,3.7898011,1.040339,1.0403333,2.3036041,1.5605057,3.7898039,1.5605057Zm0,25.265348h17.2398822c-.1981622-1.7834431-.2972405-3.5668749-.2972405-5.3503067s.1486231-3.5173244.4458579-5.2016893h-17.5371228c-1.4861941,0-2.7246925.4953914-3.7154924,1.4861969-.990797.9907942-1.4861941,2.2292954-1.4861969,3.7154924.0000028,1.4861969.5201695,2.7494734,1.5605057,3.7898067,1.0403362,1.0403447,2.3036013,1.5605113,3.7898067,1.5605Zm-18.726082,28.6836055c-3.8641098,0-7.1585152-1.3623434-9.8832091-4.0870416s-4.0870416-6.0190908-4.0870416-9.8832119V24.4167426c0-3.8641112,1.3623477-7.1832847,4.0870416-9.9575192,2.7246939-2.7742338,6.0190993-4.161351,9.8832091-4.161351h48.0041629c1.9815997,0,3.8393459.3963188,5.5732385,1.1889578,1.7338983.7926383,3.2448592,1.8329766,4.5328995,3.1210134l26.3056813,26.3056856c1.2880404,1.2880375,2.3283737,2.7990012,3.1210113,4.5328995.792649,1.7338955,1.1889621,3.5916417,1.1889621,5.5732385v18.8747023c-2.2788459-1.0898781-4.6072082-1.907291-6.9851211-2.4522272-2.3779242-.5449362-4.7558257-.866952-7.1337499-.9660303v-14.4161115h-21.1039977c-1.981594,0-3.6411836-.6687841-4.9787575-2.0063636-1.3375795-1.3375738-2.0063636-2.9971635-2.0063636-4.9787575v-20.6581369H27.0701458v98.3862358h43.0997141c1.8825157,3.1705505,4.235659,5.9200239,7.0594355,8.2483976,2.8237708,2.3283737,6.0190965,4.235659,9.5859657,5.721856H27.0701458Zm72.3777893-20.0636587c3.9631881,0,7.257592-1.3128043,9.8832119-3.9384242,2.6256199-2.6256085,3.9384242-5.8704734,3.9384242-9.7345832,0-3.9631881-1.2880404-7.2823616-3.8641098-9.9575206-2.5760694-2.6751534-5.8457095-4.0127272-9.8088975-4.0127329-3.9631994.0000057-7.2575977,1.3128099-9.8832119,3.9384242s-3.9384185,5.9200125-3.9384242,9.8832006c.0000057,3.9631881,1.3128099,7.2576034,3.9384242,9.8832119,2.6256142,2.6256199,5.8704734,3.9384242,9.7345832,3.9384242Zm35.3714804,21.4012382c-1.4861969,1.3871187-3.1457865,2.0806893-4.9787575,2.080678-1.8329823.0000113-3.4430214-.6935593-4.8301401-2.080678l-11.4437119-11.2950945c-2.1797563,1.1889507-4.4090517,2.1302171-6.6878862,2.8237765-2.2788459.6935707-4.7062979,1.0403333-7.2823673,1.0403333-7.7282196,0-14.3170275-2.6999229-19.7664182-8.0997688-5.449385-5.3998459-8.1740832-11.9638899-8.1740832-19.6921095,0-7.7282309,2.7246982-14.2922693,8.1740832-19.6921095,5.4493907-5.3998515,12.0381986-8.0997745,19.7664182-8.0997745,7.7282309,0,14.2922636,2.6999229,19.6921095,8.0997745s8.0997688,11.9638786,8.0997801,19.6920981c0,2.5760694-.3715492,5.0282966-1.1146477,7.3566703s-1.7091287,4.5328939-2.8980795,6.6135719l11.4437119,11.4437119c1.3871187,1.3871073,2.0806893,3.021933,2.080678,4.9044544.0000113,1.8825214-.6935593,3.5173244-2.0806893,4.9044658Z"/>
</svg>