<?xml version="1.0" encoding="utf-8"?>
<!-- Generator: Adobe Illustrator 27.3.1, SVG Export Plug-In . SVG Version: 6.00 Build 0)  -->
<svg version="1.1" id="Layer_1" xmlns="http://www.w3.org/2000/svg" xmlns:xlink="http://www.w3.org/1999/xlink" x="0px" y="0px"
	 viewBox="0 0 150 150" enable-background="new 0 0 150 150" xml:space="preserve">
<g>
	<g>
		<rect x="0" fill="none" width="150" height="150"/>
	</g>
	<g>
		<rect x="10" y="10" fill="none" width="130" height="130"/>
	</g>
</g>
<path id="devices_FILL0_wght600_GRAD0_opsz48" d="M24.2,111.7V33.6c0-3.4,1.3-6.6,3.7-9c2.3-2.4,5.5-3.8,8.9-3.7h90.4
	c1.7,0,3.3,0.7,4.5,1.9c1.2,1.2,1.9,2.8,1.8,4.5c0,1.7-0.6,3.3-1.8,4.5c-1.2,1.2-2.8,1.8-4.5,1.8H36.9v78.1h25.5
	c4.8,0,8.7,3.9,8.7,8.7c0,4.8-3.9,8.7-8.7,8.7H19.2c-2.4,0-4.6-0.9-6.3-2.5c-1.7-1.6-2.7-3.8-3-6.2c0-2.3,0.9-4.5,2.5-6.2
	c1.6-1.6,3.8-2.6,6.2-2.5L24.2,111.7z M86.3,129.1c-1.8,0-3.5-0.7-4.8-2c-1.4-1.5-2.1-3.5-1.9-5.5V48.8c-0.1-3.6,2.8-6.6,6.4-6.6
	c0.1,0,0.3,0,0.4,0h45.3c2.2-0.1,4.3,0.6,6,1.9c1.5,1.1,2.4,2.9,2.4,4.7v72.8c0.1,2.1-0.8,4.1-2.4,5.5c-1.7,1.4-3.7,2.1-5.9,2
	L86.3,129.1z M90.2,111.7h39.2v-59H90.2L90.2,111.7z"/>
</svg>
