<?xml version="1.0" encoding="UTF-8"?>
<svg id="Layer_1" data-name="Layer 1" xmlns="http://www.w3.org/2000/svg" viewBox="0 0 150 150">
  <defs>
    <style>
      .cls-1 {
        fill: none;
      }
    </style>
  </defs>
  <g>
    <rect class="cls-1" x="0" width="150" height="150"/>
    <rect class="cls-1" x="10" y="10" width="130" height="130"/>
  </g>
  <g>
    <rect class="cls-1" x="0" width="150" height="150"/>
    <rect class="cls-1" x="10" y="10" width="130" height="130"/>
  </g>
  <path d="m66.3074527,84.6326995l.1541208,3.3907101c.2055003,1.0274895.616489,1.8494788,1.2329839,2.4659678.616489.616489,1.4384841.9247306,2.4659678.9247364h2.6200944c.9247364-.0000059,1.6953521-.3082474,2.311847-.9247364.616489-.616489,1.0274836-1.4384783,1.2329839-2.4659678l.1541208-3.3907101c1.2329898-.2055003,2.3889133-.6421758,3.4677705-1.3100443,1.0788631-.6678685,2.0292863-1.4127973,2.8512756-2.2347866l3.3907101,1.0788631c.8219893.3082474,1.6439844.2825606,2.4659678-.0770604s1.4898519-.8990496,2.0035995-1.6182917l1.2329839-1.8494788c.5137477-.8219834.6935553-1.6439785.5394286-2.4659678s-.6421817-1.5926049-1.4641709-2.311847l-2.0035995-1.6953521c.5137418-1.4384841.7706157-2.9283477.7706157-4.4695732,0-1.5412313-.2568738-3.0310891-.7706157-4.4695732l2.0035995-1.8494788c.8219893-.6164949,1.3100443-1.3357311,1.4641709-2.1577262.1541267-.8219893-.0256809-1.6439785-.5394286-2.4659678l-1.2329839-1.8494788c-.5137477-.7192421-1.1816162-1.2586766-2.0035995-1.6182917-.8219834-.359621-1.6439785-.3853078-2.4659678-.0770604l-3.3907101,1.0788631c-.8219893-.8219893-1.7980993-1.5412313-2.9283419-2.1577262-1.1302367-.6164949-2.2604734-1.0788572-3.3907101-1.3871105l-.1541208-3.5448309c-.2055003-.9247364-.616489-1.6953521-1.2329839-2.311847-.616489-.6164949-1.3871047-.9247394-2.311847-.9247394h-2.6200944c-1.0274895,0-1.8494729.3082445-2.4659678.9247394-.616489.6164949-1.0274836,1.3871105-1.2329839,2.311847l-.1541208,3.5448309c-1.1302308.3082416-2.2604675.7706157-3.3907101,1.3871105-1.1302367.616489-2.1063467,1.335737-2.9283419,2.1577262l-3.3907101-1.0788631c-.8219893-.3082474-1.6439785-.2825606-2.4659678.0770604-.8219893.3596152-1.4898577.8990496-2.0035995,1.6182917l-1.0788631,1.8494788c-.6164949.8219893-.8476761,1.6439785-.6935553,2.4659678.1541267.8219893.6421817,1.5412313,1.4641709,2.1577262l2.0035995,1.8494788c-.5137418,1.4384841-.7706157,2.9283419-.7706157,4.4695732,0,1.5412254.2568738,3.0310891.7706157,4.4695732l-2.0035995,1.6953521c-.8219893.7192421-1.3100443,1.4898577-1.4641709,2.311847s.0770604,1.6439844.6935553,2.4659678l1.0788631,1.8494788c.5137418.7192421,1.1816103,1.2586707,2.0035995,1.6182917s1.6439785.3853078,2.4659678.0770604l3.3907101-1.0788631c.8219893.8219893,1.7724125,1.5669181,2.8512756,2.2347866,1.0788572.6678685,2.2347807,1.1045499,3.4677822,1.3100443Zm5.0860622-6.1649253c-2.9797155,0-5.5227495-1.0531763-7.6290962-3.159523s-3.1595172-4.6493867-3.1595172-7.6290962c0-2.9797155,1.0531704-5.5227495,3.159523-7.6290962,2.1063467-2.1063467,4.6493749-3.159523,7.6290962-3.159523,2.9797096,0,5.5227495,1.0531763,7.6290962,3.159523,2.1063526,2.1063467,3.1595289,4.6493808,3.159523,7.6290962.0000059,2.9797155-1.0531704,5.5227495-3.159523,7.6290962s-4.6493867,3.159523-7.6291021,3.159523Zm-40.2261352,33.2906001c-5.8566808-5.6511776-10.4033129-12.2014166-13.6398978-19.6506994-3.2365849-7.4492945-4.8548766-15.1811321-4.8548766-23.1955361,0-16.4398028,5.7282439-30.3879451,17.1847302-41.8444299,11.4564819-11.4564863,25.3532506-17.1847309,41.6903062-17.1847302,13.5628345-.0000007,25.6101303,4.0585756,36.1418699,12.1757283,10.5317513,8.1171513,17.4415996,18.5975231,20.7295684,31.4411184l8.6308931,34.523584c.6164949,2.3632206.2054944,4.4438864-1.2329898,6.2419857-1.4384841,1.7981052-3.3393424,2.6971548-5.7025512,2.6971548h-11.8674765v16.3370556c0,4.1099463-1.4127915,7.5520358-4.2383861,10.3262452s-6.2933652,4.1613199-10.4033114,4.1613199h-10.0180036v5.0860681c0,2.054979-.7449289,3.7760238-2.2347866,5.1631226-1.4898577,1.3871105-3.2109025,2.0806482-5.1631226,2.0806599-2.0549731-.0000118-3.7760179-.6935494-5.1631226-2.0806599-1.3871105-1.3870988-2.0806658-3.1081436-2.0806717-5.1631226v-12.3298506c0-2.054979.6935553-3.7760238,2.0806599-5.1631226,1.3871105-1.3871105,3.1081436-2.0806599,5.1631226-2.0806599h17.4159128v-23.5808381c0-2.0549731.6935494-3.7760179,2.0806599-5.1631226,1.3871105-1.3871105,3.1081436-2.0806599,5.1631226-2.0806599h9.8638828l-6.3190461-25.4303169c-2.4659795-9.4528882-7.7061566-17.2361023-15.7205548-23.349654-8.0144041-6.1135576-17.0562859-9.1703378-27.125669-9.1703378-12.3298506,0-22.8102224,4.2897583-31.4411184,12.8692807-8.630896,8.5795224-12.9463425,18.9828309-12.9463425,31.2099343,0,6.2676725,1.3100472,12.3041579,3.9301387,18.1094681,2.6200915,5.8053043,6.2933622,10.8656855,11.0198034,15.1811321l3.5448309,3.3907042v27.5880431c0,2.054979-.6935523,3.7760238-2.0806629,5.1631226-1.3871105,1.3871105-3.1081524,2.0806482-5.1631255,2.0806599-2.0549761-.0000118-3.7760179-.6935494-5.1631255-2.0806599-1.3871076-1.3870988-2.0806629-3.1081436-2.0806599-5.1631226v-21.1148644Z"/>
</svg>