<?xml version="1.0" encoding="utf-8"?>
<!-- Generator: Adobe Illustrator 27.4.0, SVG Export Plug-In . SVG Version: 6.00 Build 0)  -->
<svg version="1.1" id="Layer_1" xmlns="http://www.w3.org/2000/svg" xmlns:xlink="http://www.w3.org/1999/xlink" x="0px" y="0px"
	 viewBox="0 0 150 150" style="enable-background:new 0 0 150 150;" xml:space="preserve">
<style type="text/css">
	.st0{clip-path:url(#SVGID_00000145752097968565031320000011916455288478557852_);}
	.st1{clip-path:url(#SVGID_00000176028819069746066950000011329909446852159104_);}
	.st2{clip-path:url(#SVGID_00000136385715217566511490000014658381902806654340_);}
	.st3{clip-path:url(#SVGID_00000087385378334783148090000015951251555247067309_);}
	.st4{clip-path:url(#SVGID_00000050624878164409296130000002346079813059251357_);}
	.st5{clip-path:url(#SVGID_00000035512449674277083840000010401674472233585553_);}
	.st6{clip-path:url(#SVGID_00000142866497758233826340000013267027427827140242_);}
	.st7{clip-path:url(#SVGID_00000150098772938353161660000009920147522811802290_);}
	.st8{clip-path:url(#SVGID_00000004542534673723097710000010638079724991400613_);}
	.st9{clip-path:url(#SVGID_00000044869891145424727660000010578590135546817189_);}
	.st10{fill:#FEE8DA;}
	.st11{clip-path:url(#SVGID_00000157307786238137602910000005854227616248570536_);}
	.st12{fill:url(#Path_4160_00000094605254110424788880000000249596071851578252_);}
	.st13{fill:url(#Path_4161_00000096039180741087393080000012181068008256934056_);}
	.st14{fill:url(#Path_4162_00000137825727486152758490000000751008749723891087_);}
	.st15{fill:url(#Path_4163_00000173883485104084764270000016323101458555088270_);}
	.st16{fill:url(#Path_4164_00000021109902402895759440000009918598527835246000_);}
	.st17{fill:url(#Path_4165_00000148628191937668668710000000240589093559486090_);}
	.st18{fill:url(#Path_4166_00000118375804937925739680000011269026249584244905_);}
	.st19{fill:url(#Path_4167_00000122000096189785003540000012638239938322371473_);}
	.st20{fill:url(#SVGID_00000155863649008355314340000002241686572716005280_);}
	.st21{fill:url(#SVGID_00000096778217494297750800000011306105624340095143_);}
	.st22{fill:url(#SVGID_00000020359879999850774030000006647431312646860696_);}
	.st23{fill:url(#SVGID_00000102510946340753968000000001019648675488498859_);}
	.st24{fill:url(#SVGID_00000106109490666436032760000017906676278731535015_);}
	.st25{fill:url(#SVGID_00000168806833374140388440000017893966676014449554_);}
	.st26{fill:url(#SVGID_00000124848892433873181090000012770076150228765877_);}
	.st27{fill:url(#SVGID_00000101101882048597971000000013398275020275717560_);}
	.st28{fill:url(#SVGID_00000183235607258351243680000004563807366232215713_);}
	.st29{fill:url(#SVGID_00000048477356771417786060000001926337006132352129_);}
	.st30{fill:url(#SVGID_00000178188298185093545990000001361249775785575055_);}
	.st31{fill:url(#SVGID_00000119829559935090843950000007512135986717376698_);}
	.st32{fill:url(#SVGID_00000077306366071238664100000008749275362613541025_);}
	.st33{fill:url(#SVGID_00000003098646616676670830000015846574259517640620_);}
	.st34{fill:url(#SVGID_00000094576549410279766650000000565591128287148960_);}
	.st35{fill:url(#SVGID_00000111905685291962469900000009128770094804347044_);}
	.st36{fill:url(#SVGID_00000173846051552171584930000006003517301141723314_);}
	.st37{fill:url(#SVGID_00000070114891361348864890000000193106672227310002_);}
	.st38{fill:url(#SVGID_00000155110151054192118050000006152554347886045577_);}
	.st39{fill:url(#SVGID_00000097494722534128213560000003308621573959814548_);}
	.st40{fill:url(#SVGID_00000095313766836178520690000006847858369859998636_);}
	.st41{fill:url(#SVGID_00000043459080994716896150000009576041523559404983_);}
	.st42{fill:url(#SVGID_00000140713495931550119020000013007205690964636087_);stroke:#FEE8DA;stroke-miterlimit:10;}
	.st43{fill:url(#SVGID_00000108299048276689583480000017156396259064049577_);stroke:#FEE8DA;stroke-miterlimit:10;}
	.st44{fill:url(#SVGID_00000132088109268054576860000013150220692492951188_);stroke:#FEE8DA;stroke-miterlimit:10;}
	.st45{fill:url(#SVGID_00000001640801470584126650000001316967500266075526_);stroke:#FEE8DA;stroke-miterlimit:10;}
	.st46{fill:url(#SVGID_00000095300145925066563600000013019109745826506123_);stroke:#FEE8DA;stroke-miterlimit:10;}
	.st47{fill:url(#SVGID_00000078748715096059048290000002733878821501287093_);}
	.st48{fill:url(#SVGID_00000072251751733354762820000007242329074221283467_);}
	.st49{fill:url(#SVGID_00000101825629867189903610000003409907183117098118_);}
	.st50{fill:url(#SVGID_00000060743876626642610100000001131978123264832135_);}
	.st51{fill:url(#SVGID_00000125566620057514308050000012429530509489556881_);}
	.st52{fill:url(#SVGID_00000174602182683088462180000005848021248800751804_);stroke:#FEE8DA;stroke-miterlimit:10;}
	.st53{fill:url(#SVGID_00000051372920775229203150000010615335158904046011_);}
	.st54{fill:url(#SVGID_00000029005650545643456660000009279401821236516234_);}
	.st55{fill:url(#SVGID_00000182493461710596456500000003841356733725330817_);}
	.st56{fill:url(#SVGID_00000152242061234795034140000012411875139427192763_);}
	.st57{fill:url(#SVGID_00000083767877051441476290000010463909520732618132_);}
	.st58{fill:url(#SVGID_00000061430778351649517800000016119548628958662817_);}
	.st59{fill:url(#SVGID_00000080194581389602002340000005678029614622456201_);}
	.st60{fill:url(#SVGID_00000145046817001565772180000017173879514407448211_);}
	.st61{fill:url(#SVGID_00000065782228862082100530000013413999893935908529_);}
	.st62{fill:url(#SVGID_00000013914259642425485200000009093115659301863100_);}
	.st63{fill:url(#SVGID_00000137091122387218347180000000660561229789565110_);}
	.st64{fill:url(#SVGID_00000103985618297709588900000006351164689088924075_);}
</style>
<ellipse id="Ellipse_113_00000155107620414890870980000010360347720255587981_" class="st10" cx="75" cy="75" rx="70" ry="70"/>
<g>
	
		<linearGradient id="SVGID_00000175282860318354831850000015778894364314838666_" gradientUnits="userSpaceOnUse" x1="61.8711" y1="51.0279" x2="88.1138" y2="51.0279">
		<stop  offset="0" style="stop-color:#FF6600"/>
		<stop  offset="0" style="stop-color:#FF5204"/>
		<stop  offset="1" style="stop-color:#FF270D"/>
	</linearGradient>
	<path style="fill:url(#SVGID_00000175282860318354831850000015778894364314838666_);" d="M87.3,39.9c0.4,0,0.8,0.4,0.8,0.8
		c0,5.6,0,11.3,0,16.9c0,1.2,0,2.4,0,3.7c0,0.4-0.4,0.8-0.8,0.8c-3.9,0-20.8,0-24.6,0c-0.4,0-0.8-0.4-0.8-0.8v0c0-6.9,0-13.7,0-20.6
		c0,0,0,0,0,0c0-0.4,0.4-0.8,0.8-0.8H87.3z"/>
	
		<linearGradient id="SVGID_00000063634715734743376810000005069276925117678005_" gradientUnits="userSpaceOnUse" x1="40" y1="69.9291" x2="110" y2="69.9291">
		<stop  offset="0" style="stop-color:#FF6600"/>
		<stop  offset="0" style="stop-color:#FF5204"/>
		<stop  offset="1" style="stop-color:#FF270D"/>
	</linearGradient>
	<path style="fill:url(#SVGID_00000063634715734743376810000005069276925117678005_);" d="M109.3,75h-2.7c-0.4,0-0.7-0.3-0.7-0.7
		v-1.6c0-0.4-0.3-0.7-0.7-0.7H102c-0.4,0-0.7,0.3-0.7,0.7v0c0,0.4-0.3,0.7-0.7,0.7H49.4c-0.4,0-0.7-0.3-0.7-0.7v0
		c0-0.4-0.3-0.7-0.7-0.7h-3.2c-0.4,0-0.7,0.3-0.7,0.7v1.5c0,0.4-0.3,0.7-0.7,0.7h-2.7c-0.4,0-0.7-0.3-0.7-0.7v-8.6
		c0-0.4,0.3-0.7,0.7-0.7h2.6c0.4,0,0.7,0.3,0.7,0.7v1.5c0,0.4,0.3,0.7,0.7,0.7H48c0.4,0,0.7-0.3,0.7-0.7v0c0-0.4,0.3-0.7,0.7-0.7
		h51.1c0.4,0,0.7,0.3,0.7,0.7v0c0,0.4,0.3,0.7,0.7,0.7h3.2c0.4,0,0.7-0.3,0.7-0.7v-1.5c0-0.4,0.3-0.7,0.7-0.7h2.7
		c0.4,0,0.7,0.3,0.7,0.7v8.7C110,74.7,109.7,75,109.3,75z"/>
	
		<linearGradient id="SVGID_00000167396154759641883270000004918052981965066686_" gradientUnits="userSpaceOnUse" x1="43.1131" y1="107.506" x2="106.854" y2="107.506">
		<stop  offset="0" style="stop-color:#FF6600"/>
		<stop  offset="0" style="stop-color:#FF5204"/>
		<stop  offset="1" style="stop-color:#FF270D"/>
	</linearGradient>
	<path style="fill:url(#SVGID_00000167396154759641883270000004918052981965066686_);" d="M43.1,109.4v-3.7c0-0.4,0.3-0.7,0.7-0.7
		h62.3c0.4,0,0.7,0.3,0.7,0.7v3.7c0,0.4-0.3,0.7-0.7,0.7H43.8C43.4,110.1,43.1,109.8,43.1,109.4z"/>
	
		<linearGradient id="SVGID_00000171679996108432490450000011189876815060440205_" gradientUnits="userSpaceOnUse" x1="52.6879" y1="42.2261" x2="57.7489" y2="42.2261">
		<stop  offset="0" style="stop-color:#FF6600"/>
		<stop  offset="0" style="stop-color:#FF5204"/>
		<stop  offset="1" style="stop-color:#FF270D"/>
	</linearGradient>
	<path style="fill:url(#SVGID_00000171679996108432490450000011189876815060440205_);" d="M57.7,40.6v3.2c0,0.4-0.3,0.7-0.7,0.7
		h-3.6c-0.4,0-0.7-0.3-0.7-0.7v-3.2c0-0.4,0.3-0.7,0.7-0.7H57C57.4,39.9,57.7,40.2,57.7,40.6z"/>
	
		<linearGradient id="SVGID_00000048464658125237762650000016236216728730424469_" gradientUnits="userSpaceOnUse" x1="92.2182" y1="42.2257" x2="97.2792" y2="42.2257">
		<stop  offset="0" style="stop-color:#FF6600"/>
		<stop  offset="0" style="stop-color:#FF5204"/>
		<stop  offset="1" style="stop-color:#FF270D"/>
	</linearGradient>
	<path style="fill:url(#SVGID_00000048464658125237762650000016236216728730424469_);" d="M97.3,40.6v3.2c0,0.4-0.3,0.7-0.7,0.7
		h-3.6c-0.4,0-0.7-0.3-0.7-0.7v-3.2c0-0.4,0.3-0.7,0.7-0.7h3.6C97,39.9,97.3,40.2,97.3,40.6z"/>
	
		<linearGradient id="SVGID_00000022523304959248581290000003225521731140318342_" gradientUnits="userSpaceOnUse" x1="43.7205" y1="89.168" x2="106.2467" y2="89.168">
		<stop  offset="0" style="stop-color:#FF6600"/>
		<stop  offset="0" style="stop-color:#FF5204"/>
		<stop  offset="1" style="stop-color:#FF270D"/>
	</linearGradient>
	<path style="fill:url(#SVGID_00000022523304959248581290000003225521731140318342_);" d="M101.7,78.2c1.5,7.2,3,14.3,4.5,21.5
		c0.1,0.5-0.3,1-0.8,1c-7.3,0-53.6,0-60.9,0c-0.5,0-0.9-0.5-0.8-1c1.5-7.2,3-14.3,4.5-21.5c0.1-0.4,0.4-0.6,0.8-0.6l52,0
		C101.3,77.6,101.7,77.9,101.7,78.2z M58.8,95.2v-2.4c0-0.4-0.4-0.8-0.8-0.8h-2.4c-0.4,0-0.8,0.4-0.8,0.8v2.4c0,0.4,0.4,0.8,0.8,0.8
		H58C58.4,96,58.8,95.6,58.8,95.2z M73,92.8v2.4c0,0.4,0.4,0.8,0.8,0.8h2.4c0.4,0,0.8-0.4,0.8-0.8v-2.4c0-0.4-0.4-0.8-0.8-0.8h-2.4
		C73.3,92,73,92.3,73,92.8z M91.2,92.7v2.4c0,0.4,0.4,0.8,0.8,0.8h2.4c0.4,0,0.8-0.4,0.8-0.8v-2.4c0-0.4-0.4-0.8-0.8-0.8H92
		C91.5,92,91.2,92.3,91.2,92.7z M62.6,82.4h-2.4c-0.4,0-0.8,0.4-0.8,0.8v2.4c0,0.4,0.4,0.8,0.8,0.8h2.4c0.4,0,0.8-0.4,0.8-0.8v-2.4
		C63.4,82.7,63.1,82.4,62.6,82.4z M72.5,85.6v-2.4c0-0.4-0.4-0.8-0.8-0.8h-2.4c-0.4,0-0.8,0.4-0.8,0.8v2.4c0,0.4,0.4,0.8,0.8,0.8
		h2.4C72.1,86.4,72.5,86,72.5,85.6z M78.4,86.4h2.4c0.4,0,0.8-0.4,0.8-0.8v-2.4c0-0.4-0.4-0.8-0.8-0.8h-2.4c-0.4,0-0.8,0.4-0.8,0.8
		v2.4C77.6,86,78,86.4,78.4,86.4z M89.9,82.4h-2.4c-0.4,0-0.8,0.4-0.8,0.8v2.4c0,0.4,0.4,0.8,0.8,0.8h2.4c0.4,0,0.8-0.4,0.8-0.8
		v-2.4C90.7,82.7,90.4,82.4,89.9,82.4z M64.7,96h2.4c0.4,0,0.8-0.4,0.8-0.8v-2.4c0-0.4-0.4-0.8-0.8-0.8h-2.4c-0.4,0-0.8,0.4-0.8,0.8
		v2.4C63.9,95.6,64.2,96,64.7,96z M86.1,95.2l0-2.5c0-0.4-0.4-0.8-0.8-0.8c-1,0-1.9,0-2.8,0c-0.1,0-0.4,0.2-0.4,0.3c0,1,0,2,0,3
		c0,0.4,0.4,0.8,0.8,0.8h2.4C85.7,96,86.1,95.6,86.1,95.2z"/>
	
		<linearGradient id="SVGID_00000085233020065911370200000010218032139240447620_" gradientUnits="userSpaceOnUse" x1="52.682" y1="59.8375" x2="57.7434" y2="59.8375">
		<stop  offset="0" style="stop-color:#FF6600"/>
		<stop  offset="0" style="stop-color:#FF5204"/>
		<stop  offset="1" style="stop-color:#FF270D"/>
	</linearGradient>
	<path style="fill:url(#SVGID_00000085233020065911370200000010218032139240447620_);" d="M57.7,58.2v3.2c0,0.4-0.3,0.7-0.7,0.7
		h-3.6c-0.4,0-0.7-0.3-0.7-0.7v-3.2c0-0.4,0.3-0.7,0.7-0.7H57C57.4,57.5,57.7,57.9,57.7,58.2z"/>
	
		<linearGradient id="SVGID_00000115503884908008719960000010783188423897275527_" gradientUnits="userSpaceOnUse" x1="92.2391" y1="59.8368" x2="97.2742" y2="59.8368">
		<stop  offset="0" style="stop-color:#FF6600"/>
		<stop  offset="0" style="stop-color:#FF5204"/>
		<stop  offset="1" style="stop-color:#FF270D"/>
	</linearGradient>
	<path style="fill:url(#SVGID_00000115503884908008719960000010783188423897275527_);" d="M92.9,57.5h3.6c0.4,0,0.7,0.3,0.7,0.7v3.2
		c0,0.4-0.3,0.7-0.7,0.7h-3.6c-0.4,0-0.7-0.3-0.7-0.7v-3.2C92.2,57.8,92.6,57.5,92.9,57.5z"/>
	
		<linearGradient id="SVGID_00000177462598528354878100000009561949188977660819_" gradientUnits="userSpaceOnUse" x1="52.6825" y1="51.0356" x2="57.7168" y2="51.0356">
		<stop  offset="0" style="stop-color:#FF6600"/>
		<stop  offset="0" style="stop-color:#FF5204"/>
		<stop  offset="1" style="stop-color:#FF270D"/>
	</linearGradient>
	<path style="fill:url(#SVGID_00000177462598528354878100000009561949188977660819_);" d="M53.4,48.7H57c0.4,0,0.7,0.3,0.7,0.7v3.2
		c0,0.4-0.3,0.7-0.7,0.7h-3.6c-0.4,0-0.7-0.3-0.7-0.7v-3.2C52.7,49.1,53,48.7,53.4,48.7z"/>
	
		<linearGradient id="SVGID_00000178918042769747300610000013296090823255942280_" gradientUnits="userSpaceOnUse" x1="92.238" y1="51.0352" x2="97.2707" y2="51.0352">
		<stop  offset="0" style="stop-color:#FF6600"/>
		<stop  offset="0" style="stop-color:#FF5204"/>
		<stop  offset="1" style="stop-color:#FF270D"/>
	</linearGradient>
	<path style="fill:url(#SVGID_00000178918042769747300610000013296090823255942280_);" d="M92.9,48.7h3.6c0.4,0,0.7,0.3,0.7,0.7v3.2
		c0,0.4-0.3,0.7-0.7,0.7h-3.6c-0.4,0-0.7-0.3-0.7-0.7v-3.2C92.2,49.1,92.6,48.7,92.9,48.7z"/>
</g>
</svg>
