<?xml version="1.0" encoding="utf-8"?>
<!-- Generator: Adobe Illustrator 27.3.1, SVG Export Plug-In . SVG Version: 6.00 Build 0)  -->
<svg version="1.1" id="Layer_1" xmlns="http://www.w3.org/2000/svg" xmlns:xlink="http://www.w3.org/1999/xlink" x="0px" y="0px"
	 viewBox="0 0 150 150" enable-background="new 0 0 150 150" xml:space="preserve">
<g>
	<g>
		<rect x="0" fill="none" width="150" height="150"/>
	</g>
	<g>
		<rect x="10" y="10" fill="none" width="130" height="130"/>
	</g>
</g>
<g>
	<path id="captive_portal_FILL0_wght600_GRAD0_opsz48" d="M61.6,126c-2.7-4-5-8.3-6.7-12.8c-1.8-4.9-3.2-9.8-4.3-14.9H27.3
		C33.9,112.3,46.5,122.5,61.6,126L61.6,126z M24.3,89h24.7c-0.3-2.5-0.5-4.8-0.6-6.7c-0.1-2-0.2-4.3-0.2-6.9c0-2.1,0-4.3,0.1-6.5
		c0.1-2.2,0.2-4.7,0.6-7.6H24.3c-0.7,2.3-1.2,4.6-1.5,6.9c-0.3,2.4-0.4,4.8-0.4,7.2c0,2.3,0.1,4.7,0.4,7
		C23.1,84.6,23.6,86.8,24.3,89L24.3,89z M27.3,52.1h23.2c1.1-5.2,2.7-10.4,4.6-15.3c1.7-4.5,4-8.7,6.7-12.7
		c-7.5,2.4-14.6,6-20.9,10.8C35.2,39.6,30.6,45.5,27.3,52.1L27.3,52.1z M60.2,52.1h29.6c-1.4-5.9-3.4-11.7-6.1-17.2
		c-2.3-4.7-5.3-9-8.9-12.8c-3.6,3.9-6.6,8.4-8.9,13.2C63.4,40.6,61.5,46.3,60.2,52.1L60.2,52.1z M99.5,52.1h22.9
		c-3.6-6.6-8.4-12.5-14.3-17.2c-6-4.8-12.8-8.4-20-10.7c2.7,4,5,8.2,6.7,12.7C96.7,41.8,98.3,46.9,99.5,52.1L99.5,52.1z M75,140
		c-8.7,0.1-17.4-1.6-25.5-5C25.4,125,9.8,101.4,10,75.4c-0.2-26.2,15.3-50,39.5-60.2c16.3-6.8,34.6-6.8,50.9,0
		c15.6,6.6,28,19.1,34.5,34.7c3.4,8.1,5.1,16.8,5.1,25.5c0,1.5-0.1,3.1-0.2,4.6c-0.1,1.5-0.3,3-0.5,4.6h-12.8c0.3-1.5,0.5-3,0.7-4.4
		c0.2-1.6,0.2-3.2,0.2-4.8c0-2.4-0.1-4.8-0.4-7.2c-0.3-2.3-0.8-4.7-1.4-6.9h-24.6c0.2,3.1,0.4,5.7,0.5,7.7c0.2,2,0.2,4.1,0.2,6.4
		c0,1.2,0,2.4-0.1,3.7c-0.1,1.3-0.2,3.1-0.3,5.5h-9.6c0.2-2,0.3-3.6,0.4-4.9c0.1-1.3,0.2-2.7,0.2-4.2c0-2.1,0-4.2-0.1-6.2
		c-0.1-2-0.3-4.6-0.7-7.9h-33c-0.4,3.3-0.7,5.9-0.8,7.9c-0.1,2-0.2,4.1-0.2,6.2c0,2.1,0.1,4.1,0.2,5.9c0.1,1.9,0.4,4.4,0.8,7.7h25.9
		v9.2H60.2c1.5,6.4,3.7,12.6,6.5,18.5c2,4.1,4.7,7.9,8.1,11c2-2,3.7-4.2,5.3-6.5c1.6-2.4,3-4.9,4.3-7.5v25.6
		c-1.6,0.3-3.1,0.5-4.7,0.7C78.2,139.9,76.6,140,75,140z M106.3,115.3v8.2c0,1.6-0.6,3.1-1.7,4.1c-1.2,1.1-2.9,1.7-4.5,1.6
		c-3.4,0.1-6.1-2.6-6.2-5.9c0-0.1,0-0.2,0-0.3v-22.8c-0.1-3.4,2.6-6.1,5.9-6.2c0.1,0,0.2,0,0.3,0h22.9c1.7,0,3.3,0.6,4.4,1.8
		c1.2,1.3,1.9,3,1.8,4.7c0.1,1.6-0.5,3.1-1.6,4.2c-1.1,1.1-2.6,1.7-4.1,1.6H115l14.1,14.2c1.2,1.1,1.9,2.7,1.9,4.4
		c0,1.6-0.6,3.2-1.8,4.4c-1.2,1.2-2.7,1.9-4.4,1.9c-1.7,0-3.3-0.6-4.4-1.8L106.3,115.3z"/>
</g>
</svg>
