<?xml version="1.0" encoding="utf-8"?>
<!-- Generator: Adobe Illustrator 27.3.1, SVG Export Plug-In . SVG Version: 6.00 Build 0)  -->
<svg version="1.1" id="Layer_1" xmlns="http://www.w3.org/2000/svg" xmlns:xlink="http://www.w3.org/1999/xlink" x="0px" y="0px"
	 viewBox="0 0 150 150" enable-background="new 0 0 150 150" xml:space="preserve">
<g>
	<g>
		<rect x="0" fill="none" width="150" height="150"/>
	</g>
	<g>
		<rect x="10" y="10" fill="none" width="130" height="130"/>
	</g>
</g>
<path id="mindfulness_FILL0_wght600_GRAD0_opsz48" d="M69.5,45.4c-1.4-0.1-2.8,0.5-3.8,1.5c-1,1-1.5,2.4-1.5,3.8v30.4
	c0,1.4,0.5,2.7,1.5,3.7c1,1,2.4,1.6,3.8,1.5c1.4,0,2.8-0.5,3.8-1.5c1-1,1.5-2.4,1.5-3.8V50.6c0-1.4-0.5-2.8-1.5-3.7
	C72.3,45.9,70.9,45.3,69.5,45.4z M89.5,51.7c-1.4-0.1-2.8,0.5-3.8,1.5c-1,1-1.5,2.4-1.5,3.8v14c-0.1,2.8,2.1,5.1,4.9,5.3
	c0.1,0,0.3,0,0.4,0c1.4,0,2.8-0.5,3.8-1.5c1-1,1.5-2.4,1.5-3.8V57c0-1.4-0.5-2.8-1.5-3.7C92.3,52.2,90.9,51.7,89.5,51.7L89.5,51.7z
	 M49.6,51.7c-1.4-0.1-2.8,0.5-3.8,1.5c-1,1-1.5,2.4-1.5,3.8v11.6c0,1.4,0.5,2.7,1.5,3.7c1,1,2.4,1.6,3.8,1.5c1.4,0,2.8-0.5,3.8-1.5
	c1-1,1.5-2.4,1.5-3.8V57c0-1.4-0.5-2.8-1.5-3.7C52.3,52.2,51,51.7,49.6,51.7L49.6,51.7z M31.8,140v-28.2
	c-5.9-5.6-10.7-12.2-13.9-19.7c-3.3-7.4-5-15.4-5-23.4C12.7,36.5,38.7,10.2,71,10c0.2,0,0.3,0,0.5,0c13-0.2,25.8,4.1,36.1,12.1
	c10.3,7.7,17.5,18.8,20.6,31.3l8.8,34.9c0.6,1.8,0.2,3.9-1,5.4c-1.2,1.5-3,2.4-4.9,2.3h-13.2v19c0.1,3.3-1.3,6.5-3.6,8.9
	c-2.4,2.4-5.6,3.7-8.9,3.6H92.4V140H79.9v-25.1h25.2V83.4h17.7l-6.7-27c-2.4-9.8-8.2-18.4-16.2-24.4c-8.1-6.3-18-9.6-28.2-9.5
	c-12.3-0.2-24.1,4.6-32.7,13.3C30,44.4,25.1,56.1,25.3,68.4c0,6.5,1.4,12.9,4.1,18.8c2.7,6,6.6,11.4,11.5,15.8l3.3,3.2V140H31.8z"/>
</svg>
