<?xml version="1.0" encoding="UTF-8"?>
<svg id="Layer_1" data-name="Layer 1" xmlns="http://www.w3.org/2000/svg" viewBox="0 0 150 150">
  <defs>
    <style>
      .cls-1 {
        fill: none;
      }
    </style>
  </defs>
  <g>
    <rect class="cls-1" x="0" width="150" height="150"/>
    <rect class="cls-1" x="10" y="10" width="130" height="130"/>
  </g>
  <g>
    <rect class="cls-1" x="0" width="150" height="150"/>
    <rect class="cls-1" x="10" y="10" width="130" height="130"/>
  </g>
  <path id="insights_FILL0_wght600_GRAD0_opsz48" data-name="insights FILL0 wght600 GRAD0 opsz48" d="m22.6412119,125.9685999c-6.5454724-.0352621-11.8329368-5.3514586-11.8328551-11.8970398-.0437239-3.1775068,1.2199162-6.2333375,3.4949473-8.4520199,2.1587695-2.2804999,5.1692983-3.5596216,8.3093935-3.5305631.5952928-.0035915,1.1897149.046472,1.7760016.1497551l2.3180748.4421911,25.3561143-25.4060145c-.190214-.9509883-.3233447-1.7070555-.3994194-2.2680929-.0765645-.5769271-.1146834-1.1583164-.1141121-1.7403586-.0438055-3.1896961,1.2494645-6.2521657,3.5662605-8.4449458,2.2280149-2.2638484,5.2830838-3.5208769,8.4591758-3.4807173,3.1648821-.0427716,6.2053673,1.2306907,8.3949911,3.5163059,2.270188,2.2237976,3.5284136,5.2816962,3.4806628,8.459203-.0981951,1.2618171-.2696625,2.5168866-.5135315,3.7587872l13.5161305,13.5517463c.8986937-.1901324,1.6285865-.3233447,2.1896783-.3994194.5317067-.075204,1.0677668-.1156902,1.6047519-.1211318.562942.0023943,1.1251765.0404861,1.6832754.1141665.5896062.0760747,1.3337834.2092871,2.2324771.3994194l19.7285448-19.6501301c-.190214-.8987481-.3233447-1.6428437-.3994194-2.2325043-.0755305-.5890076-.1136495-1.1821509-.1141121-1.7759472-.0521041-3.1645556,1.2230996-6.2064556,3.5163331-8.3878081,2.2324227-2.2591686,5.2905934-3.5086875,8.4663044-3.459277,3.153781-.0587702,6.1898585,1.1970611,8.3807067,3.4663512,4.6015404,4.6702689,4.6015404,12.169668,0,16.8399369-2.1754483,2.2684194-5.1952279,3.5316514-8.3379079,3.4877914-.6080807.0005442-1.2155628-.0376564-1.8188005-.1141665-.5896334-.0761835-1.3337834-.2092871-2.2324771-.3994194l-19.6929017,19.7428564c.1901868.8986393.3233447,1.6428437.3994194,2.2325043.0753945.5842189.1135135,1.1726824.1141121,1.76169-.0036187,6.5942298-5.3522204,11.9368729-11.946423,11.9332814-6.589033-.0035915-11.9296354-5.3442756-11.9332542-11.9332814-.0016053-.5962995.0365137-1.191946.1141121-1.7831302.0760747-.5610374.2092327-1.3193901.3994194-2.2752759l-13.3449352-13.3449624c-.9510155.1901324-1.7094227.3233447-2.2752759.3994194-.5840557.077163-1.1726008.1153637-1.7617444.1141665-1.2618444-.0981679-2.5169138-.2696897-3.7588416-.5135859l-25.5986228,25.5701356c.1901868.8939595.3376019,1.6072551.4422183,2.1397781.1043715.5717031.1545438,1.152004.1497823,1.7331756.0215491,3.1458362-1.2711496,6.157807-3.5662605,8.3093391-2.2255662,2.2639572-5.2775061,3.52338-8.4519927,3.4877914Zm6.3265535-63.0158708l-3.4093496-7.2609447-7.2609175-3.4093224,7.2609175-3.4093224,3.4093496-7.2609447,3.4093496,7.2609447,7.2609175,3.4093224-7.2609175,3.4093224-3.4093496,7.2609447Zm63.3011237-6.6046779l-5.0783678-11.0696865-11.0768151-5.0997264,11.0696593-5.1639382,5.0783678-10.9840344,5.1639382,10.9840344,10.9840888,5.1639382-10.9840888,5.078395-5.1567824,11.0910179Z"/>
</svg>