<?xml version="1.0" encoding="utf-8"?>
<!-- Generator: Adobe Illustrator 27.3.1, SVG Export Plug-In . SVG Version: 6.00 Build 0)  -->
<svg version="1.1" id="Layer_1" xmlns="http://www.w3.org/2000/svg" xmlns:xlink="http://www.w3.org/1999/xlink" x="0px" y="0px"
	 viewBox="0 0 150 150" enable-background="new 0 0 150 150" xml:space="preserve">
<g>
	<g>
		<rect x="0" fill="none" width="150" height="150"/>
	</g>
	<g>
		<rect x="10" y="10" fill="none" width="130" height="130"/>
	</g>
</g>
<path id="work_history_FILL0_wght600_GRAD0_opsz48" d="M22.9,119.3L22.9,119.3z M22.9,131.4c-3.2,0-6.3-1.3-8.5-3.6
	c-2.3-2.2-3.6-5.3-3.5-8.5V46.2c0-6.6,5.4-11.9,12-12h26V22c0-3.2,1.3-6.2,3.5-8.4c2.2-2.3,5.3-3.7,8.5-3.6h25.4
	c3.2,0,6.3,1.3,8.5,3.6c2.3,2.2,3.6,5.3,3.5,8.4v12.1h26c3.2,0,6.3,1.2,8.5,3.5c2.3,2.2,3.6,5.3,3.6,8.5v36.9
	c-1.7-1.6-3.6-3.1-5.6-4.4c-2-1.3-4.2-2.4-6.4-3.3V46.2H22.8v73.1h49.8c0.4,2.2,1.1,4.3,2,6.3c0.9,2,1.9,3.9,3.1,5.8L22.9,131.4z
	 M60.9,34.2h25.4V22H60.9L60.9,34.2z M109.9,140c-16.3,0.2-29.6-12.9-29.8-29.2C80,94.6,93.1,81.2,109.4,81.1
	c16.3-0.2,29.6,12.9,29.8,29.2c0.1,7.9-3,15.5-8.6,21.1C125.2,137,117.7,140.1,109.9,140z M121.1,126.8l4.8-4.8l-13-11.7V91.2h-7.2
	v21.2L121.1,126.8z"/>
</svg>
