<?xml version="1.0" encoding="utf-8"?>
<!-- Generator: Adobe Illustrator 27.3.1, SVG Export Plug-In . SVG Version: 6.00 Build 0)  -->
<svg version="1.1" id="Layer_1" xmlns="http://www.w3.org/2000/svg" xmlns:xlink="http://www.w3.org/1999/xlink" x="0px" y="0px"
	 viewBox="0 0 150 150" enable-background="new 0 0 150 150" xml:space="preserve">
<g>
	<g>
		<rect x="0" fill="none" width="150" height="150"/>
	</g>
	<g>
		<rect x="10" y="10" fill="none" width="130" height="130"/>
	</g>
</g>
<g>
	<path id="verified_FILL0_wght600_GRAD0_opsz48" d="M43.1,119l-17.7-3.6c-1.4-0.2-2.7-1-3.6-2.2c-0.9-1.2-1.3-2.6-1-4.1l2-17.1
		L11.5,78.8c-2-2.2-2-5.5,0-7.6l11.3-13l-2-17.1c-0.3-1.5,0.1-3,1-4.1c0.9-1.2,2.1-2,3.6-2.3l17.7-3.6L52,15.8
		c0.8-1.3,1.9-2.2,3.3-2.7c1.4-0.6,2.9-0.5,4.2,0.2L75,20.6l15.5-7.3c2.7-1.4,6-0.4,7.5,2.3l9,15.5l17.6,3.6
		c1.4,0.3,2.7,1.1,3.6,2.3c0.9,1.2,1.3,2.7,1.1,4.1l-2,17.1l11.3,13c2,2.2,2,5.5,0,7.6L127.2,92l2,17.1c0.2,1.4-0.2,2.9-1.1,4.1
		c-0.8,1.2-2.1,2-3.6,2.2L107,119l-9,15.3c-1.4,2.7-4.8,3.7-7.5,2.3L75,129.4l-15.5,7.3c-1.3,0.7-2.8,0.8-4.2,0.2
		c-1.4-0.5-2.5-1.4-3.3-2.7L43.1,119z M64.7,91c2.1,2.2,5.7,2.3,7.9,0.2c0.1-0.1,0.1-0.1,0.2-0.2l26.3-26c0.9-0.9,1.3-2.1,1.3-3.3
		c0-1.3-0.6-2.6-1.6-3.5c-0.9-0.9-2.2-1.5-3.5-1.4c-1.4,0.1-2.6,0.6-3.6,1.6l-23,22.8L58.5,70.3c-0.9-1-2.2-1.6-3.6-1.5
		c-1.4,0-2.7,0.6-3.7,1.7c-1,1-1.5,2.3-1.6,3.7c-0.1,1.4,0.5,2.7,1.6,3.5L64.7,91z M59.7,123.7l15.2-6.6l15.7,6.6l9.6-14.3l16.7-4.3
		l-1.7-17.1L126.8,75l-11.5-13.4l1.7-17.1l-16.7-4l-9.9-14.3L75,32.7l-15.7-6.5l-9.6,14.3l-16.6,4l1.6,17.1L23.2,75l11.5,13.1
		l-1.6,17.4l16.6,4L59.7,123.7z"/>
</g>
</svg>
