<?xml version="1.0" encoding="utf-8"?>
<!-- Generator: Adobe Illustrator 27.3.1, SVG Export Plug-In . SVG Version: 6.00 Build 0)  -->
<svg version="1.1" id="Layer_1" xmlns="http://www.w3.org/2000/svg" xmlns:xlink="http://www.w3.org/1999/xlink" x="0px" y="0px"
	 viewBox="0 0 150 150" enable-background="new 0 0 150 150" xml:space="preserve">
<g>
	<g>
		<rect x="0" fill="none" width="150" height="150"/>
	</g>
	<g>
		<rect x="10" y="10" fill="none" width="130" height="130"/>
	</g>
</g>
<path id="insights_FILL0_wght600_GRAD0_opsz48" d="M22.6,126c-6.5,0-11.8-5.4-11.8-11.9c0-3.2,1.2-6.2,3.5-8.5
	c2.2-2.3,5.2-3.6,8.3-3.5c0.6,0,1.2,0,1.8,0.1l2.3,0.4l25.4-25.4c-0.2-1-0.3-1.7-0.4-2.3c-0.1-0.6-0.1-1.2-0.1-1.7
	c0-3.2,1.2-6.3,3.6-8.4c2.2-2.3,5.3-3.5,8.5-3.5c3.2,0,6.2,1.2,8.4,3.5c2.3,2.2,3.5,5.3,3.5,8.5c-0.1,1.3-0.3,2.5-0.5,3.8l13.5,13.6
	c0.9-0.2,1.6-0.3,2.2-0.4c0.5-0.1,1.1-0.1,1.6-0.1c0.6,0,1.1,0,1.7,0.1c0.6,0.1,1.3,0.2,2.2,0.4L115.9,71c-0.2-0.9-0.3-1.6-0.4-2.2
	c-0.1-0.6-0.1-1.2-0.1-1.8c-0.1-3.2,1.2-6.2,3.5-8.4c2.2-2.3,5.3-3.5,8.5-3.5c3.2-0.1,6.2,1.2,8.4,3.5c4.6,4.7,4.6,12.2,0,16.8
	c-2.2,2.3-5.2,3.5-8.3,3.5c-0.6,0-1.2,0-1.8-0.1c-0.6-0.1-1.3-0.2-2.2-0.4l-19.7,19.7c0.2,0.9,0.3,1.6,0.4,2.2
	c0.1,0.6,0.1,1.2,0.1,1.8c0,6.6-5.4,11.9-11.9,11.9c-6.6,0-11.9-5.3-11.9-11.9c0-0.6,0-1.2,0.1-1.8c0.1-0.6,0.2-1.3,0.4-2.3
	L67.5,84.7c-1,0.2-1.7,0.3-2.3,0.4c-0.6,0.1-1.2,0.1-1.8,0.1c-1.3-0.1-2.5-0.3-3.8-0.5l-25.6,25.6c0.2,0.9,0.3,1.6,0.4,2.1
	c0.1,0.6,0.2,1.2,0.1,1.7c0,3.1-1.3,6.2-3.6,8.3C28.9,124.7,25.8,126,22.6,126z M29,63l-3.4-7.3l-7.3-3.4l7.3-3.4l3.4-7.3l3.4,7.3
	l7.3,3.4l-7.3,3.4L29,63z M92.3,56.3l-5.1-11.1l-11.1-5.1L87.2,35l5.1-11l5.2,11l11,5.2l-11,5.1L92.3,56.3z"/>
</svg>
