<?xml version="1.0" encoding="UTF-8"?>
<svg id="Layer_1" data-name="Layer 1" xmlns="http://www.w3.org/2000/svg" viewBox="0 0 300 300">
  <defs>
    <style>
      .cls-1 {
        fill: #000;
        stroke-width: 0px;
      }
    </style>
  </defs>
  <path class="cls-1" d="M75,292.5c-10.42,0-19.27-3.65-26.56-10.94-7.29-7.29-10.94-16.15-10.94-26.56s3.65-19.27,10.94-26.56c7.29-7.29,16.15-10.94,26.56-10.94,2.92,0,5.84.37,8.77,1.11,2.93.74,5.74,1.72,8.42,2.95l17.19-21.56c-6.04-6.46-10.47-13.8-13.28-22.03-2.81-8.23-3.39-16.72-1.72-25.47l-23.75-7.19c-3.12,6.04-7.71,10.83-13.75,14.37-6.04,3.54-12.5,5.31-19.37,5.31-10.42,0-19.27-3.65-26.56-10.94-7.29-7.29-10.94-16.15-10.94-26.56s3.59-19.53,10.78-26.72c7.19-7.19,16.09-10.78,26.72-10.78s19.53,3.59,26.72,10.78c7.19,7.19,10.78,16.09,10.78,26.72v3.44l23.75,7.19c4.17-8.75,10.1-16.04,17.81-21.88s16.35-9.48,25.94-10.94v-23.44c-8.75-1.67-15.94-5.94-21.56-12.81-5.62-6.88-8.44-14.9-8.44-24.06,0-10.42,3.65-19.27,10.94-26.56,7.29-7.29,16.15-10.94,26.56-10.94s19.27,3.65,26.56,10.94,10.94,16.15,10.94,26.56c0,9.17-2.81,17.19-8.44,24.06-5.62,6.88-12.81,11.15-21.56,12.81v23.43c9.79,1.26,18.49,4.8,26.09,10.63,7.6,5.83,13.49,13.23,17.66,22.19l23.75-7.19v-3.44c0-10.42,3.65-19.27,10.94-26.56,7.29-7.29,16.15-10.94,26.56-10.94s19.27,3.65,26.56,10.94,10.94,16.15,10.94,26.56-3.65,19.27-10.94,26.56c-7.29,7.29-16.15,10.94-26.56,10.94-6.88,0-13.33-1.72-19.38-5.16-6.04-3.44-10.62-8.28-13.75-14.53l-23.75,7.19c1.67,8.75,1.09,17.24-1.72,25.47-2.81,8.23-7.24,15.57-13.28,22.03l17.19,21.56c2.71-1.25,5.52-2.24,8.44-2.97,2.92-.73,5.83-1.09,8.75-1.09,10.42,0,19.27,3.65,26.56,10.94,7.29,7.29,10.94,16.15,10.94,26.56s-3.65,19.27-10.94,26.56c-7.29,7.29-16.15,10.94-26.56,10.94s-19.27-3.65-26.56-10.94c-7.29-7.29-10.94-16.15-10.94-26.56,0-4.37.78-8.59,2.34-12.66,1.56-4.06,3.7-7.86,6.41-11.41l-17.19-21.25c-8.96,5.42-18.65,8.12-29.06,8.12s-20.1-2.71-29.06-8.12l-17.19,21.25c2.71,3.54,4.84,7.34,6.41,11.4,1.56,4.06,2.34,8.28,2.34,12.66,0,10.42-3.65,19.27-10.94,26.56-7.29,7.29-16.15,10.94-26.56,10.94ZM37.5,142.5c4.25,0,7.81-1.44,10.69-4.31,2.88-2.88,4.31-6.44,4.31-10.69s-1.44-7.81-4.31-10.69c-2.87-2.87-6.44-4.31-10.69-4.31s-7.81,1.44-10.69,4.31c-2.88,2.88-4.31,6.44-4.31,10.69s1.44,7.81,4.31,10.69c2.87,2.87,6.44,4.31,10.69,4.31ZM75,270c4.25,0,7.81-1.44,10.69-4.31,2.87-2.87,4.31-6.44,4.31-10.69s-1.44-7.81-4.31-10.69c-2.88-2.88-6.44-4.31-10.69-4.31s-7.81,1.44-10.69,4.31c-2.88,2.87-4.31,6.44-4.31,10.69s1.44,7.81,4.31,10.69c2.87,2.88,6.44,4.31,10.69,4.31ZM150,60c4.25,0,7.81-1.44,10.69-4.31,2.87-2.88,4.31-6.44,4.31-10.69s-1.44-7.81-4.31-10.69c-2.88-2.87-6.44-4.31-10.69-4.31s-7.81,1.44-10.69,4.31c-2.87,2.88-4.31,6.44-4.31,10.69s1.44,7.81,4.31,10.69c2.88,2.87,6.44,4.31,10.69,4.31ZM150,195c9.45,0,17.44-3.26,23.96-9.79,6.53-6.53,9.79-14.51,9.79-23.96s-3.26-17.44-9.79-23.96c-6.53-6.53-14.51-9.79-23.96-9.79s-17.44,3.26-23.96,9.79c-6.52,6.53-9.79,14.51-9.79,23.96s3.26,17.44,9.79,23.96c6.53,6.52,14.51,9.79,23.96,9.79ZM225,270c4.25,0,7.81-1.44,10.69-4.31,2.87-2.87,4.31-6.44,4.31-10.69s-1.44-7.81-4.31-10.69c-2.88-2.88-6.44-4.31-10.69-4.31s-7.81,1.44-10.69,4.31c-2.87,2.87-4.31,6.44-4.31,10.69s1.44,7.81,4.31,10.69c2.88,2.88,6.44,4.31,10.69,4.31ZM262.5,142.5c4.25,0,7.81-1.44,10.69-4.31,2.87-2.88,4.31-6.44,4.31-10.69s-1.44-7.81-4.31-10.69c-2.88-2.87-6.44-4.31-10.69-4.31s-7.81,1.44-10.69,4.31c-2.87,2.88-4.31,6.44-4.31,10.69s1.44,7.81,4.31,10.69c2.88,2.87,6.44,4.31,10.69,4.31Z"/>
</svg>