<?xml version="1.0" encoding="utf-8"?>
<!-- Generator: Adobe Illustrator 27.3.1, SVG Export Plug-In . SVG Version: 6.00 Build 0)  -->
<svg version="1.1" id="Layer_1" xmlns="http://www.w3.org/2000/svg" xmlns:xlink="http://www.w3.org/1999/xlink" x="0px" y="0px"
	 viewBox="0 0 150 150" enable-background="new 0 0 150 150" xml:space="preserve">
<g>
	<g>
		<rect x="0" fill="none" width="150" height="150"/>
	</g>
	<g>
		<rect x="10" y="10" fill="none" width="130" height="130"/>
	</g>
</g>
<g>
	<path fill="#343634" d="M62.8,70.9c-7.9,0-14.3-2.5-19.3-7.5S36,52,36,44.1s2.5-14.3,7.5-19.3s11.4-7.5,19.3-7.5s14.3,2.5,19.4,7.5
		s7.6,11.4,7.6,19.3s-2.5,14.3-7.6,19.3S70.7,70.9,62.8,70.9z M17.2,127.9c-2,0-3.8-0.7-5.1-2.1s-2.1-3.1-2.1-5.1v-11.3
		c0-4.7,1.3-8.7,3.8-12.1c2.5-3.4,5.4-5.9,8.8-7.5c7.4-3.3,14.4-5.7,21.3-7.2c6.8-1.5,13.2-2.3,19-2.3h6c-0.8,1.5-1.7,3.7-2.6,6.6
		c-0.9,2.9-1.5,5.5-1.7,8h-1.4c-5.3,0-10.8,0.5-16.4,1.6c-5.6,1.1-11.4,3.1-17.5,6c-1.6,0.8-2.9,1.9-3.7,3.2
		c-0.8,1.3-1.2,2.8-1.2,4.3v3.5h39.7c0.5,2.7,1.5,5.3,3.1,8c1.5,2.7,3.1,4.8,4.6,6.4L17.2,127.9z M62.8,56.5c3.6,0,6.5-1.2,8.9-3.5
		c2.3-2.3,3.5-5.3,3.5-8.9c0-3.7-1.2-6.7-3.5-9c-2.3-2.3-5.3-3.4-8.9-3.4s-6.5,1.1-8.9,3.4c-2.3,2.3-3.5,5.3-3.5,9
		c0,3.6,1.2,6.5,3.5,8.9C56.3,55.4,59.3,56.5,62.8,56.5z M111.1,111.5c3.2,0,5.8-1.1,8-3.4c2.2-2.2,3.3-5,3.3-8.1
		c0-3.1-1.1-5.7-3.4-8c-2.2-2.2-4.9-3.4-8-3.4c-3.2,0-5.9,1.1-8.1,3.4c-2.2,2.2-3.4,5-3.4,8.1c0,3.1,1.1,5.7,3.4,8
		C105.2,110.4,107.9,111.5,111.1,111.5z M103.9,122.1c-1.5-0.4-3.1-1-4.7-1.9c-1.6-0.9-2.9-1.9-3.9-3l-6.3,1.4
		c-0.8,0.3-1.6,0.3-2.5-0.1s-1.4-0.9-1.8-1.6l-2.1-3.8c-0.5-0.7-0.7-1.5-0.5-2.5c0.2-0.9,0.5-1.7,1.1-2.3l5.5-5.1
		c-0.3-0.6-0.4-1.7-0.4-3.1c0.1-1.5,0.2-2.5,0.4-3l-5.5-5.2c-0.6-0.6-1-1.4-1.1-2.2c-0.2-0.9,0-1.7,0.5-2.4l2.1-4
		c0.4-0.7,1-1.2,1.8-1.5c0.8-0.3,1.6-0.4,2.5-0.2l6.3,1.4c1-1,2.3-2,3.9-2.9c1.6-0.9,3.1-1.5,4.7-1.8l1.1-7.5c0.2-1,0.6-1.8,1.2-2.4
		c0.6-0.6,1.4-0.8,2.5-0.8h4.9c0.9,0,1.7,0.3,2.4,0.8c0.7,0.6,1.1,1.4,1.3,2.4l1.1,7.5c1.4,0.3,3,0.9,4.6,1.8c1.6,0.9,3,1.9,4,2.9
		l6.3-1.2c0.8-0.3,1.6-0.3,2.5,0c0.8,0.3,1.4,0.9,1.8,1.7l2.1,3.8c0.4,0.7,0.5,1.5,0.3,2.3c-0.2,0.8-0.6,1.6-1.2,2.3l-5.4,5.2
		c0.4,0.6,0.6,1.6,0.5,3.1c-0.1,1.4-0.2,2.5-0.5,3.1l5.5,5.1c0.6,0.6,1,1.4,1.1,2.3c0.2,0.9,0,1.7-0.4,2.5l-2.3,3.8
		c-0.3,0.7-0.9,1.3-1.7,1.6c-0.8,0.4-1.6,0.4-2.5,0.1l-6.3-1.4c-1,1.1-2.3,2.1-4,3c-1.6,0.9-3.2,1.5-4.6,1.9l-1.1,7.5
		c-0.2,0.9-0.6,1.7-1.3,2.2c-0.7,0.6-1.5,0.8-2.4,0.8h-4.9c-1,0-1.8-0.3-2.5-0.8c-0.6-0.6-1-1.3-1.2-2.2L103.9,122.1z"/>
</g>
</svg>
