<?xml version="1.0" encoding="utf-8"?>
<!-- Generator: Adobe Illustrator 27.3.1, SVG Export Plug-In . SVG Version: 6.00 Build 0)  -->
<svg version="1.1" id="Layer_1" xmlns="http://www.w3.org/2000/svg" xmlns:xlink="http://www.w3.org/1999/xlink" x="0px" y="0px"
	 viewBox="0 0 150 150" enable-background="new 0 0 150 150" xml:space="preserve">
<g>
	<g>
		<rect x="0" fill="none" width="150" height="150"/>
	</g>
	<g>
		<rect x="10" y="10" fill="none" width="130" height="130"/>
	</g>
</g>
<path d="M12.5,140v-16.6l15.1-15.1V140H12.5z M40,140V96.7l15.1-15.1V140H40z M67.5,140V81.6l15.1,15.1V140H67.5z M95.1,140V96.4
	l15.1-14.9V140H95.1z M122.6,140V69.7l14.9-14.9V140C137.5,140,122.6,140,122.6,140z M12.5,104V81.8l49.2-48.9l26.5,26.5L137.5,10
	v22.1L88.3,81.6L61.7,55.1L12.5,104z"/>
</svg>
