<?xml version="1.0" encoding="UTF-8"?>
<svg id="Layer_1" data-name="Layer 1" xmlns="http://www.w3.org/2000/svg" viewBox="0 0 150 150">
  <path d="m122.4072933,56.3471193c-.8510799,0-1.560315-.2364135-2.1277052-.7092351-.5673794-.4728216-.945654-1.0874934-1.1347805-1.8440101l-.7092351-2.4114004c-.9456432-.3782556-1.9149434-.8983643-2.9078682-1.5603177-.9929356-.6619535-1.8203801-1.3711885-2.4823228-2.1277052l-3.4043305,1.4184702c-.8510799.2836924-1.6548782.2836924-2.4113949,0-.7565167-.2836951-1.3711885-.8037983-1.8440155-1.5603177l-.1418449-.2836951c-.472827-.6619535-.5910364-1.3711885-.3546175-2.1277052.2364081-.7565167.6855997-1.4184702,1.3475423-1.9858577l2.6950955-2.1277052c-.1891265-.4728216-.3546067-.9929302-.4964624-1.5603177-.1418449-.5673875-.2127727-1.1347778-.2127727-1.7021653s.0709278-1.1111369.2127727-1.6312401c.1418557-.5201059.3073359-1.0638526.4964624-1.6312401l-2.6950955-2.1277052c-.6619426-.5673875-1.087488-1.2057002-1.2766253-1.9149353-.1891265-.7092364-.0472816-1.4421123.4255454-2.198629l.1418449-.2836938c.472827-.756518,1.087488-1.2766226,1.8440155-1.5603177.7565167-.2836951,1.5130334-.2836951,2.2695501,0l3.4043305,1.4184702c.6619426-.6619521,1.4893872-1.3711872,2.4823228-2.1277052.9929248-.756518,1.962225-1.276624,2.9078682-1.5603177l.7092351-2.2695528c.1891265-.8510813.5673794-1.5130347,1.1347805-1.9858577.5673902-.4728236,1.2766253-.7092351,2.1277052-.7092351h.1418449c.8510799,0,1.560315.2364115,2.1277052.7092351.5673902.4728229.9456432,1.1347764,1.1347805,1.9858577l.5673902,2.2695528c.945654.2836938,1.9149326.8037997,2.9078682,1.5603177.9929248.756518,1.8203693,1.4657531,2.4823228,2.1277052l3.5461754-1.4184702c.7565167-.2836951,1.5130334-.2836951,2.2695501,0s1.3711777.8037997,1.8440155,1.5603177l.1418449.2836938c.4728162.7565167.6146718,1.4893926.4255454,2.198629-.1891265.7092351-.6146718,1.3475477-1.2766253,1.9149353l-2.8369403,2.1277052c.1891265.5673875.3546175,1.1111342.4964624,1.6312401.1418557.5201032.2127727,1.0638526.2127727,1.6312401s-.070917,1.1347778-.2127727,1.7021653c-.1418449.5673875-.3073359,1.0874961-.4964624,1.5603177l2.8369403,2.1277052c.6619535.5673875,1.087488,1.2529845,1.2766253,2.0567828.1891265.803801.0472708,1.5839558-.4255454,2.3404752l-.1418449.2836951c-.472827.7565167-1.1111342,1.229341-1.9149326,1.4184702s-1.5366688.1418476-2.1986331-.1418476l-3.5461754-1.4184702c-.6619535.7565167-1.489398,1.4657518-2.4823228,2.1277052-.9929356.6619535-1.9622142,1.1820621-2.9078682,1.5603177l-.5673902,2.4114004c-.1891265.7565167-.5673902,1.3711885-1.1347805,1.8440101s-1.2766253.7092351-2.1277052.7092351h-.1418449Zm0-10.3548311c2.3641133-.0000027,4.3263383-.7801575,5.8866533-2.3404752,1.560315-1.560315,2.3404779-3.5225346,2.3404779-5.8866506s-.7801629-4.3263356-2.3404779-5.8866506c-1.560315-1.5603218-3.52254-2.3404806-5.8866533-2.3404806-2.3641241,0-4.3263383.7801589-5.8866533,2.3404752-1.560315,1.5603177-2.3404779,3.5225346-2.3404779,5.8866506s.7801629,4.3263329,2.3404779,5.8866506c1.560315,1.560315,3.5225292,2.3404752,5.8866533,2.3404806Zm-17.5890321,42.1285648c-.0945632,0-.5200978-.3782583-1.2766253-1.134775l-.1418449-2.9787852c-.6619535-.3782638-1.3475423-.8037983-2.0567774-1.2766253-.7092351-.4728216-1.3475531-.9929302-1.9149326-1.560315l-2.6950955,1.4184702c-.0945632.0945632-.6619481-.047287-1.7021653-.42554l-1.7021653-2.4114004.1418449-1.7021653,2.8369403-1.9858604c-.1891319-.3782583-.2836951-.7328759-.2836951-1.0638526v-2.1277052c0-.3309767.0945632-.6855943.2836951-1.0638526l-2.8369403-1.9858604c-.0945632.0000054-.1418503-.5673902-.1418449-1.7021653l1.7021653-2.5532452c.0945632-.0945632.6619481-.2364081,1.7021653-.42554l2.6950955,1.4184702,1.9858604-1.4184702c.6619535-.472827,1.3239069-.8983615,1.9858604-1.2766253l.1418449-2.9787852,1.2766253-1.134775h3.4043305c.0945632,0,.5201086.3782583,1.2766253,1.134775l.1418449,2.9787852c.6619535.3782638,1.3002607.8037983,1.9149326,1.2766253.6146718.4728216,1.3002607.9456432,2.0567774,1.4184702l2.6950955-1.4184702c.0945632,0,.6619535.1418449,1.7021599.42554l1.7021599,2.5532452c-.0945632,0-.1418449.5673902-.1418449,1.7021653l-2.8369403,1.9858604c.0945632.3782583.1654911.7328759.2127727,1.0638526s.0709278.6855943.0709278,1.0638526-.0236462.7328759-.0709278,1.0638526-.1182095.6855943-.2127727,1.0638526l2.8369403,1.9858604.1418449,1.7021653-1.7021599,2.5532452c-.0945632.0945686-.6619535.2364081-1.7021599.42554l-2.6950955-1.4184702c-.5673902.472827-1.2056975.9456486-1.9149326,1.4184702-.7092351.472827-1.3948239.8983615-2.0567774,1.2766253l-.1418557,2.9787798-1.2766253,1.134775-3.4043305.0000054Zm1.7021599-8.7945161c1.5130334,0,2.7896587-.5201032,3.8298651-1.560315,1.0402064-1.0402064,1.560315-2.3168371,1.560315-3.8298705s-.5201086-2.7896533-1.560315-3.8298705c-1.0402064-1.0402118-2.3168317-1.5603204-3.8298651-1.560315-1.6075966,0-2.9078573.5201032-3.9007929,1.560315-.9929356,1.0402064-1.489398,2.3168371-1.489398,3.8298705s.4964624,2.7896533,1.489398,3.8298705c.9929356,1.0402118,2.2931963,1.5603204,3.9007929,1.560315Zm-48.0861406,1.134775c-7.28148.0000054-13.2626965-2.3404779-17.943647-7.0214284-4.6809504-4.6809559-7.021423-10.3784719-7.0214175-17.0925643h-1.4184702c-1.0402118,0-1.9385761-.3782583-2.6950928-1.134775s-1.1347764-1.654881-1.1347764-2.6950928.3782597-1.9385761,1.1347764-2.6950928,1.654881-1.1347723,2.6950928-1.134775h1.4184702c0-4.2554078,1.2057002-8.1562007,3.6170978-11.7023788,2.4114004-3.5461754,5.6502398-6.2176301,9.7165211-8.0143613v5.6738806c-.0000027.6619535.21277,1.1820594.6383127,1.5603177s.9692894.5673875,1.6312401.5673875c.5673902,0,1.0874934-.1891292,1.5603177-.5673875s.7092351-.8983643.7092351-1.5603177v-7.2341984c.7565167-.0945646,1.8203693-.2364121,3.1915579-.4255413s2.7187363-.2836938,4.0426378-.2836938c1.134775,0,2.3641187.0945646,3.6880203.2836938,1.3239069.1891292,2.4114004.3309767,3.2624803.4255413v7.2341984c0,.6619535.2364081,1.1820594.7092351,1.5603177.4728216.3782583,1.0402118.5673875,1.7021653.5673875.6619589,0,1.2057029-.1891292,1.6312428-.5673875s.6383127-.8983643.6383127-1.5603177v-5.6738806c3.9717208,1.7967272,7.1159916,4.4681805,9.4328287,8.0143559,2.3168317,3.5461754,3.4752584,7.4469683,3.475253,11.7023788h1.4184702c1.0402064,0,1.9385734.3782611,2.6950955,1.134775.7565113.7565194,1.134775,1.654881,1.134775,2.6950928s-.3782638,1.9385761-1.134775,2.6950928-1.6548837,1.134775-2.6950955,1.134775h-1.4184702c.0000054,6.7140924-2.3168371,12.4116139-6.9505059,17.0925643-4.6336688,4.6809559-10.543963,7.0214392-17.7308878,7.0214338Zm0-13.4754665c3.4988938,0,6.2649117-1.0638526,8.2980483-3.1915579,2.0331474-2.1277052,3.0497238-4.8937231,3.0497238-8.2980537h-22.8373701c0,3.4043251,1.016571,6.170343,3.0497103,8.2980483s4.8464415,3.1915633,8.4398877,3.1915633Zm-48.5116687,63.8311572v-16.7379522c-.0000002-4.3499737,1.0638526-7.8252213,3.1915582-10.4257535,2.1277059-2.6005322,4.6100287-4.5627464,7.4469683-5.8866533,5.1064931-2.4586766,10.8276567-4.5391056,17.1634908-6.2412709,6.3358341-1.7021599,13.2390557-2.5532452,20.7096622-2.5532452,7.3760459,0,14.2083424.8037983,20.4968949,2.4114004s12.0333555,3.640744,17.2344092,6.0994206c2.7423771,1.4184647,5.1774182,3.4516068,7.3051235,6.0994206s3.1915579,6.1467076,3.1915579,10.4966813v16.7379522H9.9226117Zm13.4754669-13.4754665h69.9305764v-2.8369403c-.0000054-1.4184702-.4018992-2.505969-1.2056975-3.2624857-.8037983-.7565275-1.7730877-1.3711885-2.9078627-1.8440155-4.066284-1.7967339-8.510821-3.4279659-13.3336163-4.8937177-4.8227953-1.4657626-10.6385262-2.1986331-17.4471819-2.1986331-6.9032216,0-12.7662287.7565167-17.5890294,2.2695501-4.822798,1.5130334-9.2673377,3.1206408-13.333619,4.8228007-1.2293396.472827-2.2222698,1.087488-2.9787879,1.8440155-.756518.7565167-1.1347764,1.8440155-1.1347764,3.2624857l-.0000054,2.8369403Z"/>
</svg>