<?xml version="1.0" encoding="utf-8"?>
<!-- Generator: Adobe Illustrator 27.3.1, SVG Export Plug-In . SVG Version: 6.00 Build 0)  -->
<svg version="1.1" id="Layer_1" xmlns="http://www.w3.org/2000/svg" xmlns:xlink="http://www.w3.org/1999/xlink" x="0px" y="0px"
	 viewBox="0 0 150 150" enable-background="new 0 0 150 150" xml:space="preserve">
<g>
	<g>
		<rect x="0" fill="none" width="150" height="150"/>
	</g>
	<g>
		<rect x="10" y="10" fill="none" width="130" height="130"/>
	</g>
</g>
<linearGradient id="pill_FILL0_wght700_GRAD0_opsz48_00000166677917785583859180000010754186032337436054_" gradientUnits="userSpaceOnUse" x1="-2213.3027" y1="453.7361" x2="-2213.3027" y2="448.5362" gradientTransform="matrix(25.0004 0 0 -25.0004 55408.3789 11353.5625)">
	<stop  offset="0" style="stop-color:#FF6600"/>
	<stop  offset="0" style="stop-color:#FF5204"/>
	<stop  offset="1" style="stop-color:#FF270D"/>
</linearGradient>
<path id="pill_FILL0_wght700_GRAD0_opsz48_00000114048094946900538390000014028101252498497203_" fill="url(#pill_FILL0_wght700_GRAD0_opsz48_00000166677917785583859180000010754186032337436054_)" d="
	M51.6,140c-22.8,0.2-41.4-18.2-41.6-41c0-0.2,0-0.4,0-0.6c0-5.5,1.1-10.9,3.2-15.9c2.1-5.1,5.2-9.6,9.1-13.5l46.6-46.8
	c3.9-3.8,8.5-6.8,13.5-8.9c5-2.1,10.5-3.2,15.9-3.2c22.8-0.2,41.4,18.2,41.6,41c0,0.2,0,0.4,0,0.6c0,5.5-1.1,10.9-3.2,15.9
	c-2.1,5-5.1,9.6-8.9,13.5l-46.8,46.6c-3.9,3.9-8.5,7-13.5,9.1C62.5,138.9,57.1,140,51.6,140z M98.7,87l17.5-17.5
	c2.3-2.4,4.1-5.1,5.4-8.1c1.3-3.1,2-6.4,2-9.7c0.1-13.9-11.1-25.2-25-25.3c-0.1,0-0.2,0-0.3,0c-3.3,0-6.7,0.7-9.7,2
	c-3,1.3-5.8,3.2-8.1,5.4L63,51.3L98.7,87z M51.6,123.5c3.3,0,6.5-0.6,9.6-1.9c3.1-1.3,5.9-3.1,8.3-5.3L87,98.6L51.4,63.1L33.7,80.6
	c-2.3,2.4-4.1,5.2-5.3,8.2c-1.3,3.1-1.9,6.3-1.9,9.7c-0.1,13.7,10.9,25,24.6,25.1C51.3,123.5,51.4,123.5,51.6,123.5z"/>
</svg>
