<?xml version="1.0" encoding="UTF-8"?>
<svg id="Layer_1" data-name="Layer 1" xmlns="http://www.w3.org/2000/svg" viewBox="0 0 300 300">
  <defs>
    <style>
      .cls-1 {
        fill: #000;
        stroke: #000;
        stroke-miterlimit: 10;
        stroke-width: 6px;
      }
    </style>
  </defs>
  <path class="cls-1" d="M73.15,262.94c-10.74,0-19.89-3.8-27.44-11.39-7.55-7.59-11.32-16.76-11.32-27.5s3.79-19.89,11.37-27.44c7.58-7.55,16.73-11.32,27.46-11.32,3.33,0,6.59.44,9.79,1.32,3.2.88,6.21,2.11,9.03,3.68l44.71-44.83v-32.23c-8.28-2.42-15.06-7.02-20.33-13.8-5.27-6.78-7.91-14.64-7.91-23.56,0-10.78,3.8-19.95,11.39-27.49,7.59-7.55,16.76-11.32,27.5-11.32s19.89,3.78,27.44,11.35c7.55,7.57,11.32,16.71,11.32,27.41,0,8.86-2.64,16.7-7.91,23.53-5.27,6.82-12.05,11.45-20.33,13.88v32.22l44.62,44.84c2.9-1.57,5.94-2.79,9.13-3.68,3.19-.88,6.45-1.32,9.77-1.32,10.72,0,19.88,3.8,27.46,11.39,7.58,7.59,11.37,16.76,11.37,27.5s-3.8,19.89-11.39,27.44c-7.59,7.55-16.76,11.32-27.5,11.32s-19.89-3.79-27.44-11.37c-7.55-7.58-11.32-16.73-11.32-27.46,0-3.33.44-6.59,1.32-9.79.88-3.2,2.11-6.21,3.68-9.03l-40.3-40.3-40.3,40.3c1.57,2.8,2.79,5.79,3.68,8.96.88,3.17,1.32,6.44,1.32,9.8,0,10.83-3.8,20.02-11.39,27.56-7.59,7.55-16.76,11.32-27.5,11.32ZM221.46,241.77c4.9,0,9.07-1.72,12.5-5.15,3.43-3.43,5.15-7.6,5.15-12.5s-1.72-9.07-5.15-12.5c-3.43-3.43-7.6-5.15-12.5-5.15s-9.07,1.72-12.5,5.15c-3.43,3.43-5.15,7.6-5.15,12.5s1.72,9.07,5.15,12.5c3.43,3.43,7.6,5.15,12.5,5.15ZM147.34,93.53c4.9,0,9.07-1.72,12.5-5.15,3.43-3.43,5.15-7.6,5.15-12.5s-1.72-9.07-5.15-12.5c-3.43-3.43-7.6-5.15-12.5-5.15s-9.07,1.72-12.5,5.15c-3.43,3.43-5.15,7.6-5.15,12.5s1.72,9.07,5.15,12.5c3.43,3.43,7.6,5.15,12.5,5.15ZM73.22,241.77c4.9,0,9.07-1.72,12.5-5.15,3.43-3.43,5.15-7.6,5.15-12.5s-1.72-9.07-5.15-12.5c-3.43-3.43-7.6-5.15-12.5-5.15s-9.07,1.72-12.5,5.15c-3.43,3.43-5.15,7.6-5.15,12.5s1.72,9.07,5.15,12.5c3.43,3.43,7.6,5.15,12.5,5.15Z"/>
</svg>