<?xml version="1.0" encoding="utf-8"?>
<!-- Generator: Adobe Illustrator 27.4.0, SVG Export Plug-In . SVG Version: 6.00 Build 0)  -->
<svg version="1.1" id="Layer_1" xmlns="http://www.w3.org/2000/svg" xmlns:xlink="http://www.w3.org/1999/xlink" x="0px" y="0px"
	 viewBox="0 0 150 150" style="enable-background:new 0 0 150 150;" xml:space="preserve">
<style type="text/css">
	.st0{fill:none;}
	.st1{fill:url(#SVGID_1_);}
</style>
<g>
	<g>
		<rect class="st0" width="150" height="150"/>
	</g>
	<g>
		<rect x="10" y="10" class="st0" width="130" height="130"/>
	</g>
</g>
<linearGradient id="SVGID_1_" gradientUnits="userSpaceOnUse" x1="10.137" y1="74.9614" x2="139.863" y2="74.9614">
	<stop  offset="0" style="stop-color:#FF6600"/>
	<stop  offset="0" style="stop-color:#FF5204"/>
	<stop  offset="1" style="stop-color:#FF270D"/>
</linearGradient>
<path class="st1" d="M26,139.8c-4.4,0-8.1-1.5-11.2-4.6c-3.1-3.1-4.6-6.8-4.6-11.2V26.1c0-4.4,1.5-8.2,4.6-11.3
	c3.1-3.1,6.8-4.7,11.2-4.7h97.9c4.4,0,8.2,1.6,11.3,4.7c3.1,3.1,4.7,6.9,4.7,11.3V124c0,4.4-1.6,8.1-4.7,11.2
	c-3.1,3.1-6.9,4.6-11.3,4.6H26z M26,124h97.9V26.1H26V124z M72,109.5h6c0.9,0,1.7-0.3,2.4-0.9c0.7-0.6,1.2-1.4,1.4-2.3l1.3-6.4
	c1.9-0.6,3.6-1.3,4.9-2.2c1.3-0.9,2.6-1.9,3.7-3l7.9,2.2c0.9,0.2,1.8,0.2,2.7-0.1c0.9-0.3,1.6-0.9,2-1.8l2.6-5.7
	c0.5-0.9,0.6-1.8,0.4-2.8c-0.2-1-0.7-1.8-1.5-2.4l-5.7-3.4c0.3-2,0.5-3.9,0.5-5.7c0-1.8-0.2-3.8-0.5-5.9l5.7-3.4
	c0.8-0.4,1.3-1.2,1.5-2.2c0.2-1,0.1-2-0.4-2.9l-2.6-5.7c-0.5-0.9-1.2-1.4-2.1-1.7c-0.9-0.3-1.8-0.3-2.7-0.1l-7.9,2.2
	c-1.1-1.1-2.4-2.1-3.7-3c-1.3-0.9-3-1.6-4.9-2.2l-1.3-6.4c-0.2-0.9-0.7-1.7-1.4-2.3c-0.7-0.6-1.5-0.9-2.5-0.9h-6
	c-1,0-1.8,0.3-2.5,0.9c-0.7,0.6-1.2,1.4-1.4,2.3l-1.2,6.4c-2,0.6-3.7,1.3-5,2.2c-1.3,0.9-2.6,1.9-3.7,3l-7.7-2.2
	c-1-0.2-2-0.2-2.9,0.1c-0.9,0.3-1.6,0.8-2.1,1.7l-2.6,5.7c-0.5,1-0.6,1.9-0.4,2.9c0.2,1,0.7,1.7,1.5,2.2l5.7,3.4
	c-0.3,2.1-0.5,4.1-0.5,5.9c0,1.8,0.2,3.7,0.5,5.7L44,84.1c-0.8,0.6-1.3,1.3-1.5,2.4c-0.2,1-0.1,1.9,0.4,2.8l2.6,5.7
	c0.5,1,1.1,1.6,2,1.8c0.9,0.3,1.9,0.3,2.9,0.1l7.7-2.2c1.1,1.1,2.4,2.1,3.7,3c1.3,0.9,3,1.6,5,2.2l1.2,6.4c0.1,0.9,0.6,1.7,1.3,2.3
	C70.1,109.2,71,109.5,72,109.5z M74.9,88.3c-3.8,0-7-1.3-9.5-3.8s-3.8-5.7-3.8-9.5s1.3-7,3.8-9.5c2.5-2.5,5.7-3.8,9.5-3.8
	s7,1.3,9.5,3.8c2.5,2.5,3.8,5.7,3.8,9.5c0,3.8-1.3,7-3.8,9.5S78.7,88.3,74.9,88.3z M26,124V26.1V124z"/>
</svg>
