<?xml version="1.0" encoding="UTF-8"?>
<svg id="Layer_1" data-name="Layer 1" xmlns="http://www.w3.org/2000/svg" viewBox="0 0 300 300">
  <defs>
    <style>
      .cls-1 {
        fill: #000;
        stroke: #000;
        stroke-miterlimit: 10;
        stroke-width: 3.62px;
      }
    </style>
  </defs>
  <path class="cls-1" d="M103.82,291.67l-26.04-43.06-48.96-11.11,4.51-50L0,150l33.33-37.5-4.51-50,48.96-11.11,26.04-43.06,46.18,19.79,46.18-19.79,26.04,43.06,48.96,11.11-4.51,50,33.33,37.5-33.33,37.5,4.51,50-48.96,11.11-26.04,43.06-46.18-19.79-46.18,19.79ZM113.89,260.07l36.11-15.28,36.11,15.28,20.14-33.68,38.19-8.68-3.47-38.54,25.69-29.17-25.69-29.17,3.47-38.54-38.19-8.68-20.14-33.68-36.11,15.28-36.11-15.28-20.14,33.68-38.19,8.33,3.47,38.89-25.69,29.17,26.04,29.17-3.82,38.89,38.19,8.68,20.14,33.33ZM132.29,200l82.64-82.29-17.71-17.71-64.93,64.58-29.51-29.17-17.71,17.71,47.22,46.88Z"/>
</svg>