<?xml version="1.0" encoding="UTF-8"?>
<svg id="Layer_1" data-name="Layer 1" xmlns="http://www.w3.org/2000/svg" viewBox="0 0 300 300">
  <defs>
    <style>
      .cls-1 {
        fill: #000;
        stroke-width: 0px;
      }
    </style>
  </defs>
  <path class="cls-1" d="M101.11,289.59l-23.06-38.12c-.69-1.13-1.8-1.94-3.1-2.24l-43.31-9.83c-2.39-.54-4-2.77-3.78-5.2l3.99-44.19c.12-1.34-.32-2.68-1.21-3.68L1.23,153.25c-1.65-1.85-1.65-4.64,0-6.49l29.41-33.09c.9-1.01,1.34-2.34,1.21-3.68l-3.99-44.19c-.22-2.44,1.4-4.66,3.78-5.2l43.31-9.83c1.29-.29,2.41-1.1,3.1-2.24l23.06-38.12c1.26-2.08,3.86-2.92,6.1-1.96l40.86,17.51c1.23.53,2.62.53,3.85,0l40.86-17.51c2.24-.96,4.84-.12,6.1,1.96l23.06,38.12c.69,1.13,1.8,1.94,3.1,2.24l43.31,9.83c2.39.54,4,2.77,3.78,5.2l-3.99,44.19c-.12,1.34.32,2.68,1.21,3.68l29.41,33.09c1.65,1.85,1.65,4.64,0,6.49l-29.41,33.09c-.9,1.01-1.34,2.34-1.21,3.68l3.99,44.19c.22,2.44-1.4,4.66-3.78,5.2l-43.31,9.83c-1.29.29-2.41,1.1-3.1,2.24l-23.06,38.12c-1.26,2.08-3.86,2.92-6.1,1.96l-40.86-17.51c-1.23-.53-2.62-.53-3.85,0l-40.86,17.51c-2.24.96-4.84.12-6.1-1.96ZM117.39,259.63l30.71-12.99c1.22-.51,2.59-.51,3.81,0l30.69,12.98c2.24.95,4.84.1,6.1-1.99l17.11-28.61c.68-1.15,1.81-1.96,3.11-2.26l32.41-7.37c2.39-.54,4-2.77,3.78-5.2l-2.94-32.62c-.12-1.34.31-2.66,1.2-3.67l21.74-24.68c1.63-1.85,1.63-4.61,0-6.46l-21.74-24.68c-.89-1.01-1.32-2.33-1.2-3.67l2.94-32.62c.22-2.44-1.4-4.66-3.78-5.2l-32.41-7.37c-1.3-.3-2.42-1.11-3.11-2.26l-17.11-28.61c-1.25-2.09-3.85-2.94-6.1-1.99l-30.69,12.98c-1.22.51-2.59.51-3.81,0l-30.69-12.98c-2.24-.95-4.84-.1-6.1,1.99l-17.09,28.59c-.69,1.16-1.83,1.98-3.15,2.27l-32.34,7.06c-2.4.52-4.04,2.76-3.82,5.21l2.94,32.94c.12,1.33-.31,2.66-1.2,3.66l-21.73,24.66c-1.63,1.85-1.62,4.64.02,6.48l22.02,24.66c.91,1.02,1.35,2.37,1.22,3.73l-3.23,32.9c-.24,2.45,1.38,4.69,3.78,5.24l32.39,7.36c1.29.29,2.41,1.1,3.1,2.24l17.1,28.3c1.26,2.08,3.85,2.92,6.08,1.97ZM135.54,197.12l76.64-76.32c1.91-1.91,1.92-5,0-6.91l-11-11c-1.9-1.9-4.99-1.91-6.9,0l-58.76,58.44c-1.9,1.89-4.97,1.9-6.88.01l-22.94-22.67c-1.91-1.89-4.99-1.88-6.89.02l-11,11c-1.91,1.91-1.91,5.01.01,6.92l40.82,40.52c1.91,1.89,4.98,1.89,6.89,0Z"/>
</svg>