<?xml version="1.0" encoding="utf-8"?>
<!-- Generator: Adobe Illustrator 27.4.0, SVG Export Plug-In . SVG Version: 6.00 Build 0)  -->
<svg version="1.1" id="Layer_1" xmlns="http://www.w3.org/2000/svg" xmlns:xlink="http://www.w3.org/1999/xlink" x="0px" y="0px"
	 viewBox="0 0 150 150" enable-background="new 0 0 150 150" xml:space="preserve">
<g>
	<g>
		<rect x="0" fill="none" width="150" height="150"/>
	</g>
	<g>
		<rect x="10" y="10" fill="none" width="130" height="130"/>
	</g>
</g>
<g>
	<path d="M26,139.9c-4.4,0-8.1-1.5-11.2-4.6c-3.1-3.1-4.6-6.8-4.6-11.2v-19.5c0-2.2,0.8-4.1,2.3-5.6s3.4-2.3,5.6-2.3
		c2.2,0,4.1,0.8,5.6,2.3s2.3,3.4,2.3,5.6V124h19.5c2.2,0,4.1,0.8,5.6,2.3c1.5,1.5,2.3,3.4,2.3,5.6c0,2.2-0.8,4.1-2.3,5.6
		c-1.5,1.5-3.4,2.3-5.6,2.3H26z M104.4,139.9c-2.2,0-4.1-0.8-5.6-2.3c-1.5-1.5-2.3-3.4-2.3-5.6c0-2.2,0.8-4.1,2.3-5.6
		c1.5-1.5,3.4-2.3,5.6-2.3h19.5v-19.5c0-2.2,0.8-4.1,2.3-5.6c1.5-1.5,3.4-2.3,5.6-2.3c2.2,0,4.1,0.8,5.7,2.3
		c1.6,1.5,2.4,3.4,2.4,5.6V124c0,4.4-1.6,8.1-4.7,11.2c-3.1,3.1-6.9,4.6-11.3,4.6H104.4z M48.7,75.1l9.1,9.1
		c1.6,1.6,2.3,3.4,2.3,5.6c-0.1,2.1-0.9,4-2.4,5.6c-1.6,1.6-3.4,2.4-5.6,2.4c-2.2,0.1-4.1-0.7-5.6-2.3L31.7,80.8
		c-1.6-1.6-2.4-3.5-2.4-5.7s0.8-4.1,2.4-5.7l14.6-14.6c1.6-1.6,3.5-2.3,5.7-2.3c2.2,0.1,4.1,0.9,5.7,2.4c1.6,1.6,2.3,3.4,2.3,5.6
		c-0.1,2.1-0.8,4-2.3,5.6L48.7,75.1z M101.2,75.1L92.1,66c-1.6-1.7-2.3-3.6-2.3-5.6c0.1-2.1,0.9-3.9,2.4-5.5s3.4-2.4,5.6-2.4
		c2.2-0.1,4.1,0.7,5.6,2.3l14.6,14.6c1.6,1.6,2.4,3.5,2.4,5.7s-0.8,4.1-2.4,5.7l-14.6,14.6c-1.6,1.6-3.5,2.3-5.7,2.3
		c-2.2-0.1-4.1-0.9-5.7-2.4c-1.6-1.6-2.3-3.4-2.3-5.6c0.1-2.1,0.8-4,2.3-5.6L101.2,75.1z M18.1,53.6c-2.2,0-4.1-0.8-5.6-2.3
		c-1.5-1.5-2.3-3.4-2.3-5.6V26.1c0-4.4,1.5-8.1,4.6-11.3s6.8-4.7,11.2-4.7h19.5c2.2,0,4.1,0.8,5.6,2.4c1.5,1.6,2.3,3.5,2.3,5.6
		c0,2.2-0.8,4.1-2.3,5.6c-1.5,1.5-3.4,2.3-5.6,2.3H26v19.5c0,2.2-0.8,4.1-2.3,5.6C22.2,52.8,20.3,53.6,18.1,53.6z M131.8,53.6
		c-2.2,0-4.1-0.8-5.6-2.3c-1.5-1.5-2.3-3.4-2.3-5.6V26.1h-19.5c-2.2,0-4.1-0.8-5.6-2.3c-1.5-1.5-2.3-3.4-2.3-5.6s0.8-4.1,2.3-5.7
		c1.5-1.6,3.4-2.4,5.6-2.4h19.5c4.4,0,8.1,1.6,11.3,4.7c3.1,3.1,4.7,6.9,4.7,11.3v19.5c0,2.2-0.8,4.1-2.4,5.6
		C135.8,52.8,133.9,53.6,131.8,53.6z"/>
</g>
</svg>
