<?xml version="1.0" encoding="utf-8"?>
<!-- Generator: Adobe Illustrator 27.4.0, SVG Export Plug-In . SVG Version: 6.00 Build 0)  -->
<svg version="1.1" id="Layer_1" xmlns="http://www.w3.org/2000/svg" xmlns:xlink="http://www.w3.org/1999/xlink" x="0px" y="0px"
	 viewBox="0 0 150 150" enable-background="new 0 0 150 150" xml:space="preserve">
<g>
	<g>
		<rect x="0" fill="none" width="150" height="150"/>
	</g>
	<g>
		<rect x="10" y="10" fill="none" width="130" height="130"/>
	</g>
</g>
<path d="M43,138.1c-4.7,0-8.8-1.7-12.2-5.1c-3.4-3.4-5.1-7.5-5.1-12.2c0-4.8,1.7-8.9,5.1-12.2c3.4-3.3,7.4-5,12.2-5
	c1.2,0,2.3,0.1,3.4,0.3c1.1,0.2,2.1,0.4,2.9,0.8l9-11.7c-1.4-1.9-2.5-4-3.3-6.4c-0.8-2.4-1.1-4.8-0.8-7.3L41.1,74
	c-1.4,2.2-3.3,3.9-5.7,5.2c-2.4,1.3-5.1,1.9-8.2,1.9c-4.7,0-8.8-1.7-12.2-5.1c-3.4-3.4-5.1-7.4-5.1-12.2s1.7-8.8,5.1-12.3
	c3.4-3.5,7.5-5.2,12.2-5.2c4.8,0,8.9,1.7,12.2,5.2c3.3,3.5,5,7.6,5,12.3V64c0,0.1,0,0.1,0,0l13.2,5.3c1.5-2.5,3.3-4.5,5.5-5.9
	c2.1-1.4,4.4-2.4,6.7-3.1V46c-3.3-1-6.2-3.1-8.6-6.2c-2.4-3.1-3.6-6.6-3.6-10.4c0-4.7,1.7-8.8,5.1-12.3c3.4-3.5,7.5-5.2,12.2-5.2
	c4.8,0,8.9,1.7,12.3,5.2c3.4,3.5,5.1,7.6,5.1,12.3c0,3.8-1.2,7.3-3.6,10.4S83.4,45,80.1,46v14.3c2.4,0.7,4.6,1.7,6.8,3.2
	s4,3.4,5.6,5.8l12.9-5.3v0.1v-0.2c0-4.7,1.7-8.8,5.1-12.3c3.4-3.5,7.4-5.2,12.2-5.2s8.8,1.7,12.3,5.2s5.2,7.6,5.2,12.3
	s-1.7,8.8-5.2,12.2c-3.5,3.4-7.6,5.1-12.3,5.1c-3,0-5.8-0.6-8.2-1.9c-2.5-1.3-4.4-3-5.8-5.3l-13.1,5.2c0.2,2.5-0.1,5-0.8,7.4
	S93,91,91.6,92.8l9.1,11.9c0.8-0.4,1.8-0.7,2.9-1c1.1-0.2,2.2-0.3,3.4-0.3c4.8,0,8.9,1.7,12.3,5.1s5.1,7.4,5.1,12.2
	c0,4.7-1.7,8.8-5.1,12.2c-3.4,3.4-7.5,5.1-12.2,5.1c-4.7,0-8.8-1.7-12.2-5.1s-5.1-7.5-5.1-12.3c0-1.9,0.3-3.7,0.8-5.3
	c0.5-1.6,1.2-3.1,2-4.4l-8.9-11.5c-2.7,1.2-5.6,1.8-8.6,1.8c-3,0-5.8-0.6-8.4-1.8l-8.9,11.7c0.8,1.4,1.5,2.8,2,4.4
	c0.5,1.6,0.8,3.3,0.8,5.3c0,4.8-1.7,8.9-5.1,12.3C51.8,136.4,47.7,138.1,43,138.1z M27.1,70.7c1.9,0,3.5-0.7,4.8-2
	c1.4-1.4,2-3,2-4.9c0-1.9-0.7-3.4-2-4.8c-1.4-1.3-3-2-4.9-2c-1.9,0-3.4,0.7-4.8,2s-2,2.9-2,4.9c0,1.9,0.7,3.5,2,4.8
	S25.2,70.7,27.1,70.7z M43,127.6c1.9,0,3.6-0.7,4.9-2c1.3-1.3,2-2.9,2-4.9c0-1.9-0.7-3.5-2-4.8c-1.3-1.4-2.9-2-4.9-2s-3.6,0.7-4.9,2
	s-2,3-2,4.8c0,1.9,0.7,3.6,2,4.9C39.4,126.9,41,127.6,43,127.6z M74.9,36.2c1.9,0,3.6-0.7,4.9-2s2-3,2-4.8c0-1.9-0.7-3.6-2-4.9
	c-1.3-1.3-2.9-2-4.9-2s-3.6,0.7-4.9,2s-2,2.9-2,4.9c0,1.9,0.7,3.5,2,4.8S73,36.2,74.9,36.2z M74.9,89.3c2.5,0,4.5-0.9,6.2-2.6
	c1.7-1.7,2.5-3.8,2.5-6.2c0-2.5-0.8-4.5-2.5-6.2c-1.7-1.7-3.8-2.5-6.2-2.5c-2.4,0-4.4,0.8-6.2,2.5s-2.6,3.8-2.6,6.2
	c0,2.4,0.9,4.4,2.6,6.2S72.6,89.3,74.9,89.3z M106.9,127.6c1.9,0,3.6-0.7,4.9-2c1.3-1.3,2-2.9,2-4.9c0-1.9-0.7-3.5-2-4.8
	c-1.3-1.4-2.9-2-4.9-2s-3.6,0.7-4.9,2c-1.3,1.4-2,3-2,4.8c0,1.9,0.7,3.6,2,4.9C103.3,126.9,105,127.6,106.9,127.6z M122.9,70.7
	c1.9,0,3.4-0.7,4.8-2c1.3-1.4,2-3,2-4.9c0-1.9-0.7-3.4-2-4.8c-1.3-1.3-2.9-2-4.9-2c-1.9,0-3.5,0.7-4.8,2c-1.4,1.3-2,2.9-2,4.9
	c0,1.9,0.7,3.5,2,4.8S121,70.7,122.9,70.7z"/>
</svg>
