<?xml version="1.0" encoding="utf-8"?>
<!-- Generator: Adobe Illustrator 27.4.0, SVG Export Plug-In . SVG Version: 6.00 Build 0)  -->
<svg version="1.1" id="Layer_1" xmlns="http://www.w3.org/2000/svg" xmlns:xlink="http://www.w3.org/1999/xlink" x="0px" y="0px"
	 viewBox="0 0 150 150" style="enable-background:new 0 0 150 150;" xml:space="preserve">
<style type="text/css">
	.st0{clip-path:url(#SVGID_00000109004401417365487050000010333831312710398105_);}
	.st1{clip-path:url(#SVGID_00000114754712716709739220000008721534292607889320_);}
	.st2{clip-path:url(#SVGID_00000164475807452950519260000000842111962823962767_);}
	.st3{clip-path:url(#SVGID_00000085935745353811788290000013894963670621593757_);}
	.st4{clip-path:url(#SVGID_00000042735226580161149640000001026342814188877499_);}
	.st5{clip-path:url(#SVGID_00000094605618306482399060000016184393597106772139_);}
	.st6{clip-path:url(#SVGID_00000085248598573455774470000010459101774649687486_);}
	.st7{clip-path:url(#SVGID_00000119088306247521248830000012476657046601412772_);}
	.st8{clip-path:url(#SVGID_00000043436667055093450890000004067267572626109330_);}
	.st9{clip-path:url(#SVGID_00000043447438421977499290000015024036546326105995_);}
	.st10{fill:#FEE8DA;}
	.st11{fill:url(#SVGID_00000165920227683475281070000005728708506612509624_);}
	.st12{clip-path:url(#SVGID_00000055676183157655057870000012745904525714516639_);}
	.st13{fill:url(#Path_4160_00000127745464056475518780000016243273453830376077_);}
	.st14{fill:url(#Path_4161_00000016037345326688348920000004889589108374301853_);}
	.st15{fill:url(#Path_4162_00000054956396856201271260000002518906036467112878_);}
	.st16{fill:url(#Path_4163_00000168828417091210301250000012745982860122901387_);}
	.st17{fill:url(#Path_4164_00000070836785294436465290000012659232326801130374_);}
	.st18{fill:url(#Path_4165_00000146477094291393351880000009701661997051614385_);}
	.st19{fill:url(#Path_4166_00000028312256558088999470000017196425438739073164_);}
	.st20{fill:url(#Path_4167_00000135667211547093129900000011744267727196433567_);}
	.st21{clip-path:url(#SVGID_00000036218998259423219660000003499059260726601382_);}
	.st22{fill:url(#Path_4157_00000127007413992979443520000014300631335040648079_);}
	.st23{fill:url(#Path_4158_00000181803501226274852470000013134240571828988055_);}
	.st24{fill:url(#Path_4159_00000098203925433403549350000011456958423172280244_);}
	.st25{clip-path:url(#SVGID_00000123431619681975909650000015456471778070269065_);}
	.st26{fill:url(#Path_4168_00000140723301390381993010000014280026406535403152_);}
	.st27{fill:url(#Path_4169_00000093161919529363736120000004839945911865983130_);}
	.st28{fill:url(#Path_4170_00000149359338742389623280000001902482957437663407_);}
	.st29{fill:url(#Path_4171_00000046325126522601802060000005816282089889770428_);}
	.st30{fill:url(#Path_4172_00000148657786576751653270000012846169659944946102_);}
	.st31{fill:url(#Path_4173_00000116231597960184942930000003521664445395583926_);}
	.st32{fill:url(#SVGID_00000142876210177568327180000010883600519407875247_);}
	.st33{fill:url(#SVGID_00000091017680404453326280000004261866959359289743_);}
	.st34{fill:url(#SVGID_00000003082240259471812300000014776405361586199708_);}
	.st35{fill:url(#SVGID_00000056397830898007079810000012224067794336203397_);}
	.st36{fill:url(#SVGID_00000083773440899091984660000000345776106950865808_);}
	.st37{fill:url(#SVGID_00000163769333203865914820000002381388412539877285_);}
	.st38{fill:url(#SVGID_00000172422692909395112920000014198128592664881332_);}
	.st39{fill:url(#SVGID_00000043440364630645948350000002820783352403730866_);}
	.st40{fill:url(#SVGID_00000178204490248293500600000014378628855838184860_);}
	.st41{fill:url(#SVGID_00000058563018143642811290000014392267218414395539_);}
	.st42{fill:url(#SVGID_00000119833070981388412000000002370692635851060639_);}
	.st43{fill:url(#SVGID_00000054248201203554177610000016549898031999740042_);}
	.st44{fill:url(#SVGID_00000138532564610585348790000005646946034569293711_);}
	.st45{fill:url(#SVGID_00000139285504944050958820000005205202574706602924_);}
	.st46{fill:url(#SVGID_00000070805236550583878110000005890327663643012262_);}
	.st47{fill:url(#SVGID_00000178199702500090211860000001868562765691092898_);}
	.st48{fill:url(#SVGID_00000078739655155393087090000014883477803013185706_);}
	.st49{fill:url(#SVGID_00000145026000014388282330000007253190951582018945_);}
	.st50{fill:url(#SVGID_00000070091123066816018860000016236658569014401455_);}
	.st51{fill:url(#SVGID_00000175304032534014238840000009151050035085513603_);}
	.st52{fill:url(#SVGID_00000052797834531239674080000011583580243332079775_);}
</style>
<ellipse id="Ellipse_113_00000093135977669225366560000000918986127653052820_" class="st10" cx="75" cy="75" rx="70" ry="70"/>
<g>
	
		<linearGradient id="SVGID_00000062154185772353910650000003822328488183908542_" gradientUnits="userSpaceOnUse" x1="42.4543" y1="89.3215" x2="87.5461" y2="89.3215">
		<stop  offset="0" style="stop-color:#FF6600"/>
		<stop  offset="0" style="stop-color:#FF5204"/>
		<stop  offset="1" style="stop-color:#FF270D"/>
	</linearGradient>
	<path style="fill:url(#SVGID_00000062154185772353910650000003822328488183908542_);" d="M87.5,89.3c0,0-10.1-11.6-22.5-11.6
		S42.5,89.3,42.5,89.3S52.5,101,65,101S87.5,89.3,87.5,89.3z M65,99.8c-5.8,0-10.5-4.7-10.5-10.5c0-5.8,4.7-10.5,10.5-10.5
		s10.5,4.7,10.5,10.5C75.5,95.1,70.8,99.8,65,99.8L65,99.8z"/>
	
		<linearGradient id="SVGID_00000171694321798013173070000009578558220904924589_" gradientUnits="userSpaceOnUse" x1="51.3149" y1="54.7774" x2="86.8227" y2="54.7774">
		<stop  offset="0" style="stop-color:#FF6600"/>
		<stop  offset="0" style="stop-color:#FF5204"/>
		<stop  offset="1" style="stop-color:#FF270D"/>
	</linearGradient>
	<path style="fill:url(#SVGID_00000171694321798013173070000009578558220904924589_);" d="M61.7,69.6c1.2,0,2.4-0.1,3.8-0.3V67
		c-5.3,1-9.6-0.1-11.2-2.8C53,62,53.4,59,55.4,55.7c2.1-3.5,5.7-6.8,10.2-9.4c4.7-2.7,9.7-4.1,13.7-4.1c0.2,0,0.4,0,0.6,0
		c0.1,0,0.2,0,0.3,0h6.6c-4.5-3.5-13.7-2.8-22.3,2.2c-4.8,2.7-8.6,6.4-11,10.2c-2.4,4-2.9,7.8-1.2,10.7
		C53.9,68.1,57.3,69.6,61.7,69.6L61.7,69.6z"/>
	
		<linearGradient id="SVGID_00000127751353179957608820000004716044867152974012_" gradientUnits="userSpaceOnUse" x1="60.753" y1="89.3207" x2="69.2473" y2="89.3207">
		<stop  offset="0" style="stop-color:#FF6600"/>
		<stop  offset="0" style="stop-color:#FF5204"/>
		<stop  offset="1" style="stop-color:#FF270D"/>
	</linearGradient>
	<path style="fill:url(#SVGID_00000127751353179957608820000004716044867152974012_);" d="M65,85.1c-2.3,0-4.2,1.9-4.2,4.2
		c0,2.3,1.9,4.2,4.2,4.2c2.3,0,4.2-1.9,4.2-4.2C69.2,87,67.3,85.1,65,85.1z"/>
	
		<linearGradient id="SVGID_00000149371361625694564410000001358740263793907878_" gradientUnits="userSpaceOnUse" x1="67.6895" y1="77.2031" x2="107.5458" y2="77.2031">
		<stop  offset="0" style="stop-color:#FF6600"/>
		<stop  offset="0" style="stop-color:#FF5204"/>
		<stop  offset="1" style="stop-color:#FF270D"/>
	</linearGradient>
	<path style="fill:url(#SVGID_00000149371361625694564410000001358740263793907878_);" d="M105.3,54.2c-3.8-0.8-6.7-3.8-7.6-7.6
		c-0.3-1.3-1.4-2.2-2.7-2.2H80.2c-1.3,0-2.4,0.9-2.7,2.2c-0.9,3.8-3.8,6.7-7.6,7.6c-1.3,0.3-2.2,1.4-2.2,2.7v18.7
		c1.9,0.2,3.7,0.7,5.4,1.2v-5.3c0-1.7,1.4-3.1,3.1-3.1H99c1.7,0,3.1,1.4,3.1,3.1v29.9c0,1.7-1.4,3.1-3.1,3.1H76.2
		c-1.6,0-3-1.3-3.1-2.9c-1.7,0.6-3.5,1-5.4,1.2v4.2c0,1.5,1.2,2.8,2.8,2.8h34.3c1.5,0,2.8-1.2,2.8-2.8l0-50.3
		C107.6,55.6,106.6,54.5,105.3,54.2L105.3,54.2z M87.6,55.9c-1.8,0-3.3-1.5-3.3-3.3c0-1.8,1.5-3.3,3.3-3.3c1.8,0,3.3,1.5,3.3,3.3
		C90.9,54.5,89.5,55.9,87.6,55.9z"/>
</g>
</svg>
