<?xml version="1.0" encoding="utf-8"?>
<!-- Generator: Adobe Illustrator 27.4.0, SVG Export Plug-In . SVG Version: 6.00 Build 0)  -->
<svg version="1.1" id="Layer_1" xmlns="http://www.w3.org/2000/svg" xmlns:xlink="http://www.w3.org/1999/xlink" x="0px" y="0px"
	 viewBox="0 0 150 150" enable-background="new 0 0 150 150" xml:space="preserve">
<g>
	<g>
		<rect x="0" fill="none" width="150" height="150"/>
	</g>
	<g>
		<rect x="10" y="10" fill="none" width="130" height="130"/>
	</g>
</g>
<g>
	<path d="M24.7,127.4c-3.9,0-7.3-1.4-10.1-4.2c-2.8-2.8-4.2-6.1-4.2-10.1V37c0-3.9,1.4-7.3,4.2-10.2c2.8-2.8,6.1-4.3,10.1-4.3h76.2
		c3.9,0,7.3,1.4,10.2,4.3s4.3,6.2,4.3,10.2v31.3l17.9-17.9c1.1-1.2,2.5-1.5,4-0.9s2.4,1.7,2.4,3.3v44.5c0,1.7-0.8,2.9-2.4,3.5
		c-1.6,0.6-2.9,0.3-4-0.9l-17.9-17.9v31.3c0,3.9-1.4,7.3-4.3,10.1c-2.8,2.8-6.2,4.2-10.2,4.2L24.7,127.4z M24.7,113.2h76.2V37H24.7
		V113.2z M24.7,113.2V37V113.2z"/>
</g>
</svg>
