<?xml version="1.0" encoding="utf-8"?>
<!-- Generator: Adobe Illustrator 27.4.0, SVG Export Plug-In . SVG Version: 6.00 Build 0)  -->
<svg version="1.1" id="Layer_1" xmlns="http://www.w3.org/2000/svg" xmlns:xlink="http://www.w3.org/1999/xlink" x="0px" y="0px"
	 viewBox="0 0 150 150" enable-background="new 0 0 150 150" xml:space="preserve">
<g>
	<g>
		<rect x="0" fill="none" width="150" height="150"/>
	</g>
	<g>
		<rect x="10" y="10" fill="none" width="130" height="130"/>
	</g>
</g>
<g>
	<path id="work_history_FILL0_wght600_GRAD0_opsz48_00000116945394175921622640000001534436896638647972_" d="M22.9,119.3
		 M111.1,46.2H22.8v73.1h49.8c0.4,2.2,1.1,4.3,2,6.3c0.9,2,1.9,3.9,3.1,5.8l-54.8,0c-3.2,0-6.3-1.3-8.5-3.6
		c-2.3-2.2-3.6-5.3-3.5-8.5V46.2c0-6.6,5.4-11.9,12-12h26V22c0-3.2,1.3-6.2,3.5-8.4c2.2-2.3,5.3-3.7,8.5-3.6h25.4
		c3.2,0,6.3,1.3,8.5,3.6c2.3,2.2,3.6,5.3,3.5,8.4v12.1h26c3.2,0,6.3,1.2,8.5,3.5c2.3,2.2,3.6,5.3,3.6,8.5v36.9
		c-1.7-1.6-3.6-3.1-5.6-4.4c-2-1.3-4.2-2.4-6.4-3.3V46.2H111.1 M60.9,34.2h25.4V22H60.9L60.9,34.2z M109.9,140
		c-16.3,0.2-29.6-12.9-29.8-29.2C80,94.6,93.1,81.2,109.4,81.1c16.3-0.2,29.6,12.9,29.8,29.2c0.1,7.9-3,15.5-8.6,21.1
		C125.2,137,117.7,140.1,109.9,140z M121.1,126.8l4.8-4.8l-13-11.7V91.2h-7.2v21.2L121.1,126.8z"/>
	<path d="M109.6,141c-16.7,0-30.3-13.5-30.5-30.2c-0.1-8.1,3-15.8,8.7-21.6s13.3-9.1,21.5-9.1c0.1,0,0.2,0,0.3,0
		c8,0,15.6,3.1,21.3,8.7c5.8,5.7,9.1,13.3,9.1,21.5c0.1,8.1-3.2,16.1-8.9,21.8c-5.5,5.8-13.3,9-21.3,9
		C109.8,141,109.7,141,109.6,141z M109.7,82.1c-0.1,0-0.2,0-0.3,0c-7.6,0.1-14.7,3.1-20.1,8.5c-5.3,5.4-8.2,12.6-8.1,20.2
		c0.2,15.7,13,28.4,28.8,28.2h0c7.5,0.1,14.7-3,19.9-8.4c5.4-5.4,8.4-12.8,8.3-20.4c-0.1-7.6-3.1-14.7-8.5-20.1
		C124.2,85,117.2,82.1,109.7,82.1z M22.7,132.4c-3.4,0-6.7-1.4-9-3.9c-2.5-2.4-3.9-5.8-3.8-9.2V46.2c0.1-7.1,5.9-12.9,13-13h25V22
		c0-3.4,1.4-6.8,3.8-9.2c2.3-2.5,5.7-4,9.2-3.9h25.4c3.5,0,6.8,1.4,9.2,4c2.4,2.4,3.8,5.7,3.8,9.1v11.1h25c0.1,0,0.1,0,0.2,0
		c3.4,0,6.7,1.4,9.1,3.8c2.5,2.4,3.9,5.7,3.8,9.2v39.2l-1.7-1.6c-1.7-1.6-3.5-3-5.5-4.3c-2-1.3-4.1-2.3-6.3-3.2l-0.6-0.2V47.2H23.8
		v71.1h49.6l0.2,0.8c0.4,2.1,1,4.2,1.9,6.1c0.9,1.9,1.9,3.8,3.1,5.6l1,1.6H22.9C22.8,132.4,22.8,132.4,22.7,132.4z M22.9,35.2
		c-6,0-11,5-11,11v73.1c0,2.9,1.1,5.8,3.2,7.8c2,2.1,4.8,3.3,7.7,3.3h53c-0.8-1.4-1.6-2.9-2.2-4.4c-0.8-1.8-1.4-3.8-1.9-5.7h-50
		V45.2h103.5v29.6c2.1,0.8,4.1,1.9,6,3.1c1.4,0.9,2.8,1.9,4.1,3V46.2c0-2.9-1.2-5.7-3.3-7.7c-2.1-2.1-4.9-3.3-7.8-3.3h-27V22
		c0-2.9-1.2-5.7-3.2-7.7c-2-2.2-4.9-3.4-7.7-3.3H60.9c-2.9,0-5.7,1.2-7.7,3.3c-2.1,2.1-3.3,4.9-3.3,7.8v13.1H22.9z M121.2,128.2
		l-16.5-15.3V90.2h9.2v19.6l13.5,12.1L121.2,128.2z M106.7,112l14.4,13.4l3.3-3.3l-12.6-11.3V92.2h-5.2V112z M87.3,35.2H59.9l0-14.1
		h27.4V35.2z M61.9,33.2h23.4V23H61.9L61.9,33.2z"/>
</g>
</svg>
