<?xml version="1.0" encoding="UTF-8"?>
<svg id="Layer_1" data-name="Layer 1" xmlns="http://www.w3.org/2000/svg" viewBox="0 0 300 300">
  <defs>
    <style>
      .cls-1 {
        fill: #000;
        stroke-width: 0px;
      }
    </style>
  </defs>
  <path class="cls-1" d="M0,183.33v-33.33h116.67v33.33H0ZM0,116.67v-33.33h183.33v33.33H0ZM0,50V16.67h183.33v33.33H0ZM150,283.33v-51.25l92.08-91.67c2.5-2.5,5.28-4.31,8.33-5.42,3.06-1.11,6.11-1.67,9.17-1.67,3.33,0,6.53.63,9.58,1.88,3.06,1.25,5.83,3.13,8.33,5.62l15.42,15.42c2.22,2.5,3.96,5.28,5.21,8.33,1.25,3.06,1.87,6.11,1.87,9.17s-.56,6.18-1.67,9.37c-1.11,3.19-2.92,6.04-5.42,8.54l-91.67,91.67h-51.25ZM275,173.75l-15.42-15.42,15.42,15.42ZM175,258.33h15.83l50.42-50.83-7.5-7.92-7.92-7.5-50.83,50.42v15.83ZM233.75,199.58l-7.92-7.5,15.42,15.42-7.5-7.92Z"/>
</svg>