<?xml version="1.0" encoding="utf-8"?>
<!-- Generator: Adobe Illustrator 27.7.0, SVG Export Plug-In . SVG Version: 6.00 Build 0)  -->
<svg version="1.1" id="Layer_1" xmlns="http://www.w3.org/2000/svg" xmlns:xlink="http://www.w3.org/1999/xlink" x="0px" y="0px"
	 viewBox="0 0 150 150" style="enable-background:new 0 0 150 150;" xml:space="preserve">
<style type="text/css">
	.st0{fill:none;}
	.st1{fill:#343634;}
</style>
<g>
	<g>
		<rect class="st0" width="150" height="150"/>
	</g>
	<g>
		<rect x="10" y="10" class="st0" width="130" height="130"/>
	</g>
</g>
<path class="st1" d="M56,133.1c-4.5,0-8.5-1.2-12-3.7c-3.5-2.5-5.9-5.9-7.4-10.2c-1.5,3-3.4,5.2-5.9,6.7c-2.5,1.5-5.3,2.2-8.5,2.2
	c-4.6,0-8.4-1.6-11.5-4.8c-3.1-3.2-4.6-7-4.6-11.5c0-5,1.6-9,4.8-11.9c3.2-2.9,7.3-4.2,12.2-3.9c-1.7-1.9-3-4.1-3.9-6.5
	c-0.9-2.4-1.3-4.9-1.3-7.4c0-3.9,1-7.4,2.9-10.7c2-3.2,4.8-5.8,8.7-7.7c0.5,1.6,1.3,3.3,2.3,4.9c1,1.6,1.8,3.1,2.5,4.5
	c-2,1.1-3.5,2.5-4.4,4.1c-1,1.6-1.4,3.4-1.4,5.3c0,5.2,2.2,8.4,6.5,9.7s8.4,2.2,12.3,2.9l2,3.5c-0.8,2.5-1.6,4.8-2.5,6.9
	c-0.8,2.2-1.2,4.3-1.2,6.5c0,2.7,1,5.2,3,7.3c2,2.2,4.5,3.2,7.6,3.2c2.9,0,5.3-1.1,7.3-3.2c2-2.1,3.7-4.8,5-8.1
	c1.4-3.3,2.5-6.7,3.4-10.4c0.9-3.6,1.7-6.9,2.3-9.8c0.2-1.4,0.9-2.5,2.2-3.3c1.3-0.8,2.6-1,4-0.7c1.4,0.5,2.4,1.5,3.2,2.8
	s0.9,2.8,0.5,4.4c-1,4-2.1,8.3-3.3,12.9c-1.2,4.6-2.9,8.8-5,12.7c-2.1,3.8-4.8,7-7.9,9.5C64.8,131.8,60.8,133.1,56,133.1z
	 M22.4,117.5c1.8,0,3.2-0.5,4.2-1.5c1-1,1.5-2.4,1.5-4.1c0-1.7-0.5-3.1-1.5-4.2c-1-1-2.4-1.6-4.1-1.6c-1.9,0-3.3,0.5-4.2,1.5
	c-1,1-1.4,2.4-1.4,4.2c0,1.7,0.5,3.1,1.4,4.1C19.2,117,20.5,117.5,22.4,117.5z M65.7,85.7c-1.1,1.2-2.4,1.8-3.9,1.7
	c-1.5,0-2.9-0.6-4.2-1.7c-5.1-4.7-9.8-9.7-14-14.8c-4.3-5.1-6.4-10.8-6.4-17c0-5.9,2-10.8,6-14.8c4-4,8.9-6.1,14.7-6.1
	c0.8,0,1.5,0,2.2,0.1c0.6,0.1,1.3,0.2,1.9,0.3c-1.2-1.6-2-3.1-2.4-4.5c-0.4-1.4-0.6-2.8-0.6-4.2c0-4.5,1.6-8.3,4.7-11.5
	c3.1-3.2,6.9-4.7,11.5-4.7c4.6,0,8.4,1.6,11.5,4.7c3.1,3.2,4.6,7,4.6,11.5c0,1.4-0.2,2.8-0.6,4.1c-0.4,1.4-1.2,2.9-2.4,4.6
	c0.5,0,1.1-0.1,1.8-0.2s1.4-0.2,2.2-0.2c5.6,0,10.3,1.8,14.2,5.5s6,8.3,6.4,13.8c-1.6-0.2-3.4-0.2-5.2-0.1c-1.9,0.1-3.5,0.2-5,0.3
	c-0.5-2.6-1.6-4.7-3.6-6.4c-1.9-1.7-4.2-2.6-6.9-2.6c-3.5,0-6.3,1.1-8.3,3.4c-2,2.3-4.3,4.9-6.9,7.9h-3.8c-2.5-3.1-4.8-5.7-7-8
	c-2.2-2.2-5-3.3-8.2-3.3c-3.2,0-5.7,0.9-7.5,2.8c-1.8,1.9-2.7,4.4-2.7,7.5c0,3.8,1.8,7.8,5.4,12c3.6,4.2,7.7,8.4,12.2,12.5
	c1,1.2,1.6,2.5,1.7,3.9C67.1,83.7,66.7,84.8,65.7,85.7z M75,30.4c1.7,0,3.1-0.5,4.2-1.5c1-1,1.6-2.4,1.6-4.1c0-1.8-0.5-3.2-1.5-4.2
	c-1-1-2.4-1.5-4.2-1.5c-1.7,0-3.1,0.5-4.1,1.5c-1,1-1.5,2.4-1.5,4.2c0,1.8,0.5,3.2,1.5,4.2C72,29.9,73.3,30.4,75,30.4z M93.8,133.2
	c-2.3,0-4.5-0.3-6.6-1c-2.1-0.7-4.2-1.8-6.3-3.5c0.7-1.3,1.6-2.8,2.7-4.6c1.1-1.8,1.9-3.4,2.4-5c1.1,1.3,2.3,2.2,3.8,2.7
	c1.5,0.6,2.9,0.8,4.2,0.8c2.8,0,5.2-1.1,7.3-3.2c2-2.1,3.1-4.7,3.1-7.6c0-2.1-0.5-4.2-1.4-6.3s-1.7-4.5-2.3-7l1.9-3.4
	c3.9-0.7,8-1.7,12.4-2.9c4.4-1.2,6.5-4.4,6.5-9.7c0-3.8-1.4-6.5-4.1-8.2c-2.8-1.7-5.7-2.5-8.9-2.5c-3.7,0-7.6,0.5-11.8,1.5
	c-4.2,1-8.5,2.3-12.7,3.8c-1.5,0.4-2.8,0.3-4-0.2c-1.2-0.5-2-1.5-2.5-3c-0.5-1.2-0.3-2.6,0.6-4c1-1.5,2.1-2.4,3.5-2.9
	c4.7-1.5,9.3-2.8,13.7-4c4.5-1.2,8.7-1.7,12.8-1.7c6.2,0,11.7,1.8,16.6,5.4c4.9,3.6,7.3,8.9,7.3,15.7c0,2.5-0.5,4.9-1.4,7.2
	c-0.9,2.4-2.2,4.5-3.8,6.4c4.7-0.2,8.8,1.2,12.1,4.2c3.4,3,5,6.9,5,11.6c0,4.5-1.6,8.3-4.7,11.5c-3.1,3.2-6.9,4.8-11.4,4.8
	c-3.2,0-6.1-0.7-8.7-2.2c-2.6-1.5-4.5-3.8-5.8-6.9c-1.5,4.5-3.9,7.9-7.5,10.4C102.6,132,98.5,133.2,93.8,133.2z M128.1,117.7
	c1.7,0,3.1-0.5,4.1-1.5c1-1,1.5-2.4,1.5-4.1c0-1.6-0.5-3-1.6-4.2c-1-1.1-2.5-1.7-4.2-1.7c-1.8,0-3.1,0.5-4.1,1.6
	c-1,1-1.4,2.4-1.4,4.2c0,1.6,0.5,3,1.6,4.1C124.9,117.1,126.3,117.7,128.1,117.7z"/>
</svg>
