<?xml version="1.0" encoding="utf-8"?>
<!-- Generator: Adobe Illustrator 27.7.0, SVG Export Plug-In . SVG Version: 6.00 Build 0)  -->
<svg version="1.1" id="Layer_1" xmlns="http://www.w3.org/2000/svg" xmlns:xlink="http://www.w3.org/1999/xlink" x="0px" y="0px"
	 viewBox="0 0 150 150" style="enable-background:new 0 0 150 150;" xml:space="preserve">
<style type="text/css">
	.st0{fill:none;}
	.st1{fill:#343634;}
</style>
<g>
	<g>
		<rect class="st0" width="150" height="150"/>
	</g>
	<g>
		<rect x="10" y="10" class="st0" width="130" height="130"/>
	</g>
</g>
<path class="st1" d="M46.9,75l12.4,12.4c0.9,0.9,1.4,2,1.4,3.1s-0.5,2.2-1.5,3.2c-0.9,0.9-1.9,1.3-3,1.3c-1.2,0-2.2-0.5-3-1.4
	L38.7,79.1C37.6,78,37,76.7,37,75c0-1.7,0.6-3.1,1.7-4.2l14.4-14.4c0.9-0.9,1.9-1.3,3.1-1.3c1.2,0,2.2,0.4,3.1,1.3
	c1,0.9,1.5,2,1.4,3.1c0,1.2-0.5,2.2-1.4,3.2L46.9,75z M36.7,101.6h11.6v9.2h53.4v-9.2h11.6V122c0,3.2-1.2,5.9-3.5,8.2
	c-2.4,2.3-5.1,3.4-8.1,3.4H48.3c-3,0-5.7-1.1-8.1-3.4c-2.4-2.3-3.5-5-3.5-8.2V101.6z M48.3,46.9H36.7V28c0-3.2,1.2-5.9,3.5-8.2
	c2.4-2.3,5.1-3.4,8.1-3.4h53.4c3,0,5.7,1.1,8.1,3.4c2.4,2.3,3.5,5,3.5,8.2v18.9h-11.6v-7.7H48.3V46.9z M48.3,118.1v4h53.4v-4H48.3z
	 M48.3,31.9h53.4v-4H48.3V31.9z M103.1,75L90.7,62.6c-0.9-0.9-1.4-2-1.4-3.1c0-1.2,0.5-2.2,1.5-3.2c0.9-0.9,1.9-1.3,3-1.3
	c1.2,0,2.2,0.5,3.2,1.3l14.4,14.4c1,1.2,1.5,2.6,1.5,4.3c0,1.7-0.5,3-1.5,4L97,93.5c-1,0.9-2,1.4-3.2,1.4c-1.2,0-2.2-0.4-3.1-1.3
	c-1-0.9-1.5-2-1.4-3.1c0-1.2,0.5-2.2,1.4-3.1L103.1,75z M48.3,31.9v-4V31.9z M48.3,118.1v4V118.1z"/>
</svg>
