<?xml version="1.0" encoding="UTF-8"?>
<svg id="Layer_1" data-name="Layer 1" xmlns="http://www.w3.org/2000/svg" viewBox="0 0 300 300">
  <defs>
    <style>
      .cls-1 {
        fill: #000;
        stroke-width: 0px;
      }
    </style>
  </defs>
  <path class="cls-1" d="M89.9,241.75L1.31,153.16c-1.74-1.74-1.74-4.57,0-6.31L89.9,58.25c1.74-1.74,4.57-1.74,6.31,0l13.86,13.86c1.74,1.74,1.74,4.57,0,6.31l-68.43,68.43c-1.74,1.74-1.74,4.57,0,6.31l68.43,68.43c1.74,1.74,1.74,4.57,0,6.31l-13.86,13.86c-1.74,1.74-4.57,1.74-6.31,0ZM203.79,241.75l-13.86-13.86c-1.74-1.74-1.74-4.57,0-6.31l68.43-68.43c1.74-1.74,1.74-4.57,0-6.31l-68.43-68.43c-1.74-1.74-1.74-4.57,0-6.31l13.86-13.86c1.74-1.74,4.57-1.74,6.31,0l88.59,88.59c1.74,1.74,1.74,4.57,0,6.31l-88.59,88.59c-1.74,1.74-4.57,1.74-6.31,0Z"/>
</svg>