<?xml version="1.0" encoding="utf-8"?>
<!-- Generator: Adobe Illustrator 27.3.1, SVG Export Plug-In . SVG Version: 6.00 Build 0)  -->
<svg version="1.1" id="Layer_1" xmlns="http://www.w3.org/2000/svg" xmlns:xlink="http://www.w3.org/1999/xlink" x="0px" y="0px"
	 viewBox="0 0 150 150" enable-background="new 0 0 150 150" xml:space="preserve">
<g>
	<g>
		<rect x="0" fill="none" width="150" height="150"/>
	</g>
	<g>
		<rect x="10" y="10" fill="none" width="130" height="130"/>
	</g>
</g>
<g>
	
		<linearGradient id="settings_input_component_FILL0_wght700_GRAD0_opsz48_00000090258624681588129840000013058113786850844046_" gradientUnits="userSpaceOnUse" x1="-1708.6281" y1="453.7722" x2="-1708.6281" y2="448.5655" gradientTransform="matrix(25.0002 0 0 -25.0757 42791.0938 11388.3877)">
		<stop  offset="0" style="stop-color:#FF6600"/>
		<stop  offset="0" style="stop-color:#FF5204"/>
		<stop  offset="1" style="stop-color:#FF270D"/>
	</linearGradient>
	
		<path id="settings_input_component_FILL0_wght700_GRAD0_opsz48_00000165925407212677618410000010590880802482507915_" fill="url(#settings_input_component_FILL0_wght700_GRAD0_opsz48_00000090258624681588129840000013058113786850844046_)" d="
		M27.2,140.3c-1.4,0.1-2.8-0.5-3.7-1.4c-1-1-1.5-2.4-1.4-3.8v-19.8c-3.3-1.4-6.3-3.6-8.5-6.4c-2.3-2.7-3.6-6.2-3.6-9.8V46.9
		c0-3.7,2.9-6.8,6.7-6.9c0.1,0,0.1,0,0.2,0H22V15.4c-0.2-2.9,1.9-5.4,4.8-5.7c2.9-0.2,5.4,1.9,5.7,4.8c0,0.3,0,0.5,0,0.8V40h5.3
		c3.7,0,6.8,2.9,6.9,6.7c0,0.1,0,0.1,0,0.2v52c0,3.6-1.2,7.1-3.5,9.8c-2.3,2.9-5.2,5.1-8.6,6.4v20c0,1.4-0.5,2.7-1.6,3.6
		C30,139.8,28.6,140.3,27.2,140.3z M74.9,140.3c-1.4,0.1-2.8-0.5-3.7-1.4c-1-1-1.5-2.4-1.4-3.8v-19.8c-3.3-1.4-6.3-3.6-8.5-6.4
		c-2.3-2.7-3.6-6.2-3.6-9.8V46.9c0-3.7,2.9-6.8,6.7-6.9c0.1,0,0.1,0,0.2,0h5.3V15.4c-0.2-2.9,1.9-5.4,4.8-5.7
		c2.9-0.2,5.4,1.9,5.7,4.8c0,0.3,0,0.5,0,0.8V40h5.3c3.7,0,6.8,2.9,6.9,6.7c0,0.1,0,0.1,0,0.2v52c0,3.6-1.2,7.1-3.5,9.8
		c-2.3,2.9-5.2,5.1-8.6,6.4v20c0,1.4-0.5,2.7-1.6,3.6C77.7,139.8,76.3,140.3,74.9,140.3z M122.6,140.3c-1.4,0.1-2.8-0.5-3.7-1.4
		c-1-1-1.5-2.4-1.4-3.8v-19.8c-3.3-1.4-6.3-3.6-8.5-6.4c-2.3-2.7-3.6-6.2-3.6-9.8V46.9c0-3.7,2.9-6.8,6.7-6.9c0.1,0,0.1,0,0.2,0h5.3
		V15.4c-0.2-2.9,1.9-5.4,4.8-5.7c2.9-0.2,5.4,1.9,5.7,4.8c0,0.3,0,0.5,0,0.8V40h5.3c3.7-0.1,6.8,2.9,6.9,6.7c0,0.1,0,0.1,0,0.2v52
		c0,3.6-1.3,7.1-3.6,9.8c-2.3,2.8-5.2,5-8.5,6.4v20c0,1.4-0.5,2.7-1.6,3.6C125.4,139.8,124,140.3,122.6,140.3z M20.4,50.5v25.1h13.7
		V50.5H20.4z M68.1,50.5v25.1h13.7V50.5H68.1z M115.9,50.5v25.1h13.7V50.5H115.9z M27.3,105.4c1.8,0,3.6-0.7,4.8-2.1
		c1.3-1.3,2-3,2-4.8V86.1H20.4v12.5c0,1.8,0.7,3.5,2,4.7C23.7,104.7,25.5,105.4,27.3,105.4L27.3,105.4z M75.1,105.4
		c1.8,0,3.6-0.7,4.8-2.1c1.3-1.3,2-3,2-4.8V86.1H68.1v12.5c0,1.8,0.7,3.5,2,4.7C71.4,104.7,73.2,105.4,75.1,105.4L75.1,105.4z
		 M122.8,105.4c1.8,0,3.6-0.7,4.8-2.1c1.3-1.3,2-3,2-4.8V86.1h-13.7v12.5c0,1.8,0.7,3.5,2,4.7C119.2,104.7,120.9,105.4,122.8,105.4
		L122.8,105.4z M20.4,75.6L20.4,75.6z M68.1,75.6L68.1,75.6z M115.9,75.6L115.9,75.6z M27.3,86.1L27.3,86.1z M75.1,86.1L75.1,86.1z
		 M122.8,86.1L122.8,86.1z"/>
</g>
</svg>
