<?xml version="1.0" encoding="UTF-8"?>
<svg id="Layer_1" data-name="Layer 1" xmlns="http://www.w3.org/2000/svg" viewBox="0 0 300 300">
  <defs>
    <style>
      .cls-1 {
        fill: #000;
        stroke-width: 0px;
      }
    </style>
  </defs>
  <path class="cls-1" d="M28.12,290.62c-7.73,0-14.36-2.75-19.86-8.26-5.51-5.51-8.26-12.13-8.26-19.86V93.75c0-7.73,2.75-14.36,8.26-19.86,5.51-5.51,12.13-8.26,19.86-8.26h65.62v-28.21c0-7.76,2.76-14.37,8.27-19.84,5.51-5.47,12.14-8.2,19.89-8.2h56.32c7.74,0,14.35,2.75,19.82,8.26,5.47,5.51,8.2,12.13,8.2,19.86v28.13h65.63c7.73,0,14.36,2.75,19.86,8.26,5.51,5.51,8.26,12.13,8.26,19.86v168.75c0,7.73-2.75,14.36-8.26,19.86-5.51,5.51-12.13,8.26-19.86,8.26H28.12ZM28.12,262.5h243.75V93.75H28.12v168.75ZM121.87,65.62h56.25v-28.13h-56.25v28.13ZM28.12,262.5V93.75v168.75Z"/>
</svg>