<?xml version="1.0" encoding="UTF-8"?>
<svg id="Layer_1" data-name="Layer 1" xmlns="http://www.w3.org/2000/svg" viewBox="0 0 300 300">
  <defs>
    <style>
      .cls-1 {
        fill: #000;
        stroke-width: 0px;
      }
    </style>
  </defs>
  <path class="cls-1" d="M80,50c-5.56,0-10.28,1.94-14.17,5.83-3.89,3.89-5.83,8.61-5.83,14.17s1.94,10.28,5.83,14.17c3.89,3.89,8.61,5.83,14.17,5.83s10.28-1.94,14.17-5.83c3.89-3.89,5.83-8.61,5.83-14.17s-1.94-10.28-5.83-14.17c-3.89-3.89-8.61-5.83-14.17-5.83ZM80,210c-5.56,0-10.28,1.94-14.17,5.83-3.89,3.89-5.83,8.61-5.83,14.17s1.94,10.28,5.83,14.17c3.89,3.89,8.61,5.83,14.17,5.83s10.28-1.94,14.17-5.83c3.89-3.89,5.83-8.61,5.83-14.17s-1.94-10.28-5.83-14.17c-3.89-3.89-8.61-5.83-14.17-5.83ZM30,0h240c5.67,0,10.42,1.92,14.25,5.75,3.83,3.83,5.75,8.58,5.75,14.25v100c0,5.67-1.92,10.42-5.75,14.25-3.83,3.83-8.58,5.75-14.25,5.75H30c-5.67,0-10.42-1.92-14.25-5.75-3.83-3.83-5.75-8.58-5.75-14.25V20c0-5.67,1.92-10.42,5.75-14.25C19.58,1.92,24.33,0,30,0ZM40,30v80h220V30H40ZM30,160h240c5.67,0,10.42,1.92,14.25,5.75,3.83,3.83,5.75,8.58,5.75,14.25v100c0,5.67-1.92,10.42-5.75,14.25-3.83,3.83-8.58,5.75-14.25,5.75H30c-5.67,0-10.42-1.92-14.25-5.75-3.83-3.83-5.75-8.58-5.75-14.25v-100c0-5.67,1.92-10.42,5.75-14.25,3.83-3.83,8.58-5.75,14.25-5.75ZM40,190v80h220v-80H40ZM40,30v80V30ZM40,190v80-80Z"/>
</svg>