<?xml version="1.0" encoding="UTF-8"?>
<svg id="Layer_1" data-name="Layer 1" xmlns="http://www.w3.org/2000/svg" viewBox="0 0 300 300">
  <defs>
    <style>
      .cls-1 {
        fill: #000;
        stroke-width: 0px;
      }
    </style>
  </defs>
  <path class="cls-1" d="M20.49,222.92L0,208.33l66.67-108.33,41.67,50,58.33-91.67,41.67,58.33c-4.86,0-9.55.35-14.06,1.04-4.51.69-8.97,1.85-13.37,3.47l-13.19-18.06-56.6,89.24-41.32-49.65-49.31,80.21ZM282.29,291.67l-42.71-42.71c-4.63,3.01-9.55,5.32-14.76,6.94-5.21,1.62-10.71,2.43-16.49,2.43-16.2,0-29.98-5.67-41.32-17.01-11.34-11.34-17.01-25.12-17.01-41.32s5.67-29.98,17.01-41.32c11.34-11.34,25.12-17.01,41.32-17.01s29.98,5.67,41.32,17.01c11.34,11.34,17.01,25.12,17.01,41.32,0,5.79-.81,11.28-2.43,16.49-1.62,5.21-3.94,10.13-6.94,14.76l42.71,42.71-17.71,17.71ZM208.33,233.33c9.26,0,17.13-3.24,23.61-9.72,6.48-6.48,9.72-14.35,9.72-23.61s-3.24-17.13-9.72-23.61c-6.48-6.48-14.35-9.72-23.61-9.72s-17.13,3.24-23.61,9.72c-6.48,6.48-9.72,14.35-9.72,23.61s3.24,17.13,9.72,23.61c6.48,6.48,14.35,9.72,23.61,9.72ZM235.42,121.18c-4.17-1.62-8.56-2.78-13.19-3.47-4.63-.69-9.26-1.04-13.89-1.04L279.51,8.33l20.49,14.58-64.58,98.26Z"/>
</svg>