<?xml version="1.0" encoding="utf-8"?>
<!-- Generator: Adobe Illustrator 27.3.1, SVG Export Plug-In . SVG Version: 6.00 Build 0)  -->
<svg version="1.1" id="Layer_1" xmlns="http://www.w3.org/2000/svg" xmlns:xlink="http://www.w3.org/1999/xlink" x="0px" y="0px"
	 viewBox="0 0 150 150" enable-background="new 0 0 150 150" xml:space="preserve">
<g>
	<g>
		<rect x="0" fill="none" width="150" height="150"/>
	</g>
	<g>
		<rect x="10" y="10" fill="none" width="130" height="130"/>
	</g>
</g>
<g>
	<path d="M24.1,116.8c-4.5-4.9-7.8-10.4-9.9-16.6s-3.5-12.5-4.1-19h14.8c0.8,4.5,2,8.8,3.5,13.1c1.5,4.2,3.7,8.2,6.4,11.8
		L24.1,116.8z M10,69c0.9-6.4,2.4-12.7,4.6-18.9s5.2-11.8,9.3-16.9l10.8,10.8c-2.7,3.7-4.9,7.6-6.4,11.8s-2.7,8.6-3.5,13.1H10z
		 M68.7,139.7c-6.5-0.5-12.9-1.9-19-4c-6.2-2.2-11.7-5.4-16.7-9.5l10.7-11c3.8,2.5,7.8,4.7,12,6.5s8.6,3,13.1,3.7V139.7z M44.1,35.1
		L32.9,23.9c5.1-4.2,10.7-7.4,17-9.5c6.2-2.2,12.6-3.5,19.2-4v14.4c-4.6,0.6-9,1.8-13.2,3.6C51.7,30,47.7,32.3,44.1,35.1z
		 M74.9,94.2c-5.3,0-9.8-1.9-13.4-5.6c-3.7-3.7-5.5-8.2-5.5-13.5s1.8-9.8,5.5-13.6c3.7-3.8,8.1-5.7,13.4-5.7c5.4,0,10,1.9,13.7,5.7
		c3.7,3.8,5.6,8.3,5.6,13.6c0,5.3-1.9,9.8-5.6,13.5C84.9,92.3,80.3,94.2,74.9,94.2z M80.9,139.7v-14.4c4.5-0.6,8.8-1.8,13.1-3.7
		s8.3-4.1,12.1-6.7l11,11.2c-5.1,4.2-10.7,7.4-17,9.5C93.9,137.8,87.5,139.2,80.9,139.7z M106.4,34.7c-3.8-2.5-7.8-4.7-12-6.3
		c-4.2-1.7-8.6-2.9-13.1-3.7V10.3c6.5,0.5,12.8,1.9,18.9,4.1c6.1,2.2,11.7,5.4,16.9,9.5L106.4,34.7z M126.1,116.8l-10.7-10.8
		c2.6-3.7,4.7-7.6,6.3-11.9c1.5-4.3,2.7-8.7,3.5-13.1H140c-0.9,6.5-2.4,12.9-4.5,19C133.4,106.1,130.3,111.7,126.1,116.8z
		 M125.2,68.7c-0.8-4.4-2-8.7-3.5-13c-1.5-4.3-3.6-8.2-6.3-11.9l10.5-10.5c4.5,4.9,7.8,10.4,9.9,16.6c2.1,6.2,3.5,12.5,4.1,18.9
		L125.2,68.7z"/>
</g>
</svg>
