<?xml version="1.0" encoding="UTF-8"?>
<svg id="Layer_1" data-name="Layer 1" xmlns="http://www.w3.org/2000/svg" viewBox="0 0 300 300">
  <defs>
    <style>
      .cls-1 {
        fill: #000;
        stroke-width: 0px;
      }
    </style>
  </defs>
  <path class="cls-1" d="M28.13,300c-7.73,0-14.36-2.75-19.86-8.26-5.51-5.51-8.26-12.13-8.26-19.86V65.62c0-7.84,2.73-14.55,8.2-20.14,5.47-5.58,12.11-8.25,19.92-7.99h135.16l-28.13,28.13H28.13v206.25h206.25v-107.03l28.13-28.13v135.16c0,7.73-2.75,14.36-8.26,19.86-5.51,5.51-12.13,8.26-19.86,8.26H28.13ZM93.75,206.25v-59.77L232.03,8.2c2.86-2.86,5.99-4.95,9.38-6.25,3.39-1.3,6.84-1.95,10.35-1.95,3.75,0,7.32.65,10.72,1.95,3.4,1.3,6.52,3.36,9.37,6.17l19.94,20.01c2.86,2.86,4.95,6.01,6.25,9.45,1.3,3.43,1.95,6.92,1.95,10.48s-.65,7.06-1.96,10.49c-1.31,3.44-3.39,6.58-6.24,9.43l-138.28,138.28h-59.77ZM271.87,48.05l-19.92-19.92,19.92,19.92ZM121.87,178.13h19.92l90.23-90.23-9.77-10.16-10.16-9.77-90.23,90.23v19.92ZM222.27,77.73l-10.16-9.77,10.16,9.77,9.77,10.16-9.77-10.16Z"/>
</svg>