<?xml version="1.0" encoding="UTF-8"?>
<svg id="Layer_1" data-name="Layer 1" xmlns="http://www.w3.org/2000/svg" viewBox="0 0 300 300">
  <defs>
    <style>
      .cls-1 {
        fill: #000;
        stroke-width: 0px;
      }
    </style>
  </defs>
  <path class="cls-1" d="M0,277.92v-35.03c0-6.6,1.59-12.63,4.76-18.08,3.17-5.46,7.55-9.84,13.13-13.13,13.71-8.12,28.24-14.34,43.59-18.65,15.36-4.31,31.41-6.47,48.16-6.47s32.8,2.16,48.16,6.47c15.36,4.31,29.89,10.53,43.59,18.65,5.58,3.3,9.96,7.68,13.13,13.13,3.17,5.46,4.76,11.48,4.76,18.08v35.03H0ZM27.41,250.51h164.47v-7.61c0-1.64-.38-3.14-1.15-4.48-.77-1.34-1.78-2.39-3.04-3.14-11.93-6.85-24.49-12.12-37.69-15.8-13.2-3.68-26.65-5.52-40.36-5.52s-27.16,1.78-40.36,5.33c-13.2,3.55-25.76,8.88-37.69,15.99-1.26.72-2.27,1.72-3.04,3.01-.77,1.29-1.15,2.81-1.15,4.57v7.65ZM109.64,168.27c-15.23,0-28.17-5.33-38.83-15.99s-15.99-23.6-15.99-38.83h-4.57c-1.37,0-2.47-.42-3.31-1.26-.84-.84-1.26-1.94-1.26-3.31s.42-2.47,1.26-3.31c.84-.84,1.94-1.26,3.31-1.26h4.57c0-10.15,2.51-19.35,7.54-27.61,5.03-8.25,11.65-14.79,19.87-19.6v24.37c0,1.37.42,2.47,1.26,3.31.84.84,1.94,1.26,3.31,1.26s2.47-.42,3.31-1.26c.84-.84,1.26-1.94,1.26-3.31v-28.49c2.79-1.06,5.7-1.9,8.72-2.53,3.02-.63,6.19-.95,9.52-.95s6.51.32,9.55.95c3.05.63,5.96,1.48,8.76,2.53v28.49c0,1.37.42,2.47,1.26,3.31.84.84,1.94,1.26,3.31,1.26s2.47-.42,3.31-1.26c.84-.84,1.26-1.94,1.26-3.31v-24.37c8.22,4.79,14.85,11.29,19.87,19.5,5.03,8.21,7.54,17.45,7.54,27.71h4.57c1.37,0,2.47.42,3.31,1.26.84.84,1.26,1.94,1.26,3.31s-.42,2.47-1.26,3.31c-.84.84-1.94,1.26-3.31,1.26h-4.57c0,15.23-5.33,28.17-15.99,38.83s-23.6,15.99-38.83,15.99ZM109.73,140.86c7.56,0,14.01-2.68,19.34-8.05,5.33-5.37,7.99-11.82,7.99-19.36h-54.82c0,7.61,2.69,14.09,8.08,19.42,5.38,5.33,11.86,7.99,19.42,7.99ZM209.45,186.55l-1.93-9.64c-1.29-.43-2.5-1.02-3.65-1.78-1.14-.76-2.22-1.52-3.24-2.28l-9.14,3.43-6.47-11.42,7.23-5.96c0-.6-.06-1.27-.19-2.04-.13-.76-.19-1.52-.19-2.28s.06-1.52.19-2.28c.13-.76.19-1.44.19-2.04l-7.23-5.96,6.47-11.42,9.14,3.43c1.02-.76,2.12-1.52,3.3-2.28,1.18-.76,2.37-1.4,3.55-1.9l1.94-9.52h12.91l1.52,9.52c1.27.51,2.54,1.14,3.81,1.9,1.27.76,2.41,1.52,3.43,2.28l9.14-3.43,6.47,11.42-7.23,5.96c0,.6.06,1.27.19,2.04s.19,1.52.19,2.28-.06,1.52-.19,2.28-.19,1.44-.19,2.04l7.23,5.96-6.47,11.42-9.14-3.43c-1.02.76-2.14,1.5-3.37,2.23-1.23.73-2.52,1.38-3.86,1.96l-1.52,9.52h-12.89ZM215.86,164.09c2.79,0,5.08-.89,6.85-2.66,1.78-1.78,2.66-4.06,2.66-6.85s-.89-5.08-2.66-6.85c-1.78-1.78-4.06-2.66-6.85-2.66s-5.14.89-7.04,2.66c-1.9,1.78-2.86,4.06-2.86,6.85s.95,5.08,2.86,6.85,4.25,2.66,7.04,2.66ZM246.7,113.45l-2.66-14.09c-2.03-.51-3.81-1.27-5.33-2.28s-3.05-2.16-4.57-3.43l-13.32,4.57-9.14-15.99,10.66-9.14c-.25-1.02-.44-1.9-.57-2.66s-.19-1.65-.19-2.66.06-1.97.19-2.86.32-1.84.57-2.86l-10.66-9.14,9.14-15.99,13.32,4.57c1.52-1.27,3.05-2.41,4.57-3.43s3.3-1.78,5.33-2.28l2.62-13.71h18.32l3.05,13.71c2.03.51,3.81,1.27,5.33,2.28,1.52,1.02,3.05,2.16,4.57,3.43l12.94-4.57,9.14,15.99-10.28,9.14c.25,1.02.38,1.97.38,2.86v2.86c0,1.02-.06,1.97-.19,2.86-.13.89-.32,1.84-.57,2.86l10.66,9.14-9.14,15.99-13.32-4.57c-1.52,1.27-3.05,2.41-4.57,3.43-1.52,1.02-3.3,1.78-5.33,2.28l-2.62,13.71h-18.32ZM255.82,84.14c4.58,0,8.46-1.58,11.63-4.74,3.17-3.16,4.76-7.03,4.76-11.61s-1.58-8.46-4.74-11.63c-3.16-3.17-7.03-4.76-11.61-4.76s-8.46,1.58-11.63,4.74c-3.17,3.16-4.76,7.03-4.76,11.61s1.58,8.46,4.74,11.63c3.16,3.17,7.03,4.76,11.61,4.76Z"/>
</svg>