<?xml version="1.0" encoding="UTF-8"?>
<svg id="Layer_1" data-name="Layer 1" xmlns="http://www.w3.org/2000/svg" viewBox="0 0 300 300">
  <defs>
    <style>
      .cls-1 {
        fill: #000;
        stroke-width: 0px;
      }
    </style>
  </defs>
  <path class="cls-1" d="M124.21,144.03c-16.75,0-30.96-5.84-42.65-17.53-11.69-11.69-17.53-25.91-17.53-42.65s5.84-30.96,17.53-42.65c11.69-11.69,25.91-17.53,42.65-17.53,16.75,0,30.96,5.84,42.65,17.53,11.69,11.69,17.53,25.91,17.53,42.65s-5.84,30.96-17.53,42.65c-11.69,11.69-25.91,17.53-42.65,17.53ZM-5.87,276.35v-35.4c0-5.95,1.77-11.68,5.32-17.19,3.55-5.51,8.51-10.29,14.88-14.32,16.93-9.73,34.71-17.19,53.37-22.38,18.65-5.19,37.46-7.78,56.42-7.78,18.96,0,37.8,2.59,56.52,7.78,18.72,5.19,36.54,12.65,53.47,22.38,6.37,3.71,11.33,8.4,14.88,14.08,3.55,5.68,5.32,11.49,5.32,17.44v35.4H-5.87ZM19.37,251.11h209.69v-10.16c0-2.05-.74-3.98-2.22-5.78-1.48-1.81-3.51-3.34-6.11-4.6-14.14-8.56-29.41-15.05-45.83-19.45-16.41-4.41-33.31-6.61-50.69-6.61s-34.27,2.2-50.69,6.61c-16.41,4.41-31.69,10.89-45.83,19.45-2.61,1.79-4.65,3.51-6.12,5.15-1.47,1.64-2.2,3.38-2.2,5.23v10.16ZM124.31,118.79c9.64,0,17.86-3.43,24.65-10.3,6.8-6.86,10.19-15.12,10.19-24.75s-3.43-17.86-10.3-24.65c-6.86-6.8-15.12-10.19-24.75-10.19-9.64,0-17.86,3.43-24.65,10.3-6.8,6.86-10.19,15.12-10.19,24.75s3.43,17.86,10.3,24.65c6.86,6.8,15.12,10.19,24.75,10.19Z"/>
  <path class="cls-1" d="M254.71,205.52l-8.34-8.43c-7.15-7.22-42.82-44.52-42.82-69.84,0-28.21,22.95-51.16,51.16-51.16s51.16,22.95,51.16,51.16c0,25.32-35.67,62.62-42.82,69.84l-8.34,8.43ZM254.71,99.58c-15.26,0-27.68,12.42-27.68,27.67,0,2.25,1.24,11.18,17.24,31.74,3.68,4.73,7.36,9.07,10.48,12.6,14.47-16.32,27.63-35.59,27.63-44.34,0-15.26-12.42-27.67-27.68-27.67Z"/>
  <path class="cls-1" d="M254.99,141.19c-8,0-14.51-6.51-14.51-14.51s6.51-14.5,14.51-14.5,14.5,6.51,14.5,14.5-6.51,14.51-14.5,14.51ZM254.99,117.71c-4.95,0-8.98,4.03-8.98,8.98s4.03,8.98,8.98,8.98,8.98-4.03,8.98-8.98-4.03-8.98-8.98-8.98Z"/>
</svg>