<?xml version="1.0" encoding="UTF-8"?>
<svg id="Layer_1" data-name="Layer 1" xmlns="http://www.w3.org/2000/svg" viewBox="0 0 300 300">
  <defs>
    <style>
      .cls-1 {
        fill: #000;
        stroke-width: 0px;
      }
    </style>
  </defs>
  <path class="cls-1" d="M150,300c-20.57,0-39.97-3.91-58.2-11.72-18.23-7.81-34.18-18.55-47.85-32.23s-24.41-29.62-32.23-47.85S0,170.57,0,150s3.91-40.3,11.72-58.4,18.55-33.98,32.23-47.66,29.62-24.41,47.85-32.23C110.03,3.91,129.43,0,150,0s40.3,3.91,58.4,11.72c18.1,7.81,33.98,18.55,47.66,32.23,13.67,13.67,24.41,29.56,32.23,47.66s11.72,37.57,11.72,58.4-3.91,39.97-11.72,58.2-18.55,34.18-32.23,47.85c-13.67,13.67-29.56,24.41-47.66,32.23-18.1,7.81-37.57,11.72-58.4,11.72ZM150,270.7c4.43-4.43,8.85-12.7,13.28-24.8,4.43-12.11,7.81-25.33,10.16-39.65h-46.87c2.34,14.32,5.73,27.54,10.16,39.65,4.43,12.11,8.85,20.38,13.28,24.8ZM114.45,266.8c-3.65-7.81-6.84-16.8-9.57-26.95-2.73-10.16-5.01-21.35-6.84-33.59h-55.86c7.55,14.84,17.58,27.54,30.08,38.09,12.5,10.55,26.56,18.03,42.19,22.46ZM185.55,266.8c15.62-4.43,29.69-11.91,42.19-22.46,12.5-10.55,22.53-23.24,30.08-38.09h-55.86c-1.82,12.24-4.1,23.44-6.84,33.59-2.73,10.16-5.92,19.14-9.57,26.95ZM31.64,178.12h62.89c-.52-4.95-.85-9.83-.98-14.65-.13-4.82-.2-9.57-.2-14.26s.07-9.31.2-13.87c.13-4.56.46-9.05.98-13.48H31.64c-1.3,4.95-2.21,9.7-2.73,14.26-.52,4.56-.78,9.18-.78,13.87s.26,9.31.78,13.87c.52,4.56,1.43,9.31,2.73,14.26ZM123.05,178.12h53.91c.52-5.21.85-10.09.98-14.65.13-4.56.2-9.05.2-13.48s-.07-8.98-.2-13.67c-.13-4.69-.46-9.51-.98-14.45h-53.91c-.52,4.95-.85,9.77-.98,14.45-.13,4.69-.2,9.24-.2,13.67s.07,8.98.2,13.67c.13,4.69.46,9.51.98,14.45ZM205.47,178.12h62.89c1.3-4.95,2.21-9.7,2.73-14.26s.78-9.18.78-13.87-.26-9.38-.78-14.06-1.43-9.38-2.73-14.06h-62.89c.52,4.95.85,9.83.98,14.65.13,4.82.2,9.57.2,14.26s-.07,9.31-.2,13.87c-.13,4.56-.46,9.05-.98,13.48ZM201.95,93.75h55.86c-7.55-14.84-17.58-27.54-30.08-38.09-12.5-10.55-26.56-18.03-42.19-22.46,3.65,7.81,6.84,16.8,9.57,26.95,2.73,10.16,5.01,21.35,6.84,33.59ZM126.56,93.75h46.87c-2.34-14.32-5.73-27.54-10.16-39.65-4.43-12.11-8.85-20.38-13.28-24.8-4.43,4.43-8.85,12.7-13.28,24.8-4.43,12.11-7.81,25.33-10.16,39.65ZM42.19,93.75h55.86c1.82-12.24,4.1-23.44,6.84-33.59,2.73-10.16,5.92-19.14,9.57-26.95-15.63,4.43-29.69,11.91-42.19,22.46-12.5,10.55-22.53,23.24-30.08,38.09Z"/>
</svg>