<?xml version="1.0" encoding="utf-8"?>
<!-- Generator: Adobe Illustrator 27.4.0, SVG Export Plug-In . SVG Version: 6.00 Build 0)  -->
<svg version="1.1" id="Layer_1" xmlns="http://www.w3.org/2000/svg" xmlns:xlink="http://www.w3.org/1999/xlink" x="0px" y="0px"
	 viewBox="0 0 150 150" enable-background="new 0 0 150 150" xml:space="preserve">
<path id="edit_note_FILL0_wght300_GRAD0_opsz48" fill="#535353" d="M140.4,84.6l-15-15l7.1-7.1c1.1-1,2.5-1.5,3.9-1.5
	c1.5,0,2.9,0.5,4,1.5l7.1,7.1c1,1.1,1.5,2.5,1.5,4c0.1,1.4-0.5,2.8-1.5,3.8L140.4,84.6z M63.7,146.3v-15l52.1-52.1l15,15l-52.1,52.1
	H63.7z M0.9,95.4V84.2h72.5v11.2H0.9z M0.9,55V43.9h113.6V55H0.9z M0.9,14.8V3.7h113.6v11.2L0.9,14.8z"/>
</svg>
