<?xml version="1.0" encoding="utf-8"?>
<!-- Generator: Adobe Illustrator 27.4.0, SVG Export Plug-In . SVG Version: 6.00 Build 0)  -->
<svg version="1.1" id="Layer_1" xmlns="http://www.w3.org/2000/svg" xmlns:xlink="http://www.w3.org/1999/xlink" x="0px" y="0px"
	 viewBox="0 0 150 150" enable-background="new 0 0 150 150" xml:space="preserve">
<g>
	<g>
		<rect x="0" fill="none" width="150" height="150"/>
	</g>
	<g>
		<rect x="10" y="10" fill="none" width="130" height="130"/>
	</g>
</g>
<path id="task_FILL0_wght400_GRAD0_opsz48" fill="#535353" d="M67.3,112.5l38.2-38.2L99,67.8L67.3,99.5L50.2,82.3l-6.5,6.5
	L67.3,112.5z M31.7,141.7c-5.5-0.1-9.9-4.5-10-10V18.3c0-2.6,1.1-5.2,3-7c1.8-1.9,4.4-3,7-3h60.2l36.5,36.5v86.8
	c-0.1,5.5-4.5,9.9-10,10H31.7z M86.8,49.3v-31H31.7v113.3h86.7V49.3H86.8z M31.7,18.3"/>
</svg>
