<svg xmlns="http://www.w3.org/2000/svg" width="16" height="15.979" viewBox="0 0 16 15.979">
  <path id="call_FILL1_wght700_GRAD0_opsz48" d="M19.316,20.679a11.682,11.682,0,0,1-5.236-1.288A17.81,17.81,0,0,1,9.4,16.035,17.47,17.47,0,0,1,6.038,11.36,11.705,11.705,0,0,1,4.75,6.134,1.419,1.419,0,0,1,6.184,4.7H9.093a1.6,1.6,0,0,1,1.049.332,1.7,1.7,0,0,1,.551.977l.561,2.286a2.031,2.031,0,0,1-.021.966,1.5,1.5,0,0,1-.457.7L8.594,11.931a15.8,15.8,0,0,0,2.255,2.836,12.533,12.533,0,0,0,2.712,2.026l2.078-2.1a1.984,1.984,0,0,1,.8-.509,1.743,1.743,0,0,1,.945-.01l2.036.5a1.825,1.825,0,0,1,.987.582,1.61,1.61,0,0,1,.343,1.06v2.909a1.41,1.41,0,0,1-.416,1.039,1.385,1.385,0,0,1-1.018.416Z" transform="translate(-4.75 -4.7)" fill="#343634"/>
</svg>
