<svg xmlns="http://www.w3.org/2000/svg" width="22.029" height="22" viewBox="0 0 22.029 22">
  <path id="call_FILL1_wght700_GRAD0_opsz48" d="M24.8,26.7A16.083,16.083,0,0,1,17.6,24.926a24.521,24.521,0,0,1-6.437-4.62,24.052,24.052,0,0,1-4.635-6.437,16.116,16.116,0,0,1-1.774-7.2A1.954,1.954,0,0,1,6.724,4.7h4.005a2.2,2.2,0,0,1,1.445.458A2.338,2.338,0,0,1,12.932,6.5L13.7,9.649a2.8,2.8,0,0,1-.029,1.33,2.06,2.06,0,0,1-.629.958l-3,2.718a21.759,21.759,0,0,0,3.1,3.905A17.255,17.255,0,0,0,16.88,21.35l2.861-2.889a2.732,2.732,0,0,1,1.1-.7,2.4,2.4,0,0,1,1.3-.014l2.8.687a2.512,2.512,0,0,1,1.359.8,2.217,2.217,0,0,1,.472,1.459V24.7a1.941,1.941,0,0,1-.572,1.43A1.906,1.906,0,0,1,24.8,26.7Z" transform="translate(-4.75 -4.7)" fill="#488bff"/>
</svg>
