<?xml version="1.0" encoding="UTF-8"?><svg id="a" xmlns="http://www.w3.org/2000/svg" viewBox="0 0 500 66.21"><defs><style>.b{fill:#0056d2;stroke-width:0px;}</style></defs><path class="b" d="M68.26,33.17c0-19.3,15.92-34.88,35.86-34.88s35.99,15.57,35.99,34.88-15.92,35.01-35.99,35.01-35.86-15.97-35.86-35.01ZM122.99,33.17c0-9.58-8.43-18.1-18.87-18.1s-18.6,8.52-18.6,18.1,8.43,18.24,18.6,18.24,18.87-8.52,18.87-18.24Z"/><path class="b" d="M428.5,33.7c0-21.16,17.33-35.41,33.04-35.41,10.75,0,16.92,3.19,21.09,9.45l1.61-8.25h16.12v67.35h-16.12l-2.02-6.92c-4.7,5.06-10.61,8.25-20.55,8.25-15.71,0-33.17-13.58-33.17-34.48h0ZM483.29,33.57c0-10.25-8.46-18.5-18.94-18.5s-18.67,8.39-18.67,18.77c0,9.32,8.46,17.7,18.67,17.7,10.61-.13,18.94-8.52,18.94-17.97h0Z"/><path class="b" d="M409.18,7.72V0h-17.1v66.21h17.1V30.49c0-10.73,5.22-16.36,14.49-16.36.65,0,1.18,0,1.7.13l3.13-15.96c-8.88.13-15.27,3.14-19.32,9.42h0Z"/><path class="b" d="M234.51,7.72V0h-17.62l.14,66.21h17.62l-.14-35.72c0-10.73,5.38-16.36,14.8-16.36.67,0,1.21,0,1.75.13l3.23-15.96c-9.15.13-15.74,3.14-19.78,9.42h0Z"/><path class="b" d="M147,40.52V-.72h17.21v39.1c0,8.64,4.73,13.7,13.01,13.7,9.2,0,14.58-5.72,14.58-16.62V-.72h17.21v67.3h-17.21v-7.85c-4.07,6.38-10.64,9.44-19.71,9.44-15.5.13-25.09-11.17-25.09-27.66h0Z"/><path class="b" d="M316.29,33.11c0-18.87,13.62-34.94,34.98-34.81,19.89,0,33.91,15.94,33.91,34.54,0,1.86-.13,3.85-.4,5.58l-51.4-.13c2,8.1,8.68,13.82,18.69,13.95,6.14,0,12.68-2.26,16.69-7.31l11.89,9.57c-6.14,8.63-16.96,13.68-28.44,13.68-20.3-.27-35.92-15.41-35.92-35.07h0ZM367.7,26.2c-.94-6.78-8.14-12.09-16.42-12.09s-14.69,4.78-17.23,11.96l33.65.13Z"/><path class="b" d="M254.28,52.3l15.52-8.07c2.54,5.56,7.76,8.73,14.98,8.73,6.69,0,9.23-2.12,9.23-5.03,0-10.72-36.93-4.23-36.93-28.85,0-13.63,12.04-20.78,26.89-20.78,11.24,0,21.27,4.9,26.76,14.16l-15.39,8.07c-2.27-4.5-6.55-7.02-12.04-7.02s-7.89,1.85-7.89,4.9c0,10.46,36.93,3.84,36.93,28.85,0,12.97-10.7,20.91-27.97,20.91-14.72-.13-25.02-4.9-30.11-15.88h0Z"/><path class="b" d="M.35,32.81C.35,13.65,16.14-1.7,35.91-1.7c12.74,0,23.75,6.3,30.12,15.75l-14.86,8.53c-3.45-4.72-8.89-7.87-15.26-7.87-10.22,0-18.44,8.4-18.44,17.98s8.36,17.98,18.44,17.98c6.63,0,12.47-3.41,15.66-8.53l14.73,8.66c-6.24,9.84-17.51,16.41-30.39,16.41C16.14,67.33.35,51.58.35,32.81h0Z"/></svg>