<svg id="Group_12886" data-name="Group 12886" xmlns="http://www.w3.org/2000/svg" width="9" height="13" viewBox="0 0 9 13">
  <path id="Path_3228" data-name="Path 3228" d="M-2.5-5.213a.348.348,0,0,0,0-.5l-.927-.9a.359.359,0,0,0-.5,0L-6.9-3.71l-2.966-2.9a.359.359,0,0,0-.5,0l-.927.9a.348.348,0,0,0,0,.5l4.144,4.05a.359.359,0,0,0,.5,0Z" transform="translate(11.396 14.061)" fill="#343634"/>
  <path id="Path_3232" data-name="Path 3232" d="M8.9,1.5a.348.348,0,0,0,0-.5L7.968.1a.359.359,0,0,0-.5,0L4.5,3,1.534.1a.359.359,0,0,0-.5,0L.1,1a.348.348,0,0,0,0,.5l4.144,4.05a.359.359,0,0,0,.5,0Z" transform="translate(9 5.654) rotate(180)" fill="#343634"/>
</svg>
