<svg xmlns="http://www.w3.org/2000/svg" xmlns:xlink="http://www.w3.org/1999/xlink" width="85" height="85" viewBox="0 0 85 85">
  <defs>
    <linearGradient id="linear-gradient" x1="1" y1="0.478" x2="0" y2="0.478" gradientUnits="objectBoundingBox">
      <stop offset="0" stop-color="#f2a472"/>
      <stop offset="1" stop-color="#ff270d"/>
    </linearGradient>
    <linearGradient id="linear-gradient-2" x1="1" y1="0.478" x2="0" y2="0.478" gradientUnits="objectBoundingBox">
      <stop offset="0" stop-color="#f60"/>
      <stop offset="1" stop-color="#ff270d"/>
    </linearGradient>
  </defs>
  <g id="Group_14838" data-name="Group 14838" transform="translate(1703 2152)">
    <circle id="Ellipse_140" data-name="Ellipse 140" cx="42.5" cy="42.5" r="42.5" transform="translate(-1703 -2152)" opacity="0.7" fill="url(#linear-gradient)"/>
    <circle id="Ellipse_139" data-name="Ellipse 139" cx="32.716" cy="32.716" r="32.716" transform="translate(-1693.216 -2142.216)" fill="url(#linear-gradient-2)"/>
    <path id="Ellipse_139_-_Outline" data-name="Ellipse 139 - Outline" d="M32.716,2A30.724,30.724,0,0,0,20.76,61.019,30.724,30.724,0,0,0,44.671,4.413,30.522,30.522,0,0,0,32.716,2m0-2A32.716,32.716,0,1,1,0,32.716,32.716,32.716,0,0,1,32.716,0Z" transform="translate(-1693.216 -2142.216)" fill="#fff"/>
    <path id="Path_5726" data-name="Path 5726" d="M-153.046-60.966h-6.092V-52.7h6.069v-1.4h-4.5v-2.158h4.1v-1.346h-4.1v-1.949h4.525Zm6.544,2.158q0,2.274.046,4-.429-.812-1.462-2.483l-2.309-3.678h-1.74V-52.7h1.508v-2.158q0-2.7-.046-4,.534,1.009,1.474,2.483l2.3,3.678h1.74v-8.262H-146.5Zm9.457,3.91a2.228,2.228,0,0,0-.3-1.143,1.582,1.582,0,0,0-.9-.621,1.915,1.915,0,0,0,1.381-1.973,2.087,2.087,0,0,0-.766-1.706,3.3,3.3,0,0,0-2.147-.627h-3.748V-52.7h1.566v-3.237h2.042a1.376,1.376,0,0,1,.98.3,1.534,1.534,0,0,1,.342,1.05l.035.905a2,2,0,0,0,.22.986h1.613a1.793,1.793,0,0,1-.255-.963Zm-4.908-4.781h2.031a1.637,1.637,0,0,1,1.073.313,1.11,1.11,0,0,1,.377.905,1.225,1.225,0,0,1-.365.957,1.477,1.477,0,0,1-1.027.331h-2.089Zm10.048,7.159a3.962,3.962,0,0,0,2.994-1.184,4.333,4.333,0,0,0,1.126-3.133,4.333,4.333,0,0,0-1.126-3.133,3.962,3.962,0,0,0-2.994-1.184,3.962,3.962,0,0,0-2.994,1.184,4.357,4.357,0,0,0-1.137,3.133A4.357,4.357,0,0,0-134.9-53.7,3.962,3.962,0,0,0-131.905-52.519Zm-1.81-2.17a3.164,3.164,0,0,1-.685-2.147,3.164,3.164,0,0,1,.685-2.147,2.279,2.279,0,0,1,1.81-.789,2.292,2.292,0,0,1,1.822.789,3.172,3.172,0,0,1,.673,2.147,3.172,3.172,0,0,1-.673,2.147,2.292,2.292,0,0,1-1.822.789A2.279,2.279,0,0,1-133.715-54.689Zm8.621-6.277h-1.566V-52.7h5.5v-1.4h-3.934Zm6.475,0h-1.566V-52.7h5.5v-1.4h-3.934Zm-26.658,15.143q0,2.274.046,4-.429-.812-1.462-2.483L-149-47.982h-1.74v8.262h1.508v-2.158q0-2.7-.046-4,.534,1.009,1.474,2.483l2.3,3.678h1.74v-8.262h-1.508Zm6.765,6.289a3.962,3.962,0,0,0,2.994-1.184,4.333,4.333,0,0,0,1.126-3.133,4.333,4.333,0,0,0-1.126-3.133,3.962,3.962,0,0,0-2.994-1.184,3.962,3.962,0,0,0-2.994,1.184,4.357,4.357,0,0,0-1.137,3.133,4.357,4.357,0,0,0,1.137,3.133A3.962,3.962,0,0,0-138.513-39.535Zm-1.81-2.17a3.164,3.164,0,0,1-.685-2.147A3.164,3.164,0,0,1-140.323-46a2.279,2.279,0,0,1,1.81-.789,2.292,2.292,0,0,1,1.822.789,3.172,3.172,0,0,1,.673,2.147,3.172,3.172,0,0,1-.673,2.147,2.292,2.292,0,0,1-1.822.789A2.279,2.279,0,0,1-140.323-41.7Zm14.864-2.947q-.511,2.077-.754,3.156-.371-1.845-.7-3.168l-.847-3.319h-1.613l-.847,3.319q-.337,1.416-.708,3.156-.151-.731-.754-3.144l-.859-3.33h-1.636l2.3,8.262h1.752l.882-3.435q.348-1.381.673-2.924.128.661.673,2.924l.882,3.435h1.764l2.286-8.262h-1.624Z" transform="translate(-1523.588 -2057.437)" fill="#fff"/>
  </g>
</svg>
