<svg xmlns="http://www.w3.org/2000/svg" width="45.248" height="50" viewBox="0 0 45.248 50">
  <path id="Union_19" data-name="Union 19" d="M5.868,50a3.351,3.351,0,0,1-3.351-3.342V39.973a3.312,3.312,0,0,1,.871-2.228,3.317,3.317,0,0,1-.871-2.228V28.834a3.35,3.35,0,0,1,3.351-3.342H9.446a5.472,5.472,0,0,1-.227-1.529V16.744L1.705,13.573a2.782,2.782,0,0,1,0-5.13L20.883.35a4.5,4.5,0,0,1,3.482,0L43.542,8.443h0a2.782,2.782,0,0,1,0,5.13h0L40.5,14.859v7.289a1.117,1.117,0,0,1-2.234,0V15.8l-2.234.943v7.218a5.475,5.475,0,0,1-.227,1.529h3.578a3.35,3.35,0,0,1,3.351,3.342v6.683a3.316,3.316,0,0,1-.871,2.228,3.312,3.312,0,0,1,.871,2.228v6.685A3.351,3.351,0,0,1,39.379,50ZM4.751,39.973v6.686a1.117,1.117,0,0,0,1.117,1.114H39.379A1.117,1.117,0,0,0,40.5,46.659V39.973a1.116,1.116,0,0,0-1.117-1.114H5.868A1.116,1.116,0,0,0,4.751,39.973Zm0-11.139v6.683a1.117,1.117,0,0,0,1.117,1.114H39.379A1.117,1.117,0,0,0,40.5,35.517V28.834a1.116,1.116,0,0,0-1.117-1.114H34.555a5.563,5.563,0,0,1-2.131,1.452,27.705,27.705,0,0,1-19.6,0,5.564,5.564,0,0,1-2.131-1.452H5.868A1.116,1.116,0,0,0,4.751,28.834Zm6.7-4.871a3.362,3.362,0,0,0,2.163,3.126,25.469,25.469,0,0,0,18.015,0,3.362,3.362,0,0,0,2.163-3.126V17.687l-9.43,3.981a4.5,4.5,0,0,1-3.482,0l-9.43-3.981ZM21.753,2.4,2.574,10.494a.557.557,0,0,0,0,1.027l19.179,8.092a2.258,2.258,0,0,0,1.74,0L42.67,11.521h0a.557.557,0,0,0,0-1.027L23.493,2.4a2.254,2.254,0,0,0-1.74,0ZM9.219,45.545V41.088a1.117,1.117,0,1,1,2.234,0v4.456a1.117,1.117,0,0,1-2.234,0Zm24.575,0V41.087a1.117,1.117,0,0,1,2.234,0v4.456a1.117,1.117,0,0,1-2.234,0Zm0-11.139V29.948a1.117,1.117,0,0,1,2.234,0V34.4a1.117,1.117,0,0,1-2.234,0Zm-24.575,0V29.948a1.117,1.117,0,0,1,2.234,0V34.4a1.117,1.117,0,0,1-2.234,0Z"/>
</svg>
