<svg xmlns="http://www.w3.org/2000/svg" width="38.381" height="35" viewBox="0 0 38.381 35">
  <path id="Union_20" data-name="Union 20" d="M4.172,35A4.168,4.168,0,0,1,0,30.833V17.5a4.168,4.168,0,0,1,4.172-4.167h.88a7.511,7.511,0,0,1,14.927,0H34.209A4.167,4.167,0,0,1,38.381,17.5V30.833A4.167,4.167,0,0,1,34.209,35ZM2.4,15.732A2.5,2.5,0,0,0,1.669,17.5V30.833a2.5,2.5,0,0,0,2.5,2.5H34.209a2.5,2.5,0,0,0,2.5-2.5V17.5a2.5,2.5,0,0,0-2.5-2.5H4.172A2.5,2.5,0,0,0,2.4,15.732Zm4.333-2.4H18.3a5.841,5.841,0,0,0-11.561,0Zm2.133,18.31a2.481,2.481,0,0,1-2.331-1.631.041.041,0,0,0,0-.009,2.422,2.422,0,0,0-1.523-1.5l-.026-.008a2.5,2.5,0,0,1-1.648-2.349c0-1.285,0-2.677.023-3.961a2.479,2.479,0,0,1,1.633-2.319l.009,0a2.423,2.423,0,0,0,1.506-1.521c0-.008.006-.017.008-.026a2.5,2.5,0,0,1,2.352-1.646c5.633,0,15.015,0,20.644.023a2.481,2.481,0,0,1,2.331,1.631.04.04,0,0,0,0,.009,2.424,2.424,0,0,0,1.523,1.5l.026.008a2.5,2.5,0,0,1,1.648,2.349c0,1.285,0,2.677-.023,3.961a2.478,2.478,0,0,1-1.633,2.319l-.009,0a2.423,2.423,0,0,0-1.506,1.521c0,.008-.006.017-.008.026a2.5,2.5,0,0,1-2.352,1.646C23.879,31.666,14.5,31.666,8.868,31.644ZM8.089,18.871a4.1,4.1,0,0,1-2.535,2.561.81.81,0,0,0-.526.758v.015c-.022,1.277-.022,2.659-.022,3.936a.832.832,0,0,0,.539.779,4.1,4.1,0,0,1,2.564,2.532.81.81,0,0,0,.759.525h0C14.5,30,23.881,30,29.512,30a.834.834,0,0,0,.78-.538A4.1,4.1,0,0,1,32.826,26.9a.81.81,0,0,0,.526-.758v-.015c.022-1.277.022-2.659.022-3.936a.832.832,0,0,0-.539-.779,4.1,4.1,0,0,1-2.564-2.531.811.811,0,0,0-.759-.525h0c-5.631-.022-15.01-.022-20.64-.022A.833.833,0,0,0,8.089,18.871Zm6.93,5.295a4.172,4.172,0,1,1,4.172,4.167A4.171,4.171,0,0,1,15.019,24.166Zm1.669,0a2.5,2.5,0,1,0,2.5-2.5A2.5,2.5,0,0,0,16.687,24.166ZM25.865,25a.833.833,0,1,1,0-1.667H29.2A.833.833,0,1,1,29.2,25ZM9.178,25a.833.833,0,1,1,0-1.667h3.338a.833.833,0,1,1,0,1.667ZM25.031,7.5A4.172,4.172,0,1,1,29.2,11.666,4.171,4.171,0,0,1,25.031,7.5Zm1.669,0A2.5,2.5,0,1,0,29.2,5,2.5,2.5,0,0,0,26.7,7.5ZM16.687,4.167a4.172,4.172,0,1,1,4.172,4.167A4.171,4.171,0,0,1,16.687,4.167Zm1.669,0a2.5,2.5,0,1,0,2.5-2.5A2.5,2.5,0,0,0,18.356,4.167Z" fill="#343634"/>
</svg>
