<?xml version="1.0" encoding="utf-8"?>
<!-- Generator: Adobe Illustrator 27.4.0, SVG Export Plug-In . SVG Version: 6.00 Build 0)  -->
<svg version="1.1" id="Layer_1" xmlns="http://www.w3.org/2000/svg" xmlns:xlink="http://www.w3.org/1999/xlink" x="0px" y="0px"
	 viewBox="0 0 256 256" enable-background="new 0 0 256 256" xml:space="preserve">
<rect fill="#FFFFFF" width="256" height="256"/>
<rect fill="#FFFFFF" width="256" height="256"/>
<g>
	<path fill="#EA4335" d="M163,88.9l18.4-18.4l1.2-7.8c-33.5-30.5-86.9-27-117.1,7.2c-8.4,9.5-14.6,21.4-18,33.6l6.6-0.9l36.8-6.1
		l2.8-2.9c16.4-18,44.1-20.4,63-5.1L163,88.9z"/>
	<path fill="#4285F4" d="M207.6,103c-4.2-15.6-12.9-29.6-25-40.3l-25.8,25.8c10.9,8.9,17.1,22.3,16.9,36.4v4.6c12.7,0,23,10.3,23,23
		s-10.3,22.7-23,22.7h-46.1l-4.5,4.9v27.6l4.5,4.3h46.1c33,0.3,60-26.1,60.3-59.1C234,133,224.2,114.2,207.6,103"/>
	<path fill="#34A853" d="M81.6,212.1h46v-36.8h-46c-3.3,0-6.5-0.7-9.4-2.1l-6.5,2l-18.5,18.4l-1.6,6.3
		C55.9,207.8,68.5,212.2,81.6,212.1"/>
	<path fill="#FBBC05" d="M81.6,92.7c-33,0.2-59.7,27.1-59.5,60.2c0.1,18.4,8.7,35.8,23.3,47.1l26.7-26.7
		c-11.6-5.2-16.7-18.9-11.5-30.4c5.2-11.6,18.9-16.7,30.4-11.5c5.1,2.3,9.2,6.4,11.5,11.5l26.7-26.7
		C117.9,101.3,100.2,92.6,81.6,92.7"/>
</g>
</svg>
