<?xml version="1.0" encoding="utf-8"?>
<!-- Generator: Adobe Illustrator 27.4.0, SVG Export Plug-In . SVG Version: 6.00 Build 0)  -->
<svg version="1.1" id="Layer_1" xmlns="http://www.w3.org/2000/svg" xmlns:xlink="http://www.w3.org/1999/xlink" x="0px" y="0px"
	 viewBox="0 0 150 150" style="enable-background:new 0 0 150 150;" xml:space="preserve">
<style type="text/css">
	.st0{fill:#FEE8DA;}
	.st1{fill:url(#SVGID_1_);}
	.st2{clip-path:url(#SVGID_00000033352784989713815440000005345114467672286397_);}
	.st3{fill:url(#Path_4157_00000165213096616503703780000012120070539073300922_);}
	.st4{fill:url(#Path_4158_00000106834568770148917940000000096156363816616081_);}
	.st5{fill:url(#Path_4159_00000150066724931638096510000016523145065300223916_);}
	.st6{clip-path:url(#SVGID_00000043443076113357686010000015119762152607606188_);}
	.st7{fill:url(#Path_4168_00000098203965922160271260000000323327428121136307_);}
	.st8{fill:url(#Path_4169_00000098942713562908450520000017057364165731243161_);}
	.st9{fill:url(#Path_4170_00000175286015109402838670000005480362526275753120_);}
	.st10{fill:url(#Path_4171_00000068635832482219263980000017721742775414635441_);}
	.st11{fill:url(#Path_4172_00000071529077959120435030000000607606418268783549_);}
	.st12{fill:url(#Path_4173_00000168097143570892201540000014323707564588816043_);}
	.st13{fill:url(#SVGID_00000164507361982651663960000004699863530933668026_);}
	.st14{fill:url(#SVGID_00000065787462337697243750000007429791062351245225_);}
	.st15{fill:url(#SVGID_00000041259486584613541360000012632061796855152537_);}
	.st16{fill:url(#SVGID_00000168087595863584569910000003738187238770280092_);}
	.st17{fill:url(#SVGID_00000007429172536051712290000011475955098438552498_);}
	.st18{fill:url(#SVGID_00000077295076658383352000000011533380106443495570_);}
	.st19{fill:url(#SVGID_00000169526851762761265300000015688255433471769778_);}
	.st20{fill:url(#SVGID_00000080920064845202685300000014967491785522537100_);}
	.st21{fill:url(#SVGID_00000053530980546660644100000006578833464155016343_);}
	.st22{fill:url(#SVGID_00000083793972857604245590000007490559778369845414_);}
	.st23{fill:url(#SVGID_00000090264207573573143310000004162002370845141388_);}
	.st24{fill:url(#SVGID_00000052815675782192624830000008278839119568560773_);}
	.st25{fill:url(#SVGID_00000155849858398125793960000009146076048383200174_);}
	.st26{fill:url(#SVGID_00000180345832652098571020000007307507101534243204_);}
	.st27{fill:url(#SVGID_00000110452252128871792380000000566849724679233924_);}
	.st28{fill:url(#SVGID_00000113322408066950059980000012253608475888423336_);}
	.st29{fill:url(#SVGID_00000158721042797487490040000007631666744635845028_);}
	.st30{fill:url(#SVGID_00000097489271627360680230000001116648285305697699_);}
	.st31{fill:url(#SVGID_00000114775720405712978140000005771923231105766310_);}
	.st32{fill:url(#SVGID_00000071537435500611380970000018297990890362836369_);}
	.st33{fill:url(#SVGID_00000181795823943236564990000000645106125777539262_);}
	.st34{fill:url(#SVGID_00000023976050670726469450000013956323103648750998_);}
	.st35{fill:url(#SVGID_00000078731802857500339350000012963870248648312980_);}
	.st36{fill:url(#SVGID_00000039854396860488560360000011064243210675461806_);}
	.st37{fill:url(#SVGID_00000081633158962724138970000004470209575870370690_);}
	.st38{fill:url(#SVGID_00000079484735642041026820000006672736279880221118_);}
	.st39{fill:url(#SVGID_00000173120502435734783630000017307367157479701920_);}
	.st40{fill:url(#SVGID_00000109738986862088726300000008307112034672634260_);}
	.st41{fill:url(#SVGID_00000004517047275163870920000002313697186034212755_);}
	.st42{fill:url(#SVGID_00000120557953513461601830000003470773476952806037_);}
	.st43{fill:url(#SVGID_00000018923137319742447770000003783283066974539933_);}
	.st44{fill:url(#SVGID_00000160155283531767226890000009548215449054799535_);}
	.st45{fill:url(#SVGID_00000039853787114813284440000005525210815970186123_);}
	.st46{fill:url(#SVGID_00000023264793286204482980000017444911755254577338_);}
	.st47{fill:url(#SVGID_00000160151581639871473350000000338550790816292262_);}
	.st48{fill:url(#SVGID_00000073715837675373304900000000628017390426350487_);}
	.st49{fill:url(#SVGID_00000119080637587183595370000003521671561449502643_);}
	.st50{fill:url(#SVGID_00000137848149303515828500000005828560228406232501_);}
	.st51{fill:url(#SVGID_00000047760006981157570100000015732822090895709828_);}
	.st52{fill:url(#SVGID_00000050658826983641409300000012873066146477821356_);}
	.st53{fill:url(#SVGID_00000123416634558200499550000002179516312617859991_);}
	.st54{fill:url(#SVGID_00000183247112404665615560000001776292930067622822_);}
	.st55{fill:url(#SVGID_00000153678748141226759120000000798545666580130729_);}
	.st56{fill:url(#SVGID_00000041283925403279829290000014465308006900666039_);}
	.st57{fill:url(#SVGID_00000098213587531424777510000002218635499238563200_);}
	.st58{fill:url(#SVGID_00000016058340898450048200000008389567320458813630_);}
	.st59{fill:url(#SVGID_00000076579627621175991150000005201680094526394284_);}
	.st60{fill:url(#SVGID_00000063615410477847799450000008998718123750964920_);}
	.st61{fill:url(#SVGID_00000138562425774781464230000006853247964986797993_);}
	.st62{fill:url(#SVGID_00000016076478274312737640000002752209433335783330_);}
	.st63{fill:url(#SVGID_00000047768055647739923840000012124896968418609854_);}
	.st64{fill:url(#SVGID_00000029761665931520395410000003841380013249640340_);}
	.st65{fill:url(#SVGID_00000158730701439249705520000007032755368772796580_);}
	.st66{fill:url(#SVGID_00000021803659744354841680000000798759706006935440_);}
	.st67{fill:url(#SVGID_00000057145360760410725540000009523866213172266117_);}
	.st68{fill:url(#SVGID_00000034075314699495102460000007659810139233496455_);}
	.st69{fill:url(#SVGID_00000079456691614812857810000017665489356118005181_);}
	.st70{fill:url(#SVGID_00000019638548805282243310000003137985958898049182_);}
	.st71{fill:url(#SVGID_00000169520898342547865150000004274629850197417897_);}
	.st72{fill:url(#SVGID_00000014602746377534955860000000815578701750423707_);}
	.st73{fill:url(#SVGID_00000010293384917328506130000007462477404645692810_);}
	.st74{fill:url(#SVGID_00000040561925343810500050000004885953144268862614_);}
	.st75{fill:url(#SVGID_00000157309512647470254830000004844574244135171508_);}
	.st76{fill:url(#SVGID_00000111188161634852998440000011743204372034965681_);}
	.st77{fill:url(#SVGID_00000029024863287947687900000010797752149961775018_);}
	.st78{fill:url(#SVGID_00000165946472782068120290000000474070851275813293_);}
	.st79{fill:url(#SVGID_00000072966990553979402480000007478729663225658770_);}
	.st80{fill:url(#SVGID_00000179619304340747694250000013454301006256078758_);}
	.st81{fill:url(#SVGID_00000109002489501335834190000014226987539372445602_);}
	.st82{fill:url(#SVGID_00000005980988057541979030000008925508540048150195_);}
	.st83{fill:url(#SVGID_00000117638883403048614750000009281674543377540004_);}
	.st84{fill:url(#SVGID_00000103958003436109844460000014613413251634117041_);}
	.st85{fill:url(#SVGID_00000064351179518080325490000001938512977373463981_);}
	.st86{fill:url(#SVGID_00000061451267366249775110000011098607030675070123_);}
	.st87{fill:url(#SVGID_00000031923679167956642740000016806159986025118107_);}
	.st88{fill:url(#SVGID_00000067944790122855526630000015374397504180401580_);}
	.st89{fill:url(#SVGID_00000145778519310537944840000016022132878136544689_);}
	.st90{fill:url(#SVGID_00000065794357467219510570000018171166980645551025_);}
	.st91{fill:url(#SVGID_00000052100523316483342070000004120032861839069619_);}
	.st92{fill:url(#SVGID_00000009563435577873463170000000041952281138913210_);}
	.st93{fill:url(#SVGID_00000111913141554847298040000003213602901533025434_);}
	.st94{fill:url(#SVGID_00000134234394704012623590000008210132971142080162_);}
	.st95{fill:url(#SVGID_00000024684594698988423220000015912784928977838238_);}
	.st96{fill:url(#SVGID_00000025407870624188478760000007166953868357771420_);}
	.st97{fill:url(#SVGID_00000101076724026480812830000013335532885409534383_);}
	.st98{fill:url(#SVGID_00000126317621998568492260000018367302352037217682_);}
	.st99{fill:url(#SVGID_00000094615538772384157430000002270167865737130916_);}
	.st100{fill:url(#SVGID_00000083048284133733055650000002445648984748763576_);}
	.st101{fill:url(#SVGID_00000044876125852177100300000012183445771784040087_);}
	.st102{fill:url(#SVGID_00000116937671988660733680000011085729691887535771_);}
	.st103{fill:url(#SVGID_00000182487637718622439370000004318989159811155330_);}
	.st104{fill:url(#SVGID_00000147930869992877369320000004646389564274225560_);}
	.st105{fill:url(#SVGID_00000093142500992132253700000010948486493814186409_);}
	.st106{fill:url(#SVGID_00000152253726587161230010000007007642654561544114_);}
	.st107{fill:url(#SVGID_00000116230431127265259510000015307463748213319848_);}
	.st108{fill:url(#SVGID_00000072963248627341181670000004796933828048361132_);}
	.st109{fill:url(#SVGID_00000098183287412393541550000013935259637758038405_);}
	.st110{fill:url(#SVGID_00000160877469317027040040000001834059160319289499_);}
	.st111{fill:url(#SVGID_00000147189602680580480420000011327232446578303625_);}
	.st112{fill:url(#SVGID_00000077320674706907520140000017491646634311420825_);}
	.st113{fill:url(#SVGID_00000107565475345283966030000016274241567307847071_);}
	.st114{fill:url(#SVGID_00000164483659376724580580000011270824251419360953_);}
	.st115{fill:url(#SVGID_00000148627100095637747120000017582225831478325144_);}
	.st116{fill:url(#SVGID_00000078745327184188751210000005019610626243130800_);}
	.st117{fill:url(#SVGID_00000003802293685826737910000013378936366228450456_);}
	.st118{fill:url(#SVGID_00000040546536297807808900000001865148077874036123_);}
	.st119{fill:url(#SVGID_00000145777430074047955280000014579966244297217417_);}
	.st120{fill:#EDEDED;}
	.st121{fill:url(#SVGID_00000172400713164945038460000001329778669179670206_);}
	.st122{fill:url(#SVGID_00000037680836433748236820000010022931798322404506_);}
	.st123{fill:url(#SVGID_00000145753000643878832590000000635413418627376021_);}
	.st124{fill:url(#SVGID_00000152958544796831014560000007102878617071342992_);}
	.st125{fill:url(#SVGID_00000107575973542802989270000011821404000027740815_);}
	.st126{fill:url(#SVGID_00000114060928351568851760000010961325392255523992_);}
	.st127{fill:url(#SVGID_00000004546576439533140760000017527053976833469352_);}
	.st128{fill:url(#SVGID_00000104695137396764035800000002196370379709455258_);}
	.st129{fill:url(#SVGID_00000161630003089939239750000006347591060715920262_);}
	.st130{fill:url(#SVGID_00000085231140312523732290000013061089614421422464_);}
	.st131{fill:url(#SVGID_00000023250441754005856150000000253336402283503775_);}
	.st132{fill:url(#SVGID_00000071522510535895491610000017492846193337860535_);}
	.st133{fill:url(#SVGID_00000083777211593773823130000008216685617619222656_);}
	.st134{fill:url(#SVGID_00000151535177206406718500000001736276287439409848_);}
	.st135{fill:url(#SVGID_00000061469872696310874600000000960909091205104558_);}
	.st136{fill:url(#SVGID_00000083771774091765303970000011034180580624960928_);}
	.st137{fill:url(#SVGID_00000013913269516179178310000002823904489272130961_);}
	.st138{fill:url(#SVGID_00000150061140802460569900000007634819282631173311_);}
	.st139{fill:url(#SVGID_00000160903812082932313940000015369447499845090190_);}
	.st140{fill:url(#SVGID_00000049206607783460750440000009693110112264058025_);}
	.st141{fill:url(#SVGID_00000021798877292923062700000011010503647177170054_);}
	.st142{fill:url(#SVGID_00000070820098547204951380000016758185880335648441_);}
	.st143{fill:url(#SVGID_00000170269838965778519630000003445217385591628221_);}
	.st144{fill:url(#SVGID_00000114061296617135437930000003623730559908589216_);}
	.st145{fill:url(#SVGID_00000007391257474461765230000006925177322127050161_);}
	.st146{fill:url(#SVGID_00000125565071961926021920000014341687807492993423_);}
	.st147{fill:url(#SVGID_00000019659026280936554410000008360225891411161228_);}
	.st148{fill:url(#SVGID_00000111152648204021254790000006449141027944379066_);}
	.st149{fill:url(#SVGID_00000134235400065109206180000014622178180331615634_);}
	.st150{fill:url(#SVGID_00000143588008514443298680000004551369614487420801_);}
	.st151{fill:url(#SVGID_00000070117686006002342470000011910557864286089635_);}
	.st152{fill:url(#SVGID_00000012439740478458728790000009470817254031781015_);}
	.st153{fill:url(#SVGID_00000062892399446454487740000007926149895865057718_);}
	.st154{fill:url(#SVGID_00000036932185464076812940000002668979553994079118_);}
	.st155{fill:url(#SVGID_00000139989419358942713450000015651641042288604569_);}
	.st156{fill:url(#SVGID_00000154392999364644770330000008539983584860586637_);}
	.st157{clip-path:url(#SVGID_00000103960601267466847760000004945839368343952005_);}
	.st158{fill:url(#Path_4160_00000065037215904833193400000008855325078796112257_);}
	.st159{fill:url(#Path_4161_00000014624628122667246200000005729674670735222172_);}
	.st160{fill:url(#Path_4162_00000087392798194898499030000015589513425305113995_);}
	.st161{fill:url(#Path_4163_00000041269805395682682770000005685165125496455560_);}
	.st162{fill:url(#Path_4164_00000053529399658394772780000016850518606563283900_);}
	.st163{fill:url(#Path_4165_00000097493462074793984760000008661655633200502455_);}
	.st164{fill:url(#Path_4166_00000023269039098051382690000005680540149933313690_);}
	.st165{fill:url(#Path_4167_00000096024008893341993940000004483089444470037891_);}
	.st166{fill:url(#SVGID_00000004524843207077985380000010175460268995457428_);}
	.st167{fill:url(#SVGID_00000010283393391654344060000008538758164212949900_);}
	.st168{fill:url(#SVGID_00000181063801022311680500000004191618509653175712_);}
	.st169{fill:url(#SVGID_00000097502015869026683230000000832075062322460338_);}
	.st170{fill:url(#SVGID_00000048496812399912217080000014051988846061078167_);}
	.st171{fill:url(#SVGID_00000093145863978035803930000006568174320532118959_);}
	.st172{fill:url(#SVGID_00000081622527962660777220000017647349756374650809_);}
	.st173{fill:url(#SVGID_00000121976136009001357540000007289355193652761494_);}
	.st174{fill:url(#SVGID_00000146459752732001243880000003176205782661891984_);}
	.st175{fill:url(#SVGID_00000122682421747893279830000016365589503610978235_);}
	.st176{fill:url(#SVGID_00000023240931660779485150000006479395492657414792_);}
	.st177{fill:url(#SVGID_00000119799186129557760680000003668557300085893043_);}
	.st178{fill:url(#SVGID_00000158726670069246735930000002405392118144243875_);}
	.st179{fill:url(#SVGID_00000169529534948667072100000001419785513640615088_);}
	.st180{fill:url(#SVGID_00000011001434901092728830000008508522556287950501_);}
	.st181{fill:url(#SVGID_00000163763207055452375600000003918423318141804164_);}
	.st182{fill:url(#SVGID_00000128453705766659962790000014208450258557055667_);}
	.st183{fill:url(#SVGID_00000031191965131399392380000011374601259994947992_);}
	.st184{fill:url(#SVGID_00000003812517775782691080000005758479432475171213_);}
	.st185{fill:url(#SVGID_00000131326135461184546990000007155337480804001434_);}
	.st186{fill:url(#SVGID_00000167362035239859955790000000464432587279395486_);}
	.st187{fill:url(#SVGID_00000038395413932050497540000016429026514714472834_);}
	.st188{fill:url(#SVGID_00000124142527978375890220000014134359895746160787_);}
	.st189{fill:url(#SVGID_00000031208871924979601820000015699093017328945075_);}
	.st190{fill:url(#SVGID_00000075880355440002718310000005751111836874517678_);}
	.st191{fill:url(#SVGID_00000162336362407222014920000004896373682743889594_);}
	.st192{fill:url(#SVGID_00000091719060390947010190000013498013710602975645_);}
	.st193{fill:url(#SVGID_00000082358439082993683150000018367848179395609518_);}
	.st194{fill:url(#SVGID_00000024692865583669983980000000783126440254705324_);}
	.st195{fill:url(#SVGID_00000106109452490131564270000001507040377050335669_);}
	.st196{fill:url(#SVGID_00000059282570398602723240000011646059559928938686_);}
	.st197{fill:url(#SVGID_00000122679938308392661190000009672681898183097750_);}
	.st198{fill:url(#SVGID_00000019680174180757099780000004031101900263130027_);}
	.st199{fill:url(#SVGID_00000005983463438063135540000002892633494507225272_);}
	.st200{fill:url(#SVGID_00000168799949269135537780000002080781166077071239_);}
	.st201{fill:url(#SVGID_00000103265037258966446450000010614315199722715534_);}
	.st202{fill:url(#SVGID_00000045621177334375204910000014289982518779331005_);}
	.st203{fill:url(#SVGID_00000057149301247632149750000017114927563686567328_);}
	.st204{fill:url(#SVGID_00000049920963638555755370000014551083411804797346_);}
	.st205{fill:url(#SVGID_00000090275286888164914500000002819362174945077667_);}
	.st206{fill:url(#SVGID_00000008844447498713054880000011410661923618559624_);}
	.st207{fill:url(#SVGID_00000039095429975154510300000013526404926170661512_);}
	.st208{fill:url(#SVGID_00000168832142225059993540000011311939195522017963_);}
	.st209{fill:url(#SVGID_00000100380225774122749390000002879448314766833327_);}
	.st210{fill:url(#SVGID_00000030463614923557867400000003759529292570557601_);}
	.st211{fill:url(#SVGID_00000000217284812661689200000000333831510135609491_);}
	.st212{fill:url(#SVGID_00000105414447512058055390000001558962854681352636_);}
	.st213{fill:url(#SVGID_00000109025967028351510680000010387767628761664447_);}
	.st214{fill:url(#SVGID_00000078013348503689993860000015069232120025543321_);}
	.st215{fill:url(#SVGID_00000054258069076683789230000011524578784773241752_);}
	.st216{fill:url(#SVGID_00000152977175097705212260000009053621345721149881_);}
	.st217{fill:url(#SVGID_00000168803250277523263250000006669323813521810079_);}
	.st218{fill:url(#SVGID_00000089534100729087735270000013619196411531942822_);}
	.st219{fill:url(#SVGID_00000057854174430831341900000010507766069936847794_);}
	.st220{fill:url(#SVGID_00000044173473109942449360000013256270486137923483_);}
	.st221{fill:url(#SVGID_00000158729332460406315530000002667716953736842392_);}
	.st222{fill:url(#SVGID_00000160165867296232381820000000566822388560339889_);}
	.st223{fill:url(#SVGID_00000008145770936178100270000016713013841388096696_);}
	.st224{fill:url(#SVGID_00000075125401455392058530000006474189319458317225_);}
	.st225{fill:url(#SVGID_00000142156906875194482020000014787892525227947179_);}
	.st226{fill:url(#SVGID_00000021084504880385810600000011888257426920490378_);}
	.st227{fill:url(#SVGID_00000034066451912878242780000017105530900031281845_);}
	.st228{fill:url(#SVGID_00000095330999171555134150000000837831654358689684_);}
	.st229{fill:url(#SVGID_00000154425244448088417920000009667433087347212954_);}
	.st230{fill:url(#SVGID_00000175300222209885437040000005336229043294922628_);}
	.st231{fill:url(#SVGID_00000082331810566677585570000002210744918192740020_);}
	.st232{fill:url(#SVGID_00000173123622435392579970000012349922849102221236_);}
	.st233{fill:url(#SVGID_00000062895995198338536810000013713081842991002300_);}
	.st234{fill:url(#SVGID_00000109002539478757575650000013705479180017691034_);}
	.st235{fill:url(#SVGID_00000012473580735375862850000003314736917021981062_);}
	.st236{fill:url(#SVGID_00000000932892322155485300000015715342184249937588_);}
	.st237{fill:url(#SVGID_00000073698853332546787430000010612916329638570422_);}
	.st238{fill:url(#SVGID_00000080168235564154097930000012506734649783785611_);}
	.st239{fill:url(#SVGID_00000084529878369392931690000018446203203477135005_);}
	.st240{fill:url(#SVGID_00000162347255146366291870000015150548491407026349_);}
	.st241{fill:url(#SVGID_00000065057855159322267350000008692710030169832883_);}
	.st242{fill:url(#SVGID_00000087390619231184936450000011603200771501121408_);}
	.st243{fill:url(#SVGID_00000103230757273996331710000005356888044285191344_);}
	.st244{fill:url(#SVGID_00000102531245404235006330000011949963273580796806_);}
	.st245{fill:url(#SVGID_00000004539249399943207580000001743573579789855926_);}
	.st246{fill:url(#SVGID_00000029011743215575011560000000413336225517641908_);}
	.st247{fill:url(#SVGID_00000129901562086035837260000007673145439423749271_);}
	.st248{fill:url(#SVGID_00000163064856566050783110000014425812434203874728_);}
	.st249{fill:url(#SVGID_00000160900120692271485630000000949739218104004255_);}
	.st250{fill:url(#SVGID_00000067195950938663459010000000208241441622538630_);}
	.st251{fill:url(#SVGID_00000103237559250372932420000011780982567411473058_);}
	.st252{fill:url(#SVGID_00000036970125103841374860000011801191110091122087_);}
	.st253{fill:url(#SVGID_00000168079825541712442170000004234006509962622121_);}
	.st254{fill:url(#SVGID_00000011720835020883879270000011599068235130773411_);}
	.st255{fill:url(#SVGID_00000146474159872891491810000014784727451484293519_);}
	.st256{fill:url(#SVGID_00000038413737217839400660000015961747062641480603_);}
	.st257{fill:url(#SVGID_00000163785990465927450970000010578582597854752413_);}
	.st258{fill:url(#SVGID_00000128452525796517211560000013256438093732922263_);}
	.st259{fill:url(#SVGID_00000155126384035333199040000005759047370212358281_);}
	.st260{fill:url(#SVGID_00000074414402055219223370000009100757831413303969_);}
	.st261{fill:url(#SVGID_00000066478243509884059240000007481487547848272769_);}
	.st262{fill:url(#SVGID_00000087414118008942621030000007654455239431725492_);}
	.st263{fill:url(#SVGID_00000161629271105404400660000008701949297076397215_);}
	.st264{fill:url(#SVGID_00000129923336760978430060000009886652081329953468_);}
	.st265{fill:url(#SVGID_00000137104197856547005190000013083879891235900571_);}
	.st266{fill:url(#SVGID_00000101079299031596050920000007479603255413472128_);}
	.st267{fill:url(#SVGID_00000041258518883202385060000015430260973160372405_);}
	.st268{fill:url(#SVGID_00000123399851697428923730000001814751751767281561_);}
	.st269{fill:url(#SVGID_00000133508499831740818240000003563175498419479720_);}
	.st270{fill:url(#SVGID_00000153688720725042622430000013848481926881447095_);}
	.st271{fill:url(#SVGID_00000052811536595456262460000017161570792185517479_);}
	.st272{fill:url(#SVGID_00000007396338161149660290000018017528838669397408_);}
	.st273{fill:url(#SVGID_00000132777285928798629910000001170351178175111810_);}
	.st274{fill:url(#SVGID_00000030466237228585749020000000964983810533625216_);}
	.st275{fill:url(#SVGID_00000167380003165191333680000010358363387352154270_);}
	.st276{fill:url(#SVGID_00000175282614583731904550000000188969058975703188_);}
	.st277{fill:url(#SVGID_00000061435477996601100040000016006099785427765665_);}
	.st278{fill:url(#SVGID_00000141438347571996528000000002206563495717925032_);}
	.st279{fill:url(#SVGID_00000041293115571378812890000004732937971530483853_);}
	.st280{fill:url(#SVGID_00000119103700072631061350000017313966411507863941_);}
	.st281{fill:url(#SVGID_00000158003444925636905310000013721010363613787547_);}
	.st282{fill:url(#SVGID_00000181087751902336728460000003092868814540629906_);}
	.st283{fill:url(#SVGID_00000049192163372281950940000012097631796139673013_);}
	.st284{fill:url(#SVGID_00000154401955143241214110000003058951519139339707_);}
	.st285{fill:url(#SVGID_00000052786467599273096610000018074478162474631571_);}
	.st286{fill:url(#SVGID_00000145049695992550047530000011006845741410408869_);}
	.st287{fill:url(#SVGID_00000003088706217678631320000010067902169228439203_);}
	.st288{fill:url(#SVGID_00000081622785183682480330000001489325305910529456_);}
	.st289{fill:url(#SVGID_00000034068726998762032690000000817881962429043132_);}
	.st290{fill:url(#SVGID_00000116233634107922197600000014520271996964120470_);}
	.st291{fill:url(#SVGID_00000020385774807140800160000008335246785493069489_);}
	.st292{fill:url(#SVGID_00000164505554414896777970000005658904766259400844_);}
	.st293{fill:url(#SVGID_00000055700840677505576120000012709696188329472939_);}
	.st294{fill:url(#SVGID_00000119824856240215235430000004699180214845219263_);}
	.st295{fill:url(#SVGID_00000127761883250910922370000008545935142832121487_);}
	.st296{fill:url(#SVGID_00000178920901873520678800000017360953911520045759_);}
	.st297{fill:url(#SVGID_00000079451668294103341750000008708915615351015326_);}
	.st298{fill:url(#SVGID_00000093178556211172105730000011233355878793445291_);}
	.st299{fill:url(#SVGID_00000157990810442171219500000015140701774850786695_);}
	.st300{fill:url(#SVGID_00000137120919214749597700000009336562757425648272_);}
	.st301{fill:url(#SVGID_00000042016648421362788900000005294393872369328313_);}
	.st302{fill:url(#SVGID_00000016770999375113847060000005672081626381222332_);}
	.st303{fill:url(#SVGID_00000133503762044158696190000010195741145297331362_);}
	.st304{fill:url(#SVGID_00000052797573177817006580000006382369563671213990_);}
	.st305{fill:url(#SVGID_00000124882659657242671630000007133179202799762850_);}
	.st306{fill:url(#SVGID_00000113320017608706252930000007499033841366904980_);}
	.st307{fill:url(#SVGID_00000158717374654894193270000018321419573066469526_);}
	.st308{fill:url(#SVGID_00000103982342513536051290000006181174535921900707_);}
	.st309{fill:url(#SVGID_00000087396872133140949180000015245262595092396171_);}
	.st310{fill:url(#SVGID_00000089542875177620105200000004164387884571537336_);}
	.st311{fill:url(#SVGID_00000072261498704486747580000016731465304309791381_);}
	.st312{fill:url(#SVGID_00000049913002212881685370000009583967675847099577_);}
	.st313{fill:url(#SVGID_00000109024713043842015980000011807271727739450502_);}
	.st314{fill:url(#SVGID_00000042701790049424414130000005539425426130900363_);}
	.st315{fill:url(#SVGID_00000021816988693912599080000004412820716985464506_);}
	.st316{fill:url(#SVGID_00000024708547664571577320000017296169559367355795_);}
	.st317{fill:url(#SVGID_00000136405535452013348540000005221437992611298177_);}
	.st318{fill:url(#SVGID_00000140005024132765876830000012660927929648839344_);}
	.st319{fill:url(#SVGID_00000058578694501042627380000016333518366189451656_);}
	.st320{fill:url(#SVGID_00000100358945423000114950000012070482566001219507_);}
	.st321{fill:url(#SVGID_00000075875272601105981150000014057429342044645555_);}
	.st322{fill:url(#SVGID_00000047031572557761104720000010649014578588929665_);}
	.st323{fill:url(#SVGID_00000060016389797513301170000018134398676029305763_);}
	.st324{fill:url(#SVGID_00000167356904554986088900000009922864807128485030_);}
	.st325{fill:url(#SVGID_00000149358601790425555270000002062319163894644382_);}
	.st326{fill:url(#SVGID_00000035491376036118695330000013578840234037496507_);}
	.st327{fill:url(#SVGID_00000065785772952483199870000009675301095974447001_);}
	.st328{fill:url(#SVGID_00000154428059507926697940000017593227263019822003_);}
	.st329{fill:url(#SVGID_00000014628218775959307440000000885487634158582934_);}
	.st330{fill:url(#SVGID_00000094599012335581706790000015649748525902983574_);}
	.st331{fill:url(#SVGID_00000182495323809726080930000004203019067169573819_);}
	.st332{fill:url(#SVGID_00000013902070425087729370000004476951647108811399_);}
	.st333{fill:url(#SVGID_00000178198259753858521100000007375738762979511711_);}
	.st334{fill:url(#SVGID_00000042700128797639113830000013035285392303166885_);}
	.st335{fill:url(#SVGID_00000137123861921438691260000009190280555102040254_);}
	.st336{fill:url(#SVGID_00000031200893687595918920000009136230242959561630_);}
	.st337{fill:url(#SVGID_00000162332441272735087030000013771771867215389101_);}
	.st338{fill:url(#SVGID_00000026130510944302996380000011197596412005154443_);}
	.st339{fill:url(#SVGID_00000139279553918134470500000014997251439925568408_);}
	.st340{fill:url(#SVGID_00000105416043779643219530000017903187919734550178_);}
	.st341{fill:url(#SVGID_00000050627574087541793250000018026920260634002315_);}
	.st342{fill:url(#SVGID_00000094598222683645605980000005384245444481823421_);}
	.st343{fill:url(#SVGID_00000105393584941066170160000017562276390160298882_);}
	.st344{fill:url(#SVGID_00000114788844667427670100000017658307303574002622_);}
	.st345{fill:url(#SVGID_00000113344095185055174060000014588407700888902589_);}
	.st346{fill:url(#SVGID_00000153691870069771209030000013618900116413077409_);}
	.st347{fill:url(#SVGID_00000086675629490188673290000012923706004349319565_);}
	.st348{fill:url(#SVGID_00000054974975672034525870000008761653474392527753_);}
	.st349{fill:url(#SVGID_00000005230326563539959830000017862466658371368854_);}
	.st350{fill:url(#SVGID_00000107558718224940191620000009713442632612103325_);}
	.st351{fill:url(#SVGID_00000091713491369507471470000016687562166353542312_);}
	.st352{fill:url(#SVGID_00000085944899805763647540000002349887874370108341_);}
	.st353{fill:url(#SVGID_00000040551396919808305620000003261326234264840637_);}
	.st354{fill:url(#SVGID_00000005976515585857751300000014339458924673175439_);}
	.st355{fill:url(#SVGID_00000028321159493472905060000015559934697054853795_);}
	.st356{fill:url(#SVGID_00000072240490846300103710000008521886028861594504_);}
	.st357{fill:url(#SVGID_00000141424864252746434440000000574327188270323616_);}
	.st358{fill:url(#SVGID_00000078749513565768291210000010486956228641157534_);}
	.st359{fill:url(#SVGID_00000131349119438026984840000009366945485236390278_);}
	.st360{fill:url(#SVGID_00000034054816129484595100000006594707166651434392_);}
	.st361{fill:url(#SVGID_00000079458063542749638780000018225738267489133492_);}
	.st362{fill:url(#SVGID_00000105401473914486633370000010355462246470941623_);}
	.st363{fill:url(#SVGID_00000098905192208924697690000018107309814863318189_);}
	.st364{fill:url(#SVGID_00000053517061955941040150000005162463434659593092_);}
	.st365{fill:url(#SVGID_00000181804020137016319680000002187902976593105849_);}
	.st366{fill:url(#SVGID_00000062156401287463537790000007511657858455233183_);}
	.st367{fill:url(#SVGID_00000039095750333476179140000015858932523043979954_);}
	.st368{fill:url(#SVGID_00000182495354449031421550000009201047060273206404_);}
	.st369{fill:url(#SVGID_00000039136261347195773390000010172080031854233751_);}
	.st370{fill:url(#SVGID_00000080203451499003094110000018352343328435520397_);}
	.st371{fill:url(#SVGID_00000145745481897629025890000017403652851099496114_);}
	.st372{fill:url(#SVGID_00000030458884163753243340000008273896122942299264_);}
	.st373{fill:url(#SVGID_00000035511401166326119810000005351998575385541525_);}
	.st374{fill:url(#SVGID_00000176763530851726999350000008725824585374287490_);}
	.st375{fill:url(#SVGID_00000141457247830203067790000017843395595490742148_);}
	.st376{fill:url(#SVGID_00000154417262809271894750000012631659614240036762_);}
	.st377{fill:url(#SVGID_00000086652608702567491780000016219816439977312159_);}
	.st378{fill:url(#SVGID_00000133512327633410276330000013831641997813576079_);}
	.st379{fill:url(#SVGID_00000181795985427024066060000011436088854768208789_);}
	.st380{fill:url(#SVGID_00000100360188464066948410000017889001405314522530_);}
	.st381{fill:url(#SVGID_00000129207091390600591250000010048423029947184261_);}
	.st382{fill:url(#SVGID_00000165938013552525110920000012017573120903935142_);}
	.st383{fill:url(#SVGID_00000108300010077465047980000017496387282718189444_);}
	.st384{fill:url(#SVGID_00000064350508175942639950000000848289855684349599_);}
	.st385{fill:url(#SVGID_00000119080809734043719280000009117704753633882284_);}
	.st386{fill:url(#SVGID_00000174560539407751993000000016764311513120109743_);}
	.st387{fill:url(#SVGID_00000036223513855766981830000008612373143821360523_);}
	.st388{fill:url(#SVGID_00000000944139176525235060000015220009297888643715_);}
	.st389{fill:url(#SVGID_00000062880891845050027740000011229012309635230398_);}
	.st390{fill:url(#SVGID_00000108310804442649923380000002144305192166881190_);}
	.st391{fill:url(#SVGID_00000088123428257175867040000014665602015875626922_);}
	.st392{fill:url(#SVGID_00000052079023722457188020000011468271657890642610_);}
	.st393{fill:url(#SVGID_00000132084168576820994020000007010759598077254548_);}
	.st394{fill:url(#SVGID_00000076581906108314629660000011158162083807309735_);}
	.st395{fill:url(#SVGID_00000107560244247237079190000005662962466637798297_);}
	.st396{fill:url(#SVGID_00000178164952026446691840000012815702768443374247_);}
	.st397{fill:url(#SVGID_00000115515979089538284620000002021465638079970222_);}
	.st398{fill:url(#SVGID_00000042697669566588069320000012991513476997544618_);}
	.st399{fill:url(#SVGID_00000029024967428721051210000001821242017108770960_);}
	.st400{fill:url(#SVGID_00000088819105794870792480000015574957525981898677_);}
	.st401{fill:url(#SVGID_00000146476565629703406150000000286032122772435595_);}
	.st402{fill:url(#SVGID_00000127026666474287359750000013486115357929655470_);}
	.st403{fill:url(#SVGID_00000158731438959375372960000014279303181712820396_);}
	.st404{fill:url(#SVGID_00000000182557664920723610000010133457396653287865_);}
	.st405{fill:url(#SVGID_00000023960692617272115430000005283384550926735773_);}
	.st406{fill:url(#SVGID_00000105423230527356279470000006629441120903548093_);}
	.st407{fill:url(#SVGID_00000023277211459104366350000005229047216172994699_);}
	.st408{fill:url(#SVGID_00000180367421220888069500000000592528876816841886_);}
	.st409{fill:url(#SVGID_00000094585433175560541240000003109799608229855652_);}
	.st410{fill:url(#SVGID_00000008141203776088033220000013036777049455332753_);}
	.st411{fill:url(#SVGID_00000133529688404370731420000002634601219062853815_);}
	.st412{fill:url(#SVGID_00000150783080902666546090000014910267221663295128_);}
	.st413{fill:url(#SVGID_00000124162795278962103150000000097396110208360074_);}
	.st414{fill:url(#SVGID_00000116926109972416934500000007611143875360996537_);}
	.st415{fill:url(#SVGID_00000134239774145437166920000015636220195288833435_);}
	.st416{fill:url(#SVGID_00000089548772083338349130000013272670501431698835_);}
	.st417{fill:url(#SVGID_00000093888196408517328640000004714120045762096263_);}
	.st418{fill:url(#SVGID_00000124872193739349156410000017320896553021336459_);}
</style>
<ellipse id="Ellipse_113_00000147190823816523651060000003388156306691888311_" class="st0" cx="75" cy="75" rx="70" ry="70"/>
<g>
	<linearGradient id="SVGID_1_" gradientUnits="userSpaceOnUse" x1="26.094" y1="42.7285" x2="112.5869" y2="100.875">
		<stop  offset="0" style="stop-color:#FF6600"/>
		<stop  offset="0" style="stop-color:#FF5204"/>
		<stop  offset="1" style="stop-color:#FF270D"/>
	</linearGradient>
	<path class="st1" d="M103.9,98.3c0.3-0.1,0.5-0.1,0.7-0.2c4.3-1.4,7.2-5.4,7.2-10c0-7.8,0-15.7,0-23.5c0-5.9-4.6-10.6-10.6-10.6
		c-2.4,0-4.8,0-7.1,0c-0.9,0-1.7,0.1-2.2,1c-0.4,0.6-0.9,1.2-1.5,1.6c-1.7,1.4-2.6,3-2.2,5.2c0,0,0,0.1,0,0.1
		c-0.1,1.5-1.1,2.6-2.7,2.6c-7,0-14,0-21,0c-1.5,0-2.6-1.1-2.7-2.6c0-0.8,0-1.6,0-2.5c0-0.3-0.2-0.7-0.4-1c-1.3-1.4-2.5-2.7-3.8-4.1
		C57.4,54.1,57,54,56.8,54c-2.7,0-5.5,0-8.2,0c-5.7,0.1-10.3,4.7-10.3,10.3c0,8,0,15.9,0,23.9c0,2.6,0.9,4.9,2.7,6.9
		c1.4,1.6,3.1,2.6,5.2,3.2c0-0.9,0-1.7,0-2.5c0.1-2.5,1.9-4.7,4.4-5c0.9-0.1,1.9-0.1,2.8-0.1c0.3,0,0.6-0.2,0.8-0.5
		c0.5-0.7,1.2-1.5,1.2-2.2c0-0.8-0.7-1.5-1.1-2.3c0,0-0.1-0.1-0.1-0.1c-1.3-2.6-0.5-5.5,1.9-7c3-1.8,6.1-3.7,9.2-5.4
		c2.6-1.5,5.6-0.7,7.2,1.9c0.4,0.6,0.7,1.2,1,1.8c0.1,0.2,0.4,0.4,0.7,0.4c1.8,0.3,3.1-0.1,3.7-2.1c0-0.1,0.1-0.1,0.1-0.2
		c1.5-2.4,4.5-3.3,6.9-1.9c3.2,1.8,6.4,3.7,9.6,5.7c1.9,1.1,2.7,3.3,2.2,5.4c-0.3,1.1-1,2.2-1.5,3.3c-0.2,0.4-0.2,0.7,0,1.1
		c0.7,1.8,1.8,2.4,3.8,2.3c2.9-0.1,5.1,2.3,5.2,5.2C103.9,96.7,103.9,97.4,103.9,98.3z M101.3,98.6c0-0.9,0-1.7,0-2.5
		c0-1.7-1.1-2.8-2.8-2.8c-1.1,0-2.1,0-3.2,0c-0.5,0-0.8-0.2-1-0.7c-0.7-1.4-1.5-2.7-2.3-4.1c-0.3-0.4-0.3-0.7,0-1.1
		c0.6-1,1.2-2,1.7-3.1c0.8-1.5,0.4-2.9-1-3.7c-2.9-1.8-5.9-3.5-8.8-5.2c-1.5-0.9-3-0.5-3.8,1c-0.6,1-1.1,2-1.7,3
		C78,79.9,77.8,80,77.3,80c-1.6-0.1-3.1-0.1-4.7,0c-0.5,0-0.7-0.1-0.9-0.5c-0.5-1-1.1-2-1.6-2.9c-0.9-1.6-2.4-2-4-1.1
		c-2.9,1.7-5.8,3.4-8.8,5.2c-1.4,0.8-1.8,2.3-1,3.7c0.6,1,1.1,2.1,1.7,3.1c0.2,0.4,0.2,0.7,0,1.1c-0.8,1.3-1.6,2.7-2.3,4.1
		c-0.2,0.4-0.5,0.6-0.9,0.6c-1.1,0-2.3,0-3.5,0c-1.4,0-2.5,0.9-2.6,2.2c-0.1,1,0,2.1,0,3.1c5.3,0,10.5,0,15.7,0
		c0.3-6.3,5-10.2,9.9-10.4c2.6-0.2,5,0.6,7.1,2.2c2.6,2.1,3.9,4.9,4.1,8.3C90.8,98.6,96,98.6,101.3,98.6z M67.5,101.3
		c-1.2,1.6-2.3,3-3.4,4.4c-0.5,0.7-1.1,0.9-1.9,0.8c-0.9-0.1-1.9,0-2.8,0c-1.6,0-2.8,1.1-2.8,2.6c0,1.5,1.2,2.6,2.7,2.6
		c10.4,0,20.9,0,31.3,0c1.6,0,2.8-1.1,2.8-2.6c0-1.5-1.2-2.6-2.8-2.6c-1.1,0-2.2,0-3.4,0c-0.3,0-0.6,0-0.7-0.2
		c-1.2-1.5-2.3-2.9-3.4-4.4c-0.3-0.5-0.5-0.6-1.1-0.6c-3.6,0-7.1,0-10.7,0C70,101.3,68.6,101.3,67.5,101.3z M69.7,61.8
		c0-1.7,0-3.3,0-4.9c0-1-0.3-1.7-1-2.4c-1.2-1.2-2.4-2.4-3.7-3.7c-0.9-0.9-0.9-2.6,0.1-3.4c2.3-1.9,2.6-5.2,0.6-7.5
		c-1.9-2.2-5.3-2.4-7.5-0.4c-2.2,2-2.4,5.4-0.2,7.4c1,1,1.3,1.9,1.2,3.1c0,0.3,0,0.7,0,1c0,0.9,0.3,1.7,1,2.3c0.7,0.6,1.3,1.4,2,2
		c1.9,1.4,2.7,3.2,2.3,5.6c-0.1,0.3,0,0.6,0,0.9c0.3,0,0.5,0,0.6,0C66.6,61.8,68.1,61.8,69.7,61.8z M85.5,61.8c0-0.2,0-0.3,0-0.5
		c0-1.2-0.3-2.6,0.1-3.7c0.5-1.1,1.7-1.8,2.6-2.7c2.9-3,2.5-2.1,2.5-6.2c0-0.5,0.1-0.9,0.6-1.2c2.5-1.9,2.8-5.4,0.7-7.7
		c-2.1-2.2-5.6-2.2-7.7,0c-2.1,2.3-1.9,5.7,0.6,7.7c0.8,0.6,0.9,2.4,0.1,3.2c-1.3,1.3-2.6,2.6-3.9,3.9c-0.4,0.4-0.8,1.1-0.9,1.6
		c-0.1,1.8,0,3.7,0,5.6C82,61.8,83.7,61.8,85.5,61.8z M77.6,61.8c0-0.3,0-0.6,0-0.9c0-4.1,0-8.1,0-12.2c0-0.5,0.1-0.8,0.5-1.2
		c2.5-1.9,2.8-5.4,0.7-7.7c-2.1-2.3-5.7-2.3-7.7,0c-2.1,2.3-1.8,5.8,0.7,7.7c0.5,0.4,0.6,0.7,0.6,1.2c0,4.1,0,8.1,0,12.2
		c0,0.3,0,0.6,0,0.9C74.2,61.8,75.9,61.8,77.6,61.8z M82.8,98.6c0.3-4.2-3.6-7.9-8-7.8c-4.2,0.1-8,3.9-7.6,7.8
		C72.4,98.6,77.6,98.6,82.8,98.6z"/>
	
		<linearGradient id="SVGID_00000065795297734303391600000004538382974207044509_" gradientUnits="userSpaceOnUse" x1="25.7767" y1="43.2006" x2="112.2696" y2="101.3471">
		<stop  offset="0" style="stop-color:#FF6600"/>
		<stop  offset="0" style="stop-color:#FF5204"/>
		<stop  offset="1" style="stop-color:#FF270D"/>
	</linearGradient>
	<path style="fill:url(#SVGID_00000065795297734303391600000004538382974207044509_);" d="M103.9,98.3c0-0.8,0-1.6,0-2.3
		c0-2.9-2.2-5.4-5.2-5.2c-2,0.1-3.1-0.5-3.8-2.3c-0.2-0.4-0.2-0.7,0-1.1c0.6-1.1,1.2-2.1,1.5-3.3c0.6-2.1-0.3-4.3-2.2-5.4
		c-3.2-1.9-6.4-3.9-9.6-5.7c-2.5-1.4-5.4-0.5-6.9,1.9c0,0.1-0.1,0.1-0.1,0.2c-0.5,1.9-1.9,2.3-3.7,2.1c-0.2,0-0.5-0.2-0.7-0.4
		c-0.4-0.6-0.7-1.2-1-1.8c-1.6-2.6-4.6-3.4-7.2-1.9c-3.1,1.8-6.1,3.6-9.2,5.4c-2.5,1.5-3.2,4.4-1.9,7c0,0,0.1,0.1,0.1,0.1
		c0.4,0.8,1.1,1.5,1.1,2.3c0,0.7-0.7,1.5-1.2,2.2c-0.2,0.2-0.5,0.5-0.8,0.5c-0.9,0.1-1.9,0-2.8,0.1c-2.5,0.4-4.3,2.5-4.4,5
		c0,0.8,0,1.6,0,2.5c-2.1-0.5-3.8-1.6-5.2-3.2c-1.7-2-2.7-4.3-2.7-6.9c0-8,0-15.9,0-23.9c0-5.7,4.7-10.3,10.3-10.3
		c2.7,0,5.5,0,8.2,0c0.3,0,0.6,0.1,0.8,0.3c1.3,1.3,2.6,2.7,3.8,4.1c0.2,0.3,0.4,0.7,0.4,1c0.1,0.8,0,1.6,0,2.5
		c0,1.5,1.1,2.6,2.7,2.6c7,0,14,0,21,0c1.5,0,2.6-1.1,2.7-2.6c0,0,0-0.1,0-0.1c-0.4-2.2,0.4-3.9,2.2-5.2c0.6-0.5,1.1-1,1.5-1.6
		c0.6-0.8,1.3-1,2.2-1c2.4,0.1,4.8,0,7.1,0c5.9,0,10.6,4.6,10.6,10.6c0,7.8,0,15.7,0,23.5c0,4.7-2.9,8.7-7.2,10
		C104.4,98.1,104.2,98.2,103.9,98.3z"/>
	
		<linearGradient id="SVGID_00000077286036644576171150000010964474811352398002_" gradientUnits="userSpaceOnUse" x1="18.2469" y1="54.4012" x2="104.7398" y2="112.5477">
		<stop  offset="0" style="stop-color:#FF6600"/>
		<stop  offset="0" style="stop-color:#FF5204"/>
		<stop  offset="1" style="stop-color:#FF270D"/>
	</linearGradient>
	<path style="fill:url(#SVGID_00000077286036644576171150000010964474811352398002_);" d="M101.3,98.6c-5.3,0-10.5,0-15.7,0
		c-0.1-3.4-1.4-6.2-4.1-8.3c-2.1-1.6-4.5-2.4-7.1-2.2c-4.9,0.3-9.6,4.1-9.9,10.4c-5.2,0-10.4,0-15.7,0c0-1-0.1-2.1,0-3.1
		c0.1-1.3,1.2-2.2,2.6-2.2c1.1,0,2.3,0,3.5,0c0.5,0,0.7-0.1,0.9-0.6c0.7-1.4,1.5-2.8,2.3-4.1c0.3-0.4,0.3-0.7,0-1.1
		c-0.6-1-1.2-2-1.7-3.1c-0.8-1.5-0.4-2.9,1-3.7c2.9-1.7,5.8-3.5,8.8-5.2c1.6-0.9,3-0.5,4,1.1c0.6,1,1.1,1.9,1.6,2.9
		c0.2,0.4,0.4,0.5,0.9,0.5c1.6-0.1,3.1-0.1,4.7,0c0.5,0,0.7-0.1,0.9-0.5c0.5-1,1.1-2,1.7-3c0.9-1.5,2.3-1.9,3.8-1
		c3,1.7,5.9,3.5,8.8,5.2c1.4,0.9,1.8,2.3,1,3.7c-0.6,1-1.1,2.1-1.7,3.1c-0.2,0.4-0.2,0.7,0,1.1c0.8,1.3,1.6,2.7,2.3,4.1
		c0.3,0.5,0.5,0.7,1,0.7c1.1,0,2.1,0,3.2,0c1.7,0,2.8,1.1,2.8,2.8C101.3,96.9,101.3,97.7,101.3,98.6z"/>
	
		<linearGradient id="SVGID_00000060713040702371371360000011881157101904703876_" gradientUnits="userSpaceOnUse" x1="10.5426" y1="65.8613" x2="97.0355" y2="124.0078">
		<stop  offset="0" style="stop-color:#FF6600"/>
		<stop  offset="0" style="stop-color:#FF5204"/>
		<stop  offset="1" style="stop-color:#FF270D"/>
	</linearGradient>
	<path style="fill:url(#SVGID_00000060713040702371371360000011881157101904703876_);" d="M67.5,101.3c1.1,0,2.5,0,4,0
		c3.6,0,7.1,0,10.7,0c0.5,0,0.8,0.2,1.1,0.6c1,1.5,2.2,3,3.4,4.4c0.1,0.2,0.5,0.2,0.7,0.2c1.1,0,2.2,0,3.4,0c1.6,0,2.8,1.1,2.8,2.6
		c0,1.5-1.2,2.6-2.8,2.6c-10.4,0-20.9,0-31.3,0c-1.6,0-2.8-1.2-2.7-2.6c0-1.5,1.2-2.6,2.8-2.6c0.9,0,1.9-0.1,2.8,0
		c0.8,0.1,1.4-0.2,1.9-0.8C65.1,104.3,66.2,102.9,67.5,101.3z"/>
	
		<linearGradient id="SVGID_00000157289832084690608870000017259300931049473430_" gradientUnits="userSpaceOnUse" x1="34.5121" y1="30.2067" x2="121.005" y2="88.3532">
		<stop  offset="0" style="stop-color:#FF6600"/>
		<stop  offset="0" style="stop-color:#FF5204"/>
		<stop  offset="1" style="stop-color:#FF270D"/>
	</linearGradient>
	<path style="fill:url(#SVGID_00000157289832084690608870000017259300931049473430_);" d="M69.7,61.8c-1.6,0-3.1,0-4.6,0
		c-0.2,0-0.4,0-0.6,0c0-0.4,0-0.7,0-0.9c0.4-2.4-0.4-4.1-2.3-5.6c-0.7-0.6-1.3-1.3-2-2c-0.7-0.6-1-1.4-1-2.3c0-0.3,0-0.7,0-1
		c0.1-1.2-0.1-2.2-1.2-3.1c-2.2-2-1.9-5.4,0.2-7.4c2.2-2,5.6-1.8,7.5,0.4c1.9,2.3,1.7,5.6-0.6,7.5c-1,0.8-1,2.5-0.1,3.4
		c1.2,1.2,2.4,2.5,3.7,3.7c0.7,0.7,1,1.4,1,2.4C69.7,58.5,69.7,60.1,69.7,61.8z"/>
	
		<linearGradient id="SVGID_00000067955249039667625090000012494423843351493258_" gradientUnits="userSpaceOnUse" x1="41.0717" y1="20.4493" x2="127.5646" y2="78.5957">
		<stop  offset="0" style="stop-color:#FF6600"/>
		<stop  offset="0" style="stop-color:#FF5204"/>
		<stop  offset="1" style="stop-color:#FF270D"/>
	</linearGradient>
	<path style="fill:url(#SVGID_00000067955249039667625090000012494423843351493258_);" d="M85.5,61.8c-1.8,0-3.5,0-5.2,0
		c0-1.9-0.1-3.7,0-5.6c0-0.6,0.5-1.2,0.9-1.6c1.2-1.3,2.6-2.6,3.9-3.9c0.7-0.7,0.6-2.5-0.1-3.2c-2.4-2-2.7-5.4-0.6-7.7
		c2.1-2.2,5.6-2.2,7.7,0c2.1,2.3,1.8,5.8-0.7,7.7c-0.5,0.3-0.6,0.7-0.6,1.2c0,4.1,0.4,3.2-2.5,6.2c-0.9,0.9-2.1,1.6-2.6,2.7
		c-0.4,1-0.1,2.4-0.1,3.7C85.5,61.5,85.5,61.6,85.5,61.8z"/>
	
		<linearGradient id="SVGID_00000109741142487872673540000002563623685283298988_" gradientUnits="userSpaceOnUse" x1="37.795" y1="25.3234" x2="124.2879" y2="83.4699">
		<stop  offset="0" style="stop-color:#FF6600"/>
		<stop  offset="0" style="stop-color:#FF5204"/>
		<stop  offset="1" style="stop-color:#FF270D"/>
	</linearGradient>
	<path style="fill:url(#SVGID_00000109741142487872673540000002563623685283298988_);" d="M77.6,61.8c-1.8,0-3.5,0-5.3,0
		c0-0.3,0-0.6,0-0.9c0-4.1,0-8.1,0-12.2c0-0.5-0.1-0.9-0.6-1.2c-2.5-1.9-2.8-5.4-0.7-7.7c2.1-2.3,5.7-2.3,7.7,0
		c2.1,2.3,1.8,5.8-0.7,7.7c-0.4,0.3-0.5,0.7-0.5,1.2c0,4.1,0,8.1,0,12.2C77.6,61.2,77.6,61.5,77.6,61.8z"/>
	
		<linearGradient id="SVGID_00000121988983524405779020000004413615630257513381_" gradientUnits="userSpaceOnUse" x1="16.4014" y1="57.1463" x2="102.8943" y2="115.2928">
		<stop  offset="0" style="stop-color:#FF6600"/>
		<stop  offset="0" style="stop-color:#FF5204"/>
		<stop  offset="1" style="stop-color:#FF270D"/>
	</linearGradient>
	<path style="fill:url(#SVGID_00000121988983524405779020000004413615630257513381_);" d="M82.8,98.6c-5.3,0-10.4,0-15.6,0
		c-0.4-3.9,3.4-7.8,7.6-7.8C79.2,90.7,83.1,94.5,82.8,98.6z"/>
</g>
</svg>
