<?xml version="1.0" encoding="utf-8"?>
<!-- Generator: Adobe Illustrator 27.4.0, SVG Export Plug-In . SVG Version: 6.00 Build 0)  -->
<svg version="1.1" id="Layer_1" xmlns="http://www.w3.org/2000/svg" xmlns:xlink="http://www.w3.org/1999/xlink" x="0px" y="0px"
	 viewBox="0 0 150 150" style="enable-background:new 0 0 150 150;" xml:space="preserve">
<style type="text/css">
	.st0{clip-path:url(#SVGID_00000099646925039196897960000005146616672440277425_);}
	.st1{clip-path:url(#SVGID_00000014632718505009829870000002936373122900657838_);}
	.st2{clip-path:url(#SVGID_00000155868292373885079410000013086902543499758470_);}
	.st3{clip-path:url(#SVGID_00000063598895398368403030000011653312748542135969_);}
	.st4{clip-path:url(#SVGID_00000034048419829445176120000008634000620243978659_);}
	.st5{clip-path:url(#SVGID_00000102539996304040266010000008287718913674208133_);}
	.st6{clip-path:url(#SVGID_00000049939245545445077350000001858921488229541770_);}
	.st7{clip-path:url(#SVGID_00000069365970163878793240000015270354848872673443_);}
	.st8{clip-path:url(#SVGID_00000064330537306637227450000002361629593456552338_);}
	.st9{clip-path:url(#SVGID_00000170987640969880832400000012970037778846274187_);}
	.st10{fill:#FEE8DA;}
	.st11{fill:url(#SVGID_00000182497422502241789160000008658064197249366960_);}
	.st12{fill:none;}
	.st13{fill:url(#SVGID_00000121238698850712308630000004992358462127090070_);}
	.st14{fill:url(#SVGID_00000000198716518053399750000003652066504230556548_);}
	.st15{fill:url(#SVGID_00000000910330426781376880000009519628564331367348_);}
	.st16{fill:url(#SVGID_00000142895833684810319850000013545171696890547858_);}
	.st17{fill:url(#SVGID_00000175321396500334491420000009356243022769072308_);}
	.st18{fill:url(#SVGID_00000080918042013745976370000015900830378993996936_);}
	.st19{fill:#FFF4ED;}
	.st20{fill:url(#SVGID_00000059308880287184166330000001868626888310602139_);}
	.st21{fill:url(#SVGID_00000041980127471850465260000013758794817195942588_);}
	.st22{fill:url(#SVGID_00000047043978647926342850000017077516567902658962_);}
	.st23{fill:url(#SVGID_00000069392189708009884760000003017860859814886800_);}
	.st24{fill:url(#SVGID_00000113348630502148513540000006580270620805310340_);}
	.st25{fill:url(#SVGID_00000081622761730421662570000005259726719006020999_);}
	.st26{fill:url(#SVGID_00000137117805377448917510000008742581225849601709_);}
	.st27{fill:url(#SVGID_00000016055492365513687190000015519500816728111545_);}
	.st28{fill:url(#SVGID_00000123416976574770208870000014431094257584724623_);}
	.st29{fill:url(#SVGID_00000178182552504294296080000009807398454089981335_);}
	.st30{fill:url(#SVGID_00000165913784898526260990000017825327526688592276_);}
	.st31{fill:url(#SVGID_00000110439429521952197660000012950402483515168647_);}
	.st32{fill:url(#SVGID_00000103267489963684613170000000415191877079329449_);}
	.st33{fill:url(#SVGID_00000089560714062777976870000000547242233297143689_);}
	.st34{fill:url(#SVGID_00000082369259341970609900000001990555959564104324_);}
	.st35{fill:url(#SVGID_00000092452783430630218700000013417394357106807994_);}
	.st36{fill:url(#SVGID_00000168110461516867545100000013950429475989720508_);}
	.st37{fill:url(#SVGID_00000138543930051767562200000011188045719241041287_);}
	.st38{fill:url(#SVGID_00000085210778602905450550000000648468071266393760_);}
	.st39{fill:url(#SVGID_00000114076031341060633730000006880820811484664704_);}
	.st40{fill:url(#SVGID_00000045598143357231093740000003014143847867757202_);}
	.st41{fill:url(#SVGID_00000031169281945141466870000002978068489143421621_);}
	.st42{fill:url(#SVGID_00000066515326456132890810000015367795660611889549_);}
	.st43{fill:url(#SVGID_00000125596702235190906060000004451039503858144666_);}
	.st44{fill:url(#SVGID_00000008869875766183153310000005978801442999798702_);}
	.st45{fill:url(#SVGID_00000158002733494931819260000011529162593602241981_);}
	.st46{fill:url(#SVGID_00000021825692288945912960000002348923637259095691_);}
	.st47{fill:#FFFFFF;}
</style>
<ellipse id="Ellipse_113_00000017505022605100422000000012938457650515213237_" class="st10" cx="75" cy="75" rx="70" ry="70"/>
<linearGradient id="SVGID_00000079450573911055496530000004099980231042174908_" gradientUnits="userSpaceOnUse" x1="40.1993" y1="75" x2="109.8007" y2="75">
	<stop  offset="0" style="stop-color:#FF6600"/>
	<stop  offset="0" style="stop-color:#FF5204"/>
	<stop  offset="1" style="stop-color:#FF270D"/>
</linearGradient>
<path style="fill:url(#SVGID_00000079450573911055496530000004099980231042174908_);" d="M74.7,107.2c-0.9,0-1.7-0.3-2.4-1
	c-0.7-0.7-1.1-1.5-1.1-2.5c0-0.6,0.1-1.1,0.3-1.7s0.6-1,1-1.5L87,86l-1.7-1.7L70.7,98.9c-0.4,0.4-0.8,0.7-1.4,0.8
	c-0.5,0.2-1.1,0.2-1.7,0.2c-0.9,0-1.7-0.3-2.4-1s-1-1.5-1-2.4c0-0.6,0.1-1.2,0.2-1.7c0.2-0.5,0.5-1,0.9-1.4L80,78.9l-1.7-1.7
	l-14,14.1c-0.3,0.3-0.8,0.6-1.4,0.8c-0.6,0.2-1.2,0.3-1.8,0.3c-0.9,0-1.7-0.3-2.4-1c-0.7-0.7-1-1.5-1-2.4c0-0.6,0.1-1.2,0.3-1.7
	c0.2-0.5,0.5-1,0.9-1.4l14.2-14.2l-1.7-1.6L57.2,84.4c-0.3,0.4-0.8,0.7-1.3,0.9s-1.1,0.2-1.7,0.2c-0.9,0-1.7-0.3-2.4-1
	c-0.7-0.7-1.1-1.5-1.1-2.4c0-0.6,0.1-1.1,0.4-1.8c0.3-0.6,0.6-1.1,1-1.5L70,61.1l8.7,8.7c0.8,0.9,1.7,1.6,2.6,2.1
	c0.9,0.5,2,0.8,3.5,0.8c2,0,3.7-0.6,5-1.9c1.3-1.3,2-3,2-5c0-1.2-0.2-2.2-0.7-3c-0.5-0.8-1.2-1.6-2.1-2.6L76.2,47.4l1.2-1.3
	c1-1,2.2-1.8,3.4-2.4c1.2-0.6,2.7-0.9,4.5-0.9c1.4,0,2.8,0.3,4.1,0.9s2.5,1.4,3.7,2.5L106,59.2c1.2,1.3,2.2,2.7,2.8,4.3s1,3.3,1,5.2
	c0,1.8-0.3,3.5-1,5c-0.7,1.5-1.6,2.9-2.7,4l-28.1,28.2c-0.5,0.5-1,0.8-1.6,1C75.8,107.1,75.3,107.2,74.7,107.2z M48.4,79.1l-5-5
	c-0.9-0.8-1.7-1.9-2.3-3.1c-0.6-1.3-0.9-2.8-0.9-4.5s0.3-3.2,0.8-4.5c0.5-1.3,1.3-2.5,2.4-3.6l12.1-12.2c0.9-0.9,2-1.7,3.2-2.4
	c1.2-0.6,2.6-1,4.3-1c1.8,0,3.3,0.3,4.6,0.8c1.3,0.6,2.5,1.4,3.7,2.5l15.9,15.7c0.7,0.8,1.2,1.5,1.5,2.1c0.3,0.6,0.5,1.2,0.5,1.7
	c0,1.3-0.4,2.3-1.3,3.2c-0.9,0.9-2,1.3-3.4,1.3c-0.6,0-1.3-0.2-2-0.6s-1.4-0.9-2-1.7L69.9,57.5L48.4,79.1z"/>
</svg>
