<?xml version="1.0" encoding="UTF-8"?><svg id="Layer_1" xmlns="http://www.w3.org/2000/svg" xmlns:xlink="http://www.w3.org/1999/xlink" viewBox="0 0 150 150"><defs><style>.cls-1{fill:url(#linear-gradient-2);}.cls-2{fill:#fee8da;}.cls-3{fill:url(#linear-gradient);}</style><linearGradient id="linear-gradient" x1="64.81" y1="50.94" x2="84.05" y2="50.94" gradientUnits="userSpaceOnUse"><stop offset="0" stop-color="#f60"/><stop offset="0" stop-color="#ff5204"/><stop offset="1" stop-color="#ff270d"/></linearGradient><linearGradient id="linear-gradient-2" x1="50.08" y1="86.01" x2="105.92" y2="86.01" xlink:href="#linear-gradient"/></defs><circle id="Ellipse_113" class="cls-2" cx="75" cy="75" r="70"/><g><path class="cls-3" d="M84.05,50.94c0,5.31-4.31,9.62-9.62,9.62s-9.62-4.31-9.62-9.62,4.31-9.62,9.62-9.62,9.62,4.31,9.62,9.62"/><path class="cls-1" d="M99.29,84.55v-7.64c0-6.72-4.98-13.31-12.85-13.31h-3.9l-6.02,13.38v-13.65h-4.16v13.51l-5.96-13.25h-3.46c-7.87,0-12.85,6.59-12.85,13.31v27.2c-.02,6.09,7.92,6.09,7.92,0v-26.55h2.49v31.11h3.23v.02h15.6s26.59-.01,26.59-.01v-24.11h-6.63Zm-10.41-7h2.49v7h-2.49v-7Zm-8.65,9.46h11.14v9.63h-4.1v-3.37h-2.93v3.37h-4.1v-9.63Zm23.22,19.19h-23.22v-7.1h11.14v.48c0,6.09,7.94,6.09,7.92,0v-.48h4.17v7.1s0,0,0,0Zm0-9.56h-4.17v-9.63h4.17v9.63Z"/></g></svg>