<?xml version="1.0" encoding="UTF-8"?><svg id="Layer_1" xmlns="http://www.w3.org/2000/svg" xmlns:xlink="http://www.w3.org/1999/xlink" viewBox="0 0 150 150"><defs><style>.cls-1{fill:url(#linear-gradient-2);}.cls-2{fill:#fee8da;}.cls-3{fill:url(#linear-gradient-6);}.cls-4{fill:url(#linear-gradient-10);}.cls-5{fill:url(#linear-gradient-5);}.cls-6{fill:url(#linear-gradient-7);}.cls-7{fill:url(#linear-gradient-9);}.cls-8{fill:url(#linear-gradient-3);}.cls-9{fill:url(#linear-gradient);}.cls-10{fill:url(#linear-gradient-4);}.cls-11{fill:url(#linear-gradient-8);}</style><linearGradient id="linear-gradient" x1="96.23" y1="93.78" x2="104.81" y2="93.78" gradientUnits="userSpaceOnUse"><stop offset="0" stop-color="#f60"/><stop offset="0" stop-color="#ff5204"/><stop offset="1" stop-color="#ff270d"/></linearGradient><linearGradient id="linear-gradient-2" x1="92.39" y1="103.57" x2="108.8" y2="103.57" xlink:href="#linear-gradient"/><linearGradient id="linear-gradient-3" x1="71.24" y1="42.29" x2="79.82" y2="42.29" xlink:href="#linear-gradient"/><linearGradient id="linear-gradient-4" x1="67.32" y1="52.08" x2="83.73" y2="52.08" xlink:href="#linear-gradient"/><linearGradient id="linear-gradient-5" x1="45.79" y1="93.78" x2="54.52" y2="93.78" xlink:href="#linear-gradient"/><linearGradient id="linear-gradient-6" x1="41.88" y1="103.57" x2="58.36" y2="103.57" xlink:href="#linear-gradient"/><linearGradient id="linear-gradient-7" x1="87.2" y1="68.38" x2="109.18" y2="68.38" xlink:href="#linear-gradient"/><linearGradient id="linear-gradient-8" x1="40.82" y1="68.38" x2="62.8" y2="68.38" xlink:href="#linear-gradient"/><linearGradient id="linear-gradient-9" x1="61.6" y1="109.21" x2="89.38" y2="109.21" xlink:href="#linear-gradient"/><linearGradient id="linear-gradient-10" x1="57.84" y1="79.18" x2="93.07" y2="79.18" xlink:href="#linear-gradient"/></defs><circle id="Ellipse_113" class="cls-2" cx="75" cy="75" r="70"/><g><path class="cls-9" d="M100.52,89.49c-2.41,0-4.29,1.96-4.29,4.29s1.96,4.29,4.29,4.29,4.29-1.96,4.29-4.29-1.88-4.29-4.29-4.29Z"/><path class="cls-1" d="M104.96,99.73h-8.81c-2.11,0-3.76,1.81-3.76,3.99v3.69h16.41v-3.76c-.08-2.18-1.73-3.91-3.84-3.91h0Z"/><path class="cls-8" d="M75.53,38c-2.41,0-4.29,1.96-4.29,4.29s1.96,4.29,4.29,4.29,4.29-1.96,4.29-4.29c0-2.33-1.96-4.29-4.29-4.29Z"/><path class="cls-10" d="M79.89,48.24h-8.81c-2.11,0-3.76,1.81-3.76,3.99v3.69h16.41v-3.69c-.08-2.18-1.73-3.99-3.84-3.99h0Z"/><path class="cls-5" d="M50.16,89.42c-2.41,0-4.37,1.96-4.37,4.37s1.96,4.37,4.37,4.37,4.37-1.96,4.37-4.37-2.03-4.37-4.37-4.37Z"/><path class="cls-3" d="M54.52,99.73h-8.81c-2.11,0-3.84,1.81-3.84,3.99v3.69h16.49v-3.69c0-2.26-1.73-3.99-3.84-3.99h0Z"/><path class="cls-6" d="M106.09,77.9c.08,3.39-.45,6.7-1.35,9.79l2.41,2.33c1.43-3.84,2.11-7.9,2.03-12.2-.23-14.3-9.33-26.35-21.98-31.09l.08,3.24c10.91,4.67,18.59,15.43,18.82,27.93h0Z"/><path class="cls-11" d="M43.91,77.9c-.08,3.39,.45,6.7,1.35,9.79l-2.41,2.33c-1.43-3.84-2.11-7.9-2.03-12.2,.23-14.3,9.33-26.35,21.98-31.09l-.08,3.24c-10.91,4.67-18.59,15.43-18.82,27.93h0Z"/><path class="cls-7" d="M87.2,106.43c-3.69,1.58-7.75,2.48-12.05,2.48-3.91,0-7.75-.75-11.22-2.11l-2.33,2.33c4.14,1.81,8.73,2.86,13.48,2.86,5.12,0,9.94-1.13,14.3-3.16l-2.18-2.41Z"/><path class="cls-4" d="M75.45,61.56c-9.71,0-17.62,7.9-17.62,17.62s7.9,17.62,17.62,17.62c5.27,0,10.09-2.33,13.25-6.1h.08v-.08c2.64-3.09,4.29-7.08,4.29-11.44,0-9.71-7.9-17.62-17.62-17.62h0Zm5.8,26.95h-4.74v-8.28h6.78c-.15,2.86-.83,5.65-2.03,8.28h0Zm-13.02-8.28h6.17v8.28h-4.06c-1.21-2.64-1.88-5.42-2.11-8.28Zm6.17-9.79v7.6h-6.17c.15-2.56,.68-5.19,1.73-7.6h4.44Zm2.18,7.6v-7.6h4.97c1.05,2.41,1.58,4.97,1.73,7.6h-6.7Zm0-14.3c.15,0,.45,0,.6,.08,1.35,1.35,2.48,2.94,3.31,4.52h-3.91v-4.59Zm-2.18,4.59h-3.39c.9-1.58,2.03-3.16,3.39-4.59v4.59Zm-11.59,2.11h4.97c-.9,2.48-1.43,4.97-1.51,7.6h-6.02c.08-2.79,.98-5.34,2.56-7.6Zm-2.71,9.79h6.02c.15,2.86,.75,5.65,1.88,8.28h-4.74c-1.81-2.33-2.94-5.19-3.16-8.28h0Zm14.3,14.23c-1.13-1.2-2.11-2.48-2.94-3.84h2.94v3.84Zm2.18,.08v-3.91h3.54c-.83,1.35-1.88,2.64-3.01,3.91h-.53Zm11.14-6.02h-4.22c1.13-2.64,1.73-5.42,1.88-8.28h5.42c-.15,3.09-1.28,5.95-3.09,8.28h0Zm3.16-10.46h-5.42c-.15-2.56-.6-5.19-1.51-7.6h4.37c1.43,2.18,2.41,4.82,2.56,7.6Z"/></g></svg>