<?xml version="1.0" encoding="UTF-8"?><svg id="Layer_1" xmlns="http://www.w3.org/2000/svg" xmlns:xlink="http://www.w3.org/1999/xlink" viewBox="0 0 150 150"><defs><style>.cls-1{fill:url(#linear-gradient-2);}.cls-2{fill:#fee8da;}.cls-3{fill:url(#linear-gradient);}</style><linearGradient id="linear-gradient" x1="64.55" y1="50.45" x2="84.17" y2="50.45" gradientUnits="userSpaceOnUse"><stop offset="0" stop-color="#f60"/><stop offset="0" stop-color="#ff5204"/><stop offset="1" stop-color="#ff270d"/></linearGradient><linearGradient id="linear-gradient-2" x1="49.52" y1="86.23" x2="106.48" y2="86.23" xlink:href="#linear-gradient"/></defs><circle id="Ellipse_113" class="cls-2" cx="75" cy="75" r="70"/><g><path class="cls-3" d="M84.17,50.45c0,5.42-4.39,9.81-9.81,9.81s-9.81-4.39-9.81-9.81,4.39-9.81,9.81-9.81,9.81,4.39,9.81,9.81"/><path class="cls-1" d="M99.72,84.75v-7.79c0-6.86-5.08-13.58-13.11-13.58h-3.98l-6.14,13.65v-13.92h-4.25v13.78l-6.08-13.51h-3.53c-8.03,0-13.11,6.72-13.11,13.58v27.75c-.02,6.21,8.08,6.21,8.08,0v-27.09h2.54v31.73h3.29v.02h15.92s27.12-.01,27.12-.01v-24.6h-6.76Zm-10.62-7.14h2.54v7.14h-2.54v-7.14Zm-8.82,9.65h11.36v9.82h-4.19v-3.44h-2.99v3.44h-4.19v-9.82Zm23.69,19.57h-23.69v-7.24h11.36v.49c0,6.21,8.1,6.21,8.08,0v-.49h4.25v7.24s0,0,0,0Zm0-9.75h-4.25v-9.82h4.25v9.82Z"/></g></svg>