<?xml version="1.0" encoding="UTF-8"?><svg id="Layer_1" xmlns="http://www.w3.org/2000/svg" xmlns:xlink="http://www.w3.org/1999/xlink" viewBox="0 0 150 150"><defs><style>.cls-1{fill:#fee8da;}.cls-2{fill:url(#linear-gradient);}</style><linearGradient id="linear-gradient" x1="32.3" y1="75" x2="117.7" y2="75" gradientUnits="userSpaceOnUse"><stop offset="0" stop-color="#f60"/><stop offset="0" stop-color="#ff5204"/><stop offset="1" stop-color="#ff270d"/></linearGradient></defs><circle id="Ellipse_113" class="cls-1" cx="75" cy="75" r="70"/><path class="cls-2" d="M116.74,58.83c-.38-.57-1.15-.77-1.72-.77H34.67c-.77,0-1.34,.38-1.72,.77-.57,.57-.77,1.15-.57,1.91l4.4,41.51h17.22v-15.3c0-3.63,3.06-6.7,6.7-6.7h3.63v-3.25c0-5.93,4.78-10.71,10.71-10.71s10.71,4.78,10.71,10.71v3.25h3.63c3.63,0,6.7,2.87,6.7,6.7v15.3h17.22l4.4-41.51c-.38-.77-.57-1.34-.96-1.91Zm-41.89,11.29c-3.83,0-6.89,3.06-6.89,6.89v3.25h13.58v-3.25c.19-3.83-2.87-6.89-6.7-6.89Zm14.35,13.97h-28.7c-1.53,0-2.87,1.34-2.87,2.87v18.37c0,1.53,1.34,2.87,2.87,2.87h28.7c1.53,0,2.87-1.34,2.87-2.87v-18.37c0-1.53-1.34-2.87-2.87-2.87Zm-12.43,15.88v3.25c0,.96-.96,1.91-1.91,1.91s-1.91-.96-1.91-1.91v-3.25c-2.68-.77-4.78-3.25-4.78-6.31,0-3.63,2.87-6.7,6.7-6.7s6.7,2.87,6.7,6.7c-.19,2.87-2.1,5.36-4.78,6.31Zm32.52-50.89h-39.41c-1.15,0-1.91-.96-1.91-1.91v-2.87c0-1.34-1.15-2.49-2.49-2.49h-20.85c-1.34,0-2.49,1.15-2.49,2.49v2.87c0,.96-.77,1.91-1.91,1.91-2.3,0-4.21,1.91-4.21,4.21v.96H113.3v-.96c.19-2.49-1.72-4.21-4.02-4.21Z"/></svg>