<?xml version="1.0" encoding="UTF-8"?><svg id="Layer_1" xmlns="http://www.w3.org/2000/svg" xmlns:xlink="http://www.w3.org/1999/xlink" viewBox="0 0 150 150"><defs><style>.cls-1{fill:url(#linear-gradient-2);}.cls-2{fill:url(#linear-gradient-17);}.cls-3{fill:url(#linear-gradient-15);}.cls-4{fill:url(#linear-gradient-18);}.cls-5{fill:#fee8da;}.cls-6{fill:url(#linear-gradient-14);}.cls-7{fill:url(#linear-gradient-20);}.cls-8{fill:url(#linear-gradient-6);}.cls-9{fill:url(#linear-gradient-11);}.cls-10{fill:url(#linear-gradient-10);}.cls-11{fill:url(#linear-gradient-16);}.cls-12{fill:url(#linear-gradient-21);}.cls-13{fill:url(#linear-gradient-25);}.cls-14{fill:url(#linear-gradient-5);}.cls-15{fill:url(#linear-gradient-7);}.cls-16{fill:url(#linear-gradient-24);}.cls-17{fill:url(#linear-gradient-9);}.cls-18{fill:url(#linear-gradient-22);}.cls-19{fill:url(#linear-gradient-3);}.cls-20{fill:url(#linear-gradient);}.cls-21{fill:url(#linear-gradient-23);}.cls-22{fill:url(#linear-gradient-19);}.cls-23{fill:url(#linear-gradient-4);}.cls-24{fill:url(#linear-gradient-8);}.cls-25{fill:url(#linear-gradient-12);}.cls-26{fill:url(#linear-gradient-13);}.cls-27{fill:url(#linear-gradient-26);}</style><linearGradient id="linear-gradient" x1="84.17" y1="71.47" x2="90.15" y2="71.47" gradientUnits="userSpaceOnUse"><stop offset="0" stop-color="#f60"/><stop offset="0" stop-color="#ff5204"/><stop offset="1" stop-color="#ff270d"/></linearGradient><linearGradient id="linear-gradient-2" x1="84.17" y1="64.18" x2="90.15" y2="64.18" xlink:href="#linear-gradient"/><linearGradient id="linear-gradient-3" x1="80.53" y1="77.69" x2="89.2" y2="77.69" xlink:href="#linear-gradient"/><linearGradient id="linear-gradient-4" x1="94.74" y1="53.92" x2="100.12" y2="53.92" xlink:href="#linear-gradient"/><linearGradient id="linear-gradient-5" x1="89.35" y1="53.92" x2="94.74" y2="53.92" xlink:href="#linear-gradient"/><linearGradient id="linear-gradient-6" x1="94.74" y1="56.61" x2="100.12" y2="56.61" xlink:href="#linear-gradient"/><linearGradient id="linear-gradient-7" x1="89.35" y1="56.61" x2="94.74" y2="56.61" xlink:href="#linear-gradient"/><linearGradient id="linear-gradient-8" x1="100.12" y1="56.61" x2="102.81" y2="56.61" xlink:href="#linear-gradient"/><linearGradient id="linear-gradient-9" x1="88.85" y1="57.93" x2="89.35" y2="57.93" xlink:href="#linear-gradient"/><linearGradient id="linear-gradient-10" x1="82.6" y1="71.41" x2="102.81" y2="71.41" xlink:href="#linear-gradient"/><linearGradient id="linear-gradient-11" x1="100.12" y1="53.92" x2="102.81" y2="53.92" xlink:href="#linear-gradient"/><linearGradient id="linear-gradient-12" x1="75.9" y1="79.98" x2="81.4" y2="79.98" xlink:href="#linear-gradient"/><linearGradient id="linear-gradient-13" x1="60.8" y1="77.69" x2="69.47" y2="77.69" xlink:href="#linear-gradient"/><linearGradient id="linear-gradient-14" x1="75.9" y1="72.3" x2="83.06" y2="72.3" xlink:href="#linear-gradient"/><linearGradient id="linear-gradient-15" x1="82.6" y1="54" x2="89.35" y2="54" xlink:href="#linear-gradient"/><linearGradient id="linear-gradient-16" x1="80.53" y1="57.96" x2="89.2" y2="57.96" xlink:href="#linear-gradient"/><linearGradient id="linear-gradient-17" x1="75.9" y1="55.66" x2="81.4" y2="55.66" xlink:href="#linear-gradient"/><linearGradient id="linear-gradient-18" x1="75.9" y1="63.35" x2="83.06" y2="63.35" xlink:href="#linear-gradient"/><linearGradient id="linear-gradient-19" x1="66.94" y1="63.35" x2="74.1" y2="63.35" xlink:href="#linear-gradient"/><linearGradient id="linear-gradient-20" x1="60.8" y1="57.96" x2="69.47" y2="57.96" xlink:href="#linear-gradient"/><linearGradient id="linear-gradient-21" x1="68.6" y1="55.66" x2="74.1" y2="55.66" xlink:href="#linear-gradient"/><linearGradient id="linear-gradient-22" x1="59.85" y1="71.47" x2="65.83" y2="71.47" xlink:href="#linear-gradient"/><linearGradient id="linear-gradient-23" x1="59.85" y1="64.18" x2="65.83" y2="64.18" xlink:href="#linear-gradient"/><linearGradient id="linear-gradient-24" x1="68.6" y1="79.98" x2="74.1" y2="79.98" xlink:href="#linear-gradient"/><linearGradient id="linear-gradient-25" x1="66.94" y1="72.3" x2="74.1" y2="72.3" xlink:href="#linear-gradient"/><linearGradient id="linear-gradient-26" x1="41.81" y1="75" x2="108.19" y2="75" xlink:href="#linear-gradient"/></defs><circle id="Ellipse_113" class="cls-5" cx="75" cy="75" r="70"/><g><path class="cls-20" d="M90.15,68.72h-5.29c-.06,1.95-.29,3.79-.68,5.5,3.23-1.32,5.49-3.29,5.98-5.5h0Z"/><path class="cls-1" d="M90.15,66.93c-.49-2.21-2.74-4.19-5.98-5.5,.39,1.71,.63,3.55,.68,5.5h5.29Z"/><path class="cls-19" d="M80.53,82.02c3.96-1.55,7.12-4.7,8.66-8.66-1.44,1.25-3.36,2.29-5.63,3.04-.75,2.26-1.79,4.19-3.04,5.63Z"/><path class="cls-23" d="M97.43,55.26c0-1.48,1.21-2.69,2.69-2.69h-5.38c1.48,0,2.69,1.21,2.69,2.69Z"/><path class="cls-14" d="M92.04,55.26c0-1.48,1.21-2.69,2.69-2.69h-5.38c1.48,0,2.69,1.21,2.69,2.69Z"/><path class="cls-8" d="M97.43,55.26c0,1.48-1.21,2.69-2.69,2.69h5.38c-1.48,0-2.69-1.21-2.69-2.69Z"/><path class="cls-15" d="M92.04,55.26c0,1.48-1.21,2.69-2.69,2.69h5.38c-1.48,0-2.69-1.21-2.69-2.69Z"/><path class="cls-24" d="M100.12,57.96h2.69v-2.69c0,1.48-1.21,2.69-2.69,2.69Z"/><path class="cls-17" d="M88.88,57.96h.47c-.17,0-.34-.02-.51-.05,.01,.02,.02,.03,.04,.05h0Z"/><path class="cls-10" d="M92.04,67.82c0,6.67-3.85,12.45-9.45,15.25h20.21v-23.32h-12.8c1.3,2.4,2.04,5.15,2.04,8.07h0Z"/><path class="cls-9" d="M102.81,55.26v-2.69h-2.69c1.48,0,2.69,1.21,2.69,2.69Z"/><path class="cls-25" d="M81.4,76.99c-1.71,.39-3.55,.63-5.5,.68v5.29c2.21-.49,4.19-2.74,5.5-5.98h0Z"/><path class="cls-26" d="M66.43,76.39c-1.49-.49-2.84-1.11-3.99-1.83-.24-.15-.46-.3-.68-.45-.34-.24-.66-.49-.95-.75,.1,.25,.2,.5,.31,.75,.28,.62,.61,1.22,.97,1.79,1.42,2.26,3.4,4.12,5.75,5.38,.52,.28,1.07,.52,1.63,.74-.2-.23-.4-.48-.59-.74-.99-1.33-1.82-2.99-2.45-4.89h0Z"/><path class="cls-6" d="M83.06,68.72h-7.16v7.16c2.22-.07,4.33-.41,6.21-.95,.54-1.88,.88-3.99,.95-6.21h0Z"/><path class="cls-3" d="M86.66,55.26c0-1.48,1.21-2.69,2.69-2.69h-6.75c1.5,.75,2.87,1.71,4.08,2.85,0-.05-.02-.11-.02-.16h0Z"/><path class="cls-11" d="M89.2,62.29c-.35-.89-.78-1.74-1.28-2.54-.12-.19-.23-.38-.35-.56-1.72-2.5-4.17-4.45-7.03-5.56,1.25,1.44,2.29,3.36,3.04,5.63,2.26,.75,4.19,1.79,5.63,3.04h0Z"/><path class="cls-2" d="M75.9,52.67v5.29c1.95,.06,3.79,.29,5.5,.68-1.32-3.23-3.29-5.49-5.5-5.98h0Z"/><path class="cls-4" d="M82.11,60.72c-1.88-.54-3.99-.88-6.21-.95v7.16h7.16c-.07-2.22-.41-4.33-.95-6.21h0Z"/><path class="cls-22" d="M66.94,66.93h7.16v-7.16c-2.22,.07-4.33,.41-6.21,.95-.54,1.88-.88,3.99-.95,6.21h0Z"/><path class="cls-7" d="M62.44,61.09c1.15-.72,2.5-1.34,3.99-1.83,.63-1.9,1.46-3.55,2.45-4.89,.19-.26,.39-.51,.59-.74-.56,.22-1.11,.46-1.63,.74-2.36,1.26-4.34,3.13-5.75,5.38-.36,.57-.68,1.17-.97,1.79-.11,.25-.22,.5-.31,.75,.3-.26,.62-.51,.95-.75,.22-.16,.45-.31,.68-.45h0Z"/><path class="cls-12" d="M74.1,57.97v-5.29c-2.21,.49-4.19,2.74-5.5,5.98,1.71-.39,3.56-.63,5.5-.68h0Z"/><path class="cls-18" d="M65.83,74.22c-.39-1.71-.63-3.55-.68-5.5h-5.29c.49,2.21,2.74,4.19,5.98,5.5h0Z"/><path class="cls-21" d="M65.15,66.93c.06-1.95,.29-3.79,.68-5.5-3.23,1.31-5.49,3.29-5.98,5.5h5.29Z"/><path class="cls-16" d="M74.1,82.97v-5.29c-1.95-.06-3.79-.29-5.5-.68,1.32,3.23,3.29,5.49,5.5,5.98h0Z"/><path class="cls-13" d="M67.89,74.93c1.88,.54,3.99,.88,6.21,.95v-7.16h-7.16c.07,2.22,.41,4.33,.95,6.21h0Z"/><path class="cls-27" d="M41.81,93.84h23.32v7.18h-5.38v7.18h30.5v-7.18h-5.38v-7.18h23.32V41.81H41.81v52.03Zm6.28-28.71c1.17,0,2.15,.75,2.53,1.79h7.37c.1-1.89,.51-3.7,1.18-5.38h-4.96c-.37,1.04-1.36,1.79-2.53,1.79-1.48,0-2.69-1.21-2.69-2.69s1.21-2.69,2.69-2.69c1.17,0,2.15,.75,2.53,1.79h5.79c1.13-2.1,2.69-3.93,4.56-5.38h-12.15c-.37,1.04-1.36,1.79-2.53,1.79-1.48,0-2.69-1.21-2.69-2.69s1.21-2.69,2.69-2.69c1.17,0,2.15,.75,2.53,1.79h14.99c2.29-1.15,4.87-1.79,7.6-1.79h29.6v34.09h-29.6c-2.73,0-5.31-.65-7.6-1.79h-14.99c-.37,1.04-1.36,1.79-2.53,1.79-1.48,0-2.69-1.21-2.69-2.69s1.21-2.69,2.69-2.69c1.17,0,2.15,.75,2.53,1.79h12.15c-1.87-1.45-3.43-3.29-4.56-5.38h-5.79c-.37,1.04-1.36,1.79-2.53,1.79-1.48,0-2.69-1.21-2.69-2.69s1.21-2.69,2.69-2.69c1.17,0,2.15,.75,2.53,1.79h4.96c-.67-1.68-1.08-3.49-1.18-5.38h-7.37c-.37,1.04-1.36,1.79-2.53,1.79-1.48,0-2.69-1.21-2.69-2.69s1.21-2.69,2.69-2.69Zm31.4,35.88h-8.97v-7.18h8.97v7.18Z"/></g></svg>