<?xml version="1.0" encoding="UTF-8"?><svg id="Layer_1" xmlns="http://www.w3.org/2000/svg" xmlns:xlink="http://www.w3.org/1999/xlink" viewBox="0 0 150 150"><defs><style>.cls-1{fill:url(#linear-gradient-2);}.cls-2{fill:#fee8da;}.cls-3{fill:url(#linear-gradient-6);}.cls-4{fill:url(#linear-gradient-5);}.cls-5{fill:url(#linear-gradient-7);}.cls-6{fill:url(#linear-gradient-3);}.cls-7{fill:url(#linear-gradient);}.cls-8{fill:url(#linear-gradient-4);}</style><linearGradient id="linear-gradient" x1="65.32" y1="73.62" x2="84.68" y2="73.62" gradientUnits="userSpaceOnUse"><stop offset="0" stop-color="#f60"/><stop offset="0" stop-color="#ff5204"/><stop offset="1" stop-color="#ff270d"/></linearGradient><linearGradient id="linear-gradient-2" x1="52.87" y1="96.33" x2="97.13" y2="96.33" xlink:href="#linear-gradient"/><linearGradient id="linear-gradient-3" x1="66.7" y1="51.49" x2="83.3" y2="51.49" xlink:href="#linear-gradient"/><linearGradient id="linear-gradient-4" x1="88" y1="59.94" x2="103.21" y2="59.94" xlink:href="#linear-gradient"/><linearGradient id="linear-gradient-5" x1="88.83" y1="80.53" x2="108.19" y2="80.53" xlink:href="#linear-gradient"/><linearGradient id="linear-gradient-6" x1="46.79" y1="59.93" x2="62" y2="59.93" xlink:href="#linear-gradient"/><linearGradient id="linear-gradient-7" x1="41.81" y1="80.53" x2="61.17" y2="80.53" xlink:href="#linear-gradient"/></defs><circle id="Ellipse_113" class="cls-2" cx="75" cy="75" r="70"/><g><path class="cls-7" d="M84.68,73.62c0,5.35-4.33,9.68-9.68,9.68s-9.68-4.33-9.68-9.68,4.33-9.68,9.68-9.68,9.68,4.33,9.68,9.68"/><path class="cls-1" d="M83.02,84.68c-1.11-.55-2.49,0-3.32,1.11l-4.7,6.64-4.7-6.64c-.83-1.11-1.94-1.38-3.32-1.11-8.3,3.32-14.11,11.62-14.11,20.74,0,1.66,1.11,2.77,2.77,2.77h38.72c1.66,0,2.77-1.11,2.77-2.77,0-9.13-5.81-17.43-14.11-20.74h0Z"/><path class="cls-6" d="M71.4,52.04l.83-.83v7.19c0,1.66,1.11,2.77,2.77,2.77s2.77-1.11,2.77-2.77v-7.19l.83,.83c1.11,1.11,2.77,1.11,3.87,0,1.11-1.11,1.11-2.77,0-3.87l-5.53-5.53c-.55-.55-1.11-.83-1.94-.83s-1.38,.28-1.94,.83l-5.53,5.53c-1.11,1.11-1.11,2.77,0,3.87,.83,1.11,2.77,1.11,3.87,0Z"/><path class="cls-8" d="M92.7,66.98l4.98-4.98v1.38c0,1.66,1.11,2.77,2.77,2.77s2.77-1.11,2.77-2.77v-8.3c0-.55-.28-1.38-.83-1.94-.55-.55-1.38-.83-1.94-.83h-8.02c-1.66,0-2.77,1.11-2.77,2.77s1.11,2.77,2.77,2.77h1.38l-4.98,4.98c-1.11,1.11-1.11,2.77,0,3.87,.83,1.11,2.77,1.11,3.87,.28h0Z"/><path class="cls-4" d="M107.36,78.6l-5.53-5.53c-1.11-1.11-2.77-1.11-3.87,0-1.11,1.11-1.11,2.77,0,3.87l.83,.83h-7.19c-1.66,0-2.77,1.11-2.77,2.77s1.11,2.77,2.77,2.77h7.19l-.83,.83c-1.11,1.11-1.11,2.77,0,3.87,1.11,1.11,2.77,1.11,3.87,0l5.53-5.53c.55-.55,.83-1.11,.83-1.94,0-.83-.28-1.38-.83-1.94h0Z"/><path class="cls-3" d="M49.55,65.87c1.66,0,2.77-1.11,2.77-2.77v-1.38s4.98,4.98,4.98,4.98c1.11,1.11,2.77,1.11,3.87,0,1.11-1.11,1.11-2.77,0-3.87l-4.98-4.98h1.38c1.66,0,2.77-1.11,2.77-2.77s-1.11-2.77-2.77-2.77h-8.02c-.83,0-1.38,.28-1.94,.83-.55,.55-.83,1.38-.83,1.94v8.02c0,1.38,1.38,2.77,2.77,2.77h0Z"/><path class="cls-5" d="M52.04,84.13l-.83-.83h7.19c1.66,0,2.77-1.11,2.77-2.77s-1.11-2.77-2.77-2.77h-7.19s.83-.83,.83-.83c1.11-1.11,1.11-2.77,0-3.87-1.11-1.11-2.77-1.11-3.87,0l-5.53,5.53c-.55,.55-.83,1.38-.83,2.21,0,.55,.28,1.38,.83,1.66l5.53,5.53c1.11,1.11,2.77,1.11,3.87,0,1.11-.83,1.11-2.77,0-3.87h0Z"/></g></svg>