<?xml version="1.0" encoding="UTF-8"?><svg id="Layer_1" xmlns="http://www.w3.org/2000/svg" xmlns:xlink="http://www.w3.org/1999/xlink" viewBox="0 0 150 150"><defs><style>.cls-1{fill:url(#linear-gradient-2);}.cls-2{fill:#fee8da;}.cls-3{fill:url(#linear-gradient-6);}.cls-4{fill:url(#linear-gradient-5);}.cls-5{fill:url(#linear-gradient-7);}.cls-6{fill:url(#linear-gradient-3);}.cls-7{fill:url(#linear-gradient);}.cls-8{fill:url(#linear-gradient-4);}</style><linearGradient id="linear-gradient" x1="55.35" y1="85.89" x2="94.65" y2="85.89" gradientUnits="userSpaceOnUse"><stop offset="0" stop-color="#f60"/><stop offset="0" stop-color="#ff5204"/><stop offset="1" stop-color="#ff270d"/></linearGradient><linearGradient id="linear-gradient-2" x1="37.72" y1="85.89" x2="53.93" y2="85.89" xlink:href="#linear-gradient"/><linearGradient id="linear-gradient-3" y1="57.75" y2="57.75" xlink:href="#linear-gradient"/><linearGradient id="linear-gradient-4" x1="96.07" y1="85.89" x2="112.28" y2="85.89" xlink:href="#linear-gradient"/><linearGradient id="linear-gradient-5" x1="37.72" y1="57.75" x2="53.93" y2="57.75" xlink:href="#linear-gradient"/><linearGradient id="linear-gradient-6" x1="96.07" y1="57.75" x2="112.28" y2="57.75" xlink:href="#linear-gradient"/><linearGradient id="linear-gradient-7" x1="72.23" y1="80.77" x2="77.77" y2="80.77" xlink:href="#linear-gradient"/></defs><circle id="Ellipse_113" class="cls-2" cx="75" cy="75" r="70"/><g><path class="cls-7" d="M55.35,102.43h39.29v-33.08H55.35v33.08Zm19.65-28.22c3.63,0,6.57,2.94,6.57,6.57s-2.94,6.57-6.57,6.57-6.57-2.94-6.57-6.57,2.94-6.57,6.57-6.57Z"/><path class="cls-1" d="M37.72,100.83c0,.54,.03,1.07,.08,1.6h16.13v-33.08h-16.21v31.48Z"/><path class="cls-6" d="M55.35,47.58h39.29v20.36H55.35v-20.36Z"/><path class="cls-8" d="M96.07,102.43h16.13c.05-.52,.08-1.06,.08-1.6v-31.48h-16.21v33.07Z"/><path class="cls-4" d="M37.72,63.2v4.73h16.21v-20.36h-.59c-8.63,0-15.62,6.99-15.62,15.62h0Z"/><path class="cls-3" d="M96.66,47.58h-.59v20.36h16.21v-4.73c0-8.63-6.99-15.62-15.62-15.62h0Z"/><path class="cls-5" d="M77.77,84.37l-1.79-3.1c.7-.36,1.19-1.07,1.19-1.91,0-1.21-.97-2.18-2.18-2.18s-2.18,.97-2.18,2.18c0,.84,.49,1.55,1.19,1.91l-1.79,3.1h5.55Z"/></g></svg>