<?xml version="1.0" encoding="UTF-8"?><svg id="Layer_1" xmlns="http://www.w3.org/2000/svg" xmlns:xlink="http://www.w3.org/1999/xlink" viewBox="0 0 150 150"><defs><style>.cls-1{fill:#fee8da;}.cls-2{fill:url(#linear-gradient);fill-rule:evenodd;}</style><linearGradient id="linear-gradient" x1="37.01" y1="75" x2="112.99" y2="75" gradientUnits="userSpaceOnUse"><stop offset="0" stop-color="#f60"/><stop offset="0" stop-color="#ff5204"/><stop offset="1" stop-color="#ff270d"/></linearGradient></defs><circle id="Ellipse_113" class="cls-1" cx="75" cy="75" r="70"/><path class="cls-2" d="M39.83,94.59h27.16l13.91-24.09c-1.71-1.16-3.82-1.99-6.03-2.54-3.74-.93-7.5-1.5-11.29-1.68l3.71,14.25c.13,.49,0,.97-.35,1.33l-5.51,5.77c-.11,.12-.25,.17-.41,.17s-.3-.06-.41-.17l-5.51-5.77c-.35-.36-.47-.84-.35-1.33l3.71-14.26c-3.74,.17-7.5,.72-11.29,1.7-5.4,1.39-10.17,4.38-10.17,9.72v14.08c0,1.55,1.27,2.82,2.82,2.82h0Zm21.19-53.12c5.25,0,9.5,2.99,9.5,9.88s-4.25,12.48-9.5,12.48-9.5-5.59-9.5-12.48,4.25-9.88,9.5-9.88h0Zm35.23,28.94l15.77,27.32c1.3,2.25,1.3,4.96,0,7.2-1.3,2.25-3.64,3.6-6.24,3.6h-31.54c-2.59,0-4.94-1.36-6.24-3.6-1.3-2.25-1.3-4.96,0-7.2l15.77-27.32c1.3-2.25,3.64-3.6,6.24-3.6s4.94,1.36,6.24,3.6h0Zm-6.24,23.87c1.06,0,1.93-.84,1.96-1.89l.5-13.75c.02-.55-.17-1.04-.55-1.43-.38-.4-.86-.6-1.41-.6h-.99c-.55,0-1.03,.2-1.41,.6-.38,.4-.57,.88-.55,1.43l.5,13.75c.04,1.06,.9,1.89,1.96,1.89h0Zm0,2.92c-1.33,0-2.41,1.08-2.41,2.41s1.08,2.41,2.41,2.41,2.41-1.08,2.41-2.41c0-1.33-1.08-2.41-2.41-2.41Z"/></svg>