<?xml version="1.0" encoding="utf-8"?>
<!-- Generator: Adobe Illustrator 27.4.0, SVG Export Plug-In . SVG Version: 6.00 Build 0)  -->
<svg version="1.1" id="Layer_1" xmlns="http://www.w3.org/2000/svg" xmlns:xlink="http://www.w3.org/1999/xlink" x="0px" y="0px"
	 viewBox="0 0 150 150" style="enable-background:new 0 0 150 150;" xml:space="preserve">
<style type="text/css">
	.st0{clip-path:url(#SVGID_00000168832509568606685170000005549991449504750765_);}
	.st1{clip-path:url(#SVGID_00000116958017820428546210000016154456064492285363_);}
	.st2{clip-path:url(#SVGID_00000172441164767875908150000013812624232088600963_);}
	.st3{clip-path:url(#SVGID_00000183933935369243497270000017118940772487827645_);}
	.st4{clip-path:url(#SVGID_00000150087289357420349130000018356195821169492119_);}
	.st5{clip-path:url(#SVGID_00000106109330746215806080000007845478983764566148_);}
	.st6{clip-path:url(#SVGID_00000111884397299715970760000016058370521814582915_);}
	.st7{clip-path:url(#SVGID_00000160155993402895962800000015396985709252579724_);}
	.st8{clip-path:url(#SVGID_00000080193664158430922190000001907452291938837411_);}
	.st9{clip-path:url(#SVGID_00000183228929395356481530000006219178004172967851_);}
	.st10{fill:#FEE8DA;}
	.st11{fill:url(#SVGID_00000078752760352957797230000013099662697732423574_);}
	.st12{fill:none;}
	.st13{fill:url(#SVGID_00000011018833330979818020000012713655494476134059_);}
	.st14{fill:url(#SVGID_00000175282268221945775280000002648081832963485631_);}
	.st15{fill:url(#SVGID_00000109004424673024765070000010621274317086435734_);}
	.st16{fill:url(#SVGID_00000127045807185442892180000012517548716444209586_);}
	.st17{fill:url(#SVGID_00000093148951640954370150000000092994502634947746_);}
	.st18{fill:url(#SVGID_00000021099020366149515010000006817043777156391080_);}
	.st19{fill:#FFF4ED;}
	.st20{fill:url(#SVGID_00000131340931409036581950000006304369688265648029_);}
	.st21{fill:url(#SVGID_00000126295415430774084570000007901657947504062858_);}
	.st22{fill:url(#SVGID_00000003098376733901621400000016367796835682688642_);}
	.st23{fill:url(#SVGID_00000092448804269007901400000006478151193622971799_);}
	.st24{fill:url(#SVGID_00000096027531745946718500000011393682601725006998_);}
	.st25{fill:url(#SVGID_00000090973263907919351860000013603271651906051737_);}
	.st26{fill:url(#SVGID_00000044167097228707745620000001754837570907967907_);}
	.st27{fill:url(#SVGID_00000062879705428317039020000002158313468877914271_);}
	.st28{fill:url(#SVGID_00000132076000026697997200000012382516625783677871_);}
	.st29{fill:url(#SVGID_00000156567608343732288160000018442613972875545791_);}
	.st30{fill:url(#SVGID_00000106831891617212886750000010016272761124842642_);}
	.st31{fill:url(#SVGID_00000029751730375541701940000010507527315118059678_);}
	.st32{fill:url(#SVGID_00000042724563395719608020000006738925850173431965_);}
	.st33{fill:url(#SVGID_00000060031249844304827350000003190524926818303885_);}
	.st34{fill:url(#SVGID_00000074438970871693702130000014579234935074110866_);}
	.st35{fill:url(#SVGID_00000098929553115349080460000014917021763153716640_);}
	.st36{fill:url(#SVGID_00000050659112970379478820000017959923567723778748_);}
	.st37{fill:url(#SVGID_00000129926696198841317610000017999491907202603441_);}
	.st38{fill:url(#SVGID_00000085972066397948125600000005286050405832625797_);}
	.st39{fill:url(#SVGID_00000181062167921557181310000011454314413057874873_);}
	.st40{fill:url(#SVGID_00000147938830834244104690000000333574070186796209_);}
	.st41{fill:url(#SVGID_00000013886966847902803800000018121374187920498862_);}
	.st42{fill:url(#SVGID_00000033335853599259428880000017042251795045244854_);}
	.st43{fill:url(#SVGID_00000155116936484230063670000005127331904167815056_);}
	.st44{fill:url(#SVGID_00000044868921853626031250000000277372755477088146_);}
	.st45{fill:url(#SVGID_00000058568482652385059960000003814831962418015623_);}
	.st46{fill:url(#SVGID_00000084498584887395759590000015276954561916033441_);}
	.st47{fill:#FFFFFF;}
</style>
<ellipse id="Ellipse_113_00000010278458222725753490000017499855154506836916_" class="st10" cx="75" cy="75" rx="70" ry="70"/>
<g>
	<path class="st12" d="M56.9,55.6c2,0,3.7-0.7,5.1-2.2c1.4-1.4,2.1-3.1,2.1-5.1h-7.2V55.6z"/>
	<path class="st12" d="M85.6,69.2c1.7-1.7,2.6-3.7,2.6-6.2c0-2.4-0.9-4.5-2.6-6.3c-1.7-1.7-3.8-2.6-6.2-2.6c-2.4,0-4.5,0.9-6.2,2.6
		s-2.6,3.8-2.6,6.3c0,2.4,0.9,4.4,2.6,6.1s3.8,2.6,6.3,2.6C81.9,71.7,83.9,70.9,85.6,69.2z"/>
	<path class="st12" d="M102,55.6v-7.2h-7.2c0,2,0.7,3.6,2.1,5.1C98.2,54.9,99.9,55.6,102,55.6z"/>
	<path class="st12" d="M95.2,83.9c-0.8,0.8-1.2,1.7-1.2,2.9c0,0.2,0,0.3,0,0.5h3.2v3.5c0.3,0,0.6,0.1,0.9,0.1c1.2,0,2.1-0.4,2.9-1.1
		s1.1-1.7,1.1-2.9s-0.4-2.1-1.1-2.9c-0.2-0.2-0.3-0.3-0.5-0.4h-4.9C95.6,83.6,95.4,83.7,95.2,83.9z"/>
	<path class="st12" d="M98.3,75c0,0.2-0.1,0.5-0.2,0.7c0,0,0.1,0,0.1,0c0.1,0,0.2,0,0.2,0C98.4,75.5,98.3,75.3,98.3,75L98.3,75z"/>
	<path class="st12" d="M56.9,70.4v7.2h7.2c0-2-0.7-3.7-2.1-5.1C60.6,71.1,58.9,70.4,56.9,70.4z"/>
	<path class="st12" d="M108,92c-0.1,0.1-0.2,0.3-0.2,0.4c0.3,0.1,0.6,0.2,0.9,0.3l0.5,0.3l-0.5-0.4C108.4,92.4,108.2,92.2,108,92z"
		/>
	<path class="st12" d="M108.7,80.7c-0.3,0.1-0.6,0.2-0.9,0.3c0.1,0.2,0.2,0.3,0.3,0.5c0.2-0.2,0.4-0.4,0.7-0.6l0.6-0.4l0,0
		L108.7,80.7z"/>
	<path class="st12" d="M98.3,98.5L98.3,98.5c0-0.3,0.1-0.5,0.2-0.7c-0.1,0-0.2,0-0.3,0C98.2,98.1,98.3,98.3,98.3,98.5z"/>
	
		<linearGradient id="SVGID_00000102531724583036895410000004837306832503393675_" gradientUnits="userSpaceOnUse" x1="40.6127" y1="83.0789" x2="107.8082" y2="83.0789">
		<stop  offset="0" style="stop-color:#FF6600"/>
		<stop  offset="0" style="stop-color:#FF5204"/>
		<stop  offset="1" style="stop-color:#FF270D"/>
	</linearGradient>
	<path style="fill:url(#SVGID_00000102531724583036895410000004837306832503393675_);" d="M95.7,83.5h4.9c-0.7-0.5-1.5-0.8-2.5-0.8
		C97.2,82.7,96.4,82.9,95.7,83.5z"/>
	
		<linearGradient id="SVGID_00000151515476667323379450000001712324868851916970_" gradientUnits="userSpaceOnUse" x1="40.6127" y1="74.3068" x2="107.8083" y2="74.3068">
		<stop  offset="0" style="stop-color:#FF6600"/>
		<stop  offset="0" style="stop-color:#FF5204"/>
		<stop  offset="1" style="stop-color:#FF270D"/>
	</linearGradient>
	<path style="fill:url(#SVGID_00000151515476667323379450000001712324868851916970_);" d="M80.5,89.4l1.3-1c0-0.4-0.1-0.7-0.1-1.1
		H47.3V54.7h-6.7v32.6c0,1.8,0.7,3.4,2,4.7c1.3,1.3,2.9,2,4.7,2h32.4C78.8,92.4,79.1,90.4,80.5,89.4z"/>
	
		<linearGradient id="SVGID_00000124127799754119426140000003079409870940344741_" gradientUnits="userSpaceOnUse" x1="40.6127" y1="89.0192" x2="107.8082" y2="89.0192">
		<stop  offset="0" style="stop-color:#FF6600"/>
		<stop  offset="0" style="stop-color:#FF5204"/>
		<stop  offset="1" style="stop-color:#FF270D"/>
	</linearGradient>
	<path style="fill:url(#SVGID_00000124127799754119426140000003079409870940344741_);" d="M94.1,87.3c0.1,1,0.4,1.7,1.1,2.4
		c0.6,0.6,1.3,1,2.1,1.1v-3.5H94.1z"/>
	
		<linearGradient id="SVGID_00000181088737820768429160000014203075301284429237_" gradientUnits="userSpaceOnUse" x1="40.6127" y1="62.9977" x2="107.8082" y2="62.9977">
		<stop  offset="0" style="stop-color:#FF6600"/>
		<stop  offset="0" style="stop-color:#FF5204"/>
		<stop  offset="1" style="stop-color:#FF270D"/>
	</linearGradient>
	<path style="fill:url(#SVGID_00000181088737820768429160000014203075301284429237_);" d="M79.7,79.5l3.3-5.4
		c0.9-1.5,2.9-2.1,4.5-1.3l1.5,0.7c0.3-0.2,0.6-0.4,0.9-0.5c0.5-0.3,1.1-0.6,1.7-0.9l0.2-1.9c0.2-1.8,1.7-3.2,3.5-3.2h6
		c1.7,0,3.2,1.3,3.5,3l0.3,2c0.6,0.3,1.1,0.6,1.7,0.9c0.3,0.2,0.6,0.3,0.8,0.5l0.4-0.2v-24c0-1.8-0.7-3.4-2-4.7
		c-1.3-1.3-2.9-2-4.7-2H57.8c-1.9,0-3.4,0.7-4.8,2c-1.3,1.3-2,2.9-2,4.7v27.4c0,1.9,0.7,3.5,2,4.8s2.9,1.9,4.8,1.9h22.1
		C79,82.3,78.9,80.8,79.7,79.5z M102,48.4v7.2c-2,0-3.8-0.7-5.2-2.2c-1.4-1.4-2.1-3.1-2.1-5.1H102z M56.9,77.6v-7.2
		c2,0,3.7,0.7,5.1,2.1c1.4,1.4,2.1,3.1,2.1,5.1H56.9z M62.1,53.5c-1.4,1.4-3.1,2.2-5.1,2.2v-7.2h7.2C64.2,50.3,63.5,52,62.1,53.5z
		 M70.6,63c0-2.4,0.9-4.5,2.6-6.3s3.8-2.6,6.2-2.6c2.4,0,4.5,0.9,6.2,2.6c1.7,1.7,2.6,3.8,2.6,6.3c0,2.4-0.9,4.5-2.6,6.2
		c-1.7,1.7-3.8,2.5-6.1,2.5c-2.4,0-4.5-0.9-6.3-2.6S70.6,65.4,70.6,63z"/>
	
		<linearGradient id="SVGID_00000162343921187667081480000003884892038686923444_" gradientUnits="userSpaceOnUse" x1="40.6127" y1="92.5156" x2="107.8082" y2="92.5156">
		<stop  offset="0" style="stop-color:#FF6600"/>
		<stop  offset="0" style="stop-color:#FF5204"/>
		<stop  offset="1" style="stop-color:#FF270D"/>
	</linearGradient>
	<path style="fill:url(#SVGID_00000162343921187667081480000003884892038686923444_);" d="M87.9,92.5l-0.5,0.4l0.4-0.2
		c0.3-0.1,0.5-0.2,0.8-0.3c-0.1-0.1-0.1-0.2-0.2-0.3C88.2,92.3,88.1,92.4,87.9,92.5z"/>
	
		<linearGradient id="SVGID_00000026853717086809611620000008490317532060777110_" gradientUnits="userSpaceOnUse" x1="40.6127" y1="80.918" x2="107.8082" y2="80.918">
		<stop  offset="0" style="stop-color:#FF6600"/>
		<stop  offset="0" style="stop-color:#FF5204"/>
		<stop  offset="1" style="stop-color:#FF270D"/>
	</linearGradient>
	<path style="fill:url(#SVGID_00000026853717086809611620000008490317532060777110_);" d="M87.3,80.4L87.3,80.4l0.6,0.5
		c0.2,0.1,0.4,0.3,0.5,0.5c0.1-0.1,0.2-0.3,0.3-0.4c-0.3-0.1-0.5-0.2-0.8-0.3L87.3,80.4z"/>
	<path class="st19" d="M98.3,98.5L98.3,98.5c0-0.2-0.1-0.4-0.2-0.7c0.1,0,0.2,0,0.3,0C98.4,98.1,98.3,98.3,98.3,98.5z M108.7,92.7
		c-0.3-0.1-0.6-0.3-0.9-0.3c0.1-0.1,0.2-0.3,0.2-0.4c0.2,0.2,0.4,0.4,0.6,0.6l0.5,0.4L108.7,92.7z M108.7,80.9
		c-0.3,0.2-0.5,0.4-0.7,0.6c-0.1-0.2-0.2-0.3-0.3-0.5c0.3-0.1,0.6-0.2,0.9-0.3l0.6-0.3l0,0L108.7,80.9z"/>
	<path class="st19" d="M102,70.4c-2,0-3.8,0.7-5.2,2.1c-1.4,1.4-2.1,3.1-2.1,5.1h7.2V70.4z M98.2,75.7
		C98.2,75.7,98.2,75.7,98.2,75.7c0-0.2,0-0.5,0.1-0.7l0,0c0,0.2,0.1,0.5,0.2,0.7C98.4,75.7,98.3,75.7,98.2,75.7z"/>
	<path class="st19" d="M87.8,92.7l-0.4,0.2l0.5-0.4c0.2-0.1,0.3-0.3,0.5-0.4c0.1,0.1,0.1,0.2,0.2,0.3C88.3,92.5,88,92.6,87.8,92.7z"
		/>
</g>
<rect x="89.9" y="79.4" class="st10" width="14.9" height="14.9"/>
<linearGradient id="SVGID_00000003792580160236890790000005856586945717963164_" gradientUnits="userSpaceOnUse" x1="82.6735" y1="86.733" x2="113.9847" y2="86.733">
	<stop  offset="0" style="stop-color:#FF6600"/>
	<stop  offset="0" style="stop-color:#FF5204"/>
	<stop  offset="1" style="stop-color:#FF270D"/>
</linearGradient>
<path style="fill:url(#SVGID_00000003792580160236890790000005856586945717963164_);" d="M95.2,102.9L94.8,99
	c-1.2-0.4-2.3-0.8-3.2-1.3s-1.7-1.1-2.3-1.8L86,97.6l-3.3-5.4l3.1-2.4c-0.4-0.8-0.6-1.8-0.6-3s0.2-2.2,0.6-3.1l-3.1-2.4l3.3-5.4
	l3.4,1.7c0.6-0.5,1.4-1.1,2.3-1.6c0.9-0.5,1.9-1,3.2-1.4l0.4-4h6l0.6,4c1.2,0.4,2.2,0.9,3,1.4c0.9,0.5,1.6,1.1,2.3,1.6l3.4-1.7
	l3.5,5.4l-3.2,2.4c0.3,0.9,0.4,1.9,0.4,3.1c0,1.2-0.1,2.2-0.4,3l3.2,2.4l-3.5,5.4l-3.4-1.7c-0.7,0.7-1.5,1.3-2.3,1.8s-1.9,1-3,1.3
	l-0.6,3.9L95.2,102.9z M98.2,94.3c2.2,0,4-0.7,5.4-2.2c1.4-1.4,2.2-3.2,2.2-5.4c0-2.2-0.7-4-2.2-5.4c-1.4-1.4-3.2-2.2-5.4-2.2
	s-4,0.7-5.4,2.2c-1.5,1.4-2.2,3.2-2.2,5.4c0,2.2,0.7,4,2.2,5.4C94.2,93.6,96.1,94.3,98.2,94.3z"/>
</svg>
