<?xml version="1.0" encoding="UTF-8"?>
<svg id="Layer_1" data-name="Layer 1" xmlns="http://www.w3.org/2000/svg" xmlns:xlink="http://www.w3.org/1999/xlink" viewBox="0 0 150 150">
  <defs>
    <style>
      .cls-1 {
        fill: url(#linear-gradient-2);
      }

      .cls-2 {
        fill: #fee8da;
      }

      .cls-3 {
        fill: url(#linear-gradient-3);
      }

      .cls-4 {
        fill: url(#linear-gradient);
      }
    </style>
    <linearGradient id="linear-gradient" x1="-2575.3677127" y1="218.8031938" x2="-2575.3677127" y2="220.1387411" gradientTransform="translate(60531.3982321 -2278.1599833) scale(23.4750996 10.6835003)" gradientUnits="userSpaceOnUse">
      <stop offset="0" stop-color="#f60"/>
      <stop offset="0" stop-color="#ff5204"/>
      <stop offset="1" stop-color="#ff270d"/>
    </linearGradient>
    <linearGradient id="linear-gradient-2" x1="-2503.7783022" y1="207.7304815" x2="-2503.7783022" y2="209.066841" gradientTransform="translate(32067.5997345 -2614.1671396) scale(12.7779999)" xlink:href="#linear-gradient"/>
    <linearGradient id="linear-gradient-3" x1="43.6422699" y1="93.7408719" x2="105.6146572" y2="93.7408719" gradientTransform="matrix(1,0,0,1,0,0)" xlink:href="#linear-gradient"/>
  </defs>
  <circle id="Ellipse_113" data-name="Ellipse 113" class="cls-2" cx="75" cy="75" r="70"/>
  <g id="Group_13420" data-name="Group 13420">
    <path id="Path_4158" data-name="Path 4158" class="cls-4" d="m58.7235471,66.2509046c.2861892-.9539665.5723784-1.8125378,1.0493617-2.6711091,1.3355545-2.5757066,3.9112611-4.1020588,6.7731606-4.0066563,5.2468157-.0953952,10.3982361-.0953952,15.6450518,0,4.2928492,0,7.8225223,3.5296731,7.8225223,7.8225223h0v3.5296731c.1907904,1.2401593-.4769832,2.3849162-1.6217401,2.8618995h-28.0466161c-.7631725-.2861929-1.3355545-.8585713-1.6217438-1.6217401v-5.9145893"/>
    <path id="Path_4159" data-name="Path 4159" class="cls-1" d="m82.8588948,48.7101011c0,4.6744372-3.8158659,8.4903032-8.5856984,8.4903032-4.6744372,0-8.4903032-3.8158659-8.4903032-8.5856984,0-4.6744372,3.8158659-8.4903032,8.5856984-8.4903032,4.6744409.0953952,8.4903032,3.9112611,8.4903032,8.5856984h0"/>
  </g>
  <path class="cls-3" d="m43.6422699,110.3829787c.0032385-1.1436762.023697-2.2876751.0023753-3.4308904-.0104976-.5628661.2036625-.7678385.7685228-.7458548.9135648.0355526,1.8298393-.0048527,2.7444056.0140761.4434559.0091773.6334119-.1706056.6122481-.6064814-.0110788-.2281628-.0000052-.4573733-.0000021-.6861102.0001163-8.8980816-.0001189-17.7961589.0004018-26.6942405q.000066-1.1281293,1.1243829-1.1287662c17.1556786-.0001299,34.3113582-.0000964,51.4670378-.0000377.1601167,0,.3211888.0123244.480174-.0008758.4567908-.0379287.6940261.1355098.6553138.6231179-.0180487.2272493-.0011985.4572224-.0011943.6859593.0001048,8.9438256-.0000335,17.8876554.0002808,26.8314809q.0000335.9700408.9752287.971189c.8463442.0008884,1.6927722.0088882,2.5389865-.0011775.3789723-.0045006.6121135.0993621.6040215.5351205-.0224739,1.21101-.0295518,2.4223091-.0427101,3.6334908h-61.9294733Zm28.556908-7.6643127c.2517535-.0351545.3127071-.2465342.4015049-.4239536,2.5470219-5.0892707,5.0905887-10.1802764,7.6430268-15.2668274.1908041-.3802546.1675465-.6174103-.2507541-.8142153-.8684493-.4085953-1.7260242-.8417514-2.5751635-1.2892894-.3538416-.1864878-.5219161-.0849634-.6881887.2486923-2.5590404,5.1350986-5.123738,10.2673979-7.6996474,15.3940483-.1959773.3900353-.0926593.563742.269731.7349007.8472158.4001387,1.6791592.8325699,2.5183397,1.2498102.1218549.0605911.2494843.1095661.3811514.1668341Zm-4.4969576-11.6033449c-.0763623-.1082712-.1284173-.2091-.2046434-.2859547-.7408346-.746936-1.4934194-1.4823941-2.2256173-2.2376358-.2889342-.2980318-.4665652-.1258087-.675527.0836769-1.5505911,1.5544883-3.0996882,3.1105313-4.6611559,4.6540487-.3022496.2987778-.357523.524728-.027293.8503755,1.5795918,1.5576899,3.1473934,3.1274485,4.7070592,4.7051106.2758932.2790738.4616602.2664896.7273578-.0113187.6637536-.6940178,1.3364247-1.3816365,2.040548-2.0340128.3502566-.3245161.2937847-.5312275-.0195217-.8249431-.5836953-.5471935-1.1166095-1.1494256-1.7102594-1.6848353-.4307423-.3884848-.5042047-.6786887-.0283679-1.0990762.6158703-.5441009,1.174064-1.1536707,1.7537552-1.7383654.1102638-.1112172.2049828-.2378514.3236654-.3770698Zm16.5777757,8.0002607c.2293865.0123118.3234098-.132744.4328921-.2419749,1.5699263-1.5663811,3.1332063-3.1394503,4.7096363-4.6992354.2824304-.2794551.3333037-.485584.0247494-.7901657-1.5945248-1.5739785-3.1772029-3.1600468-4.7538005-4.7520112-.2508672-.2533187-.4289949-.2564113-.6770418-.0001634-.6836755.7062667-1.3747892,1.4063272-2.0872537,2.0832811-.3126275.2970471-.3018746.5238815.0176674.7784154.0710466.056585.1334899.1253854.1935992.1940727.6264242.7158505,1.8394624,1.261879,1.8225242,2.0949811-.0167873.8254669-1.21101,1.3779195-1.8468084,2.0895292-.060851.068109-.1231393.1366119-.1935237.1942194-.2912515.2383794-.3047996.4522105-.0165066.7285521.7095437.6801387,1.3940406,1.3863886,2.0911174,2.0796144.0952721.0947525.2048801.1750853.2827489.2408853Z"/>
</svg>