<?xml version="1.0" encoding="utf-8"?>
<!-- Generator: Adobe Illustrator 27.4.0, SVG Export Plug-In . SVG Version: 6.00 Build 0)  -->
<svg version="1.1" id="Layer_1" xmlns="http://www.w3.org/2000/svg" xmlns:xlink="http://www.w3.org/1999/xlink" x="0px" y="0px"
	 viewBox="0 0 150 150" style="enable-background:new 0 0 150 150;" xml:space="preserve">
<style type="text/css">
	.st0{clip-path:url(#SVGID_00000103242407500530164290000001254075689259502732_);}
	.st1{clip-path:url(#SVGID_00000042727795197182985030000009810922770983225270_);}
	.st2{clip-path:url(#SVGID_00000139274665567822716800000014441194804974011571_);}
	.st3{clip-path:url(#SVGID_00000114769011749373377590000009406149431069591963_);}
	.st4{clip-path:url(#SVGID_00000086669304120046672130000018276619273339953792_);}
	.st5{clip-path:url(#SVGID_00000155119461311590820510000003790653368239790476_);}
	.st6{clip-path:url(#SVGID_00000061447950779136988340000015347368253297932418_);}
	.st7{clip-path:url(#SVGID_00000116932152447757089910000011291095306507684993_);}
	.st8{clip-path:url(#SVGID_00000171681071335509403750000005733699497612540307_);}
	.st9{clip-path:url(#SVGID_00000052095424014793028720000016473710261075027869_);}
	.st10{fill:#FEE8DA;}
	.st11{display:none;}
	.st12{display:inline;}
	.st13{fill:url(#Path_4158_00000044861269579463880370000017522095719088145026_);}
	.st14{fill:url(#Path_4159_00000032642788786793137180000011806770244784356523_);}
	.st15{fill:url(#SVGID_00000060752063514255503280000018214637128373655171_);}
	.st16{fill:url(#Path_4158_00000124864290094494945020000008095375591271002531_);}
	.st17{fill:url(#Path_4159_00000132779229000522939130000012228503923247910055_);}
	.st18{fill:url(#SVGID_00000130609545181588710030000013623749975439695274_);}
	.st19{fill:url(#SVGID_00000061446612522000212880000011804761053829012374_);}
	.st20{fill:url(#SVGID_00000013898635503592637530000016022893022465870768_);}
	.st21{fill:url(#SVGID_00000163038408599221638250000013191015946882484099_);}
	.st22{fill:url(#SVGID_00000002362998852146329910000000829566736834624129_);}
	.st23{fill:url(#SVGID_00000089571421293383384420000009915115057725503653_);}
	.st24{fill:url(#SVGID_00000003827790958134955310000018344918106869901441_);}
	.st25{fill:url(#SVGID_00000008829145130525872510000008469789233125825941_);}
	.st26{fill:url(#SVGID_00000181795027865452309770000004523920075680443291_);}
	.st27{fill:url(#SVGID_00000171719780464223162600000010720611558158485436_);}
	.st28{fill:url(#SVGID_00000057141844597579306200000005206971196712711312_);}
	.st29{fill:url(#SVGID_00000165928667629292551330000008083603130317878920_);}
	.st30{fill:url(#SVGID_00000103235463534499962790000017058899580259071397_);}
	.st31{fill:url(#SVGID_00000022558508587377090310000002118975782038170262_);}
	.st32{fill:url(#SVGID_00000139986965177350279520000011091406470046112904_);}
	.st33{fill:url(#SVGID_00000090287945333253560450000004798707361866663103_);}
	.st34{fill:url(#SVGID_00000080177894818628672150000008048588305394973858_);}
	.st35{fill-rule:evenodd;clip-rule:evenodd;fill:url(#SVGID_00000047739556631493849490000008881389580971613115_);}
	.st36{fill:url(#SVGID_00000074438297671737721300000002526755591492474293_);}
	.st37{fill:url(#SVGID_00000072985293874467597650000000420456604380811439_);}
	.st38{fill:url(#SVGID_00000137845180184540728900000014829589793425952137_);}
	.st39{fill:url(#SVGID_00000011734378710250714020000018370551760761767610_);}
	.st40{fill:url(#SVGID_00000178197386215459202400000012644948228594278544_);}
	.st41{fill:url(#SVGID_00000129910097375036044920000001404604194091336321_);}
	.st42{fill:url(#SVGID_00000070841012281100875920000013491046859437246137_);}
	.st43{fill:url(#SVGID_00000041992298082952045700000016345527956796261033_);}
	.st44{fill:url(#SVGID_00000050646068484707920020000000487588196195712186_);}
	.st45{fill:url(#SVGID_00000116954856726841892000000017835508395215329665_);}
	.st46{fill:url(#SVGID_00000034088984870776630410000012432158242923177632_);}
	.st47{fill:url(#SVGID_00000107577345221942169100000008114578057393229998_);}
	.st48{fill:url(#SVGID_00000061469295005852061650000002067150381700213179_);}
	.st49{fill:url(#SVGID_00000032627955242210991910000014198228104203652257_);}
	.st50{fill:url(#SVGID_00000011020957406370562810000000843512408441982887_);}
	.st51{fill:url(#SVGID_00000026879990905910146140000002021633424117815712_);}
	.st52{fill:url(#SVGID_00000082328304704534497910000016081949099520949678_);}
	.st53{fill:url(#SVGID_00000139988719554126056050000004768152885740453040_);}
	.st54{fill:url(#SVGID_00000183936005750047318550000010104844548829155499_);}
	.st55{fill:url(#SVGID_00000079462807621748242590000004933929682806710713_);}
	.st56{fill:url(#SVGID_00000066511631012274680760000000673539399751299737_);}
	.st57{fill:url(#SVGID_00000072986840524054020350000006321590322596233392_);}
</style>
<ellipse id="Ellipse_113_00000072265816223505867520000005199355824907764145_" class="st10" cx="75" cy="75" rx="70" ry="70"/>
<g>
	
		<linearGradient id="SVGID_00000107561369106937608180000002974628608879447221_" gradientUnits="userSpaceOnUse" x1="38.4479" y1="75" x2="111.5521" y2="75">
		<stop  offset="0" style="stop-color:#FF6600"/>
		<stop  offset="0" style="stop-color:#FF5204"/>
		<stop  offset="1" style="stop-color:#FF270D"/>
	</linearGradient>
	<path style="fill:url(#SVGID_00000107561369106937608180000002974628608879447221_);" d="M90.4,84c1,1,1.9,1.9,3.1,3.1
		c0.2-0.2,0.3-0.6,0.6-0.8c1.1-1,2.6-1.1,3.6,0c4,3.9,8,7.9,11.9,11.9c2.9,3.1,2.7,8.1-0.4,11.2c-3.1,3-8,3.2-11.1,0.3
		c-4-3.9-7.9-7.9-11.8-11.8c-1-1-1-2.5,0-3.6c0.2-0.3,0.6-0.4,0.8-0.6c-1.1-1.1-2.1-2.1-3.1-3c-0.8,0.5-1.7,1.1-2.6,1.7
		c-0.8-0.5-1.3-1.1-1.2-2.2c0.1-1-0.3-2.2,0.1-3.1c0.4-0.8,1.5-1.3,2.2-2c7-6.4,9.6-14.4,7.3-23.6c-2.3-9.2-8.5-15-17.7-17.2
		C58.8,41.1,45.7,50.3,43.9,64c-1.2,9.2,2.1,16.7,9.6,22.2c0.5,0.3,0.7,0.7,0.6,1.3c-0.1,0.8-0.1,1.6,0,2.4c0.1,1-0.3,1.6-1,2.1
		c-12.4-6.6-18.7-22.7-11.9-37.2c6.8-14.6,24.7-20.7,39-13.3C95.3,49.3,101.2,69.1,90.4,84z"/>
	
		<linearGradient id="SVGID_00000147213873290867328180000010071672419388236417_" gradientUnits="userSpaceOnUse" x1="46.2838" y1="67.139" x2="88.0402" y2="67.139">
		<stop  offset="0" style="stop-color:#FF6600"/>
		<stop  offset="0" style="stop-color:#FF5204"/>
		<stop  offset="1" style="stop-color:#FF270D"/>
	</linearGradient>
	<path style="fill:url(#SVGID_00000147213873290867328180000010071672419388236417_);" d="M46.3,67.1c0-11.6,9.4-20.9,21-20.9
		c11.5,0,20.8,9.4,20.8,21c0,11.6-9.4,20.9-21,20.9C55.6,88,46.3,78.6,46.3,67.1z M68.6,72.5c0-0.1,0-0.2,0-0.2
		c4.8-1.1,6.7-5.2,6.4-8.5c-0.4-3.8-3.5-6.8-7.3-7.1c-3.8-0.2-7.3,2.3-8.1,6c-0.5,2.2-0.2,4.2,1.1,6.1c1.2,1.9,3,3,5.2,3.5
		c-1.4,0.1-2.7,0-4,0.1c-3.9,0.1-7.2,3.2-7.6,7.1c0,0.3,0.1,0.6,0.3,0.8c6.6,6.8,18.6,6.8,25.3,0c0.2-0.2,0.3-0.5,0.3-0.8
		c-0.2-3.3-2.9-6.5-6.3-7C72.1,72.3,70.4,72.5,68.6,72.5z"/>
	
		<linearGradient id="SVGID_00000035501651465753644580000006398604560888347054_" gradientUnits="userSpaceOnUse" x1="48.8901" y1="99.944" x2="61.9504" y2="99.944">
		<stop  offset="0" style="stop-color:#FF6600"/>
		<stop  offset="0" style="stop-color:#FF5204"/>
		<stop  offset="1" style="stop-color:#FF270D"/>
	</linearGradient>
	<path style="fill:url(#SVGID_00000035501651465753644580000006398604560888347054_);" d="M56.7,88.3c1.7,0.6,3.4,1.2,5.2,1.9
		c0,1.1,0.1,2.3,0,3.5c-0.1,0.6-0.4,1.2-0.9,1.6c-1.3,1.4-2.6,2.6-3.9,3.9c-0.7,0.7-0.6,2.5,0.2,3.1c2.4,1.9,2.7,5.4,0.6,7.7
		c-2,2.2-5.6,2.2-7.6,0c-2.1-2.3-1.8-5.7,0.6-7.6c0.4-0.3,0.6-0.7,0.6-1.2c0-4.2-0.4-3.2,2.6-6.2c0.9-0.9,2-1.6,2.5-2.6
		c0.4-1,0.1-2.3,0.2-3.5C56.7,88.6,56.7,88.4,56.7,88.3z"/>
	
		<linearGradient id="SVGID_00000157297133593220291520000009299571923459600569_" gradientUnits="userSpaceOnUse" x1="72.3731" y1="99.945" x2="85.4674" y2="99.945">
		<stop  offset="0" style="stop-color:#FF6600"/>
		<stop  offset="0" style="stop-color:#FF5204"/>
		<stop  offset="1" style="stop-color:#FF270D"/>
	</linearGradient>
	<path style="fill:url(#SVGID_00000157297133593220291520000009299571923459600569_);" d="M72.4,90.2c1.8-0.6,3.4-1.2,5.2-1.9
		c0,1.1,0,2.2,0,3.3c0,0.4,0.2,0.8,0.4,1c1.3,1.3,2.6,2.6,3.8,3.9c0.6,0.6,1,1.4,0.9,2.3c0,0.2,0,0.5,0,0.7
		c-0.1,1.4,0.1,2.4,1.2,3.5c2.1,2,1.8,5.4-0.4,7.3c-2.2,1.9-5.5,1.7-7.4-0.5c-1.9-2.2-1.6-5.5,0.6-7.4c0.3-0.3,0.8-0.4,0.8-1
		c-0.1-0.8,0.2-1.7-0.6-2.4c-1.3-1.1-2.4-2.4-3.7-3.6c-0.7-0.7-1-1.4-1-2.4C72.4,92,72.4,91,72.4,90.2z"/>
	
		<linearGradient id="SVGID_00000035532509187871447840000011148925736481764264_" gradientUnits="userSpaceOnUse" x1="61.94" y1="101.0897" x2="72.3823" y2="101.0897">
		<stop  offset="0" style="stop-color:#FF6600"/>
		<stop  offset="0" style="stop-color:#FF5204"/>
		<stop  offset="1" style="stop-color:#FF270D"/>
	</linearGradient>
	<path style="fill:url(#SVGID_00000035532509187871447840000011148925736481764264_);" d="M64.6,90.6c1.8,0,3.4,0,5.2,0
		c0,0.3,0,0.6,0,0.8c0,3.2,0,6.5,0,9.7c0,0.5,0.1,0.8,0.5,1.1c2.5,1.9,2.8,5.4,0.7,7.7c-2,2.2-5.6,2.2-7.6,0
		c-2.1-2.3-1.8-5.8,0.7-7.7c0.4-0.3,0.5-0.6,0.5-1.1c0-3.2,0-6.4,0-9.6C64.6,91.2,64.6,90.9,64.6,90.6z"/>
</g>
</svg>
