<?xml version="1.0" encoding="UTF-8"?><svg id="Layer_1" xmlns="http://www.w3.org/2000/svg" xmlns:xlink="http://www.w3.org/1999/xlink" viewBox="0 0 150 150"><defs><style>.cls-1{fill:#fee8da;}.cls-2{fill:url(#linear-gradient);}</style><linearGradient id="linear-gradient" x1="42.39" y1="75" x2="117.61" y2="75" gradientUnits="userSpaceOnUse"><stop offset="0" stop-color="#f60"/><stop offset="0" stop-color="#ff5204"/><stop offset="1" stop-color="#ff270d"/></linearGradient></defs><circle id="Ellipse_113" class="cls-1" cx="75" cy="75" r="70"/><path class="cls-2" d="M104.31,86.53h-6.47c-.94,0-1.65-.82-1.65-1.65l.12-18.83c0-.94,.71-1.65,1.65-1.65h6.47l-.12,22.13Zm-12.36-2c-2.47,0-3.18,2.47-6.94,3.18,.12-.35,.12-.82,.12-1.29,2.24,.35,4-1.41,3.65-3.53,2.94,.47,5.06-3.06,3.06-5.3l-7.53-9.77c.24-.24,.59-.35,.82-.59s.24-.59,0-.82-.59-.24-.82,0c-1.29,1.18-2.94,1.65-4.59,1.29-3.18-.71-3.41-3.65-4.12-3.77-.24,0-.47,0-.59,.12l-4.71,4.83c-3.53,3.65-8.95,1.06-7.41-.47,5.89-5.3,8-10.12,13.77-10.36,4.47-.24,10,1.18,11.18,5.41,.47,1.65,2,2.71,3.77,2.71h3.41l-.12,18.48-2.94-.12Zm-15.89,6.71c1.65-2.24,1.88-2.35,2.24-3.18,.24,.94-.71,2.94-2.24,3.18Zm-21.19-12.71l2.12-2.71c2.12-2.71,5.89,.35,4,2.82-2,2.24-2.35,4-4.24,4q-.12,0,0,0c-2.12,0-3.18-2.47-1.88-4.12h0Zm4.47,4.12c4.24-5.06,4.59-6.94,6.59-6.94,.71,0,1.41,.35,1.88,.82,.71,.82,.71,2,.12,2.94-4.24,5.53-4,5.06-4.24,5.53-.35,.35-.94,1.65-2.47,1.65q-.12,0,0,0c-2.12,.12-3.18-2.24-1.88-4h0Zm5.53,3.06c4-4.83,4.24-6.59,6.36-6.59,2,0,3.06,2.35,1.88,3.88-4.83,6.24-4.83,6.47-6.24,6.47q-.12,0,0,0c-1.88-.12-3.06-2.12-2-3.77h0Zm5.53,2.82c2.12-2.35,2.59-4.36,4.59-4.36s3.18,2.35,1.88,4c-2.35,2.71-2.71,4.36-4.59,4.36q-.12,0,0,0c-.59,0-1.06-.24-1.53-.59-1.06-.82-1.18-2.35-.35-3.41h0Zm8.12-2.59c-.24-1.29-1.06-2.35-2.35-2.82l-1.29-1.53c.12-2.59-2.47-4.59-5.18-3.41,0-2.12-1.77-3.77-3.65-3.77-2.24,0-3.18,1.77-3.41,2-.59-3.3-4.71-4-6.59-1.53l-1.77,2.47h-2.59l.12-15.07c1.29-.24,4.83,.82,5.53-1.88,1.41-4.83,6.71-3.3,11.18-3.41,1.53,0,3.18,.12,4.71,.35-3.77,1.41-4.83,3.77-11.3,10-1.29,1.41-.71,3.65,2.71,4.36,.47,.12,.82,.12,1.29,.12,1.88,0,3.77-.82,5.18-2.24l4-4.12c1.65,3.18,5.18,4.24,8,2.94l7.77,10c.71,.82,.59,2-.12,2.71-2.59,1.77-1.77,1.06-12.71-10.83-.24-.24-.59-.24-.82,0s-.24,.59,0,.82l9.89,10.95c1.18,1.29,.12,3.3-1.53,3.18-1.41,0-1.06-.59-10.59-10.48-.24-.24-.59-.24-.82,0s-.24,.59,0,.82l9.18,9.89c1.29,1.29,.12,3.41-1.65,3.3-1.29,0-1.53-1.18-3.18-2.82h0Zm8.59-43.31l10,10h-10v-10Zm-38.37,.59c0-.82,.59-1.41,1.41-1.41h35.66v11.53c0,.35,.24,.59,.59,.59h11.53v9.06c-1.18,0-2.12,.71-2.59,1.65h-3.65c-1.18,0-2.24-.82-2.59-1.88-.35-1.41-1.18-2.59-2.47-3.65-2.59-2.12-6.59-2.71-9.89-2.59-.94-.12-3.88-.82-8.12-.94-5.06,.24-8-1.06-10.83,1.65-2,2-1.18,3.65-3.06,3.65h-2.94v-.12c0-1.65-1.29-2.94-2.94-2.94h-.24v-14.59s.12,0,.12,0Zm-6.36,15.89h6.47c.94,0,1.65,.82,1.65,1.65v17.77c0,.94-.71,1.65-1.65,1.65v.12h-6.47v-21.19Zm55.55,47.67c0,.82-.59,1.41-1.41,1.41H50.16c-.82,0-1.41-.59-1.41-1.41v-25.3c1.65,0,2.94-1.29,2.94-2.94h0s1.77,0,1.77,0c-1.41,2.94,1.18,6,4.24,5.18-.59,3.3,3.06,5.41,5.65,3.65,.24,2.59,3.06,4.12,5.41,2.82,.12,3.41,4.36,4.71,6.47,2.24,2.24,.35,4.24-1.18,4.47-3.3,1.18,1.29,3.18,1.41,4.71-.12,3.18,0,6.24-2.71,5.89-2.47,1.18-1.18,2.71-.59,4.94-.71,.35,1.06,1.41,1.88,2.71,1.88h.24v5.41l-11.42,5.53c-.12,0-.12,.12-.24,.12l-3.53,4.71c-.12,.24-.12,.47,0,.59,.12,.24,.35,.35,.59,.35l5.89,.12c.12,0,.24,0,.24-.12l8.47-4.12v6.47h-.24Zm-9.65-3.3l-3.65-.12,2.24-2.94,1.41,3.06Zm1.29-.12l-1.88-3.77,25.78-12.59,1.88,3.77-25.78,12.59Zm27.54-13.42l-.71,.24-1.88-3.77,.71-.35c.47-.24,.94,0,1.06,.35l1.18,2.35c.24,.47,.12,.94-.35,1.18h0Z"/></svg>