<?xml version="1.0" encoding="UTF-8"?><svg id="Layer_1" xmlns="http://www.w3.org/2000/svg" xmlns:xlink="http://www.w3.org/1999/xlink" viewBox="0 0 150 150"><defs><style>.cls-1{fill:#fee8da;}.cls-2{fill:url(#linear-gradient);fill-rule:evenodd;}</style><linearGradient id="linear-gradient" x1="46.61" y1="75" x2="103.39" y2="75" gradientUnits="userSpaceOnUse"><stop offset="0" stop-color="#f60"/><stop offset="0" stop-color="#ff5204"/><stop offset="1" stop-color="#ff270d"/></linearGradient></defs><circle id="Ellipse_113" class="cls-1" cx="75" cy="75" r="70"/><path class="cls-2" d="M103.39,53.72l-.51,25.78c-.26,16.36-14.99,23.9-27.92,29.81-12.93-5.91-27.58-13.45-27.92-29.81l-.43-25.78c13.1-1.54,19.1-3.34,28.35-13.02,9.34,9.76,15.42,11.48,28.43,13.02h0Zm-26.98,31.95l-.51-11.82c1.03-.69,.6-1.11,.17-2.57h-2.14c-.43,1.46-.86,1.88,.09,2.57l-.43,11.82,1.37,1.54,1.46-1.54Zm-1.46-30.75c7.02,0,10.19,8.65,5.14,13.28-3,2.66-7.54,2.57-10.36-.17-4.88-4.63-1.63-13.1,5.22-13.1h0Zm13.96,42.65v-19.7c0-2.31-5.22-3.94-7.02-4.71l-1.03,8.74-5.91,6.08-5.91-6.08-.94-8.74c-1.88,.77-7.02,2.4-7.02,4.71v19.7c-5.82-4.45-10.28-10.19-10.36-18.07l-.43-22.52c9.76-1.28,17.64-4.03,24.67-11.05,7.11,7.02,14.99,9.76,24.75,11.05l-.43,22.52c-.09,7.88-4.54,13.62-10.36,18.07h0Z"/></svg>