<?xml version="1.0" encoding="UTF-8"?><svg id="Layer_1" xmlns="http://www.w3.org/2000/svg" xmlns:xlink="http://www.w3.org/1999/xlink" viewBox="0 0 150 150"><defs><style>.cls-1{fill:url(#linear-gradient-2);}.cls-2{fill:#fee8da;}.cls-3{fill:url(#linear-gradient-5);}.cls-4{fill:url(#linear-gradient-3);}.cls-5{fill:url(#linear-gradient);}.cls-6{fill:url(#linear-gradient-4);}</style><linearGradient id="linear-gradient" x1="55.53" y1="89.66" x2="104.09" y2="89.66" gradientUnits="userSpaceOnUse"><stop offset="0" stop-color="#f60"/><stop offset="0" stop-color="#ff5204"/><stop offset="1" stop-color="#ff270d"/></linearGradient><linearGradient id="linear-gradient-2" x1="50.27" y1="105.5" x2="58.1" y2="105.5" xlink:href="#linear-gradient"/><linearGradient id="linear-gradient-3" x1="68.44" y1="52.27" x2="90.56" y2="52.27" xlink:href="#linear-gradient"/><linearGradient id="linear-gradient-4" x1="45.91" y1="87.22" x2="74.43" y2="87.22" xlink:href="#linear-gradient"/><linearGradient id="linear-gradient-5" x1="45.91" y1="100.66" x2="74.43" y2="100.66" xlink:href="#linear-gradient"/></defs><circle id="Ellipse_113" class="cls-2" cx="75" cy="75" r="70"/><g><path class="cls-5" d="M92.8,108.04v-30.03c.29,.6,.58,1.28,.87,2.08,1.38,3.84,2.55,10.14,2.55,19.98,0,2.71-.09,5.69-.28,8.96-.13,2.17,1.53,4.03,3.7,4.16,.08,0,.16,0,.23,0,2.07,0,3.8-1.61,3.92-3.7,.2-3.41,.29-6.54,.29-9.42-.02-14.84-2.39-23.05-5.62-27.99-1.61-2.45-3.5-4.02-5.25-4.89-1.64-.83-3.09-1.03-3.98-1.05-.08,0-.16-.01-.24-.01h-18.99c-.19,0-.37,.02-.55,.04-.73,.05-1.9,.21-3.35,.68-3.03,.95-7.25,3.39-10.46,8.61h0c-.04,.07-.08,.14-.12,.21h20.37v12.43l1.62-11.96c.64,.24,1.31,.36,1.98,.36h0c.67,0,1.34-.13,1.98-.36l2.69,19.82-4.67,5.9-3.6-4.55v6.38h-9.69v4.35m12.16,0h2.28m-3.01-37.89h3.74l.93,3.69-.14,.22c-.77,.64-1.71,.96-2.66,.96-.95,0-1.89-.32-2.66-.96l-.14-.23,.93-3.69Z"/><path class="cls-1" d="M54.19,107.3s.1,0,.15,0c2.01-.08,3.61-1.65,3.77-3.6h-7.83c.17,2.03,1.87,3.6,3.91,3.6h0Z"/><path class="cls-4" d="M90.56,52.27c0,6.11-4.95,11.06-11.06,11.06s-11.06-4.95-11.06-11.06,4.95-11.06,11.06-11.06,11.06,4.95,11.06,11.06"/><path class="cls-6" d="M74.43,97.3v-20.16h-28.51v20.16h28.51Zm-14.26-17.29c1.09,0,1.97,.88,1.97,1.97s-.88,1.97-1.97,1.97-1.97-.88-1.97-1.97,.88-1.97,1.97-1.97Z"/><path class="cls-3" d="M45.91,99.1h28.51v3.11h-28.51v-3.11Z"/></g></svg>