<?xml version="1.0" encoding="UTF-8"?><svg id="Layer_1" xmlns="http://www.w3.org/2000/svg" xmlns:xlink="http://www.w3.org/1999/xlink" viewBox="0 0 150 150"><defs><style>.cls-1{fill:url(#linear-gradient-2);}.cls-2{fill:#fee8da;}.cls-3{fill:url(#linear-gradient);}</style><linearGradient id="linear-gradient" x1="35.25" y1="52.37" x2="114.75" y2="52.37" gradientUnits="userSpaceOnUse"><stop offset="0" stop-color="#f60"/><stop offset="0" stop-color="#ff5204"/><stop offset="1" stop-color="#ff270d"/></linearGradient><linearGradient id="linear-gradient-2" x1="38.86" y1="84.38" x2="111.14" y2="84.38" xlink:href="#linear-gradient"/></defs><circle id="Ellipse_113" class="cls-2" cx="75" cy="75" r="70"/><g><path class="cls-3" d="M111.14,42.73H38.86c-1.99,0-3.61,1.63-3.61,3.61v4.82c0,1.99,1.63,3.61,3.61,3.61h8.43v7.23h2.41v-7.23h50.59v7.23h2.41v-7.23h8.43c1.99,0,3.61-1.63,3.61-3.61v-4.82c0-1.99-1.63-3.61-3.61-3.61Z"/><path class="cls-1" d="M105.12,61.5H44.88c-3.32,0-6.02,2.7-6.02,6.02v33.73c0,3.32,2.7,6.02,6.02,6.02h60.23c3.32,0,6.02-2.7,6.02-6.02v-33.73c0-3.32-2.7-6.02-6.02-6.02Zm-21.68,13.25c0,4.65-3.78,8.43-8.43,8.43s-8.43-3.78-8.43-8.43,3.78-8.43,8.43-8.43,8.43,3.78,8.43,8.43Zm7.23,25.3h-31.32c-.66,0-1.2-.54-1.2-1.2,0-7.03,4.65-12.99,11.03-14.96,1.69,1.07,3.69,1.71,5.83,1.71s4.14-.64,5.83-1.71c6.38,1.98,11.03,7.93,11.03,14.96,0,.66-.54,1.2-1.2,1.2Z"/></g></svg>