<?xml version="1.0" encoding="utf-8"?>
<!-- Generator: Adobe Illustrator 27.3.1, SVG Export Plug-In . SVG Version: 6.00 Build 0)  -->
<svg version="1.1" id="Layer_1" xmlns="http://www.w3.org/2000/svg" xmlns:xlink="http://www.w3.org/1999/xlink" x="0px" y="0px"
	 viewBox="0 0 150 150" style="enable-background:new 0 0 150 150;" xml:space="preserve">
<style type="text/css">
	.st0{clip-path:url(#SVGID_00000101781773408900398330000017705376985795842186_);}
	.st1{clip-path:url(#SVGID_00000072971867304149205310000012625956078029283988_);}
	.st2{clip-path:url(#SVGID_00000121255046523745730230000009815547067278525570_);}
	.st3{clip-path:url(#SVGID_00000044179026554228550800000008483859515292055698_);}
	.st4{clip-path:url(#SVGID_00000164473915861669355300000011809958245043665595_);}
	.st5{clip-path:url(#SVGID_00000155849299554372368020000015664852404028195457_);}
	.st6{clip-path:url(#SVGID_00000054985911048196434920000015914206323863037600_);}
	.st7{clip-path:url(#SVGID_00000105426671362969659030000007799277691136098452_);}
	.st8{clip-path:url(#SVGID_00000006670870175874522770000008340514275407920517_);}
	.st9{clip-path:url(#SVGID_00000067956835141135575170000009421334511200878758_);}
	.st10{fill:#FEE8DA;}
	.st11{fill:url(#SVGID_00000131347230663898518700000000407318799695220638_);}
	.st12{clip-path:url(#SVGID_00000105405438862135708990000007535791381092614032_);}
	.st13{fill:url(#Path_4160_00000158005345543008174640000014526771088221351578_);}
	.st14{fill:url(#Path_4161_00000160908006860892674380000013825353879312688548_);}
	.st15{fill:url(#Path_4162_00000096061460882428749900000001243785685894689211_);}
	.st16{fill:url(#Path_4163_00000086667527892621886860000002125798510598463910_);}
	.st17{fill:url(#Path_4164_00000179643855559309158810000006048506031109343934_);}
	.st18{fill:url(#Path_4165_00000093168414089128218050000006057392766760434065_);}
	.st19{fill:url(#Path_4166_00000140008982985362133990000005602874870610974108_);}
	.st20{fill:url(#Path_4167_00000023247258245997735530000015151832650530272142_);}
	.st21{clip-path:url(#SVGID_00000080169740635899385600000015274892641365629111_);}
	.st22{fill:url(#Path_4157_00000034803538573264355810000012202237329704257974_);}
	.st23{fill:url(#Path_4158_00000154426031743132102870000005458988529406841272_);}
	.st24{fill:url(#Path_4159_00000139292016167490876700000012332480642934617747_);}
	.st25{clip-path:url(#SVGID_00000147914252746967434590000014580304317858038656_);}
	.st26{fill:url(#Path_4168_00000083083924398205945050000011345345160790619065_);}
	.st27{fill:url(#Path_4169_00000098217265642807940690000017553963056103103397_);}
	.st28{fill:url(#Path_4170_00000056388292522529761290000009242959357939685008_);}
	.st29{fill:url(#Path_4171_00000111897666555637849680000005971919061808482186_);}
	.st30{fill:url(#Path_4172_00000110431159221710351850000015886780113928268975_);}
	.st31{fill:url(#Path_4173_00000135679419243326782480000013760194673170372543_);}
	.st32{fill:url(#SVGID_00000031191073737556998810000007608567255515358133_);}
	.st33{fill:url(#SVGID_00000119828851720618612130000006065017707549400232_);}
	.st34{fill:url(#SVGID_00000150094835741132833450000003290772758544788354_);}
	.st35{fill:url(#SVGID_00000121992787234633619300000015153821796355065742_);}
	.st36{fill:url(#SVGID_00000026123992880709924380000001261568100851073967_);}
	.st37{fill:url(#SVGID_00000008859281588100154240000002611465198963477682_);}
	.st38{fill:url(#SVGID_00000038399859833249485050000014120851700989143967_);}
	.st39{fill:url(#SVGID_00000049920667656285174390000012315236164989888145_);}
	.st40{fill:url(#SVGID_00000150093918566815335130000015011630179956036514_);}
	.st41{fill:url(#SVGID_00000056418500313437902540000010437376336523210917_);}
	.st42{fill:url(#SVGID_00000137125038874132849270000008594405838414025640_);}
	.st43{fill:url(#SVGID_00000176036553075554998080000003655589960375185580_);}
	.st44{fill:url(#SVGID_00000011732423232186476110000004296584679418005689_);}
	.st45{fill:url(#SVGID_00000051381428568841874080000005932567148541991570_);}
	.st46{fill:url(#SVGID_00000153683717686848343250000015104905544543429271_);}
	.st47{fill:url(#SVGID_00000063610511244982517660000000790435765641330351_);}
	.st48{fill:url(#SVGID_00000153670902476458500410000017850611275808562338_);}
	.st49{fill:url(#SVGID_00000072966826031723876130000011515471598816091306_);}
	.st50{fill:url(#SVGID_00000029751844330020512830000001036721061296077447_);}
	.st51{fill:url(#SVGID_00000000198258498954901010000002276062189831870124_);}
	.st52{fill:url(#SVGID_00000100382581069535675420000014665946499230591907_);}
	.st53{fill:url(#SVGID_00000021088307242344952880000009963134182130242196_);}
	.st54{fill:url(#SVGID_00000039120846867037580380000016673632858289830828_);}
	.st55{fill:url(#SVGID_00000015348300494444699390000003960043986114957239_);}
	.st56{fill:url(#SVGID_00000074427161149109163430000012791514261631530133_);}
	.st57{fill:url(#SVGID_00000082356080500530220290000011107372114045005483_);}
	.st58{fill:url(#SVGID_00000125596939119222647000000009248646697859377303_);}
	.st59{fill:url(#SVGID_00000090252266513549099110000012254940870303526835_);}
	.st60{fill:url(#SVGID_00000010303464892949282450000007910333576302415806_);}
	.st61{fill:url(#SVGID_00000067197545414933102150000007389710246127779487_);}
	.st62{fill:url(#SVGID_00000023983330659903911410000007969072376927180939_);}
	.st63{fill:url(#SVGID_00000011002969996960126990000008443770139375774396_);}
	.st64{fill:url(#SVGID_00000158749313992684143870000017546078786990427266_);}
	.st65{fill:url(#SVGID_00000162329286516879055270000013543924115507356592_);}
	.st66{fill:url(#SVGID_00000085250239325923477270000009552702356483744425_);}
	.st67{fill:url(#SVGID_00000150794674557764837770000001628255329344395440_);}
	.st68{fill:url(#SVGID_00000008849812175627440000000015078218326742839484_);}
	.st69{fill:url(#SVGID_00000035523021940828699680000013576481491768462470_);}
	.st70{fill:url(#SVGID_00000057841528059828009710000002652651857525539472_);}
	.st71{fill:url(#SVGID_00000044870959566481584990000014446563144114751892_);}
	.st72{fill:url(#SVGID_00000010992977473485777860000008452509235861261208_);}
</style>
<ellipse id="Ellipse_113_00000016775332011359808330000005434700938924219783_" class="st10" cx="75" cy="75" rx="70" ry="70"/>
<linearGradient id="SVGID_00000143592124181105353130000005689424017997825962_" gradientUnits="userSpaceOnUse" x1="40.3318" y1="75" x2="109.6682" y2="75">
	<stop  offset="0" style="stop-color:#FF6600"/>
	<stop  offset="0" style="stop-color:#FF5204"/>
	<stop  offset="1" style="stop-color:#FF270D"/>
</linearGradient>
<path style="fill:url(#SVGID_00000143592124181105353130000005689424017997825962_);" d="M47.4,102.8c-1.9,0-3.6-0.7-4.9-2.1
	c-1.4-1.4-2.1-3.1-2.1-5c0-2,0.7-3.7,2.1-5.1c1.4-1.4,3-2.1,4.9-2.1c0.4,0,0.7,0,1,0.1c0.3,0.1,0.8,0.2,1.4,0.3L62,76.6
	c-0.1-0.6-0.2-1-0.2-1.3c-0.1-0.3-0.1-0.7-0.1-1.1c0-2,0.7-3.7,2.1-5.1s3.1-2,5.1-2c2,0,3.6,0.7,5,2.1c1.4,1.4,2.1,3.1,2.1,5
	c0,0.4-0.1,1.2-0.3,2.2l6.3,6.3c0.5-0.1,0.9-0.1,1.3-0.2s0.7-0.1,1-0.1c0.3,0,0.6,0,1,0.1l1.4,0.3l9.3-9.3c-0.1-0.5-0.2-0.9-0.2-1.3
	c-0.1-0.4-0.1-0.8-0.1-1.1c0-2,0.7-3.6,2.1-5c1.4-1.4,3.1-2,5.1-2c2,0,3.6,0.7,4.9,2s2,3,2,5.1c0,2-0.7,3.6-2,5s-3,2.1-4.9,2.1
	c-0.4,0-0.7,0-1.1-0.1c-0.4-0.1-0.8-0.1-1.4-0.2l-9.2,9.3c0.1,0.5,0.2,1,0.2,1.3c0.1,0.4,0.1,0.7,0.1,1c0,1.9-0.7,3.6-2,5
	c-1.4,1.4-3,2.1-5,2.1c-2,0-3.7-0.7-5.1-2.1c-1.4-1.4-2.2-3.1-2.2-5c0-0.4,0-0.8,0.1-1.1c0.1-0.3,0.1-0.7,0.2-1.3l-6.2-6.2
	c-0.6,0.1-1,0.1-1.3,0.2c-0.3,0.1-0.7,0.1-1.1,0.1s-1.2-0.1-2.2-0.3L54.2,93.5c0.2,0.5,0.3,0.9,0.3,1.2s0.1,0.7,0.1,1.1
	c0,1.9-0.7,3.5-2.1,4.9C51.1,102.1,49.4,102.8,47.4,102.8z M50.3,68.9l-1.9-4.1l-4.1-1.9l4.1-1.9l1.9-4.2l1.9,4.2l4.2,1.9l-4.2,1.9
	L50.3,68.9z M84.3,65.5l-2.9-6.3l-6.3-2.9l6.3-2.9l2.9-6.3l2.9,6.3l6.3,2.9l-6.3,2.9L84.3,65.5z"/>
</svg>
