<?xml version="1.0" encoding="UTF-8"?><svg id="Layer_1" xmlns="http://www.w3.org/2000/svg" xmlns:xlink="http://www.w3.org/1999/xlink" viewBox="0 0 150 150"><defs><style>.cls-1{fill:url(#linear-gradient-2);}.cls-2{fill:#fee8da;}.cls-3{fill:url(#linear-gradient-6);}.cls-4{fill:url(#linear-gradient-11);}.cls-5{fill:url(#linear-gradient-10);}.cls-6{fill:url(#linear-gradient-5);}.cls-7{fill:url(#linear-gradient-7);}.cls-8{fill:url(#linear-gradient-9);}.cls-9{fill:url(#linear-gradient-3);}.cls-10{fill:url(#linear-gradient);}.cls-11{fill:url(#linear-gradient-4);}.cls-12{fill:url(#linear-gradient-8);}</style><linearGradient id="linear-gradient" x1="38.65" y1="60.83" x2="46.33" y2="60.83" gradientUnits="userSpaceOnUse"><stop offset="0" stop-color="#f60"/><stop offset="0" stop-color="#ff5204"/><stop offset="1" stop-color="#ff270d"/></linearGradient><linearGradient id="linear-gradient-2" x1="91.81" y1="101.79" x2="103.38" y2="101.79" xlink:href="#linear-gradient"/><linearGradient id="linear-gradient-3" x1="48.76" y1="97.25" x2="94.5" y2="97.25" xlink:href="#linear-gradient"/><linearGradient id="linear-gradient-4" x1="104.63" y1="101.65" x2="109.63" y2="101.65" xlink:href="#linear-gradient"/><linearGradient id="linear-gradient-5" x1="48.76" y1="101.75" x2="93.74" y2="101.75" xlink:href="#linear-gradient"/><linearGradient id="linear-gradient-6" x1="48.76" y1="106.26" x2="94.14" y2="106.26" xlink:href="#linear-gradient"/><linearGradient id="linear-gradient-7" x1="39.46" y1="101.76" x2="47.51" y2="101.76" xlink:href="#linear-gradient"/><linearGradient id="linear-gradient-8" x1="103.74" y1="60.44" x2="111.35" y2="60.44" xlink:href="#linear-gradient"/><linearGradient id="linear-gradient-9" x1="52.45" y1="75.3" x2="97.55" y2="75.3" xlink:href="#linear-gradient"/><linearGradient id="linear-gradient-10" x1="38.65" y1="68.29" x2="111.35" y2="68.29" xlink:href="#linear-gradient"/><linearGradient id="linear-gradient-11" x1="68.17" y1="82.68" x2="81.83" y2="82.68" xlink:href="#linear-gradient"/></defs><circle id="Ellipse_113" class="cls-2" cx="75" cy="75" r="70"/><g><path class="cls-10" d="M46.33,75.36V42.94c-.2,0-.39,0-.58,0-3.31-.01-5.3-.02-6.24,.91-.59,.59-.86,1.67-.86,3.48v31.39c1.66-1.92,4.73-3.21,7.68-3.37h0Z"/><path class="cls-1" d="M95.92,96.07l-3.88,3.26,3.27,1.91s.02,.01,.03,.02c.02,.01,.04,.03,.06,.04,.02,.01,.03,.03,.04,.04,.01,.01,.03,.03,.04,.04,.01,.02,.03,.04,.04,.06,0,.01,.02,.02,.02,.03,0,0,0,.01,0,.02,.01,.02,.02,.04,.03,.06,0,.02,.01,.04,.02,.05,0,.02,0,.04,.01,.06s0,.04,.01,.06,0,.04,0,.06c0,.02,0,.04,0,.06s0,.04-.01,.06c0,.02,0,.04-.01,.06,0,.02-.01,.04-.02,.05,0,.02-.02,.04-.03,.06,0,0,0,.01,0,.02-.01,.02-.03,.04-.04,.06,0,0,0,0,0,0-.02,.03-.05,.06-.08,.08,0,0-.01,.01-.02,.02-.03,.02-.06,.05-.09,.06l-3.49,1.95,3.74,3.15c.14,.12,.21,.28,.22,.45h.2l7.41-3.41v-5.61s-7.25-3.16-7.25-3.16c-.02,.14-.09,.28-.21,.38h0Z"/><path class="cls-9" d="M90.91,98.66l3.59-3.03H48.76v3.25h41.98c.04-.08,.09-.16,.16-.22h0Z"/><path class="cls-11" d="M104.63,103.89l5-2.3-5-2.18v4.49Z"/><path class="cls-6" d="M93.74,101.78l-2.82-1.65H48.76v3.25h42.11l2.87-1.6Z"/><path class="cls-3" d="M90.37,104.63H48.76v3.25h45.37l-3.6-3.03c-.07-.06-.13-.14-.17-.22h0Z"/><path class="cls-7" d="M39.46,95.63h8.05v12.25h-8.05v-12.25Z"/><path class="cls-12" d="M104.31,42.12c-.18,0-.37,0-.56,0v33.24c2.88,.17,5.94,1.49,7.6,3.4V46.52c0-1.82-.27-2.89-.86-3.49-.93-.93-2.91-.92-6.18-.91h0Z"/><path class="cls-8" d="M96.33,81.98h-4.9l-.13-.46c-.35-1.27-.85-2.49-1.49-3.63l-.23-.41,3.43-3.43c.5-.5,.5-1.28,0-1.77l-4.13-4.13c-.24-.24-.55-.37-.89-.37s-.65,.13-.89,.37l-3.44,3.44-.41-.23c-1.13-.63-2.35-1.14-3.62-1.49l-.46-.13v-4.9c0-.68-.54-1.22-1.22-1.22h-5.9c-.68,0-1.22,.54-1.22,1.22v4.9l-.46,.13c-1.27,.36-2.49,.86-3.63,1.49l-.41,.23-3.43-3.43c-.24-.24-.55-.37-.89-.37s-.65,.13-.89,.37l-4.13,4.13c-.24,.24-.37,.55-.37,.89s.13,.65,.37,.89l3.44,3.43-.23,.41c-.64,1.13-1.14,2.35-1.49,3.63l-.13,.46h-4.9c-.65,0-1.22,.57-1.22,1.22v3.8h14.47v-.85c0-4.46,3.62-8.08,8.08-8.08s8.08,3.62,8.08,8.08v.85h14.46v-3.8c0-.65-.57-1.22-1.22-1.22h0Z"/><path class="cls-5" d="M103.12,76.59c-.35,0-.63-.28-.63-.63v-26.38H47.58v26.38c0,.35-.28,.63-.63,.63-3.84,0-8.3,2.27-8.3,5.2,0,2.67,3.75,5.2,7.71,5.2h4.84v-3.8c0-1.34,1.13-2.47,2.47-2.47h3.96c.32-1.05,.74-2.07,1.25-3.03l-2.77-2.77c-.48-.48-.74-1.11-.74-1.78,0-.67,.26-1.3,.74-1.77l4.13-4.13c.47-.48,1.1-.74,1.77-.74s1.3,.26,1.77,.74l2.77,2.77c.96-.5,1.97-.92,3.03-1.25v-3.96c0-1.39,1.09-2.47,2.47-2.47h5.9c1.39,0,2.47,1.09,2.47,2.47v3.96c1.05,.33,2.07,.74,3.03,1.25l2.77-2.77c.47-.48,1.1-.74,1.77-.74s1.3,.26,1.77,.74l4.13,4.13c.98,.98,.98,2.57,0,3.54l-2.77,2.77c.51,.96,.92,1.98,1.24,3.03h3.96c1.34,0,2.47,1.13,2.47,2.47v3.8h5.06c4.06,0,7.49-2.38,7.49-5.2,0-2.63-4.08-5.2-8.23-5.2h0Z"/><path class="cls-4" d="M75,79.32c-3.73,0-6.77,3-6.83,6.72h13.65c-.06-3.71-3.1-6.72-6.83-6.72Z"/></g></svg>