<?xml version="1.0" encoding="utf-8"?>
<!-- Generator: Adobe Illustrator 27.4.0, SVG Export Plug-In . SVG Version: 6.00 Build 0)  -->
<svg version="1.1" id="Layer_1" xmlns="http://www.w3.org/2000/svg" xmlns:xlink="http://www.w3.org/1999/xlink" x="0px" y="0px"
	 viewBox="0 0 150 150" style="enable-background:new 0 0 150 150;" xml:space="preserve">
<style type="text/css">
	.st0{clip-path:url(#SVGID_00000094613385750291632230000005792851914229993378_);}
	.st1{clip-path:url(#SVGID_00000034770316638745041030000011744046047811361460_);}
	.st2{clip-path:url(#SVGID_00000013191291313260388880000016439169352705393805_);}
	.st3{clip-path:url(#SVGID_00000028310951982587622760000008987205844101773191_);}
	.st4{clip-path:url(#SVGID_00000034788051259325255830000013216780559731710369_);}
	.st5{clip-path:url(#SVGID_00000095338850918828318510000017988104382021644723_);}
	.st6{clip-path:url(#SVGID_00000156576810409937075810000007655220260380421524_);}
	.st7{clip-path:url(#SVGID_00000016057661053624399760000012291032429665910941_);}
	.st8{clip-path:url(#SVGID_00000003079003096631311180000013848361052100998072_);}
	.st9{clip-path:url(#SVGID_00000147905660363615061980000014893206559553504177_);}
	.st10{fill:#FEE8DA;}
	.st11{fill:url(#SVGID_00000174577759235179349740000005865184254793676985_);}
	.st12{fill:none;}
	.st13{fill:url(#SVGID_00000013160428607903035000000014471212498074162879_);}
	.st14{fill:url(#SVGID_00000150820228249637099900000012007827154362401213_);}
	.st15{fill:url(#SVGID_00000072242170862136316560000016907315591515742368_);}
	.st16{fill:url(#SVGID_00000085247169619705193210000015633532747991089809_);}
	.st17{fill:url(#SVGID_00000123434491135096183820000009160470788412302500_);}
	.st18{fill:url(#SVGID_00000027593885267979300550000007282474656040512923_);}
	.st19{fill:#FFF4ED;}
	.st20{fill:url(#SVGID_00000000216044152577665740000010514939234377234317_);}
	.st21{fill:url(#SVGID_00000052072200870447921270000017618862638347796371_);}
	.st22{fill:url(#SVGID_00000052811371365571344410000001708012209543723953_);}
	.st23{fill:url(#SVGID_00000088127298119732082420000014837701974561239713_);}
	.st24{fill:url(#SVGID_00000130648037365185700790000011980749126660977583_);}
	.st25{fill:url(#SVGID_00000004516720405836342150000017613250801482618764_);}
	.st26{fill:url(#SVGID_00000127730646754207052590000008873043244211174023_);}
	.st27{fill:url(#SVGID_00000063611303463610511260000011460527840173131681_);}
	.st28{fill:url(#SVGID_00000048461234692185220420000014054229760489313935_);}
	.st29{fill:url(#SVGID_00000096745430230002263150000007539261124100244411_);}
	.st30{fill:url(#SVGID_00000023973601680947471900000004359025519759659702_);}
	.st31{fill:url(#SVGID_00000009571956113369004180000015996239960282738316_);}
	.st32{fill:url(#SVGID_00000088817173410610927820000009675791615267749249_);}
	.st33{fill:url(#SVGID_00000011029733846386081130000000499066910597987726_);}
	.st34{fill:url(#SVGID_00000145744908007712640620000006459068754397524903_);}
	.st35{fill:url(#SVGID_00000053510705147420133900000015782246166255678596_);}
	.st36{fill:url(#SVGID_00000093178941988230071630000000116549970877527484_);}
	.st37{fill:url(#SVGID_00000065075140351057969770000002802604877798543030_);}
	.st38{fill:url(#SVGID_00000019637432833905351120000018406385921446528185_);}
	.st39{fill:url(#SVGID_00000112621957007953404060000006023393412870082712_);}
	.st40{fill:url(#SVGID_00000064343257785496666190000013916031409204500367_);}
	.st41{fill:url(#SVGID_00000127030494141292016100000004247137760901364620_);}
	.st42{fill:url(#SVGID_00000178187354769351147650000012279227746469706396_);}
	.st43{fill:url(#SVGID_00000154387674104313593530000010667942910022787503_);}
	.st44{fill:url(#SVGID_00000125567465762293433340000002698508565451500453_);}
	.st45{fill:url(#SVGID_00000108300313707039123240000001769844555730333630_);}
	.st46{fill:url(#SVGID_00000051353231726461721990000016727306997153032344_);}
	.st47{fill:#FFFFFF;}
</style>
<ellipse id="Ellipse_113_00000009575597099942375110000017391258910499305614_" class="st10" cx="75" cy="75" rx="70" ry="70"/>
<linearGradient id="SVGID_00000109717328847620041870000012700930759189333662_" gradientUnits="userSpaceOnUse" x1="40" y1="75" x2="110" y2="75">
	<stop  offset="0" style="stop-color:#FF6600"/>
	<stop  offset="0" style="stop-color:#FF5204"/>
	<stop  offset="1" style="stop-color:#FF270D"/>
</linearGradient>
<path style="fill:url(#SVGID_00000109717328847620041870000012700930759189333662_);" d="M88.1,80.6c1.4,0,2.7-0.6,3.8-1.7
	c1.2-1.1,1.7-2.5,1.7-4c0-1.5-0.6-2.7-1.7-3.8c-1.2-1.1-2.4-1.7-3.8-1.7c-1.5,0-2.7,0.6-3.9,1.7c-1.1,1.1-1.7,2.4-1.7,3.8
	c0,1.5,0.6,2.8,1.7,4C85.4,80,86.7,80.6,88.1,80.6z M78.6,91.1c-1.9,0-3.4-0.6-4.7-1.8C72.7,88,72,86.5,72,84.7V65.5
	c0-1.7,0.6-3.2,1.9-4.5c1.2-1.2,2.8-1.9,4.7-1.9h25c1.8,0,3.3,0.6,4.6,1.9c1.2,1.2,1.9,2.7,1.9,4.5v19.2c0,1.8-0.6,3.3-1.9,4.5
	c-1.2,1.2-2.8,1.8-4.6,1.8H78.6z M47.9,108.2c-2.1,0-3.9-0.8-5.5-2.4c-1.6-1.6-2.4-3.4-2.4-5.6V49.8c0-2.1,0.8-4,2.4-5.6
	c1.6-1.6,3.4-2.4,5.5-2.4h50.5c2.1,0,4,0.8,5.6,2.4c1.6,1.6,2.4,3.5,2.4,5.6v4.7H78.6c-3.2,0-5.9,1-8,3.1c-2.1,2.1-3.2,4.7-3.2,7.8
	v19.3c0,3.2,1.1,5.8,3.2,7.8c2.1,2,4.8,3,8,3h27.9v4.6c0,2.1-0.8,4-2.4,5.6c-1.6,1.6-3.5,2.4-5.6,2.4H47.9z"/>
</svg>
