<?xml version="1.0" encoding="UTF-8"?><svg id="Layer_1" xmlns="http://www.w3.org/2000/svg" xmlns:xlink="http://www.w3.org/1999/xlink" viewBox="0 0 150 150"><defs><style>.cls-1{fill:url(#linear-gradient-2);}.cls-2{fill:#fee8da;}.cls-3{fill:url(#linear-gradient-6);}.cls-4{fill:url(#linear-gradient-5);}.cls-5{fill:url(#linear-gradient-3);}.cls-6{fill:url(#linear-gradient);}.cls-7{fill:url(#linear-gradient-4);}</style><linearGradient id="linear-gradient" x1="84.96" y1="50.11" x2="101.55" y2="50.11" gradientUnits="userSpaceOnUse"><stop offset="0" stop-color="#f60"/><stop offset="0" stop-color="#ff5204"/><stop offset="1" stop-color="#ff270d"/></linearGradient><linearGradient id="linear-gradient-2" x1="78.32" y1="84.96" x2="108.19" y2="84.96" xlink:href="#linear-gradient"/><linearGradient id="linear-gradient-3" x1="61.72" y1="58.4" x2="75" y2="58.4" xlink:href="#linear-gradient"/><linearGradient id="linear-gradient-4" x1="58.4" y1="87.78" x2="75" y2="87.78" xlink:href="#linear-gradient"/><linearGradient id="linear-gradient-5" x1="41.81" y1="66.7" x2="51.77" y2="66.7" xlink:href="#linear-gradient"/><linearGradient id="linear-gradient-6" x1="41.81" y1="91.76" x2="51.77" y2="91.76" xlink:href="#linear-gradient"/></defs><circle id="Ellipse_113" class="cls-2" cx="75" cy="75" r="70"/><g><path class="cls-6" d="M101.55,50.11c0,4.58-3.72,8.3-8.3,8.3s-8.3-3.72-8.3-8.3,3.72-8.3,8.3-8.3,8.3,3.72,8.3,8.3"/><path class="cls-1" d="M81.64,108.19h23.23v-9.96h3.32v-33.19l-11.29-3.32-3.65,16.59-3.65-16.59-11.29,3.32v33.19h3.32v9.96Z"/><path class="cls-5" d="M75,58.4c0,3.67-2.97,6.64-6.64,6.64s-6.64-2.97-6.64-6.64,2.97-6.64,6.64-6.64,6.64,2.97,6.64,6.64"/><path class="cls-7" d="M61.72,108.19h13.28v-3.32h-3.32v-37.51l-13.28,4.32v29.87h3.32v6.64Z"/><path class="cls-4" d="M51.77,66.7c0,2.75-2.23,4.98-4.98,4.98s-4.98-2.23-4.98-4.98,2.23-4.98,4.98-4.98,4.98,2.23,4.98,4.98"/><path class="cls-3" d="M45.13,108.19h6.64v-32.86l-9.96,3.32v22.9h3.32v6.64Z"/></g></svg>