<?xml version="1.0" encoding="utf-8"?>
<!-- Generator: Adobe Illustrator 27.4.0, SVG Export Plug-In . SVG Version: 6.00 Build 0)  -->
<svg version="1.1" id="Layer_1" xmlns="http://www.w3.org/2000/svg" xmlns:xlink="http://www.w3.org/1999/xlink" x="0px" y="0px"
	 viewBox="0 0 150 150" style="enable-background:new 0 0 150 150;" xml:space="preserve">
<style type="text/css">
	.st0{fill:#FEE8DA;}
	.st1{fill:url(#SVGID_1_);}
	.st2{fill:url(#SVGID_00000077307001730587874900000009793165182810149252_);}
	.st3{fill:url(#SVGID_00000121269522186947560120000015602607953851432893_);}
	.st4{fill:url(#SVGID_00000003096329835660535720000001594093484958752959_);}
	.st5{fill:url(#SVGID_00000104679672657380224510000017627650280280461728_);}
	.st6{fill:url(#SVGID_00000091000420730797262700000011239261181508025511_);}
	.st7{fill:url(#SVGID_00000113335773337999256430000007342146513608774546_);}
	.st8{fill:url(#SVGID_00000096746505332394498490000006890054756732248981_);}
	.st9{fill:url(#SVGID_00000090991776876154516910000009132137488303344562_);}
	.st10{fill:url(#SVGID_00000149373475348115661200000016628415421091348914_);}
	.st11{fill:url(#SVGID_00000085961928667325427210000002999919583651480732_);}
	.st12{fill:url(#SVGID_00000165206161945886864610000011644709015281504657_);}
	.st13{fill:url(#SVGID_00000044859778648580479950000008221008583307101366_);}
	.st14{fill:url(#SVGID_00000073692376196709158650000004798134967697375912_);}
	.st15{fill:url(#SVGID_00000093170367244676890940000009568351345275110031_);}
	.st16{fill:url(#SVGID_00000048501136747798620390000001080557482797138598_);}
	.st17{fill:url(#SVGID_00000132800899032107165660000017391289833961769102_);}
	.st18{fill:url(#SVGID_00000080181789870298319360000000317820560423254665_);}
	.st19{fill:url(#SVGID_00000052104372360072922330000006031075515995845011_);}
	
		.st20{fill-rule:evenodd;clip-rule:evenodd;fill:url(#SVGID_00000055701171168416592940000002156312673171068831_);stroke:#FEE8DA;stroke-linecap:round;stroke-linejoin:round;stroke-miterlimit:10;}
	.st21{fill-rule:evenodd;clip-rule:evenodd;fill:url(#SVGID_00000136373831578246222600000000048087902966090163_);}
	.st22{fill:url(#SVGID_00000081636292220653880720000016339372098034125750_);}
	.st23{fill:url(#SVGID_00000094583455919838862490000009734223051962427035_);}
	.st24{fill:url(#SVGID_00000035504118983465899590000001988132291795262127_);}
	.st25{fill:url(#SVGID_00000060025401050707859660000009501227247330366858_);}
	.st26{fill:url(#SVGID_00000140004931125105797380000018209823616919851704_);}
	.st27{fill-rule:evenodd;clip-rule:evenodd;fill:url(#SVGID_00000075865943510176815080000016743949795369601194_);}
</style>
<ellipse id="Ellipse_113_00000039824038865834042300000009047309056456252565_" class="st0" cx="75" cy="75" rx="70" ry="70"/>
<g>
	<linearGradient id="SVGID_1_" gradientUnits="userSpaceOnUse" x1="16.7096" y1="36.1431" x2="129.3933" y2="113.7502">
		<stop  offset="0" style="stop-color:#FF6600"/>
		<stop  offset="0" style="stop-color:#FF5204"/>
		<stop  offset="1" style="stop-color:#FF270D"/>
	</linearGradient>
	<path class="st1" d="M61.4,100.8c-2.3,2.1-4.9,2.8-7.8,1.9c-3-1-5-3.6-5.2-6.8c-0.1-3.1,1.3-5.5,4-7.1c2.7-1.5,6-1.1,8.4,0.9
		c0.5,0.4,0.9,0.4,1.4,0.1c1.7-0.9,3.4-1.8,5.2-2.7c0.4-0.2,0.7-0.5,0.5-1c-0.1-0.3-0.1-0.7-0.1-0.9c0.4-1.2-0.3-1.7-1.3-2.2
		c-1.6-0.7-3.1-1.6-4.6-2.4c-0.4-0.2-0.6-0.2-1,0.1c-2.6,2.2-6,2.5-8.8,0.9c-2.8-1.6-4.2-4.8-3.7-8c0.5-3.1,3-5.5,6.3-6.1
		c2.3-0.4,4.3,0.2,6.1,1.7c0.5,0.4,0.8,0.4,1.3,0.1c1.7-0.9,3.4-1.8,5.1-2.7c0.6-0.3,0.8-0.7,0.7-1.3c-0.1-0.2-0.1-0.5,0-0.8
		c0.3-1.1-0.2-1.6-1.2-2c-1.6-0.7-3.1-1.6-4.6-2.4c-0.5-0.3-0.8-0.2-1.3,0.1c-2.3,1.9-4.9,2.4-7.6,1.3c-2.7-1.1-4.3-3.2-4.7-6.1
		c-0.4-3.1,1.2-6.1,3.9-7.5c2.7-1.5,6-1.2,8.4,0.8c0.6,0.5,0.9,0.5,1.5,0.2c1.6-0.9,3.3-1.8,5-2.6c0.5-0.3,0.7-0.5,0.6-1.1
		c-0.3-3.3,1.3-6.2,4.3-7.6c2.9-1.4,6.3-0.8,8.6,1.5c2.3,2.3,2.9,5.7,1.5,8.6c-0.3,0.5-0.2,0.8,0.2,1.3c2.6,2.8,5.2,5.7,7.8,8.6
		c0.4,0.4,0.7,0.4,1.2,0.3c4.1-1.5,8.6,0.8,9.9,4.9c1.2,4.2-1.3,8.5-5.5,9.5c-3.6,0.9-7.3-1-8.7-4.5c-0.3-0.6-0.5-0.8-1.2-0.8
		c-0.8,0.1-1.7,0-2.5,0c-0.5,0-0.6,0.2-0.9,0.6c-0.6,1-0.3,1.6,0.4,2.3c2.5,2.7,4.9,5.4,7.3,8.1c0.4,0.4,0.6,0.5,1.2,0.3
		c3-1,5.8-0.5,8.1,1.8c2.2,2.3,2.8,5.1,1.6,8.1c-1.2,3-3.6,4.6-6.9,4.7c-0.9,0-1.9-0.3-2.9-0.5c-0.3,0-0.8,0-0.9,0.2
		c-2.7,2.9-5.4,5.9-8.1,8.8c-0.4,0.4-0.2,0.7,0,1.1c2.4,5.2-1.4,11-7.1,10.8c-4.3-0.1-7.7-4-7.3-8.3c0.1-0.6,0-0.9-0.6-1.1
		C65.4,102.9,63.4,101.8,61.4,100.8z M70,49.6c-1.7,0.9-3.4,1.9-5.1,2.7c-1,0.5-1.7,1-1.3,2.2c0.1,0.2,0,0.5,0,0.8
		c-0.1,0.6,0,0.9,0.6,1.1c1.7,0.9,3.5,1.8,5.2,2.7c0.5,0.3,0.8,0.3,1.3-0.1c3.7-3,9.2-2.1,11.4,2.1c0.7,1.4,1.5,1.6,2.8,1.6
		c1.4,0,2.3-0.3,2.7-1.7c0-0.1,0-0.1,0-0.2c-2.8-3.1-5.6-6.2-8.4-9.3c-0.1-0.2-0.5-0.3-0.7-0.2C75.2,52.4,72.5,51.8,70,49.6z
		 M87.4,89.3c-0.2-1.8-1.2-2.2-2.6-2c-0.4,0.1-0.9,0-1.3,0c-0.5,0-0.8,0.1-1,0.6c-2,4.9-7.9,6.3-12,3c-0.4-0.3-0.7-0.4-1.1-0.1
		c-1.6,0.9-3.1,1.7-4.7,2.5c-0.9,0.4-1.4,0.9-1.1,2c0.1,0.3-0.1,0.7,0,1.1c0,0.3,0.2,0.7,0.4,0.8c1.9,1,3.7,2,5.6,3
		c0.2,0.1,0.6,0.1,0.8-0.1c2.4-2,5-2.4,8-1.4c0.2,0.1,0.6,0,0.7-0.1C81.8,95.5,84.7,92.4,87.4,89.3z M70,70.1
		c-1.8,0.9-3.4,1.9-5.2,2.7c-1,0.5-1.6,0.9-1.3,2.2c0.1,0.3,0,0.6-0.1,0.9c-0.1,0.5,0.1,0.8,0.5,1c1.7,0.9,3.5,1.8,5.2,2.7
		c0.6,0.3,0.9,0.3,1.4-0.1c3.6-3,9.2-2.1,11.3,2.1c0.7,1.4,1.5,1.7,2.9,1.6c1.9-0.1,1.9,0,2.7-1.8c-0.2-0.2-0.4-0.4-0.5-0.6
		c-2.4-2.7-4.9-5.4-7.3-8.1c-0.6-0.7-1.1-1.1-2-0.6c-0.4,0.2-0.9,0.2-1.3,0.3C73.9,72.5,71.8,71.8,70,70.1z"/>
	
		<linearGradient id="SVGID_00000167396047740697940970000010205425577676418471_" gradientUnits="userSpaceOnUse" x1="15.25" y1="38.2623" x2="127.9338" y2="115.8694">
		<stop  offset="0" style="stop-color:#FF6600"/>
		<stop  offset="0" style="stop-color:#FF5204"/>
		<stop  offset="1" style="stop-color:#FF270D"/>
	</linearGradient>
	<path style="fill:url(#SVGID_00000167396047740697940970000010205425577676418471_);" d="M38.5,56.6c-1.3,0-2.4,0-3.4,0
		c-1.4,0-2.3-0.9-2.3-2.1c0-1.2,0.9-2.1,2.3-2.2c1.1,0,2.2,0,3.2,0c0.1-0.1,0.1-0.2,0.2-0.3c-0.4-0.3-0.8-0.6-1.1-0.9
		c-0.9-0.9-0.8-2.2,0-3c0.8-0.8,2.1-0.9,3,0c1.6,1.6,3.3,3.2,4.9,4.9c0.8,0.9,0.9,2.1,0,2.9c-1.6,1.7-3.2,3.3-4.9,4.9
		c-0.9,0.8-2.1,0.8-3,0c-0.9-0.8-0.9-2.1,0-3C37.6,57.5,38,57.2,38.5,56.6z"/>
	
		<linearGradient id="SVGID_00000116232388309737165010000018099028951055249835_" gradientUnits="userSpaceOnUse" x1="-3.9008" y1="66.0688" x2="108.783" y2="143.6759">
		<stop  offset="0" style="stop-color:#FF6600"/>
		<stop  offset="0" style="stop-color:#FF5204"/>
		<stop  offset="1" style="stop-color:#FF270D"/>
	</linearGradient>
	<path style="fill:url(#SVGID_00000116232388309737165010000018099028951055249835_);" d="M38.2,97.7c-1.1,0-2.2,0-3.3,0
		c-1.1,0-1.9-0.7-2.1-1.7c-0.2-0.9,0.1-1.8,1-2.3c0.4-0.2,0.9-0.3,1.4-0.3c1,0,2.1,0,3.1,0c0.1-0.1,0.1-0.2,0.2-0.3
		c-0.3-0.3-0.7-0.5-1-0.8c-0.9-1-0.9-2.2-0.1-3.1c0.8-0.9,2.2-0.9,3.1,0c1.6,1.6,3.2,3.1,4.7,4.7c0.9,1,0.9,2.2,0,3.1
		c-1.6,1.6-3.1,3.2-4.7,4.7c-0.9,0.9-2.2,0.9-3.1,0c-0.9-0.9-0.8-2.1,0.1-3.1c0.3-0.3,0.6-0.6,1-0.8C38.3,97.8,38.3,97.7,38.2,97.7z
		"/>
	
		<linearGradient id="SVGID_00000013163324998383713790000013752922758236171424_" gradientUnits="userSpaceOnUse" x1="5.6756" y1="52.1641" x2="118.3594" y2="129.7712">
		<stop  offset="0" style="stop-color:#FF6600"/>
		<stop  offset="0" style="stop-color:#FF5204"/>
		<stop  offset="1" style="stop-color:#FF270D"/>
	</linearGradient>
	<path style="fill:url(#SVGID_00000013163324998383713790000013752922758236171424_);" d="M38.2,77.1c-1.2,0-2.5,0.1-3.7,0
		c-1-0.1-1.7-0.9-1.8-1.8c-0.1-0.9,0.4-1.9,1.3-2.2c0.4-0.1,0.8-0.2,1.3-0.2c1,0,2,0,3.2,0c-0.5-0.5-0.8-0.8-1.1-1.2
		c-0.9-0.9-0.9-2.2,0-3c0.8-0.9,2.1-0.9,3.1,0c1.6,1.6,3.2,3.1,4.7,4.7c0.9,1,0.9,2.2,0,3.1c-1.6,1.6-3.1,3.2-4.7,4.7
		c-0.9,0.9-2.2,0.9-3.1,0c-0.9-0.9-0.8-2.1,0.1-3.1c0.3-0.3,0.7-0.5,1-0.8C38.3,77.4,38.3,77.2,38.2,77.1z"/>
	
		<linearGradient id="SVGID_00000070076378342512517500000004656223005859315641_" gradientUnits="userSpaceOnUse" x1="23.8798" y1="25.7321" x2="136.5635" y2="103.3392">
		<stop  offset="0" style="stop-color:#FF6600"/>
		<stop  offset="0" style="stop-color:#FF5204"/>
		<stop  offset="1" style="stop-color:#FF270D"/>
	</linearGradient>
	<path style="fill:url(#SVGID_00000070076378342512517500000004656223005859315641_);" d="M109.7,87.4c-1,0-2.1,0-3.1,0
		c-1.5,0-2.4-0.9-2.4-2.1c0-1.3,0.9-2.1,2.4-2.2c1.1,0,2.1,0,3.2,0c0.1-0.1,0.1-0.2,0.2-0.2c-0.4-0.3-0.8-0.6-1.1-0.9
		c-0.9-0.9-0.9-2.2,0-3c0.9-0.9,2.1-0.9,3.1,0c1.6,1.6,3.2,3.2,4.8,4.8c0.9,0.9,0.9,2.1,0,3c-1.6,1.6-3.2,3.3-4.9,4.9
		c-0.9,0.9-2.2,0.8-3,0c-0.8-0.8-0.8-2.1,0-3c0.3-0.3,0.7-0.6,1.1-0.9C109.8,87.6,109.8,87.5,109.7,87.4z"/>
	
		<linearGradient id="SVGID_00000144296566554000317630000015358734974438970265_" gradientUnits="userSpaceOnUse" x1="33.453" y1="11.832" x2="146.1367" y2="89.4391">
		<stop  offset="0" style="stop-color:#FF6600"/>
		<stop  offset="0" style="stop-color:#FF5204"/>
		<stop  offset="1" style="stop-color:#FF270D"/>
	</linearGradient>
	<path style="fill:url(#SVGID_00000144296566554000317630000015358734974438970265_);" d="M109.7,66.9c-1.2,0-2.3,0-3.5,0
		c-1.2-0.1-2.1-1-2.1-2.2c0-1.2,0.9-2,2.1-2.1c0.8,0,1.6,0,2.4,0c0.3,0,0.7,0,1.3,0c-0.4-0.5-0.8-0.8-1.1-1.1c-0.9-1-1-2.3-0.1-3.1
		c0.9-0.8,2.1-0.8,3.1,0.1c1.6,1.5,3.1,3.1,4.7,4.7c1,1,1,2.2,0,3.2c-1.5,1.6-3.1,3.1-4.6,4.6c-1,1-2.3,1-3.1,0.1
		c-0.9-0.9-0.8-2.2,0.1-3.1c0.3-0.3,0.6-0.5,1-0.8C109.8,67.1,109.8,67,109.7,66.9z"/>
</g>
</svg>
