<?xml version="1.0" encoding="UTF-8"?><svg id="Layer_1" xmlns="http://www.w3.org/2000/svg" xmlns:xlink="http://www.w3.org/1999/xlink" viewBox="0 0 150 150"><defs><style>.cls-1{fill:url(#linear-gradient-2);}.cls-2{fill:#fee8da;}.cls-3{fill:url(#linear-gradient);}</style><linearGradient id="linear-gradient" x1="41.23" y1="75" x2="108.77" y2="75" gradientUnits="userSpaceOnUse"><stop offset="0" stop-color="#f60"/><stop offset="0" stop-color="#ff5204"/><stop offset="1" stop-color="#ff270d"/></linearGradient><linearGradient id="linear-gradient-2" x1="47.98" y1="80.06" x2="101.83" y2="80.06" xlink:href="#linear-gradient"/></defs><circle id="Ellipse_113" class="cls-2" cx="75" cy="75" r="70"/><g><path class="cls-3" d="M103.71,41.23H46.29c-1.34,0-2.63,.54-3.58,1.49-.95,.95-1.48,2.24-1.49,3.58v57.42c0,1.34,.54,2.63,1.49,3.58,.95,.95,2.24,1.48,3.58,1.49h57.42c1.34,0,2.63-.54,3.58-1.49,.95-.95,1.48-2.24,1.49-3.58V46.29c0-1.34-.54-2.63-1.49-3.58-.95-.95-2.24-1.48-3.58-1.49Zm-1.69,6.75c0,.45-.18,.88-.49,1.19s-.75,.49-1.19,.49h-10.13c-.93,0-1.69-.76-1.69-1.69s.76-1.69,1.69-1.69h10.13c.45,0,.88,.18,1.19,.49,.32,.32,.49,.75,.49,1.19h0Zm-40.53,0c0,.68-.41,1.3-1.04,1.56-.63,.26-1.36,.12-1.84-.37-.48-.48-.63-1.21-.37-1.84,.26-.63,.88-1.04,1.56-1.04,.45,0,.88,.18,1.19,.49,.32,.32,.49,.75,.49,1.19h0Zm-5.07,0c0,.68-.41,1.3-1.04,1.56-.63,.26-1.36,.12-1.84-.37-.48-.48-.63-1.21-.37-1.84,.26-.63,.88-1.04,1.56-1.04,.45,0,.88,.18,1.19,.49,.32,.32,.49,.75,.49,1.19h0Zm-5.07,0c0,.68-.41,1.3-1.04,1.56-.63,.26-1.36,.12-1.84-.37-.48-.48-.63-1.21-.37-1.84,.26-.63,.88-1.04,1.56-1.04,.45,0,.88,.18,1.19,.49,.32,.32,.49,.75,.49,1.19h0Zm52.35,57.42H46.29c-.93,0-1.69-.76-1.69-1.69V54.74h60.79v48.97c0,.45-.18,.88-.49,1.19s-.75,.49-1.19,.49h0Z"/><path class="cls-1" d="M93.78,83.22c1.87-3.92,1.98-8.46,.28-12.47-1.7-4-5.03-7.09-9.15-8.47-4.12-1.38-8.64-.94-12.41,1.23-.01,0-.03,.01-.04,.02-.04,.02-.07,.05-.11,.07-.46,.27-.91,.57-1.34,.89-.11,.08-.23,.17-.34,.25-.05,.04-.1,.07-.16,.11h-7.35c-.93,0-1.69,.76-1.69,1.69v11.82h-8.44c-.93,0-1.69,.76-1.69,1.69v15.2h-1.69c-.93,0-1.69,.76-1.69,1.69s.76,1.69,1.69,1.69h37.15c.93,0,1.69-.76,1.69-1.69s-.76-1.69-1.69-1.69h-1.69v-4.25c.22-.07,.44-.15,.66-.24,.27-.12,.54-.24,.81-.37l6.6,6.59h0c.95,.95,2.24,1.49,3.58,1.49s2.63-.53,3.58-1.49c.94-.95,1.47-2.24,1.47-3.58s-.53-2.63-1.47-3.58l-6.59-6.6Zm-25.48-7.66c.02-.17,.05-.34,.07-.51,.03-.2,.05-.4,.09-.6,.04-.2,.08-.35,.13-.53s.08-.39,.14-.58,.12-.34,.18-.51c.06-.17,.12-.38,.2-.56s.15-.33,.22-.49c.07-.16,.17-.37,.26-.55s.18-.31,.27-.47c.09-.16,.2-.36,.31-.53,.11-.17,.21-.3,.32-.44,.11-.15,.24-.34,.37-.51,.13-.17,.25-.28,.37-.42,.12-.14,.25-.29,.38-.42v16.52c-.13-.14-.25-.28-.38-.42-.13-.14-.26-.28-.37-.42s-.25-.34-.37-.51-.22-.3-.32-.45c-.1-.15-.21-.35-.31-.53-.1-.18-.19-.31-.28-.47-.08-.16-.17-.37-.26-.55-.09-.18-.16-.32-.22-.49-.07-.17-.13-.38-.2-.56-.06-.19-.13-.34-.18-.51-.05-.17-.09-.38-.14-.57s-.09-.35-.13-.53c-.03-.18-.06-.4-.09-.6-.03-.17-.06-.34-.07-.52-.02-.21-.02-.41-.03-.62-.02-.34-.02-.68,0-1.01,0-.22,0-.43,.03-.63h0Zm14.58,12.58s-.09,.02-.13,.03h0c-.61,.15-1.23,.24-1.86,.29h-.02c-.62,.04-1.24,.03-1.86-.03-.08,0-.16,0-.24-.02-.6-.07-1.19-.18-1.77-.34l-.21-.06c-.61-.17-1.2-.4-1.77-.66h-.02v-13.3h7.88v14.09Zm-2.82-23.28c3.14,0,6.14,1.25,8.36,3.46,2.22,2.22,3.46,5.22,3.46,8.36,0,2.07-.54,4.1-1.59,5.89l-.05,.1h0c-.97,1.67-2.34,3.06-3.99,4.05v-14.36c0-.45-.18-.88-.49-1.19s-.75-.49-1.19-.49h-9.57v-4.62c1.58-.77,3.31-1.18,5.07-1.19h0Z"/></g></svg>