<?xml version="1.0" encoding="UTF-8"?>
<svg id="Layer_1" data-name="Layer 1" xmlns="http://www.w3.org/2000/svg" xmlns:xlink="http://www.w3.org/1999/xlink" viewBox="0 0 150 150">
  <defs>
    <style>
      .cls-1 {
        fill: url(#linear-gradient-2);
      }

      .cls-2 {
        fill: #fee8da;
      }

      .cls-3 {
        fill: url(#linear-gradient);
      }
    </style>
    <linearGradient id="linear-gradient" x1="45.0261575" y1="67.7749661" x2="97.9012697" y2="67.7749661" gradientUnits="userSpaceOnUse">
      <stop offset="0" stop-color="#f60"/>
      <stop offset="0" stop-color="#ff5204"/>
      <stop offset="1" stop-color="#ff270d"/>
    </linearGradient>
    <linearGradient id="linear-gradient-2" x1="49.5376014" y1="85.8684754" x2="104.9738425" y2="85.8684754" xlink:href="#linear-gradient"/>
  </defs>
  <circle id="Ellipse_113" data-name="Ellipse 113" class="cls-2" cx="75" cy="75" r="70"/>
  <g>
    <path class="cls-3" d="m90.6247353,50.0072712c-1.9493559,1.7757274-4.1128782,3.2452229-6.4499098,4.3884635,1.08175,3.8882112,1.684151,8.2461502,1.7757274,12.7462141h11.9507168c-.26519-6.4499098-2.816891-12.4604962-7.2765381-17.135776l.0000037.0010983Zm-29.861233,5.3276713c-.622439,2.3471651-.9491475,4.2249695-1.1532885,6.245754h.5714005c1.3469064,0,2.5207936.8675947,2.9289805,2.1535099l1.061237,3.4088399h6.1742043v-9.7666852c-2.9590178-.1125627-6.5309856-.8170332-9.5825561-2.0414214l.0000224.0000028Zm-1.3879325,28.9015123c-1.9898938,1.0101985-3.8371727,2.2555869-5.5108232,3.7556088,2.8369141,2.5308042,5.960036,4.2863875,9.3994033,5.3987337-1.9188304-3.4083518-3.266225-7.2149991-3.8886994-9.1543425h.0001192Zm3.4393654-1.4795089c-.4798241.1631167-.9491475.3367341-1.418458.5308607.622439,1.9698689,2.2861123,6.7561408,4.6126433,10.3791471l.2651937-.1836298c-.744539-2.3171259-1.8467908-5.7259659-3.4593903-10.7264041l.0000112.0000261Zm-5.8480696-13.4104486h-11.9407081c.2651928,6.4499079,2.8063895,12.4604962,7.2560251,17.1247854,1.9388553-1.7452019,4.0823546-3.2046859,6.3888589-4.3474384-1.3263934-3.8371727-1.7752393-9.2359065-1.7041759-12.7767396v-.0006074Zm-4.684193-19.3397151c-4.4495145,4.6741815-6.9908202,10.6748775-7.2560251,17.135776h3.7761218c-.7860308-.5508874-1.3063676-1.4694965-1.3063676-2.5002806,0-1.6941634,1.3779191-3.0615829,3.061582-3.0615829h6.8276923c.2246428-2.2961266.6019259-4.4495135,1.357407-7.1844736-2.3476533-1.1537654-4.5110545-2.6232367-6.4604104-4.3889517v-.0004872Zm1.5920865-1.5000215c1.6736504,1.4799966,3.5209293,2.7348375,5.5108232,3.7455968,1.37792-4.1128792,3.2352114-7.378616,5.4087462-9.5625303-4.2349801,1.1022502-7.7964492,3.0310565-10.9195693,5.817055v-.0001216Zm24.187159-5.8680935c2.8369159,2.8679291,4.6026309,7.0723846,5.4597847,9.6135683,1.9898938-1.0101975,3.8371727-2.2555878,5.5108232-3.7455973-3.1936972-2.857428-6.7861781-4.7962833-10.9706078-5.8680935v.0001225Zm-16.6559165,10.5522879c2.7043135,1.10225,5.4702853,1.7962404,8.9401761,1.9388553v-13.2468316c-3.5209293.7349922-6.8582177,4.9398754-8.9401761,11.3077322v.0002441Zm11.1546177-11.2972316v13.2370642c3.5109169-.1430909,6.2762813-.8470817,8.9501885-1.9388553-1.7246889-5.2255938-4.8373103-10.4812241-8.9501885-11.2977198v-.0004891Zm9.5830442,13.4409741c-2.9595059,1.1838149-6.0621149,1.8878178-9.5830442,2.0209084v9.7871982h11.1751307c-.0815602-4.1642838-.6329265-8.1955999-1.5920865-11.8081066Zm3.7966348,14.0124109c-.0205093,1.020699-.0510348,2.0309199-.1225788,2.9900295h11.3993058l.4287874-.2961943c.1325875-.8776072.2041391-1.7757274.2346645-2.6942992l-11.940179.0004639Zm-13.3799213,0v2.9900295h11.0426475c.0715441-.9591712.1020695-1.9593683.1225788-2.9900314l-11.1652263.0000019Zm-7.7052398,0l.9286457,2.9900295h4.5616048v-2.9900314l-5.4902505.0000019Zm-5.6539262,2.2350757c.1120857,3.0515705.5508874,6.8276923,1.479997,9.6035573.4798241-.1941192.9591712-.3777601,1.4489834-.5408731-.8470817-2.6232376-1.8162653-5.6234007-2.9289805-9.0627661v.000082Z"/>
    <path class="cls-1" d="m103.9533759,74.3781931h-39.6757819l-3.1193361-10.0404381c-.1325913-.4264045-.5270413-.7173485-.9749108-.7173485l-9.6250466-.000477c-.5642442,0-1.020699.456453-1.020699,1.020699s.456453,1.020699,1.020699,1.020699h8.8738749c14.1039882,43.6233375,9.2392042,28.5779412,10.2913566,31.831959.1430919.418298.5308607.7039899.9696606.7039899h26.0858416c.0014309,0,.0023848-.000477.0033387-.000477h2.369994l-.6825229,3.0692739c-.1426186-.0176475-.2809297-.0534196-.4278335-.0534196-1.5458064,0-2.8421625,1.0283304-3.2805115,2.4315368h-18.5314032c-.437369-1.4051478-1.7347014-2.4348346-3.2819759-2.4348346-1.9035677,0-3.4521874,1.548739-3.4521874,3.4521837s1.548739,3.4521874,3.4521874,3.4521874c1.5448338,0,2.840821-1.0269033,3.2800233-2.4287272h18.5326217c.4383229,1.4036796,1.7347014,2.4320212,3.2805078,2.4320212,1.9035714,0,3.4521874-1.5487427,3.4521874-3.4521874,0-.9830154-.4182943-1.901127-1.1222879-2.5474121l1.0493204-4.7199706c.0667745-.3019197-.0071544-.6181407-.2003234-.8599634-.1946073-.2413457-.4864996-.3815683-.7965165-.3815683h-2.2359309l6.7336752-20.4410745c.2241639-.6691792-.3024004-1.336894-.9687066-1.336894l.0006856.0002422Zm-27.9039402,19.543625c-.4674175,0-.8752261-.3176594-.9896966-.771245l-3.3277641-13.2040943c-.1373646-.5461234.1931652-1.1012979.7402426-1.2387221.5461234-.1364107,1.1012979.1931652,1.2387221.7407195l3.3277641,13.2028758c.1631167.6443698-.3243256,1.2696165-.9892197,1.2696165l-.0000484.0008496Zm8.7097707-1.020699c0,.5637672-.4569281,1.020699-1.020699,1.020699-.5637672,0-1.020699-.4569281-1.020699-1.020699l.000477-13.2028758c0-.5642442.4564549-1.020699,1.020699-1.020699s1.020699.4564549,1.020699,1.020699l-.000477,13.2028758Zm10.9858743-12.9537869l-3.3277641,13.2040943c-.1144705.4535856-.5222679.771245-.9896966.771245-.6648828,0-1.1523364-.6252951-.9896966-1.2701046l3.3277641-13.2028758c.1373646-.5480313.6915963-.8790343,1.2387259-.7407195.5475506.1378416.8780842.6930272.7407195,1.239091l-.0000522-.0007303Zm-22.7964206,26.1273595c-.7783994,0-1.4113744-.6329265-1.4113744-1.4113781s.6329265-1.4113744,1.4113744-1.4113744,1.4113744.6329302,1.4113744,1.4113744-.6329265,1.4113781-1.4113744,1.4113781Zm25.0931565.0028618c-.7783994,0-1.4113781-.6329265-1.4113781-1.4113781s.6329265-1.4113744,1.4113781-1.4113744c.2504042,0,.4855532.0596201.6944544.1755177.4416654.2461116.7163946.7197258.7163946,1.2357896.000477.7783994-.6324495,1.4113781-1.4108862,1.4113781l.0000373.0000671Z"/>
  </g>
</svg>