<?xml version="1.0" encoding="UTF-8"?>
<svg id="Layer_1" data-name="Layer 1" xmlns="http://www.w3.org/2000/svg" xmlns:xlink="http://www.w3.org/1999/xlink" viewBox="0 0 150 150">
  <defs>
    <style>
      .cls-1 {
        fill: #fee8da;
      }

      .cls-2 {
        fill: url(#linear-gradient);
      }
    </style>
    <linearGradient id="linear-gradient" x1="24.2221456" y1="75" x2="125.7778544" y2="75" gradientUnits="userSpaceOnUse">
      <stop offset="0" stop-color="#f60"/>
      <stop offset="0" stop-color="#ff5204"/>
      <stop offset="1" stop-color="#ff270d"/>
    </linearGradient>
  </defs>
  <circle id="Ellipse_113" data-name="Ellipse 113" class="cls-1" cx="75" cy="75" r="70"/>
  <path class="cls-2" d="m42.0276609,44.0674567l-17.8055154,36.799225,9.802391,4.7002628c2.2816531,1.1271894,4.9978175.1756769,6.0983846-2.0968236l13.8035182-28.5514983c1.1005539-2.2816542.140545-5.0057968-2.1313511-6.1329132l-9.7678625-4.7179615.000435-.0002911Zm65.9615057.1399783l-10.6059836,5.1196842c-1.8248009.9033474-2.5983609,3.0852445-1.6950987,4.9100454l14.5731621,30.1937886c.9033508,1.8248009,3.0846678,2.5808061,4.9100443,1.6774022l10.6065636-5.1021293-17.7881033-36.7992238-.0005844.0004328Zm-51.6857566,11.6544673l-13.9258188,28.8489102,7.0413965,3.3900558c.7877345-2.0486573,2.8103208-3.4773917,5.1723487-3.4773917,2.3887211,0,4.4106853,1.5147686,5.224575,3.6168122.4743351-.1433786.9753212-.2272523,1.4853172-.2272523,2.4152725,0,4.4453567,1.5227469,5.2596847,3.6519218.5009706-.1161763.9758857-.2096841,1.4502208-.2096841,2.3257583,0,4.3303093,1.3946872,5.2070201,3.3894758.5638759-.1875867,1.1719598-.3320988,1.852074-.3320988,3.1135348,0,5.608745,2.4867936,5.608745,5.608745,0,1.0019413-.2771275,1.9817762-.7514626,2.7956659l4.1058729,1.9392683,1.4332194.6641842c1.9681397.9838064,4.3728173.1428119,5.2942144-1.852074.9843864-1.9948328.1428119-4.3800739-1.852074-5.3645754l-4.8578181-1.4326526.1048421-.3320988,4.753069,1.7647381c1.9948328.975319,4.3800739.1428119,5.3645754-1.852074.9464077-1.93709.1496036-4.2883814-1.782293-5.3117692l.1224102.0175681c1.3153429.5905158,2.7956659.395004,3.9142262-.4193638.5100381-.3666594.945841-.8682101,1.2229685-1.4853172.9571841-1.9415883.1558419-4.213522-1.6422925-5.224575l.157542.0351363c1.9053186.7066922,4.0667033-.1399783,4.9972386-1.9919328.9299863-1.9948328.1161763-4.4163436-1.852074-5.3468789l-1.4332194-.6987582-2.6907751-1.2932455-10.3442592-4.9796837-8.1074351-3.9313428-3.4070306,6.6923373c-1.404317,2.6749603-4.5937737,3.673975-7.2862889,2.3586897-1.3153429-.6709892-2.3127017-1.8185627-2.7956659-3.2500553-.4471328-1.3958162-.3037675-2.922032.3666594-4.2458756l3.3725009-6.2904685-.0527044-.0521377,1.6247377-3.09308c-3.1129548-2.0753504-12.3537468-2.0792687-12.3537468-2.0792687l-.0005003.0001461Zm18.0332868,2.0617139c-2.1654447-.1433786-4.2310769,1.0121554-5.2421298,2.9355225l-.4896408.9084401-2.1319333,4.1064529-1.2581092,2.341717c-.4204973.8053026-.5310153,1.7783769-.2448204,2.6907774,0,.0714059,0,.1031419.0351363.1745434.1076756.3133972.2414245.6058215.3842276.8563002.3485246.5905158.8772775,1.0501252,1.4677623,1.3629424.8767108.4204973,1.8230609.4953123,2.6907751.2448204.6262188-.179086,1.2292068-.4953123,1.7126536-.9787148.214789-.2414245.4154057-.5253438.593925-.8387277l.2793944-.559351,3.0749452-6.1329132c.4562002-.8500752,1.465004-1.2065338,2.3417148-.7860366l22.5757065,10.8859823c2.8272912,1.3601133,4.0247753,4.8080536,2.6556654,7.6710389v.0351363c-.6976248,1.3601133-1.8464158,2.3914794-3.2149412,2.8653053.4561958,1.332911.388199,2.7315431-.1399783,3.9840073l7.6359292-4.9100443-12.405973-25.5628752-20.3211815-1.2932455.0008722-.0010781Zm-42.1453766,17.7184683c1.2700047,0,2.2713526,1.0098797,2.2713526,2.2713537.0102008,1.2705725-1.0013768,2.2713537-2.2713526,2.2713537-1.2615034,0-2.2713526-1.001379-2.2713526-2.2713537,0-1.2615051,1.0098786-2.2713537,2.2713526-2.2713537Zm84.116657,2.2713537c1.2705725,0,2.2719293,1.001379,2.2719293,2.2713537,0,1.2615051-1.010442,2.2713537-2.2719293,2.2713537s-2.2713537-1.0098797-2.2713537-2.2713537c0-1.2705725,1.0098753-2.2713537,2.2713537-2.2713537Zm-24.8476402,4.3681773l4.5779589,1.7126536-4.7002628-1.3805105.1223039-.332143Zm-36.886272,4.0712016c-2.1381716,0-3.8791166,1.740945-3.8791166,3.8791166s1.740945,3.8615617,3.8791166,3.8615617c1.297208,0,2.3774045-.6585259,3.0755251-1.6422925-.1252438.3757269-.2272523.759401-.2272523,1.1708308,0,2.1381716,1.740945,3.8615617,3.8791166,3.8615617,1.3062755,0,2.4125142-.6755141,3.1101965-1.6774022-.1433786.4114298-.2623885.8194638-.2623885,1.2756773,0,2.1381716,1.7319484,3.8615617,3.8791166,3.8615617,1.5120103,0,2.7894276-.8880406,3.4245855-2.1489081-.1518837.4204973-.2618218.8625385-.2618218,1.3278062,0,2.1381716,1.740945,3.8791166,3.8791166,3.8791166s3.8615617-1.7319484,3.8615617-3.8791166c-.0175681-2.1381716-1.740945-3.8791166-3.8791166-3.8791166-1.5120103,0-2.7894276.9050465-3.4245855,2.1666047.1609512-.4114298.2618218-.8625385.2618218-1.3278062,0-2.1381716-1.7233901-3.8791166-3.8615617-3.8791166-1.3062755,0-2.430069.6845992-3.1277514,1.6774022.1433786-.4023624.2618218-.8018957.2618218-1.2581092,0-2.1381716-1.7233901-3.8791166-3.8615617-3.8791166-1.297208,0-2.3949594.6845992-3.0924978,1.6598474.1252438-.3757269.2272523-.7503336.2272523-1.1708308,0-2.129175-1.7233901-3.8791166-3.8615617-3.8791166l-.0000155-.000155Zm33.2868686,3.0404155l4.6124886,1.7471833-4.7349342-1.4326526.1224456-.3145306Z"/>
</svg>