<?xml version="1.0" encoding="UTF-8"?>
<svg id="Layer_1" data-name="Layer 1" xmlns="http://www.w3.org/2000/svg" xmlns:xlink="http://www.w3.org/1999/xlink" viewBox="0 0 150 150">
  <defs>
    <style>
      .cls-1 {
        fill: url(#linear-gradient-2);
      }

      .cls-2 {
        fill: #fee8da;
      }

      .cls-3 {
        fill: url(#linear-gradient-5);
      }

      .cls-4 {
        fill: url(#linear-gradient-3);
      }

      .cls-5 {
        fill: url(#linear-gradient);
      }

      .cls-6 {
        fill: url(#linear-gradient-4);
      }
    </style>
    <linearGradient id="linear-gradient" x1="54.9105625" y1="92.4145367" x2="61.4793795" y2="92.4145367" gradientUnits="userSpaceOnUse">
      <stop offset="0" stop-color="#f60"/>
      <stop offset="0" stop-color="#ff5204"/>
      <stop offset="1" stop-color="#ff270d"/>
    </linearGradient>
    <linearGradient id="linear-gradient-2" x1="47.6176187" y1="59.6656172" x2="68.7867456" y2="59.6656172" xlink:href="#linear-gradient"/>
    <linearGradient id="linear-gradient-3" x1="40.6755723" y1="91.9349131" x2="75.7155503" y2="91.9349131" xlink:href="#linear-gradient"/>
    <linearGradient id="linear-gradient-4" x1="73.1389925" y1="59.6669128" x2="109.3397369" y2="59.6669128" xlink:href="#linear-gradient"/>
    <linearGradient id="linear-gradient-5" x1="85.103627" y1="59.6737571" x2="97.4156918" y2="59.6737571" xlink:href="#linear-gradient"/>
  </defs>
  <circle id="Ellipse_113" data-name="Ellipse 113" class="cls-2" cx="75" cy="75" r="70"/>
  <g>
    <path class="cls-5" d="m56.5626676,80.0100759l-1.6521051,20.8332424,3.2910106,3.9756793,3.2778064-3.9756793-1.6521051-20.8332424h-3.2646068Z"/>
    <path class="cls-1" d="m58.2021845,71.8554654c5.8299611,0,10.5845611-6.1788952,10.5845611-13.7813174,0-6.7293923-3.8551711-10.598379-10.5845634-10.598379s-10.5845634,3.8551699-10.5845634,10.598379c0,7.6024198,4.7415527,13.7813174,10.5845634,13.7813174h.0000023Z"/>
    <path class="cls-4" d="m69.0455674,75.4249034h-21.6900024c-3.6900024,0-6.6799927,3-6.6799927,6.6799316v26.3400879h35.039978v-26.3400879c0-3.6799316-2.9899902-6.6799316-6.6699829-6.6799316Zm-6.3699951,26.0600586l-3.960022,4.8099365c-.1399536.1600342-.3299561.2399902-.5299683.2399902s-.3900146-.0899658-.5200195-.2399902l-3.9599609-4.8099365c-.1100464-.130127-.1600342-.3000488-.1500244-.4801025l1.710022-21.7299805c.0199585-.3499756.3199463-.6199951.6699829-.6199951h4.5100098c.3499756,0,.6399536.2700195.6699829.6199951l1.710022,21.7299805c.0299683.1800537-.0300293.3499756-.1500244.4801025Z"/>
    <path class="cls-6" d="m73.1389925,56.4903573v6.3803036h4.0837492c.5774678,0,1.0745905.3627966,1.2359037.9132796.2284751.6986061.5103059,1.3972122.8461154,2.0550765.2554598.5103082.1613132,1.1147653-.2416582,1.5177368l-2.8878869,2.8878846,4.4997726,4.4997726,2.8878869-2.8878869c.4029714-.4029714,1.0074286-.4971227,1.5045513-.2416582.6584312.3358095,1.3564259.617645,2.0819441.8461154.5504831.1882979.9000941.671619.9000941,1.2359037v4.0837492h6.380306v-4.0837492c0-.5774678.3627989-1.0745905.9132773-1.2359037.6986084-.2284751,1.3972122-.5103059,2.0550765-.8461154.5103059-.2554598,1.114763-.1613132,1.5177344.2416582l2.8878869,2.8878869,4.4997726-4.4997703-2.8878869-2.8878846c-.4029714-.4029714-.497118-1.0074286-.2416629-1.5045489.3358095-.671619.6314418-1.3702251.8461201-2.0688945.174501-.5372952.671619-.9132796,1.235899-.9132796h4.0837492v-6.3672563h-4.0837492c-.5504784,0-1.0476058-.3627966-1.2220974-.9000918v-.0131925c-.2284704-.7255931-.5241121-1.4235878-.8461201-2.0688945-.2554645-.5103082-.1613085-1.1147653.2416629-1.5177368l2.8878869-2.8878846-4.4997726-4.4997703-2.8878869,2.8878846c-.4029714.4029714-1.0074286.4971204-1.5045513.2416606-.671619-.3358095-1.3702275-.6314442-2.0688921-.8461177-.5504831-.1882991-.9132773-.6848057-.9132773-1.2359013l-.0005997-4.1095411h-6.380306v4.083751c0,.5774701-.3627989,1.0745905-.9132773,1.2359013-.6986084.2284727-1.3972122.5103082-2.0550765.8461177-.5103059.255461-1.1015799.1613108-1.5045513-.2284727l-2.8878869-2.8878846-4.4997726,4.4997703,2.8878869,2.8878846c.3897836.3897836.4971227,1.0074286.2416582,1.5045489-.3358095.644632-.617645,1.3432381-.8461154,2.0819417-.1744963.5504831-.671619.9132796-1.2359037.9132796l-4.1100031.0003279Zm18.1206669-4.6743158c4.3385813,0,7.8710698,3.5326384,7.8710698,7.8710674s-3.5326384,7.8710674-7.8710698,7.8710674c-4.3385813,0-7.8710698-3.5326384-7.8710698-7.8710674.0131925-4.3523992,3.5320247-7.8710674,7.8710698-7.8710674Z"/>
    <path class="cls-3" d="m91.2596594,65.8297872c3.3946993,0,6.1560323-2.761333,6.1560323-6.1560301,0-3.3946993-2.761333-6.1560301-6.1560323-6.1560301s-6.1560323,2.761333-6.1560323,6.1560301c-.0005655,3.3946993,2.7607543,6.1560301,6.1560323,6.1560301Z"/>
  </g>
</svg>