<?xml version="1.0" encoding="UTF-8"?>
<svg id="Layer_1" data-name="Layer 1" xmlns="http://www.w3.org/2000/svg" xmlns:xlink="http://www.w3.org/1999/xlink" viewBox="0 0 150 150">
  <defs>
    <style>
      .cls-1 {
        fill: url(#linear-gradient-2);
      }

      .cls-2 {
        fill: #fee8da;
      }

      .cls-3 {
        fill: url(#linear-gradient);
      }
    </style>
    <linearGradient id="linear-gradient" x1="58.2416732" y1="53.2009996" x2="91.7748029" y2="53.2009996" gradientUnits="userSpaceOnUse">
      <stop offset="0" stop-color="#f60"/>
      <stop offset="0" stop-color="#ff5204"/>
      <stop offset="1" stop-color="#ff270d"/>
    </linearGradient>
    <linearGradient id="linear-gradient-2" x1="38.8826745" y1="87.0729639" x2="111.1173255" y2="87.0729639" xlink:href="#linear-gradient"/>
  </defs>
  <circle id="Ellipse_113" data-name="Ellipse 113" class="cls-2" cx="75" cy="75" r="70"/>
  <g>
    <path class="cls-3" d="m75.0116922,60.5193845c4.4487669,0,9.6842508,3.1390314,12.4652597,6.6485721,2.6626438-2.9693873,4.297851-6.8769345,4.297851-11.1673482.0005189-9.242136-7.5250927-16.7665659-16.7665648-16.7665659-9.2421371,0-16.7665648,7.5250937-16.7665648,16.7665659,0,4.2557405,1.6086383,8.1357904,4.2334223,11.0962747,2.8401266-3.5790188,8.017555-6.5774986,12.5373953-6.5774986h-.0007987Zm-.0036325-14.461678c3.1333191,0,5.6797221,2.546403,5.6797221,5.6942025,0,3.1333201-2.546403,5.6797231-5.6797221,5.6797231-3.1472694,0-5.6942035-2.546403-5.6942035-5.6797221,0-3.1472684,2.5469341-5.6942025,5.6942035-5.6942035Z"/>
    <path class="cls-1" d="m109.6873032,92.9684897h-6.0366783l-.0005189-14.4324536c0-.7908482-.6398431-1.4307561-1.4307602-1.4307561h-25.7828652v-4.4005427c3.3683263-.2880113,6.452359-1.5827343,8.9619625-3.5729091-2.1878494-2.8940631-6.7274821-5.7518577-10.3870063-5.7518577-3.6968548,0-8.1550517,2.685493-10.4186247,5.632031-.0176437.0233519-.0446281.0332116-.0633097.0550068,2.5235538,2.0280366,5.639736,3.3461379,9.0455227,3.637206v4.4010738h-25.7841909c-.7908482,0-1.4307582.6398431-1.4307582,1.4307561v14.4324536h-6.0466445c-.7867038,0-1.4307571.6439986-1.4307571,1.4307561v14.9359433c0,.8012228.6440006,1.4307602,1.4307582,1.4307602h14.9359413c.8012248,0,1.4307582-.6294644,1.4307582-1.4307602l.0005189-14.9359392c0-.7867049-.6294665-1.4307561-1.4307582-1.4307561h-6.0284443v-13.0012961h24.3534347v13.0012961h-6.0357499c-.8012228,0-1.4307561.6439986-1.4307561,1.4307561v14.9359392c0,.8012228.6294685,1.4307602,1.4307561,1.4307602h14.9359392c.7867049,0,1.4307561-.6294644,1.4307561-1.4307602v-14.9359392c0-.7867049-.6434837-1.4307561-1.4307561-1.4307561h-6.0388068v-13.0012961h24.3521009v13.0012961h-6.0377446c-.7867049,0-1.4307561.6439986-1.4307561,1.4307561l-.0005189,14.9359392c0,.8012228.6439986,1.4307602,1.4307561,1.4307602h14.9359433c.7867008,0,1.4307602-.6294644,1.4307602-1.4307602l.0005189-14.9359392c0-.7867049-.6440026-1.4307561-1.4307602-1.4307561l.0007379-.0000122Z"/>
  </g>
</svg>