<?xml version="1.0" encoding="UTF-8"?>
<svg id="Layer_1" data-name="Layer 1" xmlns="http://www.w3.org/2000/svg" xmlns:xlink="http://www.w3.org/1999/xlink" viewBox="0 0 150 150">
  <defs>
    <style>
      .cls-1 {
        fill: url(#linear-gradient-2);
      }

      .cls-2 {
        fill: #fee8da;
      }

      .cls-3 {
        fill: url(#linear-gradient-3);
      }

      .cls-4 {
        fill: url(#linear-gradient);
      }

      .cls-5 {
        fill: url(#linear-gradient-4);
      }
    </style>
    <linearGradient id="linear-gradient" x1="41.2458626" y1="75" x2="108.7541374" y2="75" gradientUnits="userSpaceOnUse">
      <stop offset="0" stop-color="#f60"/>
      <stop offset="0" stop-color="#ff5204"/>
      <stop offset="1" stop-color="#ff270d"/>
    </linearGradient>
    <linearGradient id="linear-gradient-2" x1="61.7030083" y1="64.7690313" x2="88.3036512" y2="64.7690313" xlink:href="#linear-gradient"/>
    <linearGradient id="linear-gradient-3" x1="76.4161925" y1="78.1420812" x2="89.9222275" y2="78.1420812" xlink:href="#linear-gradient"/>
    <linearGradient id="linear-gradient-4" x1="60.7412924" y1="78.4297083" x2="74.2446569" y2="78.4297083" xlink:href="#linear-gradient"/>
  </defs>
  <circle id="Ellipse_113" data-name="Ellipse 113" class="cls-2" cx="75" cy="75" r="70"/>
  <g>
    <path class="cls-4" d="m76.4729688,37.3191491c1.8291829.5205323,3.460673,1.3482735,4.6524494,2.901486.6518338.849512,1.1443419,1.7745309,1.394003,2.8096878.1118598.4637906.3217041.7061146.7861293.8304166,5.5678781,1.4902149,10.3962264,4.2756151,14.4772209,8.3441034.3743009.3731551.7220498.3654038,1.1902368.2596804,4.7078833-1.0631191,8.9247669,1.7328279,9.6640631,6.484916.3935629,2.5297755-.4263456,4.7514305-2.2185082,6.5740909-.3697312.3760247-.4280963.6898821-.3027652,1.1587671,1.4807158,5.5396112,1.4932489,11.0837945-.0091889,16.6208425-.1343269.4950308.0023118.7835168.341195,1.1477759,2.1913008,2.3554028,2.9006828,5.1065547,1.7836426,8.1470902-1.1012257,2.9974732-3.3431886,4.6782967-6.5295966,5.093209-.9952958.1295956-1.954882-.0127755-2.9058675-.2521031-.410769-.1033802-.6944293-.0106522-.9858825.2786507-4.1060742,4.0757335-8.9399754,6.8963247-14.5373368,8.3872213-.433281.115406-.6241371.3670468-.7459848.7922073-1.0232573,3.5703781-3.9537242,5.7923607-7.5882357,5.7836343-3.5471501-.00852-6.4827141-2.287382-7.4711463-5.8353872-.1232056-.4422454-.3478072-.6451408-.7695068-.7587109-5.5388077-1.4917092-10.3550921-4.2507615-14.4269359-8.2918988-.3850485-.3821431-.7319759-.4317279-1.2428987-.3073215-5.1458654,1.2529562-9.9154864-2.5963778-9.7351446-7.8748991.0687239-2.0115144.8452556-3.7696015,2.2872408-5.1872657.3751488-.3688244.4289189-.6997038.3040227-1.1690355-1.4742848-5.5400646-1.498924-11.0832625.0120545-16.6209817.1243502-.4557437.0185236-.750559-.3080829-1.1018765-2.2507696-2.4210939-2.9756129-5.2321169-1.7525593-8.3423454,1.2561324-3.1943456,3.7612114-4.7857585,7.1498819-5.001316.6560456-.0417325,1.3317684.0437772,1.9591701.2532545.5907248.1972304.9869003.0593033,1.4273165-.3774387,3.5763731-3.5465272,7.7551433-6.1621362,12.5597475-7.6548335,1.5555935-.4832934,2.5511159-1.0646201,3.1154222-2.738031.6753446-2.00269,2.3634627-3.2553553,4.3720167-3.9801722.3676887-.1326868.7411569-.2493552,1.1119587-.3734173.9806237.0000001,1.9612473.0000001,2.9418688.0000001Zm-19.5666391,52.6193781c-.0797796,1.4127982-.3545227,2.7774256-1.1406901,3.9789879-.2888484.4414644-.226909.6964943.1453585,1.0512234,3.2386951,3.0860354,7.0174227,5.2237563,11.284001,6.5319084.5131953.1573507.7819546.0383535,1.0456235-.4419671.72409-1.3190692,1.7724696-2.3338918,3.112758-3.0359479,3.7848617-1.9825518,8.1676652-.6991023,10.4385953,3.0718145.2209005.3668179.3840688.6125781.9005747.4555327,4.2949506-1.3059436,8.0973842-3.4502542,11.3569754-6.5500527.3768237-.3583517.4711766-.6318895.175257-1.1197515-1.0334831-1.7038248-1.3494728-3.5589582-.9291558-5.5113085.7925664-3.6814837,3.8612297-6.1874544,7.6262166-6.2107161.6058267-.0037483.8482248-.1987252.9839163-.7886072.9721059-4.2260589.9668583-8.4423477.0181218-12.6715264-.1488307-.6634624-.3976748-.9017014-1.1127488-.9132223-2.589402-.0417179-4.7209371-1.1150561-6.2029367-3.2407511-1.9013739-2.7272146-1.9896847-5.5997877-.3787001-8.5154725.1609508-.2913106.4100732-.5357342.0375499-.8930165-3.3184231-3.1826609-7.1828579-5.4142903-11.5869301-6.7229294-.3847511-.1143265-.625394-.0445067-.8319703.3375399-.4569602.8450904-1.0379631,1.6033153-1.7851105,2.2222363-3.8112633,3.1571592-9.2126064,2.2317674-11.800976-2.0449132-.2843-.4697435-.5273893-.6543936-1.0941084-.4802622-4.2435568,1.3038977-7.9946931,3.4406276-11.2164201,6.5047054-.3784274.3599105-.473852.6406283-.1665148,1.1203889.7866702,1.2280111,1.1578985,2.617193,1.1028821,4.0573086-.1684608,4.4097664-3.483506,7.6141122-7.8836144,7.6649763-.5489755.0063474-.7703215.1931432-.8917158.7172242-.9897385,4.2729302-.9964864,8.5385411-.0147473,12.8146606.1394162.6072497.3744143.8310995,1.025504.8344527,4.2948148.022126,7.7524892,3.5000454,7.783005,7.7774847Z"/>
    <path class="cls-1" d="m75.014792,72.4689459c-.2065427-.0976523-.4109261-.1772456-.5987342-.2855793-4.0742252-2.3501642-8.1474561-4.7020589-12.2184739-7.0577715-.6596423-.3817099-.6583001-.4577906-.0027764-.8369104,4.0291406-2.3302311,8.0649853-4.6489503,12.0846565-6.9953842.5374692-.3137407.9564171-.2893209,1.4830141.0178727,3.9779869,2.3205821,7.971106,4.615216,11.9586319,6.9194584.7770123.4490058.7790144.4978903-.0077659.9530571-4.0288196,2.3307541-8.0596098,4.6580943-12.0911138,6.9841978-.1888181.1089442-.391094.1945662-.6074383.3010594Z"/>
    <path class="cls-3" d="m76.4260456,81.8971486c0-2.327935.0123625-4.6559822-.0097545-6.9837063-.0047987-.5044755.1650133-.8014949.6041748-1.0531312,4.0387267-2.3141899,8.0649966-4.6501085,12.0981794-6.9739945.7317279-.4216165.7914487-.3820892.7918796.4741461.0023342,4.6558678-.0069399,9.311767.0116847,13.9675607.0021547.5389955-.1910715.8474437-.6470307,1.1089062-4.037968,2.3155276-8.0653063,4.6495945-12.0974522,6.975276-.6908921.3985008-.7491944.3632267-.750541-.4577412-.003865-2.3524356-.0013601-4.7048757-.0011402-7.0573158Z"/>
    <path class="cls-5" d="m74.2364485,82.2341278c0,2.3524581.0031714,4.7049251-.0018337,7.0573697-.0016048.7543297-.0778943.7976883-.7246668.4245905-4.0532865-2.3381967-8.1021111-4.6841548-12.1604365-7.0135622-.4331576-.2486287-.609979-.5480092-.6082059-1.0554385.0163532-4.6803527.0078713-9.3607861.0110697-14.0411927.0005477-.800743.0712753-.8451656.7683284-.4437515,4.0549834,2.3351487,8.1033051,4.6818901,12.1622679,7.0100855.4164902.2388967.5652737.5335324.5616197,1.0045923-.0182475,2.3523189-.0083449,4.7048488-.0081429,7.0573069Z"/>
  </g>
</svg>