<?xml version="1.0" encoding="UTF-8"?>
<svg id="Layer_1" data-name="Layer 1" xmlns="http://www.w3.org/2000/svg" xmlns:xlink="http://www.w3.org/1999/xlink" viewBox="0 0 150 150">
  <defs>
    <style>
      .cls-1 {
        fill: url(#linear-gradient-2);
      }

      .cls-2 {
        fill: #fee8da;
      }

      .cls-3 {
        fill: url(#linear-gradient-3);
      }

      .cls-4 {
        fill: url(#linear-gradient);
      }
    </style>
    <linearGradient id="linear-gradient" x1="40.9270991" y1="84.7628041" x2="85.685834" y2="84.7628041" gradientUnits="userSpaceOnUse">
      <stop offset="0" stop-color="#f60"/>
      <stop offset="0" stop-color="#ff5204"/>
      <stop offset="1" stop-color="#ff270d"/>
    </linearGradient>
    <linearGradient id="linear-gradient-2" x1="48.6022931" y1="49.2951147" x2="63.8513421" y2="49.2951147" xlink:href="#linear-gradient"/>
    <linearGradient id="linear-gradient-3" x1="68.4695425" y1="90.5253696" x2="109.0729009" y2="90.5253696" xlink:href="#linear-gradient"/>
  </defs>
  <circle id="Ellipse_113" data-name="Ellipse 113" class="cls-2" cx="75" cy="75" r="70"/>
  <g>
    <path class="cls-4" d="m81.8499546,59.9824269h-20.0657436l-1.6990738,3.6378376-1.5287224,3.2794479-1.0789216-2.4996933c.6863091-.3841525,1.1743395-1.092332,1.1743395-1.9386377,0-1.2394404-1.0058576-2.247282-2.247282-2.247282l-.3563281-.000497c-1.2394404,0-2.247282,1.0083502-2.247282,2.247282,0,.8463309.4880188,1.5564556,1.1743395,1.9386377l-1.0774327,2.5022383-1.5326652-3.2839012-1.6990738-3.6352945h-5.9024475c-2.1200582,0-3.8365618,1.7204473-3.8365618,3.8365627v20.5161131c0,2.1200582,1.7165036,3.8365627,3.8365618,3.8365627,1.0491006,0,2.0012304-.420932,2.6946019-1.1117215l.3195486,5.7578958.7837245,13.9551868c.0859755,1.526686,1.4028983,2.7700459,2.9271655,2.7700459h9.4756327c1.524141,0,2.8411628-1.2434064,2.925131-2.7676309l.8850963-15.8228279,1.3040443-23.2946851h15.7706656c2.1180237,0,3.8365627-1.7204473,3.8365627-3.8365627,0-2.1161135-1.718539-3.8391058-3.8365627-3.8391058l.0006833.0000291Z"/>
    <path class="cls-1" d="m56.2258013,58.1338628c4.2122551,0,7.6255408-5.5162985,7.6255408-10.3955867s-3.4131614-7.2820378-7.6255427-7.2820378c-4.2078018,0-7.6235063,2.3984237-7.6235063,7.2801295.000497,4.8811975,3.4136701,10.3976231,7.6235063,10.3976231l.0000019-.0001281Z"/>
    <path class="cls-3" d="m107.0364576,71.5114503l-13.4539207-.0044727.0044727,13.2630868-4.8186028-3.1626585-4.8146581,3.1562949.0019879-13.2567233h-13.4526472c-1.1206631,0-2.0335469.9238618-2.0335469,2.0381264v33.958588c0,1.118186.9154153,2.0360939,2.0335469,2.0360939l36.5297806.0039757c1.1246311,0,2.0400308-.9238637,2.0400308-2.0400308v-33.953498c0-1.1186791-.9154153-2.0381264-2.0360939-2.0381264l-.0003494-.0006562Zm-26.4561982,20.4754064l2.0335469-2.9425598,2.0316367,2.9425598,2.0335469,2.9490476-2.0077201.000497v5.5699875h-4.114927v-5.5699875h-2.0097546l2.0336712-2.9495446Zm18.4054702,13.8266856h-20.4385085v-3.2040039h20.4385085v3.2040039Zm-2.0082248-10.8766207v5.5699875h-4.1128925v-5.5699875h-2.0097546l2.0316367-2.9490476,2.0316367-2.9425598,2.0316367,2.9425598,2.0335469,2.9490476h-2.0058099Z"/>
  </g>
</svg>