<?xml version="1.0" encoding="UTF-8"?>
<svg id="Layer_1" data-name="Layer 1" xmlns="http://www.w3.org/2000/svg" xmlns:xlink="http://www.w3.org/1999/xlink" viewBox="0 0 150 150">
  <defs>
    <style>
      .cls-1 {
        fill: url(#linear-gradient-2);
      }

      .cls-2 {
        fill: #fee8da;
      }

      .cls-3 {
        fill: url(#linear-gradient-3);
      }

      .cls-4 {
        fill: url(#linear-gradient);
      }

      .cls-5 {
        fill: url(#linear-gradient-4);
      }
    </style>
    <linearGradient id="linear-gradient" x1="52.4419588" y1="95.3103067" x2="115.3952012" y2="95.3103067" gradientUnits="userSpaceOnUse">
      <stop offset="0" stop-color="#f60"/>
      <stop offset="0" stop-color="#ff5204"/>
      <stop offset="1" stop-color="#ff270d"/>
    </linearGradient>
    <linearGradient id="linear-gradient-2" x1="51.2282756" y1="60.6993111" x2="107.0881174" y2="60.6993111" xlink:href="#linear-gradient"/>
    <linearGradient id="linear-gradient-3" x1="34.6047988" y1="95.3351298" x2="49.9971123" y2="95.3351298" xlink:href="#linear-gradient"/>
    <linearGradient id="linear-gradient-4" x1="62.3831501" y1="60.6754285" x2="72.2312463" y2="60.6754285" xlink:href="#linear-gradient"/>
  </defs>
  <circle id="Ellipse_113" data-name="Ellipse 113" class="cls-2" cx="75" cy="75" r="70"/>
  <g>
    <path class="cls-4" d="m115.3952012,90.2939989c-.2993395.7364268-.9230124,1.1000479-1.5922613,1.4402725-10.1358454,5.1527888-20.2677119,10.3134005-30.3998912,15.4733868-1.0295118.5242988-2.0523843,1.0616358-3.0830652,1.5835916-1.6058239.8132174-3.176969.7643891-4.71523-.1942209-3.6998269-2.3056427-7.416411-4.5847663-11.0977462-6.9195068-1.2802251-.8119376-2.554179-1.0725571-4.0341723-.6389098-2.3415025.6860782-4.7112175,1.2763666-7.0716723,1.8969989-.8780535.2308674-.9440768.1774733-.9447973-.7418826-.0039499-5.0431189.0077459-10.086281-.0143805-15.1293036-.0027159-.6192467.2057797-.9510421.7710285-1.1932445,3.2821971-1.4063588,6.5485643-2.8496094,9.8277845-4.2629877,1.1714453-.5049051,2.3525441-.4422737,3.5201164.0581378,4.9468576,2.1201684,9.8953196,4.2365986,14.8426102,6.3557518,1.9788845.8476507,3.9500711,1.7137425,5.9384961,2.5383238.5237263.2171893.7913171.5635866.8983072,1.0896559.2859309,1.4060413-.0666872,2.624323-1.1610291,3.5537535-1.0215398.8675929-2.1547316,1.0593168-3.4414133.4907219-3.073746-1.3583003-6.1734577-2.6578566-9.2633836-3.9794912-.2167058-.0926962-.4328005-.1992437-.6601582-.2522914-.7112308-.1659651-1.3344274.1375072-1.5577101.7345937-.241079.6446783.0323164,1.2989212.7397681,1.6133581,1.4874073.661118,2.9883747,1.2917767,4.4846585,1.9328804,1.7616807.7548198,3.5868878,1.3899288,5.272413,2.2875095,2.8029654,1.4926418,6.287169-.3572656,7.334001-2.4360486.339782-.6747287.8258418-1.0019921,1.5128823-1.2244303,6.9180153-2.2397782,13.8289872-4.5013123,20.7413254-6.7586223,1.5871711-.5183089,2.357959-.212585,3.1535195,1.2631408v1.418863Z"/>
    <path class="cls-1" d="m87.1471454,53.2157039c0-1.6551248-.0050709-3.3102689.0012413-4.9653696.0085398-2.2399405,1.1573005-3.3776609,3.4172662-3.3861081,1.5762835-.0058912,3.1528748-.0176617,4.7287782.0074705.5163412.0082343.789816-.1471174.9937506-.6552598,1.0717007-2.6704396,3.7763168-4.0723986,6.5036174-3.4190662,2.6847124.6431316,4.5059599,3.1670599,4.2769159,5.9270492-.2262342,2.7261159-2.4278023,4.8778887-5.2363775,5.1179441-2.2674615.1938072-4.6250933-1.2572279-5.4947406-3.4660115-.2327774-.5912338-.5147968-.8050998-1.1426843-.7870328-1.496255.0430525-2.9950165.0350443-4.4918729.0042518-.6123715-.012598-.8296811.1968719-.8257408.8173429.0215202,3.3889286.0194322,6.7781122.0014433,10.1670793-.0030551.5759584.1878365.7919906.7745166.7808697,1.5232166-.0288692,3.048093-.0368437,4.5707419.0044792.5987608.0162472.8598566-.20106,1.0842626-.7480697,1.0462353-2.5503373,3.6418839-3.9373216,6.2400199-3.3939033,2.7140363.5676568,4.5597292,2.8378799,4.5295681,5.5714205-.0284194,2.5754538-1.9476939,4.880358-4.4833619,5.3841782-2.5774577.5121242-5.2192595-.8100974-6.1994042-3.2129515-.2964913-.7268598-.6787316-.9198707-1.400725-.8958704-1.4433709.0479815-2.8897007.0312387-4.3342503.0074092-.5793382-.0095525-.783576.2113895-.7806845.7877833.0170122,3.3889791.0178445,6.7781339-.0000481,10.1671009-.0032475.6153785.2218994.833797.8344393.8219087,1.5231925-.0295572,3.0477755-.0302476,4.5708718.0016622.5333822.0111715.7851107-.1762008.979043-.6737833,1.0134667-2.6003178,3.6930985-4.0694908,6.3320618-3.5138932,2.690837.5665166,4.5488416,2.9278674,4.4837757,5.6984659-.0596052,2.5377561-1.9301284,4.7287686-4.5053681,5.2772867-2.4651031.5250638-5.0792746-.732039-6.1039801-3.1069333-.3884515-.900299-.8656492-1.1237284-1.7635282-1.079182-1.4676046.0728166-2.9414878.0240701-4.4126863.0182727-1.9598949-.0077219-3.1341643-1.1658114-3.1424443-3.1397019-.0143276-3.4152768-.0276977-6.8309265.0122107-10.245792.0094539-.808921-.2537107-1.1064035-1.0396104-1.0131082-.3367846.0399758-.682441-.0002454-1.0237625.0082319-.4711838.0117031-.9760167-.0655229-1.4043862.079112-.5196897.1754671-.2464891.789128-.4127285,1.1857151-.2154332.5139452-.5903894.7914494-1.1010727.9167988-.6881229.1689095-1.3819759.3144345-2.0704982.481802-.9966132.2422601-1.3465611,1.0929034-.8066117,1.9663394.3728874.6032039.7595347,1.1979835,1.1452005,1.7931793.4331614.6684911.3736091,1.293819-.1736485,1.8618944-1.0023096,1.0404331-2.0021127,2.0838106-3.0267412,3.1020331-.6364705.6324869-1.2231939.687014-1.995507.2324719-.6110268-.3596231-1.2014884-.7540332-1.8094866-1.1189942-.808743-.4854705-1.6930306-.109706-1.9108694.8157456-.1563043.6640312-.2715047,1.3377784-.4294231,2.0013838-.2207495.9276311-.6488039,1.3175259-1.5865528,1.3417163-1.4440565.0372334-2.8897055.0337309-4.3343585.0179792-.7388732-.008049-1.2426237-.3852136-1.4273402-1.1211737-.1916421-.7635327-.3551511-1.5342245-.5525113-2.296208-.1962272-.7576223-1.1242359-1.1400646-1.7857172-.7364075-.6276662.3830221-1.2349547.7993613-1.861103,1.184979-.7939584.4889682-1.3293397.4433057-1.9865294-.1848681-.9873759-.9437821-1.969012-1.8939486-2.9362484-2.8582911-.7716564-.7693494-.8219364-1.2975476-.2515192-2.2470021.3110811-.5177965.6414044-1.023991.9592668-1.5377558.5868244-.9484874.2324863-1.8057412-.8449661-2.0470511-.6658606-.1491285-1.3322011-.2961377-1.9984995-.4433081-.727531-.1606969-1.1951906-.6050875-1.2190852-1.3496932-.0496774-1.5480926-.0671214-3.0988553-.0347461-4.6472029.0145272-.6947262.4385017-1.1662468,1.1400971-1.3321638.7151327-.1691164,1.4348407-.3193611,2.1480574-.4959925.9268758-.2295419,1.2971555-1.1332183.7973238-1.9354736-.3750067-.6019121-.7554188-1.2007944-1.148027-1.7913174-.4598091-.6915978-.4132372-1.339745.1611179-1.9291397,1.0267262-1.0536144,2.0624492-2.0986109,3.1047177-3.1368646.5589823-.5568293,1.1854818-.6201836,1.8589163-.1938889.5770313.3652666,1.1565933.7267107,1.7400017,1.0816838.9525047.5795451,1.8027101.2250976,2.0518863-.8601465.1526791-.6649717.2700373-1.3381898.4287929-2.0015931.1886472-.7883233.675525-1.208141,1.5185786-1.2019359,1.4448335.0106338,2.8899123.0041544,4.3347579-.0091893.8011342-.0073983,1.2895756.37212,1.4793366,1.1376987.1704587.6876996.3151585,1.3817859.4858217,2.0694313.2527701,1.0184751,1.1244645,1.3608647,2.0268419.7966442.5790207-.3620383,1.1498865-.7372134,1.7218974-1.1103462.696783-.4545228,1.3481681-.37502,1.9314899.1919019,1.0361271,1.0069921,2.0615687,2.0250991,3.0836618,3.0463766.5801128.5796438.6516449,1.2318888.2186904,1.931241-.3871332.6253339-.7862028,1.243355-1.1679139,1.8719461-.4343401.715253-.0653449,1.6355326.7465109,1.8357218.7131168.1758472,1.4359617.3118389,2.152658.4736375.7873383.1777452,1.2770354.6332976,1.2304731,1.4822978-.0426844.7784184.3152548,1.0133801,1.0435315.9622352.6797275-.0477337,1.3668786-.0382101,2.0480446-.0023623.5904616.0310752.7806219-.2092726.7728904-.7824381-.0241038-1.786155-.0088381-3.5728465-.0077267-5.3593286Zm-27.0730215,7.4449458c-.0199253,4.0455723,3.1372651,7.2524786,7.1925101,7.305774,3.9466817.0518689,7.2413504-3.1923935,7.2685935-7.1573936.0282823-4.1158341-3.1310154-7.3479533-7.1992457-7.365188-4.0486009-.0171517-7.2418604,3.1562992-7.2618579,7.2168076Z"/>
    <path class="cls-3" d="m34.6228498,95.3265525c0-3.9390825.021708-7.8783766-.0178659-11.8170646-.0081554-.8116778.2517599-1.0170895,1.0325546-1.011268,4.4377842.0330525,8.8760748.0335048,13.3138464-.000356.7887612-.0060187,1.0477917.2220004,1.0454054,1.0211404-.0235229,7.878088-.0238127,15.7563059.0003055,23.6343938.0024753.808031-.2741712,1.0236278-1.053594,1.0180613-4.4378077-.0316862-8.8760952-.0331776-13.3138667.0009382-.7976793.0061294-1.0308328-.2346056-1.0234654-1.0287565.0365401-3.9387457.0166606-7.8780062.0166801-11.8170887Zm11.2245186-8.8374486c-.009247-.7780239-.5526545-1.340528-1.264625-1.3090679-.6579192.0290737-1.1863261.6208295-1.188167,1.3306026-.0019106.7364653.5773927,1.3638861,1.2488102,1.3525414.7078991-.0119653,1.2133154-.5887873,1.2039818-1.374076Z"/>
    <path class="cls-5" d="m67.2723183,65.5940097c-2.7217654-.0078373-4.8963574-2.2003701-4.8891503-4.9294893.0070652-2.675487,2.2932564-4.9421475,4.9495783-4.907298,2.6903246.0352945,4.906355,2.2836245,4.8984791,4.9698668-.0079384,2.7070048-2.2167232,4.874818-4.9589071,4.8669205Z"/>
  </g>
</svg>