<?xml version="1.0" encoding="UTF-8"?>
<svg id="Layer_1" data-name="Layer 1" xmlns="http://www.w3.org/2000/svg" version="1.1" viewBox="0 0 200 200">
  <defs>
    <style>
      .cls-1 {
        fill: #000;
        stroke-width: 0px;
      }
    </style>
  </defs>
  <path class="cls-1" d="M96.3,196.3c-13.3,0-25.8-2.5-37.5-7.6-11.7-5.1-21.9-11.9-30.6-20.6-8.7-8.7-15.6-18.9-20.6-30.6C2.5,125.8,0,113.3,0,100s2.5-25.8,7.6-37.5c5.1-11.7,11.9-21.9,20.6-30.6,8.7-8.7,18.9-15.6,30.6-20.6,11.7-5.1,24.2-7.6,37.5-7.6,24.1,0,45.1,7.8,63,23.3,17.8,15.5,28.5,34.9,32,58h-14.8c-2.5-13.7-8.1-26-16.8-36.8-8.7-10.8-19.6-18.9-32.8-24.2v4.3c0,5.6-2,10.5-6,14.5-4,4-8.8,6-14.5,6h-20.3v20.3c0,2.9-1,5.4-3,7.4-2,2-4.5,3-7.4,3h-20.5v20.5h20.5v30.9h-10l-49.3-49.3c-.5,3.1-1,6.2-1.4,9.2-.4,3.1-.6,6.1-.6,9.2,0,22.4,7.8,41.6,23.5,57.6,15.7,15.9,35.1,24,58.3,24.2,0,0,0,14.5,0,14.5ZM189.7,193.4l-34-33.8c-3.4,2.3-7.1,4.1-11,5.3-3.9,1.3-7.9,1.9-12.2,1.9-11.4,0-21-4-28.9-11.9-7.9-7.9-11.9-17.6-11.9-29s4-21,11.9-29c7.9-8,17.6-11.9,29-11.9s21,4,29,11.9c8,8,11.9,17.6,11.9,29s-.7,8.5-2,12.4c-1.3,4-3.2,7.6-5.5,11l34,33.7s-10.3,10.3-10.3,10.3ZM132.5,152.3c7.4,0,13.6-2.6,18.7-7.7,5.1-5.1,7.7-11.3,7.7-18.7,0-7.4-2.6-13.6-7.7-18.7-5.1-5.1-11.4-7.7-18.7-7.7s-13.6,2.6-18.7,7.7c-5.1,5.1-7.7,11.4-7.7,18.7s2.6,13.6,7.7,18.7c5.1,5.1,11.3,7.7,18.7,7.7Z"/>
</svg>