<svg xmlns="http://www.w3.org/2000/svg" width="16" height="16" viewBox="0 0 16 16">
  <path id="Path_11747" data-name="Path 11747" d="M134.756-824l-5.6-5.6a5.3,5.3,0,0,1-1.533.844,5.418,5.418,0,0,1-1.844.311,5.577,5.577,0,0,1-4.1-1.678,5.577,5.577,0,0,1-1.678-4.1,5.577,5.577,0,0,1,1.678-4.1,5.577,5.577,0,0,1,4.1-1.678,5.577,5.577,0,0,1,4.1,1.678,5.577,5.577,0,0,1,1.678,4.1,5.418,5.418,0,0,1-.311,1.844,5.3,5.3,0,0,1-.844,1.533l5.6,5.6Zm-8.978-6.222a3.857,3.857,0,0,0,2.833-1.167,3.858,3.858,0,0,0,1.167-2.833,3.857,3.857,0,0,0-1.167-2.833,3.858,3.858,0,0,0-2.833-1.167,3.857,3.857,0,0,0-2.833,1.167,3.857,3.857,0,0,0-1.167,2.833,3.857,3.857,0,0,0,1.167,2.833A3.857,3.857,0,0,0,125.778-830.222Z" transform="translate(-120 840)" fill="#060e2b"/>
</svg>
