<?xml version="1.0" encoding="UTF-8"?>
<svg xmlns="http://www.w3.org/2000/svg" version="1.1" viewBox="0 0 40 40">
  <defs>
    <style>
      .cls-1 {
        fill: #ffab00;
      }
    </style>
  </defs>
  <!-- Generator: Adobe Illustrator 28.7.1, SVG Export Plug-In . SVG Version: 1.2.0 Build 142)  -->
  <g>
    <g id="Layer_1">
      <path class="cls-1" d="M5.1,30.3l-2.6-1.9,8.1-12.9,4.8,5.6,6.4-10.5,4.4,6.6c-.6,0-1.2.1-1.8.2s-1.1.3-1.6.5l-.9-1.3-6.1,9.9-4.9-5.7-5.8,9.4ZM35.6,38.1l-5-5c-.5.4-1.1.7-1.8.8s-1.3.3-2,.3c-2,0-3.7-.7-5.1-2.1s-2.1-3.1-2.1-5.1.7-3.7,2.1-5.1,3.1-2.1,5.1-2.1,3.7.7,5.1,2.1,2.1,3.1,2.1,5.1,0,1.4-.3,2c-.2.7-.5,1.3-.8,1.8l5,5-2.3,2.3ZM26.8,31c1.1,0,2.1-.4,2.9-1.2.8-.8,1.2-1.7,1.2-2.9s-.4-2.1-1.2-2.9-1.7-1.2-2.9-1.2-2.1.4-2.9,1.2-1.2,1.7-1.2,2.9.4,2.1,1.2,2.9c.8.8,1.7,1.2,2.9,1.2ZM30.3,18.1c-.5-.2-1-.4-1.6-.5s-1.1-.2-1.7-.2l8.3-13,2.6,1.9-7.6,11.9Z"/>
    </g>
  </g>
</svg>