<?xml version="1.0" encoding="UTF-8"?>
<svg xmlns="http://www.w3.org/2000/svg" version="1.1" viewBox="0 0 40 40">
  <defs>
    <style>
      .cls-1 {
        fill: #ffab00;
      }
    </style>
  </defs>
  <!-- Generator: Adobe Illustrator 28.7.1, SVG Export Plug-In . SVG Version: 1.2.0 Build 142)  -->
  <g>
    <g id="Layer_1">
      <path class="cls-1" d="M11.1,33c-2.5,0-4.6-.9-6.3-2.6-1.7-1.7-2.6-3.8-2.6-6.2s.6-4,1.9-5.6c1.3-1.6,2.9-2.7,5-3.2.7-2.5,2-4.5,4.1-6s4.3-2.3,6.9-2.3,5.8,1.1,8.1,3.3c2.2,2.2,3.3,4.9,3.3,8.1,1.9.2,3.4,1,4.6,2.4s1.8,3,1.8,4.9-.7,3.8-2.1,5.2-3.1,2.1-5.2,2.1H11.1ZM11.1,29.7h19.5c1.1,0,2.1-.4,2.9-1.2.8-.8,1.2-1.7,1.2-2.9s-.4-2.1-1.2-2.9-1.7-1.2-2.9-1.2h-2.4v-3.2c0-2.2-.8-4.2-2.4-5.7s-3.5-2.4-5.7-2.4-4.2.8-5.7,2.4-2.4,3.5-2.4,5.7h-.8c-1.6,0-2.9.6-4,1.7s-1.7,2.4-1.7,4,.6,2.9,1.7,4c1.1,1.1,2.4,1.7,4,1.7Z"/>
    </g>
  </g>
</svg>