<?xml version="1.0" encoding="UTF-8"?>
<svg xmlns="http://www.w3.org/2000/svg" version="1.1" viewBox="0 0 40 40">
  <defs>
    <style>
      .cls-1 {
        fill: #ffab00;
      }
    </style>
  </defs>
  <!-- Generator: Adobe Illustrator 28.7.1, SVG Export Plug-In . SVG Version: 1.2.0 Build 142)  -->
  <g>
    <g id="Layer_1">
      <path class="cls-1" d="M21.7,18.3h12.1c-.4-3.2-1.8-5.9-4-8.1-2.2-2.2-4.9-3.5-8.1-4v12.1ZM18.3,33.8V6.2c-3.5.4-6.4,2-8.7,4.6-2.3,2.6-3.5,5.7-3.5,9.2s1.2,6.6,3.5,9.2c2.3,2.6,5.2,4.1,8.7,4.6ZM21.7,33.8c3.2-.4,5.9-1.7,8.1-4,2.2-2.2,3.5-4.9,4-8.1h-12.1v12.1ZM20,37.4c-2.4,0-4.7-.5-6.8-1.4s-4-2.1-5.5-3.7-2.8-3.4-3.7-5.5c-.9-2.1-1.4-4.4-1.4-6.8s.5-4.7,1.4-6.8c.9-2.1,2.1-4,3.7-5.5s3.4-2.8,5.5-3.7,4.4-1.4,6.8-1.4,4.7.5,6.8,1.4c2.1.9,3.9,2.2,5.5,3.7,1.6,1.6,2.8,3.4,3.7,5.5.9,2.1,1.4,4.3,1.4,6.8s-.5,4.6-1.4,6.7-2.1,4-3.7,5.5c-1.6,1.6-3.4,2.8-5.5,3.7s-4.4,1.4-6.8,1.4Z"/>
    </g>
  </g>
</svg>