<?xml version="1.0" encoding="UTF-8"?>
<svg xmlns="http://www.w3.org/2000/svg" version="1.1" viewBox="0 0 40 40">
  <defs>
    <style>
      .cls-1 {
        fill: #ffab00;
      }
    </style>
  </defs>
  <!-- Generator: Adobe Illustrator 28.7.1, SVG Export Plug-In . SVG Version: 1.2.0 Build 142)  -->
  <g>
    <g id="Layer_1">
      <path class="cls-1" d="M6.1,32V6v26ZM6.1,35.7c-1,0-1.9-.4-2.6-1.1-.7-.7-1.1-1.6-1.1-2.6V6c0-1,.4-1.9,1.1-2.6.7-.7,1.6-1.1,2.6-1.1h26c1,0,1.9.4,2.6,1.1s1.1,1.6,1.1,2.6v4.6h-3.7v-4.6H6.1v26h26v-4.6h3.7v4.6c0,1-.4,1.9-1.1,2.6-.7.7-1.6,1.1-2.6,1.1H6.1ZM20.9,28.3c-1,0-1.9-.4-2.6-1.1s-1.1-1.6-1.1-2.6v-11.1c0-1,.4-1.9,1.1-2.6s1.6-1.1,2.6-1.1h13c1,0,1.9.4,2.6,1.1s1.1,1.6,1.1,2.6v11.1c0,1-.4,1.9-1.1,2.6s-1.6,1.1-2.6,1.1h-13ZM33.9,24.6v-11.1h-13v11.1h13ZM26.5,21.8c.8,0,1.4-.3,2-.8s.8-1.2.8-2-.3-1.4-.8-2c-.5-.5-1.2-.8-2-.8s-1.4.3-2,.8c-.5.5-.8,1.2-.8,2s.3,1.4.8,2,1.2.8,2,.8Z"/>
    </g>
  </g>
</svg>