<?xml version="1.0" encoding="UTF-8"?>
<svg xmlns="http://www.w3.org/2000/svg" version="1.1" viewBox="0 0 40 40">
  <defs>
    <style>
      .cls-1 {
        fill: #ffab00;
      }
    </style>
  </defs>
  <!-- Generator: Adobe Illustrator 28.7.1, SVG Export Plug-In . SVG Version: 1.2.0 Build 142)  -->
  <g>
    <g id="Layer_1">
      <path class="cls-1" d="M18.1,26.5l10.3-10.3-2.6-2.6-7.7,7.7-3.8-3.8-2.6,2.6,6.4,6.4ZM20,38.2c-4.2-1.1-7.7-3.5-10.4-7.3-2.7-3.8-4.1-8-4.1-12.6V7.3L20,1.8l14.6,5.5v11.1c0,4.6-1.4,8.8-4.1,12.6-2.7,3.8-6.2,6.2-10.4,7.3ZM20,34.4c3.2-1,5.8-3,7.8-6s3.1-6.3,3.1-10v-8.6l-10.9-4.1-10.9,4.1v8.6c0,3.7,1,7,3.1,10,2.1,3,4.7,5,7.8,6Z"/>
    </g>
  </g>
</svg>