<?xml version="1.0" encoding="UTF-8"?>
<svg xmlns="http://www.w3.org/2000/svg" version="1.1" viewBox="0 0 40 40">
  <defs>
    <style>
      .cls-1 {
        fill: #ffab00;
      }
    </style>
  </defs>
  <!-- Generator: Adobe Illustrator 28.7.1, SVG Export Plug-In . SVG Version: 1.2.0 Build 142)  -->
  <g>
    <g id="Layer_1">
      <path class="cls-1" d="M14.6,25.4v-10.9h10.9v10.9h-10.9ZM18.2,21.8h3.6v-3.6h-3.6v3.6ZM14.6,36.3v-3.6h-3.6c-1,0-1.8-.4-2.6-1.1s-1.1-1.6-1.1-2.6v-3.6h-3.6v-3.6h3.6v-3.6h-3.6v-3.6h3.6v-3.6c0-1,.4-1.8,1.1-2.6s1.6-1.1,2.6-1.1h3.6v-3.6h3.6v3.6h3.6v-3.6h3.6v3.6h3.6c1,0,1.8.4,2.6,1.1s1.1,1.6,1.1,2.6v3.6h3.6v3.6h-3.6v3.6h3.6v3.6h-3.6v3.6c0,1-.4,1.8-1.1,2.6s-1.6,1.1-2.6,1.1h-3.6v3.6h-3.6v-3.6h-3.6v3.6h-3.6ZM29,29V11H11v18.1h18.1Z"/>
    </g>
  </g>
</svg>