<?xml version="1.0" encoding="utf-8"?>
<!-- Generator: Adobe Illustrator 27.4.0, SVG Export Plug-In . SVG Version: 6.00 Build 0)  -->
<svg version="1.1" id="Layer_1" xmlns="http://www.w3.org/2000/svg" xmlns:xlink="http://www.w3.org/1999/xlink" x="0px" y="0px"
	 viewBox="0 0 61.3 50" style="enable-background:new 0 0 61.3 50;" xml:space="preserve">
<style type="text/css">
	.st0{fill:#1D1D1B;}
	.st1{fill:#F7A600;}
	.st2{fill:#FFFFFF;}
	.st3{clip-path:url(#SVGID_00000044173304701139624500000011689891837932460472_);}
	.st4{clip-path:url(#SVGID_00000051349579295529699170000017959810216312125873_);}
	.st5{clip-path:url(#SVGID_00000179646324548649632120000000384725581455792822_);}
	.st6{fill:#CA602B;}
	.st7{enable-background:new    ;}
	.st8{fill:#0A4875;}
	.st9{fill:#E4BA7D;}
	.st10{fill-rule:evenodd;clip-rule:evenodd;fill:#CBA359;}
	.st11{fill-rule:evenodd;clip-rule:evenodd;fill:#8F1F18;}
	.st12{fill:none;stroke:#DD8F14;stroke-width:0.2212;}
	.st13{fill:none;stroke:#FFDB00;stroke-width:0.2212;stroke-dasharray:0.2212,0.2212,0.2212,0.2212;}
	.st14{fill-rule:evenodd;clip-rule:evenodd;fill:#E3C388;}
	.st15{fill-rule:evenodd;clip-rule:evenodd;fill:#6A0C11;}
	.st16{clip-path:url(#SVGID_00000146475165107823336830000003562036945790734470_);}
	.st17{fill:url(#Rectangle_47_00000053543483621646488600000018340647819933992332_);}
	.st18{clip-path:url(#SVGID_00000183209647265081667990000012749110705244301990_);}
	.st19{fill:url(#Rectangle_48_00000119083771777061334830000008170658277135500700_);}
	.st20{clip-path:url(#SVGID_00000075138549344558865480000013620658024350817959_);}
	.st21{fill:url(#Rectangle_49_00000098218324475220627400000014535028922973594271_);}
	.st22{clip-path:url(#SVGID_00000090290053256878238970000009177672362975015316_);}
	.st23{fill:url(#Rectangle_50_00000157290948397867647770000001852097164660214156_);}
	.st24{clip-path:url(#SVGID_00000176045073402780958100000000423051718642052794_);}
	.st25{fill:url(#Rectangle_51_00000049929432511410066040000006694290188895154587_);}
	.st26{clip-path:url(#SVGID_00000165228578174050392210000005226034999000805039_);}
	.st27{fill:url(#Rectangle_52_00000112621429149600763270000014061442785844576655_);}
	.st28{clip-path:url(#SVGID_00000149374386027031800830000011985467473989876910_);}
	.st29{fill:url(#Rectangle_53_00000140699880415950973070000015705524075984908449_);}
	.st30{clip-path:url(#SVGID_00000062906764934240814360000010661933057557283471_);}
	.st31{fill:url(#Rectangle_54_00000162337356530142904530000007080765012634310031_);}
	.st32{fill-rule:evenodd;clip-rule:evenodd;fill:#FFFFFF;}
	.st33{fill:#F0592B;}
	.st34{fill:#1F8F55;}
	.st35{fill:#E6C892;}
	.st36{fill-rule:evenodd;clip-rule:evenodd;fill:#D0B36E;}
	.st37{fill-rule:evenodd;clip-rule:evenodd;fill:#A22E1A;}
	.st38{fill:#E0A000;}
	.st39{fill:#FFE300;}
	.st40{fill-rule:evenodd;clip-rule:evenodd;fill:#E4CF9C;}
	.st41{fill-rule:evenodd;clip-rule:evenodd;fill:#7E1510;}
	.st42{fill:url(#SVGID_00000014621735347385271060000015973045699828949664_);}
	.st43{fill:url(#SVGID_00000020363813047131130480000001738263913856167078_);}
	.st44{fill:url(#SVGID_00000167375716387539876770000017375625395734682789_);}
	.st45{fill:url(#SVGID_00000031195954959957746190000007879002921476459912_);}
	.st46{fill:url(#SVGID_00000133528448786043946540000004309454928486303627_);}
	.st47{fill:url(#SVGID_00000036941395654353816910000005638117931917259177_);}
	.st48{fill:url(#SVGID_00000103955977430023400510000016927050871216895636_);}
	.st49{fill:url(#SVGID_00000183952327605114184090000011296862313280184198_);}
	.st50{fill:url(#SVGID_00000098928694920999906420000010303080653671950757_);}
	.st51{fill:url(#SVGID_00000147207161317286743230000007728928121194856630_);}
	.st52{fill:url(#SVGID_00000111893083801690806600000006570386415589893256_);}
	.st53{fill:url(#SVGID_00000081610145871198042200000015827936641723221888_);}
	.st54{fill:url(#SVGID_00000166634161980134192060000010367925007726834323_);}
	.st55{fill:url(#SVGID_00000080204792730380831580000011018126027395309962_);}
	.st56{fill:url(#SVGID_00000158711983179797931930000011673801471724201883_);}
	.st57{fill:url(#SVGID_00000016059917536296334690000002292453644078231177_);}
	.st58{fill:url(#SVGID_00000139254579024805682770000000924895163894749364_);}
	.st59{fill:url(#SVGID_00000002368610918282711530000009180122107706091190_);}
	.st60{fill:url(#SVGID_00000057112420611698001270000012488962300917955726_);}
	.st61{fill:url(#SVGID_00000031898617618095654410000005590035439018741432_);}
	.st62{fill:url(#SVGID_00000176764806609535863900000013547123211527103420_);}
	.st63{fill:url(#SVGID_00000159437628737915675110000012180040026082675885_);}
</style>
<g>
	<g>
		<polygon class="st35" points="28.5,46.5 30.6,48.6 32.6,46.6 35,48.2 36.7,45.7 39.5,46.9 40.7,44.1 43.7,44.7 44.3,41.7 
			47.4,41.7 47.4,38.9 50.1,38.4 49.6,35.4 52.4,34.2 51.3,31.4 53.8,29.7 52.1,27.2 54.3,25 52.3,23 53.9,20.7 51.4,18.9 
			52.5,16.1 49.7,14.9 50.3,11.9 47.4,11.3 47.4,8.3 44.5,8.3 44,5.5 41,6.1 39.9,3.2 37,4.4 35.3,1.8 32.8,3.5 30.6,1.4 28.6,3.4 
			26.3,1.8 24.6,4.3 21.8,3.1 20.6,5.9 17.6,5.3 17,8.3 13.9,8.3 13.9,11.1 11.1,11.6 11.7,14.6 8.9,15.8 10,18.6 7.5,20.3 
			9.2,22.8 7,25 9,27 7.4,29.3 9.9,31.1 8.7,33.9 11.5,35.1 10.9,38.1 13.9,38.7 13.9,41.7 16.8,41.7 17.3,44.5 20.3,43.9 
			21.4,46.8 24.3,45.6 25.9,48.2 		"/>
		<g>
			<path class="st36" d="M30.6,4.2c11.5,0,20.8,9.3,20.8,20.8c0,11.5-9.3,20.8-20.8,20.8C19.1,45.8,9.8,36.5,9.8,25
				C9.8,13.5,19.1,4.2,30.6,4.2L30.6,4.2z M30.6,4.2"/>
			<path class="st37" d="M30.6,10.5c8.1,0,14.6,6.5,14.6,14.6c0,8.1-6.5,14.6-14.6,14.6c-8.1,0-14.6-6.5-14.6-14.6
				C16.1,17,22.6,10.5,30.6,10.5L30.6,10.5z M30.6,10.5"/>
			<path class="st38" d="M30.6,39.9c-8.2,0-14.8-6.6-14.8-14.8c0-8.2,6.6-14.8,14.8-14.8c8.2,0,14.8,6.6,14.8,14.8
				C45.4,33.2,38.8,39.9,30.6,39.9z M30.6,10.7c-7.9,0-14.4,6.4-14.4,14.4c0,7.9,6.4,14.4,14.4,14.4C38.6,39.5,45,33,45,25.1
				C45,17.2,38.6,10.7,30.6,10.7z"/>
			<path class="st39" d="M30.5,38.5c-0.1,0-0.3,0-0.4,0l0-0.4c0.1,0,0.3,0,0.4,0L30.5,38.5z M30.9,38.5l0-0.4c0.1,0,0.3,0,0.4,0
				l0,0.4C31.2,38.5,31.1,38.5,30.9,38.5z M29.7,38.4c-0.1,0-0.3,0-0.4,0l0-0.4c0.1,0,0.3,0,0.4,0L29.7,38.4z M31.8,38.4l0-0.4
				c0.1,0,0.3,0,0.4,0l0,0.4C32,38.4,31.9,38.4,31.8,38.4z M28.9,38.4c-0.1,0-0.3,0-0.4-0.1l0.1-0.4c0.1,0,0.3,0,0.4,0.1L28.9,38.4z
				 M32.6,38.3l-0.1-0.4c0.1,0,0.3,0,0.4-0.1l0.1,0.4C32.9,38.3,32.7,38.3,32.6,38.3z M28.1,38.2c-0.1,0-0.3-0.1-0.4-0.1l0.1-0.4
				c0.1,0,0.3,0.1,0.4,0.1L28.1,38.2z M33.4,38.2l-0.1-0.4c0.1,0,0.3-0.1,0.4-0.1l0.1,0.4C33.7,38.1,33.5,38.2,33.4,38.2z M27.3,38
				c-0.1,0-0.3-0.1-0.4-0.1l0.1-0.4c0.1,0,0.3,0.1,0.4,0.1L27.3,38z M34.2,38l-0.1-0.4c0.1,0,0.3-0.1,0.4-0.1l0.1,0.4
				C34.5,37.9,34.3,38,34.2,38z M26.5,37.8c-0.1,0-0.3-0.1-0.4-0.1l0.1-0.4c0.1,0,0.3,0.1,0.4,0.1L26.5,37.8z M35,37.8l-0.1-0.4
				c0.1,0,0.3-0.1,0.4-0.1l0.1,0.4C35.3,37.7,35.1,37.7,35,37.8z M25.7,37.5c-0.1-0.1-0.3-0.1-0.4-0.2l0.2-0.4
				c0.1,0.1,0.2,0.1,0.4,0.2L25.7,37.5z M35.8,37.5l-0.2-0.4c0.1-0.1,0.2-0.1,0.4-0.2l0.2,0.4C36,37.4,35.9,37.4,35.8,37.5z
				 M24.9,37.2c-0.1-0.1-0.2-0.1-0.4-0.2l0.2-0.4c0.1,0.1,0.2,0.1,0.4,0.2L24.9,37.2z M36.5,37.1l-0.2-0.4c0.1-0.1,0.2-0.1,0.4-0.2
				l0.2,0.4C36.8,37,36.6,37.1,36.5,37.1z M24.2,36.8c-0.1-0.1-0.2-0.1-0.4-0.2l0.2-0.4c0.1,0.1,0.2,0.1,0.3,0.2L24.2,36.8z
				 M37.2,36.7L37,36.4c0.1-0.1,0.2-0.1,0.3-0.2l0.2,0.3C37.5,36.6,37.4,36.7,37.2,36.7z M23.5,36.4c-0.1-0.1-0.2-0.1-0.3-0.2
				l0.2-0.3c0.1,0.1,0.2,0.1,0.3,0.2L23.5,36.4z M38,36.3L37.7,36c0.1-0.1,0.2-0.1,0.3-0.2l0.2,0.3C38.2,36.2,38.1,36.2,38,36.3z
				 M22.8,35.9c-0.1-0.1-0.2-0.2-0.3-0.2l0.2-0.3c0.1,0.1,0.2,0.2,0.3,0.2L22.8,35.9z M38.6,35.8l-0.2-0.3c0.1-0.1,0.2-0.2,0.3-0.2
				l0.3,0.3C38.8,35.7,38.7,35.8,38.6,35.8z M22.1,35.4c-0.1-0.1-0.2-0.2-0.3-0.3l0.3-0.3c0.1,0.1,0.2,0.2,0.3,0.3L22.1,35.4z
				 M39.3,35.3L39,35c0.1-0.1,0.2-0.2,0.3-0.3l0.3,0.3C39.5,35.1,39.4,35.2,39.3,35.3z M21.5,34.9c-0.1-0.1-0.2-0.2-0.3-0.3l0.3-0.3
				c0.1,0.1,0.2,0.2,0.3,0.3L21.5,34.9z M39.9,34.8l-0.3-0.3c0.1-0.1,0.2-0.2,0.3-0.3l0.3,0.3C40.1,34.6,40,34.7,39.9,34.8z
				 M20.9,34.3c-0.1-0.1-0.2-0.2-0.3-0.3l0.3-0.3c0.1,0.1,0.2,0.2,0.3,0.3L20.9,34.3z M40.5,34.2l-0.3-0.3c0.1-0.1,0.2-0.2,0.3-0.3
				l0.3,0.3C40.7,34,40.6,34.1,40.5,34.2z M20.4,33.7c-0.1-0.1-0.2-0.2-0.3-0.3l0.3-0.3c0.1,0.1,0.2,0.2,0.3,0.3L20.4,33.7z
				 M41,33.6l-0.3-0.3c0.1-0.1,0.2-0.2,0.2-0.3l0.3,0.2C41.2,33.3,41.1,33.5,41,33.6z M19.9,33c-0.1-0.1-0.2-0.2-0.2-0.3l0.3-0.2
				c0.1,0.1,0.2,0.2,0.2,0.3L19.9,33z M41.5,32.9l-0.3-0.2c0.1-0.1,0.2-0.2,0.2-0.3l0.3,0.2C41.7,32.7,41.6,32.8,41.5,32.9z
				 M19.4,32.4c-0.1-0.1-0.1-0.2-0.2-0.3l0.3-0.2c0.1,0.1,0.1,0.2,0.2,0.3L19.4,32.4z M42,32.2L41.6,32c0.1-0.1,0.1-0.2,0.2-0.3
				l0.4,0.2C42.1,32,42.1,32.1,42,32.2z M19,31.6c-0.1-0.1-0.1-0.2-0.2-0.4l0.4-0.2c0.1,0.1,0.1,0.2,0.2,0.4L19,31.6z M42.4,31.5
				L42,31.3c0.1-0.1,0.1-0.2,0.2-0.4l0.4,0.2C42.5,31.3,42.5,31.4,42.4,31.5z M18.6,30.9c-0.1-0.1-0.1-0.2-0.2-0.4l0.4-0.2
				c0.1,0.1,0.1,0.2,0.2,0.4L18.6,30.9z M42.8,30.8l-0.4-0.2c0.1-0.1,0.1-0.2,0.2-0.4l0.4,0.2C42.9,30.5,42.8,30.6,42.8,30.8z
				 M18.2,30.2c-0.1-0.1-0.1-0.3-0.2-0.4l0.4-0.1c0,0.1,0.1,0.2,0.1,0.4L18.2,30.2z M43.1,30l-0.4-0.1c0-0.1,0.1-0.2,0.1-0.4
				l0.4,0.1C43.2,29.7,43.2,29.9,43.1,30z M18,29.4c0-0.1-0.1-0.3-0.1-0.4l0.4-0.1c0,0.1,0.1,0.3,0.1,0.4L18,29.4z M43.4,29.2
				L43,29.1c0-0.1,0.1-0.3,0.1-0.4l0.4,0.1C43.5,29,43.4,29.1,43.4,29.2z M17.7,28.6c0-0.1-0.1-0.3-0.1-0.4l0.4-0.1
				c0,0.1,0.1,0.3,0.1,0.4L17.7,28.6z M43.6,28.4l-0.4-0.1c0-0.1,0.1-0.3,0.1-0.4l0.4,0.1C43.7,28.2,43.6,28.3,43.6,28.4z
				 M17.5,27.8c0-0.1-0.1-0.3-0.1-0.4l0.4-0.1c0,0.1,0,0.3,0.1,0.4L17.5,27.8z M43.8,27.6l-0.4-0.1c0-0.1,0-0.3,0.1-0.4l0.4,0.1
				C43.8,27.3,43.8,27.5,43.8,27.6z M17.4,27c0-0.1,0-0.3-0.1-0.4l0.4,0c0,0.1,0,0.3,0,0.4L17.4,27z M43.9,26.8l-0.4-0.1
				c0-0.1,0-0.3,0-0.4l0.4,0C44,26.5,43.9,26.7,43.9,26.8z M17.3,26.2c0-0.1,0-0.3,0-0.4l0.4,0c0,0.1,0,0.3,0,0.4L17.3,26.2z M44,26
				l-0.4,0c0-0.1,0-0.3,0-0.4l0.4,0C44,25.7,44,25.8,44,26z M17.3,25.3c0-0.1,0-0.2,0-0.2c0-0.1,0-0.1,0-0.2l0.4,0
				c0,0.1,0,0.1,0,0.2c0,0.1,0,0.2,0,0.2L17.3,25.3z M44,25.1l-0.4,0l0-0.1c0-0.1,0-0.2,0-0.3l0.4,0C44,24.9,44,25,44,25.1L44,25.1z
				 M17.7,24.5l-0.4,0c0-0.1,0-0.3,0-0.4l0.4,0C17.7,24.3,17.7,24.4,17.7,24.5z M43.6,24.3c0-0.1,0-0.3,0-0.4l0.4,0
				c0,0.1,0,0.3,0,0.4L43.6,24.3z M17.7,23.7l-0.4,0c0-0.1,0-0.3,0-0.4l0.4,0.1C17.8,23.5,17.7,23.6,17.7,23.7z M43.5,23.5
				c0-0.1,0-0.3-0.1-0.4l0.4-0.1c0,0.1,0,0.3,0.1,0.4L43.5,23.5z M17.8,22.9l-0.4-0.1c0-0.1,0-0.3,0.1-0.4l0.4,0.1
				C17.9,22.7,17.9,22.8,17.8,22.9z M43.4,22.8c0-0.1,0-0.3-0.1-0.4l0.4-0.1c0,0.1,0.1,0.3,0.1,0.4L43.4,22.8z M18,22.1L17.6,22
				c0-0.1,0.1-0.3,0.1-0.4l0.4,0.1C18.1,21.9,18,22,18,22.1z M43.2,22c0-0.1-0.1-0.3-0.1-0.4l0.4-0.1c0,0.1,0.1,0.3,0.1,0.4L43.2,22
				z M18.2,21.4l-0.4-0.1c0-0.1,0.1-0.3,0.1-0.4l0.4,0.1C18.3,21.1,18.2,21.2,18.2,21.4z M43,21.2c0-0.1-0.1-0.3-0.1-0.4l0.4-0.1
				c0,0.1,0.1,0.3,0.1,0.4L43,21.2z M18.5,20.6l-0.4-0.1c0-0.1,0.1-0.3,0.1-0.4l0.4,0.2C18.6,20.4,18.5,20.5,18.5,20.6z M42.8,20.4
				c0-0.1-0.1-0.2-0.1-0.4l0.4-0.2c0.1,0.1,0.1,0.3,0.2,0.4L42.8,20.4z M18.8,19.9l-0.4-0.2c0.1-0.1,0.1-0.3,0.2-0.4l0.4,0.2
				C18.9,19.6,18.8,19.7,18.8,19.9z M42.5,19.7c-0.1-0.1-0.1-0.2-0.2-0.4l0.4-0.2c0.1,0.1,0.1,0.2,0.2,0.4L42.5,19.7z M19.1,19.1
				l-0.4-0.2c0.1-0.1,0.1-0.2,0.2-0.4l0.4,0.2C19.2,18.9,19.2,19,19.1,19.1z M42.1,19c-0.1-0.1-0.1-0.2-0.2-0.4l0.4-0.2
				c0.1,0.1,0.1,0.2,0.2,0.4L42.1,19z M19.5,18.4l-0.3-0.2c0.1-0.1,0.1-0.2,0.2-0.4l0.3,0.2C19.6,18.2,19.6,18.3,19.5,18.4z
				 M41.7,18.3c-0.1-0.1-0.1-0.2-0.2-0.3l0.3-0.2c0.1,0.1,0.1,0.2,0.2,0.3L41.7,18.3z M19.9,17.8l-0.3-0.2c0.1-0.1,0.2-0.2,0.2-0.3
				l0.3,0.2C20.1,17.5,20,17.6,19.9,17.8z M41.3,17.6c-0.1-0.1-0.2-0.2-0.2-0.3l0.3-0.2c0.1,0.1,0.2,0.2,0.2,0.3L41.3,17.6z
				 M20.4,17.1l-0.3-0.3c0.1-0.1,0.2-0.2,0.3-0.3l0.3,0.3C20.6,16.9,20.5,17,20.4,17.1z M40.8,17c-0.1-0.1-0.2-0.2-0.3-0.3l0.3-0.3
				c0.1,0.1,0.2,0.2,0.3,0.3L40.8,17z M20.9,16.5l-0.3-0.3c0.1-0.1,0.2-0.2,0.3-0.3l0.3,0.3C21.1,16.3,21,16.4,20.9,16.5z
				 M40.3,16.4c-0.1-0.1-0.2-0.2-0.3-0.3l0.3-0.3c0.1,0.1,0.2,0.2,0.3,0.3L40.3,16.4z M21.5,15.9l-0.3-0.3c0.1-0.1,0.2-0.2,0.3-0.3
				l0.3,0.3C21.7,15.7,21.6,15.8,21.5,15.9z M39.7,15.8c-0.1-0.1-0.2-0.2-0.3-0.3l0.3-0.3c0.1,0.1,0.2,0.2,0.3,0.3L39.7,15.8z
				 M22.1,15.4l-0.3-0.3c0.1-0.1,0.2-0.2,0.3-0.3l0.3,0.3C22.3,15.2,22.2,15.3,22.1,15.4z M39.1,15.3c-0.1-0.1-0.2-0.2-0.3-0.3
				l0.3-0.3c0.1,0.1,0.2,0.2,0.3,0.3L39.1,15.3z M22.7,14.8l-0.3-0.3c0.1-0.1,0.2-0.2,0.3-0.2l0.2,0.3
				C22.9,14.7,22.8,14.8,22.7,14.8z M38.5,14.7c-0.1-0.1-0.2-0.2-0.3-0.2l0.2-0.3c0.1,0.1,0.2,0.2,0.3,0.2L38.5,14.7z M23.3,14.4
				L23.1,14c0.1-0.1,0.2-0.2,0.3-0.2l0.2,0.3C23.5,14.2,23.4,14.3,23.3,14.4z M37.8,14.3c-0.1-0.1-0.2-0.1-0.3-0.2l0.2-0.3
				c0.1,0.1,0.2,0.1,0.3,0.2L37.8,14.3z M24,13.9l-0.2-0.3c0.1-0.1,0.2-0.1,0.4-0.2l0.2,0.4C24.2,13.8,24.1,13.9,24,13.9z
				 M37.2,13.9c-0.1-0.1-0.2-0.1-0.4-0.2l0.2-0.4c0.1,0.1,0.2,0.1,0.4,0.2L37.2,13.9z M24.7,13.6l-0.2-0.4c0.1-0.1,0.2-0.1,0.4-0.2
				l0.2,0.4C24.9,13.4,24.8,13.5,24.7,13.6z M36.4,13.5c-0.1-0.1-0.2-0.1-0.4-0.2l0.2-0.4c0.1,0.1,0.2,0.1,0.4,0.2L36.4,13.5z
				 M25.4,13.2l-0.2-0.4c0.1-0.1,0.3-0.1,0.4-0.2l0.2,0.4C25.7,13.1,25.5,13.2,25.4,13.2z M35.7,13.1c-0.1-0.1-0.2-0.1-0.4-0.2
				l0.1-0.4c0.1,0.1,0.3,0.1,0.4,0.2L35.7,13.1z M26.2,12.9L26,12.5c0.1,0,0.3-0.1,0.4-0.1l0.1,0.4C26.4,12.8,26.3,12.9,26.2,12.9z
				 M35,12.8c-0.1,0-0.3-0.1-0.4-0.1l0.1-0.4c0.1,0,0.3,0.1,0.4,0.1L35,12.8z M26.9,12.7l-0.1-0.4c0.1,0,0.3-0.1,0.4-0.1l0.1,0.4
				C27.2,12.6,27,12.6,26.9,12.7z M34.2,12.6c-0.1,0-0.3-0.1-0.4-0.1l0.1-0.4c0.1,0,0.3,0.1,0.4,0.1L34.2,12.6z M27.7,12.4l-0.1-0.4
				c0.1,0,0.3-0.1,0.4-0.1l0.1,0.4C27.9,12.4,27.8,12.4,27.7,12.4z M33.4,12.4c-0.1,0-0.3-0.1-0.4-0.1l0.1-0.4
				c0.1,0,0.3,0.1,0.4,0.1L33.4,12.4z M28.5,12.3l-0.1-0.4c0.1,0,0.3,0,0.4-0.1l0.1,0.4C28.7,12.2,28.6,12.3,28.5,12.3z M32.6,12.3
				c-0.1,0-0.3,0-0.4-0.1l0-0.4c0.1,0,0.3,0,0.4,0.1L32.6,12.3z M29.3,12.2l0-0.4c0.1,0,0.3,0,0.4,0l0,0.4
				C29.5,12.2,29.4,12.2,29.3,12.2z M31.8,12.2c-0.1,0-0.3,0-0.4,0l0-0.4c0.1,0,0.3,0,0.4,0L31.8,12.2z M30.1,12.1l0-0.4
				c0.1,0,0.3,0,0.4,0l0,0.4C30.3,12.1,30.2,12.1,30.1,12.1z M31,12.1c-0.1,0-0.3,0-0.4,0v-0.4c0.1,0,0.3,0,0.4,0L31,12.1z"/>
			<path class="st40" d="M30.6,13.1c6.6,0,12,5.4,12,12c0,6.6-5.4,12-12,12s-12-5.4-12-12C18.7,18.5,24,13.1,30.6,13.1L30.6,13.1z
				 M30.6,13.1"/>
			<path class="st41" d="M13.5,25.1l0-0.8l0.4-0.1c0.1,0,0.2-0.1,0.3-0.1c0.1,0,0.1,0.1,0.1,0.2l0,0l0.1,0c0-0.2,0-0.4,0-0.6
				c0-0.2,0-0.3,0-0.5l-0.1,0v0c0,0.1-0.1,0.2-0.2,0.2c-0.1,0-0.3,0.1-0.4,0.1l-2,0.6c0,0-0.1,0-0.1,0c0,0,0,0,0,0c0,0,0,0,0,0
				c0,0.1,0.1,0.2,0.1,0.3c0.1,0,0.3,0.1,0.5,0.2l1.7,0.6c0.2,0.1,0.2,0.2,0.2,0.3l0,0l0.1,0c0-0.1,0-0.3,0-0.4c0-0.1,0-0.3,0-0.4
				l-0.1,0v0c0,0.1,0,0.3-0.1,0.3c-0.1,0-0.2,0-0.3-0.1L13.5,25.1z M13.4,24.3l0,0.7l-1-0.4v0L13.4,24.3z M13.2,20.5
				c-0.2,0-0.4,0-0.6-0.1c-0.1,0.3-0.3,0.4-0.4,0.9c-0.1,0.8,0.2,1.5,1,1.7c0.9,0.2,1.5-0.4,1.6-1.2c0.1-0.3,0-0.6,0-0.9
				c-0.2-0.1-0.4-0.1-0.6-0.2l0,0.1c0.3,0.2,0.5,0.5,0.5,0.9c-0.1,0.7-0.8,0.9-1.4,0.8c-0.6-0.1-1.1-0.5-0.9-1.1
				c0.1-0.5,0.4-0.7,0.8-0.7L13.2,20.5z M14.2,17.7c-0.2-0.1-0.4-0.1-0.6-0.2c-0.2,0.3-0.4,0.4-0.5,0.8c-0.3,0.7-0.1,1.5,0.7,1.8
				c0.9,0.3,1.5-0.1,1.8-0.8c0.1-0.3,0.2-0.6,0.2-0.9c-0.2-0.1-0.4-0.2-0.5-0.3l-0.1,0.1c0.3,0.2,0.4,0.6,0.3,0.9
				c-0.3,0.7-1,0.7-1.5,0.5c-0.6-0.2-0.9-0.7-0.7-1.3c0.2-0.5,0.5-0.6,0.9-0.5L14.2,17.7z M14.3,16.2c0,0,0-0.1,0.1-0.2
				c0.2-0.3,0.5-0.4,0.7-0.2c0.4,0.2,0.4,0.5,0.2,0.8l-0.1,0.2L14.3,16.2z M15.9,17.7c0.1,0.1,0.1,0.2,0,0.3l0,0.1l0.1,0.1
				c0.1-0.2,0.2-0.3,0.3-0.5c0.1-0.2,0.2-0.4,0.3-0.5L16.5,17l0,0.1c-0.1,0.1-0.2,0.3-0.4,0.1l-0.7-0.4l0.1-0.2c0.5,0,1,0,1.4-0.1
				c0.1-0.1,0.1-0.2,0.2-0.3c0.1-0.1,0.1-0.2,0.2-0.3l-0.1-0.1C17,16,17,16.1,16.8,16.1l-1.1,0.1c0-0.3,0-0.6-0.3-0.8
				c-0.5-0.3-0.8,0-1,0.4c-0.1,0.2-0.2,0.3-0.3,0.5c-0.1,0.2-0.2,0.4-0.3,0.5l0.1,0.1l0-0.1c0.1-0.1,0.1-0.2,0.4-0.1L15.9,17.7z
				 M17.3,15.8c0.1-0.2,0.4-0.5,0.6-0.8c0.2-0.3,0.5-0.6,0.6-0.8c-0.1-0.1-0.3-0.3-0.4-0.5l-0.1,0.1c0.3,0.3,0.2,0.5-0.1,0.9
				c-0.1,0.2-0.3,0.4-0.5,0.2l-0.7-0.5l0.3-0.4c0.2-0.2,0.3-0.1,0.5,0l0.1-0.1c-0.1-0.1-0.2-0.2-0.3-0.3c-0.1-0.1-0.2-0.2-0.3-0.3
				l-0.1,0.1c0.1,0.1,0.2,0.3,0.1,0.4l-0.3,0.3l-0.8-0.6l0.3-0.4c0.2-0.3,0.4-0.2,0.6-0.1l0-0.1c-0.1-0.1-0.3-0.2-0.5-0.3
				c-0.2,0.2-0.4,0.5-0.6,0.8c-0.2,0.2-0.4,0.5-0.6,0.7l0.1,0.1l0,0c0.1-0.1,0.2-0.2,0.3-0.1l1.5,1.2c0.2,0.1,0.1,0.2,0,0.3
				L17.3,15.8L17.3,15.8z M17.7,11.6c0.1-0.1,0.1-0.1,0.2-0.2c0.4-0.4,1-0.5,1.6,0.2c0.4,0.4,0.5,1,0,1.5c-0.2,0.2-0.3,0.2-0.5,0
				L17.7,11.6z M18.7,14c0.1-0.1,0.3-0.2,0.5-0.4c0.2-0.2,0.4-0.3,0.5-0.4c0.6-0.5,0.7-1.3,0.2-1.9c-0.5-0.6-1.3-0.6-2,0
				c-0.1,0.1-0.3,0.2-0.4,0.4C17.3,11.8,17.1,12,17,12l0.1,0.1l0,0c0.1-0.1,0.2-0.2,0.3,0l1.3,1.5c0.1,0.1,0,0.3-0.1,0.3L18.7,14
				L18.7,14z M20.9,12.2c0.1-0.1,0.3-0.2,0.4-0.3c0.2-0.1,0.3-0.2,0.5-0.3l-0.1-0.1l0,0c-0.1,0.1-0.2,0.1-0.3,0l-1.1-1.6
				c-0.1-0.2,0-0.3,0.1-0.3l0,0l-0.1-0.1c-0.1,0.1-0.3,0.2-0.5,0.4c-0.1,0.1-0.3,0.2-0.5,0.3l0.1,0.1l0,0c0.1-0.1,0.2-0.1,0.3,0
				l1.1,1.6c0.1,0.2,0,0.3-0.1,0.3L20.9,12.2L20.9,12.2z M21.8,8.8l0.9,1.8c0.1,0.3,0,0.3-0.1,0.4l-0.1,0l0,0.1
				c0.1-0.1,0.4-0.2,0.6-0.3c0.2-0.1,0.4-0.2,0.5-0.3l0-0.1l-0.1,0c-0.2,0.1-0.3,0.1-0.4-0.1l-0.9-1.8l0.5-0.3
				c0.2-0.1,0.3,0.1,0.4,0.2l0.1-0.1c0-0.1-0.1-0.2-0.1-0.3C23,8,23,7.9,23,7.8l-0.1,0c0,0.1,0,0.1-0.1,0.2l-1.7,0.9
				c-0.1,0-0.2,0.1-0.2,0l-0.1,0c0,0.1,0.1,0.2,0.1,0.3c0,0.1,0.1,0.2,0.1,0.3l0.1-0.1C21,9.2,21,9.2,21.2,9L21.8,8.8z M24.3,10.2
				c0.2-0.1,0.6-0.2,0.9-0.3c0.3-0.1,0.7-0.2,0.9-0.3c0-0.2-0.1-0.4-0.1-0.6l-0.1,0c0,0.4-0.1,0.5-0.6,0.7c-0.2,0.1-0.4,0.2-0.5-0.1
				l-0.3-0.8l0.4-0.1c0.2-0.1,0.3,0,0.4,0.3l0.1-0.1c-0.1-0.1-0.1-0.3-0.2-0.4c0-0.1-0.1-0.3-0.1-0.4l-0.1,0c0,0.2,0,0.3-0.2,0.4
				l-0.4,0.1l-0.3-0.9l0.5-0.2c0.4-0.1,0.5,0,0.6,0.3l0.1-0.1c-0.1-0.2-0.1-0.4-0.2-0.5c-0.2,0.1-0.6,0.2-0.9,0.3
				c-0.3,0.1-0.7,0.2-0.9,0.3l0,0.1l0,0c0.1,0,0.3-0.1,0.3,0.1l0.6,1.8c0.1,0.2-0.1,0.2-0.2,0.3l0,0L24.3,10.2z M26.8,6.9
				c0.1,0,0.2,0,0.2-0.1c0.6-0.1,1.1,0,1.3,1c0.1,0.6-0.1,1.1-0.7,1.3c-0.3,0-0.4,0-0.4-0.2L26.8,6.9z M26.4,9.4
				c0.1,0,0.4-0.1,0.6-0.1c0.2,0,0.5-0.1,0.7-0.1c0.7-0.1,1.3-0.8,1.1-1.5c-0.1-0.8-0.8-1.2-1.7-1c-0.2,0-0.4,0.1-0.6,0.1
				c-0.2,0-0.5,0.1-0.6,0.1L26,7L26,7c0.1,0,0.3,0,0.3,0.2L26.7,9c0,0.2-0.1,0.2-0.2,0.3l-0.1,0L26.4,9.4z M32.5,9.1l0.1,0l1-2.2
				c0.1-0.1,0.1-0.2,0.2-0.2l0,0l0-0.1c-0.1,0-0.2,0-0.3,0c-0.1,0-0.2,0-0.4,0l0,0.1l0,0c0.2,0,0.2,0,0.2,0.1c0,0,0,0.1-0.1,0.2
				l-0.7,1.5l-0.4-1.1l0.3-0.5c0.1-0.2,0.2-0.3,0.3-0.3l0.1,0l0-0.1c-0.1,0-0.2,0-0.3,0c-0.1,0-0.2,0-0.4,0c-0.1,0-0.3,0-0.4,0
				c-0.2,0-0.3,0-0.5-0.1l0,0.1c0.1,0,0.2,0,0.2,0.1l0.4,1.1l-0.4,0.7l-0.5-1.5c-0.1-0.2-0.1-0.3-0.1-0.4c0-0.1,0.1-0.1,0.2-0.1l0,0
				l0-0.1c-0.1,0-0.3,0-0.5,0c-0.2,0-0.4,0-0.5-0.1l0,0.1l0.1,0c0.2,0,0.2,0.2,0.3,0.4L31.4,9l0.1,0l0.6-1.1L32.5,9.1z M32.4,7.1
				L32.4,7.1l-0.1-0.3c0-0.1-0.1-0.1,0-0.2c0-0.1,0.1-0.1,0.2-0.1c0.1,0,0.2,0,0.2,0.1c0,0,0,0.1-0.1,0.2L32.4,7.1z M33.9,9.2
				c0.1,0,0.4,0.1,0.5,0.1c0.2,0,0.4,0.1,0.6,0.1l0-0.1l-0.1,0c-0.1,0-0.3-0.1-0.2-0.3l0.4-1.9c0-0.2,0.2-0.2,0.3-0.1l0.1,0l0-0.1
				c-0.2,0-0.4-0.1-0.6-0.1c-0.2,0-0.4-0.1-0.5-0.1l0,0.1l0.1,0c0.1,0,0.3,0.1,0.2,0.3L34.3,9C34.2,9.2,34.1,9.2,33.9,9.2l0-0.1
				L33.9,9.2z M37,7.6l-0.7,1.8c-0.1,0.3-0.2,0.3-0.4,0.2l-0.1,0l0,0.1c0.1,0.1,0.4,0.1,0.6,0.2c0.2,0.1,0.4,0.2,0.6,0.2l0-0.1
				l-0.1,0c-0.2-0.1-0.3-0.1-0.2-0.4l0.7-1.8L38,8c0.2,0.1,0.2,0.3,0.1,0.4l0.1,0c0-0.1,0.1-0.2,0.1-0.3c0-0.1,0.1-0.2,0.1-0.3
				l-0.1,0c0,0.1-0.1,0.1-0.2,0l-1.8-0.7c-0.1,0-0.2-0.1-0.2-0.2l-0.1,0c0,0.1-0.1,0.2-0.1,0.3c-0.1,0.1-0.1,0.2-0.2,0.3l0.1,0
				c0.2-0.2,0.2-0.3,0.4-0.2L37,7.6z M38.9,9.8l1.2,0.7l-0.5,0.8c-0.1,0.2-0.2,0.1-0.4,0l-0.1,0l-0.1,0.1c0.1,0.1,0.4,0.2,0.5,0.3
				c0.2,0.1,0.3,0.2,0.5,0.3l0.1-0.1l0,0c-0.1-0.1-0.2-0.2-0.1-0.3l1-1.7c0.1-0.2,0.2-0.1,0.3,0l0,0l0.1-0.1
				c-0.1-0.1-0.3-0.2-0.5-0.3c-0.2-0.1-0.4-0.2-0.5-0.3l-0.1,0.1l0.1,0c0.1,0.1,0.2,0.2,0.1,0.3l-0.4,0.7L39,9.6l0.4-0.7
				c0.1-0.2,0.2-0.1,0.4,0l0.1,0l0.1-0.1c-0.1-0.1-0.4-0.2-0.5-0.3c-0.2-0.1-0.3-0.2-0.5-0.3l-0.1,0.1l0,0C39,8.4,39.1,8.5,39,8.6
				l-1,1.7c-0.1,0.2-0.2,0.1-0.3,0l0,0l-0.1,0.1c0.1,0.1,0.3,0.2,0.5,0.3c0.2,0.1,0.4,0.2,0.5,0.3l0.1-0.1l-0.1,0
				c-0.1-0.1-0.2-0.2-0.1-0.3L38.9,9.8z M44.2,13.1c0.1-0.2,0.3-0.4,0.4-0.5c-0.1-0.1-0.2-0.2-0.3-0.3c-0.1-0.1-0.2-0.3-0.3-0.4
				c-0.5-0.5-1.4-0.7-2-0.1c-0.6,0.6-0.5,1.4,0.1,2c0.3,0.3,0.6,0.4,0.9,0.6l0,0l0-0.1l0.4-0.4c0.1-0.1,0.2-0.1,0.3,0l0,0l0.1-0.1
				c-0.1-0.1-0.2-0.2-0.4-0.3c-0.1-0.1-0.3-0.3-0.4-0.4L43,13.1l0,0c0.1,0.1,0.2,0.2,0.1,0.3l-0.4,0.4c-0.1,0-0.2-0.1-0.3-0.2
				c-0.5-0.5-0.3-1.2,0.2-1.6c0.4-0.4,1-0.6,1.5-0.1C44.2,12.3,44.4,12.6,44.2,13.1L44.2,13.1z M45.6,14c0,0,0.1,0.1,0.1,0.2
				c0.2,0.3,0.1,0.6-0.1,0.8c-0.4,0.3-0.6,0.2-0.8-0.1l-0.1-0.1L45.6,14z M43.6,14.8c-0.1,0.1-0.2,0-0.3-0.1l0-0.1l-0.1,0.1
				c0.1,0.2,0.2,0.3,0.3,0.4c0.1,0.2,0.2,0.4,0.4,0.5l0.1-0.1l0-0.1c-0.1-0.1-0.2-0.3,0.1-0.4l0.6-0.5l0.1,0.2
				c-0.2,0.4-0.4,0.9-0.5,1.3c0.1,0.1,0.1,0.2,0.2,0.3c0.1,0.1,0.1,0.2,0.2,0.3l0.1-0.1c-0.1-0.2-0.1-0.2,0-0.4l0.4-1.1
				c0.3,0.2,0.6,0.2,0.8,0c0.4-0.3,0.3-0.7,0-1.1c-0.1-0.2-0.2-0.3-0.4-0.5c-0.1-0.2-0.3-0.4-0.3-0.5l-0.1,0.1l0,0.1
				c0.1,0.1,0.1,0.2-0.1,0.4L43.6,14.8z M45.8,17.1l0.4,0.8l-0.3,0.3c-0.1,0.1-0.2,0.2-0.2,0.2c-0.1,0-0.2-0.1-0.2-0.2l0,0l-0.1,0.1
				c0.1,0.2,0.2,0.3,0.3,0.5c0.1,0.2,0.1,0.3,0.2,0.5l0.1-0.1l0,0c-0.1-0.1-0.1-0.2,0-0.3c0.1-0.1,0.2-0.2,0.3-0.3l1.4-1.5
				c0,0,0,0,0.1-0.1c0,0,0,0,0,0c0,0,0,0,0,0c-0.1,0-0.2-0.1-0.3-0.2c-0.1,0-0.3,0.1-0.5,0.1L45.1,17c-0.2,0-0.3-0.1-0.4-0.2l0,0
				l-0.1,0c0.1,0.1,0.1,0.2,0.2,0.4c0.1,0.1,0.1,0.3,0.2,0.4l0.1-0.1l0,0c-0.1-0.1-0.1-0.3,0-0.3c0.1,0,0.2,0,0.3-0.1L45.8,17.1z
				 M46.3,17.7L46,17.1l1.1-0.2l0,0L46.3,17.7z M48.4,19.4c0,0.1,0.1,0.2,0.1,0.2c0.2,0.6,0.1,1.1-0.9,1.4c-0.6,0.2-1.1,0-1.3-0.6
				c-0.1-0.3-0.1-0.4,0.2-0.5L48.4,19.4z M45.8,19.3c0,0.1,0.1,0.3,0.2,0.6c0.1,0.2,0.1,0.5,0.2,0.7c0.2,0.7,0.9,1.2,1.6,1
				c0.7-0.2,1.1-0.9,0.8-1.8c0-0.2-0.1-0.3-0.2-0.6c-0.1-0.2-0.1-0.5-0.1-0.6l-0.1,0l0,0.1c0,0.1,0.1,0.3-0.1,0.3l-1.9,0.5
				c-0.2,0.1-0.2-0.1-0.3-0.2l0,0L45.8,19.3z M46.6,22.1c0,0.2,0.1,0.6,0.1,1c0,0.3,0.1,0.8,0.1,1c0.2,0,0.4,0,0.6,0.1l0-0.1
				c-0.4-0.1-0.5-0.3-0.5-0.7c0-0.2-0.1-0.4,0.2-0.5l0.9-0.1l0.1,0.4c0,0.3-0.1,0.3-0.3,0.3l0,0.1c0.1,0,0.3,0,0.4-0.1
				c0.1,0,0.3,0,0.4,0l0-0.1c-0.2,0-0.3,0-0.4-0.3l-0.1-0.4l1-0.1l0.1,0.5c0,0.4-0.1,0.5-0.4,0.5l0,0.1c0.2,0,0.4-0.1,0.6-0.1
				c0-0.3-0.1-0.6-0.1-0.9c0-0.3-0.1-0.7-0.1-0.9l-0.1,0l0,0.1c0,0.1,0,0.3-0.2,0.3l-1.9,0.2c-0.2,0-0.2-0.1-0.2-0.2l0-0.1
				L46.6,22.1z M46.6,22.1"/>
			<g>
				<g>
					<g>
						
							<linearGradient id="SVGID_00000092426614790215642470000001281078433678513546_" gradientUnits="userSpaceOnUse" x1="35.1975" y1="28.989" x2="26.4388" y2="23.9322">
							<stop  offset="0" style="stop-color:#CA4A18"/>
							<stop  offset="1" style="stop-color:#922F19"/>
						</linearGradient>
						<path style="fill:url(#SVGID_00000092426614790215642470000001281078433678513546_);" d="M27.4,26.2L27,27.7
							c-0.2,0.7-0.3,1.1-0.3,1.1c0,0.3,0.4,0.5,1.1,0.5h0.2v0.4c-0.8,0-1.4-0.1-1.8-0.1c-0.4,0-0.9,0-1.6,0.1v-0.4h0.1
							c0.6,0,1-0.3,1.3-0.9l2.3-6.7c0.2-0.4,0.3-1,0.5-1.8c0.5-0.2,0.9-0.4,1.3-0.6c0.1,0,0.1,0,0.1,0c0,0,0.1,0,0.1,0
							c0,0.1,0.1,0.2,0.1,0.4l2.7,7.6c0.1,0.4,0.3,0.8,0.5,1.5c0.2,0.4,0.5,0.6,1,0.6h0.1v0.4c-0.9,0-1.5-0.1-2-0.1s-1.2,0-2.2,0.1
							v-0.4h0.2c0.6,0,0.9-0.1,0.9-0.4c0-0.1-0.1-0.5-0.3-1.1l-0.6-1.7H27.4z M30.4,25.3l-1.3-4.1h0l-1.4,4.1H30.4z"/>
					</g>
				</g>
				<g>
					
						<linearGradient id="SVGID_00000004538220389580208110000014191042639298747802_" gradientUnits="userSpaceOnUse" x1="37.9108" y1="22.8709" x2="33.8146" y2="20.506">
						<stop  offset="0" style="stop-color:#CA4A18"/>
						<stop  offset="1" style="stop-color:#922F19"/>
					</linearGradient>
					<path style="fill:url(#SVGID_00000004538220389580208110000014191042639298747802_);" d="M35.4,21.2v-2h0.9v2h2v0.9h-2v2h-0.9
						v-2h-2v-0.9H35.4z"/>
				</g>
			</g>
		</g>
	</g>
	<g>
		<g>
			
				<linearGradient id="SVGID_00000062185795076874825480000009037681703626363816_" gradientUnits="userSpaceOnUse" x1="49.7848" y1="36.0146" x2="60.394" y2="25.4054">
				<stop  offset="0" style="stop-color:#CA4A18"/>
				<stop  offset="1" style="stop-color:#922F19"/>
			</linearGradient>
			<path style="fill:url(#SVGID_00000062185795076874825480000009037681703626363816_);" d="M49.3,27.4c0.4,3.1,0.8,6.2,1.2,9.4
				c3.6-0.8,7.2-1.9,10.7-3.2c-1.5-1.1-3-2.2-4.5-3.4c0.9-1.9,1.8-3.8,2.6-5.8C56.1,25.6,52.7,26.6,49.3,27.4z"/>
		</g>
		<g>
			
				<linearGradient id="SVGID_00000132768818190017359090000003087313810888124330_" gradientUnits="userSpaceOnUse" x1="49.5975" y1="30.7532" x2="52.3575" y2="27.9933">
				<stop  offset="0" style="stop-color:#CA4A18"/>
				<stop  offset="1" style="stop-color:#922F19"/>
			</linearGradient>
			<path style="fill:url(#SVGID_00000132768818190017359090000003087313810888124330_);" d="M54.2,29.8c-1.6-0.7-3.3-1.5-4.8-2.4
				c0.2,1.2,0.3,2.3,0.5,3.5C51.2,30.6,52.7,30.2,54.2,29.8z"/>
		</g>
		<g>
			
				<linearGradient id="SVGID_00000173858050900182210460000015177342624418563774_" gradientUnits="userSpaceOnUse" x1="1.6657" y1="35.2399" x2="10.7255" y2="26.1801">
				<stop  offset="0" style="stop-color:#CA4A18"/>
				<stop  offset="1" style="stop-color:#922F19"/>
			</linearGradient>
			<path style="fill:url(#SVGID_00000173858050900182210460000015177342624418563774_);" d="M12,27.4c-0.4,3.1-0.8,6.2-1.2,9.4
				C7.1,35.9,3.6,34.9,0,33.6c1.5-1.1,3-2.2,4.5-3.4c-0.9-1.9-1.8-3.8-2.6-5.8C5.2,25.6,8.6,26.6,12,27.4z"/>
		</g>
		<g>
			
				<linearGradient id="SVGID_00000047766924683358016510000011788105618899643805_" gradientUnits="userSpaceOnUse" x1="8.502" y1="31.1788" x2="12.1131" y2="27.5677">
				<stop  offset="0" style="stop-color:#CA4A18"/>
				<stop  offset="1" style="stop-color:#922F19"/>
			</linearGradient>
			<path style="fill:url(#SVGID_00000047766924683358016510000011788105618899643805_);" d="M7.1,29.8c1.6-0.7,3.3-1.5,4.8-2.4
				c-0.2,1.2-0.3,2.3-0.5,3.5C10,30.6,8.6,30.2,7.1,29.8z"/>
		</g>
		<g>
			<g>
				<g>
					
						<linearGradient id="SVGID_00000177443042938189487870000003987711224085696898_" gradientUnits="userSpaceOnUse" x1="16.1871" y1="49.6442" x2="45.0977" y2="20.7336">
						<stop  offset="0" style="stop-color:#CA4A18"/>
						<stop  offset="1" style="stop-color:#922F19"/>
					</linearGradient>
					<path style="fill:url(#SVGID_00000177443042938189487870000003987711224085696898_);" d="M7.1,29.8c15.5,4.5,31.5,4.5,47,0
						c0.5,3.1,1,6.2,1.5,9.3c-16.5,4.7-33.6,4.7-50,0c0.2-1.5,0.5-3.1,0.7-4.6C6.6,32.9,6.9,31.3,7.1,29.8z"/>
				</g>
			</g>
		</g>
	</g>
	<path class="st32" d="M20.5,34.3c-0.3,0-0.5,0-0.8,0c-0.3,0-0.7-0.1-1-0.1l0,0.3l0.1,0c0.4,0,0.8,0.4,0.7,0.8L19.2,39
		c-0.1,0.7-0.3,1.1-0.9,1l-0.1,0l0,0.3c0.4,0,0.8,0,1.2,0.1c0.4,0,0.7,0.1,1.1,0.1l0-0.3l-0.1,0c-0.7-0.1-0.8-0.3-0.7-1.1l0.3-3.6
		l4.1,5.4l0.3,0c0-0.3,0-0.6,0-0.9l0.3-4c0.1-1,0.5-1.1,0.9-1l0.1,0l0-0.3c-0.4,0-0.7,0-1.1-0.1c-0.4,0-0.8-0.1-1.2-0.1l0,0.3l0.2,0
		c0.3,0,0.7,0.2,0.7,0.9L24,39l0,0L20.5,34.3z M26.9,38.6l2,0l0.3,1c0.1,0.3,0.2,0.5,0.2,0.6c0,0.2-0.3,0.2-0.5,0.2l-0.1,0l0,0.3
		c0.4,0,0.9,0,1.3,0c0.4,0,0.8,0,1.2,0.1l0-0.3h-0.1c-0.3,0-0.5-0.1-0.6-0.4c-0.1-0.3-0.2-0.6-0.3-0.9l-1.5-4.6
		c0-0.1-0.1-0.1-0.1-0.2c0,0,0,0-0.1,0c0,0,0,0-0.1,0c-0.2,0.1-0.5,0.3-0.8,0.4c-0.1,0.3-0.2,0.8-0.3,1.1L26,40
		c-0.1,0.4-0.4,0.6-0.8,0.6l-0.1,0l0,0.3c0.3,0,0.6,0,0.9,0c0.4,0,0.7,0,1.1,0.1l0-0.3l-0.1,0c-0.3,0-0.7-0.1-0.6-0.3
		c0-0.2,0.1-0.4,0.2-0.7L26.9,38.6z M28.8,38.2l-1.6,0l0.8-2.5h0L28.8,38.2z M33.1,38.6l2-0.1l0.4,1c0.1,0.3,0.2,0.5,0.2,0.6
		c0,0.2-0.3,0.3-0.5,0.3l-0.1,0l0,0.3c0.4,0,0.9-0.1,1.3-0.1c0.4,0,0.8,0,1.2,0l0-0.3l-0.1,0c-0.3,0-0.5-0.1-0.6-0.3
		c-0.1-0.3-0.2-0.6-0.4-0.9l-1.8-4.5c0-0.1-0.1-0.1-0.1-0.2c0,0,0,0-0.1,0c0,0,0,0-0.1,0c-0.2,0.1-0.5,0.3-0.8,0.4
		c0,0.3-0.2,0.8-0.3,1.1L32.3,40c-0.1,0.4-0.4,0.6-0.7,0.6l-0.1,0l0,0.3c0.3,0,0.6-0.1,0.9-0.1c0.3,0,0.7,0,1.1,0l0-0.3l-0.1,0
		c-0.3,0-0.7,0-0.7-0.3c0-0.2,0.1-0.4,0.2-0.7L33.1,38.6z M34.9,38.1l-1.6,0.1l0.7-2.5h0L34.9,38.1z M42.8,35.8
		c-0.1-0.5-0.2-1-0.2-1.4c-0.8-0.1-1.2-0.3-2.2-0.2c-1.8,0.2-3.3,1.4-3.1,3.4c0.2,2.2,1.7,3.1,3.7,3c0.8-0.1,1.5-0.3,2-0.6
		c0-0.5,0-0.9,0.1-1.4l-0.2,0c-0.1,0.9-0.7,1.5-1.6,1.6c-1.6,0.1-2.5-1.3-2.6-2.7c-0.1-1.5,0.5-2.7,1.9-2.8c1.3-0.1,1.8,0.5,2.1,1.4
		L42.8,35.8z M42.8,35.8"/>
</g>
</svg>
