<?xml version="1.0" encoding="utf-8"?>
<!-- Generator: Adobe Illustrator 27.4.0, SVG Export Plug-In . SVG Version: 6.00 Build 0)  -->
<svg version="1.1" id="Layer_1" xmlns="http://www.w3.org/2000/svg" xmlns:xlink="http://www.w3.org/1999/xlink" x="0px" y="0px"
	 viewBox="0 0 50 50" style="enable-background:new 0 0 50 50;" xml:space="preserve">
<style type="text/css">
	.st0{fill:#1D1D1B;}
	.st1{fill:#F7A600;}
	.st2{fill:#FFFFFF;}
	.st3{clip-path:url(#SVGID_00000041998464315641112270000014542962500988328835_);}
	.st4{clip-path:url(#SVGID_00000029759213503492344510000001297293191373757873_);}
	.st5{clip-path:url(#SVGID_00000116237513932615307910000001291135147397868445_);}
	.st6{fill:#CA602B;}
	.st7{enable-background:new    ;}
	.st8{fill:#0A4875;}
	.st9{fill:#E4BA7D;}
	.st10{fill-rule:evenodd;clip-rule:evenodd;fill:#CBA359;}
	.st11{fill-rule:evenodd;clip-rule:evenodd;fill:#8F1F18;}
	.st12{fill:none;stroke:#DD8F14;stroke-width:0.2212;}
	.st13{fill:none;stroke:#FFDB00;stroke-width:0.2212;stroke-dasharray:0.2212,0.2212,0.2212,0.2212;}
	.st14{fill-rule:evenodd;clip-rule:evenodd;fill:#E3C388;}
	.st15{fill-rule:evenodd;clip-rule:evenodd;fill:#6A0C11;}
	.st16{clip-path:url(#SVGID_00000137111285752707179950000015530674376467590547_);}
	.st17{fill:url(#Rectangle_47_00000114070281202364854520000002937563401465969802_);}
	.st18{clip-path:url(#SVGID_00000140708014288029298230000011624257621601034633_);}
	.st19{fill:url(#Rectangle_48_00000005959269975368585950000014511962690524768188_);}
	.st20{clip-path:url(#SVGID_00000179646070969945465830000003549835918196779919_);}
	.st21{fill:url(#Rectangle_49_00000152243479091350988170000007623447525417229484_);}
	.st22{clip-path:url(#SVGID_00000015313460341559397100000009953927859111578259_);}
	.st23{fill:url(#Rectangle_50_00000138556848237754762310000013617445601713901743_);}
	.st24{clip-path:url(#SVGID_00000123417584205785285660000017880239275876712850_);}
	.st25{fill:url(#Rectangle_51_00000078765137466570622610000012361773252485793702_);}
	.st26{clip-path:url(#SVGID_00000155831513782799678900000016703565163169076618_);}
	.st27{fill:url(#Rectangle_52_00000089545202157793966720000003863832119633574048_);}
	.st28{clip-path:url(#SVGID_00000040560437639416730850000015770273384298674860_);}
	.st29{fill:url(#Rectangle_53_00000150103793496512476750000008298721197436835207_);}
	.st30{clip-path:url(#SVGID_00000168832411096340111240000004988210430626878385_);}
	.st31{fill:url(#Rectangle_54_00000170259297672148644060000004533854970086339733_);}
	.st32{fill-rule:evenodd;clip-rule:evenodd;fill:#FFFFFF;}
	.st33{fill:#F0592B;}
	.st34{fill:#1F8F55;}
	.st35{fill:#E6C892;}
	.st36{fill-rule:evenodd;clip-rule:evenodd;fill:#D0B36E;}
	.st37{fill-rule:evenodd;clip-rule:evenodd;fill:#A22E1A;}
	.st38{fill:#E0A000;}
	.st39{fill:#FFE300;}
	.st40{fill-rule:evenodd;clip-rule:evenodd;fill:#E4CF9C;}
	.st41{fill-rule:evenodd;clip-rule:evenodd;fill:#7E1510;}
	.st42{fill:url(#SVGID_00000183217277967689652690000007803797344286104467_);}
	.st43{fill:url(#SVGID_00000172433206491321563770000015304205522190209943_);}
	.st44{fill:url(#SVGID_00000013884485013341519490000000648221689562708661_);}
	.st45{fill:url(#SVGID_00000086662843726460610290000001852936718821712054_);}
	.st46{fill:url(#SVGID_00000176757500829406385930000004395345890049950132_);}
	.st47{fill:url(#SVGID_00000097463946717337335680000015432405109356821896_);}
	.st48{fill:url(#SVGID_00000020374546676085959570000004758396974700353960_);}
	.st49{fill:url(#SVGID_00000085952224945378240600000007472459272453637528_);}
	.st50{fill:url(#SVGID_00000039851676412141426350000009983345951405434245_);}
	.st51{fill:url(#SVGID_00000163778768037702520200000010283430747846322330_);}
	.st52{fill:url(#SVGID_00000172423243974849369060000016779271674950074000_);}
	.st53{fill:url(#SVGID_00000082354814094964073630000011452514420589645989_);}
	.st54{fill:url(#SVGID_00000055698327441715196790000015197698718206226052_);}
	.st55{fill:url(#SVGID_00000065048205788442591050000014610076851685591205_);}
	.st56{fill:url(#SVGID_00000152968149044735165880000000556720697452183198_);}
</style>
<g>
	<path class="st33" d="M12.8,36.5c0.5-0.1,0.9-0.3,1.3-0.4c0.2-0.1,0.5-0.3,0.8-0.2c0.1,0,0.1,0,0.2,0.1c0.4,0.3,0.8,0.5,1.3,0.7
		c0.4,0.2,0.8,0.5,1.2,0.7c0.3,0.2,0.6,0.3,0.8,0.5c0.3,0.2,0.5,0.3,0.8,0.5c0.4,0.2,0.8,0.5,1.2,0.7c0.3,0.1,0.6,0.3,0.9,0.5
		c0.2,0.1,0.3,0.2,0.5,0.2c0.2,0.1,0.3,0.2,0.5,0.3c0.5,0.3,1,0.6,1.5,0.8c0.2,0.1,0.4,0.3,0.7,0.4c0.1,0.1,0.2,0.1,0.3,0
		c0.3-0.2,0.7-0.4,1-0.6c0.4-0.3,0.9-0.5,1.3-0.8c0.5-0.4,1.1-0.6,1.6-1c0.3-0.2,0.6-0.3,0.9-0.5c0.4-0.2,0.7-0.5,1.1-0.7
		c0.5-0.3,1.1-0.6,1.6-0.9c0.2-0.1,0.4-0.2,0.6-0.4c0.3-0.2,0.6-0.2,0.9,0c0.4,0.2,0.8,0.3,1.2,0.4c0.1,0,0.1,0.1,0.2,0.1
		c-0.2,0.2-0.4,0.2-0.6,0.3c-0.5,0.3-1,0.5-1.5,0.7c-0.4,0.2-0.7,0.4-1.1,0.5c-0.1,0-0.3,0.1-0.4,0.2c-0.9,0.5-1.8,0.8-2.7,1.3
		c-0.7,0.4-1.5,0.7-2.2,1.1c-0.3,0.1-0.6,0.2-0.9,0.4c-0.3,0.2-0.8,0.3-1.1,0.6c-0.1,0.1-0.2,0-0.3,0c-0.5-0.2-0.9-0.4-1.4-0.7
		c-0.5-0.2-0.9-0.5-1.4-0.7c-0.7-0.4-1.5-0.7-2.2-1c-0.3-0.1-0.6-0.3-0.8-0.4c-0.5-0.2-0.9-0.4-1.4-0.6c-0.5-0.2-0.9-0.5-1.4-0.7
		c-0.7-0.3-1.4-0.7-2.1-1C13.4,36.8,13.1,36.7,12.8,36.5"/>
	<path class="st33" d="M47.8,37.3c-0.7,0-1.5,0-2.2,0c-1.8,0-3.5,0-5.3,0c-0.4,0-0.8,0-1.2,0.2c-0.3,0.2-0.7,0.3-1,0.5
		c-0.4,0.2-0.7,0.4-1.1,0.5c-0.7,0.3-1.4,0.6-2,0.9c-0.5,0.2-1.1,0.4-1.6,0.7c-0.4,0.2-0.8,0.3-1.2,0.5c-0.5,0.3-1,0.4-1.5,0.7
		c-0.7,0.3-1.4,0.6-2.1,0.9c-0.3,0.2-0.6,0.3-0.9,0.4c-0.5,0.2-0.9,0.4-1.4,0.6c-0.5,0.2-1,0.4-1.5,0.7c-0.1,0-0.2,0-0.3,0
		c-0.1-0.1-0.4-0.2-0.5-0.3c-0.4-0.1-0.9-0.4-1.3-0.5c-0.8-0.4-1.7-0.8-2.5-1.2c-0.5-0.2-0.9-0.4-1.4-0.6c-0.6-0.3-1.3-0.6-1.9-0.9
		c-0.4-0.2-0.7-0.3-1.1-0.5c-0.5-0.2-1-0.5-1.5-0.7c-0.5-0.2-1-0.5-1.5-0.7c-0.4-0.2-0.8-0.4-1.2-0.5c-0.3-0.1-0.5-0.3-0.8-0.4
		c-0.4-0.1-0.7-0.3-1-0.5c-0.2-0.1-0.5-0.2-0.8-0.2c-1.6,0-3.2,0-4.8-0.1c-0.9,0-1.8,0-2.8-0.1c-0.1,0-0.2,0-0.3,0.1
		c0.3,0.1,0.5,0.3,0.7,0.4c0.5,0.2,1,0.5,1.5,0.8c0.5,0.2,1,0.5,1.5,0.8c0.5,0.2,0.9,0.5,1.4,0.7C6.8,39.6,7.4,40,8,40.3
		c0.4,0.2,0.7,0.4,1.1,0.6c0.5,0.2,1,0.6,1.5,0.8c0.5,0.2,1,0.5,1.5,0.8c0.5,0.2,1,0.5,1.5,0.7c0.2,0.1,0.5,0.3,0.7,0.4
		c0.3,0.1,0.4,0.3,0.7,0.4c0.3,0.1,0.6,0.3,0.9,0.5c0.5,0.2,1,0.5,1.5,0.8c0.5,0.2,1,0.5,1.5,0.8c0.3,0.2,0.6,0.3,0.9,0.5
		c0.4,0.2,0.9,0.4,1.3,0.7c0.4,0.2,0.8,0.4,1.3,0.7c0.5,0.3,1,0.5,1.5,0.7c0.2,0.1,0.5,0.3,0.8,0.1c0.1-0.1,0.2-0.1,0.4-0.1
		c0.1-0.1,0.2-0.1,0.4-0.2c0,0,0.1-0.1,0.1-0.1c0.5-0.2,0.9-0.4,1.4-0.6c0.6-0.3,1.3-0.6,1.9-0.9c0.5-0.2,1.1-0.5,1.6-0.7
		c0.3-0.1,0.6-0.3,0.9-0.4c0.5-0.2,1-0.5,1.5-0.7c0.4-0.2,0.7-0.3,1.1-0.5c0.5-0.2,0.9-0.4,1.4-0.6c0.4-0.1,0.7-0.4,1.1-0.5
		c0.6-0.2,1.1-0.5,1.6-0.8c0.4-0.2,0.7-0.3,1.1-0.5c0.2-0.1,0.5-0.2,0.7-0.3c0.2-0.1,0.5-0.2,0.7-0.4c0.4-0.2,0.9-0.4,1.3-0.6
		c0.5-0.2,1-0.5,1.5-0.7c0.3-0.2,0.7-0.2,0.9-0.4c0.4-0.2,0.9-0.4,1.3-0.6c0.4-0.2,0.9-0.4,1.3-0.6c0.4-0.2,0.8-0.3,1.2-0.5
		c0.3-0.1,0.5-0.3,0.8-0.4C48.6,37.3,48.2,37.3,47.8,37.3 M38.8,40.5c-0.2,0.1-0.4,0.2-0.6,0.3c-0.6,0.2-1.1,0.6-1.7,0.8
		c-0.3,0.1-0.5,0.3-0.8,0.4c-0.1,0-0.1,0.1-0.2,0c0,0,0,0-0.1,0c-0.2,0.3-0.5,0.4-0.8,0.5c-0.3,0.2-0.6,0.3-0.9,0.4
		c-0.5,0.2-1,0.6-1.6,0.8c-0.6,0.2-1.1,0.5-1.7,0.8c-0.8,0.4-1.5,0.8-2.3,1.1c-0.5,0.2-1,0.5-1.5,0.7c-0.3,0.1-0.5,0.3-0.8,0.4
		c-0.4,0.2-0.7,0.4-1.1,0.5c-0.2,0.1-0.3-0.1-0.4-0.1c-0.4-0.2-0.7-0.4-1.1-0.6c-0.4-0.3-0.9-0.4-1.4-0.7c-0.4-0.3-0.9-0.4-1.3-0.7
		c-0.4-0.2-0.9-0.4-1.3-0.7c-0.6-0.3-1.1-0.6-1.7-0.9c-0.4-0.2-0.8-0.4-1.2-0.6c-0.6-0.3-1.2-0.6-1.8-0.9c-0.5-0.3-1-0.5-1.5-0.7
		c-0.5-0.3-1-0.5-1.5-0.8c-0.3-0.2-0.7-0.4-1-0.5c-0.1,0-0.1-0.1-0.2-0.2c0.6,0.2,1.1,0.4,1.7,0.6c0.4,0.1,0.8,0.3,1.2,0.4
		c0.5,0.2,1,0.4,1.5,0.7c0.2,0.1,0.4,0.1,0.6,0.3c0.4,0.2,0.7,0.4,1.1,0.5c0.5,0.2,1,0.4,1.5,0.7c0.8,0.4,1.7,0.7,2.5,1.2
		c0.6,0.3,1.2,0.5,1.7,0.8l1.5,0.7c0.3,0.2,0.7,0.3,1,0.4c0.1,0.1,0.2,0,0.3,0c0.7-0.3,1.4-0.6,2.1-0.9c0.6-0.3,1.3-0.6,1.9-0.9
		c0.6-0.3,1.1-0.5,1.7-0.8c0.8-0.3,1.5-0.7,2.3-1c0.4-0.2,0.8-0.4,1.2-0.6c0.5-0.2,1-0.5,1.5-0.7c0.5-0.2,1-0.4,1.4-0.6
		c0.4-0.2,0.7-0.3,1.1-0.4c0.3-0.1,0.7-0.2,1-0.3c0.1,0,0.1-0.1,0.2,0C39.4,40.2,39.1,40.4,38.8,40.5"/>
	<path class="st33" d="M39.5,16c-0.1-0.5-0.2-1-0.3-1.5c-0.2-0.7-0.4-1.4-0.7-2.1c-0.2-0.5-0.5-1.1-0.8-1.6
		c-0.2-0.4-0.4-0.8-0.7-1.1c-0.3-0.4-0.6-0.9-1-1.3c-0.3-0.4-0.6-0.7-1-1.1c-0.6-0.6-1.2-1.1-1.9-1.6c-0.4-0.3-0.9-0.6-1.4-0.9
		c-0.5-0.2-1-0.6-1.6-0.7c-0.5-0.2-0.9-0.4-1.4-0.5c-0.5-0.1-1-0.3-1.5-0.3c-0.7-0.1-1.4-0.1-2-0.2c-0.6-0.1-1.2,0.1-1.8,0.1
		c-0.1,0-0.3,0-0.4,0c-0.3,0.1-0.6,0.2-0.9,0.2c-0.3,0-0.5,0.1-0.7,0.1c-0.3,0.1-0.7,0.2-1,0.3c-0.5,0.2-1.1,0.3-1.6,0.6
		c-0.4,0.2-0.9,0.4-1.3,0.7c-0.3,0.2-0.6,0.4-0.9,0.6c-0.3,0.2-0.7,0.5-1,0.8C15.4,6.7,15,7,14.8,7.3c-0.3,0.4-0.8,0.7-1,1.1
		c-0.2,0.3-0.4,0.4-0.6,0.7c-0.1,0.3-0.4,0.5-0.5,0.8c-0.3,0.5-0.7,1-0.9,1.6c-0.2,0.5-0.5,1-0.7,1.5c-0.2,0.6-0.4,1.2-0.6,1.9
		c-0.2,0.7-0.3,1.4-0.3,2.1c0,0.6,0,1.3-0.1,1.9c0,0.7,0,1.4,0.1,2.2c0.1,0.6,0.2,1.2,0.4,1.8c0.3,1.2,0.7,2.4,1.3,3.4
		c0.3,0.6,0.6,1.2,1,1.7c0.6,0.7,1.1,1.5,1.8,2.1c0.4,0.4,0.9,0.8,1.3,1.2c0.7,0.5,1.4,1,2.2,1.4c0.9,0.5,1.8,0.8,2.8,1.1
		c0.7,0.2,1.4,0.3,2,0.4c0.5,0.1,1,0.1,1.5,0.1c0.4,0,0.7,0,1.1,0c0.4-0.1,0.8-0.1,1.2-0.1c0.6-0.1,1.2-0.2,1.8-0.4
		c0.6-0.2,1.2-0.4,1.8-0.6c0.8-0.4,1.6-0.8,2.4-1.3c0.6-0.4,1.1-0.8,1.6-1.3c0.6-0.5,1.2-1.1,1.7-1.7c0.3-0.4,0.6-0.8,0.9-1.2
		c0.4-0.5,0.6-1.1,0.9-1.6c0.3-0.5,0.5-1.1,0.7-1.6c0.2-0.4,0.3-0.8,0.4-1.2c0.1-0.4,0.2-0.8,0.3-1.2c0.2-0.6,0.2-1.1,0.2-1.7
		c0.1-0.9,0-1.8,0-2.7C39.6,17,39.6,16.5,39.5,16 M37.3,13.2c0,0,0.1,0,0.1,0c0.1,0,0,0.1,0,0.2c-0.1,0.3-0.1,0.7-0.1,1
		c0.1,0.6,0.3,1.2,0.7,1.7c0.1,0.1,0.2,0.3,0.3,0.4c-0.6,0-1.2,0.1-1.9,0.2c-0.4,0-0.8,0-1.1,0.1c-0.1,0-0.2,0-0.2,0
		c-0.5,0-0.9,0.1-1.4,0.2c-0.3,0-0.6,0.1-0.9,0.1c-0.4,0.1-0.8,0.1-1.2,0.2c-0.5,0-1,0.2-1.5,0.2c-0.3,0-0.5,0.1-0.8,0.1
		c-0.4,0.1-0.7,0.1-1.1,0.2c0,0-0.1,0-0.1-0.1c0.4-0.2,0.8-0.4,1.2-0.5c0.3-0.1,0.6-0.3,0.9-0.4c0.7-0.3,1.4-0.7,2.1-1
		c0.7-0.3,1.4-0.7,2.1-1c0.7-0.4,1.5-0.8,2.2-1.2C36.9,13.4,37.1,13.4,37.3,13.2 M35.2,9.9c0,0.1,0.1,0.2,0.1,0.3
		c0.2,0.6,0.5,1.1,0.9,1.5c0.2,0.3,0.5,0.5,0.7,0.7c-0.2,0-0.3,0.1-0.4,0.2c-0.1,0-0.1,0.1-0.2,0c0,0,0,0-0.1,0l-1.8,0.8
		c-0.4,0.2-0.8,0.4-1.2,0.5c-0.5,0.2-1,0.5-1.6,0.7c-0.4,0.2-0.9,0.4-1.3,0.6c-0.6,0.3-1.2,0.6-1.7,0.9c-0.4,0.2-0.7,0.4-1,0.6
		c0,0,0,0-0.1,0c0.1-0.2,0.2-0.2,0.3-0.3c0.3-0.3,0.6-0.6,1-0.8c0.4-0.3,0.7-0.6,1.1-0.9c0.3-0.2,0.5-0.5,0.8-0.7
		c0.4-0.4,0.8-0.7,1.1-1c0.3-0.3,0.7-0.6,1-0.9c0.2-0.2,0.5-0.4,0.7-0.6c0.2-0.2,0.4-0.4,0.6-0.6c0.3-0.3,0.6-0.5,0.8-0.8
		C35.1,9.8,35.2,9.8,35.2,9.9 M34,8.7c0.2,0.1,0.5,0.2,0.8,0.1c0.1,0,0.2,0,0.3,0.1c0,0.1,0,0.3-0.1,0.3c-0.6,0.4-1.1,0.8-1.6,1.3
		c-0.4,0.3-0.8,0.7-1.2,1c-0.3,0.3-0.6,0.5-0.9,0.8c-0.4,0.3-0.8,0.7-1.2,1.1c-0.6,0.5-1.1,1-1.6,1.5c-0.2,0.1-0.3,0.3-0.5,0.5
		c-0.3,0.2-0.5,0.6-0.9,0.8c2-2.9,4-5.8,5.7-8.9C32.9,8,33.4,8.4,34,8.7 M28.5,7.2c0.1-0.6,0.2-1.2,0.2-1.9c0-0.1,0.1-0.2,0.2-0.3
		c0.1,0,0.2,0,0.2,0c0.1,0.1,0.2,0.2,0.3,0.4c0.3,0.5,0.8,0.9,1.4,1.1c0.5,0.2,1,0.2,1.5,0.2c0.1,0,0.1,0,0.1,0
		c0,0.1-0.1,0.1-0.1,0.1c-0.3,0.4-0.6,0.8-1,1.2c-0.4,0.5-0.7,1-1.1,1.5c-0.2,0.3-0.4,0.6-0.5,0.8c-0.3,0.4-0.5,0.9-0.9,1.3
		c-0.1,0.1-0.1,0.2-0.2,0.4c-0.4,0.5-0.7,1.1-1.1,1.6c-0.3,0.5-0.6,1-0.9,1.5c-0.1,0.2-0.2,0.3-0.3,0.5l0,0c0.1-0.2,0.1-0.4,0.2-0.6
		c0.2-0.6,0.3-1.1,0.5-1.6c0.2-0.6,0.4-1.2,0.6-1.9c0.2-0.9,0.5-1.7,0.6-2.6C28.3,8.3,28.4,7.7,28.5,7.2 M25.1,4.3
		c0.1-0.1,0.1,0,0.2,0.1c0.6,0.5,1.3,0.8,2.2,0.8c0.1,0,0.2,0.1,0.1,0.2c-0.1,0.3-0.2,0.6-0.3,0.9C27.1,6.6,27,7,26.9,7.4
		c-0.3,1-0.5,2.1-0.8,3.1c-0.1,0.6-0.3,1.2-0.4,1.9c-0.1,0.7-0.3,1.3-0.3,2c0,0.3-0.1,0.5-0.1,0.8c0,0,0,0-0.1,0
		c0.1-0.7,0-1.4,0.1-2.2c0.1-1.8,0-3.6,0-5.4c0-0.8-0.1-1.6-0.1-2.5c0-0.2-0.1-0.4-0.1-0.6C25,4.5,25,4.4,25.1,4.3 M21.3,4.9
		c0.4,0.3,0.9,0.3,1.3,0.3c0.3,0,0.7,0,1-0.2c0.3-0.1,0.5-0.3,0.7-0.4c0.1-0.1,0.1-0.1,0.1,0.1c0,0.3,0,0.6-0.1,0.8
		c-0.1,0.5-0.1,1-0.1,1.4c-0.1,2-0.1,3.9,0,5.9c0,0.5,0,1.1,0,1.6c0,0.3,0.1,0.6,0,0.9c-0.9-3.5-1.9-7.1-3.2-10.5
		C21.3,4.9,21.3,4.9,21.3,4.9 M17.6,6.5c0-0.1,0.3,0,0.4,0c0.6,0,1.2-0.1,1.8-0.4c0.3-0.2,0.5-0.4,0.7-0.6c0.1-0.1,0.2-0.1,0.2,0.1
		c0.2,1,0.5,2.1,0.7,3.1c0.1,0.6,0.3,1.2,0.5,1.8c0.1,0.3,0.1,0.6,0.2,0.8c0.1,0.3,0.2,0.7,0.3,1c0.2,0.5,0.3,0.9,0.4,1.4
		c0.1,0.4,0.3,0.7,0.4,1.1c0.1,0.2,0.2,0.5,0.2,0.8c0-0.1-0.1-0.1-0.1-0.2c-0.4-0.7-0.7-1.3-1.1-2c-0.2-0.3-0.4-0.7-0.6-1
		c-0.4-0.6-0.8-1.3-1.2-1.9c-0.4-0.6-0.8-1.2-1.2-1.8c-0.1-0.2-0.3-0.3-0.3-0.6c-0.4-0.3-0.6-0.8-1-1.2C17.8,6.8,17.6,6.6,17.6,6.5
		 M15,9.1C15,9,15,9.1,15,9.1c0.6-0.2,1.2-0.4,1.6-0.9c0.2-0.2,0.4-0.5,0.6-0.8c0.1-0.1,0.1-0.1,0.2,0c0.2,0.5,0.5,0.9,0.7,1.4
		c0.3,0.6,0.6,1.1,1,1.6c0,0.1,0.1,0.1,0.1,0.2c0,0.1,0,0.2,0.1,0.2c0.1,0,0.1,0.2,0.2,0.4c0.3,0.4,0.5,0.8,0.8,1.2
		c0.3,0.5,0.7,1.1,1,1.6c0.3,0.5,0.7,1,1,1.6c0.1,0.2,0.3,0.3,0.4,0.5c0,0,0,0-0.1,0c-0.3-0.3-0.6-0.7-1-1c-0.2-0.2-0.5-0.5-0.7-0.7
		c-0.6-0.6-1.2-1.1-1.7-1.7c-0.1-0.1-0.3-0.2-0.4-0.4c-0.2-0.2-0.4-0.4-0.6-0.6c-0.2-0.2-0.5-0.4-0.7-0.6c-0.7-0.6-1.4-1.2-2-1.7
		C15.3,9.3,15.2,9.3,15,9.1C15,9.1,15,9.1,15,9.1 M14,11.2c0.3-0.3,0.5-0.8,0.5-1.2c0-0.1,0-0.3,0.1-0.3c0.1,0,0.2,0.1,0.3,0.2
		c0.1,0.2,0.3,0.3,0.5,0.5c0.5,0.5,1,1,1.5,1.5c0.4,0.4,0.7,0.7,1.1,1.1c0.4,0.4,0.8,0.7,1.2,1.1c0.3,0.3,0.7,0.7,1,1
		c0.4,0.4,0.8,0.7,1.2,1.1c0.2,0.2,0.5,0.4,0.7,0.6c-1.5-0.8-3-1.6-4.5-2.4c-1.6-0.8-3.1-1.6-4.7-2.2C13.2,11.8,13.7,11.6,14,11.2
		 M11.8,15.6c0.3-0.3,0.5-0.7,0.7-1.2c0.2-0.4,0.2-0.9,0.2-1.4c0-0.1,0-0.1,0-0.2c0.1,0,0.1,0,0.1,0.1c0.3,0.1,0.6,0.4,0.9,0.5
		c0.4,0.2,0.8,0.4,1.2,0.7c0.4,0.3,0.9,0.5,1.3,0.7c0.6,0.3,1.2,0.7,1.9,1c0.4,0.2,0.7,0.4,1.1,0.6c0.2,0.1,0.4,0.2,0.6,0.3
		c0.5,0.2,0.8,0.5,1.3,0.6c0.1,0,0.1,0.2,0.3,0.1c-0.2,0.1-0.4-0.1-0.6-0.1c-0.2,0-0.3-0.1-0.5-0.1c-0.4,0-0.7-0.2-1.1-0.2
		c-0.2,0-0.5-0.1-0.7-0.2c-0.4-0.1-0.7-0.1-1.1-0.2c-0.2-0.1-0.4-0.1-0.6-0.1c-0.5-0.1-0.9-0.2-1.4-0.2c-0.6-0.1-1.1-0.2-1.7-0.2
		c-0.6-0.1-1.2-0.2-1.8-0.1c-0.1,0-0.2,0-0.2-0.1C11.6,15.7,11.7,15.7,11.8,15.6 M11.9,17.4c0-0.1,0-0.2,0-0.3c0.1-0.1,0.2,0,0.3,0
		c0.4,0.1,0.9,0.3,1.3,0.4c0.4,0.1,0.7,0.1,1.1,0.2c0,0,0.1,0,0.1,0c0.5,0,1.1,0.2,1.6,0.2c0.4,0,0.9,0.1,1.3,0.2
		c0.6,0.1,1.2,0.1,1.8,0.2c0.3,0,0.7,0,1,0.1c0.4,0.1,0.8,0.1,1.2,0.1c0,0.1-0.1,0.1-0.1,0.1c-0.4,0-0.8,0.1-1.2,0.1
		c-0.6,0.1-1.2,0.1-1.7,0.2c-0.3,0.1-0.6,0.1-0.9,0.1c-0.3,0-0.6,0.1-0.9,0.1c-0.4,0.1-0.7,0.1-1.1,0.2c-0.4,0.1-0.9,0.2-1.3,0.2
		c-0.4,0.1-0.8,0.1-1.1,0.2c-0.3,0.1-0.7,0.1-1,0.2c-0.3,0.1-0.6,0.2-0.9,0.2C12,19.5,12,18.5,11.9,17.4 M12.1,21c0.3,0,0.6,0,0.9,0
		c0.2-0.1,0.4,0,0.6-0.1c0.4,0,0.8-0.1,1.2-0.2c0.1,0,0.1,0,0.2,0c0.4,0,0.8-0.1,1.2-0.2c0.4,0,0.8-0.1,1.1-0.2
		c0.6-0.1,1.2-0.2,1.9-0.3c0.3-0.1,0.6-0.1,0.9-0.1c0.4-0.1,0.7-0.1,1.1-0.2c0.1,0,0.2,0,0.4,0c-0.3,0.1-0.5,0.2-0.8,0.3
		c-0.4,0.2-0.7,0.4-1.1,0.5c-0.2,0.1-0.4,0.2-0.6,0.3C19,20.9,19,21,18.8,21c-0.5,0.2-1,0.5-1.4,0.7c-0.4,0.2-0.8,0.4-1.2,0.6
		c-0.4,0.2-0.8,0.4-1.2,0.6c-0.5,0.3-1.1,0.6-1.6,0.8c-0.2,0.1-0.4,0.3-0.6,0.3c-0.1,0-0.1,0-0.2-0.1c0-0.2,0-0.3-0.1-0.5
		c0-0.8-0.3-1.5-0.7-2.2C11.7,21.1,11.8,21,12.1,21 M14.4,27.2c0-0.4-0.2-0.8-0.5-1.1c-0.2-0.2-0.3-0.4-0.5-0.6
		c-0.2-0.1-0.5-0.3-0.7-0.4c-0.2,0-0.2-0.1,0-0.2c0.1-0.1,0.2-0.1,0.4-0.2c0.5-0.1,0.9-0.4,1.4-0.5c0.3-0.1,0.6-0.3,0.9-0.4
		c0.7-0.3,1.4-0.7,2.1-1c0.3-0.2,0.7-0.3,1-0.5c0.4-0.2,0.8-0.4,1.2-0.6c0.5-0.2,0.9-0.5,1.4-0.7c0.3-0.2,0.7-0.3,1-0.5c0,0,0,0,0,0
		c-2.6,2.1-5.2,4.4-7.6,6.9C14.4,27.3,14.4,27.3,14.4,27.2 M17.4,30.2c0,0,0,0.1-0.1,0.1c-0.1,0,0-0.1-0.1-0.1
		c-0.3-0.8-0.9-1.3-1.6-1.7c-0.3-0.2-0.7-0.3-1-0.3c2.9-2.1,5.5-4.5,8.1-7c-0.4,0.5-0.7,1-1,1.5c-0.4,0.6-0.8,1.2-1.2,1.9
		c-0.4,0.7-0.9,1.4-1.3,2.2c-0.4,0.7-0.8,1.3-1.1,2c-0.1,0.2-0.2,0.5-0.4,0.7C17.6,29.7,17.5,30,17.4,30.2 M21,31.1
		c-0.1,0.2-0.1,0.4-0.1,0.6c0,0.1,0,0.2-0.1,0.2c-0.1,0.1-0.1-0.1-0.2-0.1c-0.3-0.4-0.7-0.6-1.2-0.8c-0.2-0.1-0.4-0.1-0.6-0.1
		c-0.4-0.1-0.7-0.1-1-0.1c-0.1,0-0.1,0,0-0.1c0.1-0.1,0.2-0.2,0.3-0.4c0.1-0.2,0.3-0.5,0.5-0.7c0.5-0.7,1-1.5,1.5-2.2
		c0.2-0.3,0.4-0.7,0.6-1c0.3-0.4,0.5-0.8,0.8-1.2c0.3-0.4,0.5-0.8,0.8-1.3c0.4-0.7,0.9-1.4,1.2-2.2c0,0,0,0,0.1,0
		c-0.1,0.3-0.2,0.7-0.3,1c-0.2,0.5-0.3,1-0.5,1.5c-0.1,0.6-0.3,1.1-0.5,1.6c-0.1,0.5-0.3,1.1-0.4,1.6c-0.1,0.4-0.2,0.9-0.3,1.3
		c-0.1,0.3-0.1,0.6-0.2,0.9C21.2,30,21.2,30.6,21,31.1 M24.4,32.6c-0.1,0-0.1,0-0.2,0c-0.6-0.4-1.2-0.5-1.9-0.4
		c-0.2,0-0.3,0.2-0.5,0.2c-0.1,0-0.2,0.1-0.3,0.1c0,0-0.1,0-0.2,0c-0.1-0.1,0-0.1,0-0.2c0.1-0.4,0.3-0.8,0.4-1.2
		c0.2-0.6,0.4-1.2,0.6-1.8c0.1-0.4,0.3-0.9,0.4-1.3c0.2-0.6,0.4-1.3,0.5-1.9c0.2-0.7,0.3-1.3,0.5-2c0.2-0.7,0.4-1.5,0.6-2.2
		c0,0,0,0,0.1-0.1c-0.1,0.4,0,0.9-0.1,1.3c0,0.7,0,1.3,0,2c0,1.9,0,3.7,0,5.6c0,0.6,0.1,1.1,0.1,1.7C24.5,32.5,24.5,32.6,24.4,32.6
		 M24.7,20.5c-0.2,0-0.4-0.1-0.7-0.2c-0.3-0.2-0.6-0.4-0.7-0.7c-0.2-0.4-0.3-0.8-0.2-1.3c0.1-0.4,0.2-0.7,0.5-1
		c0.3-0.3,0.7-0.5,1.1-0.6c0.4-0.1,0.9,0.1,1.2,0.3c0.3,0.2,0.5,0.5,0.7,0.9c0.1,0.2,0.1,0.4,0.1,0.7c0,0.5-0.2,0.9-0.5,1.3
		c0,0-0.1,0.2-0.2,0.1c0,0-0.1,0,0,0.1c0.1,0.2-0.1,0.2-0.2,0.2C25.4,20.5,25.1,20.6,24.7,20.5 M28.5,32.6c0,0-0.1,0-0.1,0
		c-0.2-0.3-0.6-0.3-0.8-0.4c-0.3-0.1-0.7-0.1-1.1,0c-0.5,0.1-0.9,0.4-1.3,0.7c-0.1,0,0,0.1-0.2,0.1c0.1-0.4,0.1-0.9,0.1-1.3
		c0-0.5,0.1-1,0.1-1.5c0-0.7,0.1-1.3,0.1-2c0-1.7,0-3.5,0-5.2c0-0.3,0-0.5,0-0.8c0,0,0-0.1,0.1-0.1c0.1,0,0.1,0.1,0.1,0.1
		c0.2,0.6,0.3,1.1,0.5,1.7c0.2,0.8,0.4,1.5,0.7,2.3c0.3,1,0.6,2,0.9,2.9c0.2,0.5,0.4,1,0.5,1.6c0.2,0.5,0.4,1,0.6,1.4
		C28.7,32.4,28.6,32.5,28.5,32.6 M31.6,30.6c-0.2,0-0.5,0.1-0.7,0.2c-0.5,0.2-0.9,0.5-1.4,0.8c0,0-0.1,0.1-0.1,0
		c-0.1-0.1-0.1-0.1-0.1,0c0,0.1-0.1,0.2-0.1,0.2c-0.1,0-0.1-0.1-0.1-0.2c-0.1-0.3-0.1-0.6-0.2-0.9c-0.1-0.5-0.3-1.1-0.4-1.6
		c-0.2-0.5-0.3-1.1-0.4-1.7c-0.1-0.3-0.2-0.6-0.3-0.9c-0.1-0.3-0.2-0.6-0.3-0.9c-0.2-0.5-0.3-1-0.5-1.4c-0.2-0.7-0.5-1.4-0.7-2.1
		c0-0.1-0.2-0.2-0.1-0.4c2,3,3.9,6,6.2,8.8C32.2,30.5,31.9,30.5,31.6,30.6 M33,30c-1.7-3-3.7-5.8-5.7-8.6c0.2,0.1,0.4,0.2,0.5,0.3
		c0.4,0.4,0.9,0.8,1.3,1.2c0.5,0.4,1,0.9,1.5,1.3c0.3,0.2,0.6,0.5,0.9,0.7c0.3,0.2,0.5,0.5,0.8,0.7c0.2,0.2,0.5,0.4,0.8,0.6
		c0.6,0.5,1.2,1,1.9,1.4c0.1,0.1,0.1,0.1,0.3,0.2C33.9,28.2,33.3,28.9,33,30 M37.3,24.9c-0.1,0-0.1,0.2-0.3,0.1c0,0-0.1-0.1-0.1,0
		c-0.1,0.3-0.4,0.3-0.5,0.4c-0.6,0.4-0.8,1-0.9,1.7c0,0.1,0,0.2,0,0.3c0,0.1,0.1,0.2,0,0.2c-0.1,0-0.1-0.1-0.2-0.1
		c-0.4-0.4-0.7-0.8-1.1-1.2c-0.2-0.2-0.4-0.4-0.7-0.6c-0.3-0.3-0.6-0.6-1-0.9c-0.3-0.3-0.7-0.5-0.9-0.8c-0.3-0.3-0.7-0.6-1-0.9
		c-0.2-0.2-0.4-0.3-0.6-0.5c-0.4-0.4-0.8-0.7-1.2-1.1c-0.3-0.2-0.6-0.5-0.9-0.7c0,0-0.1,0-0.2-0.1c0.2-0.1,0.3,0,0.4,0.1
		c0.4,0.2,0.8,0.4,1.2,0.6c0.5,0.3,1.1,0.5,1.6,0.8c0.7,0.3,1.3,0.6,2,0.9c0.6,0.3,1.3,0.6,1.9,0.8c0.7,0.3,1.3,0.5,2,0.7
		c0.1,0,0.2,0.2,0.4,0.2C37.3,24.7,37.3,24.8,37.3,24.9 M37.9,21c-0.1,0.2-0.2,0.4-0.3,0.6c-0.3,0.6-0.4,1.2-0.4,1.8
		c0,0.2-0.1,0.2-0.3,0.1c-0.7-0.4-1.5-0.8-2.2-1.2c-0.6-0.3-1.2-0.6-1.9-0.9c-0.4-0.2-0.8-0.4-1.2-0.6c-0.4-0.1-0.8-0.3-1.1-0.5
		c-0.5-0.2-1.1-0.5-1.6-0.7c-0.2-0.1-0.4-0.2-0.7-0.3c0.3-0.1,0.5,0,0.7,0.1c0.2,0.1,0.5,0.1,0.7,0.1c0.3,0,0.5,0.1,0.8,0.1
		c0.4,0,0.7,0.1,1.1,0.2c0.3,0.1,0.6,0.1,0.9,0.2c0.3,0,0.5,0.1,0.7,0.2c0.2,0,0.3,0,0.5,0c0.7,0,1.4,0.2,2,0.2
		c0.7,0.1,1.4,0.1,2.1,0.2C38.1,20.8,38,20.9,37.9,21 M37.9,19.8c-0.4-0.1-0.8-0.2-1.2-0.3c-0.3-0.1-0.7,0-1-0.2c0,0-0.1,0-0.1,0
		c0,0.1-0.1,0.1-0.1,0c-0.5-0.2-1.1-0.2-1.6-0.2c-0.3,0-0.6-0.1-0.9-0.1c-0.5,0-0.9-0.1-1.4-0.1c-1.1-0.1-2.2-0.1-3.3-0.3
		c1.1-0.1,2.2-0.3,3.3-0.4c1.1-0.1,2.1-0.3,3.2-0.4c1.1-0.2,2.2-0.3,3.3-0.6c-0.3,1-0.4,2,0.4,2.8C38.3,20,38.1,19.9,37.9,19.8"/>
	<path class="st33" d="M41.3,17.7c0-1.4-0.2-2.8-0.6-4.1c-0.4-1.2-0.8-2.5-1.5-3.6c-0.5-0.8-0.9-1.6-1.5-2.3
		c-0.2-0.3-0.4-0.5-0.6-0.8c-0.3-0.4-0.7-0.7-1.1-1.1c-0.3-0.3-0.7-0.6-1-0.9c-0.2-0.2-0.4-0.2-0.5-0.4c-0.5-0.4-1.1-0.7-1.6-1.1
		c-0.4-0.3-0.8-0.4-1.2-0.6c-0.1,0-0.2-0.2-0.3-0.2c-0.2,0-0.5-0.1-0.7-0.2C30,2.1,29.3,2,28.5,1.8c-0.5-0.1-1-0.2-1.5-0.3
		c-0.3,0-0.6,0-0.9-0.1h-2.3c-0.2,0-0.3,0.1-0.5,0.1c-0.4,0-0.8,0.2-1.2,0.1c0,0,0,0,0,0c-0.3,0.2-0.6,0.2-0.9,0.3
		c-0.5,0.1-1,0.3-1.4,0.4c-0.5,0.2-1,0.4-1.5,0.6c-0.2,0.1-0.4,0.2-0.6,0.3c-0.5,0.2-0.9,0.5-1.3,0.7C16,4,15.7,4.2,15.5,4.4
		c-0.1,0.1-0.3,0.2-0.5,0.3c-0.2,0.2-0.4,0.3-0.6,0.5c-0.3,0.2-0.6,0.5-0.8,0.8c-0.4,0.4-0.7,0.8-1.1,1.2c-0.2,0.3-0.4,0.5-0.7,0.8
		c-0.2,0.2-0.3,0.5-0.5,0.7c-0.4,0.6-0.8,1.3-1.1,1.9c-0.2,0.5-0.5,1-0.7,1.6c-0.2,0.6-0.4,1.3-0.6,1.9c-0.3,1-0.4,2-0.4,3
		c0,1-0.1,2,0,3c0,0.3,0,0.6,0.1,0.8c0.2,0.9,0.3,1.8,0.6,2.6c0.1,0.3,0.2,0.7,0.3,1c0.4,1.1,0.9,2.1,1.5,3.1
		c0.2,0.4,0.6,0.8,0.9,1.3c0.5,0.7,1,1.3,1.6,1.9c0.4,0.4,0.8,0.8,1.3,1.2c0.5,0.4,1,0.8,1.6,1.2c0.7,0.4,1.4,0.9,2.2,1.2
		c0.3,0.1,0.6,0.3,0.9,0.4c0.3,0.1,0.6,0.2,0.9,0.3c0.4,0.1,0.8,0.2,1.2,0.3c0.4,0.1,0.8,0.2,1.2,0.2c0.4,0,0.8,0.2,1.2,0.1
		c1.1,0,2.1,0.1,3.2-0.1c0.6-0.1,1.2-0.1,1.8-0.3c0.7-0.2,1.5-0.4,2.2-0.7c0.4-0.2,0.8-0.3,1.1-0.5c0.7-0.4,1.4-0.7,2-1.2
		c0.2-0.1,0.4-0.2,0.5-0.4c0.1-0.1,0.3-0.2,0.5-0.4c0.4-0.4,0.9-0.8,1.4-1.3c0.3-0.3,0.6-0.5,0.8-0.8c0.3-0.4,0.6-0.7,0.9-1.1
		c0.2-0.4,0.5-0.7,0.7-1c0.2-0.3,0.4-0.6,0.6-1c0.3-0.5,0.5-1,0.7-1.5c0.1-0.3,0.2-0.6,0.4-0.9c0.1-0.1,0.1-0.3,0.1-0.4
		c0.1-0.3,0.2-0.6,0.3-0.9c0.1-0.4,0.2-0.8,0.3-1.2c0.2-0.7,0.3-1.5,0.3-2.2C41.4,19.1,41.3,18.4,41.3,17.7 M40.8,20.1
		c0,0.7-0.1,1.4-0.3,2.1c-0.1,0.3-0.1,0.7-0.2,1c-0.2,0.8-0.5,1.6-0.8,2.3c-0.2,0.5-0.5,1-0.8,1.6c-0.1,0.2-0.3,0.5-0.4,0.7
		c-0.2,0.2-0.3,0.5-0.4,0.7c-0.3,0.5-0.6,0.9-1,1.3c-0.2,0.2-0.4,0.5-0.6,0.8c-0.3,0.3-0.7,0.7-1.1,1c-0.5,0.5-1.1,0.9-1.7,1.3
		c-0.8,0.5-1.6,1-2.4,1.3c-0.6,0.2-1.1,0.4-1.7,0.6c-0.6,0.2-1.3,0.3-2,0.5c-1.3,0.3-2.5,0.2-3.8,0.2c-0.4,0-0.7-0.1-1.1-0.2
		c-0.6-0.1-1.1-0.2-1.7-0.4c-0.5-0.1-1-0.3-1.5-0.5c-0.4-0.1-0.7-0.3-1.1-0.5c-0.5-0.2-1-0.4-1.4-0.7c-0.4-0.3-0.8-0.5-1.1-0.8
		c-0.4-0.3-0.7-0.6-1.1-0.9c-0.5-0.4-0.9-0.9-1.4-1.3c-0.4-0.4-0.8-0.9-1.1-1.4c-0.2-0.3-0.4-0.5-0.5-0.8c-0.4-0.7-0.8-1.4-1.2-2.2
		c-0.2-0.4-0.3-0.8-0.4-1.2c-0.1-0.3-0.2-0.6-0.3-0.9c-0.2-0.6-0.4-1.2-0.5-1.8c-0.1-0.4-0.1-0.7-0.2-1.1C9,20.2,9,19.6,9,19
		c0-0.5,0-1.1,0-1.6c0.1-0.7,0.1-1.3,0.2-2c0.1-0.5,0.2-0.9,0.3-1.4c0.1-0.3,0.1-0.6,0.3-0.9c0.3-0.7,0.5-1.4,0.9-2
		c0.2-0.4,0.4-0.8,0.6-1.1c0.1-0.1,0.2-0.3,0.3-0.5c0.4-0.6,0.8-1.2,1.3-1.8c0.2-0.2,0.3-0.4,0.5-0.6c0.3-0.3,0.6-0.6,0.9-0.9
		c0.5-0.5,1-0.9,1.6-1.3c0.6-0.4,1.2-0.8,1.9-1.1c0.4-0.2,0.8-0.4,1.3-0.6c0.3-0.1,0.6-0.3,1-0.4c0.3-0.1,0.6-0.2,0.9-0.3
		c0.3-0.1,0.7-0.2,1.1-0.3C22.5,2.1,23.1,2,23.7,2c0.4-0.1,0.8,0,1.2,0c0.6-0.1,1.2,0,1.9,0.1c0.6,0.1,1.1,0.2,1.7,0.3
		C29,2.5,29.5,2.7,30,2.8c0.3,0.1,0.6,0.2,0.9,0.4c0.4,0.2,0.8,0.4,1.2,0.6c0.7,0.4,1.3,0.8,1.9,1.2c0.5,0.4,1,0.8,1.5,1.2
		c0.4,0.3,0.8,0.7,1.1,1.1c0.4,0.4,0.7,0.8,1,1.3c0.6,0.8,1.1,1.6,1.5,2.5c0.2,0.5,0.5,1,0.6,1.5c0.2,0.5,0.4,1,0.5,1.5
		c0.1,0.5,0.2,0.9,0.3,1.4c0.1,0.6,0.2,1.3,0.2,1.9C40.8,18.3,40.8,19.2,40.8,20.1"/>
</g>
</svg>
