<?xml version="1.0" encoding="UTF-8"?>
<svg id="Layer_1" data-name="Layer 1" xmlns="http://www.w3.org/2000/svg" xmlns:xlink="http://www.w3.org/1999/xlink" viewBox="0 0 32 32">
  <defs>
    <style>
      .cls-1 {
        fill: url(#linear-gradient-5);
      }

      .cls-2 {
        fill: url(#linear-gradient-4);
      }

      .cls-3 {
        fill: url(#linear-gradient-3);
      }

      .cls-4 {
        fill: url(#linear-gradient-2);
      }

      .cls-5 {
        fill: url(#linear-gradient);
      }
    </style>
    <linearGradient id="linear-gradient" x1="2.36" y1="15.88" x2="28.13" y2="15.88" gradientUnits="userSpaceOnUse">
      <stop offset="0" stop-color="#e93927"/>
      <stop offset=".52" stop-color="#e93a26"/>
      <stop offset=".71" stop-color="#e94126"/>
      <stop offset=".85" stop-color="#eb4d25"/>
      <stop offset=".95" stop-color="#ec5e24"/>
      <stop offset="1" stop-color="#ee6824"/>
    </linearGradient>
    <linearGradient id="linear-gradient-2" x1="6.02" y1="6.49" x2="6.67" y2="6.49" xlink:href="#linear-gradient"/>
    <linearGradient id="linear-gradient-3" x1="4.71" y1="6.5" x2="5.36" y2="6.5" xlink:href="#linear-gradient"/>
    <linearGradient id="linear-gradient-4" x1="7.33" y1="6.49" x2="7.98" y2="6.49" xlink:href="#linear-gradient"/>
    <linearGradient id="linear-gradient-5" x1="6" y1="20.11" x2="26.15" y2="20.11" xlink:href="#linear-gradient"/>
  </defs>
  <path class="cls-5" d="M4.34,4.16l-.64.21c-.74.39-1.25,1.07-1.33,1.91v20.66c-.03.38.21.63.57.69h9.94c.53,0,.83-.63.47-1.02-.05-.05-.31-.19-.36-.19H3.52V8.91l.08-.08h23.37v16.46c0,.06.24.31.31.35.34.17.79-.01.85-.4V6.16c-.16-1.04-.92-1.76-1.92-2.01"/>
  <path class="cls-5" d="M26.2,4.16c1,.24,1.76.97,1.92,2.01v19.07c-.05.39-.51.58-.84.4-.07-.04-.31-.29-.31-.35V8.82H3.6l-.08.08v17.5h9.48s.31.14.36.19c.36.39.06,1.02-.47,1.02H2.94c-.37-.05-.61-.31-.58-.68V6.27c.09-.84.6-1.52,1.34-1.91l.64-.21h21.86ZM3.52,6.49c-.04.37.03.8,0,1.18h23.46v-1.35c0-.15-.25-.57-.37-.69-.28-.26-.61-.28-.97-.33H4.91c-.76,0-1.31.41-1.4,1.18Z"/>
  <path class="cls-4" d="M6.24,6.18c.51-.11.59.66.09.64-.4-.01-.4-.57-.09-.64Z"/>
  <path class="cls-3" d="M4.96,6.18c.45-.09.54.54.2.63-.51.13-.59-.55-.2-.63Z"/>
  <path class="cls-2" d="M7.57,6.18c.45-.1.55.53.23.62-.51.16-.61-.54-.23-.62Z"/>
  <path class="cls-1" d="M7.28,24.01l-1.28-.91,4.18-6.79,2.61,3.13,3.66-5.75,2.61,3.66c-.3,0-.6.02-.88.07s-.56.12-.84.22l-.83-1.13-3.55,5.6-2.59-3.11-3.09,5.03ZM24.88,29.66l-3.06-3.06c-.33.22-.68.38-1.06.5s-.77.17-1.18.17c-1.16,0-2.15-.41-2.96-1.22-.81-.81-1.22-1.8-1.22-2.96s.41-2.15,1.22-2.96c.81-.81,1.8-1.22,2.96-1.22s2.15.41,2.96,1.22,1.22,1.8,1.22,2.96c0,.41-.06.81-.17,1.18s-.28.73-.5,1.06l3.06,3.06-1.27,1.27ZM19.63,25.81c.74,0,1.37-.26,1.89-.78.52-.52.78-1.15.78-1.89s-.26-1.37-.78-1.89-1.15-.78-1.89-.78-1.37.26-1.89.78-.78,1.15-.78,1.89.26,1.37.78,1.89c.52.52,1.15.78,1.89.78ZM20.76,17.63c-.26-.1-.54-.17-.83-.22s-.58-.07-.87-.07l4.46-6.79,1.28.91-4.05,6.16Z"/>
</svg>