<?xml version="1.0" encoding="utf-8"?>
<!-- Generator: Adobe Illustrator 27.3.1, SVG Export Plug-In . SVG Version: 6.00 Build 0)  -->
<svg version="1.1" id="Layer_1" xmlns="http://www.w3.org/2000/svg" xmlns:xlink="http://www.w3.org/1999/xlink" x="0px" y="0px"
	 viewBox="0 0 150 150" enable-background="new 0 0 150 150" xml:space="preserve">
<g>
	<g>
		<rect x="0" fill="none" width="150" height="150"/>
	</g>
	<g>
		<rect x="10" y="10" fill="none" width="130" height="130"/>
	</g>
</g>
<path fill="#343634" d="M10,123.1V27c0-2.9,1.2-5.2,3.7-6.8c2.5-1.6,5.1-1.8,7.9-0.8l113.3,47.8c3.4,1.4,5.1,4,5.1,7.7
	s-1.7,6.3-5.1,7.7L21.6,130.4c-2.8,1.2-5.5,1-7.9-0.6C11.2,128.2,10,126,10,123.1z M24.6,113l90.8-38L24.6,36.5v25.7L69.1,75
	L24.6,87.5V113z M24.6,75V36.5V113V75z"/>
</svg>
