<?xml version="1.0" encoding="utf-8"?>
<!-- Generator: Adobe Illustrator 27.3.1, SVG Export Plug-In . SVG Version: 6.00 Build 0)  -->
<svg version="1.1" id="Layer_1" xmlns="http://www.w3.org/2000/svg" xmlns:xlink="http://www.w3.org/1999/xlink" x="0px" y="0px"
	 viewBox="0 0 150 150" enable-background="new 0 0 150 150" xml:space="preserve">
<g>
	<g>
		<rect x="0" fill="none" width="150" height="150"/>
	</g>
	<g>
		<rect x="10" y="10" fill="none" width="130" height="130"/>
	</g>
</g>
<g>
	<path fill="#343634" d="M24.6,129.5c-3.9,0-7.3-1.4-10-4.1s-4-6.1-4-10c0-3.8,1.3-7.1,4-9.9c2.7-2.7,6-4.1,10-4.1h100.7
		c3.9,0,7.3,1.4,10,4.1c2.7,2.7,4,6,4,9.9c0,3.9-1.3,7.3-4,10c-2.7,2.7-6,4.1-10,4.1L24.6,129.5z M31.7,121.5h12v-12.1h-12V121.5z
		 M24.6,48.6c-3.9,0-7.3-1.4-10-4.1c-2.7-2.7-4-6.1-4-10c0-3.8,1.3-7.1,4-9.9s6-4.1,10-4.1h100.7c3.9,0,7.3,1.4,10,4.1
		c2.7,2.7,4,6,4,9.9c0,3.9-1.3,7.3-4,10c-2.7,2.7-6,4.1-10,4.1L24.6,48.6z M31.7,40.5h12V28.4h-12V40.5z M24.6,89
		c-3.9,0-7.3-1.4-10-4.1c-2.7-2.7-4-6-4-9.9c0-3.9,1.3-7.3,4-10c2.7-2.7,6-4,10-4h100.7c3.9,0,7.3,1.4,10,4.1c2.7,2.7,4,6,4,9.9
		c0,3.9-1.3,7.3-4,10c-2.7,2.7-6,4-10,4L24.6,89z M31.7,81.1h12V68.9h-12V81.1z"/>
</g>
</svg>
