<?xml version="1.0" encoding="utf-8"?>
<!-- Generator: Adobe Illustrator 27.7.0, SVG Export Plug-In . SVG Version: 6.00 Build 0)  -->
<svg version="1.1" id="Layer_1" xmlns="http://www.w3.org/2000/svg" xmlns:xlink="http://www.w3.org/1999/xlink" x="0px" y="0px"
	 viewBox="0 0 150 150" style="enable-background:new 0 0 150 150;" xml:space="preserve">
<style type="text/css">
	.st0{fill:none;}
	.st1{fill:#343634;}
</style>
<g>
	<g>
		<rect class="st0" width="150" height="150"/>
	</g>
	<g>
		<rect x="10" y="10" class="st0" width="130" height="130"/>
	</g>
</g>
<path class="st1" d="M125,132.7l-14.5-14.2c-1.8,1.2-3.8,2.1-6,2.6c-2.1,0.6-4.3,0.8-6.3,0.8c-6.8,0-12.7-2.4-17.6-7.2
	c-4.9-4.8-7.3-10.7-7.3-17.5c0-6.8,2.4-12.7,7.3-17.6s10.7-7.3,17.6-7.3s12.7,2.4,17.6,7.3c4.9,4.9,7.3,10.7,7.3,17.6
	c0,2.2-0.3,4.4-1,6.4c-0.7,2.1-1.5,4.1-2.6,6l14.4,14.1c1.2,1.4,1.8,3,1.9,4.7c0,1.7-0.5,3.2-1.7,4.3c-1.1,1.3-2.6,1.9-4.5,1.9
	C127.6,134.6,126.1,133.9,125,132.7z M98.2,109.3c3.3,0,6.2-1.2,8.6-3.6c2.4-2.4,3.7-5.3,3.7-8.5c0-3.4-1.2-6.3-3.7-8.8
	c-2.4-2.4-5.3-3.7-8.6-3.7c-3.4,0-6.3,1.2-8.6,3.7c-2.3,2.4-3.5,5.4-3.5,8.8c0,3.3,1.2,6.2,3.6,8.6C92,108.1,94.9,109.3,98.2,109.3z
	 M16.1,102.4c-1.3-0.9-2.1-2.1-2.4-3.8c-0.3-1.7-0.1-3.3,0.7-4.7l20.9-33.3c1.2-1.7,2.9-2.6,5-2.8s4,0.4,5.5,2l8.7,10.6l14.9-23.9
	c1.1-2,2.8-3,5.2-3s4.1,1,5.3,2.9l12.2,18.1c-2.1,0.4-4.1,1.1-6.1,2c-1.9,0.9-3.8,2-5.6,3.4L75,61.3l-14,22.8c-1.2,1.8-2.9,2.8-5,3
	c-2.1,0.3-3.8-0.4-5.1-2.1l-9.4-10.6l-16.4,26.1c-1,1.8-2.4,2.8-4.2,3C19.1,103.9,17.5,103.5,16.1,102.4z M110.3,65.9
	c-2.3-0.9-4.6-1.5-6.9-1.7c-2.3-0.2-4.6-0.3-6.9-0.2l28.5-45.6c0.8-1.6,2.2-2.5,4-2.8c1.8-0.3,3.4,0,4.8,1c1.3,1,2.1,2.4,2.5,4.1
	c0.4,1.7,0.1,3.2-0.7,4.5L110.3,65.9z"/>
</svg>
