<?xml version="1.0" encoding="utf-8"?>
<!-- Generator: Adobe Illustrator 27.3.1, SVG Export Plug-In . SVG Version: 6.00 Build 0)  -->
<svg version="1.1" id="Layer_1" xmlns="http://www.w3.org/2000/svg" xmlns:xlink="http://www.w3.org/1999/xlink" x="0px" y="0px"
	 viewBox="0 0 150 150" enable-background="new 0 0 150 150" xml:space="preserve">
<g>
	<g>
		<rect x="0" fill="none" width="150" height="150"/>
	</g>
	<g>
		<rect x="10" y="10" fill="none" width="130" height="130"/>
	</g>
</g>
<g id="Group_13432" transform="translate(0.199)">
	<g id="Group_13252" transform="translate(0 0)">
		<path id="payments_FILL0_wght700_GRAD0_opsz48" fill="#343634" d="M84.6,78.4c-9.3,0-16.8-7.5-16.9-16.7c0,0,0-0.1,0-0.1
			c0-9.3,7.5-16.8,16.7-16.9c0,0,0.1,0,0.1,0c9.3,0,16.8,7.5,16.9,16.7c0,0,0,0.1,0,0.1c0,9.3-7.5,16.8-16.7,16.9
			C84.7,78.4,84.7,78.4,84.6,78.4L84.6,78.4z M43,101.4c-7.3,0.1-13.3-5.8-13.4-13.1c0-0.1,0-0.2,0-0.3V35.1c0-3.5,1.3-6.9,3.9-9.4
			c2.5-2.6,5.9-4,9.5-3.9h83.6c3.5-0.1,6.9,1.4,9.4,3.9c2.5,2.5,3.9,5.9,3.9,9.4V88c0.1,3.6-1.3,7-3.9,9.5c-2.5,2.5-5.8,3.9-9.4,3.9
			L43,101.4z M55.4,89.7H114c-0.1-7.7,6.1-14,13.8-14.1c0.1,0,0.2,0,0.3,0V47.5c-3.8,0.1-7.4-1.4-10-4.1c-2.7-2.6-4.1-6.2-4.1-9.9
			H55.4c0.1,3.7-1.4,7.3-4.1,9.9c-2.6,2.7-6.2,4.2-10,4.1v28.1c7.7-0.1,14,6.1,14.1,13.8C55.4,89.5,55.4,89.6,55.4,89.7z
			 M22.8,121.5c-3.5,0.1-6.9-1.3-9.4-3.9c-2.5-2.5-3.9-5.8-3.9-9.4V51.7c-0.1-3.6,2.8-6.5,6.4-6.6c0.1,0,0.2,0,0.3,0
			c3.6-0.1,6.5,2.8,6.6,6.4c0,0.1,0,0.2,0,0.3v56.6h90.3c3.7-0.1,6.7,2.7,6.8,6.4c0.1,3.7-2.7,6.7-6.4,6.8c-0.1,0-0.3,0-0.4,0H22.8z
			 M41.3,89.7L41.3,89.7z"/>
	</g>
</g>
</svg>
