<?xml version="1.0" encoding="utf-8"?>
<!-- Generator: Adobe Illustrator 27.7.0, SVG Export Plug-In . SVG Version: 6.00 Build 0)  -->
<svg version="1.1" id="Layer_1" xmlns="http://www.w3.org/2000/svg" xmlns:xlink="http://www.w3.org/1999/xlink" x="0px" y="0px"
	 viewBox="0 0 150 150" style="enable-background:new 0 0 150 150;" xml:space="preserve">
<style type="text/css">
	.st0{fill:none;}
	.st1{fill:#343634;}
</style>
<g>
	<g>
		<rect class="st0" width="150" height="150"/>
	</g>
	<g>
		<rect x="10" y="10" class="st0" width="130" height="130"/>
	</g>
</g>
<path class="st1" d="M46.5,21.4c5.6,0,10.8,1.2,15.8,3.5c4.9,2.3,9.2,5.5,12.7,9.5c3.5-4,7.7-7.2,12.7-9.5s10.2-3.5,15.7-3.5
	c9.6,0,17.7,3.4,24.5,10.2s10.2,15,10.2,24.6c0,3.5-0.5,7.2-1.6,11c-1.1,3.8-2.7,7.6-5,11.3c-1.5-1.4-3.2-2.4-5.1-3s-3.9-1-6.1-1.2
	c1.9-3.2,3.3-6.3,4.3-9.3c1-3,1.5-6,1.5-8.9c0-6.3-2.2-11.6-6.7-16.1c-4.5-4.5-9.8-6.7-16.1-6.7c-4.2,0-8.6,1.1-13.1,3.3
	S80.7,43.5,75,50.6c-5.7-7.1-10.8-11.8-15.3-13.9s-8.9-3.3-13.2-3.3c-6.3,0-11.6,2.2-16,6.7S24,49.9,24,56.1c0,2.9,0.5,5.9,1.5,9
	c1,3.1,2.4,6.1,4.3,9.2c-2.1,0.1-4.1,0.5-6.1,1.3c-1.9,0.8-3.6,1.8-5.1,3c-2.4-3.8-4.1-7.6-5.2-11.3c-1-3.8-1.5-7.5-1.5-11.1
	c0-9.6,3.4-17.8,10.2-24.6S37,21.4,46.5,21.4z M16.6,128.6c-1.8,0-3.3-0.6-4.4-1.7c-1.1-1.1-1.7-2.5-1.7-4.3v-2.4
	c0-3.8,1.9-6.9,5.7-9.2c3.8-2.3,8.9-3.5,15.4-3.5c0.6,0,1.2,0,1.9,0.1c0.7,0.1,1.2,0,1.7-0.1c-0.8,1.7-1.4,3.4-1.9,5.3
	c-0.5,1.9-0.7,3.9-0.7,6v9.7H16.6z M48.2,128.6c-1.8,0-3.3-0.6-4.4-1.7c-1.1-1.1-1.7-2.5-1.7-4.3v-3.7c0-6.2,3-11.2,9-14.9
	s14-5.7,23.8-5.7c9.8,0,17.8,1.9,23.8,5.7c6.1,3.8,9.1,8.7,9.1,14.9v3.8c0,1.7-0.6,3.2-1.7,4.3c-1.1,1.1-2.5,1.7-4.3,1.7H48.2z
	 M117.5,128.6v-9.8c0-2-0.2-3.9-0.7-5.9s-1.1-3.7-1.8-5.4c0.3,0.1,0.9,0.1,1.5,0.1c0.7,0,1.3-0.1,1.9-0.1c6.4,0,11.5,1.2,15.3,3.5
	c3.8,2.3,5.7,5.4,5.7,9.3v2.3c0,1.8-0.6,3.2-1.7,4.3c-1.1,1.1-2.5,1.7-4.3,1.7H117.5z M75,108.5c-6,0-10.8,0.9-14.7,2.6
	c-3.8,1.8-6,4-6.5,6.8v0.5h42.4v-0.7c-0.4-2.7-2.6-5-6.5-6.7C85.9,109.4,80.9,108.5,75,108.5z M31.6,103.9c-2.8,0-5.2-1-7.1-2.9
	c-1.9-1.9-2.9-4.3-2.9-7.2c0-2.7,1-5,2.9-7c2-2,4.3-3,7.1-3s5.2,1,7.1,3c2,2,3,4.3,3,7.1c0,2.8-1,5.1-3,7
	C36.8,102.9,34.4,103.9,31.6,103.9z M118.4,103.9c-2.8,0-5.2-1-7.1-2.9c-1.9-1.9-2.9-4.3-2.9-7.2c0-2.7,1-5,2.9-7c2-2,4.3-3,7.1-3
	s5.2,1,7.1,3c2,2,3,4.3,3,7.1c0,2.8-1,5.1-3,7C123.6,102.9,121.2,103.9,118.4,103.9z M75,94.5c-4.6,0-8.6-1.7-12-5.1
	c-3.4-3.4-5.1-7.4-5.1-12c0-4.6,1.7-8.6,5.1-12c3.4-3.4,7.4-5.1,12-5.1c4.6,0,8.6,1.7,12,5.1c3.4,3.4,5.1,7.4,5.1,12
	c0,4.6-1.7,8.6-5.1,12C83.6,92.8,79.6,94.5,75,94.5z M75,70.3c-2,0-3.6,0.7-5,2.1c-1.3,1.4-2,3.1-2,5.1s0.7,3.7,2.1,5
	c1.4,1.3,3,1.9,5,1.9c1.9,0,3.6-0.7,5-2c1.4-1.3,2.1-3,2.1-5c0-2-0.7-3.7-2.1-5C78.6,71,77,70.3,75,70.3z"/>
</svg>
