<?xml version="1.0" encoding="utf-8"?>
<!-- Generator: Adobe Illustrator 27.7.0, SVG Export Plug-In . SVG Version: 6.00 Build 0)  -->
<svg version="1.1" id="Layer_1" xmlns="http://www.w3.org/2000/svg" xmlns:xlink="http://www.w3.org/1999/xlink" x="0px" y="0px"
	 viewBox="0 0 150 150" style="enable-background:new 0 0 150 150;" xml:space="preserve">
<style type="text/css">
	.st0{fill:#343634;}
	.st1{fill:none;}
</style>
<path class="st0" d="M45.7,87.7v3.2c0,1.3,0.4,2.4,1.2,3.2c0.8,0.8,1.9,1.2,3.2,1.2c1.3,0,2.4-0.4,3.3-1.2c0.9-0.8,1.3-1.9,1.3-3.2
	V75.3c0-1.3-0.4-2.4-1.3-3.3c-0.9-0.9-2-1.3-3.3-1.3c-1.3,0-2.4,0.4-3.2,1.3c-0.8,0.9-1.2,2-1.2,3.3v3.1H41c-1.3,0-2.4,0.4-3.2,1.3
	c-0.8,0.9-1.2,2-1.2,3.3c0,1.3,0.4,2.4,1.3,3.3c0.9,0.9,2,1.3,3.3,1.3H45.7z M68.7,87.7h40.1c1.3,0,2.4-0.4,3.3-1.3
	c0.9-0.9,1.3-2,1.3-3.3s-0.4-2.4-1.3-3.3c-0.9-0.9-2-1.3-3.3-1.3H68.7c-1.3,0-2.4,0.4-3.3,1.3c-0.9,0.9-1.3,2-1.3,3.3
	c0,1.3,0.4,2.4,1.3,3.3C66.4,87.2,67.5,87.7,68.7,87.7z M104.3,59.7h4.6c1.3,0,2.4-0.5,3.3-1.4c0.9-1,1.3-2.1,1.3-3.3
	c0-1.2-0.4-2.2-1.3-3.2c-0.9-1-2-1.5-3.3-1.5h-4.6v-3.1c0-1.2-0.4-2.3-1.3-3.2c-0.9-0.9-2-1.4-3.3-1.4c-1.3,0-2.4,0.5-3.2,1.4
	c-0.8,0.9-1.2,2-1.2,3.2v15.4c0,1.3,0.4,2.4,1.2,3.4c0.8,0.9,1.9,1.4,3.2,1.4c1.3,0,2.4-0.5,3.3-1.4c0.9-0.9,1.3-2.1,1.3-3.4V59.7z
	 M41.1,59.7h40.1c1.3,0,2.4-0.5,3.3-1.4c0.9-1,1.4-2.1,1.4-3.3c0-1.2-0.5-2.2-1.4-3.2c-0.9-1-2-1.5-3.3-1.5H41
	c-1.3,0-2.4,0.5-3.2,1.4c-0.8,0.9-1.2,2-1.2,3.2c0,1.3,0.4,2.4,1.3,3.3C38.7,59.2,39.8,59.7,41.1,59.7z M23.8,122.7
	c-3.9,0-7.2-1.4-9.9-4.1s-4.1-6.1-4.1-9.9V31.3c0-3.9,1.4-7.2,4.1-10c2.8-2.8,6.1-4.2,9.9-4.2H126c3.9,0,7.2,1.4,10,4.2
	c2.8,2.8,4.2,6.1,4.2,10v77.3c0,3.9-1.4,7.2-4.2,9.9c-2.8,2.8-6.1,4.1-10,4.1H99.8v5.1c0,2.1-0.7,3.9-2.1,5.2
	c-1.4,1.3-3.1,1.9-5,1.9H57.3c-2,0-3.7-0.6-5-1.9c-1.4-1.3-2.1-3-2.1-5.2v-5.1H23.8z M23.8,108.6H126V31.3H23.8V108.6z M23.8,108.6
	V31.3V108.6z"/>
<g>
	<g>
		<rect class="st1" width="150" height="150"/>
	</g>
	<g>
		<rect x="10" y="10" class="st1" width="130" height="130"/>
	</g>
</g>
</svg>
