<?xml version="1.0" encoding="utf-8"?>
<!-- Generator: Adobe Illustrator 27.7.0, SVG Export Plug-In . SVG Version: 6.00 Build 0)  -->
<svg version="1.1" id="Layer_1" xmlns="http://www.w3.org/2000/svg" xmlns:xlink="http://www.w3.org/1999/xlink" x="0px" y="0px"
	 viewBox="0 0 150 150" style="enable-background:new 0 0 150 150;" xml:space="preserve">
<style type="text/css">
	.st0{fill:none;}
	.st1{fill:#343634;}
</style>
<g>
	<g>
		<rect class="st0" width="150" height="150"/>
	</g>
	<g>
		<rect x="10" y="10" class="st0" width="130" height="130"/>
	</g>
</g>
<path class="st1" d="M64.9,75.1c-3.2,0-5.8-1.1-7.7-3.4c-1.9-2.3-2.6-5-2.1-8.1l1.7-10.8c0.8-4.4,2.8-8,6.2-10.9
	c3.4-2.9,7.4-4.3,11.9-4.3c4.6,0,8.6,1.4,12,4.3c3.4,2.9,5.5,6.5,6.3,10.9l1.9,10.8c0.5,3.2-0.3,5.9-2.2,8.1
	c-1.9,2.3-4.5,3.4-7.6,3.4H64.9z M66.2,64.2h17.7l-1.4-9.3c-0.2-1.7-1.1-3.2-2.6-4.4c-1.5-1.2-3.1-1.8-4.8-1.8
	c-1.8,0-3.4,0.6-4.9,1.8c-1.5,1.2-2.3,2.7-2.4,4.4L66.2,64.2z M25.8,86c-2.2,0.1-4-0.3-5.5-1.2c-1.5-0.9-2.5-2.3-3-4.3
	c-0.3-0.7-0.3-1.5-0.1-2.3c0.2-0.8,0.5-1.6,0.8-2.4c0,0.1,0-0.2-0.1-0.7c-0.3-0.4-0.6-0.9-0.9-1.5c-0.3-0.5-0.5-1.1-0.5-1.8
	c-0.1-0.8,0-1.7,0.5-2.8c0.4-1.1,1-2,1.6-2.8c-0.1,0,0-0.1,0.4-0.2c0.1-1.8,0.8-3.2,1.9-4.3c1.2-1.1,2.8-1.7,4.8-1.7
	c0.2,0,0.9,0.1,2.4,0.4l0.4-0.1c0.5-0.4,1.2-0.7,1.9-1c0.8-0.3,1.5-0.5,2.2-0.5c1,0,1.9,0.2,2.7,0.6s1.4,0.9,1.9,1.5
	c0.1,0,0.2,0,0.2,0.1c0.1,0,0.1,0.1,0.2,0.1c1.3,0,2.4,0.3,3.5,1c1,0.6,1.7,1.6,2,3c-0.1,0.5-0.1,1.1,0,1.8s0,1.2-0.1,1.6
	c0,0.2,0,0.4,0.1,0.6c0.5,0.5,0.9,1.2,1.4,2c0.4,0.8,0.7,1.7,0.7,2.5c0,0.5-0.3,1.4-0.9,2.8v0.5c0.1,0.4,0.1,1.1,0.1,2.3
	c0,2.1-0.8,3.8-2.4,5c-1.6,1.3-3.5,1.9-5.7,1.9H25.8z M122.1,85.9c-2.9,0-5.5-1.1-7.7-3.3c-2.2-2.2-3.2-4.8-3.2-7.8
	c0-0.8,0.2-1.7,0.5-2.7c0.3-1,0.8-2,1.4-3.2l-4-3.3c-0.8-0.8-0.8-1.7-0.2-2.8c0.6-1.1,1.3-1.7,2.2-1.7h11c3,0,5.6,1.1,7.8,3.2
	c2.2,2.1,3.3,4.7,3.3,7.8V75c0,3-1.1,5.5-3.3,7.7C127.6,84.8,125,85.9,122.1,85.9z M11.2,112.4c-2,0-3.6-0.6-4.8-1.8
	s-1.8-2.8-1.8-4.9v-2.4c0-4.2,2.1-7.6,6.2-10.1s9.7-3.8,16.8-3.8c0.7,0,1.3,0,2.1,0c0.7,0,1.3,0,1.8,0c-0.9,1.8-1.6,3.8-2.1,5.8
	c-0.5,2-0.8,4.2-0.8,6.6v10.6H11.2z M45.7,112.4c-2,0-3.6-0.6-4.8-1.8s-1.8-2.8-1.8-4.9v-3.9c0-6.8,3.3-12.2,9.9-16.3
	c6.6-4.1,15.3-6.1,26-6.1c10.7,0,19.4,2,26,6.1c6.6,4.1,9.9,9.5,9.9,16.3v4c0,2-0.6,3.6-1.8,4.8c-1.2,1.2-2.8,1.8-4.7,1.8H45.7z
	 M121.4,112.4v-10.7c0-2.2-0.2-4.4-0.7-6.5c-0.5-2.1-1.1-4.1-2-5.8c0.4,0,0.9,0,1.7,0h2.1c7,0,12.6,1.3,16.7,3.8
	c4.2,2.5,6.3,5.9,6.3,10.1v2.4c0,2-0.6,3.6-1.8,4.8c-1.2,1.2-2.8,1.8-4.7,1.8H121.4z M75,90.4c-6.5,0-11.9,0.9-16,2.8
	s-6.5,4.4-7.1,7.5v0.6h46.3v-0.7c-0.5-3.1-2.8-5.5-7-7.4C86.9,91.3,81.5,90.4,75,90.4z"/>
</svg>
