<?xml version="1.0" encoding="UTF-8"?>
<svg id="Layer_1" data-name="Layer 1" xmlns="http://www.w3.org/2000/svg" viewBox="0 0 200 200">
  <defs>
    <style>
      .cls-1 {
        isolation: isolate;
      }

      .cls-1, .cls-2 {
        opacity: .6;
      }

      .cls-1, .cls-3, .cls-4, .cls-5, .cls-6, .cls-7, .cls-8, .cls-9, .cls-10, .cls-11, .cls-12, .cls-13, .cls-14 {
        stroke-width: 0px;
      }

      .cls-1, .cls-10 {
        fill: #fff;
      }

      .cls-15 {
        opacity: .1;
      }

      .cls-16 {
        opacity: .2;
      }

      .cls-4 {
        fill: #d0d0d0;
      }

      .cls-5 {
        fill: #e0e0e0;
      }

      .cls-6 {
        fill: #c6c5c5;
      }

      .cls-7 {
        fill: silver;
      }

      .cls-8 {
        fill: #f60;
      }

      .cls-9 {
        fill: #f1f1f1;
      }

      .cls-11 {
        fill: #e3e3e3;
      }

      .cls-12 {
        fill: #ebebeb;
      }

      .cls-13 {
        fill: #fcfcfc;
      }

      .cls-14 {
        fill: #f5f5f5;
      }
    </style>
  </defs>
  <g>
    <g>
      <path class="cls-13" d="m180.28,10.05c10.72,2.71,17.23,13.59,14.53,24.32-2.71,10.72-13.59,17.23-24.32,14.53-10.72-2.71-17.23-13.59-14.53-24.32,2.71-10.72,13.59-17.23,24.32-14.52h0Z"/>
      <g class="cls-15">
        <path class="cls-10" d="m155.97,24.57c-2.71,10.72,3.8,21.61,14.53,24.32,0,0,4.05-13.49-.62-18.16-4.67-4.67-13.91-6.16-13.91-6.16Z"/>
      </g>
      <path class="cls-13" d="m178.72,14.93c8.16,2.05,13.09,10.33,11.04,18.49-2.05,8.16-10.33,13.09-18.49,11.04-8.16-2.05-13.09-10.33-11.04-18.49,2.05-8.16,10.33-13.09,18.49-11.04Z"/>
      <g class="cls-16">
        <path class="cls-3" d="m178.72,14.93c8.16,2.05,13.09,10.33,11.04,18.49-2.05,8.16-10.33,13.09-18.49,11.04-8.16-2.05-13.09-10.33-11.04-18.49,2.05-8.16,10.33-13.09,18.49-11.04Z"/>
      </g>
      <path class="cls-13" d="m179.45,14.67c8.04,2.03,12.92,10.19,10.89,18.24-2.03,8.04-10.19,12.92-18.24,10.89s-12.92-10.19-10.89-18.24c2.03-8.04,10.19-12.92,18.24-10.89Z"/>
      <path class="cls-14" d="m179.45,14.67c8.04,2.03,12.92,10.19,10.89,18.24-2.03,8.04-10.19,12.92-18.24,10.89s-12.92-10.19-10.89-18.24c2.03-8.04,10.19-12.92,18.24-10.89Z"/>
    </g>
    <path class="cls-10" d="m180.33,48.29s-.06.02-.17.05c-.13.03-.3.07-.51.12-.22.06-.49.11-.8.16-.31.05-.67.13-1.08.16-.2.02-.41.05-.63.07s-.45.02-.68.04c-.47.04-.98.01-1.51.01-1.07-.05-2.24-.17-3.44-.42-1.2-.26-2.32-.62-3.31-1.01-.49-.21-.96-.4-1.38-.62-.21-.11-.42-.2-.61-.31-.19-.11-.38-.22-.55-.31-.36-.19-.66-.4-.92-.58-.27-.17-.5-.33-.67-.48-.17-.13-.31-.24-.41-.31-.09-.08-.14-.12-.13-.12,0,0,.05.03.16.09.11.08.26.17.43.29.18.13.4.29.68.45.27.16.57.37.93.55.17.1.36.2.55.3s.4.19.61.3c.42.21.89.4,1.38.6.99.38,2.1.73,3.3.98,1.19.25,2.36.37,3.41.42.53,0,1.04.03,1.51,0,.23,0,.46-.01.68-.03s.42-.04.63-.06c.4-.02.75-.09,1.08-.13.31-.04.58-.09.8-.13.21-.04.38-.07.5-.1.12-.02.18-.03.18-.02h-.02Z"/>
    <path class="cls-10" d="m172.52,33.24s-.17.18-.53.32c-.36.14-.92.23-1.5.06-.58-.17-1.01-.55-1.24-.86-.23-.32-.3-.56-.28-.55.02-.01.12.21.36.49s.65.62,1.2.78c.54.16,1.07.09,1.43-.02s.55-.24.57-.22h0Z"/>
    <path class="cls-10" d="m167.7,28.52s-.29,0-.63-.08c-.34-.08-.6-.18-.59-.23,0-.04.29,0,.63.08.34.08.6.18.59.23Z"/>
    <path class="cls-10" d="m160.2,24.54s-.04.17-.14.47c-.05.15-.11.33-.16.54-.06.21-.14.46-.19.73-.06.27-.13.57-.18.89-.07.32-.11.67-.15,1.04-.07.74-.12,1.55-.08,2.4.04.85.15,1.66.28,2.39.08.36.15.71.24,1.03.08.32.18.61.26.88.08.27.17.5.26.72.07.21.15.39.21.53.12.29.18.46.18.45s-.09-.15-.23-.43c-.07-.14-.15-.31-.24-.52-.08-.21-.19-.44-.28-.71-.09-.26-.19-.56-.28-.88-.1-.32-.17-.66-.25-1.03-.15-.73-.26-1.55-.3-2.41-.03-.86.01-1.68.1-2.43.05-.37.1-.72.17-1.05.06-.32.14-.62.21-.9.06-.28.15-.51.21-.73s.13-.4.19-.54c.12-.3.18-.46.19-.45h-.02Z"/>
    <path class="cls-10" d="m194.4,31.74s.02.13.01.37c0,.24-.03.58-.07,1-.1.84-.33,2.01-.77,3.23s-1.02,2.27-1.49,2.97c-.24.35-.43.64-.59.82-.15.19-.23.28-.24.28s.06-.12.2-.32c.14-.19.32-.48.55-.84.45-.72,1-1.75,1.44-2.97.44-1.21.69-2.36.81-3.2.06-.42.11-.76.12-.99.02-.23.04-.36.05-.36h-.02Z"/>
  </g>
  <g>
    <g>
      <rect class="cls-10" x="17.1" y="85.18" width="56.26" height="37.92" rx="2.73" ry="2.73" transform="translate(-19.89 11.13) rotate(-11.52)"/>
      <path class="cls-6" d="m73.9,117.65s.16-.03.45-.16c.29-.12.71-.34,1.1-.82.37-.46.7-1.21.56-2.09-.18-.88-.39-1.89-.62-3.02-.94-4.56-2.3-11.14-3.98-19.28-.42-2.04-.86-4.16-1.31-6.39-.23-1.11-.47-2.24-.7-3.39-.26-1.1-1.34-1.96-2.51-1.94-.56.02-1.19.21-1.79.32-.61.12-1.22.25-1.84.38-1.24.25-2.49.51-3.77.77-2.55.52-5.18,1.06-7.87,1.61-10.77,2.2-22.6,4.61-35.02,7.15-.73.14-1.38.63-1.74,1.28-.18.32-.29.69-.31,1.05-.03.37.05.73.13,1.12.31,1.54.62,3.05.93,4.57.62,3.03,1.22,6.01,1.82,8.94,1.19,5.86,2.34,11.51,3.43,16.9l.21,1.01c.06.32.19.62.37.88.35.53.91.93,1.52,1.08.3.08.62.1.93.06.3-.04.64-.12.97-.19.65-.13,1.29-.26,1.93-.39,2.55-.52,5.03-1.02,7.42-1.5,4.79-.97,9.25-1.87,13.32-2.69,8.14-1.63,14.73-2.96,19.3-3.88,2.27-.45,4.04-.8,5.25-1.04.59-.11,1.05-.2,1.37-.26.31-.06.47-.08.47-.08,0,0-.16.05-.46.11-.32.07-.77.17-1.36.29-1.21.25-2.97.62-5.23,1.1-4.56.94-11.14,2.3-19.28,3.98-4.07.84-8.53,1.75-13.32,2.74-2.39.49-4.87,1-7.42,1.52-.64.13-1.28.26-1.93.4-.33.06-.64.14-.99.19-.35.05-.71.02-1.05-.06-.69-.17-1.31-.6-1.71-1.2-.2-.3-.34-.64-.42-.99l-.21-1.01c-1.1-5.38-2.26-11.03-3.45-16.89-.6-2.93-1.21-5.91-1.82-8.94-.31-1.51-.62-3.04-.93-4.57-.08-.37-.18-.79-.14-1.21.03-.42.14-.83.35-1.19.4-.73,1.14-1.28,1.97-1.45,12.42-2.53,24.26-4.94,35.02-7.12,2.69-.54,5.32-1.08,7.87-1.6,1.28-.26,2.53-.51,3.77-.77.62-.12,1.23-.25,1.84-.38.3-.06.61-.12.91-.18s.61-.14.93-.13c1.3-.01,2.49.93,2.78,2.15.23,1.15.47,2.29.69,3.41.45,2.22.88,4.36,1.29,6.4,1.63,8.14,2.96,14.73,3.88,19.3.23,1.14.43,2.15.6,3.04.14.91-.22,1.68-.61,2.15-.4.47-.84.69-1.14.8-.3.11-.46.12-.46.12h.01Z"/>
    </g>
    <g>
      <polyline class="cls-12" points="14.46 92.63 46.38 108.03 67.11 80.46"/>
      <path class="cls-6" d="m67.11,80.46s-.03.05-.09.15c-.08.11-.18.25-.3.43-.29.39-.68.93-1.18,1.62-1.05,1.42-2.55,3.44-4.39,5.93-3.75,5.01-8.91,11.91-14.63,19.55l-.08.11-.12-.06c-.14-.06-.28-.14-.42-.2-8.68-4.21-16.54-8.02-22.25-10.79-2.82-1.39-5.12-2.52-6.73-3.31-.77-.39-1.38-.69-1.82-.91-.19-.1-.34-.18-.47-.25-.1-.06-.16-.09-.16-.09,0,0,.06.01.17.06.13.06.29.13.49.21.45.21,1.06.49,1.85.86,1.62.77,3.93,1.86,6.77,3.21,5.73,2.75,13.6,6.53,22.3,10.71.14.07.29.14.42.2l-.21.05c5.75-7.61,10.94-14.49,14.71-19.48,1.88-2.46,3.41-4.46,4.48-5.87.53-.67.93-1.2,1.23-1.58.14-.17.24-.3.32-.41.08-.09.12-.14.12-.13h-.01Z"/>
    </g>
    <path class="cls-6" d="m34.63,102.49c.08.04-2.62,5.68-6.04,12.58-3.42,6.91-6.26,12.47-6.34,12.43s2.62-5.68,6.04-12.58c3.42-6.91,6.26-12.47,6.34-12.43Z"/>
    <path class="cls-6" d="m53.01,99.21c.06-.08,5.27,3.74,11.64,8.52,6.38,4.78,11.49,8.71,11.43,8.79-.06.07-5.27-3.74-11.64-8.52-6.37-4.77-11.49-8.71-11.43-8.78h0Z"/>
  </g>
  <g>
    <g>
      <path class="cls-14" d="m181.81,124.13l-31.25-11.43c-2.16-.79-3.25-3.12-2.43-5.21l16.35-41.83c.82-2.09,3.23-3.14,5.39-2.35l19.81,7.25,9.36,20.9-11.86,30.32c-.82,2.09-3.23,3.14-5.39,2.35h0Z"/>
      <path class="cls-12" d="m189.69,70.56l-4.6,11.77c-.76,1.94.25,4.11,2.26,4.85l11.7,4.28-9.36-20.9h0Z"/>
      <path class="cls-5" d="m184.85,83.43s-1.27,2.8,1.72,4.97c.11.08.23.16.35.22,1.43.82,10.81,6.23,10.89,6.01.1-.24,1.24-3.16,1.24-3.16l-11.7-4.28s-2.89-1.17-2.5-3.76h0Z"/>
    </g>
    <path class="cls-5" d="m182.66,80.9c-.06.15-3.34-.91-7.34-2.37-3.99-1.46-7.18-2.77-7.12-2.92.06-.15,3.34.91,7.34,2.37,3.99,1.46,7.18,2.77,7.12,2.92Z"/>
    <path class="cls-5" d="m189.39,90.97c-.06.15-5.43-1.67-12-4.08s-11.85-4.47-11.79-4.62c.06-.15,5.43,1.67,12,4.08,6.57,2.4,11.85,4.47,11.79,4.62Z"/>
    <path class="cls-5" d="m189.36,97.31c-.06.15-5.91-1.85-13.07-4.47-7.16-2.62-12.92-4.87-12.86-5.02.06-.15,5.91,1.85,13.07,4.47s12.92,4.87,12.86,5.01h0Z"/>
    <path class="cls-5" d="m187.31,102.55c-.06.15-5.91-1.85-13.07-4.47-7.16-2.62-12.92-4.87-12.86-5.02.06-.15,5.91,1.85,13.07,4.47,7.16,2.62,12.92,4.87,12.86,5.01Z"/>
    <path class="cls-5" d="m185.26,107.8c-.06.15-5.91-1.85-13.07-4.47-7.16-2.62-12.92-4.87-12.86-5.02.06-.15,5.91,1.85,13.07,4.47s12.92,4.87,12.86,5.02h0Z"/>
    <path class="cls-5" d="m183.21,113.04c-.06.15-5.91-1.85-13.07-4.47s-12.92-4.87-12.86-5.02c.06-.15,5.91,1.85,13.07,4.47,7.16,2.62,12.92,4.87,12.86,5.02Z"/>
  </g>
  <polygon class="cls-4" points="8.23 178.76 3.24 184.96 14.19 196.74 18.21 190.53 8.23 178.76"/>
  <polygon class="cls-4" points="104.03 104.16 98.28 111.31 110.91 124.89 115.55 117.74 104.03 104.16"/>
  <polygon class="cls-1" points="100.27 105.29 94.52 112.44 107.14 126.02 111.78 118.87 100.27 105.29"/>
  <path class="cls-8" d="m136.54,19.31c0,1.55-1.29,2.8-2.89,2.8s-2.89-1.25-2.89-2.8,1.29-2.8,2.89-2.8,2.89,1.25,2.89,2.8Z"/>
  <path class="cls-4" d="m135.71,98.88l-65.58-3.1c-2.92-.14-5.19-2.64-5.06-5.56h0c.14-2.92,2.64-5.19,5.56-5.06l65.58,3.1c2.92.14,5.19,2.64,5.06,5.56h0c-.14,2.92-2.64,5.19-5.56,5.06Z"/>
  <path class="cls-14" d="m152.55,80.17c-.32,6.81-6.16,12.12-12.97,11.8l-71.95-3.4c-6.81-.32-12.12-6.16-11.8-12.97l.78-16.47c.59-12.41,11.22-22.09,23.63-21.5l51.58,2.44c12.41.59,22.09,11.22,21.5,23.63l-.78,16.47Z"/>
  <path class="cls-4" d="m139.61,69.92c-.17,3.59-3.04,6.47-6.63,6.64-19.43.91-39.49.01-60.06-2.86-3.57-.5-6.17-3.64-6-7.24l.18-3.77c.17-3.58,3.02-6.45,6.6-6.64,20.16-1.04,40.26-.44,60.25,2.75,3.5.56,6.01,3.68,5.84,7.22l-.18,3.9Z"/>
  <g>
    <path class="cls-10" d="m88.16,65.59c-.12,2.44-2.19,4.32-4.62,4.21-2.44-.12-4.32-2.19-4.21-4.62s2.19-4.32,4.62-4.21c2.44.12,4.32,2.19,4.21,4.62Z"/>
    <path class="cls-10" d="m127.39,67.45c-.12,2.44-2.19,4.32-4.62,4.21s-4.32-2.19-4.21-4.62c.12-2.44,2.19-4.32,4.62-4.21,2.44.12,4.32,2.19,4.21,4.62Z"/>
  </g>
  <path class="cls-10" d="m83.59,71.53c0-.15.11-.26.25-.27h0c.15,0,.26.11.27.26h0c0,.14-.11.26-.26.26h0s0,0-.01,0h0c-.14,0-.25-.12-.25-.25Zm-1.33.08c-.14-.04-.22-.18-.19-.32h0c.04-.14.18-.23.32-.19h0c.14.04.22.17.19.32h0c-.03.12-.14.21-.26.2h0s-.03,0-.05,0Zm2.86-.24c-.04-.14.04-.28.19-.32h0c.14-.04.28.04.32.18h0c.04.14-.04.28-.18.32h0s-.06,0-.08,0h0c-.11,0-.21-.08-.24-.19Zm-4.36-.33c-.13-.07-.17-.23-.11-.35h0c.06-.13.22-.18.35-.11h0c.13.07.17.23.11.35h0c-.05.1-.14.14-.24.14h0s-.07,0-.11-.03Zm5.81-.2c-.07-.13-.03-.29.1-.36h0c.12-.07.28-.02.35.1h0c.07.13.03.29-.1.36h0s-.1.03-.14.03h0c-.08,0-.17-.05-.21-.13Zm-7.12-.72c-.1-.09-.12-.26-.02-.37h0c.09-.1.26-.11.37-.02h0c.1.09.11.26.02.37h0c-.05.06-.13.09-.21.08h0c-.06,0-.12-.02-.16-.07Zm8.39-.15c-.1-.1-.1-.27,0-.37h0c.1-.1.27-.1.37,0h0c.1.1.1.27,0,.37h0c-.05.05-.12.07-.19.07h0c-.07,0-.13-.03-.18-.07Zm-9.43-1.07c-.08-.12-.04-.28.07-.36h0c.12-.08.29-.05.37.07h0c.08.12.04.28-.08.36h0s-.1.05-.15.04h0c-.08,0-.16-.05-.21-.12Zm10.45-.09c-.12-.08-.16-.23-.09-.36h0c.08-.12.24-.16.36-.09h0c.12.08.16.24.09.36h0c-.05.09-.14.13-.24.13h0s-.08-.01-.12-.04Zm-11.16-1.35h0c-.05-.13.03-.29.16-.33h0c.13-.05.28.03.33.16h0c.05.13-.03.29-.16.33h0s-.07.02-.1.01h0c-.1,0-.2-.07-.23-.18Zm11.85-.03c-.14-.04-.22-.19-.17-.32h0c.04-.14.19-.21.32-.17h0c.14.04.22.19.17.32h0c-.03.12-.15.19-.26.19h0s-.04,0-.06-.01Zm-12.18-1.54c-.01-.14.1-.27.24-.28h0c.14-.01.27.1.28.24h0c.01.14-.1.27-.24.28h0s-.02,0-.03,0h0c-.13,0-.24-.11-.25-.24Zm12.26-.23s0,0,0,0h0s0,0,0-.02h0c0-.14.13-.25.27-.25h0c.14,0,.25.13.25.27h0s0,0,0,.01h0s0,0,0,.01h0c0,.14-.13.25-.27.25h0c-.14,0-.25-.13-.25-.27Zm0-.03h0s0,0,0,0Zm-11.97-1.04c-.15-.03-.24-.16-.22-.3h0c.03-.15.16-.24.3-.21h0c.14.02.24.16.21.3h0c-.02.13-.14.23-.27.22h0s-.02,0-.03,0Zm11.85-.43c-.03-.14.06-.28.2-.31h0c.14-.03.28.06.31.2h0c.03.14-.06.28-.2.31h0s-.04,0-.07,0h0c-.11,0-.22-.09-.24-.21Zm-11.47-1.06c-.13-.06-.19-.21-.13-.35h0c.06-.13.21-.19.35-.13h0c.13.06.19.21.13.35h0c-.05.1-.15.16-.25.15h0s-.06-.01-.09-.02Zm10.98-.33h0c-.06-.13,0-.29.12-.35h0c.13-.06.28-.01.35.12h0c.06.13.01.28-.12.35h0s-.09.03-.13.03h0c-.09,0-.18-.06-.22-.14Zm-10.24-1.02c-.11-.1-.13-.26-.04-.37h0c.09-.11.26-.13.37-.04h0c.11.09.13.25.04.37h0c-.06.07-.14.1-.22.1h0c-.05,0-.11-.02-.15-.05Zm9.42-.21h0c-.09-.11-.08-.27.03-.37h0c.11-.09.28-.08.37.03h0c.09.11.08.27-.03.37h0c-.05.04-.12.07-.18.06h0c-.07,0-.14-.03-.19-.09Zm-8.36-.91c-.08-.11-.06-.28.05-.37h0c.12-.08.28-.06.37.05h0c.08.12.06.28-.05.37h0c-.05.04-.11.06-.17.05h0c-.07,0-.14-.04-.19-.1Zm7.27-.08h0c-.12-.08-.14-.25-.06-.36h0c.08-.12.25-.15.36-.07h0c.12.09.15.25.07.37h0c-.06.07-.14.11-.23.11h0s-.09-.01-.14-.04Zm-5.97-.75c-.06-.14,0-.29.14-.34h0c.13-.06.29,0,.34.14h0c.06.13,0,.28-.14.34h0s-.07.02-.11.02h0c-.1,0-.19-.07-.23-.16Zm4.67.06h0c-.13-.05-.2-.2-.15-.34h0c.05-.13.2-.2.34-.15h0c.14.05.21.2.15.33h0c-.04.11-.15.18-.25.17h0s-.06,0-.08-.02Zm-3.2-.53c-.02-.14.08-.28.22-.29h0c.14-.02.28.07.3.22h0c.02.14-.08.28-.22.3h0s-.03,0-.05,0h0c-.12,0-.23-.1-.24-.22Zm1.77.2h0c-.14-.02-.25-.14-.23-.29h0c.02-.14.14-.24.29-.23h0c.14.02.24.14.23.29h0c-.02.14-.14.24-.27.23h0s-.01,0-.02,0Z"/>
  <path class="cls-10" d="m122.8,73.38c0-.15.11-.26.25-.27h0c.15,0,.26.11.27.26h0c0,.14-.11.26-.26.26h0s0,0-.01,0h0c-.14,0-.25-.12-.25-.25Zm-1.33.08c-.14-.04-.22-.18-.19-.32h0c.04-.14.18-.23.32-.19h0c.14.04.22.17.19.32h0c-.03.12-.14.21-.26.2h0s-.03,0-.05,0Zm2.86-.24c-.04-.14.04-.28.19-.32h0c.14-.04.28.04.32.18h0c.04.14-.04.28-.18.32h0s-.06,0-.08,0h0c-.11,0-.21-.08-.24-.19Zm-4.36-.33c-.13-.07-.17-.23-.11-.35h0c.06-.13.22-.18.35-.11h0c.13.07.17.23.11.35h0c-.05.1-.14.14-.24.14h0s-.07,0-.11-.03Zm5.81-.2c-.07-.13-.03-.29.1-.36h0c.12-.07.28-.02.35.1h0c.07.13.03.29-.1.36h0s-.1.03-.14.03h0c-.08,0-.17-.05-.21-.13Zm-7.12-.72c-.1-.09-.12-.26-.02-.37h0c.09-.1.26-.11.37-.02h0c.1.09.11.26.02.37h0c-.05.06-.13.09-.21.08h0c-.06,0-.12-.02-.16-.07Zm8.39-.15c-.1-.1-.1-.27,0-.37h0c.1-.1.27-.1.37,0h0c.1.1.1.27,0,.37h0c-.05.05-.12.07-.19.07h0c-.07,0-.13-.03-.18-.07Zm-9.43-1.07c-.08-.12-.04-.28.07-.36h0c.12-.08.29-.05.37.07h0c.08.12.04.28-.08.36h0s-.1.05-.15.04h0c-.08,0-.16-.05-.21-.12Zm10.45-.09c-.12-.08-.16-.23-.09-.36h0c.08-.12.24-.16.36-.09h0c.12.08.16.24.09.36h0c-.05.09-.14.13-.24.13h0s-.08-.01-.12-.04Zm-11.16-1.35h0c-.05-.13.03-.29.16-.33h0c.13-.05.28.03.33.16h0c.05.13-.03.29-.16.33h0s-.07.02-.1.01h0c-.1,0-.2-.07-.23-.18Zm11.85-.03c-.14-.04-.22-.19-.17-.32h0c.04-.14.19-.21.32-.17h0c.14.04.22.19.17.32h0c-.03.12-.15.19-.26.19h0s-.04,0-.06-.01Zm-12.18-1.54c-.01-.14.1-.27.24-.28h0c.14-.01.27.1.28.24h0c.01.14-.1.27-.24.28h0s-.02,0-.03,0h0c-.13,0-.24-.11-.25-.24Zm12.26-.23s0,0,0,0h0s0,0,0-.02h0c0-.14.13-.25.27-.25h0c.14,0,.25.13.25.27h0s0,0,0,.01h0s0,0,0,.01h0c0,.14-.13.25-.27.25h0c-.14,0-.25-.13-.25-.27Zm0-.03h0s0,0,0,0Zm-11.97-1.04c-.15-.03-.24-.16-.22-.3h0c.03-.15.16-.24.3-.21h0c.14.02.24.16.21.3h0c-.02.13-.14.23-.27.22h0s-.02,0-.03,0Zm11.85-.43c-.03-.14.06-.28.2-.31h0c.14-.03.28.06.31.2h0c.03.14-.06.28-.2.31h0s-.04,0-.07,0h0c-.11,0-.22-.09-.24-.21Zm-11.47-1.06c-.13-.06-.19-.21-.13-.35h0c.06-.13.21-.19.35-.13h0c.13.06.19.21.13.35h0c-.05.1-.15.16-.25.15h0s-.06-.01-.09-.02Zm10.98-.33h0c-.06-.13,0-.29.12-.35h0c.13-.06.28-.01.35.12h0c.06.13.01.28-.12.35h0s-.09.03-.13.03h0c-.09,0-.18-.06-.22-.14Zm-10.24-1.02c-.11-.1-.13-.26-.04-.37h0c.09-.11.26-.13.37-.04h0c.11.09.13.25.04.37h0c-.06.07-.14.1-.22.1h0c-.05,0-.11-.02-.15-.05Zm9.42-.21h0c-.09-.11-.08-.27.03-.37h0c.11-.09.28-.08.37.03h0c.09.11.08.27-.03.37h0c-.05.04-.12.07-.18.06h0c-.07,0-.14-.03-.19-.09Zm-8.36-.91c-.08-.11-.06-.28.05-.37h0c.12-.08.28-.06.37.05h0c.08.12.06.28-.05.37h0c-.05.04-.11.06-.17.05h0c-.07,0-.14-.04-.19-.1Zm7.27-.08h0c-.12-.08-.14-.25-.06-.36h0c.08-.12.25-.15.36-.07h0c.12.09.15.25.07.37h0c-.06.07-.14.11-.23.11h0s-.09-.01-.14-.04Zm-5.97-.75c-.06-.14,0-.29.14-.34h0c.13-.06.29,0,.34.14h0c.06.13,0,.28-.14.34h0s-.07.03-.11.02h0c-.1,0-.19-.07-.23-.16Zm4.67.06h0c-.13-.05-.2-.2-.15-.34h0c.05-.13.2-.2.34-.15h0c.14.05.21.2.15.33h0c-.04.11-.15.18-.25.17h0s-.06,0-.08-.02Zm-3.2-.53c-.02-.14.08-.28.22-.29h0c.14-.02.28.07.3.22h0c.02.14-.08.28-.22.3h0s-.03,0-.05,0h0c-.12,0-.23-.1-.24-.22Zm1.77.2h0c-.14-.02-.25-.14-.23-.29h0c.02-.14.14-.24.29-.23h0c.14.02.24.14.23.29h0c-.02.14-.14.24-.27.23h0s-.01,0-.02,0Z"/>
  <path class="cls-4" d="m148.17,30.53c-.06,1.35.98,2.5,2.33,2.57,1.35.06,2.5-.98,2.57-2.33.06-1.35-.98-2.5-2.33-2.57-1.35-.06-2.5.98-2.57,2.33Z"/>
  <path class="cls-4" d="m149.67,50.89s-5.89.47-8.72-7.32l1.71-3.13c.58-1.07,1.92-1.45,2.98-.86l3.28,1.84c.72.4,1.15,1.18,1.11,2l-.35,7.47Z"/>
  <path class="cls-4" d="m150.34,31.84l-2.51,10.61c-.06.25-.24.46-.49.55-.24.09-.52.05-.73-.1l-.57-.42c-.5-.37-.67-1.04-.4-1.61l4.43-9.12c.07-.15.29-.07.25.09Z"/>
  <path class="cls-4" d="m78.07,50.06c-1.33-.06-2.41-1.13-2.47-2.49-.06-1.43,1.06-2.64,2.49-2.7,18.94-.78,36.18-.02,52.7,2.33,1.42.2,2.41,1.52,2.21,2.94-.2,1.42-1.51,2.41-2.94,2.21-16.21-2.3-33.14-3.05-51.76-2.28-.08,0-.16,0-.23,0Z"/>
  <path class="cls-4" d="m103.19,77.96c-10.49-.5-21.03-1.52-31.56-3.06-3.86-.56-6.63-4.13-6.43-8.3l.2-4.2c.2-4.13,3.26-7.42,7.12-7.65,22.79-1.34,43.32-.4,62.76,2.86,3.76.63,6.45,4.19,6.26,8.27l-.21,4.35c-.2,4.16-3.27,7.45-7.15,7.65-10.22.54-20.58.57-30.99.08Zm2.41-23c-10.54-.5-21.5-.4-33.06.27-3.61.21-6.48,3.3-6.66,7.19l-.2,4.2c-.19,3.91,2.4,7.26,6.01,7.79,20.97,3.06,41.98,4.07,62.46,2.98,3.63-.19,6.5-3.28,6.69-7.19l.21-4.35c.18-3.84-2.33-7.18-5.85-7.77-9.55-1.6-19.37-2.65-29.6-3.13Z"/>
  <g>
    <path class="cls-8" d="m79.04,85.86c-17.47-.36-25.17-14.77-25.24-14.91l1.24-.4c.07.14,7.47,13.96,24.08,14.29l-.07,1.01Z"/>
    <rect class="cls-8" x="74.81" y="83.1" width="13.2" height="4.73" rx="1.58" ry="1.58"/>
  </g>
  <g>
    <path class="cls-8" d="m56.67,57.85s6.22-18.73,18.35-19.52c0,0-3.2-1.85-6.91-.45-3.71,1.4-13.67,9.93-14.47,20.19,2.33,1,3.04-.22,3.04-.22Z"/>
    <path class="cls-8" d="m54,54c-7.54.77-7.55,10.21-7.55,10.21-1.2,6.73.45,10.29,2.83,12.14,1.63,1.27,3.8,1.58,5.72.84,1.92-.74,3.31-2.44,3.66-4.47.32-1.83.65-3.57.85-4.18.48-1.48,2.03-15.31-5.51-14.54Z"/>
  </g>
  <path class="cls-4" d="m64.88,26.59c-.06,1.35-1.21,2.4-2.57,2.33-1.35-.06-2.4-1.21-2.33-2.57.06-1.35,1.21-2.4,2.57-2.33,1.35.06,2.4,1.21,2.33,2.57Z"/>
  <path class="cls-4" d="m61.67,47.81s5.62-.07,9.18-7.55l-1.4-3.28c-.48-1.12-1.78-1.63-2.89-1.14l-3.44,1.52c-.76.33-1.26,1.07-1.3,1.89l-.16,8.56Z"/>
  <path class="cls-4" d="m62.86,27.63c-.06-.15-.28-.09-.26.07l1.51,10.85c.03.25.19.46.41.57s.49.09.7-.03l.64-.39c.53-.32.76-.98.55-1.56l-3.55-9.5Z"/>
  <g>
    <path class="cls-9" d="m41.83,17.1l-9.26-4.83-.03-1.98c-.02-1.28-.78-2.49-1.98-3.11l-9.05-4.7c-1.61-.83-3.56-.29-4.34,1.23l-.55,1.06L2.21,32.57c-.89,1.71-.12,3.88,1.7,4.83l36.79,19.08c1.83.95,4.04.33,4.93-1.39l13.62-26.26c.61-1.17.15-2.61-1.02-3.22l-16.4-8.51h0Z"/>
    <path class="cls-10" d="m39.97,34.18c-.04.08-3.45-1.6-7.6-3.76s-7.49-3.97-7.45-4.05,3.44,1.6,7.6,3.76,7.49,3.97,7.44,4.05Z"/>
    <path class="cls-10" d="m38.95,36.14c-.04.08-3.45-1.6-7.6-3.76s-7.49-3.97-7.45-4.05,3.44,1.6,7.6,3.76,7.49,3.97,7.44,4.05Z"/>
  </g>
  <g>
    <g>
      <g>
        <rect class="cls-5" x="28.75" y="139.8" width="107.52" height="43.67"/>
        <rect class="cls-10" x="21.24" y="135.87" width="107.52" height="43.67"/>
        <path class="cls-7" d="m128.76,179.55s0-.27-.01-.78c0-.52,0-1.27-.01-2.27,0-2-.01-4.92-.03-8.69-.01-7.54-.04-18.44-.06-31.94l.12.12c-27.35.01-65.43.03-107.51.05h0l.17-.17c0,15.29,0,30.06,0,43.67l-.16-.16c31.16.03,58.01.06,77.09.08,9.55.02,17.15.03,22.36.04,2.6,0,4.62.01,5.99.02.68,0,1.19,0,1.55,0s.53,0,.53,0c0,0-.17,0-.51,0-.35,0-.86,0-1.53,0-1.36,0-3.36,0-5.95.02-5.21,0-12.8.02-22.33.04-19.11.02-46,.04-77.2.08h-.16v-.16c0-13.62,0-28.38,0-43.67v-.17h.18c42.09.02,80.16.04,107.51.05h.12v.12c-.03,13.52-.05,24.45-.06,32.01-.01,3.76-.02,6.68-.03,8.66,0,.98,0,1.73-.01,2.25,0,.51-.01.76-.01.76h0Z"/>
      </g>
      <g>
        <rect class="cls-7" x="30.38" y="148.86" width="25.97" height="25.97"/>
        <rect class="cls-1" x="30.38" y="148.86" width="25.97" height="25.97"/>
      </g>
      <g>
        <path class="cls-7" d="m121.32,155.82c0,.09-13.37.17-29.84.17s-29.85-.07-29.85-.17,13.36-.17,29.85-.17,29.84.08,29.84.17Z"/>
        <path class="cls-7" d="m121.32,161.11c0,.09-13.37.17-29.84.17s-29.85-.08-29.85-.17,13.36-.17,29.85-.17,29.84.08,29.84.17Z"/>
        <path class="cls-7" d="m100.05,166.4s-.13.02-.39.03c-.29,0-.66.02-1.12.03-1.02.01-2.41.03-4.12.05-3.52.01-8.3.03-13.58.05-5.29-.02-10.07-.04-13.59-.05-1.71-.02-3.1-.04-4.12-.05-.46-.01-.83-.02-1.12-.03-.26,0-.39-.02-.39-.03s.13-.02.39-.03c.29,0,.66-.02,1.12-.03,1.02-.01,2.41-.03,4.12-.05,3.52-.01,8.3-.03,13.59-.05,5.28.02,10.07.04,13.58.05,1.71.02,3.1.04,4.12.05.46.01.83.02,1.12.03.26,0,.39.02.39.03Z"/>
      </g>
    </g>
    <path class="cls-7" d="m24.34,143.86c0-.08,21.58-.15,48.18-.15s48.19.07,48.19.15-21.57.15-48.19.15-48.18-.07-48.18-.15Z"/>
    <g>
      <g>
        <path class="cls-7" d="m28.38,141.49c0,.39-.31.7-.7.7s-.7-.31-.7-.7.31-.7.7-.7.7.31.7.7Z"/>
        <path class="cls-7" d="m30.78,141.49c0,.39-.31.7-.7.7s-.7-.31-.7-.7.31-.7.7-.7.7.31.7.7Z"/>
        <path class="cls-7" d="m33.14,141.49c0,.39-.31.7-.7.7s-.7-.31-.7-.7.31-.7.7-.7.7.31.7.7Z"/>
      </g>
      <g class="cls-2">
        <path class="cls-8" d="m28.38,141.49c0,.39-.31.7-.7.7s-.7-.31-.7-.7.31-.7.7-.7.7.31.7.7Z"/>
        <path class="cls-8" d="m30.78,141.49c0,.39-.31.7-.7.7s-.7-.31-.7-.7.31-.7.7-.7.7.31.7.7Z"/>
        <path class="cls-8" d="m33.14,141.49c0,.39-.31.7-.7.7s-.7-.31-.7-.7.31-.7.7-.7.7.31.7.7Z"/>
      </g>
    </g>
  </g>
  <g>
    <path class="cls-11" d="m122.52,157.6s-.04-.19-.09-.58c-.05-.41-.13-.98-.23-1.73-.04-.38-.13-.8-.15-1.28-.01-.48-.03-.99-.04-1.55,0-.56-.05-1.16-.03-1.81.05-.64.1-1.33.15-2.05.3-2.88.95-6.44,2.64-10.24,1.66-3.79,4.32-7.82,8.22-11.3.49-.43.99-.86,1.49-1.3.53-.41,1.09-.79,1.64-1.19,1.08-.85,2.33-1.48,3.55-2.21,2.54-1.27,5.3-2.44,8.32-3.04,1.49-.41,3.05-.53,4.62-.74.79-.09,1.59-.05,2.4-.09.4,0,.81-.02,1.21-.03.41.01.81.06,1.22.09,3.27.14,6.6.92,9.82,2.15,6.48,2.39,12.43,7.19,16.44,13.55,2.03,3.17,3.44,6.8,4.26,10.59.9,3.78,1.02,7.79.48,11.74-.07.51-.15,1.02-.25,1.52l-.04-.18c3.64,5.07,7.21,10.02,10.67,14.83l.32.45-.55-.09c-5.43-.84-10.69-1.67-15.75-2.45l.22-.09c-3.24,4.8-7.6,8.57-12.33,11.03-2.38,1.22-4.84,2.13-7.31,2.75-1.23.31-2.47.55-3.7.68-.62.07-1.22.15-1.83.22-.61.07-1.22.04-1.81.07-4.81.12-9.33-.83-13.22-2.41-3.9-1.58-7.17-3.77-9.8-6.1-.64-.61-1.26-1.2-1.86-1.77-.55-.63-1.08-1.24-1.59-1.83-.54-.58-.95-1.22-1.39-1.82-.41-.61-.87-1.16-1.2-1.77-1.42-2.36-2.4-4.51-3.02-6.32-.29-.91-.56-1.71-.78-2.41-.15-.71-.28-1.31-.39-1.81-.1-.48-.17-.84-.23-1.1-.05-.25-.07-.37-.07-.37,0,0,.04.12.1.37.07.26.15.62.27,1.1.11.49.25,1.08.42,1.79.23.7.51,1.49.82,2.39.64,1.79,1.64,3.92,3.07,6.25.33.6.8,1.14,1.21,1.75.43.59.84,1.23,1.39,1.79.52.59,1.04,1.19,1.59,1.81.6.57,1.22,1.15,1.86,1.75,2.62,2.3,5.87,4.45,9.74,6,3.85,1.55,8.33,2.47,13.09,2.34.6-.03,1.2,0,1.79-.07.6-.07,1.2-.15,1.81-.22,1.22-.13,2.44-.36,3.65-.68,2.44-.62,4.86-1.52,7.21-2.73,4.67-2.44,8.96-6.16,12.15-10.91l.08-.12.14.02c5.06.78,10.32,1.59,15.75,2.44l-.23.37c-3.46-4.8-7.03-9.76-10.67-14.83l-.06-.08.02-.1c.09-.5.17-.99.25-1.49.54-3.89.42-7.85-.47-11.58-.8-3.74-2.19-7.31-4.2-10.45-3.95-6.27-9.8-11.01-16.21-13.38-3.18-1.21-6.46-1.99-9.69-2.13-.4-.03-.8-.07-1.2-.09l-1.2.02c-.8.03-1.59,0-2.37.08-1.55.2-3.1.31-4.57.71-2.98.59-5.71,1.73-8.23,2.98-1.21.72-2.46,1.33-3.53,2.17-.55.39-1.1.77-1.63,1.17-.5.43-.99.86-1.48,1.28-3.87,3.43-6.52,7.41-8.2,11.16-1.71,3.75-2.38,7.28-2.7,10.14-.06.72-.12,1.41-.17,2.04-.03.64,0,1.24,0,1.8,0,.56.01,1.07.02,1.55.01.47.09.89.12,1.27.08.75.14,1.32.19,1.73.04.39.05.59.05.59h.01Z"/>
    <path class="cls-8" d="m157.41,150.01c3.06-1.28,5.24-4.44,5.26-8.16.02-4.87-3.67-8.85-8.24-8.87-4.57-.02-8.29,3.91-8.32,8.79-.01,3.75,2.17,6.95,5.27,8.24-12.73,1.91-12.17,15.76-12.17,15.76l30.12.15s.69-13.99-11.94-15.91h0Z"/>
  </g>
</svg>