<?xml version="1.0" encoding="UTF-8"?>
<svg id="Layer_1" data-name="Layer 1" xmlns="http://www.w3.org/2000/svg" viewBox="0 0 200 200">
  <defs>
    <style>
      .cls-1 {
        stroke: #ebebeb;
        stroke-miterlimit: 10;
        stroke-width: .37px;
      }

      .cls-1, .cls-2 {
        fill: none;
      }

      .cls-3 {
        opacity: .1;
      }

      .cls-4 {
        opacity: .2;
      }

      .cls-2 {
        stroke: #e0e0e0;
        stroke-miterlimit: 10;
        stroke-width: .44px;
      }

      .cls-5, .cls-6, .cls-7, .cls-8, .cls-9, .cls-10, .cls-11, .cls-12, .cls-13, .cls-14 {
        stroke-width: 0px;
      }

      .cls-6 {
        fill: #383838;
      }

      .cls-7 {
        fill: #e0e0e0;
      }

      .cls-8 {
        fill: #c6c5c5;
      }

      .cls-9 {
        fill: #f60;
      }

      .cls-10 {
        fill: #f1f1f1;
      }

      .cls-11 {
        fill: #fff;
      }

      .cls-12 {
        fill: #fbfbfb;
      }

      .cls-13 {
        fill: #ebebeb;
      }

      .cls-14 {
        fill: #fcfcfc;
      }
    </style>
  </defs>
  <g>
    <g>
      <path class="cls-13" d="m61.59,184.68l-34.53,14.69c-2.39,1.02-5.14-.1-6.15-2.48L.58,149.1c-1.02-2.39.1-5.14,2.48-6.15l21.9-9.31,24.38,10.26,14.74,34.63c1.02,2.39-.1,5.14-2.48,6.15h0Z"/>
      <path class="cls-7" d="m24.96,133.63l5.72,13.45c.94,2.22,3.51,3.25,5.73,2.31l12.93-5.5-24.38-10.26h0Z"/>
    </g>
    <path class="cls-11" d="m27.55,147.76c.07.17-3.45,1.84-7.85,3.71-4.41,1.88-8.05,3.26-8.12,3.08-.07-.17,3.44-1.84,7.85-3.71,4.41-1.88,8.05-3.26,8.12-3.08Z"/>
    <path class="cls-11" d="m41.11,150.97c.07.17-5.75,2.81-13.01,5.91-7.26,3.09-13.2,5.46-13.28,5.28-.07-.17,5.75-2.81,13.01-5.91,7.26-3.08,13.2-5.45,13.28-5.28Z"/>
    <path class="cls-11" d="m46.18,156.32c.07.17-6.28,3.04-14.19,6.41-7.92,3.36-14.39,5.96-14.46,5.78-.07-.17,6.28-3.04,14.19-6.41,7.91-3.36,14.38-5.96,14.46-5.78h0Z"/>
    <path class="cls-11" d="m48.72,162.3c.07.17-6.28,3.04-14.19,6.41-7.92,3.36-14.39,5.96-14.46,5.78-.07-.17,6.28-3.04,14.19-6.41,7.91-3.36,14.38-5.96,14.46-5.78h0Z"/>
    <path class="cls-11" d="m51.27,168.29c.07.17-6.28,3.04-14.19,6.41-7.92,3.36-14.39,5.96-14.46,5.78-.07-.17,6.28-3.04,14.19-6.41,7.91-3.36,14.38-5.96,14.46-5.78h0Z"/>
    <path class="cls-11" d="m53.82,174.29c.07.17-6.28,3.04-14.19,6.41-7.92,3.36-14.39,5.96-14.46,5.78-.07-.17,6.28-3.04,14.19-6.41,7.91-3.36,14.38-5.96,14.46-5.78h0Z"/>
  </g>
  <path class="cls-2" d="m197.4,26.4l-6.51-14.24c-1.06-2.31-3.69-3.4-6.05-2.57l-1.72.76-12.43,5.68-1.06-2.41c-1.57-3.43-.05-7.49,3.38-9.06s7.49-.05,9.06,3.36l1.71-.77c-2-4.37-7.18-6.3-11.55-4.3-4.37,2-6.3,7.18-4.31,11.53l1.09,2.47c-1.99,1.3-2.79,3.88-1.78,6.11l6.51,14.24c1.12,2.45,4.01,3.53,6.46,2.41l14.79-6.76c2.45-1.12,3.53-4.01,2.41-6.46h0Zm-15.3,2.71l-.67-3.07c-.86-.11-1.65-.65-2.03-1.49-.59-1.3-.02-2.84,1.28-3.44,1.3-.59,2.84-.02,3.44,1.28.37.82.29,1.73-.15,2.44.77.96,2,2.51,2,2.51l-3.87,1.77h0Z"/>
  <g>
    <g>
      <g>
        <path class="cls-9" d="m146.07,44.29H37.19c-1.88,0-3.4,1.52-3.4,3.4v76.9c0,1.88,1.52,3.4,3.4,3.4h41.78s2.66,8.22-5.58,12.47h39.07s-9.3-3.19-6.91-12.47h40.51c1.88,0,3.4-1.52,3.4-3.4V47.69c0-1.88-1.52-3.4-3.4-3.4h0Z"/>
        <path class="cls-6" d="m93.08,119.89c1.48,2.12-.84,4.44-2.95,2.95-.07-.05-.13-.11-.18-.18-1.48-2.12.84-4.43,2.95-2.95.07.05.13.11.18.18Z"/>
      </g>
      <path class="cls-11" d="m38.84,45.7h105.59c1.75,0,3.16,1.42,3.16,3.16v65.05H35.67V48.86c0-1.75,1.42-3.16,3.16-3.16Z"/>
    </g>
    <path class="cls-13" d="m38.66,45.7h106.48c1.36,0,2.46,1.1,2.46,2.46v3.22H35.67v-2.68c0-1.65,1.34-2.99,2.99-2.99h0Z"/>
    <g>
      <circle class="cls-7" cx="39.24" cy="48.65" r=".79"/>
      <circle class="cls-7" cx="41.58" cy="48.65" r=".79"/>
      <circle class="cls-7" cx="43.81" cy="48.65" r=".79"/>
    </g>
  </g>
  <g>
    <g>
      <path class="cls-14" d="m120.8,170.08c-1.57,8.15-9.44,13.49-17.59,11.93-8.15-1.57-13.49-9.44-11.93-17.59,1.57-8.15,9.44-13.49,17.59-11.93,8.15,1.57,13.49,9.44,11.92,17.59h0Z"/>
      <g class="cls-3">
        <path class="cls-11" d="m108.87,152.48c-8.15-1.57-16.03,3.77-17.59,11.93,0,0,10.28,2.45,13.58-1.24,3.3-3.7,4.01-10.69,4.01-10.69Z"/>
      </g>
      <path class="cls-14" d="m117.07,169.12c-1.19,6.2-7.17,10.25-13.37,9.07s-10.25-7.17-9.07-13.37,7.17-10.25,13.37-9.07,10.25,7.17,9.07,13.37Z"/>
      <g class="cls-4">
        <path class="cls-5" d="m117.07,169.12c-1.19,6.2-7.17,10.25-13.37,9.07s-10.25-7.17-9.07-13.37,7.17-10.25,13.37-9.07,10.25,7.17,9.07,13.37Z"/>
      </g>
      <path class="cls-14" d="m117.3,169.65c-1.17,6.11-7.08,10.12-13.19,8.94-6.11-1.17-10.12-7.08-8.94-13.19,1.17-6.11,7.08-10.12,13.19-8.94,6.11,1.17,10.12,7.08,8.94,13.19Z"/>
      <g class="cls-4">
        <path class="cls-11" d="m117.3,169.65c-1.17,6.11-7.08,10.12-13.19,8.94-6.11-1.17-10.12-7.08-8.94-13.19,1.17-6.11,7.08-10.12,13.19-8.94,6.11,1.17,10.12,7.08,8.94,13.19Z"/>
      </g>
    </g>
    <path class="cls-11" d="m92.15,171.76s-.02-.04-.05-.13c-.03-.09-.06-.22-.11-.37-.05-.16-.11-.36-.16-.6-.05-.23-.12-.5-.16-.8-.02-.15-.05-.3-.08-.47s-.04-.33-.06-.51c-.05-.35-.05-.73-.08-1.13-.01-.8.03-1.68.16-2.59.14-.91.36-1.76.61-2.52.13-.37.26-.74.4-1.06.07-.16.13-.32.2-.47.08-.15.15-.29.21-.43.13-.27.27-.51.39-.71.12-.21.23-.39.33-.52.09-.13.16-.24.22-.32.05-.07.08-.11.08-.11,0,0-.02.04-.06.12-.05.09-.12.2-.2.33-.09.14-.2.32-.31.53-.11.21-.25.44-.37.72-.06.13-.13.28-.2.43s-.13.31-.2.47c-.14.32-.26.68-.39,1.06-.24.76-.46,1.61-.6,2.51-.13.91-.18,1.78-.17,2.58.02.4.02.78.06,1.13.02.18.03.34.05.51s.05.32.07.47c.04.3.1.56.15.8.04.23.09.43.13.6.04.15.07.28.09.37.02.09.03.13.02.13v-.02Z"/>
    <path class="cls-11" d="m103.09,165.26s-.14-.12-.26-.39c-.12-.26-.21-.68-.11-1.12.1-.44.37-.78.59-.96.23-.19.4-.25.4-.23.01.02-.15.1-.35.29s-.44.51-.53.93c-.09.41-.02.81.08,1.07s.2.4.19.41h0Z"/>
    <path class="cls-11" d="m106.42,161.44s-.02-.22.04-.47c.05-.26.11-.46.15-.45.03,0,.02.22-.04.47-.05.26-.11.46-.15.45Z"/>
    <path class="cls-11" d="m109.07,155.65s-.13-.02-.36-.08c-.11-.03-.25-.07-.41-.1-.16-.04-.35-.08-.56-.11-.2-.04-.43-.08-.68-.1-.25-.04-.51-.05-.79-.07-.56-.02-1.17-.02-1.81.04s-1.24.18-1.78.32c-.27.08-.53.14-.76.22-.23.08-.45.16-.65.23-.2.07-.37.15-.53.22-.15.06-.29.13-.39.18-.21.11-.33.16-.33.15s.11-.08.32-.19c.11-.06.23-.13.38-.2.15-.07.32-.16.52-.24.19-.08.41-.17.65-.25.23-.09.49-.16.76-.23.54-.14,1.15-.26,1.79-.33.64-.06,1.26-.06,1.82-.03.28.02.54.04.79.08.25.03.47.08.68.12.21.04.39.09.56.13s.3.08.41.12c.23.08.35.12.34.12h0Z"/>
    <path class="cls-11" d="m105.15,181.58s-.1.02-.27.02c-.18,0-.44,0-.75-.01-.64-.04-1.52-.16-2.45-.44s-1.74-.67-2.29-.99c-.27-.16-.5-.3-.64-.4-.15-.11-.22-.16-.22-.17s.09.04.25.13c.15.09.37.22.65.37.56.3,1.36.67,2.28.95.93.28,1.8.41,2.43.47.32.03.57.05.75.05.18,0,.27.02.27.02h0Z"/>
  </g>
  <g>
    <g>
      <path class="cls-12" d="m143,69.19l-25.57-13.08c-1.77-.9-2.47-3.07-1.56-4.83l18.1-35.39c.9-1.77,3.07-2.47,4.83-1.56l16.21,8.29,5.93,19.36-13.12,25.65c-.9,1.77-3.07,2.47-4.83,1.56h0Z"/>
      <path class="cls-8" d="m143,69.19s.05.02.15.06.24.1.44.16c.39.12,1.01.24,1.8.07.77-.17,1.72-.66,2.3-1.67.55-1.02,1.14-2.23,1.83-3.57,2.73-5.36,6.64-13.03,11.37-22.3v.06c-1.81-5.85-3.81-12.39-5.95-19.35l.05.06c-3.01-1.54-6.14-3.14-9.36-4.78-1.61-.82-3.24-1.66-4.89-2.5-.41-.21-.83-.42-1.24-.63-.42-.21-.83-.45-1.26-.59-.86-.28-1.85-.2-2.66.23-.57.29-1.06.75-1.38,1.29-.31.56-.6,1.16-.9,1.73-.59,1.16-1.18,2.31-1.77,3.45-1.17,2.28-2.32,4.54-3.46,6.75-2.26,4.42-4.45,8.69-6.53,12.75-1.04,2.03-2.06,4.01-3.04,5.94-.49.96-.98,1.91-1.46,2.85-.24.47-.48.93-.71,1.39-.23.47-.5.9-.63,1.38-.28.96-.11,2,.4,2.81.25.41.59.76.97,1.02.39.26.83.46,1.24.68,1.68.86,3.29,1.69,4.82,2.47,6.14,3.16,11.11,5.71,14.55,7.48,1.71.88,3.04,1.57,3.95,2.04.45.24.79.41,1.02.53.23.12.35.19.35.19,0,0-.12-.06-.35-.17l-1.04-.52c-.91-.46-2.25-1.14-3.97-2.01-3.45-1.75-8.43-4.29-14.58-7.42-1.54-.79-3.15-1.61-4.83-2.46-.42-.22-.85-.41-1.26-.69-.4-.28-.75-.65-1.02-1.07-.53-.85-.71-1.94-.42-2.95.14-.51.41-.95.64-1.41.24-.46.47-.92.71-1.39.48-.93.96-1.89,1.45-2.85.98-1.92,2-3.91,3.04-5.94,2.08-4.07,4.26-8.33,6.52-12.76,1.13-2.21,2.28-4.46,3.45-6.75.59-1.14,1.17-2.29,1.77-3.45.3-.58.58-1.16.91-1.74.34-.58.86-1.06,1.46-1.37.86-.45,1.9-.54,2.82-.24.47.15.87.39,1.28.6.41.21.83.42,1.24.63,1.65.84,3.28,1.68,4.89,2.5,3.22,1.65,6.35,3.25,9.35,4.79l.04.02v.04c2.14,6.97,4.14,13.5,5.93,19.36v.03s0,.03,0,.03c-4.75,9.25-8.68,16.92-11.43,22.27-.69,1.34-1.29,2.53-1.85,3.56-.61,1.03-1.58,1.52-2.36,1.68-.8.16-1.43.03-1.82-.1-.2-.06-.34-.13-.43-.18-.1-.04-.14-.07-.14-.07h.01Z"/>
    </g>
    <path class="cls-8" d="m147.99,31.08c-.06.13-2.77-1.12-6.03-2.79s-5.86-3.13-5.79-3.26c.06-.13,2.77,1.12,6.03,2.79,3.26,1.67,5.86,3.13,5.79,3.26Z"/>
    <path class="cls-8" d="m152.75,40.62c-.06.13-4.48-2-9.85-4.75s-9.68-5.09-9.62-5.21,4.48,2,9.85,4.75,9.68,5.08,9.61,5.21h0Z"/>
    <path class="cls-8" d="m152.1,46.22c-.06.13-4.87-2.2-10.73-5.2-5.86-3-10.56-5.53-10.49-5.66s4.87,2.2,10.73,5.2c5.86,3,10.56,5.53,10.49,5.66h0Z"/>
    <path class="cls-8" d="m149.83,50.65c-.06.13-4.87-2.2-10.73-5.2-5.86-3-10.56-5.53-10.49-5.66s4.87,2.2,10.73,5.2c5.86,3,10.56,5.53,10.49,5.66h0Z"/>
    <path class="cls-8" d="m147.56,55.09c-.06.13-4.87-2.2-10.73-5.2-5.86-3-10.56-5.53-10.49-5.66.06-.13,4.87,2.2,10.73,5.2,5.86,3,10.56,5.53,10.49,5.66h0Z"/>
    <path class="cls-8" d="m145.29,59.52c-.06.13-4.87-2.2-10.73-5.2-5.86-3-10.56-5.53-10.49-5.66.06-.13,4.87,2.2,10.73,5.2,5.86,3,10.56,5.53,10.49,5.66h0Z"/>
    <path class="cls-7" d="m154.82,22.49l-5.09,9.96c-.84,1.64-.19,3.65,1.45,4.5l9.58,4.9-5.93-19.36Z"/>
  </g>
  <g>
    <g>
      <path class="cls-12" d="m82.1,35.93l-19.73,25.99c-1.36,1.8-3.93,2.15-5.72.78l-35.97-27.31c-1.8-1.36-2.15-3.93-.78-5.72l12.51-16.48,22.84-2.77,26.07,19.8c1.8,1.36,2.15,3.93.78,5.72h0Z"/>
      <path class="cls-8" d="m82.1,35.93s.03-.05.1-.15c.07-.1.16-.25.27-.46.21-.41.46-1.09.43-2-.04-.89-.39-2.05-1.41-2.91-1.04-.81-2.27-1.72-3.63-2.75-5.45-4.12-13.25-10.03-22.68-17.17l.07.02c-6.91.84-14.61,1.79-22.83,2.79l.08-.04c-2.32,3.06-4.73,6.24-7.22,9.51-1.24,1.64-2.5,3.3-3.78,4.97-.32.42-.64.84-.96,1.26-.31.43-.67.83-.9,1.29-.49.91-.59,2.02-.28,3.02.22.69.62,1.33,1.17,1.8.56.46,1.18.9,1.76,1.35,1.18.89,2.35,1.78,3.51,2.66,2.32,1.77,4.61,3.5,6.86,5.21,4.5,3.42,8.83,6.71,12.96,9.85,2.06,1.57,4.08,3.1,6.03,4.59.98.75,1.94,1.48,2.89,2.2.47.36.94.72,1.41,1.07.47.35.91.74,1.41.98,1.01.5,2.22.52,3.22.12.51-.2.96-.5,1.34-.88.37-.38.68-.84,1-1.26,1.3-1.71,2.54-3.34,3.73-4.9,4.75-6.24,8.6-11.29,11.27-14.78,1.33-1.74,2.37-3.09,3.07-4.01.35-.45.62-.8.81-1.04.18-.24.28-.35.28-.35,0,0-.08.13-.26.36-.18.24-.44.59-.79,1.05-.7.93-1.72,2.29-3.04,4.04-2.65,3.5-6.48,8.57-11.21,14.83-1.18,1.56-2.43,3.2-3.72,4.91-.33.42-.63.87-1.02,1.28-.39.39-.87.71-1.4.92-1.06.43-2.32.41-3.38-.12-.54-.26-.98-.65-1.45-1-.47-.35-.94-.71-1.41-1.07-.95-.72-1.92-1.45-2.89-2.2-1.96-1.49-3.97-3.01-6.04-4.58-4.13-3.14-8.47-6.43-12.97-9.84-2.25-1.71-4.54-3.44-6.86-5.21-1.16-.88-2.33-1.77-3.51-2.66-.59-.45-1.18-.88-1.77-1.36-.58-.5-1.01-1.17-1.24-1.91-.33-1.06-.22-2.24.29-3.2.26-.49.61-.89.92-1.32.32-.42.64-.84.96-1.26,1.28-1.68,2.53-3.34,3.78-4.97,2.49-3.27,4.9-6.45,7.22-9.51l.03-.04h.05c8.22-1,15.93-1.93,22.84-2.77h.04l.03.02c9.41,7.16,17.19,13.09,22.63,17.23,1.36,1.04,2.57,1.95,3.61,2.78,1.03.88,1.39,2.07,1.41,2.98.02.92-.25,1.6-.47,2.01-.11.21-.21.36-.28.45-.07.1-.11.14-.11.14h.02Z"/>
    </g>
    <path class="cls-8" d="m40.47,22.74c.13.1-1.81,2.87-4.33,6.19-2.52,3.32-4.67,5.93-4.8,5.83-.13-.1,1.81-2.87,4.33-6.19s4.67-5.93,4.8-5.83h0Z"/>
    <path class="cls-8" d="m52.08,19.32c.13.1-3.13,4.61-7.28,10.07s-7.62,9.81-7.75,9.72c-.13-.1,3.13-4.61,7.28-10.07s7.62-9.81,7.75-9.71h0Z"/>
    <path class="cls-8" d="m58.22,21.17c.13.1-3.43,5.01-7.95,10.96-4.52,5.96-8.29,10.71-8.43,10.61s3.43-5.01,7.96-10.96c4.52-5.95,8.29-10.71,8.43-10.61h0Z"/>
    <path class="cls-8" d="m62.73,24.59c.13.1-3.43,5.01-7.95,10.96-4.52,5.96-8.29,10.71-8.43,10.61s3.43-5.01,7.96-10.96c4.52-5.95,8.29-10.71,8.43-10.61h0Z"/>
    <path class="cls-8" d="m67.24,28.01c.13.1-3.43,5.01-7.95,10.96-4.52,5.96-8.29,10.71-8.43,10.61s3.43-5.01,7.96-10.96c4.52-5.95,8.29-10.71,8.43-10.61h0Z"/>
    <path class="cls-8" d="m71.74,31.44c.13.1-3.43,5.01-7.95,10.96-4.52,5.96-8.29,10.71-8.43,10.61s3.43-5.01,7.96-10.96c4.52-5.95,8.29-10.71,8.43-10.61h0Z"/>
    <path class="cls-7" d="m32.22,13.38l10.12,7.69c1.67,1.27,4.05.94,5.32-.73l7.39-9.73-22.84,2.77Z"/>
  </g>
  <g>
    <path class="cls-10" d="m178.15,93.9h-7.91s-.71-1.33-.71-1.33c-.46-.86-1.4-1.4-2.42-1.4h-7.73c-1.38,0-2.49,1.05-2.49,2.34v24.64c.01,1.46,1.28,2.65,2.84,2.65l31.42-.02c1.56,0,2.83-1.19,2.83-2.65v-22.42c-.01-1-.82-1.81-1.82-1.81h-14s0,0,0,0Z"/>
    <path class="cls-11" d="m182.86,106.04c0,.07-2.88.13-6.42.13s-6.42-.05-6.42-.12,2.87-.13,6.42-.13,6.42.05,6.42.12Z"/>
    <path class="cls-11" d="m182.86,107.72c0,.07-2.88.13-6.42.13s-6.42-.05-6.42-.12,2.87-.13,6.42-.13,6.42.05,6.42.12Z"/>
  </g>
  <g>
    <g>
      <path class="cls-11" d="m110.32,89.24c-4.34,10.09-16.02,14.76-26.12,10.42-10.09-4.34-14.76-16.02-10.42-26.12,4.34-10.09,16.02-14.76,26.12-10.42,10.09,4.34,14.76,16.02,10.42,26.12Z"/>
      <path class="cls-8" d="m110.32,89.24s.02-.11.1-.31c.08-.22.18-.51.3-.89.07-.19.14-.42.23-.65.08-.24.13-.52.2-.81.15-.59.34-1.26.42-2.05.28-1.54.33-3.49.04-5.71-.3-2.2-1.02-4.68-2.41-7.12-1.39-2.42-3.41-4.84-6.18-6.64-2.75-1.79-6.14-3.12-9.85-3.29-.92-.09-1.86-.02-2.8.03-.94.13-1.89.21-2.83.47-.95.19-1.87.54-2.8.87-.9.42-1.82.8-2.67,1.34-1.72,1.03-3.37,2.29-4.72,3.87-1.37,1.56-2.52,3.35-3.38,5.3-.82,1.97-1.33,4.04-1.51,6.1-.22,2.07.01,4.13.45,6.09.2.99.55,1.93.87,2.86.42.9.78,1.81,1.3,2.62.45.86,1.06,1.61,1.6,2.38.63.71,1.21,1.44,1.91,2.05,2.67,2.58,5.97,4.11,9.16,4.88,3.21.76,6.36.56,9.08-.09,2.73-.67,5.02-1.85,6.83-3.15,1.8-1.31,3.18-2.69,4.1-3.96.51-.6.87-1.21,1.2-1.71.16-.26.32-.49.45-.71.12-.23.22-.43.31-.62.19-.35.33-.63.43-.83.1-.19.16-.28.16-.28s-.03.11-.12.3c-.1.21-.23.5-.4.86-.09.19-.19.41-.3.63-.12.23-.28.47-.43.73-.31.52-.66,1.14-1.17,1.75-.92,1.3-2.29,2.71-4.1,4.05-1.82,1.34-4.14,2.56-6.9,3.25-2.75.68-5.95.9-9.23.16-3.25-.77-6.62-2.31-9.36-4.94-.71-.62-1.32-1.36-1.96-2.09-.57-.78-1.18-1.54-1.64-2.43-.53-.84-.91-1.76-1.33-2.68-.33-.96-.69-1.91-.89-2.92-.44-2-.68-4.11-.46-6.22.19-2.11.71-4.23,1.55-6.24.89-1.99,2.06-3.82,3.45-5.42,1.38-1.62,3.07-2.9,4.83-3.95.87-.55,1.81-.94,2.73-1.36.96-.33,1.89-.68,2.86-.87.95-.27,1.93-.35,2.89-.48.96-.04,1.92-.11,2.86-.02,3.78.17,7.24,1.56,10.02,3.38,2.8,1.86,4.84,4.33,6.25,6.8,1.4,2.48,2.11,5.01,2.39,7.24.27,2.24.19,4.2-.11,5.76-.1.79-.31,1.46-.46,2.05-.08.3-.14.57-.23.81-.09.24-.18.45-.25.65-.15.37-.26.66-.35.88-.08.2-.12.3-.13.29l.02-.02Z"/>
    </g>
    <path class="cls-7" d="m104.83,80.65c.77.43.79,1.52.04,1.97l-8.75,5.69-8.87,5.34c-.88.12-1.84-.41-1.85-1.29l-.2-10.35-.2-10.35c-.01-.87.92-1.44,1.69-1.02l9.06,5.01,9.06,5.01h.02Z"/>
  </g>
  <path class="cls-7" d="m52.95,111.65c1.61-.98,2.57-2.93,2.28-5.03-.39-2.74-2.8-4.66-5.37-4.3s-4.33,2.89-3.94,5.63c.3,2.11,1.8,3.73,3.65,4.19-7,2.14-5.52,9.87-5.52,9.87l16.94-2.43s-.78-7.92-8.03-7.94h0Z"/>
  <g>
    <g>
      <rect class="cls-13" x="11.55" y="66.07" width="34.57" height="23.3" rx="1.68" ry="1.68" transform="translate(-14.94 7.33) rotate(-11.52)"/>
      <path class="cls-8" d="m46.46,86.02s.1-.02.28-.1c.18-.07.43-.21.67-.5.23-.28.43-.75.35-1.28-.11-.54-.24-1.16-.38-1.86-.58-2.8-1.41-6.85-2.45-11.84-.26-1.25-.53-2.56-.81-3.93-.14-.68-.29-1.37-.43-2.08-.16-.68-.82-1.2-1.54-1.19-.35.01-.73.13-1.1.2-.37.08-.75.16-1.13.23-.76.16-1.53.31-2.32.47-1.57.32-3.18.65-4.83.99-6.62,1.35-13.89,2.83-21.52,4.39-.45.09-.85.39-1.07.79-.11.2-.18.42-.19.65-.02.23.03.45.08.69.19.94.38,1.88.57,2.81.38,1.86.75,3.69,1.12,5.49.73,3.6,1.44,7.07,2.11,10.38l.13.62c.04.2.12.38.23.54.22.33.56.57.94.66.19.05.38.06.57.04.19-.02.39-.08.59-.12.4-.08.79-.16,1.18-.24,1.57-.32,3.09-.63,4.56-.92,2.94-.59,5.68-1.15,8.19-1.65,5-1,9.05-1.82,11.86-2.38,1.39-.28,2.48-.49,3.22-.64.36-.07.65-.12.84-.16.19-.04.29-.05.29-.05,0,0-.1.03-.28.07-.2.04-.47.1-.84.18-.74.16-1.83.38-3.22.68-2.8.58-6.85,1.41-11.84,2.45-2.5.51-5.24,1.08-8.18,1.68-1.47.3-2.99.61-4.56.93-.39.08-.79.16-1.18.24-.2.04-.39.09-.61.12-.22.03-.43.01-.65-.04-.42-.1-.81-.37-1.05-.74-.12-.18-.21-.39-.26-.61l-.13-.62c-.68-3.31-1.39-6.78-2.12-10.38-.37-1.8-.74-3.63-1.12-5.49-.19-.93-.38-1.87-.57-2.81-.05-.23-.11-.49-.08-.74.02-.26.09-.51.22-.73.25-.45.7-.79,1.21-.89,7.63-1.55,14.91-3.03,21.52-4.38,1.65-.33,3.27-.66,4.83-.98.79-.16,1.55-.31,2.32-.47.38-.08.76-.15,1.13-.23.19-.04.37-.08.56-.11s.37-.08.57-.08c.8,0,1.53.57,1.71,1.32.14.71.29,1.41.43,2.09.28,1.37.54,2.68.79,3.93,1,5,1.82,9.05,2.38,11.86.14.7.27,1.32.37,1.87.08.56-.14,1.03-.37,1.32-.25.29-.52.43-.7.49-.18.07-.28.08-.28.08h0Z"/>
    </g>
    <g>
      <polyline class="cls-13" points="9.93 70.65 29.55 80.11 42.28 63.17"/>
      <path class="cls-8" d="m42.28,63.17s-.02.03-.06.09c-.05.07-.11.16-.18.26-.18.24-.42.57-.73,1-.65.87-1.57,2.12-2.7,3.65-2.3,3.08-5.48,7.32-8.99,12.01l-.05.07-.08-.04c-.08-.04-.17-.08-.26-.12-5.34-2.59-10.16-4.93-13.67-6.63-1.73-.85-3.14-1.55-4.13-2.03-.47-.24-.85-.43-1.12-.56-.12-.06-.21-.11-.29-.15-.06-.04-.1-.06-.1-.06,0,0,.04,0,.1.04.08.04.18.08.3.13.27.13.65.3,1.14.53,1,.47,2.42,1.14,4.16,1.97,3.52,1.69,8.36,4.01,13.7,6.58.09.04.18.08.26.12l-.13.03c3.53-4.68,6.72-8.9,9.04-11.97,1.16-1.51,2.09-2.74,2.75-3.61.32-.41.57-.74.76-.97.08-.1.15-.18.2-.25.05-.06.07-.08.08-.08h0Z"/>
    </g>
    <path class="cls-8" d="m22.32,76.7c.05.02-1.61,3.49-3.71,7.73-2.1,4.24-3.85,7.66-3.9,7.64s1.61-3.49,3.71-7.73c2.1-4.24,3.85-7.66,3.9-7.64Z"/>
    <path class="cls-8" d="m33.62,74.69s3.24,2.3,7.15,5.23c3.92,2.94,7.06,5.35,7.03,5.4-.04.04-3.24-2.3-7.15-5.23-3.91-2.93-7.06-5.35-7.03-5.4h0Z"/>
  </g>
  <g>
    <rect class="cls-1" x="144.88" y="131.21" width="40.11" height="59.51" transform="translate(-65.34 151.59) rotate(-41.97)"/>
    <path class="cls-7" d="m199.51,170.16s-.27,0-.77-.05c-.55-.06-1.28-.15-2.19-.26-1.95-.26-4.69-.62-8.04-1.06-6.84-.95-16.19-2.26-26.55-3.71l-.22-.03v-.22c-.02-.17-.04-.35-.05-.53-.59-10.57-1.12-20.14-1.51-27.13-.16-3.43-.3-6.22-.4-8.22-.03-.93-.06-1.67-.08-2.24-.01-.51-.01-.78,0-.78s.05.27.1.78c.05.56.11,1.31.18,2.23.14,2,.33,4.79.57,8.21.43,6.99,1.02,16.56,1.67,27.12.01.18.02.37.03.53l-.23-.25c10.35,1.51,19.7,2.87,26.53,3.86,3.34.51,6.06.93,8.01,1.23.9.15,1.63.27,2.17.36.49.09.75.14.75.16h0Z"/>
    <path class="cls-7" d="m129.9,152.73c0-.15,7.08-.5,15.81-.78,8.74-.28,15.83-.39,15.83-.24,0,.15-7.08.5-15.82.78-8.74.28-15.83.39-15.83.24h0Z"/>
    <path class="cls-7" d="m175.14,166.08c.15.02-.95,6.96-2.46,15.5-1.51,8.53-2.85,15.43-2.99,15.4s.95-6.96,2.46-15.5c1.51-8.53,2.84-15.43,2.99-15.4h0Z"/>
  </g>
  <path class="cls-2" d="m124.61,111.34c3.34-.46,6.31-2.99,7.3-6.64,1.3-4.78-1.28-9.64-5.76-10.86-4.48-1.22-9.16,1.67-10.46,6.45-1,3.68.31,7.39,3.02,9.47-13-1.45-16.06,12.28-16.06,12.28l29.52,8.02s4.34-13.55-7.55-18.73Z"/>
</svg>