<?xml version="1.0" encoding="UTF-8"?>
<svg id="Layer_1" data-name="Layer 1" xmlns="http://www.w3.org/2000/svg" viewBox="0 0 200 200">
  <defs>
    <style>
      .cls-1 {
        opacity: .1;
      }

      .cls-2 {
        opacity: .2;
      }

      .cls-3, .cls-4, .cls-5, .cls-6, .cls-7, .cls-8, .cls-9, .cls-10, .cls-11, .cls-12, .cls-13, .cls-14, .cls-15, .cls-16 {
        stroke-width: 0px;
      }

      .cls-4 {
        fill: #cbcbcb;
      }

      .cls-5 {
        fill: #d0d0d0;
      }

      .cls-6 {
        fill: #e0e0e0;
      }

      .cls-7 {
        fill: #c6c5c5;
      }

      .cls-8 {
        fill: #bebebe;
      }

      .cls-9 {
        fill: #b6b6b6;
      }

      .cls-10 {
        fill: #f60;
      }

      .cls-11 {
        fill: #fff;
      }

      .cls-12 {
        fill: #fbfbfb;
      }

      .cls-13 {
        fill: #ebebeb;
      }

      .cls-14 {
        fill: #fafbfb;
      }

      .cls-15 {
        fill: #fcfcfc;
      }

      .cls-16 {
        fill: #f5f5f5;
      }
    </style>
  </defs>
  <g>
    <g>
      <path class="cls-15" d="m59.72,160.35c10.72,2.71,17.23,13.59,14.53,24.32-2.71,10.72-13.59,17.23-24.32,14.53-10.72-2.71-17.23-13.59-14.53-24.32,2.71-10.72,13.59-17.23,24.32-14.52h0Z"/>
      <g class="cls-1">
        <path class="cls-11" d="m35.4,174.87c-2.71,10.72,3.8,21.61,14.53,24.32,0,0,4.05-13.49-.62-18.16-4.67-4.67-13.91-6.16-13.91-6.16Z"/>
      </g>
      <path class="cls-15" d="m58.16,165.24c8.16,2.05,13.09,10.33,11.04,18.49-2.05,8.16-10.33,13.09-18.49,11.04-8.16-2.05-13.09-10.33-11.04-18.49,2.05-8.16,10.33-13.09,18.49-11.04Z"/>
      <g class="cls-2">
        <path class="cls-3" d="m58.16,165.24c8.16,2.05,13.09,10.33,11.04,18.49-2.05,8.16-10.33,13.09-18.49,11.04-8.16-2.05-13.09-10.33-11.04-18.49,2.05-8.16,10.33-13.09,18.49-11.04Z"/>
      </g>
      <path class="cls-15" d="m58.88,164.97c8.04,2.03,12.92,10.19,10.89,18.24-2.03,8.04-10.19,12.92-18.24,10.89s-12.92-10.19-10.89-18.24c2.03-8.04,10.19-12.92,18.24-10.89Z"/>
      <path class="cls-16" d="m58.88,164.97c8.04,2.03,12.92,10.19,10.89,18.24-2.03,8.04-10.19,12.92-18.24,10.89s-12.92-10.19-10.89-18.24c2.03-8.04,10.19-12.92,18.24-10.89Z"/>
    </g>
    <path class="cls-11" d="m59.77,198.6s-.06.02-.17.05c-.13.03-.3.07-.51.12-.22.06-.49.11-.8.16-.31.05-.67.13-1.08.16-.2.02-.41.05-.63.07s-.45.02-.68.04c-.47.04-.98.01-1.51.01-1.07-.05-2.24-.17-3.44-.42-1.2-.26-2.32-.62-3.31-1.01-.49-.21-.96-.4-1.38-.62-.21-.11-.42-.2-.61-.31-.19-.11-.38-.22-.55-.31-.36-.19-.66-.4-.92-.58-.27-.17-.5-.33-.67-.48-.17-.13-.31-.24-.41-.31-.09-.08-.14-.12-.13-.12,0,0,.05.03.16.09.11.08.26.17.43.29.18.13.4.29.68.45.27.16.57.37.93.55.17.1.36.2.55.3s.4.19.61.3c.42.21.89.4,1.38.6.99.38,2.1.73,3.3.98,1.19.25,2.36.37,3.41.42.53,0,1.04.03,1.51,0,.23,0,.46-.01.68-.03s.42-.04.63-.06c.4-.02.75-.09,1.08-.13.31-.04.58-.09.8-.13.21-.04.38-.07.5-.1.12-.02.18-.03.18-.02h-.02Z"/>
    <path class="cls-11" d="m51.95,183.55s-.17.18-.53.32c-.36.14-.92.23-1.5.06-.58-.17-1.01-.55-1.24-.86-.23-.32-.3-.56-.28-.55.02-.01.12.21.36.49s.65.62,1.2.78c.54.16,1.07.09,1.43-.02s.55-.24.57-.22h0Z"/>
    <path class="cls-11" d="m47.13,178.83s-.29,0-.63-.08c-.34-.08-.6-.18-.59-.23,0-.04.29,0,.63.08.34.08.6.18.59.23Z"/>
    <path class="cls-11" d="m39.63,174.85s-.04.17-.14.47c-.05.15-.11.33-.16.54-.06.21-.14.46-.19.73-.06.27-.13.57-.18.89-.07.32-.11.67-.15,1.04-.07.74-.12,1.55-.08,2.4.04.85.15,1.66.28,2.39.08.36.15.71.24,1.03.08.32.18.61.26.88.08.27.17.5.26.72.07.21.15.39.21.53.12.29.18.46.18.45s-.09-.15-.23-.43c-.07-.14-.15-.31-.24-.52-.08-.21-.19-.44-.28-.71-.09-.26-.19-.56-.28-.88-.1-.32-.17-.66-.25-1.03-.15-.73-.26-1.55-.3-2.41-.03-.86.01-1.68.1-2.43.05-.37.1-.72.17-1.05.06-.32.14-.62.21-.9.06-.28.15-.51.21-.73s.13-.4.19-.54c.12-.3.18-.46.19-.45h-.02Z"/>
    <path class="cls-11" d="m73.84,182.05s.02.13.01.37c0,.24-.03.58-.07,1-.1.84-.33,2.01-.77,3.23s-1.02,2.27-1.49,2.97c-.24.35-.43.64-.59.82-.15.19-.23.28-.24.28s.06-.12.2-.32c.14-.19.32-.48.55-.84.45-.72,1-1.75,1.44-2.97.44-1.21.69-2.36.81-3.2.06-.42.11-.76.12-.99.02-.23.04-.36.05-.36h-.02Z"/>
  </g>
  <g>
    <g>
      <path class="cls-12" d="m173.03,199.39l-34.62-17.71c-2.39-1.23-3.34-4.16-2.12-6.55l24.51-47.92c1.23-2.39,4.16-3.34,6.55-2.12l21.96,11.23,8.04,26.21-17.77,34.74c-1.23,2.39-4.16,3.34-6.55,2.12h0Z"/>
      <path class="cls-7" d="m173.03,199.39s.07.02.2.08.32.14.59.22c.53.16,1.37.32,2.43.09,1.04-.23,2.33-.9,3.12-2.26.74-1.39,1.54-3.02,2.47-4.83,3.7-7.26,9-17.65,15.39-30.2v.09c-2.44-7.93-5.16-16.77-8.06-26.21l.06.08c-4.07-2.08-8.31-4.25-12.67-6.48-2.18-1.12-4.39-2.25-6.63-3.39-.56-.29-1.12-.57-1.68-.86-.57-.28-1.12-.61-1.7-.79-1.17-.38-2.5-.27-3.61.31-.77.4-1.43,1.01-1.87,1.75-.43.76-.81,1.57-1.22,2.34-.8,1.57-1.6,3.12-2.39,4.67-1.58,3.09-3.15,6.14-4.68,9.14-3.07,5.99-6.03,11.77-8.85,17.27-1.41,2.75-2.78,5.43-4.12,8.04-.67,1.31-1.33,2.59-1.98,3.85-.32.63-.65,1.26-.97,1.88-.31.63-.67,1.23-.85,1.87-.38,1.3-.15,2.71.54,3.81.34.55.79,1.03,1.32,1.39.52.36,1.12.62,1.68.92,2.27,1.17,4.45,2.28,6.53,3.35,8.32,4.27,15.04,7.73,19.7,10.13,2.32,1.2,4.12,2.13,5.35,2.77.6.32,1.07.56,1.39.72.31.17.47.25.47.25,0,0-.17-.08-.48-.23l-1.4-.7c-1.24-.63-3.04-1.54-5.38-2.72-4.67-2.37-11.41-5.81-19.74-10.05-2.08-1.06-4.26-2.18-6.54-3.34-.57-.3-1.16-.56-1.71-.93-.55-.38-1.02-.87-1.38-1.45-.72-1.15-.97-2.63-.57-3.99.19-.69.56-1.29.87-1.91.32-.62.64-1.25.96-1.88.65-1.26,1.3-2.55,1.97-3.85,1.33-2.61,2.7-5.29,4.11-8.05,2.81-5.51,5.77-11.29,8.83-17.28,1.53-3,3.09-6.04,4.67-9.14.79-1.55,1.59-3.1,2.39-4.67.41-.78.78-1.57,1.23-2.36.46-.78,1.17-1.43,1.98-1.85,1.17-.61,2.57-.73,3.82-.32.63.2,1.18.53,1.74.81.56.29,1.12.57,1.68.86,2.23,1.14,4.45,2.28,6.63,3.39,4.36,2.23,8.6,4.4,12.67,6.49l.05.03.02.05c2.89,9.44,5.59,18.29,8.02,26.22l.02.04-.02.04c-6.43,12.53-11.76,22.91-15.48,30.16-.94,1.81-1.75,3.43-2.5,4.82-.82,1.39-2.14,2.06-3.2,2.28-1.08.22-1.93.04-2.46-.13-.27-.09-.46-.17-.59-.24-.13-.06-.19-.1-.19-.1h.02Z"/>
    </g>
    <path class="cls-7" d="m179.79,147.78c-.09.17-3.75-1.52-8.17-3.78s-7.94-4.24-7.85-4.41c.09-.17,3.75,1.52,8.17,3.78,4.42,2.26,7.94,4.24,7.85,4.41Z"/>
    <path class="cls-7" d="m186.23,160.7c-.09.17-6.06-2.7-13.34-6.43-7.28-3.72-13.11-6.89-13.02-7.06s6.06,2.7,13.34,6.43,13.11,6.88,13.02,7.06h0Z"/>
    <path class="cls-7" d="m185.35,168.28c-.09.17-6.6-2.98-14.53-7.04-7.94-4.06-14.3-7.49-14.21-7.66s6.59,2.98,14.53,7.04c7.93,4.06,14.3,7.49,14.21,7.66h0Z"/>
    <path class="cls-7" d="m182.28,174.29c-.09.17-6.6-2.98-14.53-7.04-7.94-4.06-14.3-7.49-14.21-7.66s6.6,2.98,14.53,7.04c7.93,4.06,14.3,7.49,14.21,7.66h0Z"/>
    <path class="cls-7" d="m179.2,180.29c-.09.17-6.6-2.98-14.53-7.04-7.94-4.06-14.3-7.49-14.21-7.66.09-.17,6.6,2.98,14.53,7.04,7.93,4.06,14.3,7.49,14.21,7.66h0Z"/>
    <path class="cls-7" d="m176.13,186.3c-.09.17-6.6-2.98-14.53-7.04-7.94-4.06-14.3-7.49-14.21-7.66.09-.17,6.59,2.98,14.53,7.04,7.93,4.06,14.3,7.49,14.21,7.66h0Z"/>
    <path class="cls-6" d="m189.04,136.15l-6.9,13.49c-1.14,2.22-.26,4.95,1.96,6.09l12.97,6.64-8.04-26.21Z"/>
  </g>
  <path class="cls-16" d="m27.08,89.61c4.7-2.84,7.5-8.54,6.63-14.63-1.15-7.98-8.15-13.58-15.63-12.51s-12.61,8.41-11.48,16.4c.88,6.15,5.25,10.85,10.63,12.21C-3.15,97.29,1.15,119.81,1.15,119.81l49.32-7.07s-2.26-23.06-23.38-23.13h-.01Z"/>
  <g>
    <g>
      <path class="cls-16" d="m149.38,107.53l-46.87-17.14c-3.24-1.18-4.87-4.69-3.64-7.82l24.53-62.74c1.22-3.13,4.84-4.71,8.08-3.53l29.72,10.87,14.04,31.35-17.79,45.48c-1.22,3.13-4.84,4.71-8.08,3.53h0Z"/>
      <path class="cls-13" d="m161.2,27.17l-6.91,17.66c-1.14,2.91.38,6.17,3.39,7.27l17.56,6.43-14.04-31.35h0Z"/>
      <path class="cls-6" d="m153.93,46.47s-1.9,4.2,2.59,7.45c.17.12.35.23.53.34,2.14,1.24,16.21,9.35,16.34,9.01.14-.36,1.86-4.75,1.86-4.75l-17.56-6.42s-4.33-1.75-3.76-5.63h0Z"/>
    </g>
    <path class="cls-6" d="m150.65,42.67c-.09.22-5.02-1.36-11-3.56-5.99-2.19-10.77-4.15-10.68-4.38.09-.22,5.02,1.36,11,3.56,5.99,2.19,10.77,4.15,10.68,4.38Z"/>
    <path class="cls-6" d="m160.75,57.78c-.09.22-8.15-2.51-18.01-6.11-9.85-3.6-17.78-6.71-17.68-6.94.09-.22,8.15,2.51,18.01,6.11,9.85,3.6,17.77,6.71,17.68,6.94Z"/>
    <path class="cls-6" d="m160.7,67.29c-.09.22-8.87-2.78-19.61-6.71-10.74-3.93-19.38-7.3-19.29-7.53.09-.22,8.87,2.78,19.61,6.71s19.38,7.3,19.29,7.52h0Z"/>
    <path class="cls-6" d="m157.62,75.16c-.09.23-8.87-2.78-19.61-6.7-10.74-3.93-19.38-7.3-19.29-7.53.09-.22,8.87,2.78,19.61,6.71,10.74,3.93,19.38,7.3,19.29,7.52Z"/>
    <path class="cls-6" d="m154.55,83.02c-.09.22-8.87-2.78-19.61-6.7-10.74-3.93-19.38-7.3-19.29-7.53.09-.22,8.87,2.78,19.61,6.71,10.74,3.93,19.38,7.3,19.29,7.53h0Z"/>
    <path class="cls-6" d="m151.47,90.89c-.09.22-8.87-2.78-19.61-6.71-10.74-3.93-19.38-7.3-19.29-7.53.09-.22,8.87,2.78,19.61,6.71s19.38,7.3,19.29,7.53Z"/>
  </g>
  <g>
    <g>
      <path class="cls-13" d="m109.72,95.3l-48.51,16.43c-1.68.57-3.51-.29-4.1-1.91l-24.34-67.22c-.59-1.62.3-3.4,1.98-3.97l48.51-16.43c1.68-.57,3.51.29,4.1,1.91l24.34,67.22c.59,1.62-.3,3.4-1.98,3.97h0Z"/>
      <g>
        <g>
          <polygon class="cls-6" points="108 93 61.07 108.9 36.94 42.26 83.87 26.37 108 93"/>
          <g>
            <polygon class="cls-14" points="106.7 91.42 59.77 107.31 36.11 41.95 83.04 26.06 106.7 91.42"/>
            <path class="cls-6" d="m106.7,91.42c-.2-.54-9.73-26.79-23.73-65.34l.08.04c-14.23,4.82-30.16,10.22-46.92,15.9h0l.04-.09c8.85,24.55,17.08,47.23,23.65,65.37l-.08-.04c28.55-9.63,46.49-15.68,46.95-15.84-.46.16-18.39,6.25-46.91,15.95l-.06.02-.02-.06c-6.57-18.14-14.79-40.81-23.68-65.36l-.02-.07.07-.02h0c16.77-5.68,32.69-11.07,46.93-15.89l.06-.02.02.06c13.92,38.58,23.4,64.84,23.6,65.38h0Z"/>
          </g>
          <path class="cls-6" d="m90.05,97.06s10.45-8.52,12.26-17.4c0,0-2.9,4.4-8.94,5.2,0,0-.21,9.32-3.33,12.2h0Z"/>
          <g>
            <path class="cls-13" d="m54.16,62.06l-2.47.84c-.9.3-1.89-.15-2.2-1.03l-.87-2.39c-.32-.87.16-1.83,1.06-2.13l2.47-.84c.9-.3,1.89.15,2.2,1.03l.87,2.39c.32.87-.16,1.83-1.06,2.13Z"/>
            <path class="cls-11" d="m51.85,60.63h0s-.08,0-.11-.01l-1.13-.63c-.07-.04-.09-.12-.05-.19.04-.06.12-.09.19-.05l1,.56,1.19-2.47c.03-.07.12-.1.19-.06s.1.11.07.18l-1.26,2.61s-.04.06-.08.07h0Z"/>
            <path class="cls-6" d="m84.26,46.4s-6.08,2.14-13.61,4.68c-7.53,2.55-13.65,4.59-13.66,4.55s6.08-2.14,13.61-4.68c7.53-2.55,13.65-4.59,13.66-4.55Z"/>
            <path class="cls-6" d="m69.94,55.8s-.15.07-.44.18c-.31.11-.73.26-1.22.44-1.03.36-2.47.86-4.06,1.39-1.59.54-3.03,1.02-4.07,1.35-.5.16-.92.3-1.24.4-.29.09-.46.14-.46.13,0,0,.15-.07.44-.18.31-.11.73-.26,1.22-.44,1.03-.36,2.47-.86,4.06-1.39s3.03-1.02,4.07-1.35c.5-.16.92-.3,1.24-.4.29-.09.46-.14.46-.13Z"/>
            <path class="cls-6" d="m84.9,48.2s-6.08,2.14-13.61,4.68c-7.53,2.55-13.65,4.59-13.66,4.55s6.08-2.14,13.61-4.68c7.53-2.55,13.65-4.59,13.66-4.55Z"/>
          </g>
          <g>
            <path class="cls-13" d="m57.68,71.8l-2.47.84c-.9.3-1.89-.15-2.2-1.03l-.87-2.39c-.32-.87.16-1.83,1.06-2.13l2.47-.84c.9-.3,1.89.15,2.2,1.03l.87,2.39c.32.87-.16,1.83-1.06,2.13Z"/>
            <path class="cls-11" d="m55.37,70.37h0s-.08,0-.11-.01l-1.13-.63c-.07-.04-.09-.12-.05-.19.04-.06.12-.09.19-.05l1,.56,1.19-2.47c.03-.07.12-.1.19-.06s.1.11.07.18l-1.26,2.61s-.04.06-.08.07h0Z"/>
            <path class="cls-6" d="m87.78,56.14s-6.08,2.14-13.61,4.68c-7.53,2.55-13.65,4.59-13.66,4.55-.01-.04,6.08-2.14,13.61-4.68,7.53-2.55,13.65-4.59,13.66-4.55Z"/>
            <path class="cls-6" d="m73.47,65.54s-.15.07-.44.18c-.31.11-.73.26-1.22.44-1.03.36-2.47.86-4.06,1.39s-3.03,1.02-4.07,1.35c-.5.16-.92.3-1.24.4-.29.09-.46.14-.46.13,0,0,.15-.07.44-.18.31-.11.73-.26,1.22-.44,1.03-.36,2.47-.86,4.06-1.39s3.03-1.02,4.07-1.35c.5-.16.92-.3,1.24-.4.29-.09.46-.14.46-.13Z"/>
            <path class="cls-6" d="m88.43,57.94s-6.08,2.14-13.61,4.68c-7.53,2.55-13.65,4.59-13.66,4.55-.01-.04,6.08-2.14,13.61-4.68,7.53-2.55,13.65-4.59,13.66-4.55Z"/>
          </g>
          <g>
            <path class="cls-13" d="m61.21,81.54l-2.47.84c-.9.3-1.89-.15-2.2-1.03l-.87-2.39c-.32-.87.16-1.83,1.06-2.13l2.47-.84c.9-.3,1.89.15,2.2,1.03l.87,2.39c.32.87-.16,1.83-1.06,2.13Z"/>
            <path class="cls-11" d="m58.9,80.11h0s-.08,0-.11-.01l-1.13-.63c-.07-.04-.09-.12-.05-.19.04-.06.12-.09.19-.05l1,.56,1.19-2.47c.03-.07.12-.1.19-.06s.1.11.07.18l-1.26,2.61s-.04.06-.08.07h0Z"/>
            <path class="cls-6" d="m91.31,65.88s-6.08,2.14-13.61,4.68c-7.53,2.55-13.65,4.59-13.66,4.55-.01-.04,6.08-2.14,13.61-4.68,7.53-2.55,13.65-4.59,13.66-4.55Z"/>
            <path class="cls-6" d="m76.99,75.28s-.15.07-.44.18c-.31.11-.73.26-1.22.44-1.03.36-2.47.86-4.06,1.39s-3.03,1.02-4.07,1.35c-.5.16-.92.3-1.24.4-.29.09-.46.14-.46.13,0,0,.15-.07.44-.18.31-.11.73-.26,1.22-.44,1.03-.36,2.47-.86,4.06-1.39s3.03-1.02,4.07-1.35c.5-.16.92-.3,1.24-.4.29-.09.46-.14.46-.13Z"/>
            <path class="cls-6" d="m91.96,67.68s-6.08,2.14-13.61,4.68c-7.53,2.55-13.65,4.59-13.66,4.55-.01-.04,6.08-2.14,13.61-4.68,7.53-2.55,13.65-4.59,13.66-4.55Z"/>
          </g>
          <g>
            <path class="cls-13" d="m64.74,91.28l-2.47.84c-.9.3-1.89-.15-2.2-1.03l-.87-2.39c-.32-.87.16-1.83,1.06-2.13l2.47-.84c.9-.3,1.89.15,2.2,1.03l.87,2.39c.32.87-.16,1.83-1.06,2.13h0Z"/>
            <path class="cls-11" d="m62.43,89.85h0s-.08,0-.11-.01l-1.13-.63c-.07-.04-.09-.12-.05-.19.04-.06.12-.09.19-.05l1,.56,1.19-2.47c.03-.07.12-.1.19-.06s.1.11.07.18l-1.26,2.61s-.04.06-.08.07h0Z"/>
            <path class="cls-6" d="m94.83,75.61s-6.08,2.14-13.61,4.68c-7.53,2.55-13.65,4.59-13.66,4.55s6.08-2.14,13.61-4.68c7.53-2.55,13.65-4.59,13.66-4.55Z"/>
            <path class="cls-6" d="m80.52,85.02s-.15.07-.44.18c-.31.11-.73.26-1.22.44-1.03.36-2.47.86-4.06,1.39s-3.03,1.02-4.07,1.35c-.5.16-.92.3-1.24.4-.29.09-.46.14-.46.13,0,0,.15-.07.44-.18.31-.11.73-.26,1.22-.44,1.03-.36,2.47-.86,4.06-1.39s3.03-1.02,4.07-1.35c.5-.16.92-.3,1.24-.4.29-.09.46-.14.46-.13Z"/>
            <path class="cls-6" d="m95.48,77.41s-6.08,2.14-13.61,4.68c-7.53,2.55-13.65,4.59-13.66,4.55-.01-.04,6.08-2.14,13.61-4.68,7.53-2.55,13.65-4.59,13.66-4.55Z"/>
          </g>
        </g>
        <path class="cls-6" d="m41.42,35.59l1.24,3.42c.72,1.98,2.97,3.03,5.02,2.34l25.96-8.79c2.05-.7,3.13-2.87,2.42-4.85l-1.24-3.41-33.39,11.3h0Z"/>
        <path class="cls-6" d="m58.46,30.95c-1.92.65-4.03-.33-4.7-2.19-.67-1.86.34-3.9,2.26-4.55,1.92-.65,4.03.33,4.7,2.19s-.34,3.9-2.26,4.55Zm-1.97-5.45c-1.19.4-1.81,1.66-1.39,2.8s1.71,1.75,2.9,1.35c1.19-.4,1.81-1.66,1.39-2.8-.42-1.15-1.71-1.75-2.9-1.35Z"/>
      </g>
    </g>
    <path class="cls-6" d="m79.21,39.82c.02.06-6.82,2.44-15.29,5.31-8.47,2.87-15.35,5.14-15.37,5.07-.02-.06,6.82-2.44,15.29-5.31,8.46-2.86,15.35-5.14,15.37-5.07Z"/>
    <path class="cls-6" d="m70.45,41.04c.02.06-2.99,1.15-6.73,2.41-3.74,1.27-6.79,2.24-6.82,2.18s2.99-1.15,6.73-2.41c3.74-1.27,6.79-2.24,6.82-2.18Z"/>
  </g>
  <polygon class="cls-5" points="172.5 32.1 182.71 32.71 187.56 13.31 178.02 13.69 172.5 32.1"/>
  <path class="cls-8" d="m46.11,145.26c0,3.14-2.63,5.68-5.88,5.68s-5.88-2.54-5.88-5.68,2.63-5.68,5.88-5.68,5.88,2.54,5.88,5.68Z"/>
  <path class="cls-8" d="m156.96,99.14c0,1.47-1.23,2.65-2.74,2.65s-2.74-1.19-2.74-2.65,1.23-2.65,2.74-2.65,2.74,1.19,2.74,2.65Z"/>
  <polygon class="cls-5" points="8.35 175.37 16.46 175.84 20.31 160.45 12.74 160.75 8.35 175.37"/>
  <polygon class="cls-5" points="171.99 105.92 167 112.12 177.95 123.89 181.98 117.69 171.99 105.92"/>
  <g>
    <g>
      <path class="cls-11" d="m104,111.22l7.84.83c1.89-2.6,4.51-4.74,7.75-6.08,9.3-3.87,20.09.28,24.1,9.28,4,9-.29,19.43-9.6,23.3-9.3,3.87-20.09-.28-24.1-9.28-1.67-3.76-1.89-7.76-.91-11.44h0s-5.07-6.62-5.07-6.62h0Z"/>
      <path class="cls-9" d="m104,111.22c.31.39,1.89,2.43,5.13,6.58h-.12s0,0,0,0c.02-.03.06-.05.1-.03.03.02.04.05.04.08-.65,2.45-.9,5.68.12,9.16.26.86.57,1.75,1.01,2.61.22.43.43.87.67,1.3.27.42.55.84.82,1.27,1.19,1.67,2.74,3.23,4.63,4.5,1.89,1.27,4.11,2.25,6.54,2.76,2.42.51,5.05.57,7.63.04,2.58-.54,5.11-1.64,7.31-3.27,2.19-1.63,4.08-3.77,5.3-6.29,1.25-2.56,1.92-5.36,1.82-8.1-.08-2.73-.82-5.38-2.05-7.68-1.23-2.31-2.95-4.3-4.96-5.78-2-1.5-4.24-2.53-6.5-3.11-2.26-.59-4.52-.72-6.62-.52-2.11.21-4.03.82-5.74,1.54-3.41,1.51-5.77,3.8-7.25,5.83-.01.02-.04.03-.06.03-4.96-.57-7.34-.84-7.83-.9.49.05,2.87.28,7.84.77l-.06.03c1.48-2.05,3.84-4.37,7.28-5.92,1.73-.73,3.67-1.36,5.8-1.58,2.13-.22,4.42-.09,6.71.5,2.29.58,4.56,1.62,6.59,3.14,2.04,1.5,3.79,3.52,5.04,5.86,1.26,2.34,2.01,5.03,2.09,7.8.11,2.78-.57,5.62-1.84,8.22-1.24,2.56-3.16,4.73-5.39,6.39-2.23,1.66-4.8,2.77-7.42,3.32-2.62.54-5.29.48-7.75-.05-2.46-.53-4.72-1.52-6.63-2.81-1.91-1.29-3.48-2.88-4.68-4.57-.28-.43-.56-.87-.83-1.29-.24-.44-.45-.89-.68-1.32-.44-.87-.75-1.77-1.01-2.64-1.01-3.53-.74-6.78-.06-9.25l.13.05h0s-.06.05-.1.04c0,0-.02-.01-.02-.02-3.17-4.21-4.72-6.27-5.02-6.66h0Z"/>
    </g>
    <g>
      <path class="cls-9" d="m120.08,115.95s0,.09.01.25c0,.18,0,.4.01.69,0,.62.02,1.49.03,2.58.02,2.22.04,5.36.06,9.12l-.12-.12c3.8,0,8.28-.01,13.05-.02.03-.03-.27.26-.14.14h0v-3.4c0-1.11,0-2.2,0-3.26,0-2.12.01-4.12.01-5.96l.12.12c-3.88-.02-7.13-.05-9.43-.06-1.13-.01-2.03-.02-2.67-.03-.29,0-.53-.01-.71-.01-.16,0-.25,0-.25-.01s.07,0,.23-.01c.18,0,.4,0,.69-.01.63,0,1.52-.02,2.64-.03,2.32-.02,5.59-.04,9.5-.06h.12v.12c0,1.84,0,3.84.01,5.96,0,1.06,0,2.15,0,3.26v3.4h0c.13-.12-.18.18-.15.15-4.78,0-9.26-.01-13.05-.02h-.13v-.12c.03-3.79.05-6.95.06-9.19.01-1.08.02-1.94.03-2.55,0-.28.01-.49.01-.66,0-.15,0-.22.01-.22h.01Z"/>
      <path class="cls-10" d="m131.72,118.04c.19.14-1.57,2.59-3.92,5.46-.47.57-.93,1.12-1.36,1.62l-.28.33-.31-.27c-2.04-1.78-3.42-3.14-3.3-3.28.12-.14,1.72.99,3.84,2.68l-.59.05c.4-.52.85-1.07,1.32-1.64,2.35-2.87,4.42-5.09,4.6-4.94h0Z"/>
    </g>
  </g>
  <g>
    <path class="cls-4" d="m94.89,121.33c-.27-.54-.78-.88-1.33-.88l-41.86-.18c-1.24,0-1.97,1.58-1.26,2.74l10.83,17.63,8.47,16.61,41.94-.09,1.26.05,39.71.34-.1-2.11-41.02-1.01-16.65-33.09h0Z"/>
    <path class="cls-8" d="m50.43,121.52s.07-.01.2-.02c.16,0,.35-.01.59-.02.55-.01,1.31-.03,2.26-.04,2-.02,4.84-.04,8.33-.07,7.06-.01,16.76-.04,27.48-.07h2c.7-.07,1.49.33,1.87,1.03.64,1.3,1.26,2.59,1.88,3.85,1.22,2.52,2.4,4.95,3.51,7.27,2.23,4.63,4.24,8.8,5.93,12.31,1.66,3.48,3.01,6.32,3.97,8.32.45.96.8,1.72,1.06,2.28.11.24.19.44.27.6.06.13.09.21.08.21s-.04-.06-.12-.19c-.08-.15-.18-.34-.3-.57-.27-.54-.65-1.29-1.13-2.23-.98-1.98-2.37-4.79-4.08-8.25-1.71-3.5-3.75-7.66-6.01-12.27-1.13-2.31-2.31-4.74-3.54-7.25-.61-1.25-1.23-2.53-1.86-3.82-.33-.56-.89-.88-1.52-.82h-2c-10.72-.03-20.42-.05-27.48-.07-3.49-.03-6.33-.06-8.33-.07-.96-.02-1.71-.03-2.26-.04-.24,0-.43-.01-.59-.02-.13,0-.2-.02-.2-.02h0Z"/>
    <path class="cls-10" d="m77.3,137.81c-.72.74-.7,2.09.04,3.02.74.93,1.92,1.09,2.64.36.72-.74.7-2.09-.04-3.02-.74-.93-1.92-1.09-2.64-.36Z"/>
  </g>
  <g>
    <g>
      <ellipse class="cls-10" cx="89.32" cy="24.11" rx="13.55" ry="13.11"/>
      <path class="cls-4" d="m72.39,42.21s.44-.16,1.26-.27c.81-.11,2.06-.05,3.37.62.64.33,1.29.81,1.8,1.48.5.67.86,1.51.91,2.44.14,1.83-.84,4.01-2.82,5-2.01.95-4.4.38-5.83-.82-.74-.6-1.22-1.38-1.47-2.16-.24-.79-.24-1.58-.13-2.28.24-1.41.94-2.41,1.52-2.97.58-.57,1.01-.77.98-.81,0-.01-.11.04-.31.14-.1.05-.22.12-.35.22-.13.09-.29.2-.44.35-.63.54-1.4,1.57-1.69,3.03-.14.73-.15,1.57.09,2.42.25.84.76,1.7,1.54,2.35.77.66,1.77,1.14,2.87,1.32,1.1.2,2.31.08,3.38-.42,1.06-.53,1.89-1.39,2.38-2.36.51-.96.71-2.02.63-3.01-.06-.99-.46-1.9-1.01-2.61-.56-.7-1.26-1.19-1.94-1.53-1.39-.66-2.69-.68-3.52-.52-.21.03-.39.08-.55.13-.16.04-.29.09-.39.14-.2.09-.31.14-.3.15h0Z"/>
    </g>
    <polygon class="cls-11" points="82.48 24.44 84.48 22.5 88.35 25.83 95.95 18.76 97.81 20.7 88.07 29.57 82.48 24.44"/>
  </g>
  <path class="cls-10" d="m171.48,67.64c0,1.55-1.29,2.8-2.89,2.8s-2.89-1.25-2.89-2.8,1.29-2.8,2.89-2.8,2.89,1.25,2.89,2.8Z"/>
  <path class="cls-10" d="m125.3,37.09c0,.78-.65,1.4-1.45,1.4s-1.45-.63-1.45-1.4.65-1.4,1.45-1.4,1.45.63,1.45,1.4Z"/>
  <path class="cls-10" d="m39.27,88.34c0,.58-.49,1.06-1.1,1.06s-1.1-.48-1.1-1.06.49-1.06,1.1-1.06,1.1.48,1.1,1.06Z"/>
</svg>