<?xml version="1.0" encoding="utf-8"?>
<!-- Generator: Adobe Illustrator 27.4.0, SVG Export Plug-In . SVG Version: 6.00 Build 0)  -->
<svg version="1.1" id="Layer_1" xmlns="http://www.w3.org/2000/svg" xmlns:xlink="http://www.w3.org/1999/xlink" x="0px" y="0px"
	 viewBox="0 0 150 150" style="enable-background:new 0 0 150 150;" xml:space="preserve">
<style type="text/css">
	.st0{fill:#FEE8DA;}
	.st1{fill:none;}
	.st2{clip-path:url(#SVGID_00000019650029692436934250000003276364569163053954_);}
	.st3{fill:url(#Path_4157_00000035502304235734418460000013530885052008086943_);}
	.st4{fill:url(#Path_4158_00000124128259116013615040000015854810569824624039_);}
	.st5{fill:url(#Path_4159_00000122704711034842920450000004088363978372834950_);}
	.st6{fill:url(#Path_4158_00000042704326962273370460000004297732458586708885_);}
	.st7{fill:url(#Path_4159_00000065791544241366128110000003221272923881483421_);}
	.st8{fill:url(#SVGID_00000047018812687045651740000015285078722541947782_);}
	.st9{fill:url(#SVGID_00000155837305032346510350000002847527553179813289_);}
	.st10{fill:url(#SVGID_00000165222791396258428480000005044473843563242139_);}
	.st11{fill:url(#SVGID_00000146471788623095720900000007729682736936505516_);}
	.st12{fill:url(#SVGID_00000040575299863733537770000002499718093017951402_);}
	.st13{fill:url(#SVGID_00000181077423269411779370000005506316108594846865_);}
	.st14{fill:url(#SVGID_00000161601359380164475720000010114991861741230264_);}
	.st15{fill:url(#SVGID_00000176002944572861716700000014119142187121612174_);}
	.st16{fill:url(#SVGID_00000065767338157190652520000006446848531892120220_);}
	.st17{fill:url(#SVGID_00000181792779786287091460000002296498153232931716_);}
	.st18{fill:url(#SVGID_00000001665913987975555350000005388215389966440331_);}
	.st19{fill:url(#SVGID_00000034791428252795426960000000192726829398364861_);}
	.st20{fill:url(#SVGID_00000129891293881307393710000002389637898560574081_);}
	.st21{fill:url(#SVGID_00000034804131533271044330000013016568250314686373_);}
	.st22{fill:url(#SVGID_00000078751234068503463840000001005229412451185831_);}
	.st23{fill:url(#SVGID_00000167385599100744938030000017412745391036692153_);}
	.st24{fill:url(#SVGID_00000165225700119715439050000004882439943055187334_);}
	.st25{fill:url(#SVGID_00000115478889408021476480000006686488451130518665_);}
	.st26{fill:url(#SVGID_00000152226721624407429060000013036725479371554702_);}
	.st27{fill:url(#SVGID_00000134969505839877287460000007471962037284211363_);}
	.st28{fill:url(#SVGID_00000016066720968405182690000011338848574532919209_);}
	.st29{fill:url(#SVGID_00000179633913726260778910000000220186019161238971_);}
	.st30{fill:url(#SVGID_00000126306469629370676290000012761862891037562007_);}
	.st31{fill:url(#SVGID_00000111171840462331452480000009869482317751797692_);}
	.st32{fill:url(#SVGID_00000067950722339388754870000003854265203188929960_);}
	.st33{fill:url(#SVGID_00000029763228679230743920000016198846677161803446_);}
	.st34{fill:url(#SVGID_00000112602150854397162560000008131514426835474580_);}
	.st35{fill:url(#SVGID_00000108269555079139327820000011630952082453585815_);}
	.st36{fill:url(#SVGID_00000180340153222230408950000003196371896373447057_);}
	.st37{fill:url(#SVGID_00000031898106032014629740000005471836586010588604_);}
	.st38{fill:url(#SVGID_00000000193557040349588330000000754845312282044809_);}
	.st39{clip-path:url(#SVGID_00000002385259933517346720000005636093100479774081_);}
	.st40{fill:url(#Path_4160_00000098215258982659816200000005003649503009741989_);}
	.st41{fill:url(#Path_4161_00000160901653383092657450000017994755624377020037_);}
	.st42{fill:url(#Path_4162_00000138558318622303576800000003553736255641239176_);}
	.st43{fill:url(#Path_4163_00000129199797365653613830000014696881055393947819_);}
	.st44{fill:url(#Path_4164_00000155852519536701631390000005883373815320830135_);}
	.st45{fill:url(#Path_4165_00000168832546360351158370000010200642049406330777_);}
	.st46{fill:url(#Path_4166_00000066510559854768820310000001074802411641042106_);}
	.st47{fill:url(#Path_4167_00000046319868228613887440000015264522747012806075_);}
	.st48{fill:url(#SVGID_00000083052277309410685470000006332981230647123585_);}
	.st49{fill:url(#SVGID_00000153682342831260233810000014327071053087209109_);}
	.st50{fill:url(#SVGID_00000045602104316507078440000009520685825514954411_);}
	.st51{fill:url(#SVGID_00000039853903319017000010000012241982429989107387_);}
	.st52{fill:url(#SVGID_00000171685122870222287420000015387950943637599406_);}
	.st53{fill:url(#SVGID_00000169557612258239272450000014516123849475326340_);}
	.st54{fill:url(#SVGID_00000028316080108433958310000014877756710776134585_);}
	.st55{fill:url(#SVGID_00000069388634783391043970000011849227728842429109_);}
	.st56{fill:url(#SVGID_00000008116698162687582480000012828515735008530865_);}
	.st57{fill:url(#SVGID_00000139288171712211071880000014995697898661113492_);}
	.st58{fill:url(#SVGID_00000047032058778633677030000012889766735828799369_);}
	.st59{fill:url(#SVGID_00000091728169367220095070000016864984724811859877_);}
	.st60{fill:url(#SVGID_00000105419202427395666750000012161739403136362921_);}
	.st61{fill:url(#SVGID_00000085241501755664215240000017829129764692313247_);}
	.st62{fill:url(#SVGID_00000135686328526377352550000008094141105085482369_);}
	.st63{fill:url(#SVGID_00000111149247101352699630000013952779214244214450_);}
	.st64{fill:url(#SVGID_00000023251324304879248670000016891652832886680975_);}
	.st65{fill:url(#SVGID_00000056415108643569430540000010729055555128135090_);}
	.st66{fill:url(#SVGID_00000150817718326275659620000015778721655224294821_);}
	.st67{fill:url(#SVGID_00000026149963080950168680000017691749970556150950_);}
	.st68{fill:url(#SVGID_00000060019630854050250820000016832910118782906010_);}
	.st69{fill:url(#SVGID_00000123419512649255777330000006383874354177383102_);}
	.st70{fill:url(#SVGID_00000078725544200498763100000000321474805878464928_);}
	.st71{fill:url(#SVGID_00000113338812495806662120000005634944154540512425_);}
	.st72{fill:url(#SVGID_00000112633690686617700790000000076506385832800945_);}
	.st73{fill:url(#SVGID_00000000221967892033422230000014482307707235299212_);}
	.st74{fill:url(#SVGID_00000055675868151689216300000014251966994611813250_);}
	.st75{fill:url(#SVGID_00000130606503944616839620000005782640839669695115_);}
	.st76{clip-path:url(#SVGID_00000080199902611631513930000011548866003884734899_);}
	.st77{fill:url(#Path_4168_00000037657951442161832510000005304673678555360902_);}
	.st78{fill:url(#Path_4169_00000147190333862411395150000009355222919868687514_);}
	.st79{fill:url(#Path_4170_00000160185896462080676920000003668320032868097976_);}
	.st80{fill:url(#Path_4171_00000127750605090640160490000005854843005680203427_);}
	.st81{fill:url(#Path_4172_00000094601886679256607110000014114278111445425312_);}
	.st82{fill:url(#Path_4173_00000150097223271354188980000009955973723661612976_);}
	.st83{fill:url(#SVGID_00000047045534228951039600000015599317337851618946_);}
	.st84{fill:url(#SVGID_00000013884826867943137920000006213965912597857191_);}
	.st85{fill:url(#SVGID_00000002386070301024299950000012487274119259897738_);}
	.st86{fill:url(#SVGID_00000070832655286452711730000000650871064692327585_);}
	.st87{fill:url(#SVGID_00000163791503387778444070000006143729747497377458_);}
</style>
<ellipse id="Ellipse_113_00000071561765380413553440000014079718477735386526_" class="st0" cx="75" cy="75" rx="70" ry="70"/>
<g>
	
		<linearGradient id="SVGID_00000172427978633294547640000016907289652293054848_" gradientUnits="userSpaceOnUse" x1="69.05" y1="65.7626" x2="81.05" y2="65.7626">
		<stop  offset="0" style="stop-color:#FF6600"/>
		<stop  offset="0" style="stop-color:#FF5204"/>
		<stop  offset="1" style="stop-color:#FF270D"/>
	</linearGradient>
	<path style="fill:url(#SVGID_00000172427978633294547640000016907289652293054848_);" d="M75,59.7c-1.9,0-3.3,0.6-4.4,1.7
		C69.5,62.5,69,64,69,65.8c0,1.9,0.5,3.3,1.6,4.4c1,1.1,2.5,1.6,4.4,1.6c1.8,0,3.3-0.5,4.4-1.6c1.1-1.1,1.6-2.6,1.6-4.4
		s-0.5-3.3-1.6-4.4C78.3,60.3,76.8,59.7,75,59.7z"/>
	
		<linearGradient id="SVGID_00000000910144309437562180000015215527016249387156_" gradientUnits="userSpaceOnUse" x1="63.5022" y1="107.8281" x2="86.8378" y2="107.8281">
		<stop  offset="0" style="stop-color:#FF6600"/>
		<stop  offset="0" style="stop-color:#FF5204"/>
		<stop  offset="1" style="stop-color:#FF270D"/>
	</linearGradient>
	<path style="fill:url(#SVGID_00000000910144309437562180000015215527016249387156_);" d="M84.7,102c-6.4,0-12.8,0-19.2,0
		c-1.3,0-2.1,0.7-2.1,2.1c0,0.9,0,1.8,0,2.7c0,2.7,0.4,3.1,3.1,3.1c0.4,0,0.8-0.1,1.1,0.3c1.1,1.2,2.4,2.3,3.4,3.5
		c2.7,0,5.4,0,8.1,0c0.7-0.7,1.4-1.4,2.1-2.2c0.9-1.1,1.9-1.8,3.5-1.6c1.3,0.1,2-0.8,2-2.1c0-1.2,0-2.5,0-3.7
		C86.8,102.8,86.1,102,84.7,102z"/>
	
		<linearGradient id="SVGID_00000181768083597582439360000015498850515835664275_" gradientUnits="userSpaceOnUse" x1="48.0753" y1="65.2105" x2="101.9247" y2="65.2105">
		<stop  offset="0" style="stop-color:#FF6600"/>
		<stop  offset="0" style="stop-color:#FF5204"/>
		<stop  offset="1" style="stop-color:#FF270D"/>
	</linearGradient>
	<path style="fill:url(#SVGID_00000181768083597582439360000015498850515835664275_);" d="M100.5,54.3C96.7,43.5,85.3,35,72.4,36.5
		c-6.7,0.8-12.4,3.6-17,8.5c-5.2,5.6-7.7,12.2-7.3,19.9c0.2,3.9,1.2,7.5,3,11c2.4,4.5,5.8,8,10.2,10.7c1.3,0.8,2.1,2,2.2,3.5
		c0.3,2.7,1.8,4.1,4.5,4.1c2.4,0,4.8,0,7.2,0c2.5,0,5,0,7.5,0c2.3,0,4-1.6,4.1-3.7c0.1-1.8,0.9-3,2.3-4c1.9-1.2,3.6-2.5,5.1-4.1
		c4.4-4.6,7-10.1,7.6-16.5C102.1,61.9,101.8,58,100.5,54.3z M87,65.8c-0.1,0.8-0.2,1.3-0.4,1.6l4.2,3.8L88,75.8l-4.7-1.1
		c-0.6,0.7-1.3,1.2-2.2,1.7c-0.8,0.5-1.7,0.8-2.5,1L77.7,83H72l-0.7-5.6c-0.9-0.2-1.7-0.5-2.6-1c-0.8-0.5-1.6-1.1-2.2-1.7l-4.8,1.1
		l-2.6-4.6l4-3.8c-0.2-0.3-0.3-0.9-0.3-1.7c0-0.8,0.1-1.4,0.3-1.7l-4-3.9l2.6-4.5l4.8,1.1c0.6-0.5,1.3-1.1,2.2-1.6
		c0.8-0.5,1.7-0.8,2.6-1.1l0.7-5.7h5.7l0.9,5.7c0.8,0.2,1.7,0.6,2.5,1.1c0.8,0.5,1.6,1,2.2,1.5l4.7-0.9l2.8,4.5l-4.2,3.9
		C87,64.5,87.2,65.1,87,65.8z"/>
</g>
</svg>
