<?xml version="1.0" encoding="UTF-8"?><svg id="Layer_1" xmlns="http://www.w3.org/2000/svg" xmlns:xlink="http://www.w3.org/1999/xlink" viewBox="0 0 150 150"><defs><style>.cls-1{fill:url(#linear-gradient-2);}.cls-2{fill:#fee8da;}.cls-3{fill:url(#linear-gradient-3);}.cls-4{fill:url(#linear-gradient);}</style><linearGradient id="linear-gradient" x1="39.88" y1="75.02" x2="110.12" y2="75.02" gradientUnits="userSpaceOnUse"><stop offset="0" stop-color="#f60"/><stop offset="0" stop-color="#ff5204"/><stop offset="1" stop-color="#ff270d"/></linearGradient><linearGradient id="linear-gradient-2" x1="39.88" y1="50.18" x2="64.1" y2="50.18" xlink:href="#linear-gradient"/><linearGradient id="linear-gradient-3" x1="85.9" y1="50.18" x2="110.12" y2="50.18" xlink:href="#linear-gradient"/></defs><circle id="Ellipse_113" class="cls-2" cx="75" cy="75" r="70"/><g><path class="cls-4" d="M102.51,56.84l-6.59,5.5c-.44,.36-.98,.56-1.55,.56-.36,0-.71-.08-1.03-.23-.42-.2-.77-.5-1.01-.89-.25-.39-.38-.84-.38-1.3v-3.63h-3.72c-1.26,0-2.47-.5-3.37-1.39-.89-.89-1.39-2.1-1.39-3.37v-9.86c0-.41,.07-.82,.19-1.21-5.69-1.44-11.65-1.44-17.34,0,.12,.39,.19,.8,.19,1.21v9.86c0,1.26-.5,2.47-1.39,3.37-.89,.89-2.1,1.39-3.37,1.39h-3.72v3.63c0,.46-.13,.91-.38,1.3-.25,.39-.6,.7-1.01,.89-.32,.15-.67,.23-1.03,.23-.57,0-1.11-.2-1.55-.56l-6.59-5.5h-2.54c-4.31,7.13-5.94,15.57-4.61,23.8,1.34,8.23,5.56,15.71,11.91,21.11,6.35,5.4,14.42,8.37,22.75,8.37s16.4-2.97,22.75-8.37c6.35-5.4,10.57-12.89,11.91-21.11,1.34-8.23-.29-16.67-4.61-23.8h-2.54Zm-40.98,17.52c-.21,.39-.62,.64-1.07,.64h-1.21v20.49c0,1.3-.69,2.5-1.82,3.15-1.12,.65-2.51,.65-3.63,0-1.12-.65-1.82-1.85-1.82-3.15v-20.49h-1.21c-.45,0-.86-.25-1.07-.64-.2-.39-.18-.85,.06-1.21l4.84-7.27c.22-.33,.6-.54,1-.54s.78,.2,1,.54l4.84,7.27c.24,.36,.26,.83,.06,1.21h0Zm13.47-29.63c1.61,0,3.15,.64,4.28,1.77,1.14,1.14,1.77,2.68,1.77,4.28s-.64,3.15-1.77,4.28c-1.14,1.14-2.68,1.77-4.28,1.77s-3.15-.64-4.28-1.77c-1.14-1.14-1.77-2.68-1.77-4.28s.64-3.15,1.77-4.28c1.14-1.14,2.68-1.77,4.28-1.77Zm10.9,34.59c0,.47-.21,.92-.55,1.25s-.8,.51-1.27,.5c-.77,.02-1.47-.48-1.71-1.21-.07-.17-.11-.36-.11-.54v21.28c.07,.59-.13,1.18-.53,1.62-.4,.44-.98,.68-1.58,.66-.68,.14-1.39-.03-1.92-.47-.53-.44-.83-1.11-.82-1.8v-17.23c0-.87-.46-1.67-1.21-2.1s-1.67-.43-2.42,0-1.21,1.23-1.21,2.1v17.23c.04,.61-.18,1.2-.6,1.64-.43,.43-1.02,.67-1.63,.64-.67,.14-1.36-.04-1.88-.48-.51-.45-.79-1.11-.74-1.79v-21.19c0,.18-.03,.35-.1,.52-.24,.74-.94,1.23-1.72,1.21-.47,.02-.93-.15-1.28-.48-.34-.33-.54-.78-.54-1.25v-13.72c0-.78,.15-1.55,.44-2.28,.34-.84,.85-1.6,1.5-2.23,1.27-1.22,2.96-1.9,4.72-1.9h8.48c1.33-.01,2.63,.37,3.73,1.1,1.11,.73,1.97,1.78,2.48,3,.3,.73,.45,1.51,.45,2.3v13.65Zm14.39-4.95h0c-.21,.39-.62,.64-1.07,.64h-1.21v20.49c0,1.3-.69,2.5-1.82,3.15-1.12,.65-2.51,.65-3.63,0-1.12-.65-1.82-1.85-1.82-3.15v-20.49h-1.21c-.45,0-.86-.25-1.07-.64-.2-.39-.18-.85,.06-1.21l4.84-7.27c.22-.33,.6-.54,1-.54s.78,.2,1,.54l4.84,7.27c.24,.36,.26,.83,.06,1.21h0Z"/><path class="cls-1" d="M42.22,54.41h6.14l7.27,6.05v-6.05h6.14c.62,0,1.22-.24,1.66-.68s.68-1.04,.68-1.66v-9.86c0-.62-.24-1.22-.68-1.66s-1.04-.68-1.66-.68h-19.55c-.62,0-1.22,.24-1.66,.68-.44,.44-.68,1.04-.68,1.66v9.86c0,.62,.24,1.22,.68,1.66s1.04,.68,1.66,.68h0Zm1.3-10.9h16.95c.67,0,1.21,.54,1.21,1.21s-.54,1.21-1.21,1.21h-16.95c-.67,0-1.21-.54-1.21-1.21s.54-1.21,1.21-1.21Zm0,4.84h16.95c.67,0,1.21,.54,1.21,1.21s-.54,1.21-1.21,1.21h-16.95c-.67,0-1.21-.54-1.21-1.21s.54-1.21,1.21-1.21Z"/><path class="cls-3" d="M107.78,39.88h-19.55c-.62,0-1.22,.24-1.66,.68s-.68,1.04-.68,1.66v9.86c0,.62,.24,1.22,.68,1.66,.44,.44,1.04,.68,1.66,.68h6.14v6.05l7.27-6.05h6.14c.62,0,1.22-.24,1.66-.68s.68-1.04,.68-1.66v-9.86c0-.62-.24-1.22-.68-1.66s-1.04-.68-1.66-.68h0Zm-1.3,10.9h-16.95c-.67,0-1.21-.54-1.21-1.21s.54-1.21,1.21-1.21h16.95c.67,0,1.21,.54,1.21,1.21s-.54,1.21-1.21,1.21Zm0-4.84h-16.95c-.67,0-1.21-.54-1.21-1.21s.54-1.21,1.21-1.21h16.95c.67,0,1.21,.54,1.21,1.21s-.54,1.21-1.21,1.21Z"/></g></svg>