<?xml version="1.0" encoding="UTF-8"?><svg id="Layer_1" xmlns="http://www.w3.org/2000/svg" xmlns:xlink="http://www.w3.org/1999/xlink" viewBox="0 0 150 150"><defs><style>.cls-1{fill:url(#linear-gradient-2);}.cls-2{fill:#fee8da;}.cls-3{fill:url(#linear-gradient-3);}.cls-4{fill:url(#linear-gradient);}.cls-5{fill:url(#linear-gradient-4);}</style><linearGradient id="linear-gradient" x1="59.29" y1="55.51" x2="90.79" y2="55.51" gradientUnits="userSpaceOnUse"><stop offset="0" stop-color="#f60"/><stop offset="0" stop-color="#ff5204"/><stop offset="1" stop-color="#ff270d"/></linearGradient><linearGradient id="linear-gradient-2" x1="77.13" y1="92.64" x2="86.29" y2="92.64" xlink:href="#linear-gradient"/><linearGradient id="linear-gradient-3" x1="63.87" y1="99.95" x2="84.44" y2="99.95" xlink:href="#linear-gradient"/><linearGradient id="linear-gradient-4" x1="46.76" y1="90.19" x2="103.24" y2="90.19" xlink:href="#linear-gradient"/></defs><circle id="Ellipse_113" class="cls-2" cx="75" cy="75" r="70"/><g><path class="cls-4" d="M75.04,39.77c-8.68,0-15.75,7.07-15.75,15.75s7.07,15.75,15.75,15.75,15.75-7.07,15.75-15.75c0-8.68-7.07-15.75-15.75-15.75Z"/><path class="cls-1" d="M86.29,97.22c0-5.06-4.1-9.16-9.16-9.16v9.16h9.16Z"/><path class="cls-3" d="M74.96,99.15v-9.48h-.32c-5.95,0-10.77,4.42-10.77,9.8,0,5.95,4.82,10.77,10.77,10.77,5.38,0,9.8-4.82,9.8-10.77v-.32h-9.48Z"/><path class="cls-5" d="M89.58,76.97h-29.09c-7.47,0-13.74,6.03-13.74,13.74v12.7h13.9v-4.98c.08-7.63,6.43-13.82,14.3-13.82s14.3,6.19,14.3,13.9v4.9h13.98v-12.78c.08-7.63-6.03-13.66-13.66-13.66h0Z"/></g></svg>