<?xml version="1.0" encoding="UTF-8"?><svg id="Layer_1" xmlns="http://www.w3.org/2000/svg" xmlns:xlink="http://www.w3.org/1999/xlink" viewBox="0 0 150 150"><defs><style>.cls-1{fill:url(#linear-gradient-2);}.cls-2{fill:#fee8da;}.cls-3{fill:url(#linear-gradient-3);}.cls-4{fill:url(#linear-gradient);}.cls-5{fill:url(#linear-gradient-4);}</style><linearGradient id="linear-gradient" x1="80.14" y1="83.31" x2="97.46" y2="83.31" gradientUnits="userSpaceOnUse"><stop offset="0" stop-color="#f60"/><stop offset="0" stop-color="#ff5204"/><stop offset="1" stop-color="#ff270d"/></linearGradient><linearGradient id="linear-gradient-2" x1="75.34" y1="100.98" x2="102.48" y2="100.98" xlink:href="#linear-gradient"/><linearGradient id="linear-gradient-3" x1="47.52" y1="85.56" x2="91.29" y2="85.56" xlink:href="#linear-gradient"/><linearGradient id="linear-gradient-4" x1="53.1" y1="51.2" x2="72.4" y2="51.2" xlink:href="#linear-gradient"/></defs><circle id="Ellipse_113" class="cls-2" cx="75" cy="75" r="70"/><g><path class="cls-4" d="M97.46,83.31c0,4.78-3.88,8.66-8.66,8.66s-8.66-3.88-8.66-8.66,3.88-8.66,8.66-8.66,8.66,3.88,8.66,8.66"/><path class="cls-1" d="M101.9,102.32c-.49-4.15-3.52-7.39-7.39-8.31l-3.87,9.65-.84-6.97h.56c.35,0,.63-.28,.63-.63v-1.9c0-.35-.28-.63-.63-.63h-3.03c-.35,0-.63,.28-.63,.63v1.97c0,.35,.28,.63,.63,.63h.56l-.84,6.97-3.87-9.65c-3.87,.92-6.9,4.15-7.39,8.31l-.42,3.66c-.14,1.27,.84,2.39,2.11,2.39h22.88c1.27,0,2.25-1.13,2.11-2.39l-.56-3.73Z"/><path class="cls-3" d="M89.51,69.3l1.69-4.44c.35-.92-.35-1.97-1.34-1.97h-20.63l-4.44,11.13-.92-7.82h.63c.35,0,.7-.28,.7-.7v-2.11c0-.35-.28-.7-.7-.7h-3.45c-.35,0-.7,.28-.7,.7v2.11c0,.35,.28,.7,.7,.7h.63l-.92,7.82-4.37-10.91c-4.01,.92-7.18,4.23-7.6,8.45l-1.27,11.9c-.14,1.2,.63,2.25,1.83,2.46,1.27,.28,3.03,.49,4.79,.7l1.06,19.01c.07,1.62,1.41,2.82,3.03,2.82h9.15c1.62,0,2.89-1.27,3.03-2.82l1.55-32.46c0-1.62,1.34-2.89,2.96-2.89h13.24c.56-.07,1.13-.42,1.34-.99h0Z"/><path class="cls-5" d="M72.4,51.2c0,5.33-4.32,9.65-9.65,9.65s-9.65-4.32-9.65-9.65,4.32-9.65,9.65-9.65,9.65,4.32,9.65,9.65"/></g></svg>