<?xml version="1.0" encoding="UTF-8"?><svg id="Layer_1" xmlns="http://www.w3.org/2000/svg" xmlns:xlink="http://www.w3.org/1999/xlink" viewBox="0 0 150 150"><defs><style>.cls-1{fill:url(#linear-gradient-2);}.cls-2{fill:#fee8da;}.cls-3{fill:url(#linear-gradient-5);}.cls-4{fill:url(#linear-gradient-3);}.cls-5{fill:url(#linear-gradient);}.cls-6{fill:url(#linear-gradient-4);}</style><linearGradient id="linear-gradient" x1="54.91" y1="92.41" x2="61.48" y2="92.41" gradientUnits="userSpaceOnUse"><stop offset="0" stop-color="#f60"/><stop offset="0" stop-color="#ff5204"/><stop offset="1" stop-color="#ff270d"/></linearGradient><linearGradient id="linear-gradient-2" x1="47.62" y1="59.67" x2="68.79" y2="59.67" xlink:href="#linear-gradient"/><linearGradient id="linear-gradient-3" x1="40.66" y1="91.94" x2="75.72" y2="91.94" xlink:href="#linear-gradient"/><linearGradient id="linear-gradient-4" x1="73.14" y1="59.67" x2="109.34" y2="59.67" xlink:href="#linear-gradient"/><linearGradient id="linear-gradient-5" x1="84.73" y1="59.67" x2="97.79" y2="59.67" xlink:href="#linear-gradient"/></defs><circle id="Ellipse_113" class="cls-2" cx="75" cy="75" r="70"/><g><path class="cls-5" d="M56.56,80.01l-1.65,20.83,3.29,3.98,3.28-3.98-1.65-20.83h-3.26Z"/><path class="cls-1" d="M58.2,71.86c5.83,0,10.58-6.18,10.58-13.78,0-6.73-3.86-10.6-10.58-10.6s-10.58,3.86-10.58,10.6c0,7.6,4.74,13.78,10.58,13.78h0Z"/><path class="cls-4" d="M40.66,108.45h35.06v-26.34c0-3.68-3-6.68-6.68-6.68h-21.69c-3.68,0-6.68,3-6.68,6.68v26.34h-.01Zm22.02-6.96l-3.96,4.81c-.13,.16-.32,.24-.52,.24s-.39-.09-.52-.24l-3.96-4.81c-.11-.13-.16-.31-.15-.48l1.71-21.73c.03-.35,.32-.62,.67-.62h4.51c.35,0,.64,.27,.67,.62l1.71,21.73c.03,.17-.03,.35-.15,.48h0Zm-8.45-25.08h7.94c.38,0,.67,.3,.67,.67s-.3,.67-.67,.67h-7.94c-.38,0-.67-.3-.67-.67s.3-.67,.67-.67Z"/><path class="cls-6" d="M73.14,56.49v6.38h4.08c.58,0,1.07,.36,1.24,.91,.23,.7,.51,1.4,.85,2.06,.26,.51,.16,1.11-.24,1.52l-2.89,2.89,4.5,4.5,2.89-2.89c.4-.4,1.01-.5,1.5-.24,.66,.34,1.36,.62,2.08,.85,.55,.19,.9,.67,.9,1.24v4.08h6.38v-4.08c0-.58,.36-1.07,.91-1.24,.7-.23,1.4-.51,2.06-.85,.51-.26,1.11-.16,1.52,.24l2.89,2.89,4.5-4.5-2.89-2.89c-.4-.4-.5-1.01-.24-1.5,.34-.67,.63-1.37,.85-2.07,.17-.54,.67-.91,1.24-.91h4.08v-6.37h-4.08c-.55,0-1.05-.36-1.22-.9h0c-.23-.74-.52-1.44-.85-2.08-.26-.51-.16-1.11,.24-1.52l2.89-2.89-4.5-4.5-2.89,2.89c-.4,.4-1.01,.5-1.5,.24-.67-.34-1.37-.63-2.07-.85-.55-.19-.91-.68-.91-1.24v-4.11h-6.38v4.08c0,.58-.36,1.07-.91,1.24-.7,.23-1.4,.51-2.06,.85-.51,.26-1.1,.16-1.5-.23l-2.89-2.89-4.5,4.5,2.89,2.89c.39,.39,.5,1.01,.24,1.5-.34,.64-.62,1.34-.85,2.08-.17,.55-.67,.91-1.24,.91h-4.11Zm18.12-4.67c4.34,0,7.87,3.53,7.87,7.87s-3.53,7.87-7.87,7.87-7.87-3.53-7.87-7.87c.01-4.35,3.53-7.87,7.87-7.87Z"/><path class="cls-3" d="M91.26,66.2c3.6,0,6.53-2.93,6.53-6.53s-2.93-6.53-6.53-6.53-6.53,2.93-6.53,6.53c0,3.6,2.93,6.53,6.53,6.53Z"/></g></svg>