<?xml version="1.0" encoding="UTF-8"?><svg id="Layer_1" xmlns="http://www.w3.org/2000/svg" xmlns:xlink="http://www.w3.org/1999/xlink" viewBox="0 0 150 150"><defs><style>.cls-1{fill:#fee8da;}.cls-2{fill:url(#linear-gradient);}</style><linearGradient id="linear-gradient" x1="32.88" y1="75" x2="117.12" y2="75" gradientUnits="userSpaceOnUse"><stop offset="0" stop-color="#f60"/><stop offset="0" stop-color="#ff5204"/><stop offset="1" stop-color="#ff270d"/></linearGradient></defs><circle id="Ellipse_113" class="cls-1" cx="75" cy="75" r="70"/><path class="cls-2" d="M108.3,52.66c.52,.17,.78,.87,.26,2.77-.52,1.9-1.04,2.42-1.38,2.42-.09,0-.17,0-.26-.09-.17,.87-.43,1.73-.78,2.59v2.77c0,.09,.09,.26,.17,.26,.87,.43,5.45,2.68,9.6,6.14,.78,.61,1.21,1.56,1.21,2.51v4.67s0,3.29,0,3.29h-21.88v-11.07c0-1.73-.69-3.37-1.9-4.67,.87-.43,1.38-.78,1.73-.87,.09-.09,.17-.17,.17-.26v-2.42c-.61-1.04-.95-2.25-1.12-3.29-.35,0-.87-.52-1.38-2.42-.69-2.34,0-2.85,.61-2.85h.09c-.43-1.3-.52-2.59-.17-3.81,.35-1.38,1.12-2.51,1.99-3.46,.52-.61,1.12-1.12,1.82-1.47,.52-.35,1.12-.69,1.73-.87,.52-.17,1.04-.26,1.56-.35h.69c1.38,0,2.51,.43,3.29,.87,1.38,.78,1.99,1.82,1.99,1.82,0,0,3.55,.35,1.99,7.78h0Zm-64.61,10.81c-.87,.43-5.45,2.68-9.6,6.14-.78,.61-1.21,1.56-1.21,2.51v7.87h21.8v-11.07c0-1.73,.69-3.37,1.9-4.67-.87-.43-1.38-.78-1.73-.87-.09-.09-.17-.17-.17-.26v-2.77c.43-.87,.69-1.82,.78-2.59,.09,.09,.17,.09,.26,.09,.35,0,.87-.52,1.38-2.42,.52-1.99,.26-2.59-.26-2.77,1.56-7.44-1.99-7.7-1.99-7.7,0,0-.52-1.04-1.99-1.82-.78-.52-1.9-.87-3.29-.87h-.69c-.61,0-1.12,.17-1.56,.35-.61,.26-1.21,.52-1.73,.87-.69,.43-1.3,.95-1.82,1.47-.87,.87-1.64,1.99-1.99,3.46-.35,1.21-.35,2.51,.17,3.81h-.09c-.61,0-1.21,.43-.61,2.85,.52,1.82,1.04,2.34,1.38,2.42,.17,1.04,.52,2.25,1.12,3.29v2.42c.09,.09,.09,.17-.09,.26h0Zm48.61,41.17l-.69-7.18c0-.26-.35-.35-.52-.17l-1.64,1.64-3.29-3.2c-.87,1.21-1.99,2.34-3.2,3.2l3.2,3.2-1.64,1.64c-.09,.26,0,.61,.26,.61l7.18,.69c.17,0,.35-.17,.35-.43h0Zm-35.9-12.02c.17,.17,.52,0,.52-.26v-2.34h4.58c-.09-.69-.17-1.47-.17-2.25s.09-1.47,.17-2.25h-4.67v-2.34c0-.26-.26-.43-.52-.26l-5.54,4.58c-.17,.17-.17,.43,0,.61l5.62,4.5Zm37.19,0l5.54-4.58c.17-.17,.17-.43,0-.61l-5.54-4.58c-.17-.17-.52,0-.52,.26v2.34h-4.58c.09,.69,.17,1.47,.17,2.25s-.09,1.47-.17,2.25h4.67v2.34c0,.35,.26,.52,.43,.35h0Zm-35.46,12.46l7.18-.69c.26,0,.35-.35,.17-.52l-1.73-1.64,3.2-3.2c-1.21-.87-2.34-1.99-3.2-3.2l-3.2,3.2-1.64-1.64c-.17-.17-.52-.09-.52,.17l-.69,7.09c0,.26,.17,.43,.43,.43h0Zm16.87-3.55c-.78,0-1.47-.09-2.25-.17v4.58h-2.34c-.26,0-.43,.26-.26,.52l4.58,5.54c.17,.17,.43,.17,.61,0l4.58-5.54c.17-.17,0-.52-.26-.52h-2.34v-4.58c-.87,.09-1.56,.17-2.34,.17h0Zm17.04-21.54v-11.07c0-1.04-.43-1.99-1.21-2.59-4.32-3.55-9.08-5.97-10.03-6.4-.09-.09-.17-.17-.17-.26v-2.85c.43-.87,.69-1.82,.87-2.68,.43,.26,1.04,.09,1.73-2.42,.61-2.08,.26-2.77-.26-2.94h-.17c.09-.26,.09-.43,.09-.43,1.9-7.96-2.51-7.61-2.51-7.61-.35-1.56-2.59-3.2-4.67-2.77-2.08,.43-6.4-.09-6.4-.09-.09,.95,.69,1.56,.69,1.56-4.41,2.68-2.59,8.91-2.59,8.91-.69-.09-1.47,.35-.69,2.94,.52,1.9,1.04,2.42,1.47,2.51,.17,1.12,.52,2.34,1.12,3.46v2.42c0,.09-.09,.17-.17,.26-.95,.43-5.62,2.85-10.03,6.4-.78,.61-1.21,1.64-1.21,2.59v11.16h5.54c2.16-3.29,5.71-5.54,9.86-6.05l.78-6.31c-3.55-4.84,.26-5.1,.95-5.1s4.5,.26,.95,5.1l.78,6.31c4.07,.52,7.61,2.77,9.86,6.05h5.45s0-.09,0-.09Zm-17.04,18.77c-6.05,0-10.98-4.93-10.98-10.98s4.93-10.98,10.98-10.98,10.98,4.93,10.98,10.98-4.93,10.98-10.98,10.98Zm5.45-13.32l-2.08-2.08-4.76,4.76-1.99-1.99-2.08,2.08,4.07,4.07,6.83-6.83Z"/></svg>