<?xml version="1.0" encoding="utf-8"?>
<!-- Generator: Adobe Illustrator 27.4.0, SVG Export Plug-In . SVG Version: 6.00 Build 0)  -->
<svg version="1.1" id="Layer_1" xmlns="http://www.w3.org/2000/svg" xmlns:xlink="http://www.w3.org/1999/xlink" x="0px" y="0px"
	 viewBox="0 0 150 150" style="enable-background:new 0 0 150 150;" xml:space="preserve">
<style type="text/css">
	.st0{clip-path:url(#SVGID_00000016037205915382502950000004329220892023605889_);}
	.st1{clip-path:url(#SVGID_00000075149816611697021950000004380126484086786689_);}
	.st2{clip-path:url(#SVGID_00000065752644421250789590000000100698268576665514_);}
	.st3{clip-path:url(#SVGID_00000102530708043171163950000017371971717901895054_);}
	.st4{clip-path:url(#SVGID_00000121267062779179044640000003531213068165230762_);}
	.st5{clip-path:url(#SVGID_00000030477080270213724050000016602848448107190664_);}
	.st6{clip-path:url(#SVGID_00000112630796919136200860000009639257736364180637_);}
	.st7{clip-path:url(#SVGID_00000078731060706357874830000008360560601839949232_);}
	.st8{clip-path:url(#SVGID_00000090974663594669778590000013878033745211625108_);}
	.st9{clip-path:url(#SVGID_00000049183820047139602570000010407355555005684101_);}
	.st10{fill:#FEE8DA;}
	.st11{clip-path:url(#SVGID_00000127032840758652890120000014373423583652905407_);}
	.st12{fill:url(#Path_4160_00000088814459400571688150000006592501562452476566_);}
	.st13{fill:url(#Path_4161_00000063605091487706913350000009988998785553586082_);}
	.st14{fill:url(#Path_4162_00000108285698534930919770000009559110826502299575_);}
	.st15{fill:url(#Path_4163_00000032630458218589923680000013805244779031898283_);}
	.st16{fill:url(#Path_4164_00000147196218700034583510000010851542950066080956_);}
	.st17{fill:url(#Path_4165_00000047059921761236566090000000365738918098110614_);}
	.st18{fill:url(#Path_4166_00000155121304913883902210000014357895612182603191_);}
	.st19{fill:url(#Path_4167_00000148663246845573961740000003505653503846641289_);}
	.st20{fill:url(#SVGID_00000118356603241500394730000014353111067499498668_);}
	.st21{fill:url(#SVGID_00000029762659700372080220000018093900482173153727_);}
	.st22{fill:url(#SVGID_00000144313285255712267990000006806866036566311310_);}
	.st23{fill:url(#SVGID_00000016792501557924109630000018136987389511152316_);}
	.st24{fill:url(#SVGID_00000050659794741543150260000008340518910531203227_);}
	.st25{fill:url(#SVGID_00000158726143265303329820000007955875990313149336_);}
	.st26{fill:url(#SVGID_00000112597287121702203830000013121957014601895070_);}
	.st27{fill:url(#SVGID_00000072254940986186070350000011085051796947847580_);}
	.st28{fill:url(#SVGID_00000108285300622656015560000001113678416727265199_);}
	.st29{fill:url(#SVGID_00000063591067297261027550000014170212926351094437_);}
	.st30{fill:url(#SVGID_00000036214090163901621560000013622390329542814086_);}
	.st31{fill:url(#SVGID_00000028323834066831140490000004615234463597370791_);}
	.st32{fill:url(#SVGID_00000072989086508579718370000006514464063592691347_);}
	.st33{fill:url(#SVGID_00000174588493904704407550000012317378629621808042_);}
	.st34{fill:url(#SVGID_00000097475915587722488910000006756186427135876529_);}
	.st35{fill:url(#SVGID_00000053521421522026243400000000117998436028675487_);}
	.st36{fill:url(#SVGID_00000141420931242956121270000015238712339000640949_);}
	.st37{fill:url(#SVGID_00000118366494852733688490000005208750957390562736_);}
	.st38{fill:url(#SVGID_00000164494601053775284750000006693303857929427586_);}
	.st39{fill:url(#SVGID_00000145058266146853554230000015072627797204060087_);}
	.st40{fill:url(#SVGID_00000055678560149573360380000010333242249433368455_);}
</style>
<ellipse id="Ellipse_113_00000072265816223505867520000005199355824907764145_" class="st10" cx="75" cy="75" rx="70" ry="70"/>
<g>
	<g>
		
			<linearGradient id="SVGID_00000179624625392021674200000018003758806391588531_" gradientUnits="userSpaceOnUse" x1="43.3115" y1="44.5305" x2="53.0637" y2="44.5305">
			<stop  offset="0" style="stop-color:#FF6600"/>
			<stop  offset="0" style="stop-color:#FF5204"/>
			<stop  offset="1" style="stop-color:#FF270D"/>
		</linearGradient>
		<path style="fill:url(#SVGID_00000179624625392021674200000018003758806391588531_);" d="M50.6,48.2c-0.4,0-0.7-0.1-1.1-0.3
			l-4.9-2.4c-1.2-0.6-1.7-2.1-1.1-3.3c0.6-1.2,2.1-1.7,3.3-1.1l4.9,2.4c1.2,0.6,1.7,2.1,1.1,3.3C52.4,47.7,51.5,48.2,50.6,48.2
			L50.6,48.2z"/>
		<path class="st10" d="M50.6,49.2c-0.5,0-1.1-0.1-1.5-0.4l-4.9-2.4c-1.7-0.8-2.4-2.9-1.5-4.6c0.8-1.7,2.9-2.4,4.6-1.5l4.9,2.4
			c0.8,0.4,1.4,1.1,1.7,2c0.3,0.9,0.2,1.8-0.2,2.6C53.1,48.5,51.9,49.2,50.6,49.2z M45.8,41.9c-0.5,0-1,0.3-1.3,0.8
			c-0.4,0.7-0.1,1.6,0.6,1.9L50,47c0.7,0.3,1.6,0,1.9-0.6c0.2-0.3,0.2-0.7,0.1-1.1c-0.1-0.4-0.4-0.7-0.7-0.8L46.4,42
			C46.2,41.9,46,41.9,45.8,41.9z"/>
	</g>
	<g>
		
			<linearGradient id="SVGID_00000076595670140052389940000002758772566774356385_" gradientUnits="userSpaceOnUse" x1="43.3128" y1="53.063" x2="53.0632" y2="53.063">
			<stop  offset="0" style="stop-color:#FF6600"/>
			<stop  offset="0" style="stop-color:#FF5204"/>
			<stop  offset="1" style="stop-color:#FF270D"/>
		</linearGradient>
		<path style="fill:url(#SVGID_00000076595670140052389940000002758772566774356385_);" d="M50.6,55.5h-4.9c-1.3,0-2.4-1.1-2.4-2.4
			c0-1.3,1.1-2.4,2.4-2.4h4.9c1.3,0,2.4,1.1,2.4,2.4C53.1,54.4,52,55.5,50.6,55.5z"/>
		<path class="st10" d="M50.6,56.5h-4.9c-1.9,0-3.4-1.5-3.4-3.4s1.5-3.4,3.4-3.4h4.9c1.9,0,3.4,1.5,3.4,3.4S52.5,56.5,50.6,56.5z
			 M45.8,51.6c-0.8,0-1.4,0.6-1.4,1.4s0.6,1.4,1.4,1.4h4.9c0.8,0,1.4-0.6,1.4-1.4s-0.6-1.4-1.4-1.4H45.8z"/>
	</g>
	<g>
		
			<linearGradient id="SVGID_00000174575697166247042300000015102110085492563593_" gradientUnits="userSpaceOnUse" x1="43.3107" y1="61.5942" x2="53.063" y2="61.5942">
			<stop  offset="0" style="stop-color:#FF6600"/>
			<stop  offset="0" style="stop-color:#FF5204"/>
			<stop  offset="1" style="stop-color:#FF270D"/>
		</linearGradient>
		<path style="fill:url(#SVGID_00000174575697166247042300000015102110085492563593_);" d="M45.8,65.3c-0.9,0-1.8-0.5-2.2-1.3
			c-0.6-1.2-0.1-2.7,1.1-3.3l4.9-2.4c1.2-0.6,2.7-0.1,3.3,1.1c0.6,1.2,0.1,2.7-1.1,3.3L46.8,65C46.5,65.2,46.1,65.3,45.8,65.3
			L45.8,65.3z"/>
		<path class="st10" d="M45.8,66.3c-1.3,0-2.5-0.7-3.1-1.9c-0.4-0.8-0.5-1.8-0.2-2.6c0.3-0.9,0.9-1.6,1.7-2l4.9-2.4
			c1.7-0.8,3.8-0.2,4.6,1.5c0.4,0.8,0.5,1.8,0.2,2.6c-0.3,0.9-0.9,1.6-1.7,2l-4.9,2.4C46.8,66.1,46.3,66.3,45.8,66.3z M50.6,58.9
			c-0.2,0-0.4,0-0.6,0.2l-4.9,2.4c-0.3,0.2-0.6,0.5-0.7,0.8c-0.1,0.4-0.1,0.8,0.1,1.1c0.3,0.7,1.2,1,1.9,0.6l4.9-2.4
			c0.3-0.2,0.6-0.5,0.7-0.8c0.1-0.4,0.1-0.8-0.1-1.1C51.7,59.2,51.1,58.9,50.6,58.9z"/>
	</g>
	<g>
		
			<linearGradient id="SVGID_00000079455967039275931370000010319050760180780691_" gradientUnits="userSpaceOnUse" x1="55.501" y1="53.0627" x2="75.0022" y2="53.0627">
			<stop  offset="0" style="stop-color:#FF6600"/>
			<stop  offset="0" style="stop-color:#FF5204"/>
			<stop  offset="1" style="stop-color:#FF270D"/>
		</linearGradient>
		<path style="fill:url(#SVGID_00000079455967039275931370000010319050760180780691_);" d="M75,45.7L58.6,41
			c-0.7-0.2-1.5-0.1-2.1,0.4c-0.6,0.5-1,1.2-1,1.9v19.5c0,0.8,0.4,1.5,1,1.9c0.4,0.3,0.9,0.5,1.5,0.5c0.2,0,0.4,0,0.7-0.1L75,60.4
			L75,45.7z"/>
		<path class="st10" d="M57.9,66.3c-0.7,0-1.5-0.2-2.1-0.7c-0.9-0.6-1.4-1.7-1.4-2.7V43.3c0-1.1,0.5-2.1,1.4-2.7
			c0.9-0.6,2-0.9,3-0.6L76,45l0,16.1l-17.1,5C58.6,66.2,58.3,66.3,57.9,66.3z M57.9,41.9c-0.3,0-0.6,0.1-0.9,0.3
			c-0.4,0.3-0.6,0.7-0.6,1.1v19.5c0,0.4,0.2,0.9,0.6,1.1c0.4,0.3,0.8,0.4,1.3,0.2L74,59.6l0-13.1l-15.7-4.6
			C58.2,41.9,58.1,41.9,57.9,41.9z"/>
	</g>
	<g>
		
			<linearGradient id="SVGID_00000054228148753740645960000011591109146667245699_" gradientUnits="userSpaceOnUse" x1="77.4394" y1="53.0627" x2="87.1898" y2="53.0627">
			<stop  offset="0" style="stop-color:#FF6600"/>
			<stop  offset="0" style="stop-color:#FF5204"/>
			<stop  offset="1" style="stop-color:#FF270D"/>
		</linearGradient>
		<path style="fill:url(#SVGID_00000054228148753740645960000011591109146667245699_);" d="M82.3,45.7h-4.9v14.6h4.9
			c2.7,0,4.9-2.2,4.9-4.9v-4.9C87.2,47.9,85,45.7,82.3,45.7z"/>
		<path class="st10" d="M82.3,61.4h-5.9V44.8h5.9c3.2,0,5.9,2.6,5.9,5.9v4.9C88.2,58.7,85.6,61.4,82.3,61.4z M78.4,59.4h3.9
			c2.1,0,3.9-1.7,3.9-3.9v-4.9c0-2.1-1.7-3.9-3.9-3.9h-3.9V59.4z"/>
	</g>
	<g>
		
			<linearGradient id="SVGID_00000008123586542886530360000009750107763470908075_" gradientUnits="userSpaceOnUse" x1="75.0017" y1="65.2511" x2="82.3146" y2="65.2511">
			<stop  offset="0" style="stop-color:#FF6600"/>
			<stop  offset="0" style="stop-color:#FF5204"/>
			<stop  offset="1" style="stop-color:#FF270D"/>
		</linearGradient>
		<path style="fill:url(#SVGID_00000008123586542886530360000009750107763470908075_);" d="M79.9,67.7H75l2.4-4.9h4.9L79.9,67.7z"/>
		<path class="st10" d="M80.5,68.7h-7.1l3.4-6.9h7.1L80.5,68.7z M76.6,66.7h2.6l1.4-2.9h-2.6L76.6,66.7z"/>
	</g>
	<g>
		
			<linearGradient id="SVGID_00000006686022947440651980000005841984353897287615_" gradientUnits="userSpaceOnUse" x1="92.065" y1="54.2804" x2="104.2531" y2="54.2804">
			<stop  offset="0" style="stop-color:#FF6600"/>
			<stop  offset="0" style="stop-color:#FF5204"/>
			<stop  offset="1" style="stop-color:#FF270D"/>
		</linearGradient>
		<path style="fill:url(#SVGID_00000006686022947440651980000005841984353897287615_);" d="M104.3,54.3c0,3.4-2.7,6.1-6.1,6.1
			c-3.4,0-6.1-2.7-6.1-6.1c0-3.4,2.7-6.1,6.1-6.1C101.5,48.2,104.3,50.9,104.3,54.3"/>
		<path class="st10" d="M98.2,61.4c-3.9,0-7.1-3.2-7.1-7.1s3.2-7.1,7.1-7.1c3.9,0,7.1,3.2,7.1,7.1S102.1,61.4,98.2,61.4z M98.2,49.2
			c-2.8,0-5.1,2.3-5.1,5.1c0,2.8,2.3,5.1,5.1,5.1c2.8,0,5.1-2.3,5.1-5.1C103.3,51.5,101,49.2,98.2,49.2z"/>
	</g>
	<g>
		
			<linearGradient id="SVGID_00000083789329366811156640000007750872553393405886_" gradientUnits="userSpaceOnUse" x1="89.6274" y1="64.0309" x2="106.6907" y2="64.0309">
			<stop  offset="0" style="stop-color:#FF6600"/>
			<stop  offset="0" style="stop-color:#FF5204"/>
			<stop  offset="1" style="stop-color:#FF270D"/>
		</linearGradient>
		<path style="fill:url(#SVGID_00000083789329366811156640000007750872553393405886_);" d="M106.7,67.7H89.6v-2.4
			c0-2.7,2.2-4.9,4.9-4.9h7.3c2.7,0,4.9,2.2,4.9,4.9V67.7z"/>
		<path class="st10" d="M107.7,68.7H88.6v-3.4c0-3.2,2.6-5.9,5.9-5.9h7.3c3.2,0,5.9,2.6,5.9,5.9V68.7z M90.6,66.7h15.1v-1.4
			c0-2.1-1.7-3.9-3.9-3.9h-7.3c-2.1,0-3.9,1.7-3.9,3.9V66.7z"/>
	</g>
	<g>
		
			<linearGradient id="SVGID_00000108988069740128005360000002887797443790619813_" gradientUnits="userSpaceOnUse" x1="40.8735" y1="93.282" x2="109.1267" y2="93.282">
			<stop  offset="0" style="stop-color:#FF6600"/>
			<stop  offset="0" style="stop-color:#FF5204"/>
			<stop  offset="1" style="stop-color:#FF270D"/>
		</linearGradient>
		<path style="fill:url(#SVGID_00000108988069740128005360000002887797443790619813_);" d="M75,96.9c-1.6,0-3.2-0.4-4.5-1.3
			L40.9,77.4v26.8c0,2.7,2.2,4.9,4.9,4.9h58.5c2.7,0,4.9-2.2,4.9-4.9V77.4L79.5,95.7C78.2,96.5,76.6,96.9,75,96.9L75,96.9z"/>
		<path class="st10" d="M104.3,110.1H45.7c-3.2,0-5.9-2.6-5.9-5.9V75.6L71,94.8c2.4,1.5,5.6,1.5,8,0l31.1-19.2v28.6
			C110.1,107.5,107.5,110.1,104.3,110.1z M41.9,79.2v25c0,2.1,1.7,3.9,3.9,3.9h58.5c2.1,0,3.9-1.7,3.9-3.9v-25L80,96.5
			c-3,1.9-7,1.9-10.1,0L41.9,79.2z"/>
	</g>
	<g>
		
			<linearGradient id="SVGID_00000127017710376186397940000017716560217504710787_" gradientUnits="userSpaceOnUse" x1="40.8733" y1="82.3127" x2="109.126" y2="82.3127">
			<stop  offset="0" style="stop-color:#FF6600"/>
			<stop  offset="0" style="stop-color:#FF5204"/>
			<stop  offset="1" style="stop-color:#FF270D"/>
		</linearGradient>
		<path style="fill:url(#SVGID_00000127017710376186397940000017716560217504710787_);" d="M44,70.1h62c1.7,0,3.1,1.4,3.1,3.1
			c0,1.1-0.6,2.1-1.5,2.7L79.5,93.2c-1.4,0.8-2.9,1.3-4.5,1.3s-3.2-0.4-4.5-1.3L42.4,75.9c-0.9-0.6-1.5-1.6-1.5-2.7
			C40.9,71.5,42.3,70.1,44,70.1L44,70.1z"/>
		<path class="st10" d="M75,95.5c-1.8,0-3.5-0.5-5-1.4L41.8,76.8c-1.2-0.7-2-2.1-2-3.5c0-2.3,1.9-4.1,4.1-4.1h62
			c2.3,0,4.1,1.9,4.1,4.1c0,1.4-0.8,2.8-2,3.5L80,94.1C78.5,95,76.8,95.5,75,95.5z M44,71.1c-1.2,0-2.1,1-2.1,2.1
			c0,0.7,0.4,1.4,1,1.8L71,92.4c2.4,1.5,5.6,1.5,8,0l28.1-17.3c0.6-0.4,1-1.1,1-1.8c0-1.2-1-2.1-2.1-2.1H44z"/>
	</g>
</g>
</svg>
