<?xml version="1.0" encoding="utf-8"?>
<!-- Generator: Adobe Illustrator 27.4.0, SVG Export Plug-In . SVG Version: 6.00 Build 0)  -->
<svg version="1.1" id="Layer_1" xmlns="http://www.w3.org/2000/svg" xmlns:xlink="http://www.w3.org/1999/xlink" x="0px" y="0px"
	 viewBox="0 0 150 150" style="enable-background:new 0 0 150 150;" xml:space="preserve">
<style type="text/css">
	.st0{clip-path:url(#SVGID_00000181083860462059389140000001535722615539824768_);}
	.st1{clip-path:url(#SVGID_00000065766274089402026470000012291535315732688314_);}
	.st2{clip-path:url(#SVGID_00000001647518292926512260000012843387037558559616_);}
	.st3{clip-path:url(#SVGID_00000129184860660261889110000011857952116490309025_);}
	.st4{clip-path:url(#SVGID_00000090976070304343086320000015594038807861928096_);}
	.st5{clip-path:url(#SVGID_00000064328548622356264180000016402826540168709523_);}
	.st6{clip-path:url(#SVGID_00000013162868791931682700000017564363782904000416_);}
	.st7{clip-path:url(#SVGID_00000008838189915239734860000006182753574691036330_);}
	.st8{clip-path:url(#SVGID_00000016041755224829366790000007671835550204698496_);}
	.st9{clip-path:url(#SVGID_00000176749028438651131150000006609318702104583845_);}
	.st10{fill:#FEE8DA;}
	.st11{clip-path:url(#SVGID_00000037694797728485846650000016945263401006792881_);}
	.st12{fill:url(#Path_4160_00000013884691489663495450000007061463882501517484_);}
	.st13{fill:url(#Path_4161_00000061430490200861872740000006506896742557861022_);}
	.st14{fill:url(#Path_4162_00000052064531316710331030000014200823018006842768_);}
	.st15{fill:url(#Path_4163_00000007397299603608120790000011692585677913651610_);}
	.st16{fill:url(#Path_4164_00000047043548499171170580000001448858350429199769_);}
	.st17{fill:url(#Path_4165_00000037656847330199770300000004522898827218259592_);}
	.st18{fill:url(#Path_4166_00000012435255551573097830000006111747837098145414_);}
	.st19{fill:url(#Path_4167_00000039112916862776679920000000029120828832195235_);}
	.st20{fill:url(#SVGID_00000085222101542474926100000015539057902551791766_);}
	.st21{fill:url(#SVGID_00000046299027959463178440000005234391158108832902_);}
	.st22{fill:url(#SVGID_00000119818165911289006340000007422736099904000406_);}
	.st23{fill:url(#SVGID_00000088092689369254304630000012073447038316786331_);}
	.st24{fill:url(#SVGID_00000023981049308122256980000008200103596096897427_);}
	.st25{fill:url(#SVGID_00000118387904209967945150000009868259547477887900_);}
	.st26{fill:url(#SVGID_00000031890246838183069040000005229571797583080620_);}
	.st27{fill:url(#SVGID_00000181069320498705329170000005085476002787402928_);}
	.st28{fill:url(#SVGID_00000110472809120485687010000007553659279033940925_);}
	.st29{fill:url(#SVGID_00000038396345992188994210000017843189342774857374_);}
	.st30{fill:url(#SVGID_00000096779038860872848040000005717061849219660933_);}
	.st31{fill:url(#SVGID_00000108301932553073715250000016220572610624550569_);}
	.st32{fill:url(#SVGID_00000134966926309570756020000005116309279223030671_);}
	.st33{fill:url(#SVGID_00000086649583637042645630000005376970134920751496_);}
	.st34{fill:url(#SVGID_00000079455310930809647780000012013410927044592519_);}
	.st35{fill:url(#SVGID_00000000937953860393194830000007813700446946109369_);}
	.st36{fill:url(#SVGID_00000145040617025739058590000000516801962025886866_);}
	.st37{fill:url(#SVGID_00000154404065682023159160000007451008688976565420_);}
	.st38{fill:url(#SVGID_00000165935804687017419600000009472906652109421210_);}
	.st39{fill:url(#SVGID_00000136392229030532930260000015860356422449356722_);}
	.st40{fill:url(#SVGID_00000134952982391944392720000016139820256256840115_);}
</style>
<ellipse id="Ellipse_113_00000010278458222725753490000017499855154506836916_" class="st10" cx="75" cy="75" rx="70" ry="70"/>
<g id="Group_13422_00000137833775896025174730000017830585144860609469_" transform="translate(20.303 17.361)">
	<g>
		<defs>
			<rect id="SVGID_00000037691972679178943790000006760733372536168873_" x="20.4" y="22.8" width="68.7" height="69.6"/>
		</defs>
		<clipPath id="SVGID_00000172398580915289303110000009863371858158808717_">
			<use xlink:href="#SVGID_00000037691972679178943790000006760733372536168873_"  style="overflow:visible;"/>
		</clipPath>
		
			<g id="Group_13421_00000144315688669627026620000016603201697495423402_" style="clip-path:url(#SVGID_00000172398580915289303110000009863371858158808717_);">
			
				<linearGradient id="Path_4160_00000179638181770354790850000008355429098345067148_" gradientUnits="userSpaceOnUse" x1="-1071.6057" y1="426.7745" x2="-1071.6057" y2="425.0245" gradientTransform="matrix(37.2093 0 0 -13.558 39928.3203 5835.249)">
				<stop  offset="0" style="stop-color:#FF6600"/>
				<stop  offset="0" style="stop-color:#FF5204"/>
				<stop  offset="1" style="stop-color:#FF270D"/>
			</linearGradient>
			
				<path id="Path_4160_00000098929374846756600760000002989800343692130441_" style="fill:url(#Path_4160_00000179638181770354790850000008355429098345067148_);" d="
				M54.7,72.8c6.5,0,11.7-5.3,11.7-11.9c0-6.5-5.2-11.9-11.7-11.9c-6.5,0-11.7,5.3-11.7,11.9c0,0,0,0,0,0.1
				C43,67.5,48.2,72.8,54.7,72.8 M67.6,51.9c3.7,5.4,3.7,12.6,0,18.1c4.9,4.2,12.3,3.6,16.5-1.4c4.2-5,3.5-12.4-1.4-16.7
				C78.3,48.2,72,48.2,67.6,51.9 M41.7,51.9c-4.7-4-11.7-3.7-15.9,0.9c-4.5,4.7-4.3,12.3,0.4,16.8c0.1,0.1,0.1,0.1,0.2,0.2
				c4.3,4,10.9,4.1,15.3,0.3C38,64.5,38,57.3,41.7,51.9"/>
			
				<linearGradient id="Path_4161_00000003783663706412630180000009800289743043323824_" gradientUnits="userSpaceOnUse" x1="-1058.2507" y1="421.5422" x2="-1058.2507" y2="419.7922" gradientTransform="matrix(16.11 0 0 -11.042 17103.1309 4727.7822)">
				<stop  offset="0" style="stop-color:#FF6600"/>
				<stop  offset="0" style="stop-color:#FF5204"/>
				<stop  offset="1" style="stop-color:#FF270D"/>
			</linearGradient>
			
				<path id="Path_4161_00000025400405290795999660000005860488705065241256_" style="fill:url(#Path_4161_00000003783663706412630180000009800289743043323824_);" d="
				M47.3,92.4c-1-0.3-2-0.7-2.9-1.1c-2.2-1.2-3.5-3.6-3.5-6.1c-0.3-2.9,0.2-5.9,1.4-8.6c0.6-1.2,1.4-2.3,2.2-3.5
				c6.9,5,13.6,5,20.4,0.1c1.2,1.3,2.1,2.7,2.7,4.3c1.1,2.8,1.3,5.9,0.8,8.9c-0.5,3-2.9,5.4-5.9,5.9c-0.1,0-0.3,0.1-0.4,0.1
				L47.3,92.4z"/>
			
				<linearGradient id="Path_4162_00000097483249912879894520000002273674801058979497_" gradientUnits="userSpaceOnUse" x1="-1046.8102" y1="421.4882" x2="-1046.8102" y2="419.7382" gradientTransform="matrix(11.1414 0 0 -11.018 11742.3213 4717.1157)">
				<stop  offset="0" style="stop-color:#FF6600"/>
				<stop  offset="0" style="stop-color:#FF5204"/>
				<stop  offset="1" style="stop-color:#FF270D"/>
			</linearGradient>
			
				<path id="Path_4162_00000150786413672020778720000017695969374754476989_" style="fill:url(#Path_4162_00000097483249912879894520000002273674801058979497_);" d="
				M69.8,92.4c1.8-2.1,2.8-4.9,2.7-7.7c0-1.4,0-2.8-0.2-4.2c-0.2-1.4-0.5-2.7-0.8-4.1c4.8,1.1,9.8-0.1,13.6-3.3c1,1,1.8,2.2,2.4,3.5
				c1.4,3.1,1.8,6.5,1.2,9.9c-0.6,3-2.9,5.3-5.9,5.8c-0.1,0-0.2,0.1-0.4,0.1H69.8z"/>
			
				<linearGradient id="Path_4163_00000152944778890088917570000009122045733463946377_" gradientUnits="userSpaceOnUse" x1="-1048.517" y1="421.486" x2="-1048.517" y2="419.736" gradientTransform="matrix(11.086 0 0 -11.017 11653.7998 4716.666)">
				<stop  offset="0" style="stop-color:#FF6600"/>
				<stop  offset="0" style="stop-color:#FF5204"/>
				<stop  offset="1" style="stop-color:#FF270D"/>
			</linearGradient>
			
				<path id="Path_4163_00000098921978868935111260000014183769908202137520_" style="fill:url(#Path_4163_00000152944778890088917570000009122045733463946377_);" d="
				M20.4,81.4c0.2-1,0.4-2,0.7-3c0.5-1.7,1.4-3.3,2.6-4.7c0.2-0.2,0.4-0.4,0.5-0.6c3.8,3.2,8.9,4.4,13.7,3.3
				c-0.3,1.1-0.6,2.2-0.8,3.3c-0.4,2.4-0.4,4.9-0.1,7.3c0.3,2,1.2,3.9,2.5,5.4H26.8c-0.1-0.1-0.2-0.1-0.3-0.1
				c-2.2-0.4-4.1-1.7-5.2-3.8c-0.4-0.9-0.7-1.7-0.9-2.6V81.4"/>
			
				<linearGradient id="Path_4164_00000049943069638857471240000015784222319293400710_" gradientUnits="userSpaceOnUse" x1="-1049.2572" y1="423.8709" x2="-1049.2572" y2="422.1209" gradientTransform="matrix(11.6584 0 0 -11.2332 12287.3018 4784.2734)">
				<stop  offset="0" style="stop-color:#FF6600"/>
				<stop  offset="0" style="stop-color:#FF5204"/>
				<stop  offset="1" style="stop-color:#FF270D"/>
			</linearGradient>
			
				<path id="Path_4164_00000042005952900508075650000015186039825339378830_" style="fill:url(#Path_4164_00000049943069638857471240000015784222319293400710_);" d="
				M55.2,22.8c0.7,0.4,1.3,1,1.6,1.8c0.5,1,1,2,1.5,3c0.1,0.3,0.4,0.4,0.7,0.5c1.3,0.2,2.6,0.4,4,0.6c0.8,0.1,1.5,0.6,1.7,1.4
				c0.3,0.8,0,1.6-0.5,2.1c-1,1-1.9,1.9-2.9,2.9C61,35.4,60.9,35.7,61,36c0.2,1.3,0.4,2.5,0.6,3.7c0.3,0.9,0,1.8-0.8,2.4
				c-0.7,0.5-1.7,0.5-2.4,0c-1.1-0.6-2.2-1.2-3.3-1.8c-0.3-0.2-0.6-0.2-0.9,0c-1.1,0.6-2.2,1.2-3.4,1.8c-0.7,0.5-1.6,0.5-2.3,0
				c-0.7-0.5-1-1.4-0.8-2.3c0.2-1.3,0.5-2.5,0.6-3.8c0-0.3-0.1-0.6-0.3-0.8c-0.9-0.9-1.8-1.8-2.8-2.8c-0.6-0.5-0.9-1.4-0.6-2.2
				c0.2-0.8,1-1.4,1.8-1.4c1.2-0.2,2.5-0.4,3.7-0.5c0.4,0,0.8-0.3,1-0.7c0.4-1,1-2,1.4-3c0.3-0.8,0.8-1.4,1.6-1.8L55.2,22.8z"/>
			
				<linearGradient id="Path_4165_00000032607893979953448530000001623447818583693748_" gradientUnits="userSpaceOnUse" x1="-1053.802" y1="426.7632" x2="-1053.802" y2="425.0132" gradientTransform="matrix(13.5501 0 0 -13.55 14333.7529 5831.7031)">
				<stop  offset="0" style="stop-color:#FF6600"/>
				<stop  offset="0" style="stop-color:#FF5204"/>
				<stop  offset="1" style="stop-color:#FF270D"/>
			</linearGradient>
			
				<path id="Path_4165_00000116226146569810809630000010330544705745284499_" style="fill:url(#Path_4165_00000032607893979953448530000001623447818583693748_);" d="
				M54.7,72.8c-6.5,0-11.7-5.3-11.8-11.8c0-6.5,5.2-11.9,11.7-11.9c6.5,0,11.7,5.2,11.8,11.8C66.4,67.4,61.2,72.7,54.7,72.8
				C54.7,72.8,54.7,72.8,54.7,72.8"/>
			
				<linearGradient id="Path_4166_00000175297145434884036970000007695815625103174272_" gradientUnits="userSpaceOnUse" x1="-1046.8865" y1="426.7743" x2="-1046.8865" y2="425.0243" gradientTransform="matrix(11.1393 0 0 -13.5578 11738.8096 5835.167)">
				<stop  offset="0" style="stop-color:#FF6600"/>
				<stop  offset="0" style="stop-color:#FF5204"/>
				<stop  offset="1" style="stop-color:#FF270D"/>
			</linearGradient>
			
				<path id="Path_4166_00000120549722820655313930000004987051763682252957_" style="fill:url(#Path_4166_00000175297145434884036970000007695815625103174272_);" d="
				M67.6,51.9c4.6-4,11.5-3.7,15.7,0.6c4.6,4.6,4.7,12,0.2,16.7C79.3,73.7,72.3,74,67.6,70C71.3,64.5,71.3,57.3,67.6,51.9"/>
			
				<linearGradient id="Path_4167_00000111875256499773908330000001448218580265250238_" gradientUnits="userSpaceOnUse" x1="-1048.4236" y1="426.7746" x2="-1048.4236" y2="425.0246" gradientTransform="matrix(11.0821 0 0 -13.558 11650.875 5835.2471)">
				<stop  offset="0" style="stop-color:#FF6600"/>
				<stop  offset="0" style="stop-color:#FF5204"/>
				<stop  offset="1" style="stop-color:#FF270D"/>
			</linearGradient>
			
				<path id="Path_4167_00000014614779623238258150000006024833280447184048_" style="fill:url(#Path_4167_00000111875256499773908330000001448218580265250238_);" d="
				M41.7,51.9C38,57.3,38,64.5,41.7,70c-4.4,3.9-11,3.7-15.3-0.3c-4.8-4.4-5.1-11.9-0.8-16.8c0.1-0.1,0.1-0.1,0.2-0.2
				C30,48.2,37,47.8,41.7,51.9"/>
		</g>
	</g>
</g>
</svg>
