<?xml version="1.0" encoding="UTF-8"?><svg id="Layer_1" xmlns="http://www.w3.org/2000/svg" xmlns:xlink="http://www.w3.org/1999/xlink" viewBox="0 0 150 150"><defs><style>.cls-1{fill:#fee8da;}.cls-2{fill:url(#linear-gradient);}</style><linearGradient id="linear-gradient" x1="44.25" y1="75" x2="105.75" y2="75" gradientUnits="userSpaceOnUse"><stop offset="0" stop-color="#f60"/><stop offset="0" stop-color="#ff5204"/><stop offset="1" stop-color="#ff270d"/></linearGradient></defs><circle id="Ellipse_113" class="cls-1" cx="75" cy="75" r="70"/><path class="cls-2" d="M93.79,92.51c.92-3,20.32-19.91,7.73-41.31-6.35-10.79-20.33-17.38-35.43-12.35-8.08,2.7-14.19,9.55-16.5,15.65-1.3,3.44-2.13,11.67-1.04,12.75,1.09,1.08,1.85,1.37,1.73,2.76-.12,1.39-5.31,11.57-5.31,11.57,0,0-2.65,3.78,2.19,3.67,4.85-.12,4.5,.94,4.5,2.32s-.91,2.73,0,3.11c1.96,.81,.17,2.34,.92,2.88,3,2.17,.81,5.65,1.53,7.82,.9,3.83,2.97,1.98,10.59,.95,7.62-1.04,5.65,9.58,5.65,10.5s24.78-12.64,24.78-12.64c0,0-2.28-4.67-1.35-7.67h0Zm-23.65-25.7h-2.51v-6.64l2.51-2.52v9.17Zm5.01,0h-2.51v-11.33l2.51,2.27v9.06Zm5.01,0h-2.51v-7.47l2.51-1.7v9.17Zm5.01,0h-2.51v-10.56l2.51-1.65v12.21Zm5.01,0h-2.51v-13.49s2.51-1.44,2.51-1.44v14.93Zm2.53-19.9l-.57,2.37c-.08,.33-.37,.55-.69,.55-.05,0-.11,0-.17-.02-.38-.09-.62-.48-.53-.86l.17-.69-13.43,8.28c-.28,.17-.64,.13-.87-.09l-3.86-3.72-5.67,5.17c-.14,.12-.31,.19-.48,.19-.19,0-.39-.08-.53-.23-.27-.29-.24-.74,.05-1.01l6.16-5.62c.28-.25,.7-.25,.98,.01l3.94,3.8,12.97-8-.7-.17c-.38-.09-.62-.48-.53-.86,.09-.38,.48-.62,.86-.53l2.37,.57c.39,.09,.62,.47,.53,.86h0Z"/></svg>