<?xml version="1.0" encoding="UTF-8"?><svg id="Layer_1" xmlns="http://www.w3.org/2000/svg" xmlns:xlink="http://www.w3.org/1999/xlink" viewBox="0 0 150 150"><defs><style>.cls-1{fill:url(#linear-gradient-2);}.cls-2{fill:#fee8da;}.cls-3{fill:url(#linear-gradient-5);}.cls-4{fill:url(#linear-gradient-3);}.cls-5{fill:url(#linear-gradient);}.cls-6{fill:url(#linear-gradient-4);}</style><linearGradient id="linear-gradient" x1="22.82" y1="86.47" x2="55.94" y2="86.47" gradientUnits="userSpaceOnUse"><stop offset="0" stop-color="#f60"/><stop offset="0" stop-color="#ff5204"/><stop offset="1" stop-color="#ff270d"/></linearGradient><linearGradient id="linear-gradient-2" x1="31" y1="67.63" x2="50.63" y2="67.63" xlink:href="#linear-gradient"/><linearGradient id="linear-gradient-3" x1="94.51" y1="86.55" x2="127.19" y2="86.55" xlink:href="#linear-gradient"/><linearGradient id="linear-gradient-4" x1="99.69" y1="67.71" x2="119.1" y2="67.71" xlink:href="#linear-gradient"/><linearGradient id="linear-gradient-5" x1="52.93" y1="75" x2="97.48" y2="75" xlink:href="#linear-gradient"/></defs><circle id="Ellipse_113" class="cls-2" cx="75" cy="75" r="70"/><g><path class="cls-5" d="M55.94,81.67c-1.7-1.88-3.4-2.02-3.92-2.14-1.6-.37-3.53-.22-4.56-.54-.12,1.01-3.07,4.34-5,6.43l-.84-3.22c.63-.37,.77-1.19,.77-1.87h-3.17c0,.67,.14,1.48,.75,1.86l-.82,3.23c-1.93-2.09-4.87-5.42-5-6.43-1.03,.32-2.97,.16-4.56,.54-.81,.19-4.58,.43-6.62,7.45-.28,.95-.18,1.99,.27,2.84,1.67,3.16,10.46,4.13,17.57,4.13,3.28,0,6.92-.21,10.05-.74-.17-1.02-.12-2.07,.18-3.08,1.11-3.81,2.76-6.64,4.91-8.46h0Z"/><path class="cls-1" d="M32.59,71.52c.75,2.02,1.94,3.99,3.41,5.42,.83,.81,1.75,1.46,2.74,1.85,.68,.27,1.38,.42,2.11,.42s1.43-.15,2.11-.42c1.02-.4,1.97-1.08,2.83-1.93,1.44-1.43,2.6-3.37,3.33-5.36,.57-.17,1.16-1.23,1.4-2.58,.26-1.47,.02-2.76-.55-2.97,.02-.36,.03-.72,.03-1.1-.01-5.33-3.14-8.44-8.07-8.77-4.3-.29-7.54,1.42-9.02,4.26-.5,.96-.78,2.15-.89,3.45-.17,.68-.26,1.38-.26,2.1h.02s0,.01,0,.02c-.01,0-.02,0-.03,0-.63,.11-.91,1.45-.64,3,.25,1.42,.89,2.52,1.48,2.6h0Zm.14-3.98c.06-.18,.14-.32,.25-.4,.04-.03,.09-.05,.14-.06,.12-.02,.24,.02,.36,.12h0s0-.02,0-.03c.04-.4,.58-3.9,3.95-3.59,0,0,2.96,1.09,5.65,.13,.29,0,.57,0,.83,0,1.11,.04,1.88,.62,2.68,.99-.03-.37-.31-.74-.3-.99,.13,.04,.24,.09,.36,.15,.58,.61,1.13,1.64,1.57,3.32,0,0,0,.01,0,.02,0,0,0,0,0,0h0s0,0,0,0c.12-.09,.24-.13,.35-.11,.03,0,.06,.01,.08,.03,.37,.17,.53,1.03,.35,2.01-.13,.75-.43,1.37-.74,1.63-.13,.11-.25,.16-.37,.13-.07-.01-.13-.05-.19-.1-.68,2.12-1.98,4.24-3.62,5.52-.98,.77-2.08,1.24-3.24,1.24s-2.21-.45-3.17-1.19c-1.67-1.28-3-3.42-3.68-5.57-.06,.05-.12,.09-.19,.1-.14,.03-.29-.05-.43-.19-.29-.29-.55-.87-.68-1.58,0-.05-.01-.09-.02-.14,0-.49,.03-.97,.06-1.44h0Z"/><path class="cls-4" d="M127.03,87.05c-2.02-6.94-5.75-7.18-6.55-7.37-1.58-.37-3.49-.21-4.51-.53-.18,1.5-3.06,2.68-6.58,2.68s-6.4-1.19-6.58-2.68c-1.02,.32-2.93,.16-4.51,.53-.5,.12-2.14,.25-3.79,2.03,2.13,1.82,3.76,4.63,4.86,8.42,.29,1.01,.34,2.08,.17,3.1,3.08,.52,6.64,.72,9.85,.72,7.03,0,15.72-.96,17.37-4.09,.45-.84,.54-1.87,.27-2.81h0Z"/><path class="cls-6" d="M101.26,71.76c.74,2,1.92,3.94,3.38,5.36,.82,.81,1.74,1.44,2.71,1.83,.67,.26,1.37,.41,2.09,.41s1.42-.15,2.09-.41c1.01-.4,1.95-1.07,2.8-1.91,1.42-1.42,2.57-3.33,3.3-5.3,.56-.17,1.15-1.21,1.39-2.56,.26-1.46,.02-2.73-.55-2.94,.02-.36,.03-.71,.03-1.08-.02-5.28-3.11-8.76-7.99-9.09-4.25-.29-7.46,1.4-8.92,4.21-.49,.94-.77,2.54-.88,3.83-.16,.67-.26,1.36-.26,2.08h.02s0,.01,0,.02c-.01,0-.02,0-.03,0-.62,.11-.91,1.44-.63,2.96,.25,1.41,.88,2.49,1.47,2.57h0Zm.14-3.93c.06-.18,.14-.32,.25-.39,.04-.03,.09-.05,.14-.06,.11-.02,.24,.02,.36,.12h0s0-.02,0-.03c.04-.4,.57-3.86,3.9-3.55,0,0,2.92,1.08,5.58,.13,.29,0,.56,0,.82,0,1.1,.04,1.86,.61,2.65,.98-.03-.36-.31-.74-.29-.98,.13,.04,.24,.09,.35,.15,.57,.61,1.12,1.62,1.56,3.28,0,0,0,.01,0,.02,0,0,0,0,0,0,0,0,0,0,0,0h0c.11-.1,.23-.14,.35-.12,.03,0,.06,.02,.08,.03,.36,.17,.52,1.02,.35,1.99-.13,.74-.42,1.35-.73,1.62-.12,.1-.25,.15-.37,.13-.07-.01-.13-.05-.18-.1-.67,2.1-1.96,4.19-3.58,5.46-.97,.76-2.05,1.22-3.21,1.22s-2.19-.45-3.14-1.17c-1.65-1.26-2.96-3.38-3.64-5.51-.06,.05-.12,.08-.19,.1-.14,.02-.29-.05-.43-.19-.29-.29-.55-.87-.67-1.56,0-.05-.01-.09-.02-.14,0-.49,.03-.96,.06-1.42h0Z"/><path class="cls-3" d="M89.09,81.5c-.12-.03-.23-.05-.35-.07-3.05-2.82-.97-14.58-.97-14.58,0-14.98-8.47-16.21-11.25-16.21-.55,0-.87,.05-.87,.05-.15,0-.29-.01-.44-.02-.14,0-.29,.01-.44,.02,0,0-.33-.05-.88-.05-2.78,0-11.25,1.23-11.25,16.21,0,0,2.08,11.76-.97,14.58-.12,.02-.24,.05-.35,.07-1.01,.23-5.67,.53-8.2,9.22-.34,1.18-.22,2.46,.33,3.52,2.07,3.91,12.94,5.12,21.73,5.12h.05c8.79,0,19.66-1.21,21.73-5.12,.56-1.05,.68-2.34,.33-3.52-2.53-8.69-7.2-8.99-8.2-9.22h0Zm-5.65-.66c-.04,.33-.19,.64-.42,.94-1.1,1.4-4.18,3.43-7.82,3.43s-6.72-2.03-7.82-3.43c-.23-.3-.38-.62-.42-.94h0c.05-.02,.18-.06,.35-.14,.07-.03,.14-.07,.22-.11,.66-.35,1.64-1.08,1.64-2.36h0c1.05,1.04,2.22,1.86,3.46,2.36,.84,.33,1.71,.52,2.61,.52s1.77-.19,2.61-.52c1.23-.49,2.39-1.3,3.43-2.33,0,0,.01,0,.02,0,.02,1.65,1.68,2.37,2.13,2.54,0,.01,0,.02,0,.03h0Zm1.91-12.22c-.17,.93-.53,1.7-.91,2.02-.13,.11-.26,.17-.39,.17-.02,0-.05,0-.07,0-.09-.01-.16-.06-.23-.12-.85,2.65-2.48,5.29-4.53,6.87-1.2,.93-2.54,1.49-3.96,1.49s-2.78-.57-3.98-1.51c-2.04-1.59-3.66-4.22-4.51-6.85-.07,.06-.15,.11-.23,.12-.02,0-.05,0-.07,0-.15,0-.31-.09-.47-.24-.36-.36-.69-1.08-.84-1.96-.21-1.14-.04-2.16,.36-2.45,.05-.04,.11-.07,.18-.08,.02,0,.05,0,.07,0,.12,0,.25,.06,.37,.16,0,0,0-.01,0-.03,.05-.48,.67-5.71,4.48-5.71,.13,0,.27,0,.41,.02l12.77,6.57,1.04-1s.07,.02,.1,.03c.46,.21,.65,1.28,.44,2.49h0Z"/></g></svg>