<?xml version="1.0" encoding="utf-8"?>
<!-- Generator: Adobe Illustrator 27.4.0, SVG Export Plug-In . SVG Version: 6.00 Build 0)  -->
<svg version="1.1" id="Layer_1" xmlns="http://www.w3.org/2000/svg" xmlns:xlink="http://www.w3.org/1999/xlink" x="0px" y="0px"
	 viewBox="0 0 150 150" style="enable-background:new 0 0 150 150;" xml:space="preserve">
<style type="text/css">
	.st0{fill:#FEE8DA;}
	.st1{fill:none;}
	.st2{clip-path:url(#SVGID_00000183215525483832698650000007624216232770251922_);}
	.st3{fill:url(#Path_4157_00000132804129271581188880000009806855135371832707_);}
	.st4{fill:url(#Path_4158_00000168831844544047977400000003135544874520280734_);}
	.st5{fill:url(#Path_4159_00000160185670682166172210000007166635855515247024_);}
	.st6{fill:url(#Path_4158_00000127760264313224702510000017372470207895564954_);}
	.st7{fill:url(#Path_4159_00000116206522072541509940000014966223240251650948_);}
	.st8{fill:url(#SVGID_00000155865280643931780390000001072359751812192897_);}
	.st9{fill:url(#SVGID_00000029021530973874692580000004492178603299968901_);}
	.st10{fill:url(#SVGID_00000075148168564154425600000010373677590803450798_);}
	.st11{fill:url(#SVGID_00000019665815239239448020000014979983434936239516_);}
	.st12{fill:url(#SVGID_00000053537538412267025310000013935273120705644947_);}
	.st13{fill:url(#SVGID_00000083808087533798258150000002472792134967449506_);}
	.st14{fill:url(#SVGID_00000165219258633768979720000016705704343530873508_);}
	.st15{fill:url(#SVGID_00000046306040833361215890000003377412734969366462_);}
	.st16{fill:url(#SVGID_00000121977291412598083410000017018345429340098438_);}
	.st17{fill:url(#SVGID_00000151514608962503465300000009714993073228415624_);}
	.st18{fill:url(#SVGID_00000171715231253388512600000010732158446694594953_);}
	.st19{fill:url(#SVGID_00000162331267661062997070000018338722148944169863_);}
	.st20{fill:url(#SVGID_00000022542980730302927920000002148624819337088671_);}
	.st21{fill:url(#SVGID_00000070109549862154174530000006921136941983534778_);}
	.st22{fill:url(#SVGID_00000183209829638704216690000007686759544677873086_);}
	.st23{fill:url(#SVGID_00000142871479787841980590000017162873728984252834_);}
	.st24{fill:url(#SVGID_00000175281042058245377010000014067523900369103011_);}
	.st25{fill:url(#SVGID_00000096037767663193290850000009611951519493395072_);}
	.st26{fill:url(#SVGID_00000042703743211680543220000008388755194396791220_);}
	.st27{fill:url(#SVGID_00000067217585204128435510000003752273684905043381_);}
	.st28{fill:url(#SVGID_00000110443487057490999370000004728924279806495666_);}
	.st29{fill:url(#SVGID_00000093879718498570713650000013987003336004298125_);}
	.st30{fill:url(#SVGID_00000142150354333750248540000013036661078579099025_);}
	.st31{fill:url(#SVGID_00000028288392317595028280000009084946997098976911_);}
	.st32{fill:url(#SVGID_00000168090954322604677810000008089051336155866035_);}
	.st33{fill:url(#SVGID_00000029750412785754000870000009956400194197188746_);}
	.st34{fill:url(#SVGID_00000078046886036955683870000009723747725003344779_);}
	.st35{fill:url(#SVGID_00000170271832523233963680000001817798163882573240_);}
	.st36{fill:url(#SVGID_00000059991975426216823520000017389771157649119377_);}
	.st37{fill:url(#SVGID_00000095319180908950634410000016497314868393357711_);}
	.st38{fill:url(#SVGID_00000085212540480742915660000005094672174366335643_);}
	.st39{clip-path:url(#SVGID_00000075136360982003565420000002808020121977950882_);}
	.st40{fill:url(#Path_4160_00000116214941545454334070000016385702496857148312_);}
	.st41{fill:url(#Path_4161_00000103240257762733045560000016723307133346425023_);}
	.st42{fill:url(#Path_4162_00000062911572391970637090000010908807231473261958_);}
	.st43{fill:url(#Path_4163_00000108304631046080005120000006152225983389002121_);}
	.st44{fill:url(#Path_4164_00000006683758084729422410000005675606539408666023_);}
	.st45{fill:url(#Path_4165_00000130629305383180583240000001897715050849472160_);}
	.st46{fill:url(#Path_4166_00000159467620637101154500000008299285803312223120_);}
	.st47{fill:url(#Path_4167_00000173855402901142811860000015234052886488858524_);}
	.st48{fill:url(#SVGID_00000106132598922878017970000017772411829942564497_);}
	.st49{fill:url(#SVGID_00000134930503918048580170000011336655681941442494_);}
	.st50{fill:url(#SVGID_00000158017958555763061710000008612080069890219669_);}
	.st51{fill:url(#SVGID_00000033330995086801747500000000953974597150734508_);}
	.st52{fill:url(#SVGID_00000049212306474756161930000012727675608401701037_);}
	.st53{fill:url(#SVGID_00000047777902107778073110000009979810786401829309_);}
	.st54{fill:url(#SVGID_00000135654061603150921320000008844964107231027901_);}
	.st55{fill:url(#SVGID_00000024688929212723103760000005911498840587492510_);}
	.st56{fill:url(#SVGID_00000091732500292766270670000006340477005809556157_);}
	.st57{fill:url(#SVGID_00000088100333008456204870000007224375890784108940_);}
	.st58{fill:url(#SVGID_00000078016281796547861890000004724995469253029563_);}
	.st59{fill:url(#SVGID_00000149351590768318590690000003662428071013974958_);}
	.st60{fill:url(#SVGID_00000048489000887385935810000010370965633087161532_);}
	.st61{fill:url(#SVGID_00000157294329687137113430000014579054884496087684_);}
	.st62{fill:url(#SVGID_00000115474051789793368290000013995652678149759636_);}
	.st63{fill:url(#SVGID_00000163759442130753906000000008321708869798327190_);}
	.st64{fill:url(#SVGID_00000127766567082033203210000013699257514262995349_);}
	.st65{fill:url(#SVGID_00000066504569295882666180000015995844898903955123_);}
	.st66{fill:url(#SVGID_00000155849896034599200000000013564870695387537031_);}
	.st67{fill:url(#SVGID_00000171707743615508138790000011279557650261278872_);}
	.st68{fill:url(#SVGID_00000174594086084116543520000001609477054662893440_);}
	.st69{fill:url(#SVGID_00000081646142886335915340000014975890816318727069_);}
	.st70{fill:url(#SVGID_00000169539857714601090670000013938506419189452699_);}
	.st71{fill:url(#SVGID_00000123439297683911048590000014872097189805868702_);}
	.st72{fill:url(#SVGID_00000126307729451963361560000015468434281480167808_);}
	.st73{fill:url(#SVGID_00000067950958193724302940000001803979869724934568_);}
	.st74{fill:url(#SVGID_00000034065036376317525000000000565659988085430683_);}
	.st75{fill:url(#SVGID_00000023269436638246583930000017680063569478620835_);}
	.st76{clip-path:url(#SVGID_00000165925806561413722660000003560403040861095310_);}
	.st77{fill:url(#Path_4168_00000183212673573902105320000007086704902250341803_);}
	.st78{fill:url(#Path_4169_00000106843478291241378540000005790716498314100920_);}
	.st79{fill:url(#Path_4170_00000060745515228797555980000002158823256815797123_);}
	.st80{fill:url(#Path_4171_00000181805061849176594300000017983076172648548532_);}
	.st81{fill:url(#Path_4172_00000047774411835574907240000005570164225176166558_);}
	.st82{fill:url(#Path_4173_00000031165912787285852070000004460986557616981405_);}
	.st83{fill:url(#SVGID_00000042000580265685928980000014181403845944669098_);}
	.st84{fill:url(#SVGID_00000158751193356038762230000001731380575152049034_);}
	.st85{fill:url(#SVGID_00000121266392004441905010000002036489901939867070_);}
	.st86{fill:url(#SVGID_00000053529109958717868570000006942113085449490567_);}
	.st87{fill:url(#SVGID_00000042719300904988742870000005698801122563387008_);}
</style>
<ellipse id="Ellipse_113_00000127028038108658749700000010092462391476748163_" class="st0" cx="75" cy="75" rx="70" ry="70"/>
<linearGradient id="SVGID_00000106145795613197840510000015016556115911545763_" gradientUnits="userSpaceOnUse" x1="22.9677" y1="75" x2="117.0323" y2="75">
	<stop  offset="0" style="stop-color:#FF6600"/>
	<stop  offset="0" style="stop-color:#FF5204"/>
	<stop  offset="1" style="stop-color:#FF270D"/>
</linearGradient>
<path style="fill:url(#SVGID_00000106145795613197840510000015016556115911545763_);" d="M66.2,61.2l9.1,9.1L55.5,90.1L46.4,81
	L66.2,61.2z M76.7,93.3l-19.5,19.5c-0.5,0.5-1.1,0.7-1.7,0.7s-1.3-0.3-1.7-0.7L23.7,82.7C23.2,82.2,23,81.6,23,81s0.3-1.3,0.7-1.7
	l39.8-39.8c0.4-0.4,0.9-0.6,1.4-0.7v0l22.5-2.4c0.1,0,0.1,0,0.2,0l0,0c0.7,0,1.3,0.2,1.7,0.7l10,10c0.5,0.5,0.8,1.2,0.7,2l-2.4,22.5
	c0,0.1,0,0.2-0.1,0.4C86.7,73.5,78.1,82.2,76.7,93.3z M78.5,57.9c2.7,2.7,7,2.7,9.7,0c2.7-2.7,2.7-7,0-9.7c-1.3-1.3-3.1-2-4.8-2h0
	c-1.8,0-3.5,0.7-4.8,2C75.9,50.9,75.9,55.3,78.5,57.9z M57.2,95.2L80.4,72c0.5-0.5,0.7-1.1,0.7-1.7c0-0.6-0.3-1.3-0.7-1.7L67.9,56.1
	c-0.5-0.5-1.1-0.7-1.7-0.7l0,0c-0.6,0-1.2,0.3-1.7,0.7L41.2,79.3c-0.4,0.5-0.7,1.1-0.7,1.7c0,0.6,0.3,1.2,0.7,1.7l12.5,12.5
	c0.5,0.5,1.1,0.7,1.7,0.7C56.1,95.9,56.7,95.7,57.2,95.2L57.2,95.2z M98.2,113.6l-0.7-5.6c-0.9-0.2-1.7-0.5-2.6-1
	c-0.8-0.5-1.6-1.1-2.2-1.7l-4.8,1.1l-2.6-4.6l4-3.8c-0.2-0.3-0.3-0.9-0.3-1.7c0-0.8,0.1-1.4,0.3-1.7l-4-3.9l2.6-4.5l4.8,1.1
	c0.6-0.5,1.3-1.1,2.2-1.6c0.8-0.5,1.7-0.8,2.6-1.1l0.7-5.7h5.7l0.9,5.7c0.8,0.2,1.7,0.6,2.5,1.1s1.6,1,2.2,1.5l4.7-0.9l2.8,4.5
	l-4.2,3.9c0.3,0.4,0.5,1,0.4,1.7c-0.1,0.8-0.2,1.3-0.4,1.6l4.2,3.8l-2.8,4.6l-4.7-1.1c-0.6,0.7-1.3,1.2-2.2,1.7
	c-0.8,0.5-1.7,0.8-2.5,1l-0.9,5.6L98.2,113.6z M101.2,102.4c1.8,0,3.3-0.5,4.4-1.6s1.6-2.6,1.6-4.4s-0.5-3.3-1.6-4.4
	s-2.6-1.7-4.4-1.7c-1.9,0-3.3,0.6-4.4,1.7s-1.6,2.6-1.6,4.4c0,1.9,0.5,3.3,1.6,4.4C97.8,101.9,99.3,102.4,101.2,102.4z"/>
</svg>
