<?xml version="1.0" encoding="utf-8"?>
<!-- Generator: Adobe Illustrator 27.4.0, SVG Export Plug-In . SVG Version: 6.00 Build 0)  -->
<svg version="1.1" id="Layer_1" xmlns="http://www.w3.org/2000/svg" xmlns:xlink="http://www.w3.org/1999/xlink" x="0px" y="0px"
	 viewBox="0 0 150 150" style="enable-background:new 0 0 150 150;" xml:space="preserve">
<style type="text/css">
	.st0{fill:#FEE8DA;}
	.st1{fill:url(#SVGID_1_);}
	.st2{fill:url(#SVGID_00000060735573076408489000000008713505883282359987_);}
	.st3{fill:url(#SVGID_00000103242246214255229320000018410137229308901259_);}
</style>
<ellipse id="Ellipse_113_00000010278458222725753490000017499855154506836916_" class="st0" cx="75" cy="75" rx="70" ry="70"/>
<g>
	<linearGradient id="SVGID_1_" gradientUnits="userSpaceOnUse" x1="41.2709" y1="90.3709" x2="108.7537" y2="90.3709">
		<stop  offset="0" style="stop-color:#FF6600"/>
		<stop  offset="0" style="stop-color:#FF5204"/>
		<stop  offset="1" style="stop-color:#FF270D"/>
	</linearGradient>
	<path class="st1" d="M41.3,71.2c22.5,0,44.9,0,67.4,0c0,0.3,0,0.6,0,1c0,8.9,0,17.9,0,26.8c0,6.2-4.4,10.6-10.6,10.6
		c-15.4,0-30.9,0-46.3,0c-5.4,0-9.5-3.4-10.4-8.6c-0.1-0.7-0.1-1.4-0.1-2.1c0-8.9,0-17.9,0-26.8C41.3,71.8,41.3,71.5,41.3,71.2z
		 M63.5,97.4c1.5,0,3,0,4.5,0c3,0,5-2,5-5.1c0-3,0-5.9,0-8.9c0-2.9-1.9-5-4.8-5c-3.2-0.1-6.3-0.1-9.5,0c-2.8,0.1-4.7,2-4.8,4.7
		c-0.1,3.2-0.1,6.3,0,9.5c0.1,2.8,2.1,4.7,4.9,4.7C60.4,97.4,62,97.4,63.5,97.4z"/>
	
		<linearGradient id="SVGID_00000141446923759095220740000005440767954235475366_" gradientUnits="userSpaceOnUse" x1="41.2432" y1="53.2227" x2="108.7568" y2="53.2227">
		<stop  offset="0" style="stop-color:#FF6600"/>
		<stop  offset="0" style="stop-color:#FF5204"/>
		<stop  offset="1" style="stop-color:#FF270D"/>
	</linearGradient>
	<path style="fill:url(#SVGID_00000141446923759095220740000005440767954235475366_);" d="M108.7,66c-22.5,0-44.9,0-67.3,0
		c-0.1-0.1-0.1-0.1-0.1-0.2c0-2.8-0.2-5.6,0.1-8.3c0.6-5.1,4.9-8.7,10.3-8.8c1.9,0,3.9,0,5.8,0c0.3,0,0.7,0,1.1,0c0-2,0-3.8,0-5.7
		c0-1.4,0.9-2.4,2.1-2.6c1.5-0.2,2.8,0.8,2.8,2.4c0.1,1.6,0,3.2,0,4.8c0,0.3,0,0.7,0,1c7.6,0,15.1,0,22.8,0c0-1.3,0-2.5,0-3.7
		c0-0.7,0-1.5,0-2.2c0.1-1.4,1.2-2.4,2.5-2.3c1.3,0,2.4,1,2.4,2.5c0.1,1.7,0,3.4,0,5.1c0,0.2,0,0.4,0,0.7c2.1,0,4.2,0,6.2,0
		c1.1,0,2.1,0.1,3.2,0.3c4.6,1,7.8,5,7.9,9.7C108.8,61.1,108.7,63.5,108.7,66z"/>
	
		<linearGradient id="SVGID_00000176013284010566357700000004549072025100007609_" gradientUnits="userSpaceOnUse" x1="59.0194" y1="87.9648" x2="67.9316" y2="87.9648">
		<stop  offset="0" style="stop-color:#FF6600"/>
		<stop  offset="0" style="stop-color:#FF5204"/>
		<stop  offset="1" style="stop-color:#FF270D"/>
	</linearGradient>
	<path style="fill:url(#SVGID_00000176013284010566357700000004549072025100007609_);" d="M59,83.6c3,0,5.9,0,8.9,0
		c0,2.9,0,5.9,0,8.8c-3,0-5.9,0-8.9,0C59,89.4,59,86.5,59,83.6z"/>
</g>
</svg>
