<?xml version="1.0" encoding="UTF-8"?><svg id="Layer_1" xmlns="http://www.w3.org/2000/svg" xmlns:xlink="http://www.w3.org/1999/xlink" viewBox="0 0 150 150"><defs><style>.cls-1{fill:url(#linear-gradient-2);}.cls-2{fill:#fee8da;}.cls-3{fill:url(#linear-gradient);}</style><linearGradient id="linear-gradient" x1="39.62" y1="75" x2="110.38" y2="75" gradientUnits="userSpaceOnUse"><stop offset="0" stop-color="#f60"/><stop offset="0" stop-color="#ff5204"/><stop offset="1" stop-color="#ff270d"/></linearGradient><linearGradient id="linear-gradient-2" x1="68.11" y1="68.33" x2="81.89" y2="68.33" xlink:href="#linear-gradient"/></defs><circle id="Ellipse_113" class="cls-2" cx="75" cy="75" r="70"/><g><path class="cls-3" d="M107.74,67.83l-2.83-.38c-.23-.03-.42-.2-.48-.43-.68-2.51-1.68-4.93-2.98-7.18-.12-.21-.1-.46,.04-.64l1.73-2.27c.92-1.21,.81-2.93-.27-4.01l-5.87-5.87c-1.08-1.08-2.8-1.19-4.01-.27l-2.27,1.73c-.18,.14-.44,.15-.64,.04-2.26-1.3-4.67-2.3-7.18-2.98-.23-.06-.4-.25-.43-.48l-.38-2.83c-.2-1.51-1.5-2.64-3.02-2.64h-8.3c-1.52,0-2.82,1.14-3.02,2.64l-.38,2.83c-.03,.23-.2,.42-.43,.48-2.51,.68-4.93,1.68-7.18,2.98-.21,.12-.46,.1-.64-.04l-2.27-1.73c-1.21-.92-2.93-.81-4.01,.27l-5.87,5.87c-1.08,1.08-1.19,2.8-.27,4.01l1.73,2.27c.14,.18,.15,.44,.03,.64-1.3,2.26-2.3,4.67-2.98,7.18-.06,.23-.25,.4-.48,.43l-2.83,.38c-1.51,.2-2.64,1.5-2.64,3.02v8.3c0,1.52,1.14,2.82,2.64,3.02l2.83,.38c.23,.03,.42,.2,.48,.43,.68,2.51,1.68,4.92,2.98,7.18,.12,.21,.11,.46-.03,.64l-1.73,2.27c-.92,1.21-.81,2.93,.27,4.01l5.87,5.87c1.08,1.08,2.8,1.19,4.01,.27l2.27-1.73c.18-.14,.44-.15,.64-.04,2.26,1.3,4.68,2.3,7.18,2.98,.23,.06,.4,.25,.43,.48l.38,2.83c.2,1.51,1.5,2.64,3.02,2.64h8.3c1.52,0,2.82-1.14,3.02-2.64l.38-2.83c.03-.23,.2-.42,.43-.48,2.51-.68,4.93-1.68,7.18-2.98,.21-.12,.46-.1,.64,.04l2.27,1.73c1.21,.92,2.93,.81,4.01-.27l5.87-5.87c1.08-1.08,1.19-2.8,.27-4.01l-1.73-2.27c-.14-.18-.15-.44-.04-.64,1.3-2.26,2.3-4.68,2.98-7.18,.06-.23,.25-.4,.48-.43l2.83-.38c1.51-.2,2.64-1.5,2.64-3.02v-8.3c0-1.52-1.14-2.82-2.64-3.02h0Zm-18.81,20.65v-3.54c0-2.61-1.68-4.88-4.18-5.64l-5.64-1.71c-.32-.1-.66,0-.87,.26l-3.23,3.88-3.23-3.88c-.21-.25-.56-.36-.87-.26l-5.64,1.71c-2.5,.76-4.18,3.02-4.18,5.64v3.53c-3.38-3.49-5.46-8.24-5.46-13.47,0-10.69,8.7-19.39,19.39-19.39s19.39,8.7,19.39,19.39c0,5.23-2.08,9.99-5.47,13.48h0Z"/><path class="cls-1" d="M81.83,67.58l-.46,3.64c-.23,1.81-1.23,3.45-2.74,4.49-1.07,.74-2.33,1.13-3.63,1.13s-2.56-.39-3.63-1.13c-1.51-1.04-2.51-2.67-2.74-4.49l-.46-3.64c-.25-1.96,.36-3.94,1.67-5.42,1.31-1.48,3.19-2.33,5.17-2.33,1.85,0,3.59,.72,4.89,2.03,1.5,1.52,2.21,3.6,1.95,5.72h0Z"/></g></svg>