<?xml version="1.0" encoding="UTF-8"?>
<svg xmlns="http://www.w3.org/2000/svg" viewBox="0 0 200 200">
  <defs>
    <style>
      .cls-1 {
        opacity: .8;
      }

      .cls-1, .cls-2, .cls-3, .cls-4, .cls-5, .cls-6 {
        stroke-width: 0px;
      }

      .cls-1, .cls-6 {
        fill: #fbfbfb;
      }

      .cls-7 {
        mix-blend-mode: multiply;
      }

      .cls-8 {
        isolation: isolate;
      }

      .cls-2 {
        fill: #cacaca;
      }

      .cls-3 {
        fill: #bcbcbc;
      }

      .cls-4 {
        fill: #f60;
      }

      .cls-5 {
        fill: #fff;
      }
    </style>
  </defs>
  <g class="cls-8">
    <g id="Layer_1" data-name="Layer 1">
      <g>
        <g>
          <g class="cls-7">
            <polyline class="cls-2" points="178.12 178.76 178.12 190.79 -.13 190.79 -.13 59.53 12.96 59.53"/>
          </g>
          <g>
            <rect class="cls-5" x="7.5" y="9.58" width="192.33" height="172.33"/>
            <path class="cls-3" d="m199.83,181.91s-.02-.88-.03-2.56c0-1.69-.02-4.18-.03-7.42-.02-6.51-.04-16.06-.08-28.3-.04-24.44-.09-91.22-.16-134.05l.3.3c-57.9.02-113.15.05-192.31.08h-.02l.38-.38c-.01,50.12-.02,129.42-.03,172.33l-.34-.34c61.86.07,103.8.13,140.84.17,18.53.04,25.95.07,36,.09,5.02.02,8.88.03,11.5.04,1.3,0,2.29.02,2.97.02.67,0,1.02.02,1.02.02,0,0-.32.01-.98.02-.67,0-1.65.01-2.93.02-2.61,0-6.45.02-11.44.04-10.03.02-17.42.05-35.92.09-37.09.04-79.11.1-141.06.17h-.35s0-.35,0-.35c0-42.91-.02-122.21-.03-172.33v-.38s.38,0,.38,0h.02c79.17.03,134.41.05,192.31.08h.3s0,.3,0,.3c-.07,42.91-.12,109.75-.16,134.24-.03,12.2-.06,21.73-.08,28.23-.01,3.22-.03,5.69-.03,7.37-.01,1.66-.03,2.5-.03,2.5Z"/>
          </g>
          <path class="cls-3" d="m7.5,22.14c0-.21,36.46-.38,94.43-.38s97.73.17,97.73.38-39.74.38-97.73.38-94.43-.17-94.43-.38Z"/>
          <g>
            <g>
              <path class="cls-3" d="m15.79,15.81c0,.93-.75,1.68-1.68,1.68s-1.68-.75-1.68-1.68.75-1.68,1.68-1.68,1.68.75,1.68,1.68Z"/>
              <path class="cls-3" d="m21.56,15.81c0,.93-.75,1.68-1.68,1.68s-1.68-.75-1.68-1.68.75-1.68,1.68-1.68,1.68.75,1.68,1.68Z"/>
              <path class="cls-3" d="m27.25,15.81c0,.93-.75,1.68-1.68,1.68s-1.68-.75-1.68-1.68.75-1.68,1.68-1.68,1.68.75,1.68,1.68Z"/>
            </g>
            <g>
              <path class="cls-4" d="m15.79,15.81c0,.93-.75,1.68-1.68,1.68s-1.68-.75-1.68-1.68.75-1.68,1.68-1.68,1.68.75,1.68,1.68Z"/>
              <path class="cls-4" d="m21.56,15.81c0,.93-.75,1.68-1.68,1.68s-1.68-.75-1.68-1.68.75-1.68,1.68-1.68,1.68.75,1.68,1.68Z"/>
              <path class="cls-4" d="m27.25,15.81c0,.93-.75,1.68-1.68,1.68s-1.68-.75-1.68-1.68.75-1.68,1.68-1.68,1.68.75,1.68,1.68Z"/>
            </g>
          </g>
          <g class="cls-7">
            <rect class="cls-6" x="22.29" y="40.23" width="56.05" height="56.05"/>
          </g>
          <rect class="cls-2" x="90.9" y="43.12" width="56.05" height="29.93"/>
          <path class="cls-3" d="m171.01,84.29c0,.21-14.61.38-41.57.38s-38.28-.17-38.28-.38,11.31-.38,38.28-.38,41.57.17,41.57.38Z"/>
          <path class="cls-3" d="m171.01,94.71c0,.21-14.61.38-41.57.38s-38.28-.17-38.28-.38,11.31-.38,38.28-.38,41.57.17,41.57.38Z"/>
          <path class="cls-3" d="m171.01,105.12c0,.21-14.61.38-41.57.38s-38.28-.17-38.28-.38,11.31-.38,38.28-.38,41.57.17,41.57.38Z"/>
          <path class="cls-3" d="m138.33,115.54c0,.05-.81.1-2.27.15-1.59.03-3.68.07-6.18.12-5.22.07-12.44.11-20.4.11s-4.64-.04-9.86-.11c-2.51-.05-4.59-.09-6.18-.12-1.46-.04-2.27-.09-2.27-.15s.81-.1,2.27-.15c1.59-.03,3.68-.07,6.18-.12,5.22-.07,1.89-.11,9.86-.11s15.18.04,20.4.11c2.51.05,4.59.09,6.18.12,1.46.05,2.27.09,2.27.15Z"/>
          <g>
            <rect class="cls-3" x="29.07" y="143.4" width="26.34" height="26.34"/>
            <rect class="cls-1" x="29.07" y="143.4" width="26.34" height="26.34"/>
          </g>
          <g>
            <rect class="cls-3" x="76.84" y="143.4" width="26.34" height="26.34"/>
            <rect class="cls-1" x="76.84" y="143.4" width="26.34" height="26.34"/>
          </g>
          <rect class="cls-4" x="112" y="143.4" width="35.81" height="26.34"/>
          <g>
            <rect class="cls-3" x="154.59" y="143.4" width="26.34" height="26.34"/>
            <rect class="cls-1" x="154.59" y="143.4" width="26.34" height="26.34"/>
          </g>
        </g>
        <path class="cls-4" d="m56.2,95.72c5.7-2.18,9.76-7.52,9.79-13.82.04-8.25-6.83-14.97-15.34-15.01-8.51-.04-15.44,6.63-15.48,14.88-.03,6.36,4.05,11.77,9.82,13.95-23.71,3.25-22.64,26.69-22.64,26.69l56.08.23s1.28-23.69-22.23-26.92Z"/>
      </g>
    </g>
  </g>
</svg>