<svg xmlns="http://www.w3.org/2000/svg" width="45.183" height="39.628" viewBox="0 0 45.183 39.628">
  <g id="Group_16994" data-name="Group 16994" transform="translate(-144.23 -483.522)">
    <path id="Path_11790" data-name="Path 11790" d="M16942.441-37.314l5.453-2.718,3.516,3.316,10.668-8.949-1.35-1.286,6.393-1.531-1.916,6.388-1.6-1.277-9.729,8.232,3.012,2.558v5.043l-3.324,2.554-4.936-1.059L16947-30.01l1.627-4.082.76-1.372L16947-36.717l-4.25,2.625v2.572l-1.244,1.51-.838,2.077h-1.506l-1.307.963-1.643.453-1.363-1.416-1.762.4-1.246-1.51.438-1.324-1.023-1.562v-2.159l1.357-1.372-.334-1.85,1.592-.536,1.98-.434,1.158-.77,2.152,1.2h1.506Z" transform="translate(-16786 533)" fill="#08143e"/>
    <path id="Path_11789" data-name="Path 11789" d="M16970.283-28.507l.877,3.9,3.658.639v6.157l-1.525.619v6.41h-15.7l-.812-2.8-4.861,2.8-9.977-5.658.811-3.778,2.945-2.106h10.385l.7-1.644,3.191-1.395.586-3.142Z" transform="translate(-16786 533)" fill="#08143e"/>
    <path id="Path_11761" data-name="Path 11761" d="M12.222,21.608H11.2v.432a.6.6,0,0,1-.471.582,4.53,4.53,0,0,0-1.628.7.594.594,0,0,1-.744-.055l-.318-.3-.707.758.29.271a.6.6,0,0,1,.132.766,4.677,4.677,0,0,0-.536,1.346.6.6,0,0,1-.588.5H6.2v1.029h.432v0a.6.6,0,0,1,.584.471,4.5,4.5,0,0,0,.66,1.562.6.6,0,0,1-.07.744l-.3.31.738.719.282-.292v0a.6.6,0,0,1,.762-.113,4.611,4.611,0,0,0,1.416.579.6.6,0,0,1,.495.588v.434h1.029v-.432a.6.6,0,0,1,.471-.582,4.534,4.534,0,0,0,1.628-.705.594.594,0,0,1,.744.055l.318.3.707-.756-.292-.273a.594.594,0,0,1-.132-.766,4.677,4.677,0,0,0,.536-1.346.6.6,0,0,1,.588-.5h.43l0-1.029h-.432a.6.6,0,0,1-.582-.471,4.544,4.544,0,0,0-.662-1.562.6.6,0,0,1,.07-.744l.3-.31-.74-.719-.3.312h0a.6.6,0,0,1-.74.092,4.654,4.654,0,0,0-1.416-.577.6.6,0,0,1-.5-.588v-.432Zm1.12,3.88h0a2.312,2.312,0,1,1-2.521-.5,2.313,2.313,0,0,1,2.521.5Zm-1.634-1.872A3.5,3.5,0,1,1,9.23,24.642a3.506,3.506,0,0,1,2.478-1.027Zm12.831,1.013-2.063-2.063a.6.6,0,0,0-.768-.066l-4.554,2.63-.362-.8.4-.409a.6.6,0,0,0,.136-.612L22.4,20.382l3.2,3.2a.6.6,0,0,0,.824.018l10.519-8.715a.6.6,0,0,0,.041-.88l-.7-.7L41,12.035l-1.266,4.724-.853-.853a.6.6,0,0,0-.824-.019l-10.1,8.368a5.719,5.719,0,0,0-3.423.374Zm-1.73,1.186h0a5.705,5.705,0,0,1,.658-.567l-1.516-1.516L18.378,25.8v0a.584.584,0,0,1,.041.216v2.223a.6.6,0,0,1-.6.6h-.569l-.331.836.415.388a.594.594,0,0,1,.031.838l-1.521,1.623a.593.593,0,0,1-.84.029l-.417-.39v0a5.888,5.888,0,0,1-1.171.51v.573a.6.6,0,0,1-.6.6H10.6a.6.6,0,0,1-.6-.6v-.571a5.867,5.867,0,0,1-.925-.376l-.4.409a.593.593,0,0,1-.842.012l-1.6-1.547v0a.6.6,0,0,1-.012-.843l.4-.409v0a5.949,5.949,0,0,1-.46-1.083H5.6a.6.6,0,0,1-.6-.6V26.012a.6.6,0,0,1,.6-.6h.569a5.576,5.576,0,0,1,.329-.834l-.415-.388a.6.6,0,0,1-.189-.415.592.592,0,0,1,.162-.425l1.519-1.623h0a.6.6,0,0,1,.842-.029l.417.39v0A5.839,5.839,0,0,1,10,21.58V21.01a.6.6,0,0,1,.6-.6H12.82a.6.6,0,0,1,.6.6v.569a5.845,5.845,0,0,1,.923.376l.4-.409h0a.595.595,0,0,1,.843-.012l.908.882L22.2,19.124a.593.593,0,0,1,.717.1l3.142,3.136,9.613-7.971-.968-.97a.6.6,0,0,1,.3-1.007l6.693-1.8v0a.6.6,0,0,1,.729.736l-1.8,6.717a.6.6,0,0,1-1,.269l-1.2-1.2L29.3,24.7a5.7,5.7,0,1,1-6.485,1.116Zm4.03-.475h0a4.5,4.5,0,1,0,3.187,1.319,4.506,4.506,0,0,0-3.187-1.319Zm13.94,15.377h-1.4V43.3c0,.738.723,1.134,1.175.629a.943.943,0,0,0,.226-.629Zm1.2,1.12,0-1.718a.6.6,0,0,0-.6-.6h-2.6a.6.6,0,0,0-.6.6v1.718h-6.36c-.21,0-.349-.236-.349-.464V36.628c0-.226.14-.462.349-.462l16.511,0c.21,0,.349.236.349.462v4.745c0,.226-.14.464-.349.464ZM36.334,34.97v-.534a1.719,1.719,0,0,1,1.695-1.728h4.1a1.721,1.721,0,0,1,1.7,1.728v.534H44.9l0-1.849a2.11,2.11,0,0,0-.351-1.231.848.848,0,0,0-.653-.407H36.266a.849.849,0,0,0-.649.407,2.133,2.133,0,0,0-.356,1.229v1.849Zm6.3,0v-.534h0a.521.521,0,0,0-.14-.37.512.512,0,0,0-.362-.164h-4.1a.515.515,0,0,0-.362.164.521.521,0,0,0-.14.37v.534ZM31.227,46.041V42.9l0,0a1.677,1.677,0,0,1-.947-1.529V38.106H22.665a5.318,5.318,0,0,0-5.29,4.963l9.5,5.485,4.35-2.511ZM48.936,42.9v4.928h0a2,2,0,0,1-1.911,2.067H33.136a2,2,0,0,1-1.911-2.067v-.411l-4.052,2.338,0,0a.6.6,0,0,1-.6,0L16.52,43.948a.6.6,0,0,1-.351-.543,6.513,6.513,0,0,1,6.5-6.494h7.613v-.282a1.614,1.614,0,0,1,1.547-1.658h2.24V33.122c0-1.373.842-2.83,2.2-2.83h7.624c1.362,0,2.2,1.457,2.2,2.83V34.97h2.238a1.614,1.614,0,0,1,1.547,1.658v4.745a1.676,1.676,0,0,1-.947,1.527Zm-16.513.131h5.762v.265a2.131,2.131,0,0,0,.534,1.424A1.881,1.881,0,0,0,41.974,43.3v-.265l5.766,0v4.8a.812.812,0,0,1-.717.873H33.136a.814.814,0,0,1-.717-.873Z" transform="translate(139.381 473.107)" fill="#fff" stroke="#fff" stroke-width="0.3" fill-rule="evenodd"/>
  </g>
</svg>
