<svg xmlns="http://www.w3.org/2000/svg" width="16" height="16" xmlns:xlink="http://www.w3.org/1999/xlink"
                version="1.1" id="Layer_1" x="0px" y="0px" viewBox="0 0 50 50" enable-background="new 0 0 50 50"
                xml:space="preserve">
                <path
                  id="event_available_FILL0_wght400_GRAD0_opsz48_00000056425325145735467550000008719689114421425552_"
                  fill="#343634"
                  d="  M22.4,38.9l-7.6-7.6l2.3-2.3l5.3,5.2l10.2-10.2l2.3,2.4L22.4,38.9z M8.4,47.1c-1.8,0-3.3-1.5-3.3-3.3V9.5c0-1.8,1.5-3.3,3.3-3.3H12  V2.9h3.6v3.3h18.8V2.9H38v3.3h3.6c1.8,0,3.3,1.5,3.3,3.3v34.2c0,1.8-1.5,3.3-3.3,3.3H8.4z M8.4,43.8h33.1V20H8.4L8.4,43.8z   M8.4,16.7h33.1V9.5H8.4L8.4,16.7z M8.4,16.7L8.4,16.7z">
                </path>
              </svg>