<svg xmlns="http://www.w3.org/2000/svg" width="12" height="12" viewBox="0 0 12 12">
  <path id="stack_star_FILL0_wght300_GRAD0_opsz24" d="M106.6-850.155l1.291-.784,1.291.784-.343-1.478,1.136-.974-1.488-.13-.6-1.39-.6,1.39-1.488.13,1.136.974Zm-4.2-2.581v.947h-1.263a1.1,1.1,0,0,1-.807-.335,1.1,1.1,0,0,1-.335-.807v-5.927a1.1,1.1,0,0,1,.335-.807,1.1,1.1,0,0,1,.807-.335h5.927a1.1,1.1,0,0,1,.807.335,1.1,1.1,0,0,1,.335.807v1.263h-.947v-1.263a.189.189,0,0,0-.055-.14.19.19,0,0,0-.14-.055h-5.927A.19.19,0,0,0,101-859a.189.189,0,0,0-.055.14v5.927a.189.189,0,0,0,.055.14.189.189,0,0,0,.14.055ZM104.932-848a1.1,1.1,0,0,1-.807-.335,1.1,1.1,0,0,1-.335-.807v-5.927a1.1,1.1,0,0,1,.335-.807,1.1,1.1,0,0,1,.807-.335h5.927a1.1,1.1,0,0,1,.807.335,1.1,1.1,0,0,1,.335.807v5.927a1.1,1.1,0,0,1-.335.807,1.1,1.1,0,0,1-.807.335Zm0-.947h5.927A.189.189,0,0,0,111-849a.189.189,0,0,0,.055-.14v-5.927a.189.189,0,0,0-.055-.14.189.189,0,0,0-.14-.055h-5.927a.189.189,0,0,0-.14.055.189.189,0,0,0-.055.14v5.927a.189.189,0,0,0,.055.14.189.189,0,0,0,.14.055ZM107.9-852.1Z" transform="translate(-100.001 859.999)" fill="#343634"/>
</svg>
