<svg xmlns="http://www.w3.org/2000/svg" width="41.376" height="33.464" viewBox="0 0 41.376 33.464">
  <g id="Group_16993" data-name="Group 16993" transform="translate(-146 -415.768)">
    <rect id="Rectangle_2908" data-name="Rectangle 2908" width="40" height="33" transform="translate(146 416)" fill="#08143e"/>
    <path id="Path_11792" data-name="Path 11792" d="M40.812,42.353c-.05-.186-.468-.408-1-.436l-.08,0a1.382,1.382,0,0,0-.718.19,1.145,1.145,0,0,0,.295.226,2.038,2.038,0,0,0,.9.23,1.179,1.179,0,0,0,.462-.082C40.8,42.428,40.81,42.368,40.812,42.353Z" transform="translate(124.17 388.804)" fill="#fff"/>
    <path id="Path_11793" data-name="Path 11793" d="M42.034,40.224a1.126,1.126,0,0,0-.527-.448.875.875,0,0,0-.032.3,1.261,1.261,0,0,0,.541.993.268.268,0,0,0,.124.04.088.088,0,0,0,.041-.008C42.3,40.98,42.268,40.594,42.034,40.224Z" transform="translate(122.99 389.831)" fill="#fff"/>
    <path id="Path_11794" data-name="Path 11794" d="M37.042,40.2a1.731,1.731,0,0,0,1.156.525.832.832,0,0,0,.1-.006c.138-.017.171-.073.176-.084.011-.19-.318-.518-.816-.691a1.5,1.5,0,0,0-.489-.084,1.288,1.288,0,0,0-.336.043A1.079,1.079,0,0,0,37.042,40.2Z" transform="translate(125.215 389.791)" fill="#fff"/>
    <path id="Path_11795" data-name="Path 11795" d="M39.962,39.624a.192.192,0,0,0,.136.077h.011c.151-.084.244-.463.137-.882a1.072,1.072,0,0,0-.361-.574.908.908,0,0,0-.127.283A1.21,1.21,0,0,0,39.962,39.624Z" transform="translate(123.832 390.565)" fill="#fff"/>
    <path id="Path_11796" data-name="Path 11796" d="M36.165,38.17a.4.4,0,0,0,.064.005.171.171,0,0,0,.132-.042c.068-.179-.149-.579-.576-.877A1.393,1.393,0,0,0,35.009,37H35a1.031,1.031,0,0,0,.112.341A1.553,1.553,0,0,0,36.165,38.17Z" transform="translate(126.092 391.161)" fill="#fff"/>
    <path id="Path_11797" data-name="Path 11797" d="M37.868,37.56c.048.1.1.109.118.111.171-.041.375-.381.4-.812a1.036,1.036,0,0,0-.175-.644.957.957,0,0,0-.208.24A1.2,1.2,0,0,0,37.868,37.56Z" transform="translate(124.756 391.538)" fill="#fff"/>
    <path id="Path_11798" data-name="Path 11798" d="M35.263,35.126a.372.372,0,0,0,.118.023.138.138,0,0,0,.083-.022c.106-.162-.018-.6-.371-.969a1.355,1.355,0,0,0-.709-.4,1.036,1.036,0,0,0,.034.358A1.5,1.5,0,0,0,35.263,35.126Z" transform="translate(126.393 392.716)" fill="#fff"/>
    <path id="Path_11799" data-name="Path 11799" d="M36.848,34.933c.026.1.079.126.089.129.177-.006.451-.3.569-.719a1.007,1.007,0,0,0-.03-.662.978.978,0,0,0-.256.195A1.212,1.212,0,0,0,36.848,34.933Z" transform="translate(125.217 392.753)" fill="#fff"/>
    <path id="Path_11800" data-name="Path 11800" d="M35.019,31.862a.257.257,0,0,0,.158.07.125.125,0,0,0,.031,0c.16-.119.2-.566.011-1.03a1.273,1.273,0,0,0-.518-.6,1.022,1.022,0,0,0-.1.349A1.411,1.411,0,0,0,35.019,31.862Z" transform="translate(126.287 394.378)" fill="#fff"/>
    <path id="Path_11801" data-name="Path 11801" d="M37.31,31.419a1.044,1.044,0,0,0-.312.1,1.278,1.278,0,0,0-.74.872c-.014.106.026.141.034.148a.209.209,0,0,0,.06.008,1.142,1.142,0,0,0,.741-.5A1.028,1.028,0,0,0,37.31,31.419Z" transform="translate(125.492 393.838)" fill="#fff"/>
    <path id="Path_11802" data-name="Path 11802" d="M35.78,29.007c.072.1.135.107.16.107h.006c.186-.078.347-.5.28-1a1.223,1.223,0,0,0-.344-.7,1.058,1.058,0,0,0-.189.317A1.377,1.377,0,0,0,35.78,29.007Z" transform="translate(125.813 395.759)" fill="#fff"/>
    <path id="Path_11803" data-name="Path 11803" d="M37.964,29.271a1.063,1.063,0,0,0-.248.03,1.33,1.33,0,0,0-.946.677c-.04.1-.014.139-.006.15a.314.314,0,0,0,.146.03,1.348,1.348,0,0,0,.76-.325,1.07,1.07,0,0,0,.374-.557c-.025,0-.053,0-.08,0v-.029h0Z" transform="translate(125.256 394.882)" fill="#fff"/>
    <path id="Path_11804" data-name="Path 11804" d="M37.134,26.276c.042.124.108.143.123.146.2-.022.493-.383.588-.875a1.172,1.172,0,0,0-.1-.765,1.121,1.121,0,0,0-.284.25A1.392,1.392,0,0,0,37.134,26.276Z" transform="translate(125.09 397.02)" fill="#fff"/>
    <path id="Path_11805" data-name="Path 11805" d="M39.3,27.389a1.059,1.059,0,0,0-.318-.066h-.044a1.384,1.384,0,0,0-1.078.382c-.068.08-.058.129-.054.141a.521.521,0,0,0,.359.1,1.622,1.622,0,0,0,.6-.125A1.139,1.139,0,0,0,39.3,27.389Z" transform="translate(124.752 395.802)" fill="#fff"/>
    <path id="Path_11806" data-name="Path 11806" d="M39.308,24.314c.013.13.074.161.085.165h.019c.206,0,.553-.283.754-.741a1.175,1.175,0,0,0,.073-.767,1.156,1.156,0,0,0-.334.19A1.418,1.418,0,0,0,39.308,24.314Z" transform="translate(124.029 397.888)" fill="#fff"/>
    <path id="Path_11807" data-name="Path 11807" d="M40.6,25.672a1.212,1.212,0,0,0-.734.2c-.085.065-.086.115-.085.128a.776.776,0,0,0,.612.191,1.824,1.824,0,0,0,.329-.031,1.179,1.179,0,0,0,.62-.314,1.026,1.026,0,0,0-.294-.126,2.087,2.087,0,0,0-.449-.052v-.029h0Z" transform="translate(123.801 396.607)" fill="#fff"/>
    <path id="Path_11808" data-name="Path 11808" d="M41.861,23.936a1.5,1.5,0,0,0,.879-.4,1.228,1.228,0,0,0,.407-.667l-.064,0a1.242,1.242,0,0,0-.321.044,1.526,1.526,0,0,0-1.057.816c-.045.122-.006.172,0,.181A.322.322,0,0,0,41.861,23.936Z" transform="translate(122.889 397.94)" fill="#fff"/>
    <path id="Path_11809" data-name="Path 11809" d="M43.371,43.275a1.938,1.938,0,0,0-.6.1,1.321,1.321,0,0,0-.659.459,1.221,1.221,0,0,0,.368.1c.075.007.15.01.222.01a1.525,1.525,0,0,0,1.1-.362c.091-.092.08-.153.075-.166a.683.683,0,0,0-.5-.146h0v-.028h0Z" transform="translate(122.684 388.166)" fill="#fff"/>
    <path id="Path_11810" data-name="Path 11810" d="M43.421,41.158a.872.872,0,0,0,.095.288,1.35,1.35,0,0,0,.908.724.372.372,0,0,0,.056,0,.143.143,0,0,0,.108-.033c.057-.155-.13-.5-.5-.758A1.208,1.208,0,0,0,43.421,41.158Z" transform="translate(122.057 389.168)" fill="#fff"/>
    <path id="Path_11811" data-name="Path 11811" d="M49.295,42.353c0,.015.016.075.139.127a1.18,1.18,0,0,0,.463.082,2.035,2.035,0,0,0,.9-.23,1.109,1.109,0,0,0,.295-.226,1.386,1.386,0,0,0-.718-.19l-.081,0C49.763,41.945,49.345,42.167,49.295,42.353Z" transform="translate(119.24 388.804)" fill="#fff"/>
    <path id="Path_11812" data-name="Path 11812" d="M48.867,41.1a.082.082,0,0,0,.041.008.265.265,0,0,0,.124-.04,1.26,1.26,0,0,0,.542-.993.888.888,0,0,0-.032-.3,1.135,1.135,0,0,0-.527.448C48.782,40.594,48.75,40.98,48.867,41.1Z" transform="translate(119.477 389.831)" fill="#fff"/>
    <path id="Path_11813" data-name="Path 11813" d="M53.083,39.858a1.489,1.489,0,0,0-.489.084c-.5.172-.827.5-.816.69.006.014.041.069.176.085a.851.851,0,0,0,.1.006A1.729,1.729,0,0,0,53.21,40.2a1.082,1.082,0,0,0,.209-.3A1.3,1.3,0,0,0,53.083,39.858Z" transform="translate(118.049 389.791)" fill="#fff"/>
    <path id="Path_11814" data-name="Path 11814" d="M51.477,38.527a.908.908,0,0,0-.127-.283,1.082,1.082,0,0,0-.361.574c-.107.419-.014.8.136.882h.012a.194.194,0,0,0,.136-.077A1.215,1.215,0,0,0,51.477,38.527Z" transform="translate(118.449 390.565)" fill="#fff"/>
    <path id="Path_11815" data-name="Path 11815" d="M55.386,37.342A1.08,1.08,0,0,0,55.5,37h-.005a1.391,1.391,0,0,0-.777.256c-.426.3-.643.7-.576.876a.169.169,0,0,0,.132.042.42.42,0,0,0,.065-.005A1.555,1.555,0,0,0,55.386,37.342Z" transform="translate(116.922 391.161)" fill="#fff"/>
    <path id="Path_11816" data-name="Path 11816" d="M52.835,36.859c.022.431.227.771.4.812.013,0,.069-.012.117-.111a1.2,1.2,0,0,0-.132-1.106.974.974,0,0,0-.207-.24A1.032,1.032,0,0,0,52.835,36.859Z" transform="translate(117.543 391.538)" fill="#fff"/>
    <path id="Path_11817" data-name="Path 11817" d="M56.314,34.115a1.026,1.026,0,0,0,.034-.357,1.357,1.357,0,0,0-.709.4c-.352.372-.476.806-.371.968a.136.136,0,0,0,.084.022.374.374,0,0,0,.117-.023A1.5,1.5,0,0,0,56.314,34.115Z" transform="translate(116.393 392.716)" fill="#fff"/>
    <path id="Path_11818" data-name="Path 11818" d="M53.6,34.343c.118.418.391.713.569.719.012,0,.063-.025.09-.129a1.212,1.212,0,0,0-.373-1.057.962.962,0,0,0-.255-.195A1.016,1.016,0,0,0,53.6,34.343Z" transform="translate(117.195 392.753)" fill="#fff"/>
    <path id="Path_11819" data-name="Path 11819" d="M55.865,31.928a.124.124,0,0,0,.031,0,.253.253,0,0,0,.159-.07,1.416,1.416,0,0,0,.419-1.221,1.031,1.031,0,0,0-.1-.348,1.267,1.267,0,0,0-.517.6C55.662,31.362,55.706,31.809,55.865,31.928Z" transform="translate(116.156 394.378)" fill="#fff"/>
    <path id="Path_11820" data-name="Path 11820" d="M54.439,32.547a.221.221,0,0,0,.059-.008c.011-.008.049-.044.034-.148a1.271,1.271,0,0,0-.74-.872,1.025,1.025,0,0,0-.311-.1,1.032,1.032,0,0,0,.217.627A1.145,1.145,0,0,0,54.439,32.547Z" transform="translate(117.232 393.838)" fill="#fff"/>
    <path id="Path_11821" data-name="Path 11821" d="M55.216,29.114h.006c.024,0,.088-.01.16-.107a1.384,1.384,0,0,0,.087-1.277,1.061,1.061,0,0,0-.19-.317,1.217,1.217,0,0,0-.342.7C54.87,28.611,55.031,29.036,55.216,29.114Z" transform="translate(116.541 395.759)" fill="#fff"/>
    <path id="Path_11822" data-name="Path 11822" d="M52.9,29.858a1.35,1.35,0,0,0,.76.325.3.3,0,0,0,.145-.03c.008-.011.034-.054-.005-.15a1.332,1.332,0,0,0-.947-.677,1.043,1.043,0,0,0-.247-.03c-.028,0-.054,0-.079,0A1.071,1.071,0,0,0,52.9,29.858Z" transform="translate(117.689 394.856)" fill="#fff"/>
    <path id="Path_11823" data-name="Path 11823" d="M53.206,25.549c.095.491.384.853.589.875.014,0,.08-.022.122-.146a1.384,1.384,0,0,0-.325-1.243,1.12,1.12,0,0,0-.283-.25A1.167,1.167,0,0,0,53.206,25.549Z" transform="translate(117.375 397.019)" fill="#fff"/>
    <path id="Path_11824" data-name="Path 11824" d="M51.623,27.816a1.624,1.624,0,0,0,.6.125.519.519,0,0,0,.359-.1c0-.012.014-.061-.054-.141a1.384,1.384,0,0,0-1.077-.382H51.4a1.071,1.071,0,0,0-.317.066A1.139,1.139,0,0,0,51.623,27.816Z" transform="translate(118.381 395.803)" fill="#fff"/>
    <path id="Path_11825" data-name="Path 11825" d="M50.706,23.74c.2.458.547.741.753.741h.018c.014-.006.073-.037.086-.166a1.421,1.421,0,0,0-.6-1.153,1.175,1.175,0,0,0-.334-.189A1.169,1.169,0,0,0,50.706,23.74Z" transform="translate(118.615 397.888)" fill="#fff"/>
    <path id="Path_11826" data-name="Path 11826" d="M49.6,26.19a1.819,1.819,0,0,0,.329.031.777.777,0,0,0,.612-.191c0-.014,0-.063-.085-.128a1.214,1.214,0,0,0-.734-.2,2.058,2.058,0,0,0-.449.052,1.037,1.037,0,0,0-.294.126A1.191,1.191,0,0,0,49.6,26.19Z" transform="translate(119.391 396.581)" fill="#fff"/>
    <path id="Path_11827" data-name="Path 11827" d="M47.675,23.532a1.5,1.5,0,0,0,.879.4.323.323,0,0,0,.154-.031c.01-.011.047-.061,0-.181a1.53,1.53,0,0,0-1.057-.816,1.252,1.252,0,0,0-.321-.044l-.064,0A1.224,1.224,0,0,0,47.675,23.532Z" transform="translate(120.211 397.94)" fill="#fff"/>
    <path id="Path_11828" data-name="Path 11828" d="M47.435,43.975c.072,0,.147,0,.223-.01a1.211,1.211,0,0,0,.367-.1,1.324,1.324,0,0,0-.658-.459,1.944,1.944,0,0,0-.6-.1.688.688,0,0,0-.5.145c0,.014-.015.074.075.166A1.525,1.525,0,0,0,47.435,43.975Z" transform="translate(120.695 388.14)" fill="#fff"/>
    <path id="Path_11829" data-name="Path 11829" d="M46.091,42.141a.141.141,0,0,0,.108.033.368.368,0,0,0,.057,0,1.346,1.346,0,0,0,.908-.724.892.892,0,0,0,.095-.288,1.21,1.21,0,0,0-.669.225C46.221,41.641,46.033,41.986,46.091,42.141Z" transform="translate(120.781 389.168)" fill="#fff"/>
    <path id="Path_11830" data-name="Path 11830" d="M10.756,46.493H47.448V17.09H10.756ZM46.305,18.232V45.351H11.9V18.232Z" transform="translate(137.721 400.709)" fill="#fff"/>
    <rect id="Rectangle_2904" data-name="Rectangle 2904" width="27.687" height="0.687" transform="translate(152.984 433.833)" fill="#fff"/>
    <rect id="Rectangle_2905" data-name="Rectangle 2905" width="27.687" height="0.687" transform="translate(152.984 436.165)" fill="#fff"/>
    <rect id="Rectangle_2906" data-name="Rectangle 2906" width="27.687" height="0.688" transform="translate(152.984 438.495)" fill="#fff"/>
    <rect id="Rectangle_2907" data-name="Rectangle 2907" width="16.065" height="0.687" transform="translate(152.984 440.826)" fill="#fff"/>
    <path id="Path_11831" data-name="Path 11831" d="M67.053,64.832l1.408-1.118c.29-.231-.088-.712-.395-.511-.527.347-1.02.745-1.514,1.137h.461c-.494-.392-.987-.79-1.515-1.137-.306-.2-.684.281-.395.511l1.408,1.118v-.461c-.476.382-.966.759-1.408,1.181-.311.3.141.714.461.461l1.449-1.149h-.461L68,66.013c.32.253.771-.163.461-.461-.442-.422-.932-.8-1.408-1.181-.324-.26-.788.2-.461.461.476.382.966.759,1.408,1.181l.461-.461L67.013,64.4a.34.34,0,0,0-.461,0L65.1,65.553l.461.461c.442-.422.932-.8,1.408-1.181a.325.325,0,0,0,0-.461l-1.408-1.118-.395.511c.481.316.932.677,1.382,1.035a.34.34,0,0,0,.461,0c.45-.358.9-.719,1.381-1.035L68,63.254l-1.408,1.118C66.264,64.633,66.727,65.09,67.053,64.832Z" transform="translate(111.709 378.62)" fill="#fff"/>
    <path id="Path_11832" data-name="Path 11832" d="M6.513,46.653H47.622V13.189H6.513ZM46.342,14.489V45.354H7.793V14.489Z" transform="translate(139.754 402.579)" fill="#fff"/>
  </g>
</svg>
