<svg xmlns="http://www.w3.org/2000/svg" width="41.211" height="39.305" viewBox="0 0 41.211 39.305">
  <g id="Group_16992" data-name="Group 16992" transform="translate(-405 -417)">
    <rect id="Rectangle_2903" data-name="Rectangle 2903" width="41" height="32" rx="3" transform="translate(405 417)" fill="#08143e"/>
    <path id="Path_11786" data-name="Path 11786" d="M17207.891-83.481l-.99,4.119-4.73.309-.34,1.636h19.949l-.729-1.945h-4.922l-.959-4.7Z" transform="translate(-16786 533)" fill="#08143e"/>
    <path id="Path_11763" data-name="Path 11763" d="M41.389,4.946H5.692A2.7,2.7,0,0,0,3,7.638V35.083a2.7,2.7,0,0,0,2.692,2.692H19.153l-.876,3.4h-3.71a1.446,1.446,0,0,0-1.076.413,2.468,2.468,0,0,0-.467,1.831c0,.075,0,.147,0,.215a.62.62,0,0,0,.62.62H33.433a.62.62,0,0,0,.62-.62c0-.068,0-.141,0-.215a2.466,2.466,0,0,0-.467-1.831,1.446,1.446,0,0,0-1.076-.413H28.8l-.876-3.4H41.388a2.7,2.7,0,0,0,2.692-2.692V7.638A2.694,2.694,0,0,0,41.389,4.946ZM32.705,42.453a1.035,1.035,0,0,1,.112.559H14.264a1.045,1.045,0,0,1,.112-.559.31.31,0,0,1,.191-.042H32.514A.31.31,0,0,1,32.705,42.453Zm-5.181-1.281H19.557l.876-3.4h6.215Zm15.317-6.089a1.455,1.455,0,0,1-1.453,1.453H5.692a1.455,1.455,0,0,1-1.453-1.453V7.638A1.455,1.455,0,0,1,5.692,6.185h35.7a1.455,1.455,0,0,1,1.453,1.453V35.083ZM41.018,7.526H6.063a.62.62,0,0,0-.62.62v26.43a.62.62,0,0,0,.62.62H41.018a.62.62,0,0,0,.62-.62V8.146A.62.62,0,0,0,41.018,7.526Zm-.62,26.43H6.683V8.765H40.4v25.19ZM12.3,26.03,22.562,29.1l.011,0,.056.012.028.005a.653.653,0,0,0,.067.005h.016a.614.614,0,0,0,.1-.009L34.73,27.181h0l.667-.109a.62.62,0,1,0-.2-1.223l-.322.052a3.044,3.044,0,0,1-.089-3.75l.608-.1H35.4a.645.645,0,0,0,.08-.02l.019-.006a.591.591,0,0,0,.08-.034l.005,0a.613.613,0,0,0,.072-.045l.011-.008a.622.622,0,0,0,.064-.055l.014-.014A.673.673,0,0,0,35.8,21.8l.005-.009a.636.636,0,0,0,.042-.07l.008-.015a.66.66,0,0,0,.033-.084l0-.007s0-.009,0-.013.006-.024.009-.036,0-.017.005-.026,0-.022,0-.033,0-.02,0-.031,0-.019,0-.028,0-.024,0-.036v-.024c0-.013,0-.026,0-.039V21.34s0-.007,0-.01-.005-.025-.008-.037l-.006-.025c0-.01-.006-.021-.01-.031l-.01-.029c0-.008-.007-.016-.011-.025l-.015-.031-.012-.022-.017-.029-.016-.023-.018-.025-.021-.025-.017-.019-.027-.026-.016-.014-.031-.025-.016-.012-.032-.021L35.6,20.9l-.029-.015-.027-.013-.025-.01-.035-.012-.01,0L28.99,18.9v-2.3l2.791-.688,0,1.132-.465,1.377a.786.786,0,0,0,.135.818.824.824,0,0,0,.639.259,1.714,1.714,0,0,0,.315-.032.969.969,0,0,0,.933-.226.8.8,0,0,0,.14-.818h0l-.459-1.378,0-1.924a.608.608,0,0,0-.008-.092c0-.005,0-.011,0-.016a.617.617,0,0,0-.022-.088l0-.013a.6.6,0,0,0-.088-.162l-.009-.012a.656.656,0,0,0-.059-.064l-.013-.011a.644.644,0,0,0-.071-.056l-.006,0a.649.649,0,0,0-.08-.044l-.008,0a.6.6,0,0,0-.09-.031l-.007,0L23.7,12.286a.617.617,0,0,0-.3,0l-8.864,2.24a.62.62,0,0,0,0,1.2l3.557.877V18.87l-5.711.933a.62.62,0,0,0-.066.014l-.016,0-.039.013-.021.008-.031.014-.023.011-.027.016-.022.013-.028.019-.018.014-.032.027-.011.01a.607.607,0,0,0-.076.087l-.008.012c-.008.011-.016.023-.023.036s-.008.016-.012.023-.009.015-.012.023l0,.008,0,0a5.5,5.5,0,0,0,.041,5.61A.616.616,0,0,0,12.3,26.03Zm6.169-5.476A12.768,12.768,0,0,0,23.6,21.681a12,12,0,0,0,5.03-1.132.618.618,0,0,0,.327-.362l3.588,1.075-9.761,1.594-7.552-2.261,2.881-.47A.62.62,0,0,0,18.464,20.554Zm-5.646.612,9.076,2.717a5.631,5.631,0,0,0-.274,3.645l-8.739-2.616A4.134,4.134,0,0,1,12.818,21.166Zm20.714,4.954L23.065,27.83a4.269,4.269,0,0,1,.1-3.781L33.277,22.4A4.023,4.023,0,0,0,33.532,26.121ZM23.547,13.527l6.294,1.593-6.3,1.554-6.3-1.553Zm-.155,4.387a.627.627,0,0,0,.3,0l4.061-1v2.668a10.574,10.574,0,0,1-8.418-.007V16.913Zm5.828,7a.62.62,0,0,1-.512.712l-3.831.625a.629.629,0,0,1-.1.008.62.62,0,0,1-.1-1.232l3.831-.625A.619.619,0,0,1,29.22,24.912Zm3.233-.528a.62.62,0,0,1-.512.712l-1.639.267a.629.629,0,0,1-.1.008.62.62,0,0,1-.1-1.232l1.639-.267A.619.619,0,0,1,32.453,24.384Z" transform="translate(402.131 412.054)" fill="#fff"/>
  </g>
</svg>
