<svg xmlns="http://www.w3.org/2000/svg" width="35.531" height="44.267" viewBox="0 0 35.531 44.267">
  <g id="Group_16995" data-name="Group 16995" transform="translate(-407.907 -484)">
    <circle id="Ellipse_195" data-name="Ellipse 195" cx="11" cy="11" r="11" transform="translate(419 494)" fill="#08143e"/>
    <path id="Path_11787" data-name="Path 11787" d="M17194.787-19.02h2.281l.8,1.65,2.826-.246v1.4l5.555-.241,3.008,1.815,8.4.579,1.3.7V-12.1l8.488-4.113,1.412.721v1.431l-14.848,8.819-10.262-2.574h-3.059v1.277h-1.736l-.463,1.3h-4.336Z" transform="translate(-16786 533)" fill="#08143e"/>
    <path id="Path_11762" data-name="Path 11762" d="M27.256,38.719h7.6a.862.862,0,0,0-.012-1.724H25.47a.609.609,0,0,1-.111-1.207L23.47,34.7a1.591,1.591,0,0,0-.389-.164,1.493,1.493,0,0,0-.417-.048l-4.092.025v3.142L18.62,42l1.911-.02a2.757,2.757,0,0,1,.364.014,3.13,3.13,0,0,1,.36.07L30.9,44.524,44.97,36.4a.852.852,0,0,0,.4-.524.869.869,0,0,0-.082-.656h0a.852.852,0,0,0-.524-.4.866.866,0,0,0-.658.084l-8.041,4.643-.032.02A.142.142,0,0,0,36,39.58a2.074,2.074,0,0,1-1.114.355h-.034l-.1.005c-.037,0-.084,0-.137,0l-1.56-.011H25.474a.6.6,0,0,1-.44-.171.605.605,0,0,1,0-.872.6.6,0,0,1,.44-.171Zm9.357-28.047a.608.608,0,1,1-1.216,0V4.1a.608.608,0,1,1,1.216,0Zm6.572,2.12v0a.614.614,0,0,1-.173.44.605.605,0,0,1-.435.184.606.606,0,0,1-.608-.624V6.219a.608.608,0,0,1,1.216,0Zm-14.557-4.1a.608.608,0,1,1-1.216,0V2.12a.608.608,0,1,1,1.216,0ZM23.4,13.781a.607.607,0,1,1-1.214,0V7.209a.607.607,0,1,1,1.214,0Zm9.286-2.569a11.4,11.4,0,1,1-8.059,3.338,11.4,11.4,0,0,1,8.059-3.338Zm7.205,4.2a10.191,10.191,0,1,0,2.981,7.2,10.194,10.194,0,0,0-2.981-7.2Zm-7.205-.927a8.127,8.127,0,1,1-5.75,2.382,8.122,8.122,0,0,1,5.75-2.382Zm4.891,3.24h0A6.92,6.92,0,1,0,39.6,22.613a6.923,6.923,0,0,0-2.024-4.891ZM12,30.815h2.519a.894.894,0,0,1,.638.266.953.953,0,0,1,.273.6l.048.524h2.177a.916.916,0,0,1,.647.267v0a.931.931,0,0,1,.271.647v.189l4.087-.025v0a2.813,2.813,0,0,1,.733.086,2.926,2.926,0,0,1,.681.284L27.24,35.47v0a3.159,3.159,0,0,1,.342.226c.034.027.066.053.1.084h7.161a2.084,2.084,0,0,1,2.068,1.878l6.59-3.8a2.073,2.073,0,0,1,2.8.7.634.634,0,0,1,.068.116,2.074,2.074,0,0,1-.793,2.778L31.286,45.7a.6.6,0,0,1-.449.061l-9.878-2.519a1.6,1.6,0,0,0-.205-.039,1.4,1.4,0,0,0-.212-.012l-1.97.02v.2l0,0a.921.921,0,0,1-.218.587.566.566,0,0,1-.053.061.9.9,0,0,1-.647.269H16.587l.037.414h0a.58.58,0,0,1,.005.078.883.883,0,0,1-.266.626.95.95,0,0,1-.569.26.828.828,0,0,1-.084.007H12a.922.922,0,0,1-.917-.92V31.733a.912.912,0,0,1,.269-.647l0,0A.911.911,0,0,1,12,30.815Zm3.589,2.6.886,9.7h.884v-9.7Zm-1.346-1.385H12.3V44.5h3.088Zm1.171,12.822v-.018c0,.016.005.036,0,.02Z" transform="translate(396.824 482.488)" fill="#fff"/>
    <path id="Icon_awesome-rupee-sign" data-name="Icon awesome-rupee-sign" d="M4.99,3.287a.194.194,0,0,0,.194-.194V2.444A.194.194,0,0,0,4.99,2.25H.194A.194.194,0,0,0,0,2.444v.725a.194.194,0,0,0,.194.194H1.576a1.169,1.169,0,0,1,.988.441H.194A.194.194,0,0,0,0,4v.648a.194.194,0,0,0,.194.194H2.766a1.12,1.12,0,0,1-1.211.95H.194A.194.194,0,0,0,0,5.986v.859a.194.194,0,0,0,.063.143L2.736,9.456a.194.194,0,0,0,.132.052H4.206a.194.194,0,0,0,.132-.337L1.893,6.914A2.219,2.219,0,0,0,4.134,4.842H4.99a.194.194,0,0,0,.194-.194V4a.194.194,0,0,0-.194-.194H4.039a2.219,2.219,0,0,0-.231-.518Z" transform="translate(427.369 499.741)" fill="#fff"/>
  </g>
</svg>
