<svg xmlns="http://www.w3.org/2000/svg" width="23.797" height="39.374" viewBox="0 0 23.797 39.374">
  <g id="Group_16997" data-name="Group 16997" transform="translate(-675.415 -416.98)">
    <path id="Path_11834" data-name="Path 11834" d="M18506.234,35.993l10.777.965,11.773-.965-.879-6.619-3.8-3.841-6.641-1.309V21.977l3.754-1.32,1.7-4.727-2.4-3.508-4.035-.612-2.895,1.874-.922,2.247.922,2.963,1.59,2.34,1.75.744.539,2.844-3.094-.333-4.156,1.779-2.5,2.85-1.484,3.508Z" transform="translate(-17830.238 418.932)" fill="#08143e"/>
    <path id="Path_11833" data-name="Path 11833" d="M15.651,13.987h-.626V12.659a5.636,5.636,0,1,0-1.252,0v1.315h-.626A10.653,10.653,0,0,0,2.5,24.62v1.252a.626.626,0,1,0,1.252,0V24.62a9.4,9.4,0,0,1,9.393-9.393h2.5a9.4,9.4,0,0,1,9.393,9.393v1.252a.626.626,0,1,0,1.252,0V24.62A10.65,10.65,0,0,0,15.651,13.987ZM10.015,7.1A4.384,4.384,0,1,1,14.4,11.482,4.388,4.388,0,0,1,10.015,7.1Z" transform="translate(672.916 428.668)" fill="#fff"/>
    <path id="Polygon_13" data-name="Polygon 13" d="M4.116,0l1.4,2.368,2.717.58L6.381,4.992l.28,2.726-2.544-1.1-2.544,1.1.28-2.726L0,2.948l2.717-.58Z" transform="translate(683.262 417.733)" fill="#08143e"/>
    <path id="Polygon_12" data-name="Polygon 12" d="M2.573,0l.875,1.421,1.7.348L3.988,2.995l.175,1.636-1.59-.663-1.59.663.175-1.636L0,1.769l1.7-.348Z" transform="translate(676.059 424.421)" fill="#08143e"/>
    <path id="Polygon_14" data-name="Polygon 14" d="M2.573,0l.875,1.421,1.7.348L3.988,2.995l.175,1.636-1.59-.663-1.59.663.175-1.636L0,1.769l1.7-.348Z" transform="translate(693.551 424.421)" fill="#08143e"/>
    <path id="Path_11764" data-name="Path 11764" d="M13.733,26.36Zm-1.707-9.138-.2,2.49a.6.6,0,0,0,.246.535.584.584,0,0,0,.583.062l2.191-.957,2.307.962a.6.6,0,0,0,.821-.608l-.232-2.377,1.63-1.9a.6.6,0,0,0-.325-.968L16.71,13.95l-1.3-2.134a.595.595,0,0,0-1.022.008l-1.208,2.06-2.431.577a.585.585,0,0,0-.43.4.591.591,0,0,0,.122.575Zm1.449-2.544a.586.586,0,0,0,.376-.277l1.056-1.8,1.141,1.874a.581.581,0,0,0,.379.272l2.035.447-1.429,1.664a.582.582,0,0,0-.142.447l.2,2.074-2.029-.846a.584.584,0,0,0-.464.006l-1.91.835.178-2.191a.589.589,0,0,0-.147-.439l-1.384-1.559Zm-4.516,5.3-1.483-.325L6.65,18.288a.537.537,0,0,0-.467-.258h0a.531.531,0,0,0-.453.266L4.963,19.6l-1.548.368a.534.534,0,0,0-.277.875l1.008,1.135-.13,1.585a.538.538,0,0,0,.75.535l1.39-.608,1.469.614a.512.512,0,0,0,.2.04.537.537,0,0,0,.32-.108.526.526,0,0,0,.212-.481l-.147-1.511,1.039-1.208a.533.533,0,0,0-.292-.866ZM7.491,21.6a.518.518,0,0,0-.125.4l.11,1.132-1.121-.467a.512.512,0,0,0-.2-.04.5.5,0,0,0-.212.045L4.9,23.128l.1-1.206a.531.531,0,0,0-.133-.4l-.756-.852,1.177-.28a.521.521,0,0,0,.34-.252l.575-.982.631,1.039a.519.519,0,0,0,.34.241l1.112.243Zm19.282-1.276a.531.531,0,0,0-.393-.354L24.9,19.647l-.826-1.358a.537.537,0,0,0-.467-.258h0a.531.531,0,0,0-.453.266L22.383,19.6l-1.548.368a.54.54,0,0,0-.388.359.532.532,0,0,0,.11.515l1.008,1.135-.13,1.588a.538.538,0,0,0,.75.532l1.39-.608,1.469.614a.512.512,0,0,0,.2.04.537.537,0,0,0,.532-.589l-.147-1.511,1.036-1.206A.515.515,0,0,0,26.773,20.326Zm-1.865,1.282a.524.524,0,0,0-.122.4l.11,1.132-1.121-.467a.512.512,0,0,0-.2-.04.5.5,0,0,0-.212.045l-1.044.456.1-1.2a.517.517,0,0,0-.133-.4l-.756-.852,1.177-.28a.521.521,0,0,0,.34-.252l.575-.982.628,1.033a.526.526,0,0,0,.342.246l1.112.243Z" transform="translate(672.412 405.451)" fill="#fff"/>
    <g id="Path_11835" data-name="Path 11835" transform="translate(677.947 444.78)" fill="none">
      <path d="M9.511,0c5.265,0,9.447,2.714,9.447,7.759s-4.767,3.632-9.533,3.632S-.109,12.805-.109,7.759,4.246,0,9.511,0Z" stroke="none"/>
      <path d="M 9.510958671569824 0.999995231628418 C 7.060968399047852 0.999995231628418 4.864458084106445 1.634915351867676 3.326048851013184 2.787785530090332 C 1.732778549194336 3.981765747070312 0.8906288146972656 5.700945377349854 0.8906288146972656 7.759455680847168 C 0.8906288146972656 9.291355133056641 1.38555908203125 9.79926586151123 1.757839202880859 10.04803562164307 C 2.294809341430664 10.4068660736084 3.169248580932617 10.57399559020996 4.509748458862305 10.57399559020996 C 5.201968193054199 10.57399559020996 5.950778007507324 10.53275585174561 6.743548393249512 10.48908615112305 C 7.612598419189453 10.44122505187988 8.511238098144531 10.39172554016113 9.424068450927734 10.39172554016113 C 10.33706855773926 10.39172554016113 11.23565864562988 10.44122505187988 12.10466861724854 10.48908615112305 C 12.89736843109131 10.53275585174561 13.64609909057617 10.57399559020996 14.33838844299316 10.57399559020996 C 15.67867851257324 10.57399559020996 16.55306816101074 10.40683555603027 17.09014892578125 10.04792594909668 C 17.46249771118164 9.799105644226074 17.9575080871582 9.291165351867676 17.9575080871582 7.759455680847168 C 17.9575080871582 5.658175468444824 17.16409873962402 3.982995986938477 15.59932899475098 2.780455589294434 C 14.10532855987549 1.632305145263672 11.9430980682373 0.999995231628418 9.510958671569824 0.999995231628418 M 9.510958671569824 -4.76837158203125e-06 C 14.77613830566406 -4.76837158203125e-06 18.9575080871582 2.713665962219238 18.9575080871582 7.759455680847168 C 18.9575080871582 12.80525493621826 14.19078826904297 11.39172554016113 9.424068450927734 11.39172554016113 C 4.657347679138184 11.39172554016113 -0.1093711853027344 12.80525493621826 -0.1093711853027344 7.759455680847168 C -0.1093711853027344 2.713665962219238 4.24578857421875 -4.76837158203125e-06 9.510958671569824 -4.76837158203125e-06 Z" stroke="none" fill="#fff"/>
    </g>
  </g>
</svg>
