<svg xmlns="http://www.w3.org/2000/svg" width="52.208" height="36.883" viewBox="0 0 52.208 36.883">
  <g id="Group_16996" data-name="Group 16996" transform="translate(-661.211 -491.385)">
    <path id="Path_11785" data-name="Path 11785" d="M17493.994-9.059s1.541,2.554,4.115,1.386-.982-4.48-1.25-4.48-7.059-7.228-7.059-7.228l-2.52-1.2-.412-.678,2.016-4.743.445-3.911-1.387-4.537-2.119-3.075-4.42-2.736-4.852-.9-6.037,1.976-3.191,2.671-5.594-.26-10.492.26-3.135,2.593v3.08l1.859,3.145,2.043.569v1.125l-.768.9v1.535h1.42l.531,2.005-.531,2.658-1.42.668v1.6l.768.3v1.688L17449.092-13l-.988,3.535,1.313,3.053,2.336.968h29.652V-7.117l-1.586-1.1v-3.934l1.307-.324v-1.659l-1.65-.256v-1.95l4.979-2.308,2.416,2-.377.838Z" transform="translate(-16786 533)" fill="#08143e"/>
    <path id="Path_11765" data-name="Path 11765" d="M42.4,38.534a9.511,9.511,0,1,0,0-13.458,9.451,9.451,0,0,0,0,13.458Zm.9-12.554a8.234,8.234,0,1,1,0,11.653,8.181,8.181,0,0,1,0-11.653Z" transform="translate(642.047 472.453)" fill="#fff"/>
    <path id="Path_11766" data-name="Path 11766" d="M53.4,46.281l-8.347-8.347a.654.654,0,0,0-.9,0l-.034.036L42.54,36.4A12.881,12.881,0,0,0,22.892,19.884c-.2.2-.381.4-.561.6H7.263a5.224,5.224,0,1,0,0,10.447H19.269c.03.2.062.391.1.585H5.86a.637.637,0,0,0-.638.638v1.907a.637.637,0,0,0,.638.638h.931a3.027,3.027,0,0,1-.04,4.082H5.86a.637.637,0,0,0-.638.638v1.907a.637.637,0,0,0,.638.638H32.4a.633.633,0,0,0,.378-.128,12.748,12.748,0,0,0,6.62-2.311L40.978,41.1l-.034.034a.638.638,0,0,0,0,.9l8.345,8.347a2.9,2.9,0,0,0,4.11-4.1ZM32,17.391a11.6,11.6,0,1,1-6.053,21.5l-.011-.006a11.709,11.709,0,0,1-2.145-1.69,11.568,11.568,0,0,1-2.347-3.376.1.1,0,0,0-.006-.015,11.456,11.456,0,0,1-.634-1.763.765.765,0,0,0-.026-.094,11.729,11.729,0,0,1-.381-2.959,11.571,11.571,0,0,1,1.433-5.6.334.334,0,0,0,.03-.053A11.6,11.6,0,0,1,32,17.39ZM7.263,29.658a3.948,3.948,0,1,1,0-7.9H21.339c-.14.208-.276.417-.406.631-1.009,1.95-1.447,2.892-1.809,6.633,0,.213.006.423.017.631ZM6.5,32.8H19.69c.066.213.136.423.213.631H6.5ZM8.328,34.7H20.451a12.872,12.872,0,0,0,2.439,3.4c.24.24.489.466.744.685H8.275A4.174,4.174,0,0,0,8.328,34.7ZM6.5,40.061H25.4a12.472,12.472,0,0,0,1.2.631H6.5Zm33.917-1.322c.236-.2.47-.417.693-.64s.434-.455.64-.693l1.465,1.465L41.881,40.2Zm12.08,10.749a1.669,1.669,0,0,1-2.3,0l-7.892-7.9,2.3-2.3,7.9,7.9a1.627,1.627,0,0,1,0,2.3Z" transform="translate(659.172 475.268)" fill="#fff"/>
    <path id="Path_11767" data-name="Path 11767" d="M36.166,64.688H7.263a5.224,5.224,0,1,0,0,10.447H36.169a.637.637,0,0,0,.638-.638V72.591a.637.637,0,0,0-.638-.638h-.931c-.436-.506-.127-4.016,0-4.082a4.376,4.376,0,0,1,.931,0,.637.637,0,0,0,.638-.638V65.326a.642.642,0,0,0-.64-.638Zm-.638,9.174H7.263a3.948,3.948,0,1,1,0-7.9H35.531V66.99a7.175,7.175,0,0,1-1.279,0v5.935h1.279Z" transform="translate(659.172 453.132)" fill="#fff"/>
    <path id="Path_11768" data-name="Path 11768" d="M53.083,40.121a.64.64,0,0,0,.436.172c.026,0,.053,0,.079,0A.635.635,0,0,0,54.055,40l4.167-6.449a.638.638,0,1,0-1.072-.693L53.4,38.669l-3.064-2.857a.638.638,0,0,0-.87.933Z" transform="translate(637.652 467.77)" fill="#fff"/>
  </g>
</svg>
