<svg xmlns="http://www.w3.org/2000/svg" xmlns:xlink="http://www.w3.org/1999/xlink" version="1.1"
                          id="Layer_1" x="0px" y="0px" viewBox="0 0 150 150" enable-background="new 0 0 150 150"
                          xml:space="preserve">
                          <g>
                            <g>
                              <rect x="0" fill="none" width="150" height="150"></rect>
                            </g>
                            <g>
                              <rect x="10" y="10" fill="none" width="130" height="130"></rect>
                            </g>
                          </g>
                          <g>
                            <path
                              id="school_FILL0_wght700_GRAD0_opsz48_00000145042104303574214560000011647189117799309731_"
                              fill="#14223D"
                              d="M71,128.3   c-1.1,0-2.3-0.1-3.4-0.4c-1.2-0.3-2.3-0.7-3.4-1.3l-30.7-16.6c-2.3-1.2-4.1-3-5.4-5.2c-1.3-2.2-2-4.8-2-7.3V70.3l-12.7-6.7   c-1.2-0.6-2.1-1.5-2.7-2.7c-0.6-1.1-0.9-2.4-0.9-3.6c0-1.2,0.3-2.4,0.9-3.5c0.6-1.1,1.6-2,2.7-2.6l50.7-27.7c1-0.5,2.1-0.9,3.3-1.3   c1.1-0.3,2.3-0.5,3.5-0.5c1.2,0,2.3,0.2,3.5,0.5c1.2,0.3,2.3,0.8,3.4,1.3l58.5,31.8c1.1,0.7,2.1,1.6,2.7,2.8c0.6,1.1,1,2.3,1,3.5   v38.6c0,1.6-0.6,3.2-1.8,4.4c-2.5,2.3-6.3,2.3-8.8,0c-1.2-1.1-1.8-2.7-1.8-4.4V64.5l-11.8,5.8v27.3c0,2.6-0.7,5.1-2,7.3   c-1.3,2.2-3.2,4-5.4,5.2l-30.7,16.6c-1.1,0.6-2.2,1-3.3,1.3C73.2,128.2,72.1,128.3,71,128.3z M71,80.8l42.8-23.4L71,34.4l-42.5,23   L71,80.8z M71,116.4l32.4-17.9V77.6L77.7,91.3c-1,0.5-2.1,0.9-3.2,1.2C73.3,92.8,72.2,93,71,93c-1.2,0-2.3-0.1-3.4-0.4   c-1.1-0.3-2.1-0.7-3.1-1.2l-25.8-14v21.2L71,116.4z">
                            </path>
                          </g>
                        </svg>