<svg xmlns="http://www.w3.org/2000/svg" xmlns:xlink="http://www.w3.org/1999/xlink" width="174.274" height="73.656" viewBox="0 0 174.274 73.656">
  <defs>
    <clipPath id="clip-path">
      <rect id="Rectangle_2940" data-name="Rectangle 2940" width="36.052" height="73.656" transform="translate(0 0)" fill="#f4ae2a"/>
    </clipPath>
    <clipPath id="clip-path-2">
      <rect id="Rectangle_2940-2" data-name="Rectangle 2940" width="36.052" height="73.656" fill="#f4ae2a"/>
    </clipPath>
  </defs>
  <g id="Group_17321" data-name="Group 17321" transform="translate(-1779.863 564.017)">
    <g id="Group_17319" data-name="Group 17319" transform="translate(1918.085 -564.017)">
      <g id="Group_17318" data-name="Group 17318" transform="translate(0 0)" clip-path="url(#clip-path)">
        <path id="Path_11897" data-name="Path 11897" d="M223.976,219.666a5.789,5.789,0,0,0-1.153-.336q-.146-.027-.292-.046c-.1-.012-.2-.02-.294-.026a5.212,5.212,0,0,0-.581-.007,4.5,4.5,0,0,0-1.12.2,4.189,4.189,0,0,0-.509.2,3.959,3.959,0,0,0-.454.255,3.621,3.621,0,0,0-.4.3,3.427,3.427,0,0,0-.339.342,3.683,3.683,0,0,0-.806,1.643c.154.063.312.113.47.164a4.89,4.89,0,0,0,.482.13,6.631,6.631,0,0,0,.993.156q.126.01.254.013c.085,0,.169.007.255.008.17,0,.343-.007.516-.02a6.341,6.341,0,0,0,1.039-.162c.173-.042.343-.093.507-.149a4.992,4.992,0,0,0,.474-.185,4.814,4.814,0,0,0,.847-.49,3.6,3.6,0,0,0,1.174-1.41c-.169-.111-.341-.22-.52-.314s-.363-.181-.549-.26" transform="translate(-211.855 -213.033)" fill="#f4ae2a"/>
        <path id="Path_11898" data-name="Path 11898" d="M309.533,2.325a4.766,4.766,0,0,0,.181.5,5.35,5.35,0,0,0,.244.5c.091.168.192.337.3.5a7.977,7.977,0,0,0,.745.949c.136.149.276.3.423.437.073.07.148.138.224.206s.151.137.229.2a10.164,10.164,0,0,0,.979.733q.254.173.52.325c.178.1.355.2.538.3a3.124,3.124,0,0,0,.623-1.731,3.434,3.434,0,0,0-.106-1.022,4.363,4.363,0,0,0-.174-.539A4.892,4.892,0,0,0,314,3.135a5.573,5.573,0,0,0-.767-1.046,6.712,6.712,0,0,0-.486-.469c-.086-.075-.173-.15-.264-.221s-.184-.139-.279-.207A7.692,7.692,0,0,0,310.972.48c-.219-.1-.442-.188-.669-.271s-.46-.148-.692-.21a3.076,3.076,0,0,0-.2,1.835,4.291,4.291,0,0,0,.119.489" transform="translate(-300.591 0)" fill="#f4ae2a"/>
        <path id="Path_11899" data-name="Path 11899" d="M383.655,332.338a7.137,7.137,0,0,0,1.891.954,6.836,6.836,0,0,0,1.056.258,6.544,6.544,0,0,0,1.109.092q.283,0,.557-.028a5.2,5.2,0,0,0,.532-.073,4.992,4.992,0,0,0,.987-.3,3.772,3.772,0,0,0,1.542-1.164c-.147-.155-.3-.307-.458-.447s-.329-.273-.5-.4-.354-.236-.536-.342a5.718,5.718,0,0,0-.563-.282,5.074,5.074,0,0,0-2.374-.441,3.78,3.78,0,0,0-3.244,2.169" transform="translate(-372.785 -320.804)" fill="#f4ae2a"/>
        <path id="Path_11900" data-name="Path 11900" d="M544.762,108.188c.125.174.261.338.4.506s.279.327.428.482.3.312.455.459.314.294.48.431a3.3,3.3,0,0,0,1.053-1.624,3.638,3.638,0,0,0,.139-1.072,4.582,4.582,0,0,0-.047-.593,5.3,5.3,0,0,0-.138-.622A5.913,5.913,0,0,0,547,104.9a7.137,7.137,0,0,0-.826-1.165,8.284,8.284,0,0,0-2.339-1.854,3.257,3.257,0,0,0-.663,1.829,5.6,5.6,0,0,0,.37,2.244,9.076,9.076,0,0,0,1.215,2.233" transform="translate(-527.779 -98.996)" fill="#f4ae2a"/>
        <path id="Path_11901" data-name="Path 11901" d="M36.05,114.11a4.22,4.22,0,0,0-2.476.395,5.939,5.939,0,0,0-1.185.745c-.189.153-.382.318-.567.5s-.364.373-.543.579a11.369,11.369,0,0,0-1.737,2.784q-.181.406-.336.826a41.067,41.067,0,0,0,.605-5.721q.011-.307.016-.614a4.058,4.058,0,0,0,2.24-.39,4.657,4.657,0,0,0,1.093-.75,5.6,5.6,0,0,0,.5-.526,5.711,5.711,0,0,0,.459-.629,7.9,7.9,0,0,0,1.118-3.173,10.089,10.089,0,0,0-.167-3.6,4.033,4.033,0,0,0-2.231.846,5.852,5.852,0,0,0-.957.92,6.76,6.76,0,0,0-.428.572c-.136.2-.271.417-.395.643a9.723,9.723,0,0,0-.636,1.416q-.136.367-.24.745c-.069.251-.137.506-.189.763q-.11.518-.176,1.046-.053-1.707-.244-3.406-.164-1.413-.426-2.812a3.866,3.866,0,0,0,2.044-.8,4.309,4.309,0,0,0,.87-.908,5.141,5.141,0,0,0,.365-.586,6.2,6.2,0,0,0,.3-.673,7.5,7.5,0,0,0,.428-3.167,9.635,9.635,0,0,0-.853-3.314,3.816,3.816,0,0,0-1.908,1.217,5.338,5.338,0,0,0-.713,1.041,7.171,7.171,0,0,0-.53,1.29,10.03,10.03,0,0,0-.428,2.926,12.339,12.339,0,0,0,.062,1.261q-.175-.752-.379-1.5a38.242,38.242,0,0,0-1.5-4.4,3.672,3.672,0,0,0,1.78-1.148,4.235,4.235,0,0,0,.635-1.014,5.3,5.3,0,0,0,.377-1.3,7.172,7.172,0,0,0-.22-3.032,9.067,9.067,0,0,0-1.445-2.922,3.624,3.624,0,0,0-1.535,1.508,5.305,5.305,0,0,0-.458,1.109c-.059.2-.105.41-.147.628s-.073.443-.094.675a9.676,9.676,0,0,0,.173,2.8,11.474,11.474,0,0,0,.394,1.444,36.052,36.052,0,0,0-3.058-5.438l-.079-.114q.061.083.123.164a3.476,3.476,0,0,0,1.45-1.429,3.875,3.875,0,0,0,.389-1.068,4.847,4.847,0,0,0,.091-1.286,6.727,6.727,0,0,0-.816-2.782,8.674,8.674,0,0,0-1.944-2.436A3.441,3.441,0,0,0,21.4,83.737a5.075,5.075,0,0,0-.2,1.124,6.884,6.884,0,0,0,.042,1.261,9.4,9.4,0,0,0,.724,2.572,11.134,11.134,0,0,0,.948,1.726,33.045,33.045,0,0,0-3.51-4.159,30.224,30.224,0,0,0-4.725-3.873A27.532,27.532,0,0,0,9.255,79.6q-.219-.083-.439-.161a4.508,4.508,0,0,0-.272-.425,4.455,4.455,0,0,0-.363-.447q-.2-.214-.429-.417a5.458,5.458,0,0,0-.493-.378,6.43,6.43,0,0,0-2.5-1.01,6.416,6.416,0,0,0-2.692.085A5,5,0,0,0,0,77.907a7.81,7.81,0,0,0,1.9,1.217,9.457,9.457,0,0,0,2.319.72,9.418,9.418,0,0,0,2.426.126c.194-.014.388-.041.577-.067s.376-.061.561-.1.364-.085.541-.139c.159-.047.316-.1.469-.161q.221.082.441.168A27.427,27.427,0,0,1,14.6,82.506a30.05,30.05,0,0,1,4.653,3.9,32.79,32.79,0,0,1,3.419,4.144A6.607,6.607,0,0,0,21.32,89.21a5.832,5.832,0,0,0-1.124-.651,5.948,5.948,0,0,0-.6-.218,4.71,4.71,0,0,0-.614-.14,4.322,4.322,0,0,0-1.181-.034,3.868,3.868,0,0,0-1.05.264,4.033,4.033,0,0,0-1.619,1.217,7.64,7.64,0,0,0,1.733,1.444,7.272,7.272,0,0,0,2.154.875,6.269,6.269,0,0,0,1.146.149,5.177,5.177,0,0,0,1.083-.077,3.968,3.968,0,0,0,1.851-.847c-.024-.041-.049-.081-.073-.121l.043.063a35.733,35.733,0,0,1,2.966,5.423,6.906,6.906,0,0,0-.85-1.2A5.765,5.765,0,0,0,23,93.8a5.164,5.164,0,0,0-.609-.2,4.435,4.435,0,0,0-.6-.105,4.091,4.091,0,0,0-1.139.033,4.239,4.239,0,0,0-1.943.885A8.181,8.181,0,0,0,20.184,96.3a7.492,7.492,0,0,0,2.03,1.387,6.23,6.23,0,0,0,1.149.407,5.193,5.193,0,0,0,1.132.158,4.166,4.166,0,0,0,2.063-.454,37.847,37.847,0,0,1,1.436,4.373q.19.728.353,1.463a7.077,7.077,0,0,0-.514-1.106,6.13,6.13,0,0,0-1.912-2.078,5.009,5.009,0,0,0-1.18-.574,4.365,4.365,0,0,0-3.377.274,8.5,8.5,0,0,0,1.11,2.274,7.964,7.964,0,0,0,1.794,1.871q.266.2.543.365c.183.111.366.212.553.3a5.7,5.7,0,0,0,1.134.406,4.389,4.389,0,0,0,2.188-.016q.243,1.385.388,2.783.169,1.68.2,3.369a7.529,7.529,0,0,0-.253-1.015,7.07,7.07,0,0,0-.275-.714q-.159-.346-.347-.669a6.055,6.055,0,0,0-.9-1.168,5.338,5.338,0,0,0-.531-.47,5.218,5.218,0,0,0-.562-.374,4.551,4.551,0,0,0-1.172-.474,4.673,4.673,0,0,0-2.364.032,9.023,9.023,0,0,0,.655,2.584c.09.207.183.411.286.612s.219.4.337.592.251.383.389.568.282.365.438.54.315.339.48.492a6.457,6.457,0,0,0,.509.429,5.8,5.8,0,0,0,1.08.661,4.642,4.642,0,0,0,2.223.454q-.01.3-.023.605a40.461,40.461,0,0,1-.665,5.644,7.7,7.7,0,0,0-.041-.889,6.691,6.691,0,0,0-1.015-2.955,5.648,5.648,0,0,0-.449-.6,4.988,4.988,0,0,0-.5-.505,4.835,4.835,0,0,0-3.552-1.211,9.374,9.374,0,0,0,.122,2.785c.042.23.1.459.163.686s.135.453.218.676.171.444.274.663.21.433.333.645q.091.159.189.311c.064.1.129.2.2.3a6.87,6.87,0,0,0,.427.551,6.233,6.233,0,0,0,.963.918,5.314,5.314,0,0,0,1.095.648,4.6,4.6,0,0,0,1.05.317,38.356,38.356,0,0,1-1.2,3.835q-.417,1.122-.907,2.216c.055-.241.1-.483.13-.726a6.854,6.854,0,0,0-.337-3.262,5.278,5.278,0,0,0-1.68-2.353,5.029,5.029,0,0,0-1.146-.677,5.509,5.509,0,0,0-1.259-.364,9.716,9.716,0,0,0-.508,2.827,9.268,9.268,0,0,0,.381,2.927,8.147,8.147,0,0,0,.549,1.373,6.656,6.656,0,0,0,.756,1.174,5.247,5.247,0,0,0,1.912,1.515A34.337,34.337,0,0,1,21.1,136.1c.09-.177.174-.355.25-.537a6.925,6.925,0,0,0,.538-3.394,5.731,5.731,0,0,0-.38-1.55,5.256,5.256,0,0,0-1.727-2.247,5.944,5.944,0,0,0-1.193-.694,9.932,9.932,0,0,0-1.215,2.665,9.81,9.81,0,0,0-.374,3.012,8.192,8.192,0,0,0,.61,2.925,5.654,5.654,0,0,0,1.46,2.069,30.4,30.4,0,0,1-2.517,2.269,28.762,28.762,0,0,1-2.694,1.924q.157-.163.305-.331a7.51,7.51,0,0,0,.569-.735,7.806,7.806,0,0,0,.465-.787,7.287,7.287,0,0,0,.35-.828,6.569,6.569,0,0,0,.231-.856,5.534,5.534,0,0,0-.279-3.15,6.051,6.051,0,0,0-1.721-2.336q-.141.119-.274.245t-.267.251c-.171.175-.343.345-.5.533-.08.093-.16.183-.237.278s-.15.194-.225.29c-.149.193-.286.4-.422.6a10.467,10.467,0,0,0-1.256,2.808,9.2,9.2,0,0,0-.361,3.085,6.127,6.127,0,0,0,.692,2.536A25.78,25.78,0,0,1,5.918,145.9,24.941,24.941,0,0,1,0,146.577v1.14a26.049,26.049,0,0,0,6.17-.776,26.815,26.815,0,0,0,5.195-1.89,4.731,4.731,0,0,0,1.642,2.073,5.1,5.1,0,0,0,.692.41q.187.092.387.173t.411.144a6.314,6.314,0,0,0,.9.208,7.762,7.762,0,0,0,1,.084,9.713,9.713,0,0,0,4.3-1.008,11.637,11.637,0,0,0,1.042-.563c.172-.1.337-.212.5-.324s.331-.227.491-.348c.318-.244.635-.5.929-.769q.223-.2.438-.415t.414-.437a4.759,4.759,0,0,0-2.441-1.624,9.042,9.042,0,0,0-3.463-.285c-.32.03-.645.066-.961.119s-.64.109-.953.183-.631.149-.944.238-.62.188-.931.288q-.231.077-.458.163a29.7,29.7,0,0,0,2.776-2.03,31.307,31.307,0,0,0,2.565-2.366,4.586,4.586,0,0,0,2.156,1.351,5.777,5.777,0,0,0,3.319-.111,9.236,9.236,0,0,0,3.5-2.09,11.859,11.859,0,0,0,2.591-3.529,4.211,4.211,0,0,0-1.236-.613,5.147,5.147,0,0,0-1.422-.22,6.227,6.227,0,0,0-.761.033,7.375,7.375,0,0,0-.793.123,9.685,9.685,0,0,0-1.65.513,14.1,14.1,0,0,0-3.168,1.833q-.245.186-.484.381a35.146,35.146,0,0,0,3.668-5.612,4.436,4.436,0,0,0,2.355.678,5.066,5.066,0,0,0,1.46-.222,6.3,6.3,0,0,0,1.525-.711,8.776,8.776,0,0,0,2.658-2.718,11.243,11.243,0,0,0,1.515-3.777,4.072,4.072,0,0,0-1.281-.279,4.916,4.916,0,0,0-1.357.122,7.583,7.583,0,0,0-2.785,1.351,12.492,12.492,0,0,0-2.45,2.447q-.228.3-.441.607.485-1.118.9-2.265a39.04,39.04,0,0,0,1.174-3.918,4.3,4.3,0,0,0,1.078.21,4.23,4.23,0,0,0,1.28-.114,4.843,4.843,0,0,0,1.294-.53,5.874,5.874,0,0,0,.632-.434c.1-.082.209-.169.311-.26s.2-.189.3-.291a7.14,7.14,0,0,0,.569-.654q.265-.348.5-.733c.154-.257.3-.525.429-.8s.246-.565.354-.859a10.676,10.676,0,0,0,.6-3.76" transform="translate(0 -74.489)" fill="#f4ae2a"/>
      </g>
    </g>
    <g id="Group_17320" data-name="Group 17320" transform="translate(1779.863 -564.017)">
      <g id="Group_17318-2" data-name="Group 17318" transform="translate(0 0)" clip-path="url(#clip-path-2)">
        <path id="Path_11897-2" data-name="Path 11897" d="M219.1,219.666a5.79,5.79,0,0,1,1.153-.336q.146-.027.292-.046c.1-.012.2-.02.294-.026a5.212,5.212,0,0,1,.581-.007,4.5,4.5,0,0,1,1.12.2,4.193,4.193,0,0,1,.509.2,3.961,3.961,0,0,1,.454.255,3.622,3.622,0,0,1,.4.3,3.427,3.427,0,0,1,.339.342,3.683,3.683,0,0,1,.806,1.643c-.154.063-.312.113-.47.164a4.887,4.887,0,0,1-.482.13,6.631,6.631,0,0,1-.993.156q-.126.01-.254.013c-.085,0-.169.007-.255.008-.17,0-.343-.007-.516-.02a6.341,6.341,0,0,1-1.039-.162c-.173-.042-.343-.093-.507-.149a4.992,4.992,0,0,1-.474-.185,4.815,4.815,0,0,1-.847-.49,3.6,3.6,0,0,1-1.174-1.41c.169-.111.341-.22.52-.314s.363-.181.549-.26" transform="translate(-195.171 -213.033)" fill="#f4ae2a"/>
        <path id="Path_11898-2" data-name="Path 11898" d="M314.37,2.325a4.767,4.767,0,0,1-.181.5,5.32,5.32,0,0,1-.244.5c-.091.168-.192.337-.3.5a7.977,7.977,0,0,1-.745.949c-.136.149-.276.3-.423.437-.073.07-.148.138-.224.206s-.151.137-.229.2a10.164,10.164,0,0,1-.979.733q-.254.173-.52.325c-.178.1-.355.2-.538.3a3.124,3.124,0,0,1-.623-1.731,3.433,3.433,0,0,1,.106-1.022,4.363,4.363,0,0,1,.174-.539,4.882,4.882,0,0,1,.265-.546,5.573,5.573,0,0,1,.767-1.046,6.693,6.693,0,0,1,.486-.469c.086-.075.173-.15.264-.221s.184-.139.279-.207A7.693,7.693,0,0,1,312.93.48c.219-.1.442-.188.669-.271s.46-.148.692-.21a3.076,3.076,0,0,1,.2,1.835,4.29,4.29,0,0,1-.119.489" transform="translate(-287.259 0)" fill="#f4ae2a"/>
        <path id="Path_11899-2" data-name="Path 11899" d="M391.331,332.338a7.136,7.136,0,0,1-1.891.954,6.835,6.835,0,0,1-1.056.258,6.543,6.543,0,0,1-1.109.092q-.283,0-.557-.028a5.2,5.2,0,0,1-.532-.073,4.993,4.993,0,0,1-.987-.3,3.773,3.773,0,0,1-1.542-1.164c.147-.155.3-.307.458-.447s.329-.273.5-.4.354-.236.536-.342a5.718,5.718,0,0,1,.563-.282,5.074,5.074,0,0,1,2.374-.441,3.78,3.78,0,0,1,3.244,2.169" transform="translate(-366.149 -320.804)" fill="#f4ae2a"/>
        <path id="Path_11900-2" data-name="Path 11900" d="M546.121,108.188c-.125.174-.261.338-.4.506s-.279.327-.428.482-.3.312-.455.459-.314.294-.48.431a3.3,3.3,0,0,1-1.053-1.624,3.64,3.64,0,0,1-.139-1.072,4.571,4.571,0,0,1,.047-.593,5.283,5.283,0,0,1,.138-.622,5.913,5.913,0,0,1,.524-1.253,7.148,7.148,0,0,1,.826-1.165,8.285,8.285,0,0,1,2.339-1.854,3.256,3.256,0,0,1,.663,1.829,5.593,5.593,0,0,1-.37,2.244,9.078,9.078,0,0,1-1.215,2.233" transform="translate(-527.052 -98.996)" fill="#f4ae2a"/>
        <path id="Path_11901-2" data-name="Path 11901" d="M0,114.11a4.22,4.22,0,0,1,2.476.395,5.939,5.939,0,0,1,1.185.745c.189.153.382.318.567.5s.364.373.543.579A11.368,11.368,0,0,1,6.51,119.11q.181.406.336.826a41.067,41.067,0,0,1-.605-5.721q-.011-.307-.016-.614a4.058,4.058,0,0,1-2.24-.39,4.657,4.657,0,0,1-1.093-.75,5.6,5.6,0,0,1-.5-.526,5.711,5.711,0,0,1-.459-.629,7.9,7.9,0,0,1-1.118-3.173,10.089,10.089,0,0,1,.167-3.6,4.033,4.033,0,0,1,2.231.846,5.852,5.852,0,0,1,.957.92,6.76,6.76,0,0,1,.428.572c.136.2.271.417.395.643a9.722,9.722,0,0,1,.636,1.416q.136.367.24.745c.069.251.137.506.189.763q.11.518.176,1.046.053-1.707.244-3.406.164-1.413.426-2.812a3.866,3.866,0,0,1-2.044-.8,4.309,4.309,0,0,1-.87-.908,5.141,5.141,0,0,1-.365-.586,6.2,6.2,0,0,1-.3-.673A7.5,7.5,0,0,1,2.9,99.138a9.635,9.635,0,0,1,.853-3.314,3.816,3.816,0,0,1,1.908,1.217,5.338,5.338,0,0,1,.713,1.041,7.171,7.171,0,0,1,.53,1.29,10.03,10.03,0,0,1,.428,2.926,12.34,12.34,0,0,1-.062,1.261q.175-.752.379-1.5a38.242,38.242,0,0,1,1.5-4.4,3.672,3.672,0,0,1-1.78-1.148A4.235,4.235,0,0,1,6.733,95.5a5.3,5.3,0,0,1-.377-1.3,7.172,7.172,0,0,1,.22-3.032,9.067,9.067,0,0,1,1.445-2.922,3.624,3.624,0,0,1,1.535,1.508,5.305,5.305,0,0,1,.458,1.109c.059.2.105.41.147.628s.073.443.094.675a9.676,9.676,0,0,1-.173,2.8,11.474,11.474,0,0,1-.394,1.444,36.052,36.052,0,0,1,3.058-5.438l.079-.114q-.061.083-.123.164a3.476,3.476,0,0,1-1.45-1.429,3.875,3.875,0,0,1-.389-1.068,4.847,4.847,0,0,1-.091-1.286,6.727,6.727,0,0,1,.816-2.782,8.674,8.674,0,0,1,1.944-2.436,3.441,3.441,0,0,1,1.117,1.715,5.075,5.075,0,0,1,.2,1.124,6.884,6.884,0,0,1-.042,1.261,9.4,9.4,0,0,1-.724,2.572,11.133,11.133,0,0,1-.948,1.726,33.046,33.046,0,0,1,3.51-4.159,30.225,30.225,0,0,1,4.725-3.873A27.532,27.532,0,0,1,26.8,79.6q.219-.083.439-.161a4.508,4.508,0,0,1,.272-.425,4.456,4.456,0,0,1,.363-.447q.2-.214.429-.417a5.46,5.46,0,0,1,.493-.378,6.521,6.521,0,0,1,5.188-.925,5,5,0,0,1,2.072,1.058,7.81,7.81,0,0,1-1.9,1.217,9.776,9.776,0,0,1-4.745.846c-.194-.014-.388-.041-.577-.067s-.376-.061-.561-.1-.364-.085-.541-.139c-.159-.047-.316-.1-.469-.161q-.221.082-.441.168a27.427,27.427,0,0,0-5.374,2.838,30.05,30.05,0,0,0-4.653,3.9,32.79,32.79,0,0,0-3.419,4.144,6.607,6.607,0,0,1,1.354-1.344,5.832,5.832,0,0,1,1.124-.651,5.948,5.948,0,0,1,.6-.218,4.71,4.71,0,0,1,.614-.14,4.322,4.322,0,0,1,1.181-.034,3.868,3.868,0,0,1,1.05.264,4.033,4.033,0,0,1,1.619,1.217,7.64,7.64,0,0,1-1.733,1.444,7.273,7.273,0,0,1-2.154.875,6.269,6.269,0,0,1-1.146.149,5.177,5.177,0,0,1-1.083-.077,3.968,3.968,0,0,1-1.851-.847c.024-.041.049-.081.073-.121l-.043.063a35.733,35.733,0,0,0-2.966,5.423,6.905,6.905,0,0,1,.85-1.2A5.765,5.765,0,0,1,13.048,93.8a5.165,5.165,0,0,1,.609-.2,4.435,4.435,0,0,1,.6-.105,4.091,4.091,0,0,1,1.139.033,4.239,4.239,0,0,1,1.943.885A8.181,8.181,0,0,1,15.868,96.3a7.492,7.492,0,0,1-2.03,1.387,6.23,6.23,0,0,1-1.149.407,5.193,5.193,0,0,1-1.132.158A4.166,4.166,0,0,1,9.494,97.8a37.847,37.847,0,0,0-1.436,4.373q-.19.728-.353,1.463a7.076,7.076,0,0,1,.514-1.106,6.13,6.13,0,0,1,1.912-2.078,5.009,5.009,0,0,1,1.18-.574,4.365,4.365,0,0,1,3.377.274,8.5,8.5,0,0,1-1.11,2.274,7.964,7.964,0,0,1-1.794,1.871q-.266.2-.543.365c-.183.111-.366.212-.553.3a5.7,5.7,0,0,1-1.134.406,4.389,4.389,0,0,1-2.188-.016q-.243,1.385-.388,2.783-.169,1.68-.2,3.369a7.53,7.53,0,0,1,.253-1.015,7.069,7.069,0,0,1,.275-.714q.159-.346.347-.669a6.055,6.055,0,0,1,.9-1.168,5.337,5.337,0,0,1,.532-.47,5.217,5.217,0,0,1,.562-.374,4.551,4.551,0,0,1,1.172-.474,4.673,4.673,0,0,1,2.364.032,9.023,9.023,0,0,1-.655,2.584c-.09.207-.183.411-.286.612s-.219.4-.337.592-.251.383-.389.568-.282.365-.438.54-.315.339-.48.492a6.456,6.456,0,0,1-.509.429,5.8,5.8,0,0,1-1.08.661,4.642,4.642,0,0,1-2.223.454q.01.3.023.605a40.461,40.461,0,0,0,.665,5.644,7.694,7.694,0,0,1,.041-.889,6.691,6.691,0,0,1,1.015-2.955,5.649,5.649,0,0,1,.449-.6,4.988,4.988,0,0,1,.5-.505,4.835,4.835,0,0,1,3.552-1.211,9.374,9.374,0,0,1-.122,2.785c-.042.23-.1.459-.163.686s-.135.453-.218.676-.171.444-.274.663-.21.433-.333.645q-.091.159-.189.311c-.064.1-.129.2-.2.3a6.871,6.871,0,0,1-.427.551,6.234,6.234,0,0,1-.963.918,5.314,5.314,0,0,1-1.095.648,4.6,4.6,0,0,1-1.05.317,38.357,38.357,0,0,0,1.2,3.835q.417,1.122.907,2.216c-.055-.241-.1-.483-.13-.726a6.854,6.854,0,0,1,.337-3.262,5.278,5.278,0,0,1,1.68-2.353,5.029,5.029,0,0,1,1.146-.677,5.509,5.509,0,0,1,1.259-.364,9.716,9.716,0,0,1,.508,2.827,9.268,9.268,0,0,1-.381,2.927,8.147,8.147,0,0,1-.549,1.373,6.656,6.656,0,0,1-.756,1.174A5.247,5.247,0,0,1,11.3,130.66a34.336,34.336,0,0,0,3.643,5.436c-.09-.177-.174-.355-.25-.537a6.925,6.925,0,0,1-.538-3.394,5.731,5.731,0,0,1,.38-1.55,5.256,5.256,0,0,1,1.727-2.247,5.944,5.944,0,0,1,1.193-.694,9.931,9.931,0,0,1,1.215,2.665,9.81,9.81,0,0,1,.374,3.012,8.192,8.192,0,0,1-.61,2.925,5.654,5.654,0,0,1-1.46,2.069,30.4,30.4,0,0,0,2.517,2.269,28.762,28.762,0,0,0,2.694,1.924q-.157-.163-.305-.331a7.51,7.51,0,0,1-.569-.735,7.806,7.806,0,0,1-.465-.787,7.287,7.287,0,0,1-.35-.828,6.569,6.569,0,0,1-.231-.856,5.534,5.534,0,0,1,.279-3.15,6.051,6.051,0,0,1,1.721-2.336q.141.119.274.245t.267.251c.171.175.343.345.5.533.08.093.16.183.237.278s.15.194.225.29c.149.193.286.4.422.6a10.466,10.466,0,0,1,1.256,2.808,9.2,9.2,0,0,1,.361,3.085,6.127,6.127,0,0,1-.692,2.536,25.78,25.78,0,0,0,5.015,1.759,24.942,24.942,0,0,0,5.918.675v1.14a26.049,26.049,0,0,1-6.17-.776,26.815,26.815,0,0,1-5.195-1.89,4.731,4.731,0,0,1-1.642,2.073,5.1,5.1,0,0,1-.692.41q-.187.092-.387.173t-.411.144a6.314,6.314,0,0,1-.9.208,7.762,7.762,0,0,1-1,.084,9.713,9.713,0,0,1-4.3-1.008,11.637,11.637,0,0,1-1.042-.563c-.172-.1-.337-.212-.5-.324s-.331-.227-.491-.348c-.318-.244-.635-.5-.929-.769q-.223-.2-.438-.415t-.414-.437a4.759,4.759,0,0,1,2.441-1.624,9.042,9.042,0,0,1,3.463-.285c.32.03.645.066.961.119s.64.109.953.183.631.149.944.238.62.188.931.288q.231.077.458.163a29.7,29.7,0,0,1-2.776-2.03,31.307,31.307,0,0,1-2.565-2.366,4.586,4.586,0,0,1-2.156,1.351,5.777,5.777,0,0,1-3.319-.111,9.236,9.236,0,0,1-3.5-2.09,11.859,11.859,0,0,1-2.591-3.529,4.211,4.211,0,0,1,1.236-.613,5.147,5.147,0,0,1,1.422-.22,6.227,6.227,0,0,1,.761.033,7.375,7.375,0,0,1,.793.123,9.685,9.685,0,0,1,1.65.513,14.1,14.1,0,0,1,3.168,1.833q.245.186.484.381a35.146,35.146,0,0,1-3.668-5.612,4.436,4.436,0,0,1-2.355.678,5.066,5.066,0,0,1-1.46-.222,6.3,6.3,0,0,1-1.525-.711,8.776,8.776,0,0,1-2.658-2.718,11.242,11.242,0,0,1-1.515-3.777,4.072,4.072,0,0,1,1.281-.279,4.916,4.916,0,0,1,1.357.122,7.583,7.583,0,0,1,2.785,1.351,12.492,12.492,0,0,1,2.45,2.447q.228.3.441.607-.485-1.118-.9-2.265a39.04,39.04,0,0,1-1.174-3.918,4.3,4.3,0,0,1-1.078.21A4.23,4.23,0,0,1,5,122.432,4.843,4.843,0,0,1,3.7,121.9a5.873,5.873,0,0,1-.632-.434c-.1-.082-.209-.169-.311-.26s-.2-.189-.3-.291a7.14,7.14,0,0,1-.569-.654q-.265-.348-.5-.733c-.154-.257-.3-.525-.429-.8s-.246-.565-.354-.859a10.676,10.676,0,0,1-.6-3.76" transform="translate(0 -74.489)" fill="#f4ae2a"/>
      </g>
    </g>
    <path id="Path_11903" data-name="Path 11903" d="M-47.854-44.17q.414-9.522,3.27-13.62t8.569-4.1q7.7,0,9.025,6.541h12.751a18.038,18.038,0,0,0-6.955-12.337q-5.8-4.388-14.986-4.388-11.923,0-18.215,8.238t-6.292,23.8q0,18.3,9.77,25.336,5.8,4.223,14.572,4.223,10.018,0,16.559-5.63,6.375-5.63,6.375-15.234A19.563,19.563,0,0,0-18.627-45q-5.216-5.713-14.738-5.713T-47.854-44.17Zm4.388,20.119A9.421,9.421,0,0,1-46.2-31.005a9.421,9.421,0,0,1,2.732-6.955,9.3,9.3,0,0,1,7.12-2.732,9.3,9.3,0,0,1,7.12,2.732,9.761,9.761,0,0,1,2.649,6.955,9.761,9.761,0,0,1-2.649,6.955,9.3,9.3,0,0,1-7.12,2.732A9.3,9.3,0,0,1-43.465-24.05ZM33.783-36.139V-70.747h-15.4L-8.277-37.795V-24.63H19.791V-11.8H33.783V-24.63h7.7V-36.139Zm-13.579,0H3.4L20.2-56.92Z" transform="translate(1876.602 -485.917)" fill="#09143e"/>
  </g>
</svg>
