<svg xmlns="http://www.w3.org/2000/svg" xmlns:xlink="http://www.w3.org/1999/xlink" width="127.251" height="83" viewBox="0 0 127.251 83">
  <defs>
    <clipPath id="clip-path">
      <rect id="Rectangle_2940" data-name="Rectangle 2940" width="40.626" height="83" transform="translate(0 0)" fill="#f4ae2a"/>
    </clipPath>
    <clipPath id="clip-path-2">
      <rect id="Rectangle_2940-2" data-name="Rectangle 2940" width="40.626" height="83" fill="#f4ae2a"/>
    </clipPath>
  </defs>
  <g id="Group_17321" data-name="Group 17321" transform="translate(-1819.59 544.34)">
    <path id="Path_11905" data-name="Path 11905" d="M20.79-29.106V-70.488H2.376L-29.5-31.086v15.741H4.059V0H20.79V-15.345H30V-29.106Zm-16.236,0h-20.1l20.1-24.849Z" transform="translate(1879.092 -468.34)" fill="#09143e"/>
    <g id="Group_17342" data-name="Group 17342" transform="translate(-0.374 20)">
      <g id="Group_17319" data-name="Group 17319" transform="translate(1906.59 -564.34)">
        <g id="Group_17318" data-name="Group 17318" transform="translate(0 0)" clip-path="url(#clip-path)">
          <path id="Path_11897" data-name="Path 11897" d="M224.73,219.719a6.523,6.523,0,0,0-1.3-.379q-.165-.03-.329-.052c-.11-.014-.221-.022-.331-.03a5.86,5.86,0,0,0-.655-.007,5.07,5.07,0,0,0-1.262.225,4.716,4.716,0,0,0-.573.221,4.461,4.461,0,0,0-.511.287,4.087,4.087,0,0,0-.445.336,3.867,3.867,0,0,0-.382.385,4.15,4.15,0,0,0-.908,1.851c.173.071.352.128.53.185a5.524,5.524,0,0,0,.543.147,7.467,7.467,0,0,0,1.119.176q.143.011.287.015c.1,0,.191.008.287.009.192,0,.387-.008.581-.022a7.145,7.145,0,0,0,1.171-.183c.2-.047.386-.1.571-.168a5.621,5.621,0,0,0,.534-.208,5.425,5.425,0,0,0,.954-.552,4.055,4.055,0,0,0,1.323-1.589c-.191-.125-.384-.248-.586-.354s-.409-.2-.619-.292" transform="translate(-211.072 -212.245)" fill="#f4ae2a"/>
          <path id="Path_11898" data-name="Path 11898" d="M309.555,2.62a5.385,5.385,0,0,0,.2.562,6.044,6.044,0,0,0,.275.561c.1.189.216.38.342.568a8.99,8.99,0,0,0,.84,1.069c.153.168.311.335.476.492.082.079.167.155.252.232s.17.154.258.228a11.452,11.452,0,0,0,1.1.826q.286.195.586.366c.2.114.4.23.606.333a3.521,3.521,0,0,0,.7-1.95,3.87,3.87,0,0,0-.12-1.152,4.918,4.918,0,0,0-.2-.608,5.515,5.515,0,0,0-.3-.615,6.279,6.279,0,0,0-.864-1.178,7.548,7.548,0,0,0-.547-.529c-.1-.085-.2-.169-.3-.25s-.208-.157-.315-.233a8.668,8.668,0,0,0-1.384-.8c-.247-.11-.5-.212-.754-.305s-.518-.166-.78-.236a3.467,3.467,0,0,0-.223,2.068,4.846,4.846,0,0,0,.134.552" transform="translate(-299.479 0)" fill="#f4ae2a"/>
          <path id="Path_11899" data-name="Path 11899" d="M383.655,332.614a8.042,8.042,0,0,0,2.131,1.075,7.709,7.709,0,0,0,1.19.29,7.377,7.377,0,0,0,1.25.1q.319,0,.628-.032a5.865,5.865,0,0,0,.6-.083,5.628,5.628,0,0,0,1.113-.334,4.252,4.252,0,0,0,1.738-1.311c-.165-.174-.334-.346-.516-.5s-.37-.307-.563-.449-.4-.266-.6-.386a6.437,6.437,0,0,0-.635-.318,5.718,5.718,0,0,0-2.675-.5,4.259,4.259,0,0,0-3.656,2.444" transform="translate(-371.406 -319.617)" fill="#f4ae2a"/>
          <path id="Path_11900" data-name="Path 11900" d="M544.964,108.988c.141.2.295.381.447.57s.315.368.482.543.335.351.512.517.354.331.541.486a3.719,3.719,0,0,0,1.187-1.83,4.1,4.1,0,0,0,.156-1.208,5.172,5.172,0,0,0-.053-.669,5.962,5.962,0,0,0-.155-.7,6.663,6.663,0,0,0-.591-1.412,8.037,8.037,0,0,0-.931-1.313,9.334,9.334,0,0,0-2.636-2.089,3.67,3.67,0,0,0-.747,2.061,6.3,6.3,0,0,0,.417,2.528,10.225,10.225,0,0,0,1.369,2.516" transform="translate(-525.826 -98.63)" fill="#f4ae2a"/>
          <path id="Path_11901" data-name="Path 11901" d="M40.623,118.86a4.756,4.756,0,0,0-2.79.445,6.693,6.693,0,0,0-1.336.839c-.213.172-.431.359-.639.561s-.41.42-.612.653A12.811,12.811,0,0,0,33.29,124.5q-.2.458-.379.93a46.276,46.276,0,0,0,.682-6.446q.012-.346.018-.692a4.573,4.573,0,0,0,2.524-.439A5.248,5.248,0,0,0,37.367,117a6.308,6.308,0,0,0,.562-.593,6.434,6.434,0,0,0,.517-.709,8.9,8.9,0,0,0,1.26-3.575,11.369,11.369,0,0,0-.188-4.053,4.545,4.545,0,0,0-2.514.953,6.6,6.6,0,0,0-1.079,1.037,7.617,7.617,0,0,0-.482.645c-.153.228-.305.47-.445.725a10.956,10.956,0,0,0-.717,1.6q-.153.414-.271.84c-.078.283-.155.57-.213.86q-.124.583-.2,1.179-.06-1.924-.275-3.838-.185-1.593-.48-3.169a4.356,4.356,0,0,0,2.3-.9,4.856,4.856,0,0,0,.981-1.024,5.793,5.793,0,0,0,.412-.66,6.985,6.985,0,0,0,.342-.759,8.447,8.447,0,0,0,.482-3.569,10.857,10.857,0,0,0-.961-3.734,4.3,4.3,0,0,0-2.15,1.372,6.015,6.015,0,0,0-.8,1.174,8.08,8.08,0,0,0-.6,1.453,11.3,11.3,0,0,0-.482,3.3,13.9,13.9,0,0,0,.07,1.421q-.2-.847-.427-1.686a43.1,43.1,0,0,0-1.694-4.96,4.138,4.138,0,0,0,2.006-1.294,4.772,4.772,0,0,0,.715-1.143,5.978,5.978,0,0,0,.424-1.466,8.082,8.082,0,0,0-.248-3.417,10.218,10.218,0,0,0-1.629-3.293,4.084,4.084,0,0,0-1.73,1.7,5.978,5.978,0,0,0-.516,1.25c-.066.228-.119.462-.165.708s-.082.5-.105.761a10.9,10.9,0,0,0,.2,3.16,12.931,12.931,0,0,0,.444,1.627,40.625,40.625,0,0,0-3.445-6.128l-.089-.129q.068.093.138.185a3.917,3.917,0,0,0,1.634-1.611,4.367,4.367,0,0,0,.438-1.2,5.462,5.462,0,0,0,.1-1.449,7.58,7.58,0,0,0-.919-3.135A9.775,9.775,0,0,0,25.377,82.7a3.877,3.877,0,0,0-1.259,1.932A5.718,5.718,0,0,0,23.9,85.9a7.757,7.757,0,0,0,.047,1.421,10.591,10.591,0,0,0,.816,2.9,12.546,12.546,0,0,0,1.068,1.945,37.237,37.237,0,0,0-3.955-4.686,34.059,34.059,0,0,0-5.325-4.364,31.024,31.024,0,0,0-6.116-3.139q-.247-.093-.5-.182a5.079,5.079,0,0,0-.306-.479,5.02,5.02,0,0,0-.409-.5q-.224-.241-.484-.469a6.148,6.148,0,0,0-.555-.426,7.245,7.245,0,0,0-2.813-1.138,7.23,7.23,0,0,0-3.033.1A5.635,5.635,0,0,0,0,78.065a8.8,8.8,0,0,0,2.136,1.372,10.657,10.657,0,0,0,2.613.811,10.613,10.613,0,0,0,2.733.142c.219-.015.437-.046.65-.075s.424-.068.632-.116.41-.1.61-.157c.179-.053.357-.116.529-.181q.249.093.5.189a30.906,30.906,0,0,1,6.056,3.2,33.861,33.861,0,0,1,5.243,4.4,36.95,36.95,0,0,1,3.853,4.669A7.445,7.445,0,0,0,24.025,90.8a6.572,6.572,0,0,0-1.267-.734,6.7,6.7,0,0,0-.675-.246,5.306,5.306,0,0,0-.692-.157,4.871,4.871,0,0,0-1.331-.039,4.359,4.359,0,0,0-1.183.3A4.544,4.544,0,0,0,17.054,91.3a8.609,8.609,0,0,0,1.952,1.627,8.2,8.2,0,0,0,2.427.986,7.065,7.065,0,0,0,1.291.168,5.835,5.835,0,0,0,1.22-.087,4.472,4.472,0,0,0,2.086-.954c-.027-.046-.055-.091-.083-.137l.048.071a40.266,40.266,0,0,1,3.343,6.11,7.782,7.782,0,0,0-.957-1.351,6.5,6.5,0,0,0-2.459-1.757,5.818,5.818,0,0,0-.687-.221,4.994,4.994,0,0,0-.676-.119,4.61,4.61,0,0,0-1.284.037,4.777,4.777,0,0,0-2.189,1A9.219,9.219,0,0,0,22.745,98.8a8.442,8.442,0,0,0,2.288,1.563,7.021,7.021,0,0,0,1.295.459A5.851,5.851,0,0,0,27.6,101a4.694,4.694,0,0,0,2.324-.512,42.646,42.646,0,0,1,1.619,4.928q.215.82.4,1.648a7.974,7.974,0,0,0-.579-1.247,6.908,6.908,0,0,0-2.154-2.342,5.644,5.644,0,0,0-1.33-.647,4.918,4.918,0,0,0-3.805.309,9.576,9.576,0,0,0,1.251,2.563,8.975,8.975,0,0,0,2.021,2.108q.3.224.612.411c.207.125.412.239.623.34a6.423,6.423,0,0,0,1.278.458,4.946,4.946,0,0,0,2.465-.018q.273,1.56.438,3.136.191,1.893.228,3.8a8.486,8.486,0,0,0-.285-1.144,7.967,7.967,0,0,0-.31-.8q-.179-.39-.391-.754a6.823,6.823,0,0,0-1.019-1.316,6.015,6.015,0,0,0-.6-.53,5.876,5.876,0,0,0-.633-.422,5.127,5.127,0,0,0-1.321-.535,5.266,5.266,0,0,0-2.664.036,10.168,10.168,0,0,0,.738,2.911c.1.233.206.464.322.69s.247.449.379.667.282.432.438.64.318.411.494.608.355.382.54.555a7.275,7.275,0,0,0,.573.484,6.54,6.54,0,0,0,1.218.745,5.231,5.231,0,0,0,2.505.511q-.011.341-.026.682a45.594,45.594,0,0,1-.749,6.36,8.672,8.672,0,0,0-.047-1,7.54,7.54,0,0,0-1.144-3.33,6.364,6.364,0,0,0-.506-.674,5.622,5.622,0,0,0-.559-.569,5.449,5.449,0,0,0-4-1.365,10.563,10.563,0,0,0,.137,3.138c.048.259.115.518.184.773s.152.51.246.762.192.5.308.747.236.488.375.727q.1.179.213.351c.072.114.145.225.221.334a7.737,7.737,0,0,0,.481.621,7.024,7.024,0,0,0,1.085,1.035,5.988,5.988,0,0,0,1.233.73,5.184,5.184,0,0,0,1.183.357,43.222,43.222,0,0,1-1.349,4.321q-.47,1.265-1.022,2.5c.062-.271.111-.545.146-.818a7.723,7.723,0,0,0-.379-3.676,5.948,5.948,0,0,0-1.893-2.651,5.667,5.667,0,0,0-1.291-.763,6.207,6.207,0,0,0-1.419-.41,10.949,10.949,0,0,0-.572,3.186,10.444,10.444,0,0,0,.429,3.3,9.18,9.18,0,0,0,.619,1.547,7.5,7.5,0,0,0,.852,1.323,5.913,5.913,0,0,0,2.155,1.707,38.694,38.694,0,0,1-4.1,6.126c.1-.2.2-.4.282-.6a7.8,7.8,0,0,0,.607-3.824,6.458,6.458,0,0,0-.428-1.747,5.922,5.922,0,0,0-1.946-2.532,6.7,6.7,0,0,0-1.344-.782,11.192,11.192,0,0,0-1.369,3,11.055,11.055,0,0,0-.421,3.394,9.231,9.231,0,0,0,.687,3.3A6.37,6.37,0,0,0,21.5,146.17a34.26,34.26,0,0,1-2.836,2.557,32.411,32.411,0,0,1-3.036,2.168q.177-.184.344-.373a8.464,8.464,0,0,0,.642-.828,8.8,8.8,0,0,0,.524-.887,8.213,8.213,0,0,0,.395-.933,7.4,7.4,0,0,0,.26-.964,6.236,6.236,0,0,0-.315-3.55,6.819,6.819,0,0,0-1.939-2.632q-.159.134-.309.276t-.3.282c-.193.2-.387.389-.564.6-.09.1-.181.206-.267.314s-.169.219-.254.326c-.168.217-.322.451-.475.681a11.794,11.794,0,0,0-1.416,3.164,10.367,10.367,0,0,0-.407,3.476,6.9,6.9,0,0,0,.779,2.858,29.049,29.049,0,0,1-5.652,1.982,28.105,28.105,0,0,1-6.668.76v1.284a29.354,29.354,0,0,0,6.953-.875,30.219,30.219,0,0,0,5.854-2.13,5.331,5.331,0,0,0,1.851,2.337,5.75,5.75,0,0,0,.78.463q.21.1.436.195t.463.162a7.114,7.114,0,0,0,1.015.235,8.746,8.746,0,0,0,1.126.1,10.945,10.945,0,0,0,4.85-1.136,13.111,13.111,0,0,0,1.174-.635c.194-.114.379-.239.567-.365s.373-.255.553-.392c.358-.275.715-.558,1.047-.867q.251-.229.494-.467t.466-.492a5.363,5.363,0,0,0-2.751-1.83,10.189,10.189,0,0,0-3.9-.322c-.361.033-.726.074-1.083.134s-.721.123-1.074.206-.711.168-1.063.268-.7.212-1.049.324q-.26.087-.516.184a33.46,33.46,0,0,0,3.128-2.287,35.274,35.274,0,0,0,2.89-2.667,5.168,5.168,0,0,0,2.429,1.522,6.509,6.509,0,0,0,3.74-.125,10.408,10.408,0,0,0,3.947-2.355,13.363,13.363,0,0,0,2.919-3.977,4.744,4.744,0,0,0-1.393-.69,5.8,5.8,0,0,0-1.6-.248,7.017,7.017,0,0,0-.857.037,8.312,8.312,0,0,0-.893.138,10.914,10.914,0,0,0-1.859.578,15.887,15.887,0,0,0-3.57,2.066q-.276.209-.545.429a39.6,39.6,0,0,0,4.133-6.324,5,5,0,0,0,2.653.764,5.708,5.708,0,0,0,1.645-.251,7.1,7.1,0,0,0,1.719-.8,9.889,9.889,0,0,0,3-3.063,12.668,12.668,0,0,0,1.707-4.256A4.587,4.587,0,0,0,37.931,130a5.539,5.539,0,0,0-1.529.137,8.546,8.546,0,0,0-3.138,1.522,14.078,14.078,0,0,0-2.761,2.757q-.257.335-.5.683.546-1.26,1.01-2.553a43.994,43.994,0,0,0,1.323-4.415,4.849,4.849,0,0,0,1.215.237A4.766,4.766,0,0,0,35,128.239a5.458,5.458,0,0,0,1.458-.6,6.619,6.619,0,0,0,.712-.489c.118-.092.235-.19.351-.293s.227-.213.339-.328a8.046,8.046,0,0,0,.641-.737q.3-.392.566-.826c.173-.289.333-.591.483-.9s.277-.636.4-.968a12.03,12.03,0,0,0,.678-4.237" transform="translate(0 -74.213)" fill="#f4ae2a"/>
        </g>
      </g>
      <g id="Group_17320" data-name="Group 17320" transform="translate(1819.964 -564.34)">
        <g id="Group_17318-2" data-name="Group 17318" transform="translate(0 0)" clip-path="url(#clip-path-2)">
          <path id="Path_11897-2" data-name="Path 11897" d="M219.238,219.719a6.523,6.523,0,0,1,1.3-.379q.165-.03.329-.052c.11-.014.221-.022.331-.03a5.86,5.86,0,0,1,.655-.007,5.071,5.071,0,0,1,1.262.225,4.721,4.721,0,0,1,.573.221,4.465,4.465,0,0,1,.511.287,4.091,4.091,0,0,1,.445.336,3.86,3.86,0,0,1,.382.385,4.15,4.15,0,0,1,.908,1.851c-.174.071-.352.128-.53.185a5.523,5.523,0,0,1-.543.147,7.469,7.469,0,0,1-1.119.176q-.143.011-.287.015c-.1,0-.191.008-.287.009-.192,0-.387-.008-.581-.022a7.145,7.145,0,0,1-1.171-.183c-.2-.047-.386-.1-.571-.168a5.617,5.617,0,0,1-.534-.208,5.426,5.426,0,0,1-.954-.552,4.056,4.056,0,0,1-1.323-1.589c.191-.125.384-.248.586-.354s.409-.2.619-.292" transform="translate(-192.271 -212.245)" fill="#f4ae2a"/>
          <path id="Path_11898-2" data-name="Path 11898" d="M315.006,2.62a5.365,5.365,0,0,1-.2.562,5.99,5.99,0,0,1-.275.561c-.1.189-.216.38-.342.568a8.985,8.985,0,0,1-.84,1.069c-.153.168-.311.335-.476.492-.082.079-.167.155-.252.232s-.17.154-.258.228a11.455,11.455,0,0,1-1.1.826q-.286.195-.586.366c-.2.114-.4.23-.606.333a3.521,3.521,0,0,1-.7-1.95,3.871,3.871,0,0,1,.12-1.152,4.928,4.928,0,0,1,.2-.608,5.5,5.5,0,0,1,.3-.615,6.283,6.283,0,0,1,.864-1.178,7.555,7.555,0,0,1,.547-.529c.1-.085.2-.169.3-.25s.208-.157.315-.233a8.666,8.666,0,0,1,1.384-.8c.246-.11.5-.212.754-.305s.518-.166.78-.236a3.465,3.465,0,0,1,.223,2.068,4.826,4.826,0,0,1-.134.552" transform="translate(-284.456 0)" fill="#f4ae2a"/>
          <path id="Path_11899-2" data-name="Path 11899" d="M392.3,332.614a8.042,8.042,0,0,1-2.131,1.075,7.708,7.708,0,0,1-1.19.29,7.376,7.376,0,0,1-1.25.1q-.319,0-.628-.032a5.868,5.868,0,0,1-.6-.083,5.628,5.628,0,0,1-1.113-.334,4.253,4.253,0,0,1-1.738-1.311c.165-.174.334-.346.516-.5s.37-.307.563-.449.4-.266.6-.386a6.447,6.447,0,0,1,.635-.318,5.718,5.718,0,0,1,2.675-.5,4.259,4.259,0,0,1,3.656,2.444" transform="translate(-363.928 -319.617)" fill="#f4ae2a"/>
          <path id="Path_11900-2" data-name="Path 11900" d="M546.5,108.988c-.141.2-.295.381-.447.57s-.315.368-.482.543-.335.351-.512.517-.354.331-.541.486a3.72,3.72,0,0,1-1.187-1.83,4.1,4.1,0,0,1-.156-1.208,5.151,5.151,0,0,1,.053-.669,5.962,5.962,0,0,1,.155-.7,6.663,6.663,0,0,1,.591-1.412,8.054,8.054,0,0,1,.931-1.313,9.337,9.337,0,0,1,2.636-2.089,3.669,3.669,0,0,1,.747,2.061,6.3,6.3,0,0,1-.417,2.528,10.226,10.226,0,0,1-1.369,2.516" transform="translate(-525.007 -98.63)" fill="#f4ae2a"/>
          <path id="Path_11901-2" data-name="Path 11901" d="M0,118.86a4.756,4.756,0,0,1,2.79.445,6.693,6.693,0,0,1,1.336.839c.213.172.431.359.639.561s.41.42.612.653A12.81,12.81,0,0,1,7.336,124.5q.2.458.379.93a46.276,46.276,0,0,1-.682-6.446q-.012-.346-.018-.692a4.573,4.573,0,0,1-2.524-.439A5.248,5.248,0,0,1,3.258,117a6.308,6.308,0,0,1-.562-.593,6.435,6.435,0,0,1-.517-.709,8.9,8.9,0,0,1-1.26-3.575,11.369,11.369,0,0,1,.188-4.053,4.545,4.545,0,0,1,2.514.953A6.6,6.6,0,0,1,4.7,110.064a7.618,7.618,0,0,1,.482.645c.153.228.305.47.445.725a10.955,10.955,0,0,1,.717,1.6q.153.414.271.84c.078.283.155.57.213.86q.124.583.2,1.179.06-1.924.275-3.838.185-1.593.48-3.169a4.356,4.356,0,0,1-2.3-.9,4.856,4.856,0,0,1-.981-1.024,5.792,5.792,0,0,1-.412-.66,6.983,6.983,0,0,1-.342-.759,8.447,8.447,0,0,1-.482-3.569,10.857,10.857,0,0,1,.961-3.734,4.3,4.3,0,0,1,2.15,1.372,6.015,6.015,0,0,1,.8,1.174,8.081,8.081,0,0,1,.6,1.453,11.3,11.3,0,0,1,.482,3.3,13.9,13.9,0,0,1-.07,1.421q.2-.847.427-1.686a43.1,43.1,0,0,1,1.694-4.96A4.138,4.138,0,0,1,8.3,99.032a4.772,4.772,0,0,1-.715-1.143,5.977,5.977,0,0,1-.424-1.466,8.082,8.082,0,0,1,.248-3.417A10.218,10.218,0,0,1,9.04,89.713a4.084,4.084,0,0,1,1.73,1.7,5.978,5.978,0,0,1,.516,1.25c.066.228.119.462.165.708s.082.5.105.761a10.9,10.9,0,0,1-.2,3.16,12.93,12.93,0,0,1-.444,1.627,40.626,40.626,0,0,1,3.445-6.128l.089-.129q-.068.093-.138.185a3.917,3.917,0,0,1-1.634-1.611,4.367,4.367,0,0,1-.438-1.2,5.462,5.462,0,0,1-.1-1.449,7.58,7.58,0,0,1,.919-3.135A9.775,9.775,0,0,1,15.249,82.7a3.877,3.877,0,0,1,1.259,1.932A5.718,5.718,0,0,1,16.73,85.9a7.757,7.757,0,0,1-.047,1.421,10.591,10.591,0,0,1-.816,2.9A12.546,12.546,0,0,1,14.8,92.165a37.238,37.238,0,0,1,3.955-4.686,34.059,34.059,0,0,1,5.325-4.364A31.024,31.024,0,0,1,30.2,79.975q.247-.093.5-.182A5.079,5.079,0,0,1,31,79.314a5.02,5.02,0,0,1,.409-.5q.224-.241.484-.469a6.15,6.15,0,0,1,.555-.426,7.348,7.348,0,0,1,5.846-1.042,5.635,5.635,0,0,1,2.335,1.193,8.8,8.8,0,0,1-2.136,1.372,11.016,11.016,0,0,1-5.346.953c-.219-.015-.437-.046-.65-.075s-.424-.068-.632-.116-.41-.1-.61-.157c-.179-.053-.357-.116-.529-.181q-.249.093-.5.189a30.907,30.907,0,0,0-6.056,3.2,33.862,33.862,0,0,0-5.243,4.4,36.949,36.949,0,0,0-3.853,4.669A7.445,7.445,0,0,1,16.6,90.8a6.572,6.572,0,0,1,1.267-.734,6.7,6.7,0,0,1,.675-.246,5.306,5.306,0,0,1,.692-.157,4.871,4.871,0,0,1,1.331-.039,4.359,4.359,0,0,1,1.183.3A4.544,4.544,0,0,1,23.572,91.3a8.609,8.609,0,0,1-1.952,1.627,8.2,8.2,0,0,1-2.427.986,7.065,7.065,0,0,1-1.291.168,5.835,5.835,0,0,1-1.22-.087,4.472,4.472,0,0,1-2.086-.954c.027-.046.055-.091.083-.137l-.048.071a40.267,40.267,0,0,0-3.343,6.11,7.782,7.782,0,0,1,.957-1.351A6.5,6.5,0,0,1,14.7,95.972a5.818,5.818,0,0,1,.687-.221,4.994,4.994,0,0,1,.676-.119,4.61,4.61,0,0,1,1.284.037,4.777,4.777,0,0,1,2.189,1A9.219,9.219,0,0,1,17.881,98.8a8.442,8.442,0,0,1-2.288,1.563,7.021,7.021,0,0,1-1.295.459,5.851,5.851,0,0,1-1.276.178,4.694,4.694,0,0,1-2.324-.512,42.647,42.647,0,0,0-1.619,4.928q-.215.82-.4,1.648a7.974,7.974,0,0,1,.579-1.247,6.908,6.908,0,0,1,2.154-2.342,5.644,5.644,0,0,1,1.33-.647,4.918,4.918,0,0,1,3.805.309A9.576,9.576,0,0,1,15.3,105.7a8.975,8.975,0,0,1-2.021,2.108q-.3.224-.612.411c-.207.125-.412.239-.623.34a6.424,6.424,0,0,1-1.278.458,4.946,4.946,0,0,1-2.465-.018q-.273,1.56-.438,3.136-.191,1.893-.228,3.8a8.485,8.485,0,0,1,.285-1.144,7.966,7.966,0,0,1,.31-.8q.179-.39.391-.754a6.823,6.823,0,0,1,1.019-1.316,6.014,6.014,0,0,1,.6-.53,5.876,5.876,0,0,1,.633-.422,5.127,5.127,0,0,1,1.321-.535,5.266,5.266,0,0,1,2.664.036,10.168,10.168,0,0,1-.738,2.911c-.1.233-.206.464-.322.69s-.247.449-.379.667-.282.432-.438.64-.318.411-.494.608-.355.382-.54.555a7.274,7.274,0,0,1-.573.484,6.54,6.54,0,0,1-1.218.745,5.231,5.231,0,0,1-2.505.511q.011.341.026.682a45.594,45.594,0,0,0,.749,6.36,8.671,8.671,0,0,1,.047-1,7.54,7.54,0,0,1,1.144-3.33,6.365,6.365,0,0,1,.506-.674,5.622,5.622,0,0,1,.559-.569,5.449,5.449,0,0,1,4-1.365,10.563,10.563,0,0,1-.137,3.138c-.048.259-.115.518-.184.773s-.152.51-.246.762-.192.5-.308.747-.236.488-.375.727q-.1.179-.213.351c-.072.114-.145.225-.221.334a7.738,7.738,0,0,1-.481.621,7.024,7.024,0,0,1-1.085,1.035,5.988,5.988,0,0,1-1.233.73,5.184,5.184,0,0,1-1.183.357,43.224,43.224,0,0,0,1.349,4.321q.47,1.265,1.022,2.5c-.062-.271-.111-.545-.146-.818a7.723,7.723,0,0,1,.379-3.676,5.948,5.948,0,0,1,1.893-2.651,5.667,5.667,0,0,1,1.291-.763,6.207,6.207,0,0,1,1.419-.41,10.949,10.949,0,0,1,.572,3.186,10.444,10.444,0,0,1-.429,3.3,9.18,9.18,0,0,1-.619,1.547,7.5,7.5,0,0,1-.852,1.323,5.913,5.913,0,0,1-2.155,1.707,38.693,38.693,0,0,0,4.1,6.126c-.1-.2-.2-.4-.282-.6a7.8,7.8,0,0,1-.607-3.824,6.458,6.458,0,0,1,.428-1.747,5.922,5.922,0,0,1,1.946-2.532,6.7,6.7,0,0,1,1.344-.782,11.192,11.192,0,0,1,1.369,3,11.055,11.055,0,0,1,.421,3.394,9.231,9.231,0,0,1-.687,3.3,6.37,6.37,0,0,1-1.645,2.332,34.26,34.26,0,0,0,2.836,2.557A32.411,32.411,0,0,0,25,150.894q-.177-.184-.344-.373a8.464,8.464,0,0,1-.642-.828,8.8,8.8,0,0,1-.524-.887,8.212,8.212,0,0,1-.395-.933,7.4,7.4,0,0,1-.26-.964,6.236,6.236,0,0,1,.315-3.55,6.819,6.819,0,0,1,1.939-2.632q.159.134.309.276t.3.282c.193.2.387.389.564.6.09.1.181.206.267.314s.169.219.254.326c.168.217.322.451.475.681a11.794,11.794,0,0,1,1.416,3.164,10.367,10.367,0,0,1,.407,3.476,6.9,6.9,0,0,1-.779,2.858,29.049,29.049,0,0,0,5.652,1.982,28.105,28.105,0,0,0,6.668.76v1.284a29.354,29.354,0,0,1-6.953-.875,30.219,30.219,0,0,1-5.854-2.13,5.331,5.331,0,0,1-1.851,2.337,5.75,5.75,0,0,1-.78.463q-.21.1-.436.195t-.463.162a7.114,7.114,0,0,1-1.015.235,8.746,8.746,0,0,1-1.126.1,10.945,10.945,0,0,1-4.85-1.136,13.111,13.111,0,0,1-1.174-.635c-.194-.114-.379-.239-.567-.365s-.373-.255-.553-.392c-.358-.275-.715-.558-1.047-.867q-.251-.229-.494-.467T13,152.859a5.363,5.363,0,0,1,2.751-1.83,10.189,10.189,0,0,1,3.9-.322c.361.033.726.074,1.083.134s.721.123,1.074.206.711.168,1.063.268.7.212,1.049.324q.26.087.516.184a33.46,33.46,0,0,1-3.128-2.287,35.275,35.275,0,0,1-2.89-2.667,5.168,5.168,0,0,1-2.429,1.522,6.51,6.51,0,0,1-3.74-.125A10.408,10.408,0,0,1,8.3,145.911a13.363,13.363,0,0,1-2.919-3.977,4.744,4.744,0,0,1,1.393-.69,5.8,5.8,0,0,1,1.6-.248,7.017,7.017,0,0,1,.857.037,8.312,8.312,0,0,1,.893.138,10.914,10.914,0,0,1,1.859.578,15.887,15.887,0,0,1,3.57,2.066q.276.209.545.429a39.6,39.6,0,0,1-4.133-6.324,5,5,0,0,1-2.653.764,5.708,5.708,0,0,1-1.645-.251,7.1,7.1,0,0,1-1.719-.8,9.889,9.889,0,0,1-3-3.063,12.668,12.668,0,0,1-1.707-4.256A4.587,4.587,0,0,1,2.694,130a5.539,5.539,0,0,1,1.529.137,8.546,8.546,0,0,1,3.138,1.522,14.078,14.078,0,0,1,2.761,2.757q.257.335.5.683-.546-1.26-1.01-2.553a43.993,43.993,0,0,1-1.323-4.415,4.849,4.849,0,0,1-1.215.237,4.766,4.766,0,0,1-1.442-.129,5.458,5.458,0,0,1-1.458-.6,6.618,6.618,0,0,1-.712-.489c-.118-.092-.235-.19-.351-.293s-.227-.213-.339-.328a8.046,8.046,0,0,1-.641-.737q-.3-.392-.566-.826c-.173-.289-.333-.591-.483-.9s-.277-.636-.4-.968A12.03,12.03,0,0,1,0,118.86" transform="translate(0 -74.213)" fill="#f4ae2a"/>
        </g>
      </g>
    </g>
  </g>
</svg>
