<?xml version="1.0" encoding="UTF-8"?>
<svg id="Layer_1" data-name="Layer 1" xmlns="http://www.w3.org/2000/svg" viewBox="0 0 200 200">
  <defs>
    <style>
      .cls-1 {
        stroke-width: 0px;
      }
    </style>
  </defs>
  <path class="cls-1" d="m1.32,176.48v-27.55c0-5.41,1.39-10.5,4.18-15.25,2.79-4.76,6.64-8.36,11.56-10.82,8.36-4.26,17.79-7.87,28.29-10.82,10.5-2.95,22.06-4.43,34.69-4.43,4.92,0,9.72.25,14.39.74,4.67.49,9.23,1.23,13.65,2.21l-17.22,17.22c-1.8-.33-3.57-.49-5.29-.49h-5.54c-11.64,0-22.1,1.39-31.37,4.18-9.27,2.79-16.85,5.82-22.76,9.1-1.48.82-2.67,1.97-3.57,3.44s-1.35,3.12-1.35,4.92v7.87h61.5l19.68,19.68H1.32Zm133.34,3.94l-33.95-33.95,13.78-13.78,20.17,20.17,49.69-49.69,13.78,13.78-63.47,63.47Zm-54.61-82.66c-10.82,0-20.09-3.85-27.8-11.56-7.71-7.71-11.56-16.97-11.56-27.8s3.85-20.09,11.56-27.8c7.71-7.71,16.97-11.56,27.8-11.56s20.09,3.85,27.8,11.56c7.71,7.71,11.56,16.97,11.56,27.8s-3.85,20.09-11.56,27.8c-7.71,7.71-16.97,11.56-27.8,11.56Zm0-19.68c5.41,0,10.05-1.93,13.9-5.78,3.85-3.85,5.78-8.49,5.78-13.9s-1.93-10.05-5.78-13.9c-3.85-3.85-8.49-5.78-13.9-5.78s-10.05,1.93-13.9,5.78-5.78,8.49-5.78,13.9,1.93,10.05,5.78,13.9,8.49,5.78,13.9,5.78Z"/>
  <path class="cls-1" d="m134.66,182.29l-35.82-35.82,15.65-15.65,20.17,20.17,49.69-49.69,15.65,15.65-.93.94-64.41,64.4Zm-32.08-35.82l32.08,32.08,61.6-61.6-11.91-11.91-49.69,49.69-20.17-20.17-11.91,11.91Zm2.8,31.34H0v-28.88c0-5.63,1.47-10.98,4.37-15.92,2.9-4.96,6.98-8.78,12.11-11.34,8.41-4.29,18.01-7.96,28.52-10.92,10.57-2.97,22.36-4.48,35.04-4.48,4.93,0,9.82.25,14.53.75,4.68.49,9.32,1.24,13.8,2.24l2.35.52-19.41,19.41-.68-.12c-1.73-.31-3.43-.47-5.05-.47h-5.54c-11.46,0-21.88,1.39-30.98,4.13-9.13,2.74-16.69,5.77-22.5,8.99-1.28.71-2.29,1.69-3.08,2.98-.78,1.27-1.16,2.66-1.16,4.23v6.55h60.73l22.33,22.33Zm-102.73-2.65h96.34l-17.03-17.03H19.68v-9.2c0-2.04.52-3.93,1.55-5.61,1.02-1.67,2.38-2.98,4.05-3.91,5.97-3.31,13.71-6.41,23.02-9.21,9.35-2.81,20.03-4.24,31.75-4.24h5.54c1.57,0,3.19.13,4.84.4l15.01-15.01c-3.64-.73-7.37-1.3-11.13-1.69-4.62-.49-9.41-.73-14.25-.73-12.44,0-23.99,1.47-34.33,4.38-10.35,2.91-19.79,6.52-28.05,10.73-4.68,2.34-8.38,5.81-11.02,10.32-2.65,4.53-4,9.44-4,14.58v26.23Zm77.4-76.08c-11.14,0-20.81-4.02-28.73-11.95-7.93-7.93-11.95-17.6-11.95-28.74s4.02-20.8,11.95-28.73c7.93-7.93,17.6-11.95,28.73-11.95s20.8,4.02,28.73,11.95c7.93,7.93,11.95,17.6,11.95,28.73s-4.02,20.8-11.95,28.73c-7.93,7.93-17.6,11.95-28.74,11.95Zm0-78.72c-10.41,0-19.45,3.76-26.86,11.18-7.42,7.41-11.18,16.45-11.18,26.86s3.76,19.45,11.18,26.87c7.41,7.41,16.45,11.17,26.86,11.17s19.45-3.76,26.87-11.17c7.41-7.42,11.17-16.46,11.17-26.86s-3.76-19.45-11.18-26.86c-7.42-7.42-16.46-11.18-26.86-11.18Zm0,59.04c-5.75,0-10.74-2.07-14.84-6.17-4.09-4.1-6.17-9.09-6.17-14.84s2.07-10.74,6.17-14.83c4.1-4.1,9.09-6.17,14.84-6.17s10.74,2.07,14.84,6.17c4.09,4.1,6.16,9.09,6.16,14.84s-2.07,10.74-6.16,14.84c-4.1,4.09-9.09,6.17-14.84,6.17Zm0-39.36c-5.09,0-9.33,1.76-12.96,5.4-3.63,3.63-5.4,7.87-5.4,12.96s1.76,9.33,5.4,12.96c3.63,3.63,7.87,5.4,12.96,5.4s9.34-1.76,12.97-5.4c3.63-3.62,5.39-7.87,5.39-12.96s-1.76-9.33-5.39-12.97c-3.63-3.63-7.87-5.39-12.97-5.39Z"/>
</svg>