<?xml version="1.0" encoding="UTF-8"?>
<svg id="Layer_1" data-name="Layer 1" xmlns="http://www.w3.org/2000/svg" viewBox="0 0 200 200">
  <defs>
    <style>
      .cls-1 {
        stroke-width: 0px;
      }
    </style>
  </defs>
  <path class="cls-1" d="m50.43,194.19c-6.88,0-12.74-2.41-17.56-7.23-4.82-4.82-7.23-10.67-7.23-17.56s2.41-12.74,7.23-17.56c4.82-4.82,10.67-7.23,17.56-7.23,1.93,0,3.86.24,5.8.73,1.94.49,3.79,1.14,5.56,1.95l11.36-14.25c-3.99-4.27-6.92-9.12-8.78-14.56s-2.24-11.05-1.14-16.83l-15.7-4.75c-2.07,3.99-5.09,7.16-9.09,9.5-3.99,2.34-8.26,3.51-12.81,3.51-6.88,0-12.74-2.41-17.56-7.23-4.82-4.82-7.23-10.67-7.23-17.56s2.38-12.91,7.13-17.66c4.75-4.75,10.64-7.13,17.66-7.13s12.91,2.38,17.66,7.13c4.75,4.75,7.13,10.64,7.13,17.66v2.27l15.7,4.75c2.75-5.78,6.68-10.6,11.77-14.46,5.09-3.86,10.81-6.27,17.14-7.23v-15.49c-5.78-1.1-10.53-3.92-14.25-8.47-3.72-4.54-5.58-9.85-5.58-15.9,0-6.88,2.41-12.74,7.23-17.56,4.82-4.82,10.67-7.23,17.56-7.23s12.74,2.41,17.56,7.23,7.23,10.67,7.23,17.56c0,6.06-1.86,11.36-5.58,15.9-3.72,4.54-8.47,7.37-14.25,8.47v15.48c6.47.83,12.22,3.17,17.25,7.03,5.03,3.86,8.92,8.74,11.67,14.66l15.7-4.75v-2.27c0-6.88,2.41-12.74,7.23-17.56,4.82-4.82,10.67-7.23,17.56-7.23s12.74,2.41,17.56,7.23c4.82,4.82,7.23,10.67,7.23,17.56s-2.41,12.74-7.23,17.56c-4.82,4.82-10.67,7.23-17.56,7.23-4.54,0-8.81-1.14-12.81-3.41-3.99-2.27-7.02-5.47-9.09-9.6l-15.7,4.75c1.1,5.78.72,11.39-1.14,16.83-1.86,5.44-4.78,10.29-8.78,14.56l11.36,14.25c1.79-.83,3.65-1.48,5.58-1.96,1.93-.48,3.86-.72,5.78-.72,6.88,0,12.74,2.41,17.56,7.23,4.82,4.82,7.23,10.67,7.23,17.56s-2.41,12.74-7.23,17.56c-4.82,4.82-10.67,7.23-17.56,7.23s-12.74-2.41-17.56-7.23c-4.82-4.82-7.23-10.67-7.23-17.56,0-2.89.52-5.68,1.55-8.37,1.03-2.69,2.44-5.2,4.23-7.54l-11.36-14.05c-5.92,3.58-12.32,5.37-19.21,5.37s-13.29-1.79-19.21-5.37l-11.36,14.05c1.79,2.34,3.2,4.85,4.23,7.53,1.03,2.68,1.55,5.47,1.55,8.37,0,6.88-2.41,12.74-7.23,17.56-4.82,4.82-10.67,7.23-17.56,7.23Zm-24.79-99.14c2.81,0,5.16-.95,7.06-2.85,1.9-1.9,2.85-4.25,2.85-7.06s-.95-5.16-2.85-7.06c-1.9-1.9-4.25-2.85-7.06-2.85s-5.16.95-7.06,2.85c-1.9,1.9-2.85,4.25-2.85,7.06s.95,5.16,2.85,7.06c1.9,1.9,4.25,2.85,7.06,2.85Zm24.79,84.27c2.81,0,5.16-.95,7.06-2.85,1.9-1.9,2.85-4.25,2.85-7.06s-.95-5.16-2.85-7.06c-1.9-1.9-4.25-2.85-7.06-2.85s-5.16.95-7.06,2.85c-1.9,1.9-2.85,4.25-2.85,7.06s.95,5.16,2.85,7.06c1.9,1.9,4.25,2.85,7.06,2.85ZM100,40.51c2.81,0,5.16-.95,7.06-2.85,1.9-1.9,2.85-4.25,2.85-7.06s-.95-5.16-2.85-7.06c-1.9-1.9-4.25-2.85-7.06-2.85s-5.16.95-7.06,2.85c-1.9,1.9-2.85,4.25-2.85,7.06s.95,5.16,2.85,7.06c1.9,1.9,4.25,2.85,7.06,2.85Zm0,89.23c6.25,0,11.53-2.16,15.84-6.47,4.31-4.31,6.47-9.59,6.47-15.84s-2.16-11.53-6.47-15.84c-4.31-4.31-9.59-6.47-15.84-6.47s-11.53,2.16-15.84,6.47c-4.31,4.31-6.47,9.59-6.47,15.84s2.16,11.53,6.47,15.84c4.31,4.31,9.59,6.47,15.84,6.47Zm49.57,49.57c2.81,0,5.16-.95,7.06-2.85,1.9-1.9,2.85-4.25,2.85-7.06s-.95-5.16-2.85-7.06c-1.9-1.9-4.25-2.85-7.06-2.85s-5.16.95-7.06,2.85c-1.9,1.9-2.85,4.25-2.85,7.06s.95,5.16,2.85,7.06c1.9,1.9,4.25,2.85,7.06,2.85Zm24.79-84.27c2.81,0,5.16-.95,7.06-2.85,1.9-1.9,2.85-4.25,2.85-7.06s-.95-5.16-2.85-7.06c-1.9-1.9-4.25-2.85-7.06-2.85s-5.16.95-7.06,2.85c-1.9,1.9-2.85,4.25-2.85,7.06s.95,5.16,2.85,7.06c1.9,1.9,4.25,2.85,7.06,2.85Z"/>
  <path class="cls-1" d="m149.57,195.04c-7.09,0-13.2-2.52-18.16-7.48-4.96-4.96-7.48-11.08-7.48-18.16,0-2.98.54-5.9,1.61-8.67.98-2.54,2.31-4.97,3.95-7.21l-10.47-12.95c-5.85,3.39-12.24,5.11-19.01,5.11s-13.15-1.72-19.01-5.11l-10.47,12.95c1.64,2.24,2.97,4.66,3.95,7.2,1.07,2.77,1.61,5.69,1.61,8.68,0,7.09-2.52,13.2-7.48,18.16-4.96,4.96-11.07,7.48-18.16,7.48s-13.2-2.52-18.16-7.48c-4.96-4.96-7.48-11.08-7.48-18.16s2.52-13.2,7.48-18.16,11.08-7.48,18.16-7.48c1.99,0,4.01.25,6.01.76,1.76.44,3.47,1.03,5.1,1.73l10.49-13.16c-3.8-4.21-6.65-9.02-8.46-14.32-1.82-5.32-2.25-10.87-1.3-16.51l-14.29-4.33c-2.12,3.83-5.17,6.93-9.08,9.22-4.11,2.41-8.56,3.63-13.24,3.63-7.09,0-13.2-2.52-18.16-7.48-4.96-4.96-7.48-11.08-7.48-18.16s2.48-13.37,7.38-18.27c4.9-4.9,11.04-7.38,18.27-7.38s13.37,2.48,18.27,7.38c4.9,4.9,7.38,11.04,7.38,18.27v1.64l14.39,4.35c2.79-5.59,6.72-10.34,11.71-14.11,4.99-3.78,10.64-6.22,16.8-7.27v-14.06c-5.65-1.23-10.38-4.13-14.06-8.63-3.83-4.68-5.77-10.21-5.77-16.45,0-7.09,2.52-13.2,7.48-18.16s11.08-7.48,18.16-7.48,13.2,2.52,18.16,7.48c4.96,4.96,7.48,11.08,7.48,18.16,0,6.23-1.94,11.77-5.77,16.45-3.68,4.5-8.41,7.4-14.06,8.63v14.03c6.3.93,11.98,3.32,16.91,7.1,4.92,3.77,8.82,8.59,11.61,14.31l14.38-4.35v-1.64c0-7.09,2.52-13.2,7.48-18.16s11.08-7.48,18.16-7.48,13.2,2.52,18.16,7.48c4.96,4.96,7.48,11.08,7.48,18.16s-2.52,13.2-7.48,18.16c-4.96,4.96-11.07,7.48-18.16,7.48-4.67,0-9.13-1.18-13.23-3.52-3.92-2.23-6.97-5.36-9.1-9.32l-14.28,4.32c.95,5.64.51,11.19-1.3,16.51-1.81,5.3-4.66,10.11-8.46,14.32l10.49,13.16c1.64-.72,3.36-1.3,5.11-1.74,1.99-.5,4-.75,5.99-.75,7.09,0,13.2,2.52,18.16,7.48,4.96,4.96,7.48,11.08,7.48,18.16s-2.52,13.2-7.48,18.16c-4.96,4.96-11.07,7.48-18.16,7.48Zm-30.17-56.71l12.26,15.15-.41.54c-1.73,2.26-3.12,4.73-4.11,7.33-.99,2.57-1.49,5.28-1.49,8.06,0,6.62,2.35,12.32,6.98,16.95s10.33,6.98,16.95,6.98,12.32-2.35,16.95-6.98c4.63-4.63,6.98-10.33,6.98-16.95s-2.35-12.32-6.98-16.95c-4.63-4.63-10.33-6.98-16.95-6.98-1.85,0-3.72.24-5.57.7-1.87.47-3.69,1.11-5.42,1.91l-.61.28-12.24-15.36.51-.54c3.89-4.16,6.78-8.95,8.59-14.25,1.8-5.27,2.17-10.79,1.1-16.4l-.14-.76,17.13-5.18.32.65c1.98,3.96,4.92,7.07,8.74,9.24,3.84,2.19,8.01,3.3,12.38,3.3,6.62,0,12.32-2.35,16.95-6.98,4.63-4.63,6.98-10.33,6.98-16.95s-2.35-12.32-6.98-16.95c-4.63-4.63-10.33-6.98-16.95-6.98s-12.32,2.35-16.95,6.98c-4.63,4.63-6.98,10.33-6.98,16.95v2.91l-17.02,5.15-.31-.67c-2.68-5.77-6.52-10.59-11.41-14.35-4.88-3.74-10.54-6.05-16.83-6.86l-.75-.1v-16.95l.7-.13c5.55-1.06,10.18-3.81,13.75-8.17,3.57-4.37,5.38-9.53,5.38-15.36,0-6.62-2.35-12.32-6.98-16.95-4.63-4.63-10.33-6.98-16.95-6.98s-12.32,2.35-16.95,6.98c-4.63,4.63-6.98,10.33-6.98,16.95,0,5.83,1.81,11,5.38,15.36,3.57,4.36,8.2,7.11,13.75,8.17l.7.13v16.94l-.73.11c-6.16.94-11.8,3.31-16.75,7.06-4.96,3.75-8.83,8.51-11.52,14.14l-.32.67-17.01-5.15v-2.91c0-6.75-2.31-12.49-6.88-17.05-4.56-4.56-10.3-6.88-17.05-6.88s-12.49,2.31-17.05,6.88c-4.56,4.56-6.88,10.3-6.88,17.05s2.35,12.32,6.98,16.95,10.33,6.98,16.95,6.98c4.37,0,8.53-1.14,12.37-3.39,3.83-2.25,6.78-5.33,8.76-9.16l.33-.63,17.12,5.18-.14.76c-1.07,5.61-.7,11.12,1.1,16.4,1.81,5.3,4.7,10.09,8.59,14.25l.51.54-12.24,15.36-.61-.28c-1.71-.79-3.54-1.43-5.42-1.9-1.86-.47-3.74-.71-5.59-.71-6.62,0-12.32,2.35-16.95,6.98-4.63,4.63-6.98,10.33-6.98,16.95s2.35,12.32,6.98,16.95,10.33,6.98,16.95,6.98,12.32-2.35,16.95-6.98c4.63-4.63,6.98-10.33,6.98-16.95,0-2.78-.5-5.49-1.49-8.06-1-2.6-2.38-5.06-4.11-7.32l-.41-.54,12.26-15.15.64.39c5.76,3.48,12.07,5.25,18.76,5.25s13.01-1.77,18.76-5.25l.64-.39Zm30.17,41.84c-3.03,0-5.61-1.04-7.67-3.1-2.06-2.06-3.1-4.64-3.1-7.67s1.04-5.61,3.1-7.67c2.06-2.06,4.64-3.1,7.67-3.1s5.61,1.04,7.67,3.1c2.06,2.06,3.1,4.64,3.1,7.67s-1.04,5.61-3.1,7.67c-2.06,2.06-4.64,3.1-7.67,3.1Zm0-19.83c-2.59,0-4.71.85-6.46,2.6-1.75,1.75-2.6,3.86-2.6,6.46s.85,4.71,2.6,6.46c1.75,1.75,3.86,2.6,6.46,2.6s4.71-.85,6.46-2.6c1.75-1.75,2.6-3.86,2.6-6.46s-.85-4.71-2.6-6.46c-1.75-1.75-3.86-2.6-6.46-2.6Zm-99.14,19.83c-3.03,0-5.61-1.04-7.67-3.1-2.06-2.06-3.1-4.64-3.1-7.67s1.04-5.61,3.1-7.67c2.06-2.06,4.64-3.1,7.67-3.1s5.61,1.04,7.67,3.1c2.06,2.06,3.1,4.64,3.1,7.67s-1.04,5.61-3.1,7.67c-2.06,2.06-4.64,3.1-7.67,3.1Zm0-19.83c-2.59,0-4.71.85-6.46,2.6-1.75,1.75-2.6,3.86-2.6,6.46s.85,4.71,2.6,6.46c1.75,1.75,3.86,2.6,6.46,2.6s4.71-.85,6.46-2.6c1.75-1.75,2.6-3.86,2.6-6.46s-.85-4.71-2.6-6.46c-1.75-1.75-3.86-2.6-6.46-2.6Zm49.57-29.74c-6.45,0-11.99-2.26-16.44-6.72-4.46-4.46-6.72-9.99-6.72-16.45s2.26-11.99,6.72-16.44c4.46-4.46,9.99-6.72,16.44-6.72s11.99,2.26,16.44,6.72c4.46,4.46,6.72,9.99,6.72,16.44s-2.26,11.99-6.72,16.45c-4.46,4.46-9.99,6.72-16.44,6.72Zm0-44.61c-5.98,0-11.11,2.09-15.23,6.22-4.13,4.12-6.22,9.25-6.22,15.23s2.09,11.11,6.22,15.23c4.13,4.13,9.25,6.22,15.23,6.22s11.11-2.09,15.23-6.22c4.13-4.13,6.22-9.25,6.22-15.23s-2.09-11.11-6.22-15.23c-4.12-4.13-9.25-6.22-15.23-6.22Zm74.36,9.91c-3.03,0-5.61-1.04-7.67-3.1-2.06-2.06-3.1-4.64-3.1-7.67s1.04-5.61,3.1-7.67c2.06-2.06,4.64-3.1,7.67-3.1s5.61,1.04,7.67,3.1c2.06,2.06,3.1,4.64,3.1,7.67s-1.04,5.61-3.1,7.67c-2.06,2.06-4.64,3.1-7.67,3.1Zm0-19.83c-2.59,0-4.71.85-6.46,2.6-1.75,1.75-2.6,3.86-2.6,6.46s.85,4.71,2.6,6.46c1.75,1.75,3.86,2.6,6.46,2.6s4.71-.85,6.46-2.6c1.75-1.75,2.6-3.86,2.6-6.46s-.85-4.71-2.6-6.46c-1.75-1.75-3.86-2.6-6.46-2.6ZM25.64,95.9c-3.03,0-5.61-1.04-7.67-3.1-2.06-2.06-3.1-4.64-3.1-7.67s1.04-5.61,3.1-7.67c2.06-2.06,4.64-3.1,7.67-3.1s5.61,1.04,7.67,3.1c2.06,2.06,3.1,4.64,3.1,7.67s-1.04,5.61-3.1,7.67c-2.06,2.06-4.64,3.1-7.67,3.1Zm0-19.83c-2.59,0-4.71.85-6.46,2.6-1.75,1.75-2.6,3.86-2.6,6.46s.85,4.71,2.6,6.46c1.75,1.75,3.86,2.6,6.46,2.6s4.71-.85,6.46-2.6c1.75-1.75,2.6-3.86,2.6-6.46s-.85-4.71-2.6-6.46c-1.75-1.75-3.86-2.6-6.46-2.6Zm74.36-34.7c-3.03,0-5.61-1.04-7.67-3.1-2.06-2.06-3.1-4.64-3.1-7.67s1.04-5.61,3.1-7.67c2.06-2.06,4.64-3.1,7.67-3.1s5.61,1.04,7.67,3.1c2.06,2.06,3.1,4.64,3.1,7.67s-1.04,5.61-3.1,7.67c-2.06,2.06-4.64,3.1-7.67,3.1Zm0-19.83c-2.59,0-4.71.85-6.46,2.6-1.75,1.75-2.6,3.86-2.6,6.46s.85,4.71,2.6,6.46c1.75,1.75,3.86,2.6,6.46,2.6s4.71-.85,6.46-2.6c1.75-1.75,2.6-3.86,2.6-6.46s-.85-4.71-2.6-6.46c-1.75-1.75-3.86-2.6-6.46-2.6Z"/>
</svg>