<?xml version="1.0" encoding="UTF-8"?>
<svg id="Layer_1" data-name="Layer 1" xmlns="http://www.w3.org/2000/svg" viewBox="0 0 200 200">
  <defs>
    <style>
      .cls-1 {
        stroke-width: 0px;
      }
    </style>
  </defs>
  <path class="cls-1" d="m100,95.41c-12.87,0-23.8-4.49-32.79-13.48-8.99-8.99-13.48-19.92-13.48-32.79s4.49-23.8,13.48-32.79c8.99-8.99,19.92-13.48,32.79-13.48,12.87,0,23.8,4.49,32.79,13.48,8.99,8.99,13.48,19.92,13.48,32.79s-4.49,23.8-13.48,32.79c-8.99,8.99-19.92,13.48-32.79,13.48ZM0,197.13v-27.21c0-4.57,1.36-8.98,4.09-13.22,2.73-4.24,6.54-7.91,11.44-11.01,13.01-7.48,26.69-13.22,41.02-17.21,14.34-3.99,28.79-5.98,43.37-5.98,14.58,0,29.06,1.99,43.45,5.98,14.39,3.99,28.09,9.73,41.1,17.21,4.9,2.85,8.71,6.46,11.44,10.82,2.73,4.36,4.09,8.83,4.09,13.4v27.21H0Zm19.4-19.4h161.19v-7.81c0-1.57-.57-3.06-1.7-4.44-1.14-1.39-2.7-2.57-4.7-3.53-10.87-6.58-22.61-11.57-35.23-14.95-12.62-3.39-25.61-5.08-38.97-5.08s-26.35,1.69-38.97,5.08c-12.62,3.39-24.36,8.37-35.23,14.95-2.01,1.38-3.58,2.7-4.71,3.96-1.13,1.26-1.69,2.6-1.69,4.02v7.81Zm80.68-101.72c7.41,0,13.73-2.64,18.95-7.92,5.22-5.28,7.84-11.62,7.84-19.03s-2.64-13.73-7.91-18.95c-5.28-5.22-11.62-7.84-19.03-7.84-7.41,0-13.73,2.64-18.95,7.91-5.22,5.28-7.84,11.62-7.84,19.03s2.64,13.73,7.91,18.95c5.28,5.22,11.62,7.84,19.03,7.84Z"/>
</svg>