<?xml version="1.0" encoding="UTF-8"?>
<svg id="Layer_1" data-name="Layer 1" xmlns="http://www.w3.org/2000/svg" viewBox="0 0 300 300">
  <defs>
    <style>
      .cls-1 {
        fill: #000;
        stroke-width: 0px;
      }
    </style>
  </defs>
  <path class="cls-1" d="M88.85,266.29l-17.14-17.14,84.46-84.77,42.84,42.84,63.35-63.35,17.44,17.44-80.79,80.49-42.84-42.84-67.33,67.33ZM47.23,254.05c-6.73,0-12.5-2.4-17.29-7.19-4.79-4.79-7.19-10.56-7.19-17.29V58.19c0-6.73,2.4-12.5,7.19-17.29,4.79-4.79,10.56-7.19,17.29-7.19h171.38c6.73,0,12.5,2.4,17.29,7.19s7.19,10.56,7.19,17.29v51.41H47.23v144.45ZM47.23,85.12h171.38v-26.93H47.23v26.93ZM47.23,85.12v-26.93,26.93Z"/>
</svg>