<?xml version="1.0" encoding="UTF-8"?>
<svg id="Layer_1" data-name="Layer 1" xmlns="http://www.w3.org/2000/svg" viewBox="0 0 200 200">
  <defs>
    <style>
      .cls-1 {
        stroke-width: 0px;
      }
    </style>
  </defs>
  <path class="cls-1" d="m14.64,148.04l-13.5-9.61,43.92-71.38,27.45,32.94,38.43-60.4,27.45,38.43c-3.2,0-6.29.23-9.27.69s-5.91,1.22-8.81,2.29l-8.69-11.9-37.29,58.79-27.22-32.71-32.49,52.85Zm172.49,45.3l-28.14-28.14c-3.05,1.98-6.29,3.51-9.72,4.58s-7.05,1.6-10.87,1.6c-10.68,0-19.75-3.74-27.22-11.21-7.47-7.47-11.21-16.55-11.21-27.22s3.74-19.75,11.21-27.22c7.47-7.47,16.55-11.21,27.22-11.21s19.75,3.74,27.22,11.21c7.47,7.47,11.21,16.55,11.21,27.22,0,3.81-.53,7.44-1.6,10.87-1.07,3.43-2.59,6.67-4.58,9.72l28.14,28.14-11.67,11.67Zm-48.73-38.43c6.1,0,11.29-2.14,15.56-6.41,4.27-4.27,6.41-9.46,6.41-15.56s-2.14-11.29-6.41-15.56c-4.27-4.27-9.46-6.41-15.56-6.41s-11.29,2.14-15.56,6.41c-4.27,4.27-6.41,9.46-6.41,15.56s2.14,11.29,6.41,15.56c4.27,4.27,9.46,6.41,15.56,6.41Zm17.84-73.89c-2.75-1.07-5.64-1.83-8.69-2.29s-6.1-.69-9.15-.69L185.3,6.66l13.5,9.61-42.55,64.74Z"/>
  <path class="cls-1" d="m187.13,194.54l-28.26-28.26c-2.94,1.84-6.08,3.28-9.35,4.3-3.5,1.09-7.24,1.64-11.12,1.64-10.86,0-20.22-3.86-27.83-11.46-7.6-7.6-11.46-16.97-11.46-27.83s3.86-20.22,11.46-27.83c7.6-7.6,16.96-11.46,27.82-11.46s20.22,3.86,27.82,11.46c7.6,7.6,11.46,16.96,11.46,27.83,0,3.88-.55,7.62-1.64,11.12-1.02,3.27-2.47,6.42-4.3,9.35l28.26,28.26-12.87,12.87Zm-28.02-30.43l28.02,28.02,10.47-10.46-28.02-28.02.38-.58c1.93-2.97,3.44-6.17,4.48-9.51,1.04-3.33,1.56-6.9,1.56-10.61,0-10.39-3.69-19.35-10.96-26.62-7.27-7.27-16.23-10.96-26.62-10.96s-19.35,3.69-26.62,10.96c-7.27,7.27-10.96,16.23-10.96,26.62s3.69,19.35,10.96,26.62c7.27,7.27,16.23,10.96,26.62,10.96,3.71,0,7.28-.53,10.61-1.56,3.34-1.04,6.54-2.55,9.51-4.48l.58-.38Zm-20.7-8.36c-6.31,0-11.74-2.24-16.16-6.65-4.42-4.42-6.65-9.85-6.65-16.16s2.24-11.74,6.65-16.16c4.41-4.42,9.85-6.65,16.16-6.65s11.74,2.24,16.16,6.65c4.42,4.42,6.65,9.85,6.65,16.16s-2.24,11.74-6.65,16.16c-4.42,4.42-9.85,6.65-16.16,6.65Zm0-43.92c-5.84,0-10.87,2.07-14.96,6.16-4.09,4.08-6.16,9.12-6.16,14.96s2.07,10.87,6.16,14.96c4.08,4.09,9.12,6.16,14.96,6.16s10.87-2.07,14.96-6.16c4.08-4.09,6.16-9.12,6.16-14.96s-2.07-10.87-6.16-14.96c-4.08-4.09-9.12-6.16-14.96-6.16ZM14.89,149.26l-14.89-10.6,44.96-73.06,27.46,32.96,38.49-60.48,27.46,38.45L185.07,5.46l14.88,10.59-43.38,66-.64-.25c-2.67-1.04-5.54-1.79-8.51-2.24-6.14-.92-12.47-.88-18.16,0-2.9.45-5.81,1.2-8.64,2.25l-.6.22-8.34-11.41-37.25,58.73-27.21-32.7-32.34,52.61Zm-12.61-11.06l12.11,8.62,32.63-53.08,27.23,32.73,37.33-58.86,9.05,12.39c2.75-.97,5.56-1.68,8.37-2.11,2.49-.38,5.1-.61,7.76-.68l-25.77-36.08-38.38,60.31-27.44-32.93L2.28,138.2Zm137.68-60.99c2.57.07,5.16.29,7.71.68,2.86.43,5.63,1.13,8.23,2.09l41.73-63.49-12.11-8.62-45.56,69.34Z"/>
</svg>