<?xml version="1.0" encoding="UTF-8"?>
<svg id="Layer_1" data-name="Layer 1" xmlns="http://www.w3.org/2000/svg" viewBox="0 0 200 200">
  <defs>
    <style>
      .cls-1 {
        stroke-width: 0px;
      }
    </style>
  </defs>
  <g>
    <path class="cls-1" d="m68.93,166.55l-45.1-43.64-20.37,14.55v-17.82l21.82-15.64,44.55,43.28,30.37-24.37h34.19v14.55h-29.1l-36.37,29.1Zm0-65.46l-31.82-31.82L3.46,93.81v-18l35.1-25.64,31.82,31.82,64.01-46.37v18l-65.46,47.46Z"/>
    <path class="cls-1" d="m68.71,171.16l-45.22-43.76L0,144.19v-26.33l25.62-18.36,44.44,43.17,28.93-23.22h38.87v21.47h-31.34l-37.8,30.24Zm-44.54-52.75l44.98,43.53,34.94-27.95h26.85v-7.62h-29.51l-31.81,25.52-44.67-43.39-18.02,12.92v9.31l17.24-12.31Zm44.4-12.79l-31.82-31.82L0,100.63v-26.58l38.91-28.43,31.83,31.83,67.11-48.62v26.56l-69.29,50.23Zm-31.11-40.91l31.83,31.83,61.64-44.69v-9.45l-60.91,44.12-31.81-31.81-31.28,22.85v9.43l30.53-22.28Z"/>
  </g>
  <path class="cls-1" d="m190.85,136.77l-22.07-22.07c-2.39,1.56-4.93,2.75-7.63,3.59-2.69.84-5.53,1.26-8.52,1.26-8.37,0-15.49-2.93-21.35-8.79-5.86-5.86-8.79-12.98-8.79-21.35s2.93-15.49,8.79-21.35c5.86-5.86,12.98-8.79,21.35-8.79s15.49,2.93,21.35,8.79c5.86,5.86,8.79,12.98,8.79,21.35,0,2.99-.42,5.83-1.26,8.52s-2.03,5.23-3.59,7.63l22.07,22.07-9.15,9.15Zm-38.22-30.15c4.79,0,8.85-1.67,12.2-5.02,3.35-3.35,5.02-7.42,5.02-12.2s-1.67-8.85-5.02-12.2c-3.35-3.35-7.42-5.02-12.2-5.02s-8.85,1.67-12.2,5.02c-3.35,3.35-5.02,7.42-5.02,12.2s1.67,8.85,5.02,12.2c3.35,3.35,7.42,5.02,12.2,5.02Z"/>
</svg>