<?xml version="1.0" encoding="UTF-8"?>
<svg id="Layer_1" data-name="Layer 1" xmlns="http://www.w3.org/2000/svg" viewBox="0 0 200 200">
  <defs>
    <style>
      .cls-1 {
        stroke-width: 0px;
      }
    </style>
  </defs>
  <path class="cls-1" d="m194.12,15.87c-3.92-3.92-8.63-5.87-14.13-5.87H20c-5.5,0-10.21,1.96-14.12,5.87C1.96,19.79,0,24.5,0,30v120c0,5.5,1.96,10.21,5.88,14.13,3.92,3.92,8.62,5.87,14.12,5.87h40v20h80v-20h40c5.5,0,10.21-1.96,14.13-5.87s5.88-8.62,5.88-14.13V30c0-5.5-1.96-10.21-5.88-14.13Zm-14.13,134.13H20V30h160v120Z"/>
</svg>