<?xml version="1.0" encoding="UTF-8"?>
<svg id="Layer_1" data-name="Layer 1" xmlns="http://www.w3.org/2000/svg" viewBox="0 0 200 200">
  <defs>
    <style>
      .cls-1 {
        stroke-width: 0px;
      }
    </style>
  </defs>
  <path class="cls-1" d="m18.75,200c-5.16,0-9.57-1.84-13.24-5.51-3.67-3.67-5.51-8.09-5.51-13.24V43.75c0-5.23,1.82-9.7,5.47-13.43,3.65-3.72,8.07-5.5,13.28-5.32h90.1l-18.75,18.75H18.75v137.5h137.5v-71.35l18.75-18.75v90.1c0,5.16-1.84,9.57-5.51,13.24-3.67,3.67-8.09,5.51-13.24,5.51H18.75Zm43.75-62.5v-39.84L154.69,5.47c1.91-1.91,3.99-3.3,6.25-4.17C163.19.43,165.49,0,167.84,0,170.34,0,172.72.43,174.99,1.3c2.27.87,4.35,2.24,6.25,4.11l13.3,13.34c1.91,1.91,3.3,4.01,4.17,6.3.87,2.29,1.3,4.62,1.3,6.98s-.44,4.7-1.31,7c-.87,2.29-2.26,4.39-4.16,6.28l-92.19,92.19h-39.84Zm118.75-105.47l-13.28-13.28,13.28,13.28Zm-100,86.72h13.28l60.16-60.16-6.51-6.77-6.77-6.51-60.16,60.16v13.28Zm66.93-66.93l-6.77-6.51,6.77,6.51,6.51,6.77-6.51-6.77Z"/>
</svg>