<?xml version="1.0" encoding="UTF-8"?>
<svg id="Layer_1" data-name="Layer 1" xmlns="http://www.w3.org/2000/svg" viewBox="0 0 200 200">
  <defs>
    <style>
      .cls-1 {
        stroke-width: 0px;
      }
    </style>
  </defs>
  <path class="cls-1" d="m51.43,190.48l-13.33-13.33,65.71-65.95,33.33,33.33,49.29-49.29,13.57,13.57-62.86,62.62-33.33-33.33-52.38,52.38Zm-32.38-9.52c-5.24,0-9.72-1.87-13.45-5.6-3.73-3.73-5.6-8.21-5.6-13.45V28.57c0-5.24,1.87-9.72,5.6-13.45,3.73-3.73,8.21-5.6,13.45-5.6h133.33c5.24,0,9.72,1.87,13.45,5.6s5.6,8.21,5.6,13.45v40H19.05v112.38Zm0-131.43h133.33v-20.95H19.05v20.95Zm0,0v-20.95,20.95Z"/>
</svg>