<?xml version="1.0" encoding="utf-8"?>
<!-- Generator: Adobe Illustrator 27.4.0, SVG Export Plug-In . SVG Version: 6.00 Build 0)  -->
<svg version="1.1" id="Layer_1" xmlns="http://www.w3.org/2000/svg" xmlns:xlink="http://www.w3.org/1999/xlink" x="0px" y="0px"
	 viewBox="0 0 150 150" enable-background="new 0 0 150 150" xml:space="preserve">
<g>
	<g>
		<rect fill="none" width="150" height="150"/>
	</g>
	<g>
		<rect x="10" y="10" fill="none" width="130" height="130"/>
	</g>
</g>
<g>
	<path d="M24.4,138.7c-4,0-7.4-1.4-10.2-4.2c-2.8-2.8-4.2-6.3-4.2-10.3V53.6c0-4,1.4-7.4,4.2-10.2c2.8-2.8,6.2-4.2,10.2-4.2H47V25.8
		c0-4,1.4-7.4,4.2-10.3c2.8-2.8,6.2-4.2,10.2-4.2h27.2c4,0,7.4,1.4,10.2,4.2c2.8,2.8,4.2,6.3,4.2,10.3v13.4h22.6
		c4,0,7.4,1.4,10.3,4.2c2.8,2.8,4.2,6.2,4.2,10.2v70.6c0,4-1.4,7.4-4.2,10.3c-2.8,2.8-6.3,4.2-10.3,4.2H24.4z M24.4,124.2h101.1
		V53.6H24.4V124.2z M61.3,39.3h27.2V25.8H61.3V39.3z M24.4,124.2V53.6V124.2z"/>
	<path d="M125.5,139.2H24.4c-4.1,0-7.6-1.5-10.5-4.4c-2.9-2.9-4.3-6.5-4.3-10.6V53.6c0-4.1,1.5-7.6,4.3-10.5
		c2.9-2.9,6.4-4.3,10.5-4.3h22.1V25.8c0-4.1,1.5-7.7,4.3-10.6c2.9-2.9,6.4-4.4,10.5-4.4h27.2c4.1,0,7.6,1.5,10.5,4.4
		c2.9,2.9,4.3,6.5,4.3,10.6v12.9h22.1c4.1,0,7.7,1.5,10.6,4.3c2.9,2.9,4.4,6.4,4.4,10.5v70.6c0,4.1-1.5,7.7-4.4,10.6
		C133.2,137.7,129.6,139.2,125.5,139.2z M24.4,39.8c-3.8,0-7.1,1.4-9.8,4.1c-2.7,2.7-4,6-4,9.8v70.6c0,3.9,1.4,7.2,4.1,9.9
		c2.7,2.7,6,4.1,9.8,4.1h101.1c3.9,0,7.2-1.4,9.9-4.1c2.7-2.7,4.1-6.1,4.1-9.9V53.6c0-3.8-1.4-7.1-4.1-9.8c-2.7-2.7-6.1-4.1-9.9-4.1
		h-23.1V25.8c0-3.9-1.4-7.2-4.1-9.9c-2.7-2.7-6-4.1-9.8-4.1H61.3c-3.8,0-7.1,1.4-9.8,4.1c-2.7,2.7-4.1,6.1-4.1,9.9v13.9H24.4z
		 M126,124.7H23.9V53.1H126V124.7z M24.9,123.7H125V54.1H24.9V123.7z M89,39.8H60.8V25.3H89V39.8z M61.8,38.8H88V26.3H61.8V38.8z"/>
</g>
</svg>
