<?xml version="1.0" encoding="UTF-8"?>
<svg id="Layer_1" data-name="Layer 1" xmlns="http://www.w3.org/2000/svg" viewBox="0 0 200 200">
  <defs>
    <style>
      .cls-1 {
        stroke-width: 0px;
      }
    </style>
  </defs>
  <path class="cls-1" d="m0,165v-20h100v20H0Zm0-50v-20h50v20H0Zm0-50v-20h50v20H0Zm186,100l-38.5-38.5c-4,2.83-8.38,4.96-13.12,6.38s-9.54,2.12-14.38,2.12c-13.83,0-25.62-4.87-35.37-14.63-9.75-9.75-14.62-21.54-14.62-35.38s4.87-25.63,14.62-35.37c9.75-9.75,21.54-14.63,35.37-14.63s25.63,4.88,35.38,14.63c9.75,9.75,14.63,21.54,14.63,35.37,0,4.83-.71,9.63-2.12,14.38-1.42,4.75-3.54,9.12-6.38,13.13l38.5,38.5-14,14Zm-66-50c8.33,0,15.42-2.92,21.25-8.75,5.83-5.83,8.75-12.92,8.75-21.25s-2.92-15.42-8.75-21.25c-5.83-5.83-12.92-8.75-21.25-8.75s-15.42,2.92-21.25,8.75c-5.83,5.83-8.75,12.92-8.75,21.25s2.92,15.42,8.75,21.25c5.83,5.83,12.92,8.75,21.25,8.75Z"/>
</svg>