<?xml version="1.0" encoding="UTF-8"?>
<svg id="Layer_1" data-name="Layer 1" xmlns="http://www.w3.org/2000/svg" viewBox="0 0 200 200">
  <defs>
    <style>
      .cls-1 {
        stroke-width: 0px;
      }
    </style>
  </defs>
  <path class="cls-1" d="m18.2,156.85l-13.43-13.43,70.98-71.46,38.37,38.37,49.88-49.4h-24.94v-19.18h57.55v57.55h-19.18v-24.94l-63.31,63.31-38.37-38.37-57.55,57.55Z"/>
  <path class="cls-1" d="m18.21,161.63L0,143.43l75.75-76.26,38.39,38.39,41.65-41.24h-20.1v-25.95h64.32v64.32h-25.95v-20.16l-59.93,59.92-38.37-38.37-57.55,57.55Zm-8.65-18.22l8.65,8.65,57.55-57.55,38.37,38.37,66.69-66.69v29.72h12.42v-50.79h-50.79v12.42h29.78l-58.11,57.55-38.35-38.35L9.55,143.42Z"/>
</svg>